<?xml version="1.0" encoding="UTF-8"?>
<svg width="1284px" height="724px" viewBox="0 0 1284 724" version="1.1" xmlns="http://www.w3.org/2000/svg" xmlns:xlink="http://www.w3.org/1999/xlink">
    <!-- Generator: Sketch 58 (84663) - https://sketch.com -->
    <title>lightning_nav02_05_payments</title>
    <desc>Created with Sketch.</desc>
    <defs>
        <rect id="path-1" x="0" y="0" width="1066" height="75"></rect>
        <filter x="-0.0%" y="-0.7%" width="100.1%" height="102.7%" filterUnits="objectBoundingBox" id="filter-2">
            <feOffset dx="0" dy="1" in="SourceAlpha" result="shadowOffsetOuter1"></feOffset>
            <feColorMatrix values="0 0 0 0 0.857506793   0 0 0 0 0.857506793   0 0 0 0 0.857506793  0 0 0 1 0" type="matrix" in="shadowOffsetOuter1"></feColorMatrix>
        </filter>
        <rect id="path-3" x="0" y="91" width="218" height="633"></rect>
        <filter x="-6.7%" y="-2.0%" width="113.3%" height="104.6%" filterUnits="objectBoundingBox" id="filter-4">
            <feOffset dx="0" dy="2" in="SourceAlpha" result="shadowOffsetOuter1"></feOffset>
            <feGaussianBlur stdDeviation="4.5" in="shadowOffsetOuter1" result="shadowBlurOuter1"></feGaussianBlur>
            <feColorMatrix values="0 0 0 0 0.508718297   0 0 0 0 0.508320861   0 0 0 0 0.508320861  0 0 0 0.5 0" type="matrix" in="shadowBlurOuter1"></feColorMatrix>
        </filter>
        <rect id="path-5" x="0" y="38" width="1284" height="53"></rect>
        <filter x="-0.8%" y="-15.1%" width="101.6%" height="137.7%" filterUnits="objectBoundingBox" id="filter-6">
            <feOffset dx="0" dy="2" in="SourceAlpha" result="shadowOffsetOuter1"></feOffset>
            <feGaussianBlur stdDeviation="3" in="shadowOffsetOuter1" result="shadowBlurOuter1"></feGaussianBlur>
            <feColorMatrix values="0 0 0 0 0   0 0 0 0 0   0 0 0 0 0  0 0 0 0.5 0" type="matrix" in="shadowBlurOuter1"></feColorMatrix>
        </filter>
        <rect id="path-7" x="0" y="0" width="122" height="36" rx="4"></rect>
        <filter x="-3.3%" y="-5.6%" width="106.6%" height="122.2%" filterUnits="objectBoundingBox" id="filter-8">
            <feOffset dx="0" dy="2" in="SourceAlpha" result="shadowOffsetOuter1"></feOffset>
            <feGaussianBlur stdDeviation="1" in="shadowOffsetOuter1" result="shadowBlurOuter1"></feGaussianBlur>
            <feColorMatrix values="0 0 0 0 0   0 0 0 0 0   0 0 0 0 0  0 0 0 0.257457386 0" type="matrix" in="shadowBlurOuter1"></feColorMatrix>
        </filter>
    </defs>
    <g id="lightning_nav02_05_payments" stroke="none" stroke-width="1" fill="none" fill-rule="evenodd">
        <rect fill="#1D1E1F" x="0" y="0" width="1284" height="724"></rect>
        <rect id="Background" fill="#F2F5F6" x="0" y="38" width="1284" height="686"></rect>
        <g id="Group-22" transform="translate(218.000000, 90.000000)">
            <g id="Rectangle">
                <use fill="black" fill-opacity="1" filter="url(#filter-2)" xlink:href="#path-1"></use>
                <use fill="#FFFFFF" fill-rule="evenodd" xlink:href="#path-1"></use>
            </g>
            <g id="Group-21" transform="translate(29.000000, 17.000000)">
                <text id="Total-Balance" font-family="Roboto-Medium, Roboto" font-size="12" font-weight="400" fill="#5E4EA5">
                    <tspan x="0" y="11">Total Balance</tspan>
                </text>
                <text id="413,722-sats" font-family="Roboto-Light, Roboto" font-size="20" font-weight="300" fill="#222831">
                    <tspan x="0" y="37">413,722 sats</tspan>
                </text>
            </g>
            <g id="Group-20" transform="translate(176.000000, 17.000000)">
                <text id="Confirmed" font-family="Roboto-Medium, Roboto" font-size="12" font-weight="400" fill="#5E4EA5">
                    <tspan x="0" y="11">Confirmed</tspan>
                </text>
                <text id="413,722-sats" font-family="Roboto-Light, Roboto" font-size="20" font-weight="300" fill="#222831">
                    <tspan x="0" y="37">413,722 sats</tspan>
                </text>
            </g>
            <g id="Group-19" transform="translate(323.000000, 17.000000)">
                <text id="Unconfirmed" font-family="Roboto-Medium, Roboto" font-size="12" font-weight="400" fill="#5E4EA5">
                    <tspan x="0" y="11">Unconfirmed</tspan>
                </text>
                <text id="0-sats" font-family="Roboto-Light, Roboto" font-size="20" font-weight="300" fill="#222831">
                    <tspan x="0" y="37">0 sats</tspan>
                </text>
            </g>
        </g>
        <g id="Rectangle">
            <use fill="black" fill-opacity="1" filter="url(#filter-4)" xlink:href="#path-3"></use>
            <use fill="#FFFFFF" fill-rule="evenodd" xlink:href="#path-3"></use>
        </g>
        <g id="Group-14" transform="translate(0.000000, 118.000000)">
            <rect id="Rectangle" fill="#D8D8D8" opacity="0" x="0" y="34" width="218" height="48"></rect>
            <text id="Dashboard" font-family="FontAwesome5Pro-Regular, Font Awesome 5 Pro" font-size="14" font-weight="normal" fill="#4A4A4A">
                <tspan x="25" y="63">link</tspan>
            </text>
            <text id="On-chain" font-family="Roboto-Regular, Roboto" font-size="14" font-weight="normal" fill="#4A4A4A">
                <tspan x="70" y="63">On-chain</tspan>
            </text>
            <g id="Group-23" transform="translate(0.000000, 222.000000)">
                <g id="Group-3" transform="translate(0.000000, 96.000000)">
                    <rect id="Rectangle" fill="#D8D8D8" opacity="0" x="0" y="0" width="218" height="48"></rect>
                    <text id="Dashboard" font-family="FontAwesome5Pro-Regular, Font Awesome 5 Pro" font-size="14" font-weight="normal" fill="#4A4A4A">
                        <tspan x="25" y="29">cog</tspan>
                    </text>
                    <text id="On-chain" font-family="Roboto-Regular, Roboto" font-size="14" font-weight="normal" fill="#4A4A4A">
                        <tspan x="70" y="29">Advanced</tspan>
                    </text>
                </g>
                <g id="Group-3" transform="translate(0.000000, 144.000000)">
                    <rect id="Rectangle" fill="#D8D8D8" opacity="0" x="0" y="0" width="218" height="48"></rect>
                    <text id="Dashboard" font-family="FontAwesome5Pro-Regular, Font Awesome 5 Pro" font-size="14" font-weight="normal" fill="#4A4A4A">
                        <tspan x="25" y="29">life-ring</tspan>
                    </text>
                    <text id="On-chain" font-family="Roboto-Regular, Roboto" font-size="14" font-weight="normal" fill="#4A4A4A">
                        <tspan x="70" y="29">Help</tspan>
                    </text>
                </g>
                <g id="Group-2">
                    <rect id="Rectangle" fill-opacity="0.114128059" fill="#5E4EA5" opacity="0" x="0" y="0" width="218" height="48"></rect>
                    <text id="On-chain-Copy" font-family="Roboto-Regular, Roboto" font-size="14" font-weight="normal" fill="#474747">
                        <tspan x="76" y="29">Lookup</tspan>
                    </text>
                </g>
                <g id="Group-2" transform="translate(0.000000, 48.000000)">
                    <rect id="Rectangle" fill-opacity="0.114128059" fill="#5E4EA5" opacity="0" x="0" y="0" width="218" height="48"></rect>
                    <text id="On-chain-Copy" font-family="Roboto-Regular, Roboto" font-size="14" font-weight="normal" fill="#474747">
                        <tspan x="76" y="29">Routing</tspan>
                    </text>
                </g>
            </g>
            <g id="Group-4" transform="translate(0.000000, 82.000000)" fill-opacity="0.114128059">
                <rect id="Rectangle" fill="#C2C2C2" x="0" y="0" width="218" height="236"></rect>
                <rect id="Rectangle" fill="#BEBEBE" x="0" y="45" width="218" height="48"></rect>
            </g>
            <text id="On-chain-Copy" font-family="Roboto-Regular, Roboto" font-size="14" font-weight="normal" fill="#474747">
                <tspan x="70" y="111">Lightning</tspan>
            </text>
            <text id="Dashboard" font-family="FontAwesome5Pro-Regular, Font Awesome 5 Pro" font-size="14" font-weight="normal" fill="#4C4C4C">
                <tspan x="28" y="112">bolt</tspan>
            </text>
            <g id="Group-2" transform="translate(0.000000, 126.000000)" fill="#5E4EA5">
                <rect id="Rectangle" fill-opacity="0.114128059" opacity="0" x="0" y="0" width="218" height="48"></rect>
                <text id="On-chain-Copy" font-family="Roboto-Medium, Roboto" font-size="14" font-weight="400">
                    <tspan x="76" y="29">Transactions</tspan>
                </text>
            </g>
            <g id="Group-13" transform="translate(0.000000, 174.000000)">
                <g id="Group-2">
                    <rect id="Rectangle" fill-opacity="0.114128059" fill="#5E4EA5" opacity="0" x="0" y="0" width="218" height="48"></rect>
                    <text id="On-chain-Copy" font-family="Roboto-Regular, Roboto" font-size="14" font-weight="normal" fill="#474747">
                        <tspan x="76" y="29">Peers / Channels</tspan>
                    </text>
                </g>
                <text id="Dashboard" font-family="FontAwesome5Pro-Regular, Font Awesome 5 Pro" font-size="14" font-weight="normal" fill="#4C4C4C">
                    <tspan x="34" y="29">users</tspan>
                </text>
            </g>
            <text id="Dashboard" font-family="Roboto-Regular, Roboto" font-size="14" font-weight="normal" fill="#4A4A4A">
                <tspan x="70" y="13">Dashboard</tspan>
            </text>
            <text id="Dashboard" font-family="FontAwesome5Pro-Regular, Font Awesome 5 Pro" font-size="14" font-weight="normal" fill="#4A4A4A">
                <tspan x="24" y="12">tachometer-alt</tspan>
            </text>
            <text id="Dashboard" font-family="FontAwesome5Pro-Regular, Font Awesome 5 Pro" font-size="14" font-weight="normal" fill="#5E4EA5">
                <tspan x="36" y="155">exchange-alt</tspan>
            </text>
            <text id="Dashboard" font-family="FontAwesome5Pro-Regular, Font Awesome 5 Pro" font-size="14" font-weight="normal" fill="#4C4C4C">
                <tspan x="36" y="252">search</tspan>
            </text>
            <text id="Dashboard" font-family="FontAwesome5Pro-Regular, Font Awesome 5 Pro" font-size="14" font-weight="normal" fill="#4C4C4C">
                <tspan x="34" y="298">chart-network</tspan>
            </text>
        </g>
        <g id="Rectangle-13">
            <use fill="black" fill-opacity="1" filter="url(#filter-6)" xlink:href="#path-5"></use>
            <use fill="#5E4EA5" fill-rule="evenodd" xlink:href="#path-5"></use>
        </g>
        <g id="Browser">
            <path d="M0,6.00024414 C0,2.68640081 2.6794487,0 5.99234946,0 L1278.00765,0 C1281.31713,0 1284,2.68722626 1284,6.00024414 L1284,38 L0,38 L0,6.00024414 Z" id="Tab-BG---Right" fill="#363738"></path>
            <circle id="Dot---Red" fill="#FF5F57" cx="18" cy="19" r="6"></circle>
            <circle id="Dot---Orange" fill="#FFBF2F" cx="38" cy="19" r="6"></circle>
            <circle id="Dot---Green" fill="#28CA42" cx="58" cy="19" r="6"></circle>
            <g id="Back" transform="translate(76.000000, 7.000000)">
                <rect id="Rectangle" fill="#656668" x="0" y="0" width="28" height="24" rx="4"></rect>
                <path d="M10.1607883,11.3246277 L15.780455,5.65901618 C15.9603839,5.47908726 16.2513057,5.47908726 16.4312347,5.65901618 L17.1891941,6.41697565 C17.3691231,6.59690457 17.3691231,6.88782642 17.1891941,7.06775535 L12.6528768,11.6500175 L17.1891941,16.2322797 C17.3691231,16.4122086 17.3691231,16.7031305 17.1891941,16.8830594 L16.4312347,17.6410189 C16.2513057,17.8209478 15.9603839,17.8209478 15.780455,17.6410189 L10.1607883,11.9754074 C9.98085942,11.7954785 9.98085942,11.5045566 10.1607883,11.3246277 Z" id="a" fill="#FFFFFF" fill-rule="nonzero"></path>
            </g>
            <g id="Forward" transform="translate(105.000000, 7.000000)">
                <rect id="Rectangle" fill="#656668" x="0" y="0" width="28" height="24" rx="4"></rect>
                <path d="M18.1891941,11.9754074 L12.5695275,17.6410189 C12.3895986,17.8209478 12.0986767,17.8209478 11.9187478,17.6410189 L11.1607883,16.8830594 C10.9808594,16.7031305 10.9808594,16.4122086 11.1607883,16.2322797 L15.6971057,11.6500175 L11.1607883,7.06775535 C10.9808594,6.88782642 10.9808594,6.59690457 11.1607883,6.41697565 L11.9187478,5.65901618 C12.0986767,5.47908726 12.3895986,5.47908726 12.5695275,5.65901618 L18.1891941,11.3246277 C18.3691231,11.5045566 18.3691231,11.7954785 18.1891941,11.9754074 Z" id="a" fill="#FFFFFF" fill-rule="nonzero" opacity="0.200334821"></path>
            </g>
            <g id="New-Tab" transform="translate(1260.000000, 14.000000)">
                <rect id="Rectangle" fill="#292A2B" x="0" y="0" width="24" height="24"></rect>
                <path d="M16.2531029,11.6843877 C16.3618742,11.6843877 16.4499775,11.7724909 16.4499775,11.8812622 L16.4499775,12.6687603 C16.4499775,12.7775316 16.3618742,12.8656349 16.2531029,12.8656349 L12.3156123,12.8656349 L12.3156123,16.8031255 C12.3156123,16.9118967 12.2275091,17 12.1187378,17 L11.3312397,17 C11.2224684,17 11.1343651,16.9118967 11.1343651,16.8031255 L11.1343651,12.8656349 L7.19687453,12.8656349 C7.08810328,12.8656349 7,12.7775316 7,12.6687603 L7,11.8812622 C7,11.7724909 7.08810328,11.6843877 7.19687453,11.6843877 L11.1343651,11.6843877 L11.1343651,7.74689706 C11.1343651,7.63812581 11.2224684,7.55002253 11.3312397,7.55002253 L12.1187378,7.55002253 C12.2275091,7.55002253 12.3156123,7.63812581 12.3156123,7.74689706 L12.3156123,11.6843877 L16.2531029,11.6843877 Z" id="p" fill="#FFFFFF" fill-rule="nonzero" opacity="0.497907366"></path>
            </g>
            <g id="URL" transform="translate(378.000000, 7.000000)">
                <path d="M0,3.99005301 C0,1.78640758 1.78094395,5.31029755e-14 3.99753941,5.28693238e-14 L516.002461,-1.1012102e-15 C518.210241,-1.33393271e-15 520,1.78429328 520,3.99005301 L520,20.009947 C520,22.2135924 518.219056,24 516.002461,24 L3.99753941,24 C1.78975936,24 0,22.2157067 0,20.009947 L0,3.99005301 Z" id="URL-Bar" fill="#696A6B"></path>
                <path d="M512.304658,5.17186422 C512.467743,5.17186422 512.59997,5.30412783 512.59997,5.46721261 L512.59997,10.1922013 C512.59997,10.3552861 512.467743,10.4875131 512.304658,10.4875131 L507.579669,10.4875131 C507.416585,10.4875131 507.284358,10.3552861 507.284358,10.1922013 L507.284358,9.51027815 C507.284358,9.34440559 507.42091,9.21109712 507.586711,9.21503845 L510.69705,9.2890827 C509.940722,7.61516854 508.257531,6.45158527 506.299985,6.45158527 C503.633864,6.45158527 501.476559,8.60927437 501.476559,11.2750113 C501.476559,13.9411327 503.634248,16.0984373 506.299985,16.0984373 C507.533046,16.0984373 508.65724,15.6369165 509.509554,14.8770557 C509.6264,14.7728747 509.804938,14.7799403 509.915632,14.8906341 L510.401377,15.3763797 C510.521276,15.4962781 510.51534,15.6917347 510.389505,15.8053845 C509.307296,16.7829079 507.873155,17.3781217 506.299985,17.3781217 C502.93257,17.3781217 500.202138,14.6509336 500.19686,11.2847685 C500.191635,7.92836054 502.924087,5.18242707 506.280471,5.17186422 C508.411171,5.16526784 510.288545,6.2506252 511.385221,7.89993005 L511.327471,5.47425415 C511.32353,5.30842965 511.456862,5.17186422 511.622711,5.17186422 L512.304658,5.17186422 Z" id="r" fill="#FFFFFF" fill-rule="nonzero" transform="translate(506.398415, 11.274993) rotate(-45.000000) translate(-506.398415, -11.274993) "></path>
                <text id="Ride-the-Lightning" font-family="Roboto-Regular, Roboto" font-size="12.6" font-weight="normal" fill="#FFFFFF">
                    <tspan x="210" y="17">Ride the Lightning</tspan>
                </text>
            </g>
        </g>
        <text id="Dashboard" font-family="FontAwesome5Pro-Regular, Font Awesome 5 Pro" font-size="18" font-weight="normal" fill="#FFFFFF">
            <tspan x="24" y="71">bars</tspan>
        </text>
        <g id="RTL-Logo" transform="translate(1210.000000, 56.000000)" fill="#FFFFFF">
            <path d="M5.10234375,10.1960631 L3.54375,10.1960631 L2.80546875,14.4124693 L0,14.4124693 L2.0671875,2.46871933 L6.28359375,2.47692246 C7.63438175,2.47692246 8.67480104,2.79273961 9.40488281,3.4243834 C10.1349646,4.05602718 10.4617191,4.91871386 10.3851562,6.01246933 C10.3249997,6.87653615 10.0761741,7.59156807 9.63867187,8.15758652 C9.20116969,8.72360498 8.58867581,9.17067082 7.80117187,9.49879746 L9.40898437,14.2730162 L9.40898437,14.4124693 L6.41484375,14.4124693 L5.10234375,10.1960631 Z M3.92109375,7.97301621 L5.56171875,7.98942246 C6.01015849,7.98942246 6.39980303,7.88004855 6.73066406,7.66129746 C7.06152509,7.44254636 7.29804616,7.1431353 7.44023438,6.76305527 C7.58242259,6.38297525 7.6234378,6.01520549 7.56328125,5.65973496 C7.4539057,5.05270067 7.06562834,4.732782 6.3984375,4.69996933 L4.4953125,4.69176621 L3.92109375,7.97301621 Z M21.0984375,4.69176621 L17.6203125,4.69176621 L15.9386719,14.4124693 L13.125,14.4124693 L14.8148438,4.69176621 L11.3941406,4.69176621 L11.7878906,2.46871933 L21.4839844,2.46871933 L21.0984375,4.69176621 Z M23.8464844,12.1976256 L28.7109375,12.1976256 L28.3253906,14.4124693 L20.6554688,14.4124693 L22.7226562,2.46871933 L25.5363281,2.46871933 L23.8464844,12.1976256 Z" id="RTL-Copy" fill-rule="nonzero"></path>
            <path d="M37.882011,5.59373905 C38.4131621,5.59373905 38.7433371,6.1708163 38.4763316,6.62733033 L33.4232186,15.3554345 C33.2968796,15.5736259 33.0671926,15.699965 32.8260382,15.699965 C32.3867394,15.699965 32.0537046,15.2894051 32.1570525,14.8529943 L33.4806404,9.26873029 L30.0726546,9.26873029 C29.656347,9.26873029 29.3347797,8.90123677 29.3893415,8.48778904 L30.3080893,1.59718047 C30.3540155,1.25553795 30.646872,1 30.9914024,1 L35.1257676,1 C35.5765338,1 35.9067088,1.43066304 35.7918653,1.86707385 L34.5687655,5.59373905 L37.882011,5.59373905 Z" id="b-copy" fill-rule="nonzero"></path>
            <text id="caret-down-copy" font-family="FontAwesome5Pro-Solid, Font Awesome 5 Pro" font-size="16" font-weight="700">
                <tspan x="46" y="14">caret-down</tspan>
            </text>
        </g>
        <g id="Group-10" transform="translate(70.000000, 55.000000)">
            <g id="Group-9">
                <g id="Group-6" transform="translate(1.000000, 0.000000)">
                    <g id="Group-3">
                        <circle id="Oval" fill="#28CA42" cx="5" cy="8" r="5"></circle>
                        <text id="NODE:-AMORA_[UK01]" font-family="Roboto-Bold, Roboto" font-size="14" font-weight="bold" letter-spacing="1.20000005" fill="#FFFFFF">
                            <tspan x="15.8318355" y="13">NODE: AMORA_[UK01]</tspan>
                        </text>
                    </g>
                </g>
                <rect id="Rectangle" fill="#FFFFFF" x="0" y="30" width="181" height="5"></rect>
            </g>
            <g id="Group-6" transform="translate(211.000000, 0.000000)">
                <g id="Group-3">
                    <circle id="Oval" fill="#28CA42" cx="5" cy="8" r="5"></circle>
                    <text id="NODE:-AMORA_[UK01]" font-family="Roboto-Medium, Roboto" font-size="14" font-weight="400" letter-spacing="1.20000005" fill="#FFFFFF">
                        <tspan x="16.2556636" y="13">NODE: AMORA_[UK01]</tspan>
                    </text>
                </g>
            </g>
        </g>
        <g id="Group-5" transform="translate(13.000000, 675.000000)">
            <rect id="Rectangle-Copy-7" stroke="#DCDCDC" fill="#FFFFFF" x="0.5" y="0.5" width="190" height="35" rx="4"></rect>
            <text id="Show-Public-Key" font-family="Roboto-Medium, Roboto" font-size="14" font-weight="400" fill="#4F4F4F">
                <tspan x="44.7280273" y="23">Show Public Key</tspan>
            </text>
        </g>
        <g id="Group-15" transform="translate(245.000000, 183.000000)">
            <path d="M5.1277704,36.5 C3.5776195,36.5 2.94057806,36.6230184 2.28210802,36.975172 C1.71739041,37.2771863 1.27718629,37.7173904 0.975172007,38.282108 C0.623018378,38.9405781 0.5,39.5776195 0.5,41.1277704 L0.5,549.87223 C0.5,551.42238 0.623018378,552.059422 0.975172007,552.717892 C1.27718629,553.28261 1.71739041,553.722814 2.28210802,554.024828 C2.94057806,554.376982 3.5776195,554.5 5.1277704,554.5 L1015.87223,554.5 C1017.42238,554.5 1018.05942,554.376982 1018.71789,554.024828 C1019.28261,553.722814 1019.72281,553.28261 1020.02483,552.717892 C1020.37698,552.059422 1020.5,551.42238 1020.5,549.87223 L1020.5,41.1277704 C1020.5,39.5776195 1020.37698,38.9405781 1020.02483,38.282108 C1019.72281,37.7173904 1019.28261,37.2771863 1018.71789,36.975172 C1018.05942,36.6230184 1017.42238,36.5 1015.87223,36.5 L5.1277704,36.5 Z" id="Rectangle" stroke="#DEDEDE" fill="#FFFFFF"></path>
            <path d="M158,84.5 L1021.5,84.5" id="Line" stroke="#D7D7D7" stroke-linecap="square"></path>
            <rect id="Rectangle" fill="#5E4EA5" x="0" y="83" width="160" height="2"></rect>
            <rect id="Rectangle" fill="#59316B" opacity="0" x="160" y="83" width="160" height="2"></rect>
            <rect id="Rectangle" fill="#59316B" opacity="0" x="320" y="83" width="160" height="2"></rect>
            <text id="Payments" font-family="Roboto-Medium, Roboto" font-size="14" font-weight="400" fill="#5E4EA5">
                <tspan x="48.6503906" y="66">Payments</tspan>
            </text>
            <text id="Invoice" font-family="Roboto-Regular, Roboto" font-size="14" font-weight="normal" fill="#979797">
                <tspan x="217.779785" y="66">Invoice</tspan>
            </text>
            <g id="Group-17" transform="translate(24.000000, 108.000000)">
                <g id="Group-7" transform="translate(0.000000, 22.000000)">
                    <text id="Payment-Request" font-family="Roboto-Regular, Roboto" font-size="15" font-weight="normal" fill="#444444">
                        <tspan x="1.42108547e-13" y="14">Payment Request</tspan>
                    </text>
                    <rect id="Rectangle" stroke="#979797" fill="#D8D8D8" x="0.5" y="24.5" width="972" height="1"></rect>
                </g>
                <text id="Amount" opacity="0" font-family="Roboto-Regular, Roboto" font-size="12" font-weight="normal" fill="#5E4EA5">
                    <tspan x="0" y="11">Amount</tspan>
                </text>
            </g>
            <g id="Group-8" transform="translate(25.000000, 182.000000)">
                <g id="Rectangle-Copy-7">
                    <use fill="black" fill-opacity="1" filter="url(#filter-8)" xlink:href="#path-7"></use>
                    <use fill="#5E4EA5" fill-rule="evenodd" xlink:href="#path-7"></use>
                </g>
                <text id="Send-Payment" font-family="Roboto-Medium, Roboto" font-size="14" font-weight="400" fill="#FFFFFF">
                    <tspan x="16.2836914" y="23">Send Payment</tspan>
                </text>
            </g>
            <g id="Group-5" transform="translate(160.000000, 182.000000)">
                <rect id="Rectangle-Copy-7" stroke="#DCDCDC" fill="#FFFFFF" x="0.5" y="0.5" width="95" height="35" rx="4"></rect>
                <text id="Clear-Field" font-family="Roboto-Medium, Roboto" font-size="14" font-weight="400" fill="#4F4F4F">
                    <tspan x="15.2670898" y="23">Clear Field</tspan>
                </text>
            </g>
            <path d="M30.1277704,277.5 C28.5776195,277.5 27.9405781,277.623018 27.282108,277.975172 C26.7173904,278.277186 26.2771863,278.71739 25.975172,279.282108 C25.6230184,279.940578 25.5,280.57762 25.5,282.12777 L25.5,529.87223 C25.5,531.42238 25.6230184,532.059422 25.975172,532.717892 C26.2771863,533.28261 26.7173904,533.722814 27.282108,534.024828 C27.9405781,534.376982 28.5776195,534.5 30.1277704,534.5 L989.87223,534.5 C991.42238,534.5 992.059422,534.376982 992.717892,534.024828 C993.28261,533.722814 993.722814,533.28261 994.024828,532.717892 C994.376982,532.059422 994.5,531.42238 994.5,529.87223 L994.5,282.12777 C994.5,280.57762 994.376982,279.940578 994.024828,279.282108 C993.722814,278.71739 993.28261,278.277186 992.717892,277.975172 C992.059422,277.623018 991.42238,277.5 989.87223,277.5 L30.1277704,277.5 Z" id="Rectangle" stroke="#DEDEDE" fill="#FFFFFF"></path>
            <path d="M26,333.5 L995.5,333.5" id="Line-2" stroke="#E1E1E1" stroke-linecap="square"></path>
            <path d="M26,383.5 L993.5,383.5" id="Line-2" stroke="#E1E1E1" stroke-linecap="square"></path>
            <path d="M26,435.5 L993.5,435.5" id="Line-2" stroke="#E1E1E1" stroke-linecap="square"></path>
            <g id="Group-10" transform="translate(46.000000, 298.000000)" font-size="14">
                <text id="Date/Time" font-family="Roboto-Medium, Roboto" font-weight="400" letter-spacing="0.5" fill="#000000">
                    <tspan x="0" y="13">Date/Time</tspan>
                </text>
                <text id="04/SET/2019-08:00" font-family="Roboto-Regular, Roboto" font-weight="normal" letter-spacing="0.200000003" fill="#4F4F4F">
                    <tspan x="0" y="63">04/SET/2019 08:00</tspan>
                </text>
                <text id="04/SET/2019-08:00" font-family="Roboto-Regular, Roboto" font-weight="normal" letter-spacing="0.200000003" fill="#4F4F4F">
                    <tspan x="0" y="115">04/SET/2019 08:00</tspan>
                </text>
                <text id="04/SET/2019-08:00" font-family="Roboto-Regular, Roboto" font-weight="normal" letter-spacing="0.200000003" fill="#4F4F4F">
                    <tspan x="0" y="170">04/SET/2019 08:00</tspan>
                </text>
                <text id="04/SET/2019-08:00" font-family="Roboto-Regular, Roboto" font-weight="normal" letter-spacing="0.200000003" fill="#4F4F4F">
                    <tspan x="0" y="219">04/SET/2019 08:00</tspan>
                </text>
            </g>
            <g id="Group-9" transform="translate(467.000000, 298.000000)" font-size="14">
                <text id="Addresses" font-family="Roboto-Medium, Roboto" font-weight="400" letter-spacing="0.5" fill="#000000">
                    <tspan x="0" y="13">Addresses</tspan>
                </text>
                <text id="2" font-family="Roboto-Regular, Roboto" font-weight="normal" letter-spacing="0.200000003" fill="#4F4F4F">
                    <tspan x="63" y="63">2</tspan>
                </text>
                <text id="1" font-family="Roboto-Regular, Roboto" font-weight="normal" letter-spacing="0.200000003" fill="#4F4F4F">
                    <tspan x="63" y="115">1</tspan>
                </text>
                <text id="2" font-family="Roboto-Regular, Roboto" font-weight="normal" letter-spacing="0.200000003" fill="#4F4F4F">
                    <tspan x="63" y="170">2</tspan>
                </text>
                <text id="2" font-family="Roboto-Regular, Roboto" font-weight="normal" letter-spacing="0.200000003" fill="#4F4F4F">
                    <tspan x="63" y="219">2</tspan>
                </text>
            </g>
            <g id="Group-9" transform="translate(670.000000, 298.000000)" font-size="14">
                <text id="Addresses" font-family="Roboto-Medium, Roboto" font-weight="400" letter-spacing="0.5" fill="#000000">
                    <tspan x="0" y="13">Addresses</tspan>
                </text>
                <text id="2" font-family="Roboto-Regular, Roboto" font-weight="normal" letter-spacing="0.200000003" fill="#4F4F4F">
                    <tspan x="63" y="63">2</tspan>
                </text>
                <text id="1" font-family="Roboto-Regular, Roboto" font-weight="normal" letter-spacing="0.200000003" fill="#4F4F4F">
                    <tspan x="63" y="115">1</tspan>
                </text>
                <text id="2" font-family="Roboto-Regular, Roboto" font-weight="normal" letter-spacing="0.200000003" fill="#4F4F4F">
                    <tspan x="63" y="170">2</tspan>
                </text>
                <text id="2" font-family="Roboto-Regular, Roboto" font-weight="normal" letter-spacing="0.200000003" fill="#4F4F4F">
                    <tspan x="63" y="219">2</tspan>
                </text>
            </g>
            <g id="Group-11" transform="translate(303.000000, 298.000000)" font-size="14">
                <text id="Type" font-family="Roboto-Medium, Roboto" font-weight="400" letter-spacing="0.5" fill="#000000">
                    <tspan x="0" y="13">Type</tspan>
                </text>
                <text id="Sent" font-family="Roboto-Regular, Roboto" font-weight="normal" letter-spacing="0.200000003" fill="#4F4F4F">
                    <tspan x="0" y="63">Sent</tspan>
                </text>
                <text id="Sent" font-family="Roboto-Regular, Roboto" font-weight="normal" letter-spacing="0.200000003" fill="#4F4F4F">
                    <tspan x="0" y="115">Sent</tspan>
                </text>
                <text id="Sent" font-family="Roboto-Regular, Roboto" font-weight="normal" letter-spacing="0.200000003" fill="#4F4F4F">
                    <tspan x="0" y="170">Sent</tspan>
                </text>
                <text id="Sent" font-family="Roboto-Regular, Roboto" font-weight="normal" letter-spacing="0.200000003" fill="#4F4F4F">
                    <tspan x="0" y="219">Sent</tspan>
                </text>
            </g>
            <g id="Group-12" transform="translate(873.000000, 298.000000)">
                <text id="Actions" font-family="Roboto-Medium, Roboto" font-size="14" font-weight="400" letter-spacing="0.5" fill="#000000">
                    <tspan x="31" y="13">Actions</tspan>
                </text>
                <g id="Group-25" transform="translate(0.000000, 43.000000)">
                    <g id="Group-5" fill="#FFFFFF" stroke="#DCDCDC">
                        <rect id="Rectangle-Copy-7" x="0.5" y="0.5" width="91" height="35" rx="4"></rect>
                    </g>
                    <text id="View-Info" font-family="Roboto-Medium, Roboto" font-size="14" font-weight="400" fill="#4F4F4F">
                        <tspan x="17.1464844" y="23">View Info</tspan>
                    </text>
                </g>
                <g id="Group-25" transform="translate(0.000000, 93.000000)">
                    <g id="Group-5" fill="#FFFFFF" stroke="#DCDCDC">
                        <rect id="Rectangle-Copy-7" x="0.5" y="0.5" width="91" height="35" rx="4"></rect>
                    </g>
                    <text id="View-Info" font-family="Roboto-Medium, Roboto" font-size="14" font-weight="400" fill="#4F4F4F">
                        <tspan x="17.1464844" y="23">View Info</tspan>
                    </text>
                </g>
                <g id="Group-25" transform="translate(0.000000, 144.000000)">
                    <g id="Group-5" fill="#FFFFFF" stroke="#DCDCDC">
                        <rect id="Rectangle-Copy-7" x="0.5" y="0.5" width="91" height="35" rx="4"></rect>
                    </g>
                    <text id="View-Info" font-family="Roboto-Medium, Roboto" font-size="14" font-weight="400" fill="#4F4F4F">
                        <tspan x="17.1464844" y="23">View Info</tspan>
                    </text>
                </g>
                <g id="Group-25" transform="translate(0.000000, 193.000000)">
                    <g id="Group-5" fill="#FFFFFF" stroke="#DCDCDC">
                        <rect id="Rectangle-Copy-7" x="0.5" y="0.5" width="91" height="35" rx="4"></rect>
                    </g>
                    <text id="View-Info" font-family="Roboto-Medium, Roboto" font-size="14" font-weight="400" fill="#4F4F4F">
                        <tspan x="17.1464844" y="23">View Info</tspan>
                    </text>
                </g>
            </g>
            <path d="M26,484.5 L993.5,484.5" id="Line-2" stroke="#E1E1E1" stroke-linecap="square"></path>
            <path d="M38.7499744,253.500014 C38.8874862,253.500014 38.9999738,253.612503 38.9999738,253.750015 L38.9999738,254.250014 C38.9999738,254.387526 38.8874862,254.500014 38.7499744,254.500014 L31.2499923,254.500014 C31.1124804,254.500014 30.9999928,254.387526 30.9999928,254.250014 L30.9999928,253.750015 C30.9999928,253.612503 31.1124804,253.500014 31.2499923,253.500014 L38.7499744,253.500014 Z M38.7499744,256.500007 C38.8874862,256.500007 38.9999738,256.612496 38.9999738,256.750008 L38.9999738,257.250007 C38.9999738,257.387518 38.8874862,257.500007 38.7499744,257.500007 L31.2499923,257.500007 C31.1124804,257.500007 30.9999928,257.387518 30.9999928,257.250007 L30.9999928,256.750008 C30.9999928,256.612496 31.1124804,256.500007 31.2499923,256.500007 L38.7499744,256.500007 Z M41.0655816,246.000033 C41.5530988,246.000033 41.9999666,246.390657 41.996886,246.934418 L41.996886,261.068754 C41.996886,261.61874 41.5499555,261.999995 41.0655816,261.999995 C40.8812254,261.999995 40.6937258,261.943751 40.524964,261.821865 L39.1655923,260.843748 L37.9593574,261.71249 C37.6968458,261.903133 37.3906026,261.996882 37.0843594,261.996882 C36.7781163,261.996882 36.4687298,261.899989 36.2062182,261.71249 L34.9999833,260.843748 L33.7937484,261.71249 C33.5312368,261.903133 33.2249936,261.996882 32.9187505,261.996882 C32.609364,261.996882 32.3031208,261.899989 32.0406093,261.71249 L30.8343743,260.843748 L29.4750026,261.821865 C29.303128,261.943751 29.1156284,261.999995 28.934385,261.999995 C28.4468678,261.999995 28,261.609371 28,261.068754 L28,246.934418 C28,246.384401 28.4500111,246.003146 28.934385,246.000033 C29.1187412,246.000033 29.3062408,246.056277 29.4750026,246.178164 L30.8343743,247.156281 L32.0406093,246.287539 C32.3031208,246.096896 32.609364,246.003146 32.9156072,246.003146 C33.2218503,246.003146 33.5312368,246.100039 33.7937484,246.287539 L34.9999833,247.156281 L36.2062182,246.287539 C36.4687298,246.096896 36.774973,246.003146 37.0812161,246.003146 C37.3906026,246.003146 37.6968458,246.100039 37.9593574,246.287539 L39.1655923,247.156281 L40.524964,246.178164 C40.6968386,246.056277 40.8843382,246.000033 41.0655816,246.000033 Z M40.999969,260.931242 L40.999969,247.068787 L39.749972,247.968779 L39.1687356,248.390653 L38.5843559,247.968779 L37.3780904,247.10315 C37.2905967,247.04065 37.1905909,247.006287 37.0843594,247.006287 C36.9780975,247.006287 36.8780916,247.037537 36.7905979,247.100037 L35.584363,247.968779 L34.9999833,248.390653 L34.4156036,247.968779 L33.2093687,247.10315 C33.121875,247.04065 33.0218691,247.006287 32.9156072,247.006287 C32.8124885,247.006287 32.7124827,247.037537 32.624989,247.100037 L31.4187541,247.968779 L30.8343743,248.390653 L30.2499946,247.968779 L28.9999976,247.068787 L28.9999976,260.95001 L30.2499946,260.03125 L30.831231,259.609376 L31.4156108,260.03125 L32.6218762,260.896879 C32.7093699,260.959379 32.8093757,260.993742 32.9156072,260.993742 C33.0218691,260.993742 33.121875,260.962492 33.2093687,260.899992 L34.4156036,260.03125 L34.9999833,259.609376 L35.584363,260.03125 L36.7905979,260.896879 C36.8780916,260.959379 36.9780975,260.993742 37.0843594,260.993742 C37.1874781,260.993742 37.287484,260.962492 37.3749776,260.899992 L38.5812126,260.03125 L39.1655923,259.609376 L39.749972,260.03125 L40.999969,260.931242 Z M38.7499744,250.500021 C38.8874862,250.500021 38.9999738,250.61251 38.9999738,250.750022 L38.9999738,251.250021 C38.9999738,251.387533 38.8874862,251.500021 38.7499744,251.500021 L31.2499923,251.500021 C31.1124804,251.500021 30.9999928,251.387533 30.9999928,251.250021 L30.9999928,250.750022 C30.9999928,250.61251 31.1124804,250.500021 31.2499923,250.500021 L38.7499744,250.500021 Z" id="r" fill="#84979E" fill-rule="nonzero"></path>
            <text id="Payments-History" font-family="Roboto-Regular, Roboto" font-size="16" font-weight="normal" fill="#84979E">
                <tspan x="49" y="260">Payments History</tspan>
            </text>
            <g id="Group-16" transform="translate(4.000000, 0.000000)" fill="#84979E" font-size="16">
                <text id="Transactions" font-family="Roboto-Regular, Roboto" font-weight="normal">
                    <tspan x="24" y="15">Transactions</tspan>
                </text>
                <text id="exchange" font-family="FontAwesome5Pro-Light, Font Awesome 5 Pro" font-weight="300">
                    <tspan x="0" y="15">exchange</tspan>
                </text>
            </g>
        </g>
    </g>
</svg>