<?xml version="1.0" encoding="UTF-8"?>
<svg width="1284px" height="724px" viewBox="0 0 1284 724" version="1.1" xmlns="http://www.w3.org/2000/svg" xmlns:xlink="http://www.w3.org/1999/xlink">
    <!-- Generator: Sketch 58 (84663) - https://sketch.com -->
    <title>lightning_nav02_01_invoices</title>
    <desc>Created with Sketch.</desc>
    <defs>
        <rect id="path-1" x="0" y="91" width="218" height="633"></rect>
        <filter x="-6.7%" y="-2.0%" width="113.3%" height="104.6%" filterUnits="objectBoundingBox" id="filter-2">
            <feOffset dx="0" dy="2" in="SourceAlpha" result="shadowOffsetOuter1"></feOffset>
            <feGaussianBlur stdDeviation="4.5" in="shadowOffsetOuter1" result="shadowBlurOuter1"></feGaussianBlur>
            <feColorMatrix values="0 0 0 0 0.508718297   0 0 0 0 0.508320861   0 0 0 0 0.508320861  0 0 0 0.5 0" type="matrix" in="shadowBlurOuter1"></feColorMatrix>
        </filter>
        <rect id="path-3" x="0" y="38" width="1284" height="53"></rect>
        <filter x="-0.8%" y="-15.1%" width="101.6%" height="137.7%" filterUnits="objectBoundingBox" id="filter-4">
            <feOffset dx="0" dy="2" in="SourceAlpha" result="shadowOffsetOuter1"></feOffset>
            <feGaussianBlur stdDeviation="3" in="shadowOffsetOuter1" result="shadowBlurOuter1"></feGaussianBlur>
            <feColorMatrix values="0 0 0 0 0   0 0 0 0 0   0 0 0 0 0  0 0 0 0.5 0" type="matrix" in="shadowBlurOuter1"></feColorMatrix>
        </filter>
        <rect id="path-5" x="0" y="0" width="122" height="36" rx="4"></rect>
        <filter x="-3.3%" y="-5.6%" width="106.6%" height="122.2%" filterUnits="objectBoundingBox" id="filter-6">
            <feOffset dx="0" dy="2" in="SourceAlpha" result="shadowOffsetOuter1"></feOffset>
            <feGaussianBlur stdDeviation="1" in="shadowOffsetOuter1" result="shadowBlurOuter1"></feGaussianBlur>
            <feColorMatrix values="0 0 0 0 0   0 0 0 0 0   0 0 0 0 0  0 0 0 0.257457386 0" type="matrix" in="shadowBlurOuter1"></feColorMatrix>
        </filter>
    </defs>
    <g id="lightning_nav02_01_invoices" stroke="none" stroke-width="1" fill="none" fill-rule="evenodd">
        <rect fill="#1D1E1F" x="0" y="0" width="1284" height="724"></rect>
        <rect id="Background" fill="#F2F5F6" x="0" y="38" width="1284" height="686"></rect>
        <g id="Rectangle">
            <use fill="black" fill-opacity="1" filter="url(#filter-2)" xlink:href="#path-1"></use>
            <use fill="#FFFFFF" fill-rule="evenodd" xlink:href="#path-1"></use>
        </g>
        <g id="Rectangle-13">
            <use fill="black" fill-opacity="1" filter="url(#filter-4)" xlink:href="#path-3"></use>
            <use fill="#5E4EA5" fill-rule="evenodd" xlink:href="#path-3"></use>
        </g>
        <g id="Browser">
            <path d="M0,6.00024414 C0,2.68640081 2.6794487,0 5.99234946,0 L1278.00765,0 C1281.31713,0 1284,2.68722626 1284,6.00024414 L1284,38 L0,38 L0,6.00024414 Z" id="Tab-BG---Right" fill="#363738"></path>
            <circle id="Dot---Red" fill="#FF5F57" cx="18" cy="19" r="6"></circle>
            <circle id="Dot---Orange" fill="#FFBF2F" cx="38" cy="19" r="6"></circle>
            <circle id="Dot---Green" fill="#28CA42" cx="58" cy="19" r="6"></circle>
            <g id="Back" transform="translate(76.000000, 7.000000)">
                <rect id="Rectangle" fill="#656668" x="0" y="0" width="28" height="24" rx="4"></rect>
                <path d="M10.1607883,11.3246277 L15.780455,5.65901618 C15.9603839,5.47908726 16.2513057,5.47908726 16.4312347,5.65901618 L17.1891941,6.41697565 C17.3691231,6.59690457 17.3691231,6.88782642 17.1891941,7.06775535 L12.6528768,11.6500175 L17.1891941,16.2322797 C17.3691231,16.4122086 17.3691231,16.7031305 17.1891941,16.8830594 L16.4312347,17.6410189 C16.2513057,17.8209478 15.9603839,17.8209478 15.780455,17.6410189 L10.1607883,11.9754074 C9.98085942,11.7954785 9.98085942,11.5045566 10.1607883,11.3246277 Z" id="a" fill="#FFFFFF" fill-rule="nonzero"></path>
            </g>
            <g id="Forward" transform="translate(105.000000, 7.000000)">
                <rect id="Rectangle" fill="#656668" x="0" y="0" width="28" height="24" rx="4"></rect>
                <path d="M18.1891941,11.9754074 L12.5695275,17.6410189 C12.3895986,17.8209478 12.0986767,17.8209478 11.9187478,17.6410189 L11.1607883,16.8830594 C10.9808594,16.7031305 10.9808594,16.4122086 11.1607883,16.2322797 L15.6971057,11.6500175 L11.1607883,7.06775535 C10.9808594,6.88782642 10.9808594,6.59690457 11.1607883,6.41697565 L11.9187478,5.65901618 C12.0986767,5.47908726 12.3895986,5.47908726 12.5695275,5.65901618 L18.1891941,11.3246277 C18.3691231,11.5045566 18.3691231,11.7954785 18.1891941,11.9754074 Z" id="a" fill="#FFFFFF" fill-rule="nonzero" opacity="0.200334821"></path>
            </g>
            <g id="New-Tab" transform="translate(1260.000000, 14.000000)">
                <rect id="Rectangle" fill="#292A2B" x="0" y="0" width="24" height="24"></rect>
                <path d="M16.2531029,11.6843877 C16.3618742,11.6843877 16.4499775,11.7724909 16.4499775,11.8812622 L16.4499775,12.6687603 C16.4499775,12.7775316 16.3618742,12.8656349 16.2531029,12.8656349 L12.3156123,12.8656349 L12.3156123,16.8031255 C12.3156123,16.9118967 12.2275091,17 12.1187378,17 L11.3312397,17 C11.2224684,17 11.1343651,16.9118967 11.1343651,16.8031255 L11.1343651,12.8656349 L7.19687453,12.8656349 C7.08810328,12.8656349 7,12.7775316 7,12.6687603 L7,11.8812622 C7,11.7724909 7.08810328,11.6843877 7.19687453,11.6843877 L11.1343651,11.6843877 L11.1343651,7.74689706 C11.1343651,7.63812581 11.2224684,7.55002253 11.3312397,7.55002253 L12.1187378,7.55002253 C12.2275091,7.55002253 12.3156123,7.63812581 12.3156123,7.74689706 L12.3156123,11.6843877 L16.2531029,11.6843877 Z" id="p" fill="#FFFFFF" fill-rule="nonzero" opacity="0.497907366"></path>
            </g>
            <g id="URL" transform="translate(378.000000, 7.000000)">
                <path d="M0,3.99005301 C0,1.78640758 1.78094395,5.31029755e-14 3.99753941,5.28693238e-14 L516.002461,-1.1012102e-15 C518.210241,-1.33393271e-15 520,1.78429328 520,3.99005301 L520,20.009947 C520,22.2135924 518.219056,24 516.002461,24 L3.99753941,24 C1.78975936,24 0,22.2157067 0,20.009947 L0,3.99005301 Z" id="URL-Bar" fill="#696A6B"></path>
                <path d="M512.304658,5.17186422 C512.467743,5.17186422 512.59997,5.30412783 512.59997,5.46721261 L512.59997,10.1922013 C512.59997,10.3552861 512.467743,10.4875131 512.304658,10.4875131 L507.579669,10.4875131 C507.416585,10.4875131 507.284358,10.3552861 507.284358,10.1922013 L507.284358,9.51027815 C507.284358,9.34440559 507.42091,9.21109712 507.586711,9.21503845 L510.69705,9.2890827 C509.940722,7.61516854 508.257531,6.45158527 506.299985,6.45158527 C503.633864,6.45158527 501.476559,8.60927437 501.476559,11.2750113 C501.476559,13.9411327 503.634248,16.0984373 506.299985,16.0984373 C507.533046,16.0984373 508.65724,15.6369165 509.509554,14.8770557 C509.6264,14.7728747 509.804938,14.7799403 509.915632,14.8906341 L510.401377,15.3763797 C510.521276,15.4962781 510.51534,15.6917347 510.389505,15.8053845 C509.307296,16.7829079 507.873155,17.3781217 506.299985,17.3781217 C502.93257,17.3781217 500.202138,14.6509336 500.19686,11.2847685 C500.191635,7.92836054 502.924087,5.18242707 506.280471,5.17186422 C508.411171,5.16526784 510.288545,6.2506252 511.385221,7.89993005 L511.327471,5.47425415 C511.32353,5.30842965 511.456862,5.17186422 511.622711,5.17186422 L512.304658,5.17186422 Z" id="r" fill="#FFFFFF" fill-rule="nonzero" transform="translate(506.398415, 11.274993) rotate(-45.000000) translate(-506.398415, -11.274993) "></path>
                <text id="Ride-the-Lightning" font-family="Roboto-Regular, Roboto" font-size="12.6" font-weight="normal" fill="#FFFFFF">
                    <tspan x="210" y="17">Ride the Lightning</tspan>
                </text>
            </g>
        </g>
        <text id="Dashboard" font-family="FontAwesome5Pro-Regular, Font Awesome 5 Pro" font-size="18" font-weight="normal" fill="#FFFFFF">
            <tspan x="24" y="71">bars</tspan>
        </text>
        <g id="RTL-Logo" transform="translate(1210.000000, 56.000000)" fill="#FFFFFF">
            <path d="M5.10234375,10.1960631 L3.54375,10.1960631 L2.80546875,14.4124693 L0,14.4124693 L2.0671875,2.46871933 L6.28359375,2.47692246 C7.63438175,2.47692246 8.67480104,2.79273961 9.40488281,3.4243834 C10.1349646,4.05602718 10.4617191,4.91871386 10.3851562,6.01246933 C10.3249997,6.87653615 10.0761741,7.59156807 9.63867187,8.15758652 C9.20116969,8.72360498 8.58867581,9.17067082 7.80117187,9.49879746 L9.40898437,14.2730162 L9.40898437,14.4124693 L6.41484375,14.4124693 L5.10234375,10.1960631 Z M3.92109375,7.97301621 L5.56171875,7.98942246 C6.01015849,7.98942246 6.39980303,7.88004855 6.73066406,7.66129746 C7.06152509,7.44254636 7.29804616,7.1431353 7.44023438,6.76305527 C7.58242259,6.38297525 7.6234378,6.01520549 7.56328125,5.65973496 C7.4539057,5.05270067 7.06562834,4.732782 6.3984375,4.69996933 L4.4953125,4.69176621 L3.92109375,7.97301621 Z M21.0984375,4.69176621 L17.6203125,4.69176621 L15.9386719,14.4124693 L13.125,14.4124693 L14.8148438,4.69176621 L11.3941406,4.69176621 L11.7878906,2.46871933 L21.4839844,2.46871933 L21.0984375,4.69176621 Z M23.8464844,12.1976256 L28.7109375,12.1976256 L28.3253906,14.4124693 L20.6554688,14.4124693 L22.7226562,2.46871933 L25.5363281,2.46871933 L23.8464844,12.1976256 Z" id="RTL-Copy" fill-rule="nonzero"></path>
            <path d="M37.882011,5.59373905 C38.4131621,5.59373905 38.7433371,6.1708163 38.4763316,6.62733033 L33.4232186,15.3554345 C33.2968796,15.5736259 33.0671926,15.699965 32.8260382,15.699965 C32.3867394,15.699965 32.0537046,15.2894051 32.1570525,14.8529943 L33.4806404,9.26873029 L30.0726546,9.26873029 C29.656347,9.26873029 29.3347797,8.90123677 29.3893415,8.48778904 L30.3080893,1.59718047 C30.3540155,1.25553795 30.646872,1 30.9914024,1 L35.1257676,1 C35.5765338,1 35.9067088,1.43066304 35.7918653,1.86707385 L34.5687655,5.59373905 L37.882011,5.59373905 Z" id="b-copy" fill-rule="nonzero"></path>
            <text id="caret-down-copy" font-family="FontAwesome5Pro-Solid, Font Awesome 5 Pro" font-size="16" font-weight="700">
                <tspan x="46" y="14">caret-down</tspan>
            </text>
        </g>
        <g id="Group-10" transform="translate(70.000000, 55.000000)">
            <g id="Group-9">
                <g id="Group-6" transform="translate(1.000000, 0.000000)">
                    <g id="Group-3">
                        <circle id="Oval" fill="#28CA42" cx="5" cy="8" r="5"></circle>
                        <text id="NODE:-AMORA_[UK01]" font-family="Roboto-Bold, Roboto" font-size="14" font-weight="bold" letter-spacing="1.20000005" fill="#FFFFFF">
                            <tspan x="15.8318355" y="13">NODE: AMORA_[UK01]</tspan>
                        </text>
                    </g>
                </g>
                <rect id="Rectangle" fill="#FFFFFF" x="0" y="30" width="181" height="5"></rect>
            </g>
            <g id="Group-6" transform="translate(211.000000, 0.000000)">
                <g id="Group-3">
                    <circle id="Oval" fill="#28CA42" cx="5" cy="8" r="5"></circle>
                    <text id="NODE:-AMORA_[UK01]" font-family="Roboto-Medium, Roboto" font-size="14" font-weight="400" letter-spacing="1.20000005" fill="#FFFFFF">
                        <tspan x="16.2556636" y="13">NODE: AMORA_[UK01]</tspan>
                    </text>
                </g>
            </g>
        </g>
        <g id="Group-5" transform="translate(13.000000, 675.000000)">
            <rect id="Rectangle-Copy-7" stroke="#DCDCDC" fill="#FFFFFF" x="0.5" y="0.5" width="190" height="35" rx="4"></rect>
            <text id="Show-Public-Key" font-family="Roboto-Medium, Roboto" font-size="14" font-weight="400" fill="#4F4F4F">
                <tspan x="44.7280273" y="23">Show Public Key</tspan>
            </text>
        </g>
        <g id="Group-16" transform="translate(250.000000, 118.000000)" fill="#84979E">
            <text id="Lightning-Transactio" font-family="Roboto-Regular, Roboto" font-size="16" font-weight="normal">
                <tspan x="24" y="15">Lightning Transactions</tspan>
            </text>
            <path d="M15.8901294,6.76518687 C16.0365523,6.61873336 16.0365829,6.38130717 15.8901294,6.23485366 L12.999969,3.35986052 C12.8535155,3.21343753 12.6160893,3.21343753 12.4696358,3.35986052 L12.2486891,3.58080725 C12.1022356,3.72729128 12.1022356,3.96471747 12.2486891,4.11114046 L14.1532561,6.00002146 L0.374999106,6.00002146 C0.167907315,6.00002146 0,6.16792877 0,6.37502056 L0,6.62501997 C0,6.83211176 0.167907315,7.00001907 0.374999106,7.00001907 L14.1528593,7.00001907 L12.2486891,8.88890007 C12.1022356,9.03535358 12.1022356,9.27277977 12.2486891,9.41923328 L12.4696663,9.64018002 C12.6160893,9.78660301 12.8535155,9.78660301 12.999969,9.64018002 L15.8901294,6.76518687 Z M0.109832502,11.7651749 C-0.0366210064,11.6187214 -0.0365904889,11.3812952 0.109832502,11.2348417 L2.99999285,8.3598486 C3.14641584,8.21339509 3.38387255,8.2134256 3.53029554,8.3598486 L3.75127279,8.58079533 C3.8977263,8.72727936 3.8977263,8.96470555 3.75127279,9.11112854 L1.84710253,11.0000095 L15.6249627,11.0000095 C15.8320545,11.0000095 15.9999619,11.1679169 15.9999619,11.3750086 L15.9999619,11.625008 C15.9999619,11.8320998 15.8320545,12.0000072 15.6249627,12.0000072 L1.8467058,12.0000072 L3.75127279,13.8888881 C3.8977263,14.0353417 3.8977263,14.2727678 3.75127279,14.4192214 L3.53032606,14.6401681 C3.38387255,14.7865911 3.14644636,14.7865911 2.99999285,14.6401681 L0.109832502,11.7651749 Z" id="e" fill-rule="nonzero"></path>
        </g>
        <path d="M247.12777,154.5 C245.57762,154.5 244.940578,154.623018 244.282108,154.975172 C243.71739,155.277186 243.277186,155.71739 242.975172,156.282108 C242.623018,156.940578 242.5,157.57762 242.5,159.12777 L242.5,677.87223 C242.5,679.42238 242.623018,680.059422 242.975172,680.717892 C243.277186,681.28261 243.71739,681.722814 244.282108,682.024828 C244.940578,682.376982 245.57762,682.5 247.12777,682.5 L990.87223,682.5 C992.42238,682.5 993.059422,682.376982 993.717892,682.024828 C994.28261,681.722814 994.722814,681.28261 995.024828,680.717892 C995.376982,680.059422 995.5,679.42238 995.5,677.87223 L995.5,159.12777 C995.5,157.57762 995.376982,156.940578 995.024828,156.282108 C994.722814,155.71739 994.28261,155.277186 993.717892,154.975172 C993.059422,154.623018 992.42238,154.5 990.87223,154.5 L247.12777,154.5 Z" id="Rectangle" stroke="#DEDEDE" fill="#FFFFFF"></path>
        <path d="M242.5,202.5 L996.5,202.5" id="Line" stroke="#D7D7D7" stroke-linecap="square"></path>
        <rect id="Rectangle" fill="#5E4EA5" opacity="0" x="242" y="201" width="160" height="2"></rect>
        <rect id="Rectangle" fill="#59316B" x="402" y="201" width="160" height="2"></rect>
        <text id="Payments" font-family="Roboto-Regular, Roboto" font-size="14" font-weight="normal" fill="#979797">
            <tspan x="290.862305" y="184">Payments</tspan>
        </text>
        <text id="Invoices" font-family="Roboto-Medium, Roboto" font-size="14" font-weight="400" fill="#5E4EA5">
            <tspan x="455.862793" y="184">Invoices</tspan>
        </text>
        <g id="Group-7" transform="translate(266.000000, 248.000000)">
            <text id="Memo" font-family="Roboto-Regular, Roboto" font-size="15" font-weight="normal" fill="#444444">
                <tspan x="0" y="14">Memo</tspan>
            </text>
            <rect id="Rectangle" stroke="#979797" fill="#D8D8D8" x="0.5" y="24.5" width="463" height="1"></rect>
        </g>
        <g id="Group-7" transform="translate(752.000000, 248.000000)">
            <text id="Amount" font-family="Roboto-Regular, Roboto" font-size="15" font-weight="normal" fill="#444444">
                <tspan x="0" y="14">Amount</tspan>
            </text>
            <rect id="Rectangle" stroke="#979797" fill="#D8D8D8" x="0.5" y="24.5" width="219" height="1"></rect>
        </g>
        <text id="Amount" opacity="0" font-family="Roboto-Regular, Roboto" font-size="12" font-weight="normal" fill="#5E4EA5">
            <tspan x="266" y="237">Amount</tspan>
        </text>
        <g id="Group-8" transform="translate(267.000000, 300.000000)">
            <g id="Rectangle-Copy-7">
                <use fill="black" fill-opacity="1" filter="url(#filter-6)" xlink:href="#path-5"></use>
                <use fill="#5E4EA5" fill-rule="evenodd" xlink:href="#path-5"></use>
            </g>
            <text id="Create-Invoice" font-family="Roboto-Medium, Roboto" font-size="14" font-weight="400" fill="#FFFFFF">
                <tspan x="16.6904297" y="23">Create Invoice</tspan>
            </text>
        </g>
        <g id="Group-5" transform="translate(402.000000, 300.000000)">
            <rect id="Rectangle-Copy-7" stroke="#DCDCDC" fill="#FFFFFF" x="0.5" y="0.5" width="95" height="35" rx="4"></rect>
            <text id="Clear-Field" font-family="Roboto-Medium, Roboto" font-size="14" font-weight="400" fill="#4F4F4F">
                <tspan x="15.2670898" y="23">Clear Field</tspan>
            </text>
        </g>
        <g id="Group-21" transform="translate(267.000000, 370.000000)">
            <g id="Group-17" transform="translate(3.000000, 0.000000)" fill="#84979E">
                <path d="M10.7499744,8.50001431 C10.8874862,8.50001431 10.9999738,8.61250302 10.9999738,8.7500149 L10.9999738,9.25001371 C10.9999738,9.38752559 10.8874862,9.50001431 10.7499744,9.50001431 L3.24999225,9.50001431 C3.11248037,9.50001431 2.99999285,9.38752559 2.99999285,9.25001371 L2.99999285,8.7500149 C2.99999285,8.61250302 3.11248037,8.50001431 3.24999225,8.50001431 L10.7499744,8.50001431 Z M10.7499744,11.5000072 C10.8874862,11.5000072 10.9999738,11.6124959 10.9999738,11.7500077 L10.9999738,12.2500066 C10.9999738,12.3875184 10.8874862,12.5000072 10.7499744,12.5000072 L3.24999225,12.5000072 C3.11248037,12.5000072 2.99999285,12.3875184 2.99999285,12.2500066 L2.99999285,11.7500077 C2.99999285,11.6124959 3.11248037,11.5000072 3.24999225,11.5000072 L10.7499744,11.5000072 Z M13.0655816,1.00003338 C13.5530988,1.00003338 13.9999666,1.39065745 13.996886,1.93441836 L13.996886,16.0687536 C13.996886,16.61874 13.5499555,16.9999952 13.0655816,16.9999952 C12.8812254,16.9999952 12.6937258,16.9437515 12.524964,16.8218646 L11.1655923,15.843748 L9.95935736,16.7124898 C9.69684578,16.9031327 9.39060261,16.9968824 9.08435944,16.9968824 C8.77811628,16.9968824 8.46872981,16.8999894 8.20621823,16.7124898 L6.99998331,15.843748 L5.79374839,16.7124898 C5.53123681,16.9031327 5.22499365,16.9968824 4.91875048,16.9968824 C4.60936401,16.9968824 4.30312084,16.8999894 4.04060926,16.7124898 L2.83437435,15.843748 L1.47500259,16.8218646 C1.303128,16.9437515 1.11562844,16.9999952 0.934384979,16.9999952 C0.446867831,16.9999952 0,16.6093712 0,16.0687536 L0,1.93441836 C0,1.38440136 0.450011134,1.00314616 0.934384979,1.00003338 C1.11874123,1.00003338 1.30624078,1.05627714 1.47500259,1.17816406 L2.83437435,2.15628062 L4.04060926,1.2875388 C4.30312084,1.09689594 4.60936401,1.00314616 4.91560718,1.00314616 C5.22185034,1.00314616 5.53123681,1.10003924 5.79374839,1.2875388 L6.99998331,2.15628062 L8.20621823,1.2875388 C8.46872981,1.09689594 8.77497298,1.00314616 9.08121614,1.00314616 C9.39060261,1.00314616 9.69684578,1.10003924 9.95935736,1.2875388 L11.1655923,2.15628062 L12.524964,1.17816406 C12.6968386,1.05627714 12.8843382,1.00003338 13.0655816,1.00003338 Z M12.999969,15.9312417 L12.999969,2.06878693 L11.749972,2.96877868 L11.1687356,3.39065268 L10.5843559,2.96877868 L9.37809043,2.10314965 C9.29059675,2.04064979 9.19059088,2.00628708 9.08435944,2.00628708 C8.97809749,2.00628708 8.87809163,2.03753701 8.79059794,2.10003686 L7.58436302,2.96877868 L6.99998331,3.39065268 L6.4156036,2.96877868 L5.20936868,2.10314965 C5.121875,2.04064979 5.02186913,2.00628708 4.91560718,2.00628708 C4.81248853,2.00628708 4.71248266,2.03753701 4.62498897,2.10003686 L3.41875406,2.96877868 L2.83437435,3.39065268 L2.24999464,2.96877868 L0.999997616,2.06878693 L0.999997616,15.9500099 L2.24999464,15.0312499 L2.83123104,14.6093759 L3.41561075,15.0312499 L4.62187619,15.896879 C4.70936988,15.9593788 4.80937574,15.9937415 4.91560718,15.9937415 C5.02186913,15.9937415 5.121875,15.9624916 5.20936868,15.8999918 L6.4156036,15.0312499 L6.99998331,14.6093759 L7.58436302,15.0312499 L8.79059794,15.896879 C8.87809163,15.9593788 8.97809749,15.9937415 9.08435944,15.9937415 C9.1874781,15.9937415 9.28748396,15.9624916 9.37497765,15.8999918 L10.5812126,15.0312499 L11.1655923,14.6093759 L11.749972,15.0312499 L12.999969,15.9312417 Z M10.7499744,5.50002146 C10.8874862,5.50002146 10.9999738,5.61251017 10.9999738,5.75002205 L10.9999738,6.25002086 C10.9999738,6.38753274 10.8874862,6.50002146 10.7499744,6.50002146 L3.24999225,6.50002146 C3.11248037,6.50002146 2.99999285,6.38753274 2.99999285,6.25002086 L2.99999285,5.75002205 C2.99999285,5.61251017 3.11248037,5.50002146 3.24999225,5.50002146 L10.7499744,5.50002146 Z" id="r" fill-rule="nonzero"></path>
                <text id="Invoices-History" font-family="Roboto-Regular, Roboto" font-size="16" font-weight="normal">
                    <tspan x="21" y="15">Invoices History</tspan>
                </text>
            </g>
            <path d="M5.1277704,32.5 C3.5776195,32.5 2.94057806,32.6230184 2.28210802,32.975172 C1.71739041,33.2771863 1.27718629,33.7173904 0.975172007,34.282108 C0.623018378,34.9405781 0.5,35.5776195 0.5,37.1277704 L0.5,284.87223 C0.5,286.42238 0.623018378,287.059422 0.975172007,287.717892 C1.27718629,288.28261 1.71739041,288.722814 2.28210802,289.024828 C2.94057806,289.376982 3.5776195,289.5 5.1277704,289.5 L699.87223,289.5 C701.42238,289.5 702.059422,289.376982 702.717892,289.024828 C703.28261,288.722814 703.722814,288.28261 704.024828,287.717892 C704.376982,287.059422 704.5,286.42238 704.5,284.87223 L704.5,37.1277704 C704.5,35.5776195 704.376982,34.9405781 704.024828,34.282108 C703.722814,33.7173904 703.28261,33.2771863 702.717892,32.975172 C702.059422,32.6230184 701.42238,32.5 699.87223,32.5 L5.1277704,32.5 Z" id="Rectangle" stroke="#DEDEDE" fill="#FFFFFF"></path>
            <g id="Group-10" transform="translate(20.000000, 53.000000)" font-size="14">
                <text id="Date-Created" font-family="Roboto-Medium, Roboto" font-weight="400" letter-spacing="0.5" fill="#000000">
                    <tspan x="0" y="13">Date Created</tspan>
                </text>
                <text id="04/SET/2019-08:00" font-family="Roboto-Regular, Roboto" font-weight="normal" letter-spacing="0.200000003" fill="#4F4F4F">
                    <tspan x="0" y="63">04/SET/2019 08:00</tspan>
                </text>
                <text id="04/SET/2019-08:00" font-family="Roboto-Regular, Roboto" font-weight="normal" letter-spacing="0.200000003" fill="#4F4F4F">
                    <tspan x="0" y="115">04/SET/2019 08:00</tspan>
                </text>
                <text id="04/SET/2019-08:00" font-family="Roboto-Regular, Roboto" font-weight="normal" letter-spacing="0.200000003" fill="#4F4F4F">
                    <tspan x="0" y="170">04/SET/2019 08:00</tspan>
                </text>
                <text id="04/SET/2019-08:00" font-family="Roboto-Regular, Roboto" font-weight="normal" letter-spacing="0.200000003" fill="#4F4F4F">
                    <tspan x="0" y="219">04/SET/2019 08:00</tspan>
                </text>
            </g>
            <g id="Group-10" transform="translate(416.000000, 53.000000)" font-size="14">
                <text id="Date-Settled" font-family="Roboto-Medium, Roboto" font-weight="400" letter-spacing="0.5" fill="#000000">
                    <tspan x="0" y="13">Date Settled</tspan>
                </text>
                <text id="-" font-family="Roboto-Regular, Roboto" font-weight="normal" letter-spacing="0.200000003" fill="#4F4F4F">
                    <tspan x="0" y="63">-</tspan>
                </text>
                <text id="04/SET/2019-08:00" font-family="Roboto-Regular, Roboto" font-weight="normal" letter-spacing="0.200000003" fill="#4F4F4F">
                    <tspan x="0" y="115">04/SET/2019 08:00</tspan>
                </text>
                <text id="-" font-family="Roboto-Regular, Roboto" font-weight="normal" letter-spacing="0.200000003" fill="#4F4F4F">
                    <tspan x="0" y="170">-</tspan>
                </text>
                <text id="04/SET/2019-08:00" font-family="Roboto-Regular, Roboto" font-weight="normal" letter-spacing="0.200000003" fill="#4F4F4F">
                    <tspan x="0" y="219">04/SET/2019 08:00</tspan>
                </text>
            </g>
            <g id="Group-15" transform="translate(307.000000, 53.000000)" font-size="14">
                <text id="Value" font-family="Roboto-Medium, Roboto" font-weight="400" letter-spacing="0.5" fill="#000000">
                    <tspan x="25" y="13">Value</tspan>
                </text>
                <text id="100,000" font-family="Roboto-Regular, Roboto" font-weight="normal" letter-spacing="0.200000003" fill="#4F4F4F">
                    <tspan x="11.6839844" y="63">100,000</tspan>
                </text>
                <text id="100,000" font-family="Roboto-Regular, Roboto" font-weight="normal" letter-spacing="0.200000003" fill="#4F4F4F">
                    <tspan x="11.6839844" y="115">100,000</tspan>
                </text>
                <text id="2,000,000" font-family="Roboto-Regular, Roboto" font-weight="normal" letter-spacing="0.200000003" fill="#4F4F4F">
                    <tspan x="0.674609348" y="170">2,000,000</tspan>
                </text>
                <text id="2,000,000" font-family="Roboto-Regular, Roboto" font-weight="normal" letter-spacing="0.200000003" fill="#4F4F4F">
                    <tspan x="0.674609348" y="219">2,000,000</tspan>
                </text>
            </g>
            <g id="Group-19" transform="translate(193.000000, 53.000000)" font-size="14">
                <text id="Memo" font-family="Roboto-Medium, Roboto" font-weight="400" letter-spacing="0.5" fill="#000000">
                    <tspan x="0" y="13">Memo</tspan>
                </text>
                <text id="Rebalance" font-family="Roboto-Regular, Roboto" font-weight="normal" letter-spacing="0.200000003" fill="#4F4F4F">
                    <tspan x="0" y="63">Rebalance</tspan>
                </text>
                <text id="Rebalance" font-family="Roboto-Regular, Roboto" font-weight="normal" letter-spacing="0.200000003" fill="#4F4F4F">
                    <tspan x="0" y="115">Rebalance</tspan>
                </text>
                <text id="Rebalance" font-family="Roboto-Regular, Roboto" font-weight="normal" letter-spacing="0.200000003" fill="#4F4F4F">
                    <tspan x="0" y="170">Rebalance</tspan>
                </text>
                <text id="Rebalance" font-family="Roboto-Regular, Roboto" font-weight="normal" letter-spacing="0.200000003" fill="#4F4F4F">
                    <tspan x="0" y="219">Rebalance</tspan>
                </text>
            </g>
            <g id="Group-12" transform="translate(589.000000, 53.000000)">
                <text id="Actions" font-family="Roboto-Medium, Roboto" font-size="14" font-weight="400" letter-spacing="0.5" fill="#000000">
                    <tspan x="31" y="13">Actions</tspan>
                </text>
                <g id="Group-25" transform="translate(0.000000, 43.000000)">
                    <g id="Group-5" fill="#FFFFFF" stroke="#DCDCDC">
                        <rect id="Rectangle-Copy-7" x="0.5" y="0.5" width="91" height="35" rx="4"></rect>
                    </g>
                    <text id="View-Info" font-family="Roboto-Medium, Roboto" font-size="14" font-weight="400" fill="#4F4F4F">
                        <tspan x="17.1464844" y="23">View Info</tspan>
                    </text>
                </g>
                <g id="Group-25" transform="translate(0.000000, 93.000000)">
                    <g id="Group-5" fill="#FFFFFF" stroke="#DCDCDC">
                        <rect id="Rectangle-Copy-7" x="0.5" y="0.5" width="91" height="35" rx="4"></rect>
                    </g>
                    <text id="View-Info" font-family="Roboto-Medium, Roboto" font-size="14" font-weight="400" fill="#4F4F4F">
                        <tspan x="17.1464844" y="23">View Info</tspan>
                    </text>
                </g>
                <g id="Group-25" transform="translate(0.000000, 144.000000)">
                    <g id="Group-5" fill="#FFFFFF" stroke="#DCDCDC">
                        <rect id="Rectangle-Copy-7" x="0.5" y="0.5" width="91" height="35" rx="4"></rect>
                    </g>
                    <text id="View-Info" font-family="Roboto-Medium, Roboto" font-size="14" font-weight="400" fill="#4F4F4F">
                        <tspan x="17.1464844" y="23">View Info</tspan>
                    </text>
                </g>
                <g id="Group-25" transform="translate(0.000000, 193.000000)">
                    <g id="Group-5" fill="#FFFFFF" stroke="#DCDCDC">
                        <rect id="Rectangle-Copy-7" x="0.5" y="0.5" width="91" height="35" rx="4"></rect>
                    </g>
                    <text id="View-Info" font-family="Roboto-Medium, Roboto" font-size="14" font-weight="400" fill="#4F4F4F">
                        <tspan x="17.1464844" y="23">View Info</tspan>
                    </text>
                </g>
            </g>
            <path d="M1,88.5 L705.5,88.5" id="Line-2" stroke="#E1E1E1" stroke-linecap="square"></path>
            <path d="M1,138.5 L705.5,138.5" id="Line-2" stroke="#E1E1E1" stroke-linecap="square"></path>
            <path d="M1,190.5 L705.5,190.5" id="Line-2" stroke="#E1E1E1" stroke-linecap="square"></path>
            <path d="M1,239.5 L705.5,239.5" id="Line-2" stroke="#E1E1E1" stroke-linecap="square"></path>
        </g>
        <text id="sats" font-family="Roboto-Regular, Roboto" font-size="15" font-weight="normal" fill="#999999">
            <tspan x="935.472168" y="262">sats</tspan>
        </text>
        <g id="Group-18" transform="translate(1020.000000, 118.000000)">
            <g id="Group-20" transform="translate(3.000000, 0.000000)" fill="#84979E">
                <path d="M16.4933994,9.00001192 C16.7918301,9.00001192 17.0371603,9.26218781 16.9952598,9.55781088 C16.7512113,11.2843693 15.9193346,12.8203153 14.7099564,13.9596864 C14.617763,14.0465697 14.4990194,14.0887449 14.3796654,14.0887449 C14.2623561,14.0885313 14.0996673,14.0212097 14.0165376,13.9384462 L9.07810336,9.00001192 L16.4933994,9.00001192 Z M14.3712121,12.8787563 C15.1149542,12.0625046 15.6411981,11.0675119 15.8949511,10.0000095 L11.4924653,10.0000095 L14.3712121,12.8787563 Z M6.99998331,9.00001192 L11.8709129,13.8709415 C12.0849626,14.0849913 12.0687273,14.4484242 11.8218407,14.6234421 C10.6252798,15.472195 9.16999156,15.9796706 7.59498311,15.9993849 C7.56434354,15.9996901 7.53468052,15.9999952 7.50404095,15.9999952 C3.5368568,15.9999952 0.139678622,12.7353241 0.00436400327,8.76157865 C-0.128112488,4.86250958 2.71843834,1.60909937 6.44218435,1.0828555 C6.46437057,1.0797122 6.4865568,1.07815581 6.50810216,1.07815581 C6.77561861,1.07815581 6.99998331,1.3087766 6.99998331,1.58471588 L6.99998331,9.00001192 Z M7.58216576,14.9993873 C8.69529177,14.9856239 9.77030141,14.6900008 10.7252857,14.1393734 L5.99998569,9.41407343 L5.99998569,2.18221812 C3.01030776,2.88283901 0.897489315,5.59846974 1.00375127,8.72752112 C1.1193821,12.1275069 4.09624268,14.9999976 7.50373577,14.9999976 L7.58216576,14.9993873 Z M15.9987106,6.97502285 C16.0183944,7.26002584 15.7784048,7.5000155 15.4927609,7.5000155 L8.49997973,7.5000155 L8.49997973,0.507234318 C8.49997973,0.232851427 8.721842,3.33786011e-05 8.99247124,3.33786011e-05 C9.00309133,3.33786011e-05 9.01404711,0.000338553655 9.02497238,0.00128459632 C12.7580873,0.258791307 15.7412039,3.24190797 15.9987106,6.97502285 Z M9.49997735,6.50001788 L14.9405772,6.50001788 C14.508724,3.71096203 12.2890332,1.4909661 9.49997735,1.05941806 L9.49997735,6.50001788 Z" id="c" fill-rule="nonzero"></path>
                <text id="Check-your-balance." font-family="Roboto-Regular, Roboto" font-size="16" font-weight="normal">
                    <tspan x="25" y="15">Check your balance.</tspan>
                </text>
            </g>
            <g id="Group-11" transform="translate(0.000000, 36.000000)">
                <path d="M5.1277704,0.5 C3.5776195,0.5 2.94057806,0.623018378 2.28210802,0.975172007 C1.71739041,1.27718629 1.27718629,1.71739041 0.975172007,2.28210802 C0.623018378,2.94057806 0.5,3.5776195 0.5,5.1277704 L0.5,268.87223 C0.5,270.42238 0.623018378,271.059422 0.975172007,271.717892 C1.27718629,272.28261 1.71739041,272.722814 2.28210802,273.024828 C2.94057806,273.376982 3.5776195,273.5 5.1277704,273.5 L230.87223,273.5 C232.42238,273.5 233.059422,273.376982 233.717892,273.024828 C234.28261,272.722814 234.722814,272.28261 235.024828,271.717892 C235.376982,271.059422 235.5,270.42238 235.5,268.87223 L235.5,5.1277704 C235.5,3.5776195 235.376982,2.94057806 235.024828,2.28210802 C234.722814,1.71739041 234.28261,1.27718629 233.717892,0.975172007 C233.059422,0.623018378 232.42238,0.5 230.87223,0.5 L5.1277704,0.5 Z" id="Rectangle" stroke="#DEDEDE" fill="#FFFFFF"></path>
                <path d="M0,48.5 L236,48.5" id="Line" stroke="#D7D7D7" stroke-linecap="square"></path>
                <rect id="Rectangle" fill="#5E4EA5" x="1" y="47" width="79" height="2"></rect>
                <rect id="Rectangle" fill="#59316B" opacity="0" x="78" y="47" width="80" height="2"></rect>
                <rect id="Rectangle" fill="#59316B" opacity="0" x="157" y="47" width="79" height="2"></rect>
                <text id="SATS" font-family="Roboto-Medium, Roboto" font-size="14" font-weight="400" fill="#5E4EA5">
                    <tspan x="22.1435547" y="30">SATS</tspan>
                </text>
                <text id="BTC" font-family="Roboto-Regular, Roboto" font-size="14" font-weight="normal" fill="#979797">
                    <tspan x="104.90918" y="30">BTC</tspan>
                </text>
                <text id="GBP" font-family="Roboto-Regular, Roboto" font-size="14" font-weight="normal" fill="#979797">
                    <tspan x="182.958008" y="30">GBP</tspan>
                </text>
                <text id="Total-Balance" font-family="Roboto-Medium, Roboto" font-size="12" font-weight="400" fill="#5E4EA5">
                    <tspan x="24" y="83">Total Balance</tspan>
                </text>
                <text id="413,722" font-family="Roboto-Light, Roboto" font-size="20" font-weight="300" fill="#222831">
                    <tspan x="24" y="109">413,722</tspan>
                </text>
                <text id="Confirmed" font-family="Roboto-Medium, Roboto" font-size="12" font-weight="400" fill="#5E4EA5">
                    <tspan x="24" y="150">Confirmed</tspan>
                </text>
                <text id="413,721" font-family="Roboto-Light, Roboto" font-size="20" font-weight="300" fill="#222831">
                    <tspan x="24" y="176">413,721</tspan>
                </text>
                <text id="Unconfirmed" font-family="Roboto-Medium, Roboto" font-size="12" font-weight="400" fill="#5E4EA5">
                    <tspan x="24" y="219">Unconfirmed</tspan>
                </text>
                <text id="0" font-family="Roboto-Light, Roboto" font-size="20" font-weight="300" fill="#222831">
                    <tspan x="24" y="245">0</tspan>
                </text>
            </g>
        </g>
        <g id="Group-14" transform="translate(0.000000, 118.000000)">
            <rect id="Rectangle" fill="#D8D8D8" opacity="0" x="0" y="34" width="218" height="48"></rect>
            <path d="M33.5919786,56.1580707 C33.2956307,55.8617228 32.9623795,55.6241745 32.6069383,55.4457997 C32.481622,55.3828879 32.3297898,55.4093771 32.2306689,55.5085246 L32.1110403,55.6281533 C31.8781117,55.8611086 31.7430221,56.1554004 31.7059586,56.4595188 C31.6889756,56.5988808 31.758937,56.7360531 31.8853481,56.7971225 C32.0783027,56.8903954 32.3577744,57.0891979 32.5091793,57.2408699 C33.4054327,58.1371233 33.4038038,59.5942159 32.5091793,60.4890273 L30.4531959,62.5452777 C29.5533911,63.4445218 28.1009715,63.4409169 27.2047715,62.5452777 C26.3055274,61.6454462 26.3091323,60.1930266 27.2047715,59.2968533 L28.4584688,58.0434498 C28.5385772,57.9633413 28.5724364,57.8473977 28.5460006,57.7372486 C28.4786027,57.4557208 28.4204707,56.9923201 28.4162249,56.7028882 C28.4120059,56.4145245 28.0601429,56.2751091 27.8560799,56.4788783 L26.1222393,58.2140274 L26.1222393,58.2140274 C24.6255998,59.7106936 24.6262407,62.1323721 26.1222393,63.6278099 C27.6185851,65.1247432 30.0404238,65.123408 31.5360219,63.6278099 L33.7641543,61.3892378 C33.7995504,61.349308 33.8234441,61.3192328 33.8585795,61.275719 C35.0788448,59.7752877 34.9890166,57.555082 33.5919786,56.1580707 Z M37.8777273,51.8722151 C39.373726,53.3676797 39.3743668,55.7893582 37.877754,57.2860244 L36.1439134,59.0211734 L36.1439134,59.0211734 C35.9398505,59.2249426 35.5879875,59.0855272 35.5837684,58.7971635 C35.5795227,58.5077317 35.5213906,58.044331 35.4539927,57.7628032 C35.4275569,57.652654 35.4614161,57.5367104 35.5415245,57.456602 L36.7951951,56.2031717 C37.6908343,55.3069985 37.6944392,53.8545788 36.7951951,52.9547473 C35.8989952,52.0591081 34.4465755,52.0555032 33.5467707,52.9547473 L31.4907873,55.0109977 C30.5961628,55.9058092 30.5945339,57.3629018 31.4907873,58.2591551 C31.6421923,58.4108271 31.9216639,58.6096296 32.1146185,58.7029025 C32.2410296,58.7639719 32.310991,58.9011443 32.294008,59.0405063 C32.2569445,59.3446247 32.1218817,59.6389431 31.8889263,59.8718718 L31.7692977,59.9915004 C31.6701234,60.0906213 31.5183179,60.1171372 31.3930283,60.0542253 C31.0375871,59.8758505 30.7043359,59.6383022 30.4079881,59.3419544 C29.0608443,57.9948363 28.9292055,55.8822735 30.0156574,54.3877505 L30.2358123,54.1107899 C30.3723402,53.9567808 30.6799955,53.6561643 32.4639448,51.8722151 C33.9595428,50.376617 36.3813816,50.3752819 37.8777273,51.8722151 Z" id="l" fill="#4A4A4A" fill-rule="nonzero"></path>
            <text id="On-chain" font-family="Roboto-Regular, Roboto" font-size="14" font-weight="normal" fill="#4A4A4A">
                <tspan x="70" y="63">On-chain</tspan>
            </text>
            <g id="Group-23" transform="translate(0.000000, 222.000000)">
                <g id="Group-3" transform="translate(0.000000, 96.000000)">
                    <rect id="Rectangle" fill="#D8D8D8" opacity="0" x="0" y="0" width="218" height="48"></rect>
                    <path d="M37.3734179,23.2304825 L38.2441434,22.7278554 C38.501879,22.5790673 38.6268215,22.2755364 38.5497571,21.9881072 C38.2379216,20.8251461 37.6243977,19.7856322 36.7981591,18.9584857 C36.5881682,18.7482811 36.2629279,18.7056901 36.0056195,18.8542913 L35.1364962,19.3562776 C34.902179,19.1885839 34.4991534,18.9555751 34.236905,18.8361868 L34.236905,17.8312263 C34.2368783,17.5525824 34.0183157,17.2683309 33.7490445,17.1966872 C32.607152,16.8929694 31.3942833,16.8925955 30.2509755,17.1966605 C29.9633327,17.2731641 29.7630616,17.53357 29.7630616,17.8311996 L29.7630616,18.8361601 C29.5008132,18.9555484 29.0977876,19.1885572 28.8634704,19.3562509 L27.9943471,18.8542646 C27.7370388,18.7056367 27.4117984,18.7482544 27.2018075,18.958459 C26.3755689,19.7856055 25.762045,20.8250927 25.4502095,21.9880805 C25.3731452,22.2755097 25.4980876,22.5790406 25.7558232,22.7278287 L26.6265487,23.2304825 C26.6127166,23.3735295 26.6015282,23.6062713 26.6015282,23.7499858 C26.6015282,23.8937271 26.6127166,24.1264688 26.6265487,24.2695158 L25.7558232,24.772143 C25.4980876,24.9209311 25.3731452,25.224462 25.4502095,25.5118911 C25.762045,26.6748522 26.3755689,27.7143662 27.2018075,28.5415126 C27.4117984,28.7517172 27.7370388,28.7943082 27.9943471,28.645707 L28.8634704,28.1437208 C29.0977876,28.3114145 29.5008132,28.5443965 29.7630616,28.6637848 L29.7630616,29.6687454 C29.7630883,29.9473893 29.9816509,30.2316407 30.2509221,30.3032844 C31.3928147,30.6069755 32.6056833,30.6074028 33.7489911,30.3033111 C34.0366339,30.2268075 34.236905,29.9664017 34.236905,29.6687721 L34.236905,28.6638115 C34.4991534,28.5444232 34.902179,28.3114412 35.1364962,28.1437475 L36.0056195,28.6457337 C36.2629279,28.7943349 36.5881682,28.7517439 36.7981591,28.5415393 C37.6243977,27.7143929 38.2379216,26.6748789 38.5497571,25.5119178 C38.6268215,25.2244887 38.501879,24.9209578 38.2441434,24.7721697 L37.3734179,24.2695425 C37.4067964,23.9236342 37.4067964,23.5763908 37.3734179,23.2304825 Z M35.9329878,24.953642 L37.13117,25.6451382 C36.9514066,26.1306221 36.5367652,26.8475927 36.2055969,27.2455181 L35.0071478,26.5534879 L34.6931273,26.8194236 C34.0815831,27.3276277 33.8607317,27.4267483 32.9244348,27.7573844 L32.9244348,29.1409642 C32.6711319,29.184196 32.2569712,29.2192835 31.9999833,29.2192835 C31.7429954,29.2192835 31.3288347,29.184196 31.0755318,29.1409642 L31.0755318,27.7573844 L30.6901931,27.6189012 C29.9478534,27.3443253 29.7504792,27.2024945 28.9928188,26.5534879 L27.7943697,27.2455181 C27.4632281,26.8475927 27.04856,26.1306221 26.8687967,25.6451382 L28.0669788,24.953642 L27.9854959,24.4949586 C27.8632598,23.7555466 27.8903561,23.5023644 28.0669788,22.546383 L26.8687967,21.8548869 C27.0834606,21.2743943 27.3968182,20.732434 27.7943697,20.2544802 L28.9928188,20.9465104 L29.3068405,20.6805723 C29.9183896,20.1723583 30.139258,20.0732037 31.0755318,19.7426139 L31.0755318,18.3590609 C31.3288347,18.315829 31.7429954,18.2807415 31.9999833,18.2807415 C32.2569712,18.2807415 32.6711319,18.315829 32.9244348,18.3590609 L32.9244348,19.7426406 L33.3097735,19.8811238 C34.0521132,20.1556997 34.2494874,20.2975305 35.0071478,20.9465371 L36.2055969,20.2545069 C36.5367652,20.6524323 36.9514066,21.369403 37.13117,21.8549136 L35.9329878,22.5464097 L36.0144795,23.0051003 C36.1367259,23.7445166 36.1096106,23.9976606 35.9329878,24.953642 Z M31.9999833,21.1250188 C30.5525571,21.1250188 29.3749896,22.3025863 29.3749896,23.7500125 C29.3749896,25.1974387 30.5525571,26.3750063 31.9999833,26.3750063 C33.4474095,26.3750063 34.6249771,25.1974387 34.6249771,23.7500125 C34.6249771,22.3025863 33.4474095,21.1250188 31.9999833,21.1250188 Z M31.9999833,25.0625094 C31.2762569,25.0625094 30.6874864,24.473739 30.6874864,23.7500125 C30.6874864,23.0263128 31.2762569,22.4375156 31.9999833,22.4375156 C32.7237098,22.4375156 33.3124802,23.0263128 33.3124802,23.7500125 C33.3124802,24.473739 32.7237098,25.0625094 31.9999833,25.0625094 Z" id="c" fill="#4A4A4A" fill-rule="nonzero"></path>
                    <text id="On-chain" font-family="Roboto-Regular, Roboto" font-size="14" font-weight="normal" fill="#4A4A4A">
                        <tspan x="70" y="29">Advanced</tspan>
                    </text>
                </g>
                <g id="Group-3" transform="translate(0.000000, 144.000000)">
                    <rect id="Rectangle" fill="#D8D8D8" opacity="0" x="0" y="0" width="218" height="48"></rect>
                    <path d="M31.9999833,30.5312463 C35.7451602,30.5312463 38.7812171,27.4951894 38.7812171,23.7500125 C38.7812171,20.0048356 35.7451602,16.9687787 31.9999833,16.9687787 C28.2548064,16.9687787 25.2187495,20.0048356 25.2187495,23.7500125 C25.2187495,27.4951894 28.2548064,30.5312463 31.9999833,30.5312463 Z M29.172689,28.4334463 L30.6331462,26.9729891 C31.502857,27.3422891 32.4960148,27.3427164 33.3668204,26.9729891 L34.8272776,28.4334463 C33.0986707,29.4812115 30.9012959,29.4812115 29.172689,28.4334463 Z M34.1874781,23.7500125 C34.1874781,24.9562055 33.2061763,25.9375073 31.9999833,25.9375073 C30.7937904,25.9375073 29.8124885,24.9562055 29.8124885,23.7500125 C29.8124885,22.5438196 30.7937904,21.5625177 31.9999833,21.5625177 C33.2061763,21.5625177 34.1874781,22.5438196 34.1874781,23.7500125 Z M36.6834171,26.5773068 L35.2229599,25.1168496 C35.5922332,24.2471389 35.5926871,23.253981 35.2229599,22.3831754 L36.6834171,20.9227182 C37.7311823,22.6513251 37.7311823,24.8486999 36.6834171,26.5773068 Z M34.8272509,19.0665787 L33.3667937,20.5270359 C32.497083,20.1577626 31.5039251,20.1573087 30.6331462,20.5270359 L29.172689,19.0665787 C30.9012959,18.0188136 33.0986707,18.0188136 34.8272509,19.0665787 Z M27.3165495,20.9227182 L28.7770067,22.3831754 C28.4077067,23.2528862 28.4072795,24.246044 28.7770067,25.1168496 L27.3165495,26.5773068 C26.2687844,24.8486999 26.2687844,22.6513251 27.3165495,20.9227182 Z" id="l" fill="#4A4A4A" fill-rule="nonzero"></path>
                    <text id="On-chain" font-family="Roboto-Regular, Roboto" font-size="14" font-weight="normal" fill="#4A4A4A">
                        <tspan x="70" y="29">Help</tspan>
                    </text>
                </g>
                <g id="Group-2">
                    <rect id="Rectangle" fill-opacity="0.114128059" fill="#5E4EA5" opacity="0" x="0" y="0" width="218" height="48"></rect>
                    <text id="On-chain-Copy" font-family="Roboto-Regular, Roboto" font-size="14" font-weight="normal" fill="#474747">
                        <tspan x="76" y="29">Lookup</tspan>
                    </text>
                </g>
                <g id="Group-2" transform="translate(0.000000, 48.000000)">
                    <rect id="Rectangle" fill-opacity="0.114128059" fill="#5E4EA5" opacity="0" x="0" y="0" width="218" height="48"></rect>
                    <text id="On-chain-Copy" font-family="Roboto-Regular, Roboto" font-size="14" font-weight="normal" fill="#474747">
                        <tspan x="76" y="29">Routing</tspan>
                    </text>
                </g>
            </g>
            <g id="Group-4" transform="translate(0.000000, 82.000000)" fill-opacity="0.114128059">
                <rect id="Rectangle" fill="#C2C2C2" x="0" y="0" width="218" height="236"></rect>
                <rect id="Rectangle" fill="#BEBEBE" x="0" y="45" width="218" height="48"></rect>
            </g>
            <text id="On-chain-Copy" font-family="Roboto-Regular, Roboto" font-size="14" font-weight="normal" fill="#474747">
                <tspan x="70" y="111">Lightning</tspan>
            </text>
            <path d="M38.3304388,104.341045 C38.1062152,103.950009 37.6988103,103.714864 37.2476395,103.714864 L34.666385,103.714864 L35.4511541,101.322291 C35.5523311,100.944954 35.4730237,100.54847 35.2351283,100.236741 C34.9945092,99.9277632 34.6308436,99.7500292 34.2398342,99.7500292 L30.6714833,99.7500292 C30.0480527,99.7500292 29.5148508,100.217596 29.4464916,100.764469 L28.0136718,106.566804 C27.9617082,106.944142 28.0738333,107.32423 28.3226501,107.611339 C28.5714937,107.898447 28.932409,108.062509 29.3124969,108.062509 L31.9949017,108.062509 L31.0406231,112.210552 C30.953118,112.585166 31.0378727,112.973424 31.2757681,113.274205 C31.5136635,113.577736 31.8718551,113.749996 32.2574171,113.749996 C32.6535919,113.749996 33.0260099,113.559877 33.2440663,113.271817 L38.3277151,105.59338 C38.557386,105.202371 38.557386,104.732054 38.3304388,104.341045 Z M32.3777133,112.257041 L33.6437472,106.750013 L29.298825,106.750013 L30.6714833,101.062526 L34.1605268,101.037906 L32.8535041,105.02736 L37.1327907,105.02736 L32.3777133,112.257041 Z" id="b" fill="#4C4C4C" fill-rule="nonzero"></path>
            <g id="Group-2" transform="translate(0.000000, 126.000000)" fill="#5E4EA5">
                <rect id="Rectangle" fill-opacity="0.114128059" opacity="0" x="0" y="0" width="218" height="48"></rect>
                <text id="On-chain-Copy" font-family="Roboto-Medium, Roboto" font-size="14" font-weight="400">
                    <tspan x="76" y="29">Transactions</tspan>
                </text>
            </g>
            <g id="Group-13" transform="translate(0.000000, 174.000000)">
                <g id="Group-2">
                    <rect id="Rectangle" fill-opacity="0.114128059" fill="#5E4EA5" opacity="0" x="0" y="0" width="218" height="48"></rect>
                    <text id="On-chain-Copy" font-family="Roboto-Regular, Roboto" font-size="14" font-weight="normal" fill="#474747">
                        <tspan x="76" y="29">Peers / Channels</tspan>
                    </text>
                </g>
                <path d="M48.8749645,22.8750146 C50.0835607,22.8750146 51.0624593,21.896116 51.0624593,20.6875198 C51.0624593,19.4789236 50.0835607,18.500025 48.8749645,18.500025 C47.6663683,18.500025 46.6874698,19.4789236 46.6874698,20.6875198 C46.6874698,21.896116 47.6663683,22.8750146 48.8749645,22.8750146 Z M48.8749645,19.8125219 C49.3562027,19.8125219 49.7499624,20.2062816 49.7499624,20.6875198 C49.7499624,21.168758 49.3562027,21.5625177 48.8749645,21.5625177 C48.3937264,21.5625177 47.9999666,21.168758 47.9999666,20.6875198 C47.9999666,20.2062816 48.3937264,19.8125219 48.8749645,19.8125219 Z M36.6249937,22.8750146 C37.83359,22.8750146 38.8124885,21.896116 38.8124885,20.6875198 C38.8124885,19.4789236 37.83359,18.500025 36.6249937,18.500025 C35.4163975,18.500025 34.437499,19.4789236 34.437499,20.6875198 C34.437499,21.896116 35.4163975,22.8750146 36.6249937,22.8750146 Z M36.6249937,19.8125219 C37.1062319,19.8125219 37.4999917,20.2062816 37.4999917,20.6875198 C37.4999917,21.168758 37.1062319,21.5625177 36.6249937,21.5625177 C36.1437556,21.5625177 35.7499958,21.168758 35.7499958,20.6875198 C35.7499958,20.2062816 36.1437556,19.8125219 36.6249937,19.8125219 Z M47.4640411,25.5793157 C46.747897,24.5167979 45.3943487,24.089238 44.1545237,24.3886959 L43.9694968,24.4390787 C43.5812378,24.5566512 43.1738063,24.6222867 42.7472555,24.6222867 C42.4059934,24.6222867 42.0770019,24.58028 41.7602535,24.5032802 L41.5249874,24.4390787 C40.2370838,24.0480694 38.7824212,24.4609483 38.0304698,25.5793157 C37.6913974,26.0824235 37.4945176,26.6867349 37.4945176,27.3375093 L37.4945176,28.562501 C37.4945176,29.2871087 38.0824068,29.8749979 38.8070144,29.8749979 L46.6819957,29.8749979 C47.4066033,29.8749979 47.9944925,29.2871087 47.9944925,28.562501 L47.9944925,27.3375093 C47.9999666,26.6867349 47.8030868,26.0824235 47.4640411,25.5793157 Z M46.6874698,28.562501 L38.8124885,28.562501 L38.8124885,27.3375093 C38.8124885,26.3421885 39.6109295,25.527352 40.6007762,25.5000083 C41.2980402,25.7898407 42.0198974,25.9375073 42.7499791,25.9375073 C43.4800609,25.9375073 44.2019181,25.7898407 44.8991821,25.5000083 C45.8890288,25.527352 46.6874698,26.3394648 46.6874698,27.3375093 L46.6874698,28.562501 Z M49.2030888,23.7500125 L48.5468403,23.7500125 C48.0737999,23.7500125 47.6335506,23.8949287 47.2671612,24.1410219 C47.6335506,24.4172091 47.9562274,24.748057 48.2077679,25.1308686 C48.314419,25.0925768 48.4265174,25.0625094 48.5441166,25.0625094 L49.2003651,25.0625094 C49.7030933,25.0625094 50.1209537,25.4444606 50.1780831,25.9324999 L50.1847377,26.046882 C50.1847377,26.407824 50.4800442,26.7031305 50.8409862,26.7031305 C51.2019014,26.7031305 51.4972453,26.407824 51.4972453,26.046882 C51.4999583,24.7808748 50.469096,23.7500125 49.2030888,23.7500125 Z M42.7499791,23.7500125 C44.4425639,23.7500125 45.8124718,22.3801046 45.8124718,20.6875198 C45.8124718,18.994935 44.4425639,17.6250271 42.7499791,17.6250271 C41.0573944,17.6250271 39.6874864,18.994935 39.6874864,20.6875198 C39.6874864,22.3801046 41.0573944,23.7500125 42.7499791,23.7500125 Z M42.7499791,18.937524 C43.7152059,18.937524 44.4999833,19.7222931 44.4999833,20.6875198 C44.4999833,21.6527466 43.7152059,22.437524 42.7499791,22.437524 C41.7847524,22.437524 40.9999833,21.6527466 40.9999833,20.6875198 C40.9999833,19.7222931 41.7847524,18.937524 42.7499791,18.937524 Z M38.2327971,24.1410219 C37.8664077,24.4172091 37.5437309,24.748057 37.2894399,25.1308686 C37.1855393,25.0925768 37.0734409,25.0625094 36.953118,25.0625094 L36.2968695,25.0625094 C35.7941413,25.0625094 35.3762809,25.4444606 35.3191515,25.9324999 L35.3124969,26.046882 C35.3124969,26.407824 35.0171904,26.7031305 34.6562484,26.7031305 C34.2953065,26.7031305 34,26.407824 34,26.046882 C34,24.7808748 35.0308623,23.7500125 36.2968695,23.7500125 L36.953118,23.7500125 C37.4261584,23.7500125 37.8664077,23.8949287 38.2327971,24.1410219 Z" id="u" fill="#4C4C4C" fill-rule="nonzero"></path>
            </g>
            <text id="Dashboard" font-family="Roboto-Regular, Roboto" font-size="14" font-weight="normal" fill="#4A4A4A">
                <tspan x="70" y="13">Dashboard</tspan>
            </text>
            <path d="M27.4999917,7.62501043 C27.0168309,7.62501043 26.6249937,8.01684757 26.6249937,8.50000834 C26.6249937,8.98316912 27.0168309,9.37500626 27.4999917,9.37500626 C27.9831524,9.37500626 28.3749896,8.98316912 28.3749896,8.50000834 C28.3749896,8.01684757 27.9831524,7.62501043 27.4999917,7.62501043 Z M31.7287032,4.97048337 L32.1727443,3.63857355 C32.2044673,3.5442325 32.2597154,3.46495184 32.3072731,3.38073115 C32.1779514,3.30524229 32.0354919,3.25002086 31.8749812,3.25002086 C31.3918205,3.25002086 30.9999833,3.641858 30.9999833,4.12501878 C30.9999833,4.5565096 31.3179872,4.89857269 31.7287032,4.97048337 Z M28.8124885,4.56251773 C28.3293278,4.56251773 27.9374906,4.95435487 27.9374906,5.43751565 C27.9374906,5.92067642 28.3293278,6.31251356 28.8124885,6.31251356 C29.2956493,6.31251356 29.6874864,5.92067642 29.6874864,5.43751565 C29.6874864,4.95435487 29.2956493,4.56251773 28.8124885,4.56251773 Z M31.8749812,0.62502712 C27.5257065,0.62502712 24,4.15073359 24,8.50000834 C24,9.94374956 24.3896475,11.2961671 25.0680326,12.4593686 C25.2214403,12.722418 25.513756,12.8749979 25.818355,12.8749979 L37.9316074,12.8749979 C38.2362064,12.8749979 38.5285222,12.722418 38.6819299,12.4593686 C39.3603149,11.2961671 39.7499624,9.94374956 39.7499624,8.50000834 C39.7499624,4.15073359 36.224256,0.62502712 31.8749812,0.62502712 Z M37.6792124,11.562501 L26.0707501,11.562501 C25.5738907,10.6226954 25.3124969,9.5696965 25.3124969,8.50000834 C25.3124969,4.88134937 28.2563222,1.93752399 31.8749812,1.93752399 C35.4936402,1.93752399 38.4374656,4.88134937 38.4374656,8.50000834 C38.4374656,9.5696965 38.1760717,10.6226954 37.6792124,11.562501 Z M35.3749729,8.50000834 C35.3749729,8.98316912 35.76681,9.37500626 36.2499708,9.37500626 C36.7331316,9.37500626 37.1249687,8.98316912 37.1249687,8.50000834 C37.1249687,8.01684757 36.7331316,7.62501043 36.2499708,7.62501043 C35.76681,7.62501043 35.3749729,8.01684757 35.3749729,8.50000834 Z M33.8325113,3.50241589 C33.4847072,3.38673929 33.1171963,3.57403285 33.0018134,3.91721745 L31.762055,7.63622561 C30.849326,7.69555927 30.1249854,8.44694985 30.1249854,9.37500626 C30.1249854,9.69546677 30.2174038,9.99160101 30.3677941,10.2500042 L33.3824354,10.2500042 C33.5328256,9.99160101 33.6252441,9.69546677 33.6252441,9.37500626 C33.6252441,8.84316625 33.3829961,8.3725825 33.0086493,8.05156123 L34.2484077,4.33255307 C34.3624288,3.98883441 34.17623,3.61697098 33.8325113,3.50241589 Z M35.8124718,5.43751565 C35.8124718,5.92067642 35.4206347,6.31251356 34.9374739,6.31278059 C34.7939196,6.31278059 34.6643041,6.27013619 34.544809,6.20887993 L35.0780108,4.60954139 L35.0818561,4.59178402 L35.0818561,4.59178402 C35.4936402,4.66286692 35.8124718,5.00549077 35.8124718,5.43751565 Z" id="t" fill="#4A4A4A" fill-rule="nonzero"></path>
            <path d="M49.9038632,147.356906 C50.03201,147.228759 50.0319833,147.020985 49.9038365,146.892838 L47.2745703,144.263572 C47.0685046,144.057506 46.714452,144.20349 46.7144253,144.495592 L46.7141583,146.46877 L36.3281242,146.46877 C36.1469189,146.46877 36,146.615689 36,146.796895 L36,147.453143 C36,147.634348 36.1469189,147.781267 36.3281242,147.781267 L46.7141583,147.781267 L46.7143452,149.754258 C46.7143452,150.044785 47.0672229,150.19352 47.2744902,149.986252 L49.9038632,147.356906 Z M36.0961034,152.607187 C35.9679833,152.47904 35.9679566,152.271266 36.0961034,152.143172 L38.7254764,149.513799 C38.9327437,149.306505 39.2856214,149.455267 39.2856214,149.745793 L39.2858084,151.718758 L49.6718424,151.718758 C49.8530477,151.718758 49.9999666,151.86565 49.9999666,152.046882 L49.9999666,152.70313 C49.9999666,152.884336 49.8530477,153.031255 49.6718424,153.031255 L39.2857817,153.031255 L39.2855146,155.004433 C39.2854879,155.296535 38.9314353,155.442492 38.7253696,155.236453 L36.0961034,152.607187 Z" id="e" fill="#5E4EA5" fill-rule="nonzero"></path>
            <path d="M49.9042637,252.571494 L46.5847297,249.25196 C46.5218446,249.189075 46.4398135,249.156257 46.3523084,249.156257 L45.9913931,249.156257 C46.8527192,248.158212 47.3749729,246.859387 47.3749729,245.437516 C47.3749729,242.295716 44.8292865,239.750029 41.6874864,239.750029 C38.5456864,239.750029 36,242.295716 36,245.437516 C36,248.579316 38.5456864,251.125002 41.6874864,251.125002 C43.109358,251.125002 44.4081831,250.602748 45.4062276,249.741422 L45.4062276,250.102338 C45.4062276,250.189843 45.441769,250.271874 45.5019305,250.334759 L48.8214645,253.654293 C48.9499584,253.782814 49.1577865,253.782814 49.2863071,253.654293 L49.9042637,253.036336 C50.0327844,252.907816 50.0327844,252.699988 49.9042637,252.571494 Z M41.6874864,249.812505 C39.270294,249.812505 37.3124969,247.854708 37.3124969,245.437516 C37.3124969,243.020323 39.270294,241.062526 41.6874864,241.062526 C44.1046789,241.062526 46.062476,243.020323 46.062476,245.437516 C46.062476,247.854708 44.1046789,249.812505 41.6874864,249.812505 Z" id="s" fill="#4C4C4C" fill-rule="nonzero"></path>
            <path d="M49.531213,295.812505 C49.0089593,295.812505 48.5386426,296.020307 48.1858983,296.351181 L46.0476168,295.128913 C46.1706634,294.795315 46.2499708,294.439847 46.2499708,294.062509 C46.2499708,292.369925 44.8800629,291.000017 43.1874781,291.000017 C42.9577805,291.000017 42.7335836,291.030084 42.5202815,291.079324 L41.6398362,289.19261 C42.0499915,288.831668 42.3124802,288.309387 42.3124802,287.721498 C42.3124802,286.633225 41.4320082,285.752753 40.3437349,285.752753 C39.2554616,285.752753 38.3749896,286.633225 38.3749896,287.721498 C38.3749896,288.809798 39.2554616,289.690244 40.3437349,289.690244 L40.4175682,289.682046 L40.4175682,289.682046 L41.3335816,291.642593 C40.6034999,292.200415 40.1249854,293.072663 40.1249854,294.062509 C40.1249854,295.755094 41.4948933,297.125002 43.1874781,297.125002 C44.0269346,297.125002 44.7898073,296.78593 45.3421551,296.236332 L47.5898113,297.521486 C47.5788632,297.60624 47.5624677,297.693745 47.5624677,297.781251 C47.5624677,298.869524 48.4429397,299.749996 49.531213,299.749996 C50.6194863,299.749996 51.4999583,298.869524 51.4999583,297.781251 C51.4999583,296.692977 50.6194863,295.812505 49.531213,295.812505 Z M40.3437349,288.375023 C39.9827929,288.375023 39.6874864,288.079716 39.6874864,287.718775 C39.6874864,287.357833 39.9827929,287.062526 40.3437349,287.062526 C40.7046769,287.062526 40.9999833,287.357833 40.9999833,287.718775 C40.9999833,288.079716 40.7046769,288.375023 40.3437349,288.375023 Z M43.1874781,295.812514 C42.2222514,295.812514 41.4374823,295.027736 41.4374823,294.062509 C41.4374823,293.097283 42.2222514,292.312514 43.1874781,292.312514 C44.1527048,292.312514 44.9374823,293.097283 44.9374823,294.062509 C44.9374823,295.027736 44.1527048,295.812514 43.1874781,295.812514 Z M49.531213,298.437499 C49.170271,298.437499 48.8749645,298.142193 48.8749645,297.781251 C48.8749645,297.420309 49.170271,297.125002 49.531213,297.125002 C49.892155,297.125002 50.1874614,297.420309 50.1874614,297.781251 C50.1874614,298.142193 49.892155,298.437499 49.531213,298.437499 Z M48.0437058,291.295323 L47.5187284,290.595335 L46.2062316,291.579708 L46.731209,292.279696 L48.0437058,291.295323 Z M49.7499624,291.000025 C50.7151892,291.000025 51.4999666,290.215248 51.4999666,289.250021 C51.4999666,288.284794 50.7151892,287.500025 49.7499624,287.500025 C48.7847357,287.500025 47.9999666,288.284794 47.9999666,289.250021 C47.9999666,290.215248 48.7847357,291.000025 49.7499624,291.000025 Z M38.1562401,294.500008 L39.468737,294.500008 L39.468737,293.62501 L38.1562401,293.62501 L38.1562401,294.500008 Z M35.7499958,292.312514 C36.7152226,292.312514 37.5,293.097283 37.5,294.062509 C37.5,295.027736 36.7152226,295.812514 35.7499958,295.812514 C34.7847691,295.812514 34,295.027736 34,294.062509 C34,293.097283 34.7847691,292.312514 35.7499958,292.312514 Z" id="c" fill="#4C4C4C" fill-rule="nonzero"></path>
        </g>
    </g>
</svg>