<?xml version="1.0" encoding="UTF-8"?>
<svg width="1284px" height="724px" viewBox="0 0 1284 724" version="1.1" xmlns="http://www.w3.org/2000/svg" xmlns:xlink="http://www.w3.org/1999/xlink">
    <!-- Generator: Sketch 58 (84663) - https://sketch.com -->
    <title>lightning_nav01_invoices</title>
    <desc>Created with Sketch.</desc>
    <defs>
        <rect id="path-1" x="0" y="38" width="1284" height="53"></rect>
        <filter x="-0.8%" y="-15.1%" width="101.6%" height="137.7%" filterUnits="objectBoundingBox" id="filter-2">
            <feOffset dx="0" dy="2" in="SourceAlpha" result="shadowOffsetOuter1"></feOffset>
            <feGaussianBlur stdDeviation="3" in="shadowOffsetOuter1" result="shadowBlurOuter1"></feGaussianBlur>
            <feColorMatrix values="0 0 0 0 0   0 0 0 0 0   0 0 0 0 0  0 0 0 0.5 0" type="matrix" in="shadowBlurOuter1"></feColorMatrix>
        </filter>
        <rect id="path-3" x="0" y="0" width="122" height="36" rx="4"></rect>
        <filter x="-3.3%" y="-5.6%" width="106.6%" height="122.2%" filterUnits="objectBoundingBox" id="filter-4">
            <feOffset dx="0" dy="2" in="SourceAlpha" result="shadowOffsetOuter1"></feOffset>
            <feGaussianBlur stdDeviation="1" in="shadowOffsetOuter1" result="shadowBlurOuter1"></feGaussianBlur>
            <feColorMatrix values="0 0 0 0 0   0 0 0 0 0   0 0 0 0 0  0 0 0 0.257457386 0" type="matrix" in="shadowBlurOuter1"></feColorMatrix>
        </filter>
    </defs>
    <g id="lightning_nav01_invoices" stroke="none" stroke-width="1" fill="none" fill-rule="evenodd">
        <rect fill="#1D1E1F" x="0" y="0" width="1284" height="724"></rect>
        <rect id="Background" stroke="#979797" fill="#F2F5F6" x="0.5" y="38.5" width="1283" height="685"></rect>
        <g id="Group-4" transform="translate(0.000000, 91.000000)">
            <rect id="Rectangle" fill="#5E4EA5" x="0" y="0" width="1284" height="52"></rect>
            <text id="Dashboard" font-family="Roboto-Regular, Roboto" font-size="14" font-weight="normal" fill="#FFFFFF">
                <tspan x="23" y="32">Dashboard</tspan>
            </text>
            <text id="On-chain" font-family="Roboto-Regular, Roboto" font-size="14" font-weight="normal" fill="#FFFFFF">
                <tspan x="122" y="32">On-chain</tspan>
            </text>
            <text id="Advanced" font-family="Roboto-Regular, Roboto" font-size="14" font-weight="normal" fill="#FFFFFF">
                <tspan x="310" y="32">Advanced</tspan>
            </text>
            <text id="Help" font-family="Roboto-Regular, Roboto" font-size="14" font-weight="normal" fill="#FFFFFF">
                <tspan x="409" y="32">Help</tspan>
            </text>
            <text id="Lightning" font-family="Roboto-Bold, Roboto" font-size="14" font-weight="bold" fill="#FFFFFF">
                <tspan x="211" y="32">Lightning</tspan>
            </text>
            <g id="PubKey" transform="translate(1122.000000, 11.000000)">
                <rect id="Rectangle-Copy-7" fill="#7460C8" x="0" y="0" width="137" height="32" rx="16"></rect>
                <text id="Show-Public-Key" font-family="Roboto-Regular, Roboto" font-size="14" font-weight="normal" fill="#FFFFFF">
                    <tspan x="17.2338867" y="21">Show Public Key</tspan>
                </text>
            </g>
        </g>
        <g id="Rectangle-13">
            <use fill="black" fill-opacity="1" filter="url(#filter-2)" xlink:href="#path-1"></use>
            <use fill="#424242" fill-rule="evenodd" xlink:href="#path-1"></use>
        </g>
        <g id="Browser">
            <path d="M0,6.00024414 C0,2.68640081 2.6794487,0 5.99234946,0 L1278.00765,0 C1281.31713,0 1284,2.68722626 1284,6.00024414 L1284,38 L0,38 L0,6.00024414 Z" id="Tab-BG---Right" fill="#363738"></path>
            <circle id="Dot---Red" fill="#FF5F57" cx="18" cy="19" r="6"></circle>
            <circle id="Dot---Orange" fill="#FFBF2F" cx="38" cy="19" r="6"></circle>
            <circle id="Dot---Green" fill="#28CA42" cx="58" cy="19" r="6"></circle>
            <g id="Back" transform="translate(76.000000, 7.000000)">
                <rect id="Rectangle" fill="#656668" x="0" y="0" width="28" height="24" rx="4"></rect>
                <path d="M10.1607883,11.3246277 L15.780455,5.65901618 C15.9603839,5.47908726 16.2513057,5.47908726 16.4312347,5.65901618 L17.1891941,6.41697565 C17.3691231,6.59690457 17.3691231,6.88782642 17.1891941,7.06775535 L12.6528768,11.6500175 L17.1891941,16.2322797 C17.3691231,16.4122086 17.3691231,16.7031305 17.1891941,16.8830594 L16.4312347,17.6410189 C16.2513057,17.8209478 15.9603839,17.8209478 15.780455,17.6410189 L10.1607883,11.9754074 C9.98085942,11.7954785 9.98085942,11.5045566 10.1607883,11.3246277 Z" id="a" fill="#FFFFFF" fill-rule="nonzero"></path>
            </g>
            <g id="Forward" transform="translate(105.000000, 7.000000)">
                <rect id="Rectangle" fill="#656668" x="0" y="0" width="28" height="24" rx="4"></rect>
                <path d="M18.1891941,11.9754074 L12.5695275,17.6410189 C12.3895986,17.8209478 12.0986767,17.8209478 11.9187478,17.6410189 L11.1607883,16.8830594 C10.9808594,16.7031305 10.9808594,16.4122086 11.1607883,16.2322797 L15.6971057,11.6500175 L11.1607883,7.06775535 C10.9808594,6.88782642 10.9808594,6.59690457 11.1607883,6.41697565 L11.9187478,5.65901618 C12.0986767,5.47908726 12.3895986,5.47908726 12.5695275,5.65901618 L18.1891941,11.3246277 C18.3691231,11.5045566 18.3691231,11.7954785 18.1891941,11.9754074 Z" id="a" fill="#FFFFFF" fill-rule="nonzero" opacity="0.200334821"></path>
            </g>
            <g id="New-Tab" transform="translate(1260.000000, 14.000000)">
                <rect id="Rectangle" fill="#292A2B" x="0" y="0" width="24" height="24"></rect>
                <path d="M16.2531029,11.6843877 C16.3618742,11.6843877 16.4499775,11.7724909 16.4499775,11.8812622 L16.4499775,12.6687603 C16.4499775,12.7775316 16.3618742,12.8656349 16.2531029,12.8656349 L12.3156123,12.8656349 L12.3156123,16.8031255 C12.3156123,16.9118967 12.2275091,17 12.1187378,17 L11.3312397,17 C11.2224684,17 11.1343651,16.9118967 11.1343651,16.8031255 L11.1343651,12.8656349 L7.19687453,12.8656349 C7.08810328,12.8656349 7,12.7775316 7,12.6687603 L7,11.8812622 C7,11.7724909 7.08810328,11.6843877 7.19687453,11.6843877 L11.1343651,11.6843877 L11.1343651,7.74689706 C11.1343651,7.63812581 11.2224684,7.55002253 11.3312397,7.55002253 L12.1187378,7.55002253 C12.2275091,7.55002253 12.3156123,7.63812581 12.3156123,7.74689706 L12.3156123,11.6843877 L16.2531029,11.6843877 Z" id="p" fill="#FFFFFF" fill-rule="nonzero" opacity="0.497907366"></path>
            </g>
            <g id="URL" transform="translate(378.000000, 7.000000)">
                <path d="M0,3.99005301 C0,1.78640758 1.78094395,5.31029755e-14 3.99753941,5.28693238e-14 L516.002461,-1.1012102e-15 C518.210241,-1.33393271e-15 520,1.78429328 520,3.99005301 L520,20.009947 C520,22.2135924 518.219056,24 516.002461,24 L3.99753941,24 C1.78975936,24 0,22.2157067 0,20.009947 L0,3.99005301 Z" id="URL-Bar" fill="#696A6B"></path>
                <path d="M512.304658,5.17186422 C512.467743,5.17186422 512.59997,5.30412783 512.59997,5.46721261 L512.59997,10.1922013 C512.59997,10.3552861 512.467743,10.4875131 512.304658,10.4875131 L507.579669,10.4875131 C507.416585,10.4875131 507.284358,10.3552861 507.284358,10.1922013 L507.284358,9.51027815 C507.284358,9.34440559 507.42091,9.21109712 507.586711,9.21503845 L510.69705,9.2890827 C509.940722,7.61516854 508.257531,6.45158527 506.299985,6.45158527 C503.633864,6.45158527 501.476559,8.60927437 501.476559,11.2750113 C501.476559,13.9411327 503.634248,16.0984373 506.299985,16.0984373 C507.533046,16.0984373 508.65724,15.6369165 509.509554,14.8770557 C509.6264,14.7728747 509.804938,14.7799403 509.915632,14.8906341 L510.401377,15.3763797 C510.521276,15.4962781 510.51534,15.6917347 510.389505,15.8053845 C509.307296,16.7829079 507.873155,17.3781217 506.299985,17.3781217 C502.93257,17.3781217 500.202138,14.6509336 500.19686,11.2847685 C500.191635,7.92836054 502.924087,5.18242707 506.280471,5.17186422 C508.411171,5.16526784 510.288545,6.2506252 511.385221,7.89993005 L511.327471,5.47425415 C511.32353,5.30842965 511.456862,5.17186422 511.622711,5.17186422 L512.304658,5.17186422 Z" id="r" fill="#FFFFFF" fill-rule="nonzero" transform="translate(506.398415, 11.274993) rotate(-45.000000) translate(-506.398415, -11.274993) "></path>
                <text id="Ride-the-Lightning" font-family="Roboto-Regular, Roboto" font-size="12.6" font-weight="normal" fill="#FFFFFF">
                    <tspan x="210" y="17">Ride the Lightning</tspan>
                </text>
            </g>
        </g>
        <g id="Group-13" transform="translate(23.000000, 57.000000)">
            <g id="Group-6">
                <g id="Group-3">
                    <circle id="Oval" fill="#28CA42" cx="5" cy="8" r="5"></circle>
                    <text id="NODE:-AMORA_[UK01]" font-family="Roboto-Medium, Roboto" font-size="14" font-weight="400" letter-spacing="1.20000005" fill="#FFFFFF">
                        <tspan x="16.2556636" y="13">NODE: AMORA_[UK01]</tspan>
                    </text>
                </g>
                <rect id="Rectangle-3" fill="#FFFFFF" x="0" y="32" width="179" height="2"></rect>
            </g>
            <g id="Group-2" transform="translate(203.000000, 0.000000)">
                <circle id="Oval" fill="#28CA42" cx="5" cy="8" r="5"></circle>
                <text id="NODE:-AMORA_[UK02]" font-family="Roboto-Medium, Roboto" font-size="14" font-weight="400" letter-spacing="1.20000005" fill="#FFFFFF">
                    <tspan x="16.7556636" y="13">NODE: AMORA_[UK02]</tspan>
                </text>
            </g>
        </g>
        <g id="RTL-Logo" transform="translate(1203.000000, 57.000000)" fill="#FFFFFF">
            <path d="M5.10234375,10.1960631 L3.54375,10.1960631 L2.80546875,14.4124693 L0,14.4124693 L2.0671875,2.46871933 L6.28359375,2.47692246 C7.63438175,2.47692246 8.67480104,2.79273961 9.40488281,3.4243834 C10.1349646,4.05602718 10.4617191,4.91871386 10.3851562,6.01246933 C10.3249997,6.87653615 10.0761741,7.59156807 9.63867187,8.15758652 C9.20116969,8.72360498 8.58867581,9.17067082 7.80117187,9.49879746 L9.40898437,14.2730162 L9.40898437,14.4124693 L6.41484375,14.4124693 L5.10234375,10.1960631 Z M3.92109375,7.97301621 L5.56171875,7.98942246 C6.01015849,7.98942246 6.39980303,7.88004855 6.73066406,7.66129746 C7.06152509,7.44254636 7.29804616,7.1431353 7.44023438,6.76305527 C7.58242259,6.38297525 7.6234378,6.01520549 7.56328125,5.65973496 C7.4539057,5.05270067 7.06562834,4.732782 6.3984375,4.69996933 L4.4953125,4.69176621 L3.92109375,7.97301621 Z M21.0984375,4.69176621 L17.6203125,4.69176621 L15.9386719,14.4124693 L13.125,14.4124693 L14.8148438,4.69176621 L11.3941406,4.69176621 L11.7878906,2.46871933 L21.4839844,2.46871933 L21.0984375,4.69176621 Z M23.8464844,12.1976256 L28.7109375,12.1976256 L28.3253906,14.4124693 L20.6554688,14.4124693 L22.7226562,2.46871933 L25.5363281,2.46871933 L23.8464844,12.1976256 Z" id="RTL-Copy" fill-rule="nonzero"></path>
            <path d="M37.882011,5.59373905 C38.4131621,5.59373905 38.7433371,6.1708163 38.4763316,6.62733033 L33.4232186,15.3554345 C33.2968796,15.5736259 33.0671926,15.699965 32.8260382,15.699965 C32.3867394,15.699965 32.0537046,15.2894051 32.1570525,14.8529943 L33.4806404,9.26873029 L30.0726546,9.26873029 C29.656347,9.26873029 29.3347797,8.90123677 29.3893415,8.48778904 L30.3080893,1.59718047 C30.3540155,1.25553795 30.646872,1 30.9914024,1 L35.1257676,1 C35.5765338,1 35.9067088,1.43066304 35.7918653,1.86707385 L34.5687655,5.59373905 L37.882011,5.59373905 Z" id="b-copy" fill-rule="nonzero"></path>
            <text id="caret-down-copy" font-family="FontAwesome5Pro-Solid, Font Awesome 5 Pro" font-size="16" font-weight="700">
                <tspan x="46" y="14">caret-down</tspan>
            </text>
        </g>
        <path d="M29.1277704,198.5 C27.5776195,198.5 26.9405781,198.623018 26.282108,198.975172 C25.7173904,199.277186 25.2771863,199.71739 24.975172,200.282108 C24.6230184,200.940578 24.5,201.57762 24.5,203.12777 L24.5,711.87223 C24.5,713.42238 24.6230184,714.059422 24.975172,714.717892 C25.2771863,715.28261 25.7173904,715.722814 26.282108,716.024828 C26.9405781,716.376982 27.5776195,716.5 29.1277704,716.5 L936.87223,716.5 C938.42238,716.5 939.059422,716.376982 939.717892,716.024828 C940.28261,715.722814 940.722814,715.28261 941.024828,714.717892 C941.376982,714.059422 941.5,713.42238 941.5,711.87223 L941.5,203.12777 C941.5,201.57762 941.376982,200.940578 941.024828,200.282108 C940.722814,199.71739 940.28261,199.277186 939.717892,198.975172 C939.059422,198.623018 938.42238,198.5 936.87223,198.5 L29.1277704,198.5 Z" id="Rectangle" stroke="#DEDEDE" fill="#FFFFFF"></path>
        <path d="M24.5,246.5 L942,246.5" id="Line" stroke="#D7D7D7" stroke-linecap="square"></path>
        <rect id="Rectangle" fill="#5E4EA5" opacity="0" x="24" y="245" width="160" height="2"></rect>
        <rect id="Rectangle" fill="#59316B" x="184" y="245" width="160" height="2"></rect>
        <text id="Payments" font-family="Roboto-Regular, Roboto" font-size="14" font-weight="normal" fill="#878787">
            <tspan x="72.8623047" y="228">Payments</tspan>
        </text>
        <text id="Invoice" font-family="Roboto-Medium, Roboto" font-size="14" font-weight="400" fill="#5E4EA5">
            <tspan x="241.475586" y="228">Invoice</tspan>
        </text>
        <g id="Group-7" transform="translate(48.000000, 292.000000)">
            <text id="Memo" font-family="Roboto-Regular, Roboto" font-size="15" font-weight="normal" fill="#444444">
                <tspan x="0" y="14">Memo</tspan>
            </text>
            <rect id="Rectangle" stroke="#979797" fill="#D8D8D8" x="0.5" y="24.5" width="648" height="1"></rect>
        </g>
        <g id="Group-7" transform="translate(720.000000, 292.000000)">
            <text id="Amount-(sats)" font-family="Roboto-Regular, Roboto" font-size="15" font-weight="normal" fill="#444444">
                <tspan x="0" y="14">Amount (sats)</tspan>
            </text>
            <rect id="Rectangle" stroke="#979797" fill="#D8D8D8" x="0.5" y="24.5" width="198" height="1"></rect>
        </g>
        <text id="Amount" opacity="0" font-family="Roboto-Regular, Roboto" font-size="12" font-weight="normal" fill="#5E4EA5">
            <tspan x="48" y="281">Amount</tspan>
        </text>
        <g id="Group-8" transform="translate(49.000000, 344.000000)">
            <g id="Rectangle-Copy-7">
                <use fill="black" fill-opacity="1" filter="url(#filter-4)" xlink:href="#path-3"></use>
                <use fill="#5E4EA5" fill-rule="evenodd" xlink:href="#path-3"></use>
            </g>
            <text id="Create-Invoice" font-family="Roboto-Medium, Roboto" font-size="14" font-weight="400" fill="#FFFFFF">
                <tspan x="16.6904297" y="23">Create Invoice</tspan>
            </text>
        </g>
        <g id="Group-5" transform="translate(184.000000, 344.000000)">
            <rect id="Rectangle-Copy-7" stroke="#DCDCDC" fill="#FFFFFF" x="0.5" y="0.5" width="99" height="35" rx="4"></rect>
            <text id="Clear-Fields" font-family="Roboto-Medium, Roboto" font-size="14" font-weight="400" fill="#4F4F4F">
                <tspan x="14.1542969" y="23">Clear Fields</tspan>
            </text>
        </g>
        <g id="Group-20" transform="translate(968.000000, 162.000000)" fill="#84979E">
            <path d="M16.4933994,9.00001192 C16.7918301,9.00001192 17.0371603,9.26218781 16.9952598,9.55781088 C16.7512113,11.2843693 15.9193346,12.8203153 14.7099564,13.9596864 C14.617763,14.0465697 14.4990194,14.0887449 14.3796654,14.0887449 C14.2623561,14.0885313 14.0996673,14.0212097 14.0165376,13.9384462 L9.07810336,9.00001192 L16.4933994,9.00001192 Z M14.3712121,12.8787563 C15.1149542,12.0625046 15.6411981,11.0675119 15.8949511,10.0000095 L11.4924653,10.0000095 L14.3712121,12.8787563 Z M6.99998331,9.00001192 L11.8709129,13.8709415 C12.0849626,14.0849913 12.0687273,14.4484242 11.8218407,14.6234421 C10.6252798,15.472195 9.16999156,15.9796706 7.59498311,15.9993849 C7.56434354,15.9996901 7.53468052,15.9999952 7.50404095,15.9999952 C3.5368568,15.9999952 0.139678622,12.7353241 0.00436400327,8.76157865 C-0.128112488,4.86250958 2.71843834,1.60909937 6.44218435,1.0828555 C6.46437057,1.0797122 6.4865568,1.07815581 6.50810216,1.07815581 C6.77561861,1.07815581 6.99998331,1.3087766 6.99998331,1.58471588 L6.99998331,9.00001192 Z M7.58216576,14.9993873 C8.69529177,14.9856239 9.77030141,14.6900008 10.7252857,14.1393734 L5.99998569,9.41407343 L5.99998569,2.18221812 C3.01030776,2.88283901 0.897489315,5.59846974 1.00375127,8.72752112 C1.1193821,12.1275069 4.09624268,14.9999976 7.50373577,14.9999976 L7.58216576,14.9993873 Z M15.9987106,6.97502285 C16.0183944,7.26002584 15.7784048,7.5000155 15.4927609,7.5000155 L8.49997973,7.5000155 L8.49997973,0.507234318 C8.49997973,0.232851427 8.721842,3.33786011e-05 8.99247124,3.33786011e-05 C9.00309133,3.33786011e-05 9.01404711,0.000338553655 9.02497238,0.00128459632 C12.7580873,0.258791307 15.7412039,3.24190797 15.9987106,6.97502285 Z M9.49997735,6.50001788 L14.9405772,6.50001788 C14.508724,3.71096203 12.2890332,1.4909661 9.49997735,1.05941806 L9.49997735,6.50001788 Z" id="c" fill-rule="nonzero"></path>
            <text id="Check-your-balance." font-family="Roboto-Regular, Roboto" font-size="16" font-weight="normal">
                <tspan x="25" y="15">Check your balance.</tspan>
            </text>
        </g>
        <g id="Group-18" transform="translate(965.000000, 198.000000)">
            <path d="M5.1277704,0.5 C3.5776195,0.5 2.94057806,0.623018378 2.28210802,0.975172007 C1.71739041,1.27718629 1.27718629,1.71739041 0.975172007,2.28210802 C0.623018378,2.94057806 0.5,3.5776195 0.5,5.1277704 L0.5,268.87223 C0.5,270.42238 0.623018378,271.059422 0.975172007,271.717892 C1.27718629,272.28261 1.71739041,272.722814 2.28210802,273.024828 C2.94057806,273.376982 3.5776195,273.5 5.1277704,273.5 L289.87223,273.5 C291.42238,273.5 292.059422,273.376982 292.717892,273.024828 C293.28261,272.722814 293.722814,272.28261 294.024828,271.717892 C294.376982,271.059422 294.5,270.42238 294.5,268.87223 L294.5,5.1277704 C294.5,3.5776195 294.376982,2.94057806 294.024828,2.28210802 C293.722814,1.71739041 293.28261,1.27718629 292.717892,0.975172007 C292.059422,0.623018378 291.42238,0.5 289.87223,0.5 L5.1277704,0.5 Z" id="Rectangle" stroke="#DEDEDE" fill="#FFFFFF"></path>
            <path d="M0,48.5 L295,48.5" id="Line" stroke="#D7D7D7" stroke-linecap="square"></path>
            <rect id="Rectangle" fill="#5E4EA5" x="1" y="47" width="99" height="2"></rect>
            <rect id="Rectangle" fill="#59316B" opacity="0" x="98" y="47" width="99" height="2"></rect>
            <rect id="Rectangle" fill="#59316B" opacity="0" x="196" y="47" width="99" height="2"></rect>
            <text id="SATS" font-family="Roboto-Medium, Roboto" font-size="14" font-weight="400" fill="#5E4EA5">
                <tspan x="32.1435547" y="30">SATS</tspan>
            </text>
            <text id="BTC" font-family="Roboto-Regular, Roboto" font-size="14" font-weight="normal" fill="#979797">
                <tspan x="134.40918" y="30">BTC</tspan>
            </text>
            <text id="GBP" font-family="Roboto-Regular, Roboto" font-size="14" font-weight="normal" fill="#979797">
                <tspan x="231.958008" y="30">GBP</tspan>
            </text>
            <text id="Total-Balance" font-family="Roboto-Medium, Roboto" font-size="12" font-weight="400" fill="#5E4EA5">
                <tspan x="24" y="83">Total Balance</tspan>
            </text>
            <text id="413,722-sats" font-family="Roboto-Light, Roboto" font-size="20" font-weight="300" fill="#222831">
                <tspan x="24" y="109">413,722 sats</tspan>
            </text>
            <text id="Confirmed" font-family="Roboto-Medium, Roboto" font-size="12" font-weight="400" fill="#5E4EA5">
                <tspan x="24" y="150">Confirmed</tspan>
            </text>
            <text id="413,722-sats" font-family="Roboto-Light, Roboto" font-size="20" font-weight="300" fill="#222831">
                <tspan x="24" y="176">413,722 sats</tspan>
            </text>
            <text id="Unconfirmed" font-family="Roboto-Medium, Roboto" font-size="12" font-weight="400" fill="#5E4EA5">
                <tspan x="24" y="219">Unconfirmed</tspan>
            </text>
            <text id="0-sats" font-family="Roboto-Light, Roboto" font-size="20" font-weight="300" fill="#222831">
                <tspan x="24" y="245">0 sats</tspan>
            </text>
        </g>
        <g id="Group-14" transform="translate(49.000000, 439.000000)">
            <path d="M5.1277704,0.5 C3.5776195,0.5 2.94057806,0.623018378 2.28210802,0.975172007 C1.71739041,1.27718629 1.27718629,1.71739041 0.975172007,2.28210802 C0.623018378,2.94057806 0.5,3.5776195 0.5,5.1277704 L0.5,252.87223 C0.5,254.42238 0.623018378,255.059422 0.975172007,255.717892 C1.27718629,256.28261 1.71739041,256.722814 2.28210802,257.024828 C2.94057806,257.376982 3.5776195,257.5 5.1277704,257.5 L864.87223,257.5 C866.42238,257.5 867.059422,257.376982 867.717892,257.024828 C868.28261,256.722814 868.722814,256.28261 869.024828,255.717892 C869.376982,255.059422 869.5,254.42238 869.5,252.87223 L869.5,5.1277704 C869.5,3.5776195 869.376982,2.94057806 869.024828,2.28210802 C868.722814,1.71739041 868.28261,1.27718629 867.717892,0.975172007 C867.059422,0.623018378 866.42238,0.5 864.87223,0.5 L5.1277704,0.5 Z" id="Rectangle" stroke="#DEDEDE" fill="#FFFFFF"></path>
            <path d="M1,56.5 L870.5,56.5" id="Line-2" stroke="#E1E1E1" stroke-linecap="square"></path>
            <path d="M1,106.5 L870.5,106.5" id="Line-2" stroke="#E1E1E1" stroke-linecap="square"></path>
            <path d="M1,158.5 L870.5,158.5" id="Line-2" stroke="#E1E1E1" stroke-linecap="square"></path>
            <g id="Group-10" transform="translate(21.000000, 21.000000)" font-size="14">
                <text id="Date/Time" font-family="Roboto-Medium, Roboto" font-weight="400" letter-spacing="0.5" fill="#000000">
                    <tspan x="0" y="13">Date/Time</tspan>
                </text>
                <text id="04/SET/2019-08:00" font-family="Roboto-Regular, Roboto" font-weight="normal" letter-spacing="0.200000003" fill="#4F4F4F">
                    <tspan x="0" y="63">04/SET/2019 08:00</tspan>
                </text>
                <text id="04/SET/2019-08:00" font-family="Roboto-Regular, Roboto" font-weight="normal" letter-spacing="0.200000003" fill="#4F4F4F">
                    <tspan x="0" y="115">04/SET/2019 08:00</tspan>
                </text>
                <text id="04/SET/2019-08:00" font-family="Roboto-Regular, Roboto" font-weight="normal" letter-spacing="0.200000003" fill="#4F4F4F">
                    <tspan x="0" y="170">04/SET/2019 08:00</tspan>
                </text>
                <text id="04/SET/2019-08:00" font-family="Roboto-Regular, Roboto" font-weight="normal" letter-spacing="0.200000003" fill="#4F4F4F">
                    <tspan x="0" y="219">04/SET/2019 08:00</tspan>
                </text>
            </g>
            <g id="Group-9" transform="translate(416.000000, 21.000000)" font-size="14">
                <text id="Addresses" font-family="Roboto-Medium, Roboto" font-weight="400" letter-spacing="0.5" fill="#000000">
                    <tspan x="0" y="13">Addresses</tspan>
                </text>
                <text id="2" font-family="Roboto-Regular, Roboto" font-weight="normal" letter-spacing="0.200000003" fill="#4F4F4F">
                    <tspan x="63" y="63">2</tspan>
                </text>
                <text id="1" font-family="Roboto-Regular, Roboto" font-weight="normal" letter-spacing="0.200000003" fill="#4F4F4F">
                    <tspan x="63" y="115">1</tspan>
                </text>
                <text id="2" font-family="Roboto-Regular, Roboto" font-weight="normal" letter-spacing="0.200000003" fill="#4F4F4F">
                    <tspan x="63" y="170">2</tspan>
                </text>
                <text id="2" font-family="Roboto-Regular, Roboto" font-weight="normal" letter-spacing="0.200000003" fill="#4F4F4F">
                    <tspan x="63" y="219">2</tspan>
                </text>
            </g>
            <g id="Group-9" transform="translate(594.000000, 21.000000)" font-size="14">
                <text id="Addresses" font-family="Roboto-Medium, Roboto" font-weight="400" letter-spacing="0.5" fill="#000000">
                    <tspan x="0" y="13">Addresses</tspan>
                </text>
                <text id="2" font-family="Roboto-Regular, Roboto" font-weight="normal" letter-spacing="0.200000003" fill="#4F4F4F">
                    <tspan x="63" y="63">2</tspan>
                </text>
                <text id="1" font-family="Roboto-Regular, Roboto" font-weight="normal" letter-spacing="0.200000003" fill="#4F4F4F">
                    <tspan x="63" y="115">1</tspan>
                </text>
                <text id="2" font-family="Roboto-Regular, Roboto" font-weight="normal" letter-spacing="0.200000003" fill="#4F4F4F">
                    <tspan x="63" y="170">2</tspan>
                </text>
                <text id="2" font-family="Roboto-Regular, Roboto" font-weight="normal" letter-spacing="0.200000003" fill="#4F4F4F">
                    <tspan x="63" y="219">2</tspan>
                </text>
            </g>
            <g id="Group-11" transform="translate(253.000000, 21.000000)" font-size="14">
                <text id="Type" font-family="Roboto-Medium, Roboto" font-weight="400" letter-spacing="0.5" fill="#000000">
                    <tspan x="0" y="13">Type</tspan>
                </text>
                <text id="Sent" font-family="Roboto-Regular, Roboto" font-weight="normal" letter-spacing="0.200000003" fill="#4F4F4F">
                    <tspan x="0" y="63">Sent</tspan>
                </text>
                <text id="Received" font-family="Roboto-Regular, Roboto" font-weight="normal" letter-spacing="0.200000003" fill="#4F4F4F">
                    <tspan x="0" y="115">Received</tspan>
                </text>
                <text id="Sent" font-family="Roboto-Regular, Roboto" font-weight="normal" letter-spacing="0.200000003" fill="#4F4F4F">
                    <tspan x="0" y="170">Sent</tspan>
                </text>
                <text id="Sent" font-family="Roboto-Regular, Roboto" font-weight="normal" letter-spacing="0.200000003" fill="#4F4F4F">
                    <tspan x="0" y="219">Sent</tspan>
                </text>
            </g>
            <g id="Group-12" transform="translate(771.000000, 21.000000)">
                <text id="Actions" font-family="Roboto-Medium, Roboto" font-size="14" font-weight="400" letter-spacing="0.5" fill="#000000">
                    <tspan x="31" y="13">Actions</tspan>
                </text>
                <g id="Group-25" transform="translate(0.000000, 43.000000)">
                    <g id="Group-5" fill="#FFFFFF" stroke="#DCDCDC">
                        <rect id="Rectangle-Copy-7" x="0.5" y="0.5" width="91" height="35" rx="4"></rect>
                    </g>
                    <text id="More-Info" font-family="Roboto-Medium, Roboto" font-size="14" font-weight="400" fill="#4F4F4F">
                        <tspan x="16.1552734" y="23">More Info</tspan>
                    </text>
                </g>
                <g id="Group-25" transform="translate(0.000000, 93.000000)">
                    <g id="Group-5" fill="#FFFFFF" stroke="#DCDCDC">
                        <rect id="Rectangle-Copy-7" x="0.5" y="0.5" width="91" height="35" rx="4"></rect>
                    </g>
                    <text id="More-Info" font-family="Roboto-Medium, Roboto" font-size="14" font-weight="400" fill="#4F4F4F">
                        <tspan x="16.1552734" y="23">More Info</tspan>
                    </text>
                </g>
                <g id="Group-25" transform="translate(0.000000, 144.000000)">
                    <g id="Group-5" fill="#FFFFFF" stroke="#DCDCDC">
                        <rect id="Rectangle-Copy-7" x="0.5" y="0.5" width="91" height="35" rx="4"></rect>
                    </g>
                    <text id="More-Info" font-family="Roboto-Medium, Roboto" font-size="14" font-weight="400" fill="#4F4F4F">
                        <tspan x="16.1552734" y="23">More Info</tspan>
                    </text>
                </g>
                <g id="Group-25" transform="translate(0.000000, 193.000000)">
                    <g id="Group-5" fill="#FFFFFF" stroke="#DCDCDC">
                        <rect id="Rectangle-Copy-7" x="0.5" y="0.5" width="91" height="35" rx="4"></rect>
                    </g>
                    <text id="More-Info" font-family="Roboto-Medium, Roboto" font-size="14" font-weight="400" fill="#4F4F4F">
                        <tspan x="16.1552734" y="23">More Info</tspan>
                    </text>
                </g>
            </g>
            <path d="M1,207.5 L870.5,207.5" id="Line-2" stroke="#E1E1E1" stroke-linecap="square"></path>
        </g>
        <g id="Group-17" transform="translate(52.000000, 407.000000)" fill="#84979E">
            <path d="M10.7499744,8.50001431 C10.8874862,8.50001431 10.9999738,8.61250302 10.9999738,8.7500149 L10.9999738,9.25001371 C10.9999738,9.38752559 10.8874862,9.50001431 10.7499744,9.50001431 L3.24999225,9.50001431 C3.11248037,9.50001431 2.99999285,9.38752559 2.99999285,9.25001371 L2.99999285,8.7500149 C2.99999285,8.61250302 3.11248037,8.50001431 3.24999225,8.50001431 L10.7499744,8.50001431 Z M10.7499744,11.5000072 C10.8874862,11.5000072 10.9999738,11.6124959 10.9999738,11.7500077 L10.9999738,12.2500066 C10.9999738,12.3875184 10.8874862,12.5000072 10.7499744,12.5000072 L3.24999225,12.5000072 C3.11248037,12.5000072 2.99999285,12.3875184 2.99999285,12.2500066 L2.99999285,11.7500077 C2.99999285,11.6124959 3.11248037,11.5000072 3.24999225,11.5000072 L10.7499744,11.5000072 Z M13.0655816,1.00003338 C13.5530988,1.00003338 13.9999666,1.39065745 13.996886,1.93441836 L13.996886,16.0687536 C13.996886,16.61874 13.5499555,16.9999952 13.0655816,16.9999952 C12.8812254,16.9999952 12.6937258,16.9437515 12.524964,16.8218646 L11.1655923,15.843748 L9.95935736,16.7124898 C9.69684578,16.9031327 9.39060261,16.9968824 9.08435944,16.9968824 C8.77811628,16.9968824 8.46872981,16.8999894 8.20621823,16.7124898 L6.99998331,15.843748 L5.79374839,16.7124898 C5.53123681,16.9031327 5.22499365,16.9968824 4.91875048,16.9968824 C4.60936401,16.9968824 4.30312084,16.8999894 4.04060926,16.7124898 L2.83437435,15.843748 L1.47500259,16.8218646 C1.303128,16.9437515 1.11562844,16.9999952 0.934384979,16.9999952 C0.446867831,16.9999952 0,16.6093712 0,16.0687536 L0,1.93441836 C0,1.38440136 0.450011134,1.00314616 0.934384979,1.00003338 C1.11874123,1.00003338 1.30624078,1.05627714 1.47500259,1.17816406 L2.83437435,2.15628062 L4.04060926,1.2875388 C4.30312084,1.09689594 4.60936401,1.00314616 4.91560718,1.00314616 C5.22185034,1.00314616 5.53123681,1.10003924 5.79374839,1.2875388 L6.99998331,2.15628062 L8.20621823,1.2875388 C8.46872981,1.09689594 8.77497298,1.00314616 9.08121614,1.00314616 C9.39060261,1.00314616 9.69684578,1.10003924 9.95935736,1.2875388 L11.1655923,2.15628062 L12.524964,1.17816406 C12.6968386,1.05627714 12.8843382,1.00003338 13.0655816,1.00003338 Z M12.999969,15.9312417 L12.999969,2.06878693 L11.749972,2.96877868 L11.1687356,3.39065268 L10.5843559,2.96877868 L9.37809043,2.10314965 C9.29059675,2.04064979 9.19059088,2.00628708 9.08435944,2.00628708 C8.97809749,2.00628708 8.87809163,2.03753701 8.79059794,2.10003686 L7.58436302,2.96877868 L6.99998331,3.39065268 L6.4156036,2.96877868 L5.20936868,2.10314965 C5.121875,2.04064979 5.02186913,2.00628708 4.91560718,2.00628708 C4.81248853,2.00628708 4.71248266,2.03753701 4.62498897,2.10003686 L3.41875406,2.96877868 L2.83437435,3.39065268 L2.24999464,2.96877868 L0.999997616,2.06878693 L0.999997616,15.9500099 L2.24999464,15.0312499 L2.83123104,14.6093759 L3.41561075,15.0312499 L4.62187619,15.896879 C4.70936988,15.9593788 4.80937574,15.9937415 4.91560718,15.9937415 C5.02186913,15.9937415 5.121875,15.9624916 5.20936868,15.8999918 L6.4156036,15.0312499 L6.99998331,14.6093759 L7.58436302,15.0312499 L8.79059794,15.896879 C8.87809163,15.9593788 8.97809749,15.9937415 9.08435944,15.9937415 C9.1874781,15.9937415 9.28748396,15.9624916 9.37497765,15.8999918 L10.5812126,15.0312499 L11.1655923,14.6093759 L11.749972,15.0312499 L12.999969,15.9312417 Z M10.7499744,5.50002146 C10.8874862,5.50002146 10.9999738,5.61251017 10.9999738,5.75002205 L10.9999738,6.25002086 C10.9999738,6.38753274 10.8874862,6.50002146 10.7499744,6.50002146 L3.24999225,6.50002146 C3.11248037,6.50002146 2.99999285,6.38753274 2.99999285,6.25002086 L2.99999285,5.75002205 C2.99999285,5.61251017 3.11248037,5.50002146 3.24999225,5.50002146 L10.7499744,5.50002146 Z" id="r" fill-rule="nonzero"></path>
            <text id="Invoices-History" font-family="Roboto-Regular, Roboto" font-size="16" font-weight="normal">
                <tspan x="21" y="15">Invoices History</tspan>
            </text>
        </g>
        <g id="Group-16" transform="translate(24.000000, 162.000000)" fill="#84979E" font-size="16">
            <text id="Payments-and-Invoice" font-family="Roboto-Regular, Roboto" font-weight="normal">
                <tspan x="24" y="15">Payments and Invoices</tspan>
            </text>
            <text id="paper-plane" font-family="FontAwesome5Pro-Light, Font Awesome 5 Pro" font-weight="300">
                <tspan x="0" y="15">paper-plane</tspan>
            </text>
        </g>
    </g>
</svg>