<?xml version="1.0" encoding="UTF-8"?>
<svg width="1284px" height="724px" viewBox="0 0 1284 724" version="1.1" xmlns="http://www.w3.org/2000/svg" xmlns:xlink="http://www.w3.org/1999/xlink">
    <!-- Generator: Sketch 58 (84663) - https://sketch.com -->
    <title>onchain_nav02_01_4_Cashout</title>
    <desc>Created with Sketch.</desc>
    <defs>
        <rect id="path-1" x="0" y="91" width="218" height="633"></rect>
        <filter x="-6.7%" y="-2.0%" width="113.3%" height="104.6%" filterUnits="objectBoundingBox" id="filter-2">
            <feOffset dx="0" dy="2" in="SourceAlpha" result="shadowOffsetOuter1"></feOffset>
            <feGaussianBlur stdDeviation="4.5" in="shadowOffsetOuter1" result="shadowBlurOuter1"></feGaussianBlur>
            <feColorMatrix values="0 0 0 0 0.508718297   0 0 0 0 0.508320861   0 0 0 0 0.508320861  0 0 0 0.5 0" type="matrix" in="shadowBlurOuter1"></feColorMatrix>
        </filter>
        <rect id="path-3" x="0" y="38" width="1284" height="53"></rect>
        <filter x="-0.8%" y="-15.1%" width="101.6%" height="137.7%" filterUnits="objectBoundingBox" id="filter-4">
            <feOffset dx="0" dy="2" in="SourceAlpha" result="shadowOffsetOuter1"></feOffset>
            <feGaussianBlur stdDeviation="3" in="shadowOffsetOuter1" result="shadowBlurOuter1"></feGaussianBlur>
            <feColorMatrix values="0 0 0 0 0   0 0 0 0 0   0 0 0 0 0  0 0 0 0.5 0" type="matrix" in="shadowBlurOuter1"></feColorMatrix>
        </filter>
        <rect id="path-5" x="267" y="368" width="105" height="36" rx="4"></rect>
        <filter x="-3.8%" y="-5.6%" width="107.6%" height="122.2%" filterUnits="objectBoundingBox" id="filter-6">
            <feOffset dx="0" dy="2" in="SourceAlpha" result="shadowOffsetOuter1"></feOffset>
            <feGaussianBlur stdDeviation="1" in="shadowOffsetOuter1" result="shadowBlurOuter1"></feGaussianBlur>
            <feColorMatrix values="0 0 0 0 0   0 0 0 0 0   0 0 0 0 0  0 0 0 0.257457386 0" type="matrix" in="shadowBlurOuter1"></feColorMatrix>
        </filter>
    </defs>
    <g id="onchain_nav02_01_4_Cashout" stroke="none" stroke-width="1" fill="none" fill-rule="evenodd">
        <rect fill="#1D1E1F" x="0" y="0" width="1284" height="724"></rect>
        <rect id="Background" fill="#F2F5F6" x="0" y="38" width="1284" height="686"></rect>
        <g id="Rectangle">
            <use fill="black" fill-opacity="1" filter="url(#filter-2)" xlink:href="#path-1"></use>
            <use fill="#FFFFFF" fill-rule="evenodd" xlink:href="#path-1"></use>
        </g>
        <g id="Rectangle-13">
            <use fill="black" fill-opacity="1" filter="url(#filter-4)" xlink:href="#path-3"></use>
            <use fill="#5E4EA5" fill-rule="evenodd" xlink:href="#path-3"></use>
        </g>
        <g id="Browser">
            <path d="M0,6.00024414 C0,2.68640081 2.6794487,0 5.99234946,0 L1278.00765,0 C1281.31713,0 1284,2.68722626 1284,6.00024414 L1284,38 L0,38 L0,6.00024414 Z" id="Tab-BG---Right" fill="#363738"></path>
            <circle id="Dot---Red" fill="#FF5F57" cx="18" cy="19" r="6"></circle>
            <circle id="Dot---Orange" fill="#FFBF2F" cx="38" cy="19" r="6"></circle>
            <circle id="Dot---Green" fill="#28CA42" cx="58" cy="19" r="6"></circle>
            <g id="Back" transform="translate(76.000000, 7.000000)">
                <rect id="Rectangle" fill="#656668" x="0" y="0" width="28" height="24" rx="4"></rect>
                <path d="M10.1607883,11.3246277 L15.780455,5.65901618 C15.9603839,5.47908726 16.2513057,5.47908726 16.4312347,5.65901618 L17.1891941,6.41697565 C17.3691231,6.59690457 17.3691231,6.88782642 17.1891941,7.06775535 L12.6528768,11.6500175 L17.1891941,16.2322797 C17.3691231,16.4122086 17.3691231,16.7031305 17.1891941,16.8830594 L16.4312347,17.6410189 C16.2513057,17.8209478 15.9603839,17.8209478 15.780455,17.6410189 L10.1607883,11.9754074 C9.98085942,11.7954785 9.98085942,11.5045566 10.1607883,11.3246277 Z" id="a" fill="#FFFFFF" fill-rule="nonzero"></path>
            </g>
            <g id="Forward" transform="translate(105.000000, 7.000000)">
                <rect id="Rectangle" fill="#656668" x="0" y="0" width="28" height="24" rx="4"></rect>
                <path d="M18.1891941,11.9754074 L12.5695275,17.6410189 C12.3895986,17.8209478 12.0986767,17.8209478 11.9187478,17.6410189 L11.1607883,16.8830594 C10.9808594,16.7031305 10.9808594,16.4122086 11.1607883,16.2322797 L15.6971057,11.6500175 L11.1607883,7.06775535 C10.9808594,6.88782642 10.9808594,6.59690457 11.1607883,6.41697565 L11.9187478,5.65901618 C12.0986767,5.47908726 12.3895986,5.47908726 12.5695275,5.65901618 L18.1891941,11.3246277 C18.3691231,11.5045566 18.3691231,11.7954785 18.1891941,11.9754074 Z" id="a" fill="#FFFFFF" fill-rule="nonzero" opacity="0.200334821"></path>
            </g>
            <g id="New-Tab" transform="translate(1260.000000, 14.000000)">
                <rect id="Rectangle" fill="#292A2B" x="0" y="0" width="24" height="24"></rect>
                <path d="M16.2531029,11.6843877 C16.3618742,11.6843877 16.4499775,11.7724909 16.4499775,11.8812622 L16.4499775,12.6687603 C16.4499775,12.7775316 16.3618742,12.8656349 16.2531029,12.8656349 L12.3156123,12.8656349 L12.3156123,16.8031255 C12.3156123,16.9118967 12.2275091,17 12.1187378,17 L11.3312397,17 C11.2224684,17 11.1343651,16.9118967 11.1343651,16.8031255 L11.1343651,12.8656349 L7.19687453,12.8656349 C7.08810328,12.8656349 7,12.7775316 7,12.6687603 L7,11.8812622 C7,11.7724909 7.08810328,11.6843877 7.19687453,11.6843877 L11.1343651,11.6843877 L11.1343651,7.74689706 C11.1343651,7.63812581 11.2224684,7.55002253 11.3312397,7.55002253 L12.1187378,7.55002253 C12.2275091,7.55002253 12.3156123,7.63812581 12.3156123,7.74689706 L12.3156123,11.6843877 L16.2531029,11.6843877 Z" id="p" fill="#FFFFFF" fill-rule="nonzero" opacity="0.497907366"></path>
            </g>
            <g id="URL" transform="translate(378.000000, 7.000000)">
                <path d="M0,3.99005301 C0,1.78640758 1.78094395,5.31029755e-14 3.99753941,5.28693238e-14 L516.002461,-1.1012102e-15 C518.210241,-1.33393271e-15 520,1.78429328 520,3.99005301 L520,20.009947 C520,22.2135924 518.219056,24 516.002461,24 L3.99753941,24 C1.78975936,24 0,22.2157067 0,20.009947 L0,3.99005301 Z" id="URL-Bar" fill="#696A6B"></path>
                <path d="M512.304658,5.17186422 C512.467743,5.17186422 512.59997,5.30412783 512.59997,5.46721261 L512.59997,10.1922013 C512.59997,10.3552861 512.467743,10.4875131 512.304658,10.4875131 L507.579669,10.4875131 C507.416585,10.4875131 507.284358,10.3552861 507.284358,10.1922013 L507.284358,9.51027815 C507.284358,9.34440559 507.42091,9.21109712 507.586711,9.21503845 L510.69705,9.2890827 C509.940722,7.61516854 508.257531,6.45158527 506.299985,6.45158527 C503.633864,6.45158527 501.476559,8.60927437 501.476559,11.2750113 C501.476559,13.9411327 503.634248,16.0984373 506.299985,16.0984373 C507.533046,16.0984373 508.65724,15.6369165 509.509554,14.8770557 C509.6264,14.7728747 509.804938,14.7799403 509.915632,14.8906341 L510.401377,15.3763797 C510.521276,15.4962781 510.51534,15.6917347 510.389505,15.8053845 C509.307296,16.7829079 507.873155,17.3781217 506.299985,17.3781217 C502.93257,17.3781217 500.202138,14.6509336 500.19686,11.2847685 C500.191635,7.92836054 502.924087,5.18242707 506.280471,5.17186422 C508.411171,5.16526784 510.288545,6.2506252 511.385221,7.89993005 L511.327471,5.47425415 C511.32353,5.30842965 511.456862,5.17186422 511.622711,5.17186422 L512.304658,5.17186422 Z" id="r" fill="#FFFFFF" fill-rule="nonzero" transform="translate(506.398415, 11.274993) rotate(-45.000000) translate(-506.398415, -11.274993) "></path>
                <text id="Ride-the-Lightning" font-family="Roboto-Regular, Roboto" font-size="12.6" font-weight="normal" fill="#FFFFFF">
                    <tspan x="210" y="17">Ride the Lightning</tspan>
                </text>
            </g>
        </g>
        <text id="Dashboard" font-family="FontAwesome5Pro-Regular, Font Awesome 5 Pro" font-size="18" font-weight="normal" fill="#FFFFFF">
            <tspan x="24" y="71">bars</tspan>
        </text>
        <g id="RTL-Logo" transform="translate(1210.000000, 56.000000)" fill="#FFFFFF">
            <path d="M5.10234375,10.1960631 L3.54375,10.1960631 L2.80546875,14.4124693 L0,14.4124693 L2.0671875,2.46871933 L6.28359375,2.47692246 C7.63438175,2.47692246 8.67480104,2.79273961 9.40488281,3.4243834 C10.1349646,4.05602718 10.4617191,4.91871386 10.3851562,6.01246933 C10.3249997,6.87653615 10.0761741,7.59156807 9.63867187,8.15758652 C9.20116969,8.72360498 8.58867581,9.17067082 7.80117187,9.49879746 L9.40898437,14.2730162 L9.40898437,14.4124693 L6.41484375,14.4124693 L5.10234375,10.1960631 Z M3.92109375,7.97301621 L5.56171875,7.98942246 C6.01015849,7.98942246 6.39980303,7.88004855 6.73066406,7.66129746 C7.06152509,7.44254636 7.29804616,7.1431353 7.44023438,6.76305527 C7.58242259,6.38297525 7.6234378,6.01520549 7.56328125,5.65973496 C7.4539057,5.05270067 7.06562834,4.732782 6.3984375,4.69996933 L4.4953125,4.69176621 L3.92109375,7.97301621 Z M21.0984375,4.69176621 L17.6203125,4.69176621 L15.9386719,14.4124693 L13.125,14.4124693 L14.8148438,4.69176621 L11.3941406,4.69176621 L11.7878906,2.46871933 L21.4839844,2.46871933 L21.0984375,4.69176621 Z M23.8464844,12.1976256 L28.7109375,12.1976256 L28.3253906,14.4124693 L20.6554688,14.4124693 L22.7226562,2.46871933 L25.5363281,2.46871933 L23.8464844,12.1976256 Z" id="RTL-Copy" fill-rule="nonzero"></path>
            <path d="M37.882011,5.59373905 C38.4131621,5.59373905 38.7433371,6.1708163 38.4763316,6.62733033 L33.4232186,15.3554345 C33.2968796,15.5736259 33.0671926,15.699965 32.8260382,15.699965 C32.3867394,15.699965 32.0537046,15.2894051 32.1570525,14.8529943 L33.4806404,9.26873029 L30.0726546,9.26873029 C29.656347,9.26873029 29.3347797,8.90123677 29.3893415,8.48778904 L30.3080893,1.59718047 C30.3540155,1.25553795 30.646872,1 30.9914024,1 L35.1257676,1 C35.5765338,1 35.9067088,1.43066304 35.7918653,1.86707385 L34.5687655,5.59373905 L37.882011,5.59373905 Z" id="b-copy" fill-rule="nonzero"></path>
            <text id="caret-down-copy" font-family="FontAwesome5Pro-Solid, Font Awesome 5 Pro" font-size="16" font-weight="700">
                <tspan x="46" y="14">caret-down</tspan>
            </text>
        </g>
        <g id="Group-10" transform="translate(70.000000, 55.000000)">
            <g id="Group-9">
                <g id="Group-6" transform="translate(1.000000, 0.000000)">
                    <g id="Group-3">
                        <circle id="Oval" fill="#28CA42" cx="5" cy="8" r="5"></circle>
                        <text id="NODE:-AMORA_[UK01]" font-family="Roboto-Bold, Roboto" font-size="14" font-weight="bold" letter-spacing="1.20000005" fill="#FFFFFF">
                            <tspan x="15.8318355" y="13">NODE: AMORA_[UK01]</tspan>
                        </text>
                    </g>
                </g>
                <rect id="Rectangle" fill="#FFFFFF" x="0" y="30" width="181" height="5"></rect>
            </g>
            <g id="Group-6" transform="translate(211.000000, 0.000000)">
                <g id="Group-3">
                    <circle id="Oval" fill="#28CA42" cx="5" cy="8" r="5"></circle>
                    <text id="NODE:-AMORA_[UK01]" font-family="Roboto-Medium, Roboto" font-size="14" font-weight="400" letter-spacing="1.20000005" fill="#FFFFFF">
                        <tspan x="16.2556636" y="13">NODE: AMORA_[UK01]</tspan>
                    </text>
                </g>
            </g>
        </g>
        <g id="Group-5" transform="translate(13.000000, 675.000000)">
            <rect id="Rectangle-Copy-7" stroke="#DCDCDC" fill="#FFFFFF" x="0.5" y="0.5" width="190" height="35" rx="4"></rect>
            <text id="Show-Public-Key" font-family="Roboto-Medium, Roboto" font-size="14" font-weight="400" fill="#4F4F4F">
                <tspan x="44.7280273" y="23">Show Public Key</tspan>
            </text>
        </g>
        <text id="Transactions" font-family="Roboto-Regular, Roboto" font-size="16" font-weight="normal" fill="#84979E">
            <tspan x="274" y="133">Transactions</tspan>
        </text>
        <path d="M265.890129,124.765187 C266.036552,124.618733 266.036583,124.381307 265.890129,124.234854 L262.999969,121.359861 C262.853515,121.213438 262.616089,121.213438 262.469636,121.359861 L262.248689,121.580807 C262.102236,121.727291 262.102236,121.964717 262.248689,122.11114 L264.153256,124.000021 L250.374999,124.000021 C250.167907,124.000021 250,124.167929 250,124.375021 L250,124.62502 C250,124.832112 250.167907,125.000019 250.374999,125.000019 L264.152859,125.000019 L262.248689,126.8889 C262.102236,127.035354 262.102236,127.27278 262.248689,127.419233 L262.469666,127.64018 C262.616089,127.786603 262.853515,127.786603 262.999969,127.64018 L265.890129,124.765187 Z M250.109833,129.765175 C249.963379,129.618721 249.96341,129.381295 250.109833,129.234842 L252.999993,126.359849 C253.146416,126.213395 253.383873,126.213426 253.530296,126.359849 L253.751273,126.580795 C253.897726,126.727279 253.897726,126.964706 253.751273,127.111129 L251.847103,129.00001 L265.624963,129.00001 C265.832055,129.00001 265.999962,129.167917 265.999962,129.375009 L265.999962,129.625008 C265.999962,129.8321 265.832055,130.000007 265.624963,130.000007 L251.846706,130.000007 L253.751273,131.888888 C253.897726,132.035342 253.897726,132.272768 253.751273,132.419221 L253.530326,132.640168 C253.383873,132.786591 253.146446,132.786591 252.999993,132.640168 L250.109833,129.765175 Z" id="e" fill="#84979E" fill-rule="nonzero"></path>
        <rect id="Rectangle" fill="#D8D8D8" opacity="0" x="0" y="152" width="218" height="48"></rect>
        <path d="M33.5919786,174.158071 C33.2956307,173.861723 32.9623795,173.624175 32.6069383,173.4458 C32.481622,173.382888 32.3297898,173.409377 32.2306689,173.508525 L32.1110403,173.628153 C31.8781117,173.861109 31.7430221,174.1554 31.7059586,174.459519 C31.6889756,174.598881 31.758937,174.736053 31.8853481,174.797122 C32.0783027,174.890395 32.3577744,175.089198 32.5091793,175.24087 C33.4054327,176.137123 33.4038038,177.594216 32.5091793,178.489027 L30.4531959,180.545278 C29.5533911,181.444522 28.1009715,181.440917 27.2047715,180.545278 C26.3055274,179.645446 26.3091323,178.193027 27.2047715,177.296853 L28.4584688,176.04345 C28.5385772,175.963341 28.5724364,175.847398 28.5460006,175.737249 C28.4786027,175.455721 28.4204707,174.99232 28.4162249,174.702888 C28.4120059,174.414525 28.0601429,174.275109 27.8560799,174.478878 L26.1222393,176.214027 L26.1222393,176.214027 C24.6255998,177.710694 24.6262407,180.132372 26.1222393,181.62781 C27.6185851,183.124743 30.0404238,183.123408 31.5360219,181.62781 L33.7641543,179.389238 C33.7995504,179.349308 33.8234441,179.319233 33.8585795,179.275719 C35.0788448,177.775288 34.9890166,175.555082 33.5919786,174.158071 Z" id="Path" fill="#5E4EA5" fill-rule="nonzero"></path>
        <path d="M37.8777273,169.872215 C39.373726,171.36768 39.3743668,173.789358 37.877754,175.286024 L36.1439134,177.021173 L36.1439134,177.021173 C35.9398505,177.224943 35.5879875,177.085527 35.5837684,176.797163 C35.5795227,176.507732 35.5213906,176.044331 35.4539927,175.762803 C35.4275569,175.652654 35.4614161,175.53671 35.5415245,175.456602 L36.7951951,174.203172 C37.6908343,173.306998 37.6944392,171.854579 36.7951951,170.954747 C35.8989952,170.059108 34.4465755,170.055503 33.5467707,170.954747 L31.4907873,173.010998 C30.5961628,173.905809 30.5945339,175.362902 31.4907873,176.259155 C31.6421923,176.410827 31.9216639,176.60963 32.1146185,176.702903 C32.2410296,176.763972 32.310991,176.901144 32.294008,177.040506 C32.2569445,177.344625 32.1218817,177.638943 31.8889263,177.871872 L31.7692977,177.9915 C31.6701234,178.090621 31.5183179,178.117137 31.3930283,178.054225 C31.0375871,177.87585 30.7043359,177.638302 30.4079881,177.341954 C29.0608443,175.994836 28.9292055,173.882273 30.0156574,172.38775 L30.2358123,172.11079 C30.3723402,171.956781 30.6799955,171.656164 32.4639448,169.872215 C33.9595428,168.376617 36.3813816,168.375282 37.8777273,169.872215 Z" id="Path" fill="#5E4EA5" fill-rule="nonzero"></path>
        <text id="On-chain" font-family="Roboto-Medium, Roboto" font-size="14" font-weight="400" fill="#5E4EA5">
            <tspan x="70" y="181">On-chain</tspan>
        </text>
        <g id="Group-3" transform="translate(0.000000, 250.000000)">
            <rect id="Rectangle" fill="#D8D8D8" opacity="0" x="0" y="0" width="218" height="48"></rect>
            <path d="M37.3734179,23.2304825 L38.2441434,22.7278554 C38.501879,22.5790673 38.6268215,22.2755364 38.5497571,21.9881072 C38.2379216,20.8251461 37.6243977,19.7856322 36.7981591,18.9584857 C36.5881682,18.7482811 36.2629279,18.7056901 36.0056195,18.8542913 L35.1364962,19.3562776 C34.902179,19.1885839 34.4991534,18.9555751 34.236905,18.8361868 L34.236905,17.8312263 C34.2368783,17.5525824 34.0183157,17.2683309 33.7490445,17.1966872 C32.607152,16.8929694 31.3942833,16.8925955 30.2509755,17.1966605 C29.9633327,17.2731641 29.7630616,17.53357 29.7630616,17.8311996 L29.7630616,18.8361601 C29.5008132,18.9555484 29.0977876,19.1885572 28.8634704,19.3562509 L27.9943471,18.8542646 C27.7370388,18.7056367 27.4117984,18.7482544 27.2018075,18.958459 C26.3755689,19.7856055 25.762045,20.8250927 25.4502095,21.9880805 C25.3731452,22.2755097 25.4980876,22.5790406 25.7558232,22.7278287 L26.6265487,23.2304825 C26.6127166,23.3735295 26.6015282,23.6062713 26.6015282,23.7499858 C26.6015282,23.8937271 26.6127166,24.1264688 26.6265487,24.2695158 L25.7558232,24.772143 C25.4980876,24.9209311 25.3731452,25.224462 25.4502095,25.5118911 C25.762045,26.6748522 26.3755689,27.7143662 27.2018075,28.5415126 C27.4117984,28.7517172 27.7370388,28.7943082 27.9943471,28.645707 L28.8634704,28.1437208 C29.0977876,28.3114145 29.5008132,28.5443965 29.7630616,28.6637848 L29.7630616,29.6687454 C29.7630883,29.9473893 29.9816509,30.2316407 30.2509221,30.3032844 C31.3928147,30.6069755 32.6056833,30.6074028 33.7489911,30.3033111 C34.0366339,30.2268075 34.236905,29.9664017 34.236905,29.6687721 L34.236905,28.6638115 C34.4991534,28.5444232 34.902179,28.3114412 35.1364962,28.1437475 L36.0056195,28.6457337 C36.2629279,28.7943349 36.5881682,28.7517439 36.7981591,28.5415393 C37.6243977,27.7143929 38.2379216,26.6748789 38.5497571,25.5119178 C38.6268215,25.2244887 38.501879,24.9209578 38.2441434,24.7721697 L37.3734179,24.2695425 C37.4067964,23.9236342 37.4067964,23.5763908 37.3734179,23.2304825 Z M35.9329878,24.953642 L37.13117,25.6451382 C36.9514066,26.1306221 36.5367652,26.8475927 36.2055969,27.2455181 L35.0071478,26.5534879 L34.6931273,26.8194236 C34.0815831,27.3276277 33.8607317,27.4267483 32.9244348,27.7573844 L32.9244348,29.1409642 C32.6711319,29.184196 32.2569712,29.2192835 31.9999833,29.2192835 C31.7429954,29.2192835 31.3288347,29.184196 31.0755318,29.1409642 L31.0755318,27.7573844 L30.6901931,27.6189012 C29.9478534,27.3443253 29.7504792,27.2024945 28.9928188,26.5534879 L27.7943697,27.2455181 C27.4632281,26.8475927 27.04856,26.1306221 26.8687967,25.6451382 L28.0669788,24.953642 L27.9854959,24.4949586 C27.8632598,23.7555466 27.8903561,23.5023644 28.0669788,22.546383 L26.8687967,21.8548869 C27.0834606,21.2743943 27.3968182,20.732434 27.7943697,20.2544802 L28.9928188,20.9465104 L29.3068405,20.6805723 C29.9183896,20.1723583 30.139258,20.0732037 31.0755318,19.7426139 L31.0755318,18.3590609 C31.3288347,18.315829 31.7429954,18.2807415 31.9999833,18.2807415 C32.2569712,18.2807415 32.6711319,18.315829 32.9244348,18.3590609 L32.9244348,19.7426406 L33.3097735,19.8811238 C34.0521132,20.1556997 34.2494874,20.2975305 35.0071478,20.9465371 L36.2055969,20.2545069 C36.5367652,20.6524323 36.9514066,21.369403 37.13117,21.8549136 L35.9329878,22.5464097 L36.0144795,23.0051003 C36.1367259,23.7445166 36.1096106,23.9976606 35.9329878,24.953642 Z M31.9999833,21.1250188 C30.5525571,21.1250188 29.3749896,22.3025863 29.3749896,23.7500125 C29.3749896,25.1974387 30.5525571,26.3750063 31.9999833,26.3750063 C33.4474095,26.3750063 34.6249771,25.1974387 34.6249771,23.7500125 C34.6249771,22.3025863 33.4474095,21.1250188 31.9999833,21.1250188 Z M31.9999833,25.0625094 C31.2762569,25.0625094 30.6874864,24.473739 30.6874864,23.7500125 C30.6874864,23.0263128 31.2762569,22.4375156 31.9999833,22.4375156 C32.7237098,22.4375156 33.3124802,23.0263128 33.3124802,23.7500125 C33.3124802,24.473739 32.7237098,25.0625094 31.9999833,25.0625094 Z" id="c" fill="#4A4A4A" fill-rule="nonzero"></path>
            <text id="On-chain" font-family="Roboto-Regular, Roboto" font-size="14" font-weight="normal" fill="#4A4A4A">
                <tspan x="70" y="29">Advanced</tspan>
            </text>
        </g>
        <g id="Group-3" transform="translate(0.000000, 298.000000)">
            <rect id="Rectangle" fill="#D8D8D8" opacity="0" x="0" y="0" width="218" height="48"></rect>
            <path d="M31.9999833,30.5312463 C35.7451602,30.5312463 38.7812171,27.4951894 38.7812171,23.7500125 C38.7812171,20.0048356 35.7451602,16.9687787 31.9999833,16.9687787 C28.2548064,16.9687787 25.2187495,20.0048356 25.2187495,23.7500125 C25.2187495,27.4951894 28.2548064,30.5312463 31.9999833,30.5312463 Z M29.172689,28.4334463 L30.6331462,26.9729891 C31.502857,27.3422891 32.4960148,27.3427164 33.3668204,26.9729891 L34.8272776,28.4334463 C33.0986707,29.4812115 30.9012959,29.4812115 29.172689,28.4334463 Z M34.1874781,23.7500125 C34.1874781,24.9562055 33.2061763,25.9375073 31.9999833,25.9375073 C30.7937904,25.9375073 29.8124885,24.9562055 29.8124885,23.7500125 C29.8124885,22.5438196 30.7937904,21.5625177 31.9999833,21.5625177 C33.2061763,21.5625177 34.1874781,22.5438196 34.1874781,23.7500125 Z M36.6834171,26.5773068 L35.2229599,25.1168496 C35.5922332,24.2471389 35.5926871,23.253981 35.2229599,22.3831754 L36.6834171,20.9227182 C37.7311823,22.6513251 37.7311823,24.8486999 36.6834171,26.5773068 Z M34.8272509,19.0665787 L33.3667937,20.5270359 C32.497083,20.1577626 31.5039251,20.1573087 30.6331462,20.5270359 L29.172689,19.0665787 C30.9012959,18.0188136 33.0986707,18.0188136 34.8272509,19.0665787 Z M27.3165495,20.9227182 L28.7770067,22.3831754 C28.4077067,23.2528862 28.4072795,24.246044 28.7770067,25.1168496 L27.3165495,26.5773068 C26.2687844,24.8486999 26.2687844,22.6513251 27.3165495,20.9227182 Z" id="l" fill="#4A4A4A" fill-rule="nonzero"></path>
            <text id="On-chain" font-family="Roboto-Regular, Roboto" font-size="14" font-weight="normal" fill="#4A4A4A">
                <tspan x="70" y="29">Help</tspan>
            </text>
        </g>
        <text id="On-chain-Copy" font-family="Roboto-Regular, Roboto" font-size="14" font-weight="normal" fill="#474747">
            <tspan x="70" y="229">Lightning</tspan>
        </text>
        <path d="M38.3304388,222.341045 C38.1062152,221.950009 37.6988103,221.714864 37.2476395,221.714864 L34.666385,221.714864 L35.4511541,219.322291 C35.5523311,218.944954 35.4730237,218.54847 35.2351283,218.236741 C34.9945092,217.927763 34.6308436,217.750029 34.2398342,217.750029 L30.6714833,217.750029 C30.0480527,217.750029 29.5148508,218.217596 29.4464916,218.764469 L28.0136718,224.566804 C27.9617082,224.944142 28.0738333,225.32423 28.3226501,225.611339 C28.5714937,225.898447 28.932409,226.062509 29.3124969,226.062509 L31.9949017,226.062509 L31.0406231,230.210552 C30.953118,230.585166 31.0378727,230.973424 31.2757681,231.274205 C31.5136635,231.577736 31.8718551,231.749996 32.2574171,231.749996 C32.6535919,231.749996 33.0260099,231.559877 33.2440663,231.271817 L38.3277151,223.59338 C38.557386,223.202371 38.557386,222.732054 38.3304388,222.341045 Z M32.3777133,230.257041 L33.6437472,224.750013 L29.298825,224.750013 L30.6714833,219.062526 L34.1605268,219.037906 L32.8535041,223.02736 L37.1327907,223.02736 L32.3777133,230.257041 Z" id="b" fill="#4C4C4C" fill-rule="nonzero"></path>
        <text id="Dashboard" font-family="Roboto-Regular, Roboto" font-size="14" font-weight="normal" fill="#4A4A4A">
            <tspan x="70" y="131">Dashboard</tspan>
        </text>
        <path d="M27.4999917,125.62501 C27.0168309,125.62501 26.6249937,126.016848 26.6249937,126.500008 C26.6249937,126.983169 27.0168309,127.375006 27.4999917,127.375006 C27.9831524,127.375006 28.3749896,126.983169 28.3749896,126.500008 C28.3749896,126.016848 27.9831524,125.62501 27.4999917,125.62501 Z M31.7287032,122.970483 L32.1727443,121.638574 C32.2044673,121.544233 32.2597154,121.464952 32.3072731,121.380731 C32.1779514,121.305242 32.0354919,121.250021 31.8749812,121.250021 C31.3918205,121.250021 30.9999833,121.641858 30.9999833,122.125019 C30.9999833,122.55651 31.3179872,122.898573 31.7287032,122.970483 Z M28.8124885,122.562518 C28.3293278,122.562518 27.9374906,122.954355 27.9374906,123.437516 C27.9374906,123.920676 28.3293278,124.312514 28.8124885,124.312514 C29.2956493,124.312514 29.6874864,123.920676 29.6874864,123.437516 C29.6874864,122.954355 29.2956493,122.562518 28.8124885,122.562518 Z M31.8749812,118.625027 C27.5257065,118.625027 24,122.150734 24,126.500008 C24,127.94375 24.3896475,129.296167 25.0680326,130.459369 C25.2214403,130.722418 25.513756,130.874998 25.818355,130.874998 L37.9316074,130.874998 C38.2362064,130.874998 38.5285222,130.722418 38.6819299,130.459369 C39.3603149,129.296167 39.7499624,127.94375 39.7499624,126.500008 C39.7499624,122.150734 36.224256,118.625027 31.8749812,118.625027 Z M37.6792124,129.562501 L26.0707501,129.562501 C25.5738907,128.622695 25.3124969,127.569696 25.3124969,126.500008 C25.3124969,122.881349 28.2563222,119.937524 31.8749812,119.937524 C35.4936402,119.937524 38.4374656,122.881349 38.4374656,126.500008 C38.4374656,127.569696 38.1760717,128.622695 37.6792124,129.562501 Z M35.3749729,126.500008 C35.3749729,126.983169 35.76681,127.375006 36.2499708,127.375006 C36.7331316,127.375006 37.1249687,126.983169 37.1249687,126.500008 C37.1249687,126.016848 36.7331316,125.62501 36.2499708,125.62501 C35.76681,125.62501 35.3749729,126.016848 35.3749729,126.500008 Z M33.8325113,121.502416 C33.4847072,121.386739 33.1171963,121.574033 33.0018134,121.917217 L31.762055,125.636226 C30.849326,125.695559 30.1249854,126.44695 30.1249854,127.375006 C30.1249854,127.695467 30.2174038,127.991601 30.3677941,128.250004 L33.3824354,128.250004 C33.5328256,127.991601 33.6252441,127.695467 33.6252441,127.375006 C33.6252441,126.843166 33.3829961,126.372583 33.0086493,126.051561 L34.2484077,122.332553 C34.3624288,121.988834 34.17623,121.616971 33.8325113,121.502416 Z M35.8124718,123.437516 C35.8124718,123.920676 35.4206347,124.312514 34.9374739,124.312781 C34.7939196,124.312781 34.6643041,124.270136 34.544809,124.20888 L35.0780108,122.609541 L35.0818561,122.591784 L35.0818561,122.591784 C35.4936402,122.662867 35.8124718,123.005491 35.8124718,123.437516 Z" id="t" fill="#4A4A4A" fill-rule="nonzero"></path>
        <g id="Group-18" transform="translate(1020.000000, 118.000000)">
            <g id="Group-20" transform="translate(3.000000, 0.000000)" fill="#84979E">
                <path d="M16.4933994,9.00001192 C16.7918301,9.00001192 17.0371603,9.26218781 16.9952598,9.55781088 C16.7512113,11.2843693 15.9193346,12.8203153 14.7099564,13.9596864 C14.617763,14.0465697 14.4990194,14.0887449 14.3796654,14.0887449 C14.2623561,14.0885313 14.0996673,14.0212097 14.0165376,13.9384462 L9.07810336,9.00001192 L16.4933994,9.00001192 Z M14.3712121,12.8787563 C15.1149542,12.0625046 15.6411981,11.0675119 15.8949511,10.0000095 L11.4924653,10.0000095 L14.3712121,12.8787563 Z M6.99998331,9.00001192 L11.8709129,13.8709415 C12.0849626,14.0849913 12.0687273,14.4484242 11.8218407,14.6234421 C10.6252798,15.472195 9.16999156,15.9796706 7.59498311,15.9993849 C7.56434354,15.9996901 7.53468052,15.9999952 7.50404095,15.9999952 C3.5368568,15.9999952 0.139678622,12.7353241 0.00436400327,8.76157865 C-0.128112488,4.86250958 2.71843834,1.60909937 6.44218435,1.0828555 C6.46437057,1.0797122 6.4865568,1.07815581 6.50810216,1.07815581 C6.77561861,1.07815581 6.99998331,1.3087766 6.99998331,1.58471588 L6.99998331,9.00001192 Z M7.58216576,14.9993873 C8.69529177,14.9856239 9.77030141,14.6900008 10.7252857,14.1393734 L5.99998569,9.41407343 L5.99998569,2.18221812 C3.01030776,2.88283901 0.897489315,5.59846974 1.00375127,8.72752112 C1.1193821,12.1275069 4.09624268,14.9999976 7.50373577,14.9999976 L7.58216576,14.9993873 Z M15.9987106,6.97502285 C16.0183944,7.26002584 15.7784048,7.5000155 15.4927609,7.5000155 L8.49997973,7.5000155 L8.49997973,0.507234318 C8.49997973,0.232851427 8.721842,3.33786011e-05 8.99247124,3.33786011e-05 C9.00309133,3.33786011e-05 9.01404711,0.000338553655 9.02497238,0.00128459632 C12.7580873,0.258791307 15.7412039,3.24190797 15.9987106,6.97502285 Z M9.49997735,6.50001788 L14.9405772,6.50001788 C14.508724,3.71096203 12.2890332,1.4909661 9.49997735,1.05941806 L9.49997735,6.50001788 Z" id="c" fill-rule="nonzero"></path>
                <text id="Check-your-balance." font-family="Roboto-Regular, Roboto" font-size="16" font-weight="normal">
                    <tspan x="25" y="15">Check your balance.</tspan>
                </text>
            </g>
            <g id="Group-11" transform="translate(0.000000, 36.000000)">
                <path d="M5.1277704,0.5 C3.5776195,0.5 2.94057806,0.623018378 2.28210802,0.975172007 C1.71739041,1.27718629 1.27718629,1.71739041 0.975172007,2.28210802 C0.623018378,2.94057806 0.5,3.5776195 0.5,5.1277704 L0.5,268.87223 C0.5,270.42238 0.623018378,271.059422 0.975172007,271.717892 C1.27718629,272.28261 1.71739041,272.722814 2.28210802,273.024828 C2.94057806,273.376982 3.5776195,273.5 5.1277704,273.5 L230.87223,273.5 C232.42238,273.5 233.059422,273.376982 233.717892,273.024828 C234.28261,272.722814 234.722814,272.28261 235.024828,271.717892 C235.376982,271.059422 235.5,270.42238 235.5,268.87223 L235.5,5.1277704 C235.5,3.5776195 235.376982,2.94057806 235.024828,2.28210802 C234.722814,1.71739041 234.28261,1.27718629 233.717892,0.975172007 C233.059422,0.623018378 232.42238,0.5 230.87223,0.5 L5.1277704,0.5 Z" id="Rectangle" stroke="#DEDEDE" fill="#FFFFFF"></path>
                <path d="M0,48.5 L236,48.5" id="Line" stroke="#D7D7D7" stroke-linecap="square"></path>
                <rect id="Rectangle" fill="#5E4EA5" x="1" y="47" width="79" height="2"></rect>
                <rect id="Rectangle" fill="#59316B" opacity="0" x="78" y="47" width="80" height="2"></rect>
                <rect id="Rectangle" fill="#59316B" opacity="0" x="157" y="47" width="79" height="2"></rect>
                <text id="SATS" font-family="Roboto-Medium, Roboto" font-size="14" font-weight="400" fill="#5E4EA5">
                    <tspan x="22.1435547" y="30">SATS</tspan>
                </text>
                <text id="BTC" font-family="Roboto-Regular, Roboto" font-size="14" font-weight="normal" fill="#979797">
                    <tspan x="104.90918" y="30">BTC</tspan>
                </text>
                <text id="GBP" font-family="Roboto-Regular, Roboto" font-size="14" font-weight="normal" fill="#979797">
                    <tspan x="182.958008" y="30">GBP</tspan>
                </text>
                <text id="Total-Balance" font-family="Roboto-Medium, Roboto" font-size="12" font-weight="400" fill="#5E4EA5">
                    <tspan x="24" y="83">Total Balance</tspan>
                </text>
                <text id="413,722" font-family="Roboto-Light, Roboto" font-size="20" font-weight="300" fill="#222831">
                    <tspan x="24" y="109">413,722</tspan>
                </text>
                <text id="Confirmed" font-family="Roboto-Medium, Roboto" font-size="12" font-weight="400" fill="#5E4EA5">
                    <tspan x="24" y="150">Confirmed</tspan>
                </text>
                <text id="413,721" font-family="Roboto-Light, Roboto" font-size="20" font-weight="300" fill="#222831">
                    <tspan x="24" y="176">413,721</tspan>
                </text>
                <text id="Unconfirmed" font-family="Roboto-Medium, Roboto" font-size="12" font-weight="400" fill="#5E4EA5">
                    <tspan x="24" y="219">Unconfirmed</tspan>
                </text>
                <text id="0" font-family="Roboto-Light, Roboto" font-size="20" font-weight="300" fill="#222831">
                    <tspan x="24" y="245">0</tspan>
                </text>
            </g>
        </g>
        <path d="M247.12777,154.5 C245.57762,154.5 244.940578,154.623018 244.282108,154.975172 C243.71739,155.277186 243.277186,155.71739 242.975172,156.282108 C242.623018,156.940578 242.5,157.57762 242.5,159.12777 L242.5,601.87223 C242.5,603.42238 242.623018,604.059422 242.975172,604.717892 C243.277186,605.28261 243.71739,605.722814 244.282108,606.024828 C244.940578,606.376982 245.57762,606.5 247.12777,606.5 L990.87223,606.5 C992.42238,606.5 993.059422,606.376982 993.717892,606.024828 C994.28261,605.722814 994.722814,605.28261 995.024828,604.717892 C995.376982,604.059422 995.5,603.42238 995.5,601.87223 L995.5,159.12777 C995.5,157.57762 995.376982,156.940578 995.024828,156.282108 C994.722814,155.71739 994.28261,155.277186 993.717892,154.975172 C993.059422,154.623018 992.42238,154.5 990.87223,154.5 L247.12777,154.5 Z" id="Rectangle" stroke="#DEDEDE" fill="#FFFFFF"></path>
        <path d="M242.5,202.5 L996,202.5" id="Line" stroke="#D7D7D7" stroke-linecap="square"></path>
        <rect id="Rectangle" fill="#5E4EA5" opacity="0" x="242" y="201" width="160" height="2"></rect>
        <rect id="Rectangle" fill="#59316B" opacity="0" x="402" y="201" width="160" height="2"></rect>
        <rect id="Rectangle" fill="#59316B" opacity="0" x="562" y="201" width="160" height="2"></rect>
        <text id="Send" font-family="Roboto-Regular, Roboto" font-size="14" font-weight="normal" fill="#959595">
            <tspan x="306.328613" y="184">Send</tspan>
        </text>
        <text id="Receive" font-family="Roboto-Regular, Roboto" font-size="14" font-weight="normal" fill="#979797">
            <tspan x="457.811035" y="184">Receive</tspan>
        </text>
        <g id="Group-16" transform="translate(562.000000, 171.000000)" fill="#5E4EA5">
            <rect id="Rectangle" x="0" y="30" width="160" height="2"></rect>
            <text id="Cashout" font-family="Roboto-Medium, Roboto" font-size="14" font-weight="400">
                <tspan x="53.9414062" y="13">Cashout</tspan>
            </text>
        </g>
        <path d="M272.12777,470.5 C270.57762,470.5 269.940578,470.623018 269.282108,470.975172 C268.71739,471.277186 268.277186,471.71739 267.975172,472.282108 C267.623018,472.940578 267.5,473.57762 267.5,475.12777 L267.5,574.87223 C267.5,576.42238 267.623018,577.059422 267.975172,577.717892 C268.277186,578.28261 268.71739,578.722814 269.282108,579.024828 C269.940578,579.376982 270.57762,579.5 272.12777,579.5 L966.87223,579.5 C968.42238,579.5 969.059422,579.376982 969.717892,579.024828 C970.28261,578.722814 970.722814,578.28261 971.024828,577.717892 C971.376982,577.059422 971.5,576.42238 971.5,574.87223 L971.5,475.12777 C971.5,473.57762 971.376982,472.940578 971.024828,472.282108 C970.722814,471.71739 970.28261,471.277186 969.717892,470.975172 C969.059422,470.623018 968.42238,470.5 966.87223,470.5 L272.12777,470.5 Z" id="Rectangle" stroke="#DEDEDE" fill="#FFFFFF"></path>
        <text id="Date/Time" font-family="Roboto-Medium, Roboto" font-size="14" font-weight="400" letter-spacing="0.5" fill="#000000">
            <tspan x="288" y="504">Date/Time</tspan>
        </text>
        <text id="04/SET/2019-08:00" font-family="Roboto-Regular, Roboto" font-size="14" font-weight="normal" letter-spacing="0.200000003" fill="#4F4F4F">
            <tspan x="288" y="554">04/SET/2019 08:00</tspan>
        </text>
        <text id="Confirmations" font-family="Roboto-Medium, Roboto" font-size="14" font-weight="400" letter-spacing="0.5" fill="#000000">
            <tspan x="596" y="504">Confirmations</tspan>
        </text>
        <text id="2,452" font-family="Roboto-Regular, Roboto" font-size="14" font-weight="normal" letter-spacing="0.200000003" fill="#4F4F4F">
            <tspan x="655" y="554">2,452</tspan>
        </text>
        <text id="Amount" font-family="Roboto-Medium, Roboto" font-size="14" font-weight="400" letter-spacing="0.5" fill="#000000">
            <tspan x="479" y="504">Amount</tspan>
        </text>
        <text id="330,000" font-family="Roboto-Regular, Roboto" font-size="14" font-weight="normal" letter-spacing="0.200000003" fill="#4F4F4F">
            <tspan x="480.683984" y="554">330,000</tspan>
        </text>
        <text id="Fees" font-family="Roboto-Medium, Roboto" font-size="14" font-weight="400" letter-spacing="0.5" fill="#000000">
            <tspan x="756" y="504">Fees</tspan>
        </text>
        <text id="3,765" font-family="Roboto-Regular, Roboto" font-size="14" font-weight="normal" letter-spacing="0.200000003" fill="#4F4F4F">
            <tspan x="756" y="554">3,765</tspan>
        </text>
        <text id="Actions" font-family="Roboto-Medium, Roboto" font-size="14" font-weight="400" letter-spacing="0.5" fill="#000000">
            <tspan x="887" y="504">Actions</tspan>
        </text>
        <g id="Group-25" transform="translate(856.000000, 534.000000)">
            <g id="Group-5" fill="#FFFFFF" stroke="#DCDCDC">
                <rect id="Rectangle-Copy-7" x="0.5" y="0.5" width="91" height="35" rx="4"></rect>
            </g>
            <text id="View-Info" font-family="Roboto-Medium, Roboto" font-size="14" font-weight="400" fill="#4F4F4F">
                <tspan x="17.1464844" y="23">View Info</tspan>
            </text>
        </g>
        <path d="M268,526.5 L972.5,526.5" id="Line-2" stroke="#E1E1E1" stroke-linecap="square"></path>
        <g id="Group-17" transform="translate(270.000000, 438.000000)" fill="#84979E">
            <path d="M10.7499744,8.50001431 C10.8874862,8.50001431 10.9999738,8.61250302 10.9999738,8.7500149 L10.9999738,9.25001371 C10.9999738,9.38752559 10.8874862,9.50001431 10.7499744,9.50001431 L3.24999225,9.50001431 C3.11248037,9.50001431 2.99999285,9.38752559 2.99999285,9.25001371 L2.99999285,8.7500149 C2.99999285,8.61250302 3.11248037,8.50001431 3.24999225,8.50001431 L10.7499744,8.50001431 Z M10.7499744,11.5000072 C10.8874862,11.5000072 10.9999738,11.6124959 10.9999738,11.7500077 L10.9999738,12.2500066 C10.9999738,12.3875184 10.8874862,12.5000072 10.7499744,12.5000072 L3.24999225,12.5000072 C3.11248037,12.5000072 2.99999285,12.3875184 2.99999285,12.2500066 L2.99999285,11.7500077 C2.99999285,11.6124959 3.11248037,11.5000072 3.24999225,11.5000072 L10.7499744,11.5000072 Z M13.0655816,1.00003338 C13.5530988,1.00003338 13.9999666,1.39065745 13.996886,1.93441836 L13.996886,16.0687536 C13.996886,16.61874 13.5499555,16.9999952 13.0655816,16.9999952 C12.8812254,16.9999952 12.6937258,16.9437515 12.524964,16.8218646 L11.1655923,15.843748 L9.95935736,16.7124898 C9.69684578,16.9031327 9.39060261,16.9968824 9.08435944,16.9968824 C8.77811628,16.9968824 8.46872981,16.8999894 8.20621823,16.7124898 L6.99998331,15.843748 L5.79374839,16.7124898 C5.53123681,16.9031327 5.22499365,16.9968824 4.91875048,16.9968824 C4.60936401,16.9968824 4.30312084,16.8999894 4.04060926,16.7124898 L2.83437435,15.843748 L1.47500259,16.8218646 C1.303128,16.9437515 1.11562844,16.9999952 0.934384979,16.9999952 C0.446867831,16.9999952 0,16.6093712 0,16.0687536 L0,1.93441836 C0,1.38440136 0.450011134,1.00314616 0.934384979,1.00003338 C1.11874123,1.00003338 1.30624078,1.05627714 1.47500259,1.17816406 L2.83437435,2.15628062 L4.04060926,1.2875388 C4.30312084,1.09689594 4.60936401,1.00314616 4.91560718,1.00314616 C5.22185034,1.00314616 5.53123681,1.10003924 5.79374839,1.2875388 L6.99998331,2.15628062 L8.20621823,1.2875388 C8.46872981,1.09689594 8.77497298,1.00314616 9.08121614,1.00314616 C9.39060261,1.00314616 9.69684578,1.10003924 9.95935736,1.2875388 L11.1655923,2.15628062 L12.524964,1.17816406 C12.6968386,1.05627714 12.8843382,1.00003338 13.0655816,1.00003338 Z M12.999969,15.9312417 L12.999969,2.06878693 L11.749972,2.96877868 L11.1687356,3.39065268 L10.5843559,2.96877868 L9.37809043,2.10314965 C9.29059675,2.04064979 9.19059088,2.00628708 9.08435944,2.00628708 C8.97809749,2.00628708 8.87809163,2.03753701 8.79059794,2.10003686 L7.58436302,2.96877868 L6.99998331,3.39065268 L6.4156036,2.96877868 L5.20936868,2.10314965 C5.121875,2.04064979 5.02186913,2.00628708 4.91560718,2.00628708 C4.81248853,2.00628708 4.71248266,2.03753701 4.62498897,2.10003686 L3.41875406,2.96877868 L2.83437435,3.39065268 L2.24999464,2.96877868 L0.999997616,2.06878693 L0.999997616,15.9500099 L2.24999464,15.0312499 L2.83123104,14.6093759 L3.41561075,15.0312499 L4.62187619,15.896879 C4.70936988,15.9593788 4.80937574,15.9937415 4.91560718,15.9937415 C5.02186913,15.9937415 5.121875,15.9624916 5.20936868,15.8999918 L6.4156036,15.0312499 L6.99998331,14.6093759 L7.58436302,15.0312499 L8.79059794,15.896879 C8.87809163,15.9593788 8.97809749,15.9937415 9.08435944,15.9937415 C9.1874781,15.9937415 9.28748396,15.9624916 9.37497765,15.8999918 L10.5812126,15.0312499 L11.1655923,14.6093759 L11.749972,15.0312499 L12.999969,15.9312417 Z M10.7499744,5.50002146 C10.8874862,5.50002146 10.9999738,5.61251017 10.9999738,5.75002205 L10.9999738,6.25002086 C10.9999738,6.38753274 10.8874862,6.50002146 10.7499744,6.50002146 L3.24999225,6.50002146 C3.11248037,6.50002146 2.99999285,6.38753274 2.99999285,6.25002086 L2.99999285,5.75002205 C2.99999285,5.61251017 3.11248037,5.50002146 3.24999225,5.50002146 L10.7499744,5.50002146 Z" id="r" fill-rule="nonzero"></path>
            <text id="Cashout-History" font-family="Roboto-Regular, Roboto" font-size="16" font-weight="normal">
                <tspan x="21" y="15">Cashout History</tspan>
            </text>
        </g>
        <text id="Number-of-Blocks" font-family="Roboto-Regular, Roboto" font-size="15" font-weight="normal" fill="#444444">
            <tspan x="571" y="333">Number of Blocks</tspan>
        </text>
        <rect id="Rectangle" stroke="#979797" fill="#D8D8D8" x="571.5" y="343.5" width="159" height="1"></rect>
        <text id="413,722" font-family="Roboto-Regular, Roboto" font-size="15" font-weight="normal" fill="#A5A5A5">
            <tspan x="689" y="263">413,722</tspan>
        </text>
        <text id="sats" font-family="Roboto-Regular, Roboto" font-size="15" font-weight="normal" fill="#B3B3B3">
            <tspan x="820.472168" y="263">sats</tspan>
        </text>
        <rect id="Rectangle" stroke="#979797" fill="#D8D8D8" transform="translate(769.000000, 272.500000) scale(1, -1) translate(-769.000000, -272.500000) " x="689.5" y="272.5" width="159" height="1"></rect>
        <text id="Amount" opacity="0" font-family="Roboto-Regular, Roboto" font-size="12" font-weight="normal" fill="#5E4EA5">
            <tspan x="689" y="238">Amount</tspan>
        </text>
        <g id="Group-13" transform="translate(266.000000, 226.000000)">
            <text id="Bitcoin-Address" font-family="Roboto-Regular, Roboto" font-size="15" font-weight="normal" fill="#444444">
                <tspan x="0" y="36">Bitcoin Address</tspan>
            </text>
            <text id="Amount" opacity="0" font-family="Roboto-Regular, Roboto" font-size="12" font-weight="normal" fill="#5E4EA5">
                <tspan x="0" y="11">Amount</tspan>
            </text>
            <g id="Group-7" transform="translate(0.000000, 22.000000)"></g>
        </g>
        <rect id="Rectangle" stroke="#979797" fill="#D8D8D8" x="266.5" y="272.5" width="397" height="1"></rect>
        <g id="Rectangle-Copy-7">
            <use fill="black" fill-opacity="1" filter="url(#filter-6)" xlink:href="#path-5"></use>
            <use fill="#5E4EA5" fill-rule="evenodd" xlink:href="#path-5"></use>
        </g>
        <text id="Send-Funds" font-family="Roboto-Medium, Roboto" font-size="14" font-weight="400" fill="#FFFFFF">
            <tspan x="283.314941" y="391">Send Funds</tspan>
        </text>
        <g id="Group-14" transform="translate(386.000000, 368.000000)">
            <rect id="Rectangle-Copy-7" stroke="#DCDCDC" fill="#FFFFFF" x="0.5" y="0.5" width="104" height="35" rx="4"></rect>
            <text id="Clear-Fields" font-family="Roboto-Medium, Roboto" font-size="14" font-weight="400" fill="#4F4F4F">
                <tspan x="16.1542969" y="23">Clear Fields</tspan>
            </text>
        </g>
        <path d="M274.762429,323.493164 L271.272372,323.493164 L271.272372,333 L269.848011,333 L269.848011,323.493164 L266.365412,323.493164 L266.365412,322.335938 L274.762429,322.335938 L274.762429,323.493164 Z M280.29581,333 C280.216264,332.843749 280.151634,332.565432 280.101918,332.165039 C279.460579,332.819339 278.694962,333.146484 277.805043,333.146484 C277.009584,333.146484 276.357069,332.925539 275.847479,332.483643 C275.337888,332.041746 275.083097,331.481449 275.083097,330.802734 C275.083097,329.977535 275.402518,329.336672 276.041371,328.880127 C276.680223,328.423582 277.578829,328.195312 278.737216,328.195312 L280.079545,328.195312 L280.079545,327.572754 C280.079545,327.099119 279.935371,326.721925 279.647017,326.441162 C279.358663,326.160399 278.933597,326.02002 278.371804,326.02002 C277.879614,326.02002 277.466976,326.142089 277.133878,326.38623 C276.80078,326.630372 276.634233,326.92578 276.634233,327.272461 L275.247159,327.272461 C275.247159,326.876951 275.390091,326.494875 275.675959,326.126221 C275.961827,325.757567 276.349607,325.465821 276.839311,325.250977 C277.329015,325.036132 277.867185,324.928711 278.453835,324.928711 C279.383527,324.928711 280.111858,325.15698 280.638849,325.613525 C281.165841,326.070071 281.439275,326.698726 281.459162,327.499512 L281.459162,331.146973 C281.459162,331.874515 281.553621,332.453123 281.742543,332.882812 L281.742543,333 L280.29581,333 Z M278.006392,331.967285 C278.438923,331.967285 278.849075,331.857423 279.236861,331.637695 C279.624647,331.417968 279.905539,331.132326 280.079545,330.780762 L280.079545,329.154785 L278.998224,329.154785 C277.307875,329.154785 276.462713,329.64062 276.462713,330.612305 C276.462713,331.037111 276.606888,331.369139 276.895241,331.608398 C277.183595,331.847657 277.553975,331.967285 278.006392,331.967285 Z M287.522017,326.291016 C287.313209,326.256836 287.087004,326.239746 286.843395,326.239746 C285.938561,326.239746 285.324575,326.61816 285.00142,327.375 L285.00142,333 L283.621804,333 L283.621804,325.075195 L284.964134,325.075195 L284.986506,325.990723 C285.438923,325.282711 286.080252,324.928711 286.910511,324.928711 C287.178979,324.928711 287.382812,324.96289 287.522017,325.03125 L287.522017,326.291016 Z M288.319957,328.97168 C288.319957,327.736322 288.610793,326.753666 289.192472,326.023682 C289.774151,325.293698 290.54474,324.928711 291.504261,324.928711 C292.488641,324.928711 293.256744,325.270504 293.808594,325.954102 L293.87571,325.075195 L295.136009,325.075195 L295.136009,332.80957 C295.136009,333.834966 294.82653,334.643063 294.207564,335.233887 C293.588598,335.82471 292.757107,336.120117 291.713068,336.120117 C291.131389,336.120117 290.562148,335.998048 290.005327,335.753906 C289.448506,335.509764 289.023439,335.175295 288.730114,334.750488 L289.446023,333.9375 C290.037645,334.655277 290.761004,335.01416 291.616122,335.01416 C292.28729,335.01416 292.810545,334.828615 293.185902,334.45752 C293.561259,334.086424 293.748935,333.563968 293.748935,332.890137 L293.748935,332.208984 C293.197085,332.833987 292.443897,333.146484 291.489347,333.146484 C290.54474,333.146484 289.780365,332.772953 289.1962,332.025879 C288.612035,331.278805 288.319957,330.260749 288.319957,328.97168 Z M289.707031,329.125488 C289.707031,330.019047 289.893464,330.720945 290.266335,331.231201 C290.639206,331.741458 291.161218,331.996582 291.832386,331.996582 C292.702419,331.996582 293.341262,331.608402 293.748935,330.832031 L293.748935,327.213867 C293.326347,326.457027 292.692476,326.078613 291.847301,326.078613 C291.176133,326.078613 290.651635,326.334958 290.273793,326.847656 C289.89595,327.360354 289.707031,328.119624 289.707031,329.125488 Z M300.564986,333.146484 C299.47123,333.146484 298.581324,332.793705 297.895241,332.088135 C297.209159,331.382565 296.866122,330.438971 296.866122,329.257324 L296.866122,329.008301 C296.866122,328.222164 297.018997,327.520267 297.324751,326.902588 C297.630506,326.284909 298.058058,325.801515 298.607422,325.452393 C299.156785,325.10327 299.752127,324.928711 300.393466,324.928711 C301.442477,324.928711 302.25781,325.268063 302.839489,325.946777 C303.421168,326.625492 303.712003,327.597162 303.712003,328.861816 L303.712003,329.425781 L298.245739,329.425781 C298.265625,330.207035 298.498045,330.838132 298.943004,331.319092 C299.387964,331.800051 299.953477,332.040527 300.63956,332.040527 C301.126778,332.040527 301.539416,331.942872 301.877486,331.747559 C302.215556,331.552245 302.511362,331.293459 302.764915,330.971191 L303.607599,331.615723 C302.93146,332.636236 301.917265,333.146484 300.564986,333.146484 Z M300.393466,326.041992 C299.836645,326.041992 299.36932,326.240965 298.991477,326.638916 C298.613634,327.036867 298.379972,327.594723 298.290483,328.3125 L302.332386,328.3125 L302.332386,328.209961 C302.292613,327.521481 302.103695,326.988039 301.765625,326.609619 C301.427555,326.231199 300.970173,326.041992 300.393466,326.041992 Z M307.179687,323.15625 L307.179687,325.075195 L308.68608,325.075195 L308.68608,326.122559 L307.179687,326.122559 L307.179687,331.037109 C307.179687,331.354494 307.246803,331.592529 307.381037,331.751221 C307.515271,331.909913 307.743961,331.989258 308.067116,331.989258 C308.226208,331.989258 308.444956,331.959961 308.723366,331.901367 L308.723366,333 C308.360439,333.097657 308.007459,333.146484 307.664418,333.146484 C307.047937,333.146484 306.583098,332.963381 306.269886,332.597168 C305.956675,332.230955 305.800071,331.710941 305.800071,331.037109 L305.800071,326.122559 L304.330966,326.122559 L304.330966,325.075195 L305.800071,325.075195 L305.800071,323.15625 L307.179687,323.15625 Z M322.280895,329.616211 C322.146661,330.744146 321.722837,331.614499 321.009411,332.227295 C320.295984,332.840091 319.347662,333.146484 318.164418,333.146484 C316.881741,333.146484 315.853875,332.694829 315.080788,331.791504 C314.307702,330.888179 313.921165,329.679695 313.921165,328.166016 L313.921165,327.140625 C313.921165,326.149409 314.101383,325.277836 314.461825,324.525879 C314.822267,323.773922 315.333093,323.196535 315.994318,322.793701 C316.655543,322.390867 317.421165,322.189453 318.291193,322.189453 C319.444608,322.189453 320.369315,322.505612 321.065341,323.137939 C321.761367,323.770267 322.166548,324.645502 322.280895,325.763672 L320.841619,325.763672 C320.717329,324.914058 320.447623,324.29883 320.032493,323.917969 C319.617363,323.537107 319.036936,323.34668 318.291193,323.34668 C317.376416,323.34668 316.659271,323.678708 316.139737,324.342773 C315.620203,325.006839 315.36044,325.951654 315.36044,327.177246 L315.36044,328.209961 C315.36044,329.367193 315.606532,330.287594 316.098722,330.971191 C316.590912,331.654789 317.27947,331.996582 318.164418,331.996582 C318.959876,331.996582 319.570133,331.819582 319.995206,331.465576 C320.420279,331.11157 320.702414,330.495122 320.841619,329.616211 L322.280895,329.616211 Z M323.653054,328.964355 C323.653054,328.187984 323.808415,327.489749 324.119141,326.869629 C324.429867,326.249509 324.862391,325.770998 325.416726,325.434082 C325.971061,325.097166 326.60369,324.928711 327.314631,324.928711 C328.413358,324.928711 329.302021,325.302242 329.980646,326.049316 C330.659272,326.79639 330.99858,327.790033 330.99858,329.030273 L330.99858,329.125488 C330.99858,329.896977 330.84819,330.589108 330.547408,331.201904 C330.246625,331.8147 329.816587,332.29199 329.25728,332.633789 C328.697973,332.975588 328.055401,333.146484 327.329545,333.146484 C326.23579,333.146484 325.349613,332.772953 324.670987,332.025879 C323.992362,331.278805 323.653054,330.290045 323.653054,329.05957 L323.653054,328.964355 Z M325.040128,329.125488 C325.040128,330.004399 325.24769,330.709958 325.66282,331.242188 C326.07795,331.774417 326.633519,332.040527 327.329545,332.040527 C328.030543,332.040527 328.587356,331.770755 329,331.231201 C329.412644,330.691648 329.618963,329.93604 329.618963,328.964355 C329.618963,328.09521 329.408915,327.390872 328.988814,326.851318 C328.568712,326.311765 328.010657,326.041992 327.314631,326.041992 C326.633519,326.041992 326.084164,326.308103 325.666548,326.840332 C325.248933,327.372561 325.040128,328.134272 325.040128,329.125488 Z M334.033736,325.075195 L334.07848,326.071289 C334.69496,325.309567 335.50035,324.928711 336.494673,324.928711 C338.199938,324.928711 339.060014,325.873526 339.074929,327.763184 L339.074929,333 L337.695312,333 L337.695312,327.755859 C337.690341,327.184567 337.557352,326.762208 337.296342,326.48877 C337.035333,326.215331 336.628909,326.078613 336.07706,326.078613 C335.629614,326.078613 335.236862,326.1958 334.898793,326.430176 C334.560723,326.664552 334.297231,326.972166 334.10831,327.353027 L334.10831,333 L332.728693,333 L332.728693,325.075195 L334.033736,325.075195 Z M341.617898,333 L341.617898,326.122559 L340.342685,326.122559 L340.342685,325.075195 L341.617898,325.075195 L341.617898,324.401367 C341.617898,323.517574 341.875175,322.829104 342.389737,322.335938 C342.904299,321.842771 343.631387,321.596191 344.571023,321.596191 C345.127844,321.596191 345.831317,321.745116 346.681463,322.042969 L346.450284,323.185547 C345.828832,322.941405 345.237219,322.819336 344.675426,322.819336 C344.083804,322.819336 343.657494,322.94995 343.396484,323.211182 C343.135475,323.472413 343.004972,323.864255 343.004972,324.386719 L343.004972,325.075195 L344.653054,325.075195 L344.653054,326.122559 L343.004972,326.122559 L343.004972,333 L341.617898,333 Z M347.367543,333 L345.980469,333 L345.980469,325.075195 L347.367543,325.075195 L347.367543,333 Z M353.512429,326.291016 C353.303621,326.256836 353.077416,326.239746 352.833807,326.239746 C351.928973,326.239746 351.314987,326.61816 350.991832,327.375 L350.991832,333 L349.612216,333 L349.612216,325.075195 L350.954545,325.075195 L350.976918,325.990723 C351.429335,325.282711 352.070663,324.928711 352.900923,324.928711 C353.169391,324.928711 353.373224,324.96289 353.512429,325.03125 L353.512429,326.291016 Z M356.07777,325.075195 L356.115057,325.954102 C356.706679,325.270504 357.504611,324.928711 358.508878,324.928711 C359.637435,324.928711 360.405538,325.353511 360.81321,326.203125 C361.081677,325.822264 361.430928,325.51465 361.860973,325.280273 C362.291018,325.045897 362.799358,324.928711 363.386009,324.928711 C365.155904,324.928711 366.055753,325.849112 366.085582,327.689941 L366.085582,333 L364.705966,333 L364.705966,327.770508 C364.705966,327.204099 364.57422,326.780519 364.310724,326.499756 C364.047229,326.218993 363.604762,326.078613 362.98331,326.078613 C362.471233,326.078613 362.046166,326.228758 361.708097,326.529053 C361.370027,326.829347 361.173651,327.233396 361.118963,327.741211 L361.118963,333 L359.731889,333 L359.731889,327.807129 C359.731889,326.654779 359.157676,326.078613 358.009233,326.078613 C357.104399,326.078613 356.485442,326.457027 356.152344,327.213867 L356.152344,333 L354.772727,333 L354.772727,325.075195 L356.07777,325.075195 Z M373.147727,333 C373.068181,332.843749 373.003551,332.565432 372.953835,332.165039 C372.312497,332.819339 371.546879,333.146484 370.65696,333.146484 C369.861502,333.146484 369.208987,332.925539 368.699396,332.483643 C368.189806,332.041746 367.935014,331.481449 367.935014,330.802734 C367.935014,329.977535 368.254436,329.336672 368.893288,328.880127 C369.532141,328.423582 370.430747,328.195312 371.589134,328.195312 L372.931463,328.195312 L372.931463,327.572754 C372.931463,327.099119 372.787288,326.721925 372.498935,326.441162 C372.210581,326.160399 371.785514,326.02002 371.223722,326.02002 C370.731532,326.02002 370.318894,326.142089 369.985795,326.38623 C369.652697,326.630372 369.486151,326.92578 369.486151,327.272461 L368.099077,327.272461 C368.099077,326.876951 368.242009,326.494875 368.527876,326.126221 C368.813744,325.757567 369.201525,325.465821 369.691229,325.250977 C370.180933,325.036132 370.719102,324.928711 371.305753,324.928711 C372.235445,324.928711 372.963776,325.15698 373.490767,325.613525 C374.017758,326.070071 374.291193,326.698726 374.31108,327.499512 L374.31108,331.146973 C374.31108,331.874515 374.405539,332.453123 374.59446,332.882812 L374.59446,333 L373.147727,333 Z M370.85831,331.967285 C371.29084,331.967285 371.700992,331.857423 372.088778,331.637695 C372.476564,331.417968 372.757457,331.132326 372.931463,330.780762 L372.931463,329.154785 L371.850142,329.154785 C370.159793,329.154785 369.314631,329.64062 369.314631,330.612305 C369.314631,331.037111 369.458805,331.369139 369.747159,331.608398 C370.035513,331.847657 370.405893,331.967285 370.85831,331.967285 Z M378.345526,323.15625 L378.345526,325.075195 L379.851918,325.075195 L379.851918,326.122559 L378.345526,326.122559 L378.345526,331.037109 C378.345526,331.354494 378.412641,331.592529 378.546875,331.751221 C378.681109,331.909913 378.9098,331.989258 379.232955,331.989258 C379.392046,331.989258 379.610794,331.959961 379.889205,331.901367 L379.889205,333 C379.526277,333.097657 379.173297,333.146484 378.830256,333.146484 C378.213775,333.146484 377.748936,332.963381 377.435724,332.597168 C377.122513,332.230955 376.965909,331.710941 376.965909,331.037109 L376.965909,326.122559 L375.496804,326.122559 L375.496804,325.075195 L376.965909,325.075195 L376.965909,323.15625 L378.345526,323.15625 Z M382.961648,333 L381.582031,333 L381.582031,325.075195 L382.961648,325.075195 L382.961648,333 Z M381.47017,322.973145 C381.47017,322.753417 381.538529,322.567872 381.675249,322.416504 C381.811968,322.265136 382.014558,322.189453 382.283026,322.189453 C382.551493,322.189453 382.755326,322.265136 382.894531,322.416504 C383.033736,322.567872 383.103338,322.753417 383.103338,322.973145 C383.103338,323.192872 383.033736,323.375976 382.894531,323.522461 C382.755326,323.668946 382.551493,323.742188 382.283026,323.742188 C382.014558,323.742188 381.811968,323.668946 381.675249,323.522461 C381.538529,323.375976 381.47017,323.192872 381.47017,322.973145 Z M384.803622,328.964355 C384.803622,328.187984 384.958983,327.489749 385.269709,326.869629 C385.580435,326.249509 386.012959,325.770998 386.567294,325.434082 C387.121629,325.097166 387.754258,324.928711 388.465199,324.928711 C389.563926,324.928711 390.452589,325.302242 391.131214,326.049316 C391.80984,326.79639 392.149148,327.790033 392.149148,329.030273 L392.149148,329.125488 C392.149148,329.896977 391.998759,330.589108 391.697976,331.201904 C391.397193,331.8147 390.967155,332.29199 390.407848,332.633789 C389.848541,332.975588 389.20597,333.146484 388.480114,333.146484 C387.386358,333.146484 386.500181,332.772953 385.821555,332.025879 C385.14293,331.278805 384.803622,330.290045 384.803622,329.05957 L384.803622,328.964355 Z M386.190696,329.125488 C386.190696,330.004399 386.398258,330.709958 386.813388,331.242188 C387.228518,331.774417 387.784087,332.040527 388.480114,332.040527 C389.181111,332.040527 389.737924,331.770755 390.150568,331.231201 C390.563212,330.691648 390.769531,329.93604 390.769531,328.964355 C390.769531,328.09521 390.559484,327.390872 390.139382,326.851318 C389.719281,326.311765 389.161225,326.041992 388.465199,326.041992 C387.784088,326.041992 387.234732,326.308103 386.817116,326.840332 C386.399501,327.372561 386.190696,328.134272 386.190696,329.125488 Z M395.184304,325.075195 L395.229048,326.071289 C395.845529,325.309567 396.650918,324.928711 397.645241,324.928711 C399.350506,324.928711 400.210582,325.873526 400.225497,327.763184 L400.225497,333 L398.845881,333 L398.845881,327.755859 C398.840909,327.184567 398.70792,326.762208 398.446911,326.48877 C398.185901,326.215331 397.779477,326.078613 397.227628,326.078613 C396.780182,326.078613 396.387431,326.1958 396.049361,326.430176 C395.711291,326.664552 395.447799,326.972166 395.258878,327.353027 L395.258878,333 L393.879261,333 L393.879261,325.075195 L395.184304,325.075195 Z M406.303267,333 L406.303267,322.335938 L409.852983,322.335938 C411.031256,322.335938 411.917433,322.575193 412.511541,323.053711 C413.105649,323.532229 413.402699,324.24023 413.402699,325.177734 C413.402699,325.675784 413.258524,326.116453 412.97017,326.499756 C412.681817,326.883059 412.289065,327.179686 411.791903,327.389648 C412.378554,327.550782 412.84215,327.857175 413.182706,328.308838 C413.523262,328.7605 413.693537,329.298825 413.693537,329.923828 C413.693537,330.880864 413.377844,331.63281 412.746449,332.179688 C412.115054,332.726565 411.222662,333 410.069247,333 L406.303267,333 Z M407.735085,328.012207 L407.735085,331.850098 L410.099077,331.850098 C410.765273,331.850098 411.291014,331.680422 411.676314,331.341064 C412.061614,331.001707 412.254261,330.534183 412.254261,329.938477 C412.254261,328.65429 411.543331,328.012207 410.121449,328.012207 L407.735085,328.012207 Z M407.735085,326.884277 L409.897727,326.884277 C410.524151,326.884277 411.025034,326.73047 411.400391,326.422852 C411.775748,326.115233 411.963423,325.697757 411.963423,325.17041 C411.963423,324.58447 411.789419,324.158449 411.441406,323.892334 C411.093393,323.626219 410.563924,323.493164 409.852983,323.493164 L407.735085,323.493164 L407.735085,326.884277 Z M417.094105,333 L415.714489,333 L415.714489,321.75 L417.094105,321.75 L417.094105,333 Z M418.93608,328.964355 C418.93608,328.187984 419.09144,327.489749 419.402166,326.869629 C419.712892,326.249509 420.145416,325.770998 420.699751,325.434082 C421.254087,325.097166 421.886715,324.928711 422.597656,324.928711 C423.696383,324.928711 424.585046,325.302242 425.263672,326.049316 C425.942297,326.79639 426.281605,327.790033 426.281605,329.030273 L426.281605,329.125488 C426.281605,329.896977 426.131216,330.589108 425.830433,331.201904 C425.52965,331.8147 425.099612,332.29199 424.540305,332.633789 C423.980999,332.975588 423.338427,333.146484 422.612571,333.146484 C421.518816,333.146484 420.632638,332.772953 419.954013,332.025879 C419.275387,331.278805 418.93608,330.290045 418.93608,329.05957 L418.93608,328.964355 Z M420.323153,329.125488 C420.323153,330.004399 420.530715,330.709958 420.945845,331.242188 C421.360975,331.774417 421.916545,332.040527 422.612571,332.040527 C423.313569,332.040527 423.870381,331.770755 424.283026,331.231201 C424.69567,330.691648 424.901989,329.93604 424.901989,328.964355 C424.901989,328.09521 424.691941,327.390872 424.271839,326.851318 C423.851738,326.311765 423.293682,326.041992 422.597656,326.041992 C421.916545,326.041992 421.36719,326.308103 420.949574,326.840332 C420.531958,327.372561 420.323153,328.134272 420.323153,329.125488 Z M431.248224,332.040527 C431.740414,332.040527 432.170453,331.894044 432.538352,331.601074 C432.906252,331.308104 433.110085,330.941897 433.149858,330.502441 L434.454901,330.502441 C434.430042,330.956545 434.270953,331.38867 433.977628,331.798828 C433.684303,332.208986 433.292794,332.536132 432.803089,332.780273 C432.313385,333.024415 431.795102,333.146484 431.248224,333.146484 C430.149497,333.146484 429.275749,332.786381 428.626953,332.066162 C427.978157,331.345944 427.653764,330.360846 427.653764,329.11084 L427.653764,328.883789 C427.653764,328.112301 427.797939,327.426273 428.086293,326.825684 C428.374646,326.225095 428.788527,325.758791 429.327947,325.426758 C429.867368,325.094725 430.504968,324.928711 431.240767,324.928711 C432.145601,324.928711 432.897547,325.194822 433.496626,325.727051 C434.095706,326.25928 434.415128,326.950191 434.454901,327.799805 L433.149858,327.799805 C433.110085,327.287107 432.912466,326.865968 432.556996,326.536377 C432.201525,326.206785 431.762787,326.041992 431.240767,326.041992 C430.539769,326.041992 429.996628,326.289792 429.611328,326.7854 C429.226028,327.281008 429.033381,327.997554 429.033381,328.935059 L429.033381,329.191406 C429.033381,330.104497 429.224785,330.807615 429.607599,331.300781 C429.990414,331.793948 430.537283,332.040527 431.248224,332.040527 Z M438.258168,329.330566 L437.393111,330.216797 L437.393111,333 L436.013494,333 L436.013494,321.75 L437.393111,321.75 L437.393111,328.554199 L438.131392,327.682617 L440.644531,325.075195 L442.322443,325.075195 L439.182884,328.385742 L442.687855,333 L441.069602,333 L438.258168,329.330566 Z M448.444957,330.897949 C448.444957,330.531736 448.304511,330.247315 448.023615,330.044678 C447.742719,329.84204 447.253022,329.667481 446.55451,329.520996 C445.855998,329.374511 445.301671,329.198731 444.891513,328.993652 C444.481354,328.788573 444.17809,328.544435 443.981712,328.26123 C443.785333,327.978026 443.687145,327.641115 443.687145,327.250488 C443.687145,326.601071 443.966794,326.05176 444.526101,325.602539 C445.085408,325.153318 445.800067,324.928711 446.670099,324.928711 C447.584877,324.928711 448.326879,325.160642 448.896129,325.624512 C449.465379,326.088381 449.75,326.681637 449.75,327.404297 L448.362926,327.404297 C448.362926,327.033201 448.202594,326.71338 447.881925,326.444824 C447.561255,326.176268 447.157318,326.041992 446.670099,326.041992 C446.167966,326.041992 445.775214,326.149413 445.491832,326.364258 C445.20845,326.579103 445.066761,326.859862 445.066761,327.206543 C445.066761,327.533693 445.198507,327.780273 445.462003,327.946289 C445.725498,328.112306 446.201524,328.270995 446.890092,328.422363 C447.578661,328.573731 448.136717,328.754393 448.564276,328.964355 C448.991835,329.174317 449.30877,329.427 449.515092,329.722412 C449.721414,330.017824 449.824574,330.377928 449.824574,330.802734 C449.824574,331.510746 449.536224,332.078367 448.959517,332.505615 C448.38281,332.932863 447.634593,333.146484 446.714844,333.146484 C446.068534,333.146484 445.496806,333.034181 444.999645,332.80957 C444.502483,332.58496 444.11346,332.271242 443.832564,331.868408 C443.551668,331.465574 443.411222,331.029787 443.411222,330.561035 L444.790838,330.561035 C444.815696,331.015139 445.000886,331.375243 445.346413,331.641357 C445.691941,331.907472 446.14808,332.040527 446.714844,332.040527 C447.236863,332.040527 447.655716,331.936769 447.971413,331.729248 C448.287111,331.521727 448.444957,331.244631 448.444957,330.897949 Z" id="TargetConfrmationBlocks" fill="#444444" fill-rule="nonzero"></path>
        <rect id="Rectangle" stroke="#979797" fill="#D8D8D8" x="266.5" y="343.5" width="279" height="1"></rect>
        <path d="M527.650446,327.000019 L535.837238,327.000019 C536.403626,327.000019 536.686788,327.671892 536.285892,328.065629 L532.194065,332.087501 C531.94589,332.331244 531.541794,332.331244 531.293619,332.087501 L527.201823,328.065629 C526.800896,327.671892 527.08409,327.000019 527.650446,327.000019 Z" id="c" fill="#5F5F5F" fill-rule="nonzero"></path>
        <text id="Amount" opacity="0" font-family="Roboto-Regular, Roboto" font-size="12" font-weight="normal" fill="#5E4EA5">
            <tspan x="266" y="308">Amount</tspan>
        </text>
        <text id="sats" font-family="Roboto-Regular, Roboto" font-size="15" font-weight="normal" fill="#444444">
            <tspan x="874" y="262">sats</tspan>
        </text>
        <rect id="Rectangle" stroke="#979797" fill="#D8D8D8" x="874.5" y="272.5" width="97" height="1"></rect>
        <path d="M955.625146,256.000019 L963.665746,256.000019 C964.222019,256.000019 964.500125,256.671892 964.106388,257.065629 L960.08763,261.087501 C959.843886,261.331244 959.447006,261.331244 959.203263,261.087501 L955.184535,257.065629 C954.790767,256.671892 955.068904,256.000019 955.625146,256.000019 Z" id="c" fill="#5F5F5F" fill-rule="nonzero"></path>
        <g id="Group-8" transform="translate(267.000000, 368.000000)"></g>
        <g id="Group-11" transform="translate(266.000000, 297.000000)">
            <g id="Group-9" transform="translate(0.000000, 24.000000)"></g>
        </g>
        <text id="sats" font-family="Roboto-Regular, Roboto" font-size="15" font-weight="normal" fill="#444444">
            <tspan x="874" y="262">sats</tspan>
        </text>
        <text id="Amount" font-family="Roboto-Regular, Roboto" font-size="12" font-weight="normal" fill="#5E4EA5">
            <tspan x="688" y="237">Amount </tspan>
        </text>
        <text id="Sending-all-your-fun" font-family="Roboto-Regular, Roboto" font-size="12" font-weight="normal" fill="#828282">
            <tspan x="688" y="291">Sending all your funds</tspan>
        </text>
    </g>
</svg>