<?xml version="1.0" encoding="UTF-8"?>
<svg width="1284px" height="1030px" viewBox="0 0 1284 1030" version="1.1" xmlns="http://www.w3.org/2000/svg" xmlns:xlink="http://www.w3.org/1999/xlink">
    <!-- Generator: Sketch 59 (86127) - https://sketch.com -->
    <title>onchain_nav02_01_4_sweep</title>
    <desc>Created with Sketch.</desc>
    <defs>
        <rect id="path-1" x="0" y="91" width="218" height="938"></rect>
        <filter x="-6.7%" y="-1.3%" width="113.3%" height="103.1%" filterUnits="objectBoundingBox" id="filter-2">
            <feOffset dx="0" dy="2" in="SourceAlpha" result="shadowOffsetOuter1"></feOffset>
            <feGaussianBlur stdDeviation="4.5" in="shadowOffsetOuter1" result="shadowBlurOuter1"></feGaussianBlur>
            <feColorMatrix values="0 0 0 0 0.508718297   0 0 0 0 0.508320861   0 0 0 0 0.508320861  0 0 0 0.5 0" type="matrix" in="shadowBlurOuter1"></feColorMatrix>
        </filter>
        <rect id="path-3" x="0" y="38" width="1284" height="53"></rect>
        <filter x="-0.8%" y="-15.1%" width="101.6%" height="137.7%" filterUnits="objectBoundingBox" id="filter-4">
            <feOffset dx="0" dy="2" in="SourceAlpha" result="shadowOffsetOuter1"></feOffset>
            <feGaussianBlur stdDeviation="3" in="shadowOffsetOuter1" result="shadowBlurOuter1"></feGaussianBlur>
            <feColorMatrix values="0 0 0 0 0   0 0 0 0 0   0 0 0 0 0  0 0 0 0.5 0" type="matrix" in="shadowBlurOuter1"></feColorMatrix>
        </filter>
        <rect id="path-5" x="270" y="570" width="135" height="36" rx="4"></rect>
        <filter x="-3.0%" y="-5.6%" width="105.9%" height="122.2%" filterUnits="objectBoundingBox" id="filter-6">
            <feOffset dx="0" dy="2" in="SourceAlpha" result="shadowOffsetOuter1"></feOffset>
            <feGaussianBlur stdDeviation="1" in="shadowOffsetOuter1" result="shadowBlurOuter1"></feGaussianBlur>
            <feColorMatrix values="0 0 0 0 0   0 0 0 0 0   0 0 0 0 0  0 0 0 0.257457386 0" type="matrix" in="shadowBlurOuter1"></feColorMatrix>
        </filter>
    </defs>
    <g id="onchain_nav02_01_4_sweep" stroke="none" stroke-width="1" fill="none" fill-rule="evenodd">
        <rect fill="#1D1E1F" x="0" y="0" width="1284" height="1030"></rect>
        <rect id="Background" fill="#F2F5F6" x="0" y="38" width="1284" height="991"></rect>
        <g id="Rectangle">
            <use fill="black" fill-opacity="1" filter="url(#filter-2)" xlink:href="#path-1"></use>
            <use fill="#FFFFFF" fill-rule="evenodd" xlink:href="#path-1"></use>
        </g>
        <g id="Group-30" transform="translate(0.000000, 421.000000)">
            <g id="Group-3">
                <rect id="Rectangle" fill="#D8D8D8" opacity="0" x="0" y="0" width="218" height="48"></rect>
                <text id="On-chain" font-family="Roboto-Regular, Roboto" font-size="14" font-weight="normal" fill="#4A4A4A">
                    <tspan x="70" y="29">Public Key</tspan>
                </text>
            </g>
            <text id="eye" font-family="FontAwesome5Pro-Solid, Font Awesome 5 Pro" font-size="14" font-weight="700" fill="#858585">
                <tspan x="24" y="27">eye</tspan>
            </text>
        </g>
        <g id="Rectangle-13">
            <use fill="black" fill-opacity="1" filter="url(#filter-4)" xlink:href="#path-3"></use>
            <use fill="#5E4EA5" fill-rule="evenodd" xlink:href="#path-3"></use>
        </g>
        <g id="Browser">
            <path d="M0,6.00024414 C0,2.68640081 2.6794487,0 5.99234946,0 L1278.00765,0 C1281.31713,0 1284,2.68722626 1284,6.00024414 L1284,38 L0,38 L0,6.00024414 Z" id="Tab-BG---Right" fill="#363738"></path>
            <circle id="Dot---Red" fill="#FF5F57" cx="18" cy="19" r="6"></circle>
            <circle id="Dot---Orange" fill="#FFBF2F" cx="38" cy="19" r="6"></circle>
            <circle id="Dot---Green" fill="#28CA42" cx="58" cy="19" r="6"></circle>
            <g id="Back" transform="translate(76.000000, 7.000000)">
                <rect id="Rectangle" fill="#656668" x="0" y="0" width="28" height="24" rx="4"></rect>
                <path d="M10.1607883,11.3246277 L15.780455,5.65901618 C15.9603839,5.47908726 16.2513057,5.47908726 16.4312347,5.65901618 L17.1891941,6.41697565 C17.3691231,6.59690457 17.3691231,6.88782642 17.1891941,7.06775535 L12.6528768,11.6500175 L17.1891941,16.2322797 C17.3691231,16.4122086 17.3691231,16.7031305 17.1891941,16.8830594 L16.4312347,17.6410189 C16.2513057,17.8209478 15.9603839,17.8209478 15.780455,17.6410189 L10.1607883,11.9754074 C9.98085942,11.7954785 9.98085942,11.5045566 10.1607883,11.3246277 Z" id="a" fill="#FFFFFF" fill-rule="nonzero"></path>
            </g>
            <g id="Forward" transform="translate(105.000000, 7.000000)">
                <rect id="Rectangle" fill="#656668" x="0" y="0" width="28" height="24" rx="4"></rect>
                <path d="M18.1891941,11.9754074 L12.5695275,17.6410189 C12.3895986,17.8209478 12.0986767,17.8209478 11.9187478,17.6410189 L11.1607883,16.8830594 C10.9808594,16.7031305 10.9808594,16.4122086 11.1607883,16.2322797 L15.6971057,11.6500175 L11.1607883,7.06775535 C10.9808594,6.88782642 10.9808594,6.59690457 11.1607883,6.41697565 L11.9187478,5.65901618 C12.0986767,5.47908726 12.3895986,5.47908726 12.5695275,5.65901618 L18.1891941,11.3246277 C18.3691231,11.5045566 18.3691231,11.7954785 18.1891941,11.9754074 Z" id="a" fill="#FFFFFF" fill-rule="nonzero" opacity="0.200334821"></path>
            </g>
            <g id="New-Tab" transform="translate(1260.000000, 14.000000)">
                <rect id="Rectangle" fill="#292A2B" x="0" y="0" width="24" height="24"></rect>
                <path d="M16.2531029,11.6843877 C16.3618742,11.6843877 16.4499775,11.7724909 16.4499775,11.8812622 L16.4499775,12.6687603 C16.4499775,12.7775316 16.3618742,12.8656349 16.2531029,12.8656349 L12.3156123,12.8656349 L12.3156123,16.8031255 C12.3156123,16.9118967 12.2275091,17 12.1187378,17 L11.3312397,17 C11.2224684,17 11.1343651,16.9118967 11.1343651,16.8031255 L11.1343651,12.8656349 L7.19687453,12.8656349 C7.08810328,12.8656349 7,12.7775316 7,12.6687603 L7,11.8812622 C7,11.7724909 7.08810328,11.6843877 7.19687453,11.6843877 L11.1343651,11.6843877 L11.1343651,7.74689706 C11.1343651,7.63812581 11.2224684,7.55002253 11.3312397,7.55002253 L12.1187378,7.55002253 C12.2275091,7.55002253 12.3156123,7.63812581 12.3156123,7.74689706 L12.3156123,11.6843877 L16.2531029,11.6843877 Z" id="p" fill="#FFFFFF" fill-rule="nonzero" opacity="0.497907366"></path>
            </g>
            <g id="URL" transform="translate(378.000000, 7.000000)">
                <path d="M0,3.99005301 C0,1.78640758 1.78094395,5.31029755e-14 3.99753941,5.28693238e-14 L516.002461,-1.1012102e-15 C518.210241,-1.33393271e-15 520,1.78429328 520,3.99005301 L520,20.009947 C520,22.2135924 518.219056,24 516.002461,24 L3.99753941,24 C1.78975936,24 0,22.2157067 0,20.009947 L0,3.99005301 Z" id="URL-Bar" fill="#696A6B"></path>
                <path d="M512.304658,5.17186422 C512.467743,5.17186422 512.59997,5.30412783 512.59997,5.46721261 L512.59997,10.1922013 C512.59997,10.3552861 512.467743,10.4875131 512.304658,10.4875131 L507.579669,10.4875131 C507.416585,10.4875131 507.284358,10.3552861 507.284358,10.1922013 L507.284358,9.51027815 C507.284358,9.34440559 507.42091,9.21109712 507.586711,9.21503845 L510.69705,9.2890827 C509.940722,7.61516854 508.257531,6.45158527 506.299985,6.45158527 C503.633864,6.45158527 501.476559,8.60927437 501.476559,11.2750113 C501.476559,13.9411327 503.634248,16.0984373 506.299985,16.0984373 C507.533046,16.0984373 508.65724,15.6369165 509.509554,14.8770557 C509.6264,14.7728747 509.804938,14.7799403 509.915632,14.8906341 L510.401377,15.3763797 C510.521276,15.4962781 510.51534,15.6917347 510.389505,15.8053845 C509.307296,16.7829079 507.873155,17.3781217 506.299985,17.3781217 C502.93257,17.3781217 500.202138,14.6509336 500.19686,11.2847685 C500.191635,7.92836054 502.924087,5.18242707 506.280471,5.17186422 C508.411171,5.16526784 510.288545,6.2506252 511.385221,7.89993005 L511.327471,5.47425415 C511.32353,5.30842965 511.456862,5.17186422 511.622711,5.17186422 L512.304658,5.17186422 Z" id="r" fill="#FFFFFF" fill-rule="nonzero" transform="translate(506.398415, 11.274993) rotate(-45.000000) translate(-506.398415, -11.274993) "></path>
                <text id="Ride-the-Lightning" font-family="Roboto-Regular, Roboto" font-size="12.6" font-weight="normal" fill="#FFFFFF">
                    <tspan x="210" y="17">Ride the Lightning</tspan>
                </text>
            </g>
        </g>
        <text id="Dashboard" font-family="FontAwesome5Pro-Regular, Font Awesome 5 Pro" font-size="18" font-weight="normal" fill="#FFFFFF">
            <tspan x="24" y="71">bars</tspan>
        </text>
        <g id="RTL-Logo" transform="translate(1210.000000, 56.000000)" fill="#FFFFFF">
            <path d="M5.10234375,10.1960631 L3.54375,10.1960631 L2.80546875,14.4124693 L0,14.4124693 L2.0671875,2.46871933 L6.28359375,2.47692246 C7.63438175,2.47692246 8.67480104,2.79273961 9.40488281,3.4243834 C10.1349646,4.05602718 10.4617191,4.91871386 10.3851562,6.01246933 C10.3249997,6.87653615 10.0761741,7.59156807 9.63867187,8.15758652 C9.20116969,8.72360498 8.58867581,9.17067082 7.80117187,9.49879746 L9.40898437,14.2730162 L9.40898437,14.4124693 L6.41484375,14.4124693 L5.10234375,10.1960631 Z M3.92109375,7.97301621 L5.56171875,7.98942246 C6.01015849,7.98942246 6.39980303,7.88004855 6.73066406,7.66129746 C7.06152509,7.44254636 7.29804616,7.1431353 7.44023438,6.76305527 C7.58242259,6.38297525 7.6234378,6.01520549 7.56328125,5.65973496 C7.4539057,5.05270067 7.06562834,4.732782 6.3984375,4.69996933 L4.4953125,4.69176621 L3.92109375,7.97301621 Z M21.0984375,4.69176621 L17.6203125,4.69176621 L15.9386719,14.4124693 L13.125,14.4124693 L14.8148438,4.69176621 L11.3941406,4.69176621 L11.7878906,2.46871933 L21.4839844,2.46871933 L21.0984375,4.69176621 Z M23.8464844,12.1976256 L28.7109375,12.1976256 L28.3253906,14.4124693 L20.6554688,14.4124693 L22.7226562,2.46871933 L25.5363281,2.46871933 L23.8464844,12.1976256 Z" id="RTL-Copy" fill-rule="nonzero"></path>
            <path d="M37.882011,5.59373905 C38.4131621,5.59373905 38.7433371,6.1708163 38.4763316,6.62733033 L33.4232186,15.3554345 C33.2968796,15.5736259 33.0671926,15.699965 32.8260382,15.699965 C32.3867394,15.699965 32.0537046,15.2894051 32.1570525,14.8529943 L33.4806404,9.26873029 L30.0726546,9.26873029 C29.656347,9.26873029 29.3347797,8.90123677 29.3893415,8.48778904 L30.3080893,1.59718047 C30.3540155,1.25553795 30.646872,1 30.9914024,1 L35.1257676,1 C35.5765338,1 35.9067088,1.43066304 35.7918653,1.86707385 L34.5687655,5.59373905 L37.882011,5.59373905 Z" id="b-copy" fill-rule="nonzero"></path>
            <text id="caret-down-copy" font-family="FontAwesome5Pro-Solid, Font Awesome 5 Pro" font-size="16" font-weight="700">
                <tspan x="46" y="14">caret-down</tspan>
            </text>
        </g>
        <g id="Group-22" transform="translate(243.000000, 117.000000)">
            <g id="Group-21" transform="translate(0.000000, 37.000000)">
                <path d="M5.1277704,0.5 C3.5776195,0.5 2.94057806,0.623018378 2.28210802,0.975172007 C1.71739041,1.27718629 1.27718629,1.71739041 0.975172007,2.28210802 C0.623018378,2.94057806 0.5,3.5776195 0.5,5.1277704 L0.5,126.87223 C0.5,128.42238 0.623018378,129.059422 0.975172007,129.717892 C1.27718629,130.28261 1.71739041,130.722814 2.28210802,131.024828 C2.94057806,131.376982 3.5776195,131.5 5.1277704,131.5 L1012.87223,131.5 C1014.42238,131.5 1015.05942,131.376982 1015.71789,131.024828 C1016.28261,130.722814 1016.72281,130.28261 1017.02483,129.717892 C1017.37698,129.059422 1017.5,128.42238 1017.5,126.87223 L1017.5,5.1277704 C1017.5,3.5776195 1017.37698,2.94057806 1017.02483,2.28210802 C1016.72281,1.71739041 1016.28261,1.27718629 1015.71789,0.975172007 C1015.05942,0.623018378 1014.42238,0.5 1012.87223,0.5 L5.1277704,0.5 Z" id="Rectangle" stroke="#DEDEDE" fill="#FFFFFF"></path>
                <line x1="0" y1="48.5" x2="1018" y2="48.5" id="Line" stroke="#D7D7D7" stroke-linecap="square"></line>
                <rect id="Rectangle" fill="#5E4EA5" x="1" y="47" width="79" height="2"></rect>
                <rect id="Rectangle" fill="#59316B" opacity="0" x="78" y="47" width="80" height="2"></rect>
                <text id="SATS" font-family="Roboto-Medium, Roboto" font-size="14" font-weight="400" fill="#5E4EA5">
                    <tspan x="22.1435547" y="30">SATS</tspan>
                </text>
                <text id="BTC" font-family="Roboto-Regular, Roboto" font-size="14" font-weight="normal" fill="#979797">
                    <tspan x="104.90918" y="30">BTC</tspan>
                </text>
                <text id="GBP" font-family="Roboto-Regular, Roboto" font-size="14" font-weight="normal" fill="#979797">
                    <tspan x="182.958008" y="30">GBP</tspan>
                </text>
                <g id="Group-26" transform="translate(24.000000, 72.000000)">
                    <text id="Total-Balance" font-family="Roboto-Medium, Roboto" font-size="12" font-weight="400" fill="#5E4EA5">
                        <tspan x="0" y="11">Total Balance</tspan>
                    </text>
                    <text id="413,722" font-family="Roboto-Light, Roboto" font-size="20" font-weight="300" fill="#222831">
                        <tspan x="0" y="37">413,722</tspan>
                    </text>
                </g>
                <g id="Group-23" transform="translate(121.000000, 72.000000)">
                    <text id="Confirmed" font-family="Roboto-Medium, Roboto" font-size="12" font-weight="400" fill="#5E4EA5">
                        <tspan x="0" y="11">Confirmed</tspan>
                    </text>
                    <text id="413,721" font-family="Roboto-Light, Roboto" font-size="20" font-weight="300" fill="#222831">
                        <tspan x="0" y="37">413,721</tspan>
                    </text>
                </g>
                <g id="Group-24" transform="translate(216.000000, 72.000000)">
                    <text id="Unconfirmed" font-family="Roboto-Medium, Roboto" font-size="12" font-weight="400" fill="#5E4EA5">
                        <tspan x="0" y="11">Unconfirmed</tspan>
                    </text>
                    <text id="0" font-family="Roboto-Light, Roboto" font-size="20" font-weight="300" fill="#222831">
                        <tspan x="0" y="37">0</tspan>
                    </text>
                </g>
            </g>
            <g id="Group-27">
                <path d="M16.4934772,9.00001192 C16.7919079,9.00001192 17.0372381,9.26218781 16.9953375,9.55781088 C16.7512891,11.2843693 15.9194124,12.8203153 14.7100342,13.9596864 C14.6178408,14.0465697 14.4990972,14.0887449 14.3797432,14.0887449 C14.2624339,14.0885313 14.0997451,14.0212097 14.0166154,13.9384462 L9.07818113,9.00001192 L16.4934772,9.00001192 Z M14.3712898,12.8787563 C15.115032,12.0625046 15.6412758,11.0675119 15.8950289,10.0000095 L11.492543,10.0000095 L14.3712898,12.8787563 Z M7.00006108,9.00001192 L11.8709906,13.8709415 C12.0850404,14.0849913 12.0688051,14.4484242 11.8219185,14.6234421 C10.6253576,15.472195 9.17006934,15.9796706 7.59506088,15.9993849 C7.56442131,15.9996901 7.53475829,15.9999952 7.50411872,15.9999952 C3.53693457,15.9999952 0.139756393,12.7353241 0.0044417746,8.76157865 C-0.128034716,4.86250958 2.71851611,1.60909937 6.44226212,1.0828555 C6.46444835,1.0797122 6.48663457,1.07815581 6.50817993,1.07815581 C6.77569638,1.07815581 7.00006108,1.3087766 7.00006108,1.58471588 L7.00006108,9.00001192 Z M7.58224353,14.9993873 C8.69536954,14.9856239 9.77037918,14.6900008 10.7253635,14.1393734 L6.00006347,9.41407343 L6.00006347,2.18221812 C3.01038554,2.88283901 0.897567087,5.59846974 1.00382904,8.72752112 C1.11945987,12.1275069 4.09632045,14.9999976 7.50381354,14.9999976 L7.58224353,14.9993873 Z M15.9987884,6.97502285 C16.0184722,7.26002584 15.7784825,7.5000155 15.4928387,7.5000155 L8.50005751,7.5000155 L8.50005751,0.507234318 C8.50005751,0.232851427 8.72191977,3.33786011e-05 8.99254901,3.33786011e-05 C9.0031691,3.33786011e-05 9.01412488,0.000338553655 9.02505015,0.00128459632 C12.758165,0.258791307 15.7412817,3.24190797 15.9987884,6.97502285 Z M9.50005512,6.50001788 L14.9406549,6.50001788 C14.5088017,3.71096203 12.289111,1.4909661 9.50005512,1.05941806 L9.50005512,6.50001788 Z" id="c" fill="#84979E" fill-rule="nonzero"></path>
                <text id="On-chain-Balance" font-family="Roboto-Regular, Roboto" font-size="16" font-weight="normal" fill="#84979E">
                    <tspan x="25.0000778" y="15">On-chain Balance</tspan>
                </text>
                <g id="Group-20" transform="translate(0.000078, 0.000000)"></g>
            </g>
        </g>
        <g id="Group-4" transform="translate(247.000000, 320.000000)" fill="#84979E" font-size="16">
            <text id="On-chain-Transaction" font-family="Roboto-Regular, Roboto" font-weight="normal">
                <tspan x="28.027532" y="15">On-chain Transactions</tspan>
            </text>
            <text id="exchange" font-family="FontAwesome5Pro-Light, Font Awesome 5 Pro" font-weight="300">
                <tspan x="1.0125234e-13" y="15">exchange</tspan>
            </text>
        </g>
        <path d="M250.12777,356.5 C248.57762,356.5 247.940578,356.623018 247.282108,356.975172 C246.71739,357.277186 246.277186,357.71739 245.975172,358.282108 C245.623018,358.940578 245.5,359.57762 245.5,361.12777 L245.5,999.87223 C245.5,1001.42238 245.623018,1002.05942 245.975172,1002.71789 C246.277186,1003.28261 246.71739,1003.72281 247.282108,1004.02483 C247.940578,1004.37698 248.57762,1004.5 250.12777,1004.5 L1257.87223,1004.5 C1259.42238,1004.5 1260.05942,1004.37698 1260.71789,1004.02483 C1261.28261,1003.72281 1261.72281,1003.28261 1262.02483,1002.71789 C1262.37698,1002.05942 1262.5,1001.42238 1262.5,999.87223 L1262.5,361.12777 C1262.5,359.57762 1262.37698,358.940578 1262.02483,358.282108 C1261.72281,357.71739 1261.28261,357.277186 1260.71789,356.975172 C1260.05942,356.623018 1259.42238,356.5 1257.87223,356.5 L250.12777,356.5 Z" id="Rectangle" stroke="#DEDEDE" fill="#FFFFFF"></path>
        <line x1="245.344641" y1="404.5" x2="1263.34464" y2="404.5" id="Line" stroke="#D7D7D7" stroke-linecap="square"></line>
        <rect id="Rectangle" fill="#5E4EA5" opacity="0" x="245" y="403" width="160" height="2"></rect>
        <rect id="Rectangle" fill="#59316B" opacity="0" x="405" y="403" width="160" height="2"></rect>
        <rect id="Rectangle" fill="#59316B" opacity="0" x="565" y="403" width="160" height="2"></rect>
        <text id="Send" font-family="Roboto-Regular, Roboto" font-size="14" font-weight="normal" fill="#979797">
            <tspan x="309.328613" y="386">Send</tspan>
        </text>
        <text id="Receive" font-family="Roboto-Regular, Roboto" font-size="14" font-weight="normal" fill="#979797">
            <tspan x="460.811035" y="386">Receive</tspan>
        </text>
        <rect id="Rectangle" fill="#59316B" x="565" y="403" width="160" height="2"></rect>
        <text id="Sweep-All" font-family="Roboto-Medium, Roboto" font-size="14" font-weight="400" fill="#5E4EA5">
            <tspan x="614.142578" y="386">Sweep All</tspan>
        </text>
        <g id="Group-17" transform="translate(273.000000, 640.000000)" fill="#84979E">
            <path d="M10.7605446,8.50001431 C10.8981917,8.50001431 11.0107899,8.61250302 11.0107899,8.7500149 L11.0107899,9.25001371 C11.0107899,9.38752559 10.8981917,9.50001431 10.7605446,9.50001431 L3.25318792,9.50001431 C3.11554082,9.50001431 3.00294269,9.38752559 3.00294269,9.25001371 L3.00294269,8.7500149 C3.00294269,8.61250302 3.11554082,8.50001431 3.25318792,8.50001431 L10.7605446,8.50001431 Z M10.7605446,11.5000072 C10.8981917,11.5000072 11.0107899,11.6124959 11.0107899,11.7500077 L11.0107899,12.2500066 C11.0107899,12.3875184 10.8981917,12.5000072 10.7605446,12.5000072 L3.25318792,12.5000072 C3.11554082,12.5000072 3.00294269,12.3875184 3.00294269,12.2500066 L3.00294269,11.7500077 C3.00294269,11.6124959 3.11554082,11.5000072 3.25318792,11.5000072 L10.7605446,11.5000072 Z M13.0784288,1.00003338 C13.5664253,1.00003338 14.0137326,1.39065745 14.0106489,1.93441836 L14.0106489,16.0687536 C14.0106489,16.61874 13.5632789,16.9999952 13.0784288,16.9999952 C12.8938913,16.9999952 12.7062074,16.9437515 12.5372796,16.8218646 L11.1765712,15.843748 L9.96915024,16.7124898 C9.70638053,16.9031327 9.39983624,16.9968824 9.09329195,16.9968824 C8.78674766,16.9968824 8.47705698,16.8999894 8.21428727,16.7124898 L7.00686628,15.843748 L5.79944529,16.7124898 C5.53667559,16.9031327 5.2301313,16.9968824 4.92358701,16.9968824 C4.61389633,16.9968824 4.30735203,16.8999894 4.04458233,16.7124898 L2.83716134,15.843748 L1.47645293,16.8218646 C1.30440934,16.9437515 1.11672542,16.9999952 0.935303745,16.9999952 C0.447307229,16.9999952 0,16.6093712 0,16.0687536 L0,1.93441836 C0,1.38440136 0.450453623,1.00314616 0.935303745,1.00003338 C1.11984127,1.00003338 1.30752519,1.05627714 1.47645293,1.17816406 L2.83716134,2.15628062 L4.04458233,1.2875388 C4.30735203,1.09689594 4.61389633,1.00314616 4.92044062,1.00314616 C5.22698491,1.00314616 5.53667559,1.10003924 5.79944529,1.2875388 L7.00686628,2.15628062 L8.21428727,1.2875388 C8.47705698,1.09689594 8.78360127,1.00314616 9.09014556,1.00314616 C9.39983624,1.00314616 9.70638053,1.10003924 9.96915024,1.2875388 L11.1765712,2.15628062 L12.5372796,1.17816406 C12.7093232,1.05627714 12.8970071,1.00003338 13.0784288,1.00003338 Z M13.0127517,15.9312417 L13.0127517,2.06878693 L11.7615255,2.96877868 L11.1797176,3.39065268 L10.5947633,2.96877868 L9.38731176,2.10314965 C9.29973204,2.04064979 9.19962784,2.00628708 9.09329195,2.00628708 C8.98692551,2.00628708 8.88682131,2.03753701 8.79924159,2.10003686 L7.59182061,2.96877868 L7.00686628,3.39065268 L6.42191196,2.96877868 L5.21449097,2.10314965 C5.12691125,2.04064979 5.02680705,2.00628708 4.92044062,2.00628708 C4.81722057,2.00628708 4.71711637,2.03753701 4.62953665,2.10003686 L3.42211566,2.96877868 L2.83716134,3.39065268 L2.25220702,2.96877868 L1.0009809,2.06878693 L1.0009809,15.9500099 L2.25220702,15.0312499 L2.83401495,14.6093759 L3.41896927,15.0312499 L4.62642081,15.896879 C4.71400052,15.9593788 4.81410472,15.9937415 4.92044062,15.9937415 C5.02680705,15.9937415 5.12691125,15.9624916 5.21449097,15.8999918 L6.42191196,15.0312499 L7.00686628,14.6093759 L7.59182061,15.0312499 L8.79924159,15.896879 C8.88682131,15.9593788 8.98692551,15.9937415 9.09329195,15.9937415 C9.196512,15.9937415 9.2966162,15.9624916 9.38419592,15.8999918 L10.5916169,15.0312499 L11.1765712,14.6093759 L11.7615255,15.0312499 L13.0127517,15.9312417 Z M10.7605446,5.50002146 C10.8981917,5.50002146 11.0107899,5.61251017 11.0107899,5.75002205 L11.0107899,6.25002086 C11.0107899,6.38753274 10.8981917,6.50002146 10.7605446,6.50002146 L3.25318792,6.50002146 C3.11554082,6.50002146 3.00294269,6.38753274 3.00294269,6.25002086 L3.00294269,5.75002205 C3.00294269,5.61251017 3.11554082,5.50002146 3.25318792,5.50002146 L10.7605446,5.50002146 Z" id="r" fill-rule="nonzero"></path>
            <text id="Cashout-History" font-family="Roboto-Regular, Roboto" font-size="16" font-weight="normal">
                <tspan x="21.020649" y="15">Cashout History</tspan>
            </text>
        </g>
        <text id="Number-of-Blocks" font-family="Roboto-Regular, Roboto" font-size="15" font-weight="normal" fill="#444444">
            <tspan x="574" y="535">Number of Blocks</tspan>
        </text>
        <rect id="Rectangle" stroke="#979797" fill="#D8D8D8" x="574.5" y="545.5" width="159" height="1"></rect>
        <text id="Amount" opacity="0" font-family="Roboto-Regular, Roboto" font-size="12" font-weight="normal" fill="#5E4EA5">
            <tspan x="693" y="440">Amount</tspan>
        </text>
        <g id="Group-13" transform="translate(269.000000, 428.000000)">
            <text id="Bitcoin-Address" font-family="Roboto-Regular, Roboto" font-size="15" font-weight="normal" fill="#444444">
                <tspan x="0" y="36">Bitcoin Address</tspan>
            </text>
            <text id="Amount" opacity="0" font-family="Roboto-Regular, Roboto" font-size="12" font-weight="normal" fill="#5E4EA5">
                <tspan x="0" y="11">Amount</tspan>
            </text>
            <g id="Group-7" transform="translate(0.000000, 22.000000)"></g>
        </g>
        <rect id="Rectangle" stroke="#979797" fill="#D8D8D8" x="269.5" y="474.5" width="662" height="1"></rect>
        <g id="Rectangle-Copy-7">
            <use fill="black" fill-opacity="1" filter="url(#filter-6)" xlink:href="#path-5"></use>
            <use fill="#5E4EA5" fill-rule="evenodd" xlink:href="#path-5"></use>
        </g>
        <text id="Sweep-All-Funds" font-family="Roboto-Medium, Roboto" font-size="14" font-weight="400" fill="#FFFFFF">
            <tspan x="285.782715" y="593">Sweep All Funds</tspan>
        </text>
        <g id="Group-14" transform="translate(419.000000, 570.000000)">
            <rect id="Rectangle-Copy-7" stroke="#DCDCDC" fill="#FFFFFF" x="0.5" y="0.5" width="104" height="35" rx="4"></rect>
            <text id="Clear-Fields" font-family="Roboto-Medium, Roboto" font-size="14" font-weight="400" fill="#4F4F4F">
                <tspan x="16.1542969" y="23">Clear Fields</tspan>
            </text>
        </g>
        <path d="M277.421771,524.959153 L273.921426,524.959153 L273.921426,534.77761 L272.492866,534.77761 L272.492866,524.959153 L269,524.959153 L269,523.763994 L277.421771,523.763994 L277.421771,524.959153 Z M282.971465,534.77761 C282.891684,534.616237 282.826864,534.328797 282.777001,533.91528 C282.133772,534.591027 281.365897,534.928896 280.473355,534.928896 C279.675551,534.928896 279.021113,534.700708 278.51002,534.244327 C277.998927,533.787945 277.743384,533.209282 277.743384,532.508321 C277.743384,531.656072 278.063748,530.994203 278.704484,530.522693 C279.34522,530.051183 280.246475,529.815431 281.408276,529.815431 L282.754563,529.815431 L282.754563,529.172466 C282.754563,528.683306 282.609963,528.293748 282.320759,528.003782 C282.031556,527.713816 281.605236,527.568835 281.041787,527.568835 C280.548146,527.568835 280.134292,527.694905 279.800211,527.94705 C279.466131,528.199194 279.299094,528.504285 279.299094,528.86233 L277.907931,528.86233 C277.907931,528.453856 278.051284,528.059256 278.337994,527.678517 C278.624705,527.297779 279.013628,526.996471 279.504776,526.774584 C279.995924,526.552697 280.53568,526.441755 281.12406,526.441755 C282.056493,526.441755 282.786971,526.677506 283.315516,527.149017 C283.84406,527.620527 284.118301,528.269789 284.138246,529.096823 L284.138246,532.863843 C284.138246,533.615233 284.232984,534.212807 284.422463,534.656581 L284.422463,534.77761 L282.971465,534.77761 Z M280.675298,533.711044 C281.109103,533.711044 281.520465,533.597581 281.909394,533.370651 C282.298323,533.14372 282.580043,532.848716 282.754563,532.485628 L282.754563,530.806354 L281.670054,530.806354 C279.974722,530.806354 279.127068,531.308114 279.127068,532.311649 C279.127068,532.75038 279.271668,533.093292 279.560872,533.340393 C279.850075,533.587495 280.221547,533.711044 280.675298,533.711044 Z M290.218975,527.848714 C290.009551,527.813414 289.782679,527.795764 289.538352,527.795764 C288.630851,527.795764 288.015055,528.186582 287.690948,528.96823 L287.690948,534.77761 L286.307264,534.77761 L286.307264,526.593041 L287.653551,526.593041 L287.675989,527.538578 C288.12974,526.807359 288.772959,526.441755 289.605666,526.441755 C289.874925,526.441755 290.079359,526.477055 290.218975,526.547655 L290.218975,527.848714 Z M291.019268,530.617247 C291.019268,529.341396 291.31096,528.326529 291.894354,527.572617 C292.477748,526.818705 293.250608,526.441755 294.212959,526.441755 C295.200241,526.441755 295.970608,526.794752 296.524084,527.500756 L296.591399,526.593041 L297.855412,526.593041 L297.855412,534.580938 C297.855412,535.639945 297.545022,536.47453 296.924231,537.08472 C296.30344,537.69491 295.469498,538 294.422381,538 C293.838987,538 293.268068,537.87393 292.709605,537.621785 C292.151143,537.369641 291.724823,537.024208 291.430633,536.585477 L292.148652,535.74584 C292.742019,536.487144 293.467511,536.857791 294.325149,536.857791 C294.998296,536.857791 295.523093,536.666164 295.899557,536.282905 C296.27602,535.899645 296.464249,535.360064 296.464249,534.664145 L296.464249,533.960666 C295.910773,534.606156 295.155364,534.928896 294.198,534.928896 C293.250608,534.928896 292.483981,534.54312 291.898094,533.771558 C291.312207,532.999996 291.019268,531.948569 291.019268,530.617247 Z M292.41043,530.776097 C292.41043,531.698946 292.597413,532.42385 292.971383,532.950832 C293.345354,533.477814 293.868904,533.741301 294.542051,533.741301 C295.414649,533.741301 296.055375,533.340397 296.464249,532.538578 L296.464249,528.801815 C296.040416,528.020168 295.404676,527.629349 294.55701,527.629349 C293.883863,527.629349 293.357819,527.894097 292.978863,528.423601 C292.599906,528.953104 292.41043,529.737262 292.41043,530.776097 Z M303.300394,534.928896 C302.203414,534.928896 301.310885,534.564552 300.62278,533.835855 C299.934674,533.107157 299.590626,532.132633 299.590626,530.912254 L299.590626,530.655068 C299.590626,529.843163 299.743952,529.118258 300.050608,528.480333 C300.357263,527.842407 300.786076,527.343169 301.337059,526.982602 C301.888043,526.622036 302.48514,526.441755 303.128369,526.441755 C304.180472,526.441755 304.998209,526.79223 305.581602,527.493192 C306.164996,528.194154 306.456689,529.197674 306.456689,530.503782 L306.456689,531.086233 L300.97431,531.086233 C300.994255,531.893095 301.22736,532.544879 301.673631,533.041604 C302.119903,533.538328 302.687082,533.786687 303.375188,533.786687 C303.863843,533.786687 304.277697,533.685831 304.616764,533.484115 C304.95583,533.282399 305.252509,533.01513 305.506809,532.6823 L306.351978,533.347958 C305.673845,534.401922 304.65666,534.928896 303.300394,534.928896 Z M303.128369,527.591528 C302.569906,527.591528 302.101204,527.797023 301.722247,528.208018 C301.34329,528.619014 301.108939,529.195155 301.019186,529.93646 L305.073005,529.93646 L305.073005,529.83056 C305.033115,529.119512 304.843639,528.568585 304.504573,528.177761 C304.165506,527.786937 303.706776,527.591528 303.128369,527.591528 Z M309.934596,524.611195 L309.934596,526.593041 L311.445429,526.593041 L311.445429,527.674735 L309.934596,527.674735 L309.934596,532.750378 C309.934596,533.078166 310.00191,533.324003 310.136539,533.487897 C310.271169,533.651791 310.500534,533.733737 310.824641,533.733737 C310.984202,533.733737 311.203595,533.70348 311.482826,533.642965 L311.482826,534.77761 C311.118828,534.878467 310.764808,534.928896 310.420755,534.928896 C309.802458,534.928896 309.336248,534.73979 309.022113,534.361573 C308.707978,533.983357 308.550913,533.446297 308.550913,532.750378 L308.550913,527.674735 L307.077477,527.674735 L307.077477,526.593041 L308.550913,526.593041 L308.550913,524.611195 L309.934596,524.611195 Z M325.080322,531.282905 C324.945693,532.447812 324.520619,533.346694 323.805089,533.979576 C323.089559,534.612459 322.138442,534.928896 320.951709,534.928896 C319.665251,534.928896 318.634355,534.462435 317.858989,533.529501 C317.083624,532.596566 316.695947,531.34847 316.695947,529.785174 L316.695947,528.726172 C316.695947,527.702466 316.876697,526.802324 317.238202,526.025719 C317.599706,525.249114 318.112038,524.652801 318.775212,524.236762 C319.438387,523.820724 320.206261,523.612708 321.078859,523.612708 C322.235674,523.612708 323.163106,523.93923 323.861185,524.592284 C324.559263,525.245339 324.965638,526.149263 325.080322,527.304085 L323.636803,527.304085 C323.512147,526.426622 323.241645,525.791227 322.825292,525.397882 C322.408938,525.004537 321.826799,524.807867 321.078859,524.807867 C320.161385,524.807867 319.442126,525.150778 318.92106,525.836611 C318.399995,526.522444 318.139466,527.498229 318.139466,528.763994 L318.139466,529.83056 C318.139466,531.025725 318.386283,531.976295 318.879924,532.6823 C319.373565,533.388304 320.064153,533.741301 320.951709,533.741301 C321.749513,533.741301 322.361569,533.558499 322.787895,533.19289 C323.214221,532.82728 323.497188,532.190625 323.636803,531.282905 L325.080322,531.282905 Z M326.456526,530.609682 C326.456526,529.807863 326.612345,529.08674 326.923987,528.446293 C327.235629,527.805847 327.669428,527.311651 328.225397,526.963691 C328.781367,526.615732 329.41586,526.441755 330.128897,526.441755 C331.230863,526.441755 332.122146,526.82753 332.802772,527.599092 C333.483398,528.370654 333.823706,529.396867 333.823706,530.677761 L333.823706,530.776097 C333.823706,531.572873 333.672874,532.287692 333.371204,532.920575 C333.069535,533.553458 332.638229,534.046393 332.077273,534.399395 C331.516318,534.752397 330.871852,534.928896 330.143856,534.928896 C329.046876,534.928896 328.158086,534.54312 327.47746,533.771558 C326.796834,532.999996 326.456526,531.978826 326.456526,530.708018 L326.456526,530.609682 Z M327.847689,530.776097 C327.847689,531.683817 328.055863,532.412504 328.472217,532.962179 C328.88857,533.511853 329.445778,533.786687 330.143856,533.786687 C330.84692,533.786687 331.405374,533.508071 331.819235,532.950832 C332.233096,532.393593 332.440023,531.613217 332.440023,530.609682 C332.440023,529.712048 332.229356,528.984622 331.808016,528.427383 C331.386676,527.870143 330.826975,527.591528 330.128897,527.591528 C329.445778,527.591528 328.894803,527.866361 328.475956,528.416036 C328.057109,528.965711 327.847689,529.75239 327.847689,530.776097 Z M336.86781,526.593041 L336.912686,527.621785 C337.530984,526.835094 338.338748,526.441755 339.336003,526.441755 C341.046294,526.441755 341.908906,527.417539 341.923865,529.369138 L341.923865,534.77761 L340.540181,534.77761 L340.540181,529.361573 C340.535195,528.771555 340.401814,528.335352 340.140035,528.05295 C339.878256,527.770548 339.470634,527.629349 338.917158,527.629349 C338.468393,527.629349 338.074484,527.750377 337.735417,527.992436 C337.396351,528.234494 337.132082,528.552192 336.942604,528.945537 L336.942604,534.77761 L335.55892,534.77761 L335.55892,526.593041 L336.86781,526.593041 Z M344.47433,534.77761 L344.47433,527.674735 L343.195358,527.674735 L343.195358,526.593041 L344.47433,526.593041 L344.47433,525.897126 C344.47433,524.984363 344.732366,524.273326 345.248445,523.763994 C345.764524,523.254662 346.493756,523 347.436161,523 C347.994624,523 348.700171,523.153806 349.552823,523.461422 L349.320963,524.641452 C348.697679,524.389308 348.104321,524.263238 347.540872,524.263238 C346.947506,524.263238 346.51994,524.398133 346.25816,524.667927 C345.996381,524.937722 345.865493,525.342408 345.865493,525.881997 L345.865493,526.593041 L347.518434,526.593041 L347.518434,527.674735 L345.865493,527.674735 L345.865493,534.77761 L344.47433,534.77761 Z M350.240925,534.77761 L348.849762,534.77761 L348.849762,526.593041 L350.240925,526.593041 L350.240925,534.77761 Z M356.403927,527.848714 C356.194503,527.813414 355.967631,527.795764 355.723304,527.795764 C354.815802,527.795764 354.200007,528.186582 353.875899,528.96823 L353.875899,534.77761 L352.492216,534.77761 L352.492216,526.593041 L353.838502,526.593041 L353.860941,527.538578 C354.314691,526.807359 354.957911,526.441755 355.790618,526.441755 C356.059877,526.441755 356.264311,526.477055 356.403927,526.547655 L356.403927,527.848714 Z M358.97683,526.593041 L359.014227,527.500756 C359.607593,526.794752 360.407878,526.441755 361.415105,526.441755 C362.546989,526.441755 363.317356,526.88048 363.726231,527.757943 C363.995489,527.364597 364.34577,527.0469 364.777082,526.804841 C365.208395,526.562782 365.718233,526.441755 366.306614,526.441755 C368.081726,526.441755 368.984228,527.392325 369.014146,529.293495 L369.014146,534.77761 L367.630462,534.77761 L367.630462,529.376702 C367.630462,528.791727 367.498328,528.354263 367.234056,528.064297 C366.969783,527.77433 366.526012,527.629349 365.902728,527.629349 C365.389142,527.629349 364.962822,527.784416 364.623755,528.094554 C364.284689,528.404691 364.087734,528.821984 364.032885,529.346445 L364.032885,534.77761 L362.641722,534.77761 L362.641722,529.414523 C362.641722,528.224402 362.065816,527.629349 360.913987,527.629349 C360.006486,527.629349 359.385704,528.020168 359.051624,528.801815 L359.051624,534.77761 L357.66794,534.77761 L357.66794,526.593041 L358.97683,526.593041 Z M376.09711,534.77761 C376.01733,534.616237 375.952509,534.328797 375.902646,533.91528 C375.259417,534.591027 374.491543,534.928896 373.599,534.928896 C372.801197,534.928896 372.146758,534.700708 371.635665,534.244327 C371.124572,533.787945 370.86903,533.209282 370.86903,532.508321 C370.86903,531.656072 371.189393,530.994203 371.830129,530.522693 C372.470865,530.051183 373.37212,529.815431 374.533921,529.815431 L375.880208,529.815431 L375.880208,529.172466 C375.880208,528.683306 375.735608,528.293748 375.446405,528.003782 C375.157201,527.713816 374.730881,527.568835 374.167432,527.568835 C373.673791,527.568835 373.259937,527.694905 372.925857,527.94705 C372.591776,528.199194 372.424739,528.504285 372.424739,528.86233 L371.033576,528.86233 C371.033576,528.453856 371.176929,528.059256 371.46364,527.678517 C371.75035,527.297779 372.139274,526.996471 372.630422,526.774584 C373.121569,526.552697 373.661325,526.441755 374.249705,526.441755 C375.182138,526.441755 375.912616,526.677506 376.441161,527.149017 C376.969706,527.620527 377.243947,528.269789 377.263892,529.096823 L377.263892,532.863843 C377.263892,533.615233 377.358629,534.212807 377.548108,534.656581 L377.548108,534.77761 L376.09711,534.77761 Z M373.800943,533.711044 C374.234749,533.711044 374.64611,533.597581 375.035039,533.370651 C375.423968,533.14372 375.705689,532.848716 375.880208,532.485628 L375.880208,530.806354 L374.795699,530.806354 C373.100367,530.806354 372.252713,531.308114 372.252713,532.311649 C372.252713,532.75038 372.397313,533.093292 372.686517,533.340393 C372.975721,533.587495 373.347192,533.711044 373.800943,533.711044 Z M381.310231,524.611195 L381.310231,526.593041 L382.821064,526.593041 L382.821064,527.674735 L381.310231,527.674735 L381.310231,532.750378 C381.310231,533.078166 381.377545,533.324003 381.512174,533.487897 C381.646804,533.651791 381.876169,533.733737 382.200276,533.733737 C382.359837,533.733737 382.57923,533.70348 382.858461,533.642965 L382.858461,534.77761 C382.494463,534.878467 382.140443,534.928896 381.79639,534.928896 C381.178093,534.928896 380.711883,534.73979 380.397748,534.361573 C380.083613,533.983357 379.926548,533.446297 379.926548,532.750378 L379.926548,527.674735 L378.453112,527.674735 L378.453112,526.593041 L379.926548,526.593041 L379.926548,524.611195 L381.310231,524.611195 Z M385.939962,534.77761 L384.556278,534.77761 L384.556278,526.593041 L385.939962,526.593041 L385.939962,534.77761 Z M384.444088,524.422088 C384.444088,524.195158 384.512648,524.003531 384.64977,523.847201 C384.786893,523.690872 384.99008,523.612708 385.259339,523.612708 C385.528598,523.612708 385.733032,523.690872 385.872647,523.847201 C386.012263,524.003531 386.08207,524.195158 386.08207,524.422088 C386.08207,524.649018 386.012263,524.838123 385.872647,524.98941 C385.733032,525.140697 385.528598,525.216339 385.259339,525.216339 C384.99008,525.216339 384.786893,525.140697 384.64977,524.98941 C384.512648,524.838123 384.444088,524.649018 384.444088,524.422088 Z M387.787366,530.609682 C387.787366,529.807863 387.943185,529.08674 388.254827,528.446293 C388.566469,527.805847 389.000268,527.311651 389.556238,526.963691 C390.112207,526.615732 390.7467,526.441755 391.459737,526.441755 C392.561704,526.441755 393.452986,526.82753 394.133612,527.599092 C394.814239,528.370654 395.154547,529.396867 395.154547,530.677761 L395.154547,530.776097 C395.154547,531.572873 395.003714,532.287692 394.702045,532.920575 C394.400375,533.553458 393.969069,534.046393 393.408113,534.399395 C392.847158,534.752397 392.202692,534.928896 391.474696,534.928896 C390.377716,534.928896 389.488927,534.54312 388.8083,533.771558 C388.127674,532.999996 387.787366,531.978826 387.787366,530.708018 L387.787366,530.609682 Z M389.178529,530.776097 C389.178529,531.683817 389.386703,532.412504 389.803057,532.962179 C390.219411,533.511853 390.776618,533.786687 391.474696,533.786687 C392.177761,533.786687 392.736215,533.508071 393.150075,532.950832 C393.563936,532.393593 393.770863,531.613217 393.770863,530.609682 C393.770863,529.712048 393.560196,528.984622 393.138856,528.427383 C392.717516,527.870143 392.157816,527.591528 391.459737,527.591528 C390.776618,527.591528 390.225643,527.866361 389.806796,528.416036 C389.38795,528.965711 389.178529,529.75239 389.178529,530.776097 Z M398.19865,526.593041 L398.243527,527.621785 C398.861824,526.835094 399.669588,526.441755 400.666843,526.441755 C402.377134,526.441755 403.239746,527.417539 403.254705,529.369138 L403.254705,534.77761 L401.871022,534.77761 L401.871022,529.361573 C401.866035,528.771555 401.732654,528.335352 401.470875,528.05295 C401.209096,527.770548 400.801474,527.629349 400.247998,527.629349 C399.799234,527.629349 399.405324,527.750377 399.066257,527.992436 C398.727191,528.234494 398.462923,528.552192 398.273444,528.945537 L398.273444,534.77761 L396.889761,534.77761 L396.889761,526.593041 L398.19865,526.593041 Z M409.350392,534.77761 L409.350392,523.763994 L412.910573,523.763994 C414.092319,523.763994 414.981109,524.011092 415.576968,524.505295 C416.172828,524.999498 416.470753,525.730706 416.470753,526.698941 C416.470753,527.213316 416.326153,527.66843 416.03695,528.064297 C415.747746,528.460163 415.353836,528.766514 414.855209,528.983359 C415.443589,529.149774 415.908552,529.46621 416.250112,529.932678 C416.591671,530.399145 416.762449,530.955115 416.762449,531.600605 C416.762449,532.589011 416.445825,533.365605 415.812569,533.930408 C415.179312,534.495212 414.28429,534.77761 413.127474,534.77761 L409.350392,534.77761 Z M410.786431,529.626324 L410.786431,533.590015 L413.157392,533.590015 C413.825552,533.590015 414.352843,533.414777 414.739279,533.064297 C415.125715,532.713816 415.31893,532.230966 415.31893,531.615734 C415.31893,530.289454 414.605904,529.626324 413.17983,529.626324 L410.786431,529.626324 Z M410.786431,528.461422 L412.955449,528.461422 C413.583719,528.461422 414.086079,528.302573 414.462542,527.984871 C414.839006,527.667169 415.027235,527.236009 415.027235,526.691377 C415.027235,526.08623 414.852718,525.646244 414.503679,525.371407 C414.15464,525.096569 413.62361,524.959153 412.910573,524.959153 L410.786431,524.959153 L410.786431,528.461422 Z M420.173042,534.77761 L418.789358,534.77761 L418.789358,523.15885 L420.173042,523.15885 L420.173042,534.77761 Z M422.020446,530.609682 C422.020446,529.807863 422.176265,529.08674 422.487907,528.446293 C422.799549,527.805847 423.233348,527.311651 423.789318,526.963691 C424.345287,526.615732 424.97978,526.441755 425.692817,526.441755 C426.794783,526.441755 427.686066,526.82753 428.366692,527.599092 C429.047319,528.370654 429.387627,529.396867 429.387627,530.677761 L429.387627,530.776097 C429.387627,531.572873 429.236794,532.287692 428.935125,532.920575 C428.633455,533.553458 428.202149,534.046393 427.641193,534.399395 C427.080238,534.752397 426.435772,534.928896 425.707776,534.928896 C424.610796,534.928896 423.722007,534.54312 423.04138,533.771558 C422.360754,532.999996 422.020446,531.978826 422.020446,530.708018 L422.020446,530.609682 Z M423.411609,530.776097 C423.411609,531.683817 423.619783,532.412504 424.036137,532.962179 C424.45249,533.511853 425.009698,533.786687 425.707776,533.786687 C426.41084,533.786687 426.969295,533.508071 427.383155,532.950832 C427.797016,532.393593 428.003943,531.613217 428.003943,530.609682 C428.003943,529.712048 427.793276,528.984622 427.371936,528.427383 C426.950596,527.870143 426.390895,527.591528 425.692817,527.591528 C425.009698,527.591528 424.458723,527.866361 424.039876,528.416036 C423.62103,528.965711 423.411609,529.75239 423.411609,530.776097 Z M434.368887,533.786687 C434.862528,533.786687 435.293834,533.635402 435.662819,533.332829 C436.031803,533.030256 436.236237,532.652045 436.276127,532.198185 L437.585017,532.198185 C437.560086,532.667173 437.400527,533.113462 437.106337,533.537065 C436.812147,533.960668 436.419484,534.298536 435.928336,534.550681 C435.437188,534.802825 434.917377,534.928896 434.368887,534.928896 C433.266921,534.928896 432.390597,534.556988 431.739889,533.813162 C431.08918,533.069336 430.763831,532.051948 430.763831,530.760968 L430.763831,530.526475 C430.763831,529.729698 430.90843,529.021183 431.197634,528.400908 C431.486838,527.780632 431.901939,527.299044 432.442949,526.956127 C432.98396,526.613211 433.62344,526.441755 434.361408,526.441755 C435.26891,526.441755 436.023072,526.716588 436.623918,527.266263 C437.224764,527.815938 437.545127,528.529496 437.585017,529.406959 L436.276127,529.406959 C436.236237,528.877456 436.038035,528.442513 435.681517,528.102118 C435.324999,527.761723 434.884967,527.591528 434.361408,527.591528 C433.658344,527.591528 433.113602,527.847451 432.727166,528.359304 C432.340729,528.871157 432.147514,529.61119 432.147514,530.579425 L432.147514,530.844175 C432.147514,531.787196 432.339483,532.513361 432.723426,533.022693 C433.107369,533.532025 433.655851,533.786687 434.368887,533.786687 Z M441.399496,530.987897 L440.531889,531.903177 L440.531889,534.77761 L439.148205,534.77761 L439.148205,523.15885 L440.531889,523.15885 L440.531889,530.186082 L441.272347,529.28593 L443.792895,526.593041 L445.475753,526.593041 L442.326938,530.012103 L445.842242,534.77761 L444.219219,534.77761 L441.399496,530.987897 Z M451.616316,532.606657 C451.616316,532.22844 451.475456,531.934696 451.193732,531.725416 C450.912008,531.516136 450.420867,531.335856 449.720296,531.184569 C449.019725,531.033282 448.463764,530.851741 448.052396,530.639939 C447.641029,530.428138 447.336871,530.175997 447.139913,529.88351 C446.942955,529.591022 446.844478,529.243068 446.844478,528.839637 C446.844478,528.168933 447.124951,527.601616 447.685907,527.13767 C448.246863,526.673724 448.963629,526.441755 449.836226,526.441755 C450.7537,526.441755 451.49789,526.681289 452.068818,527.160363 C452.639746,527.639438 452.925206,528.252139 452.925206,528.998487 L451.534043,528.998487 C451.534043,528.615228 451.373238,528.284923 451.051624,528.007564 C450.730009,527.730205 450.324881,527.591528 449.836226,527.591528 C449.332613,527.591528 448.938703,527.70247 448.654486,527.924357 C448.370268,528.146244 448.228161,528.436206 448.228161,528.794251 C448.228161,529.132125 448.360296,529.386787 448.624568,529.558245 C448.888841,529.729703 449.366269,529.893595 450.056868,530.049924 C450.747466,530.206254 451.307167,530.392838 451.735986,530.609682 C452.164806,530.826527 452.482676,531.087492 452.689606,531.392587 C452.896536,531.697682 453,532.069589 453,532.508321 C453,533.23954 452.710801,533.825767 452.132393,534.26702 C451.553985,534.708273 450.803563,534.928896 449.881102,534.928896 C449.232887,534.928896 448.659474,534.812911 448.160847,534.580938 C447.66222,534.348965 447.27205,534.024964 446.990326,533.608926 C446.708601,533.192887 446.567741,532.742816 446.567741,532.258699 L447.951425,532.258699 C447.976356,532.727688 448.162092,533.099595 448.508638,533.374433 C448.855184,533.64927 449.312667,533.786687 449.881102,533.786687 C450.404661,533.786687 450.824748,533.679527 451.141376,533.465204 C451.458005,533.250881 451.616316,532.964702 451.616316,532.606657 Z" id="TargetConfrmationBlocks" fill="#444444" fill-rule="nonzero"></path>
        <rect id="Rectangle" stroke="#979797" fill="#D8D8D8" x="269.5" y="545.5" width="279" height="1"></rect>
        <path d="M531.605572,529 L539.394412,529 C539.933268,529 540.202666,529.637416 539.821258,530.01096 L535.92833,533.826568 C535.692219,534.057811 535.307766,534.057811 535.071654,533.826568 L531.178757,530.01096 C530.797319,529.637416 531.066746,529 531.605572,529 Z" id="c" fill="#5F5F5F" fill-rule="nonzero"></path>
        <text id="Amount" opacity="0" font-family="Roboto-Regular, Roboto" font-size="12" font-weight="normal" fill="#5E4EA5">
            <tspan x="269" y="510">Amount</tspan>
        </text>
        <g id="Group-20" transform="translate(1139.000000, 450.000000)">
            <text id="sats" font-family="Roboto-Regular, Roboto" font-size="15" font-weight="normal" fill="#444444">
                <tspan x="0" y="14">sats</tspan>
            </text>
            <rect id="Rectangle" stroke="#979797" fill="#D8D8D8" x="0.5" y="24.5" width="97.0963618" height="1"></rect>
            <path d="M81.705407,8.00001907 L89.753913,8.00001907 C90.310733,8.00001907 90.5891125,8.67189247 90.1949885,9.06562933 L86.1722782,13.0875008 C85.9282952,13.3312442 85.5310248,13.3312442 85.2870418,13.0875008 L81.2643621,9.06562933 C80.8702075,8.67189247 81.1486175,8.00001907 81.705407,8.00001907 Z" id="c" fill="#5F5F5F" fill-rule="nonzero"></path>
        </g>
        <g id="Group-11" transform="translate(269.000000, 499.000000)">
            <g id="Group-9" transform="translate(0.000000, 24.000000)"></g>
        </g>
        <g id="Group-2" transform="translate(955.000000, 428.000000)">
            <text id="413,722" font-family="Roboto-Regular, Roboto" font-size="15" font-weight="normal" fill="#A5A5A5">
                <tspan x="1" y="37">413,722</tspan>
            </text>
            <text id="sats" font-family="Roboto-Regular, Roboto" font-size="15" font-weight="normal" fill="#B3B3B3">
                <tspan x="132.472168" y="37">sats</tspan>
            </text>
            <rect id="Rectangle" stroke="#979797" fill="#D8D8D8" transform="translate(81.000000, 46.500000) scale(1, -1) translate(-81.000000, -46.500000) " x="1.5" y="46.5" width="159" height="1"></rect>
            <text id="Amount" font-family="Roboto-Regular, Roboto" font-size="12" font-weight="normal" fill="#5E4EA5">
                <tspan x="0" y="11">Amount </tspan>
            </text>
            <text id="Sending-all-your-fun" font-family="Roboto-Regular, Roboto" font-size="12" font-weight="normal" fill="#828282">
                <tspan x="0" y="65">Sending all your funds</tspan>
            </text>
        </g>
        <g id="Group-28" transform="translate(267.000000, 672.000000)">
            <path d="M5.1277704,0.5 C3.5776195,0.5 2.94057806,0.623018378 2.28210802,0.975172007 C1.71739041,1.27718629 1.27718629,1.71739041 0.975172007,2.28210802 C0.623018378,2.94057806 0.5,3.5776195 0.5,5.1277704 L0.5,301.87223 C0.5,303.42238 0.623018378,304.059422 0.975172007,304.717892 C1.27718629,305.28261 1.71739041,305.722814 2.28210802,306.024828 C2.94057806,306.376982 3.5776195,306.5 5.1277704,306.5 L962.87223,306.5 C964.42238,306.5 965.059422,306.376982 965.717892,306.024828 C966.28261,305.722814 966.722814,305.28261 967.024828,304.717892 C967.376982,304.059422 967.5,303.42238 967.5,301.87223 L967.5,5.1277704 C967.5,3.5776195 967.376982,2.94057806 967.024828,2.28210802 C966.722814,1.71739041 966.28261,1.27718629 965.717892,0.975172007 C965.059422,0.623018378 964.42238,0.5 962.87223,0.5 L5.1277704,0.5 Z" id="Rectangle" stroke="#DEDEDE" fill="#FFFFFF"></path>
            <g id="Group-10" transform="translate(20.975418, 21.000000)" font-size="14">
                <text id="Date/Time" font-family="Roboto-Medium, Roboto" font-weight="400" letter-spacing="0.5" fill="#000000">
                    <tspan x="0" y="13">Date/Time</tspan>
                </text>
                <text id="04/SET/2019-08:00" font-family="Roboto-Regular, Roboto" font-weight="normal" letter-spacing="0.200000003" fill="#4F4F4F">
                    <tspan x="0" y="63">04/SET/2019 08:00</tspan>
                </text>
                <text id="04/SET/2019-08:00" font-family="Roboto-Regular, Roboto" font-weight="normal" letter-spacing="0.200000003" fill="#4F4F4F">
                    <tspan x="0" y="115">04/SET/2019 08:00</tspan>
                </text>
                <text id="04/SET/2019-08:00" font-family="Roboto-Regular, Roboto" font-weight="normal" letter-spacing="0.200000003" fill="#4F4F4F">
                    <tspan x="0" y="170">04/SET/2019 08:00</tspan>
                </text>
                <text id="04/SET/2019-08:00" font-family="Roboto-Regular, Roboto" font-weight="normal" letter-spacing="0.200000003" fill="#4F4F4F">
                    <tspan x="0" y="219">04/SET/2019 08:00</tspan>
                </text>
            </g>
            <g id="Group-2" transform="translate(461.975418, 21.000000)" font-size="14">
                <text id="Confirmations" font-family="Roboto-Medium, Roboto" font-weight="400" letter-spacing="0.5" fill="#000000">
                    <tspan x="0" y="13">Confirmations</tspan>
                </text>
                <text id="2,452" font-family="Roboto-Regular, Roboto" font-weight="normal" letter-spacing="0.200000003" fill="#4F4F4F">
                    <tspan x="59.0580138" y="63">2,452</tspan>
                </text>
                <text id="2,452" font-family="Roboto-Regular, Roboto" font-weight="normal" letter-spacing="0.200000003" fill="#4F4F4F">
                    <tspan x="59.0580138" y="115">2,452</tspan>
                </text>
                <text id="2,452" font-family="Roboto-Regular, Roboto" font-weight="normal" letter-spacing="0.200000003" fill="#4F4F4F">
                    <tspan x="59.0580138" y="170">2,452</tspan>
                </text>
                <text id="2,452" font-family="Roboto-Regular, Roboto" font-weight="normal" letter-spacing="0.200000003" fill="#4F4F4F">
                    <tspan x="59.0580138" y="219">2,452</tspan>
                </text>
            </g>
            <g id="Group-2" transform="translate(277.975418, 21.000000)" font-size="14">
                <text id="Amount" font-family="Roboto-Medium, Roboto" font-weight="400" letter-spacing="0.5" fill="#000000">
                    <tspan x="0" y="13">Amount</tspan>
                </text>
                <text id="330,000" font-family="Roboto-Regular, Roboto" font-weight="normal" letter-spacing="0.200000003" fill="#4F4F4F">
                    <tspan x="1.73609842" y="63">330,000</tspan>
                </text>
                <text id="330,000" font-family="Roboto-Regular, Roboto" font-weight="normal" letter-spacing="0.200000003" fill="#4F4F4F">
                    <tspan x="1.73609842" y="115">330,000</tspan>
                </text>
                <text id="330,000" font-family="Roboto-Regular, Roboto" font-weight="normal" letter-spacing="0.200000003" fill="#4F4F4F">
                    <tspan x="1.73609842" y="170">330,000</tspan>
                </text>
                <text id="330,000" font-family="Roboto-Regular, Roboto" font-weight="normal" letter-spacing="0.200000003" fill="#4F4F4F">
                    <tspan x="1.73609842" y="219">330,000</tspan>
                </text>
            </g>
            <g id="Group-19" transform="translate(687.975418, 21.000000)" font-size="14">
                <text id="Fees" font-family="Roboto-Medium, Roboto" font-weight="400" letter-spacing="0.5" fill="#000000">
                    <tspan x="0" y="13">Fees</tspan>
                </text>
                <text id="3,765" font-family="Roboto-Regular, Roboto" font-weight="normal" letter-spacing="0.200000003" fill="#4F4F4F">
                    <tspan x="0" y="63">3,765</tspan>
                </text>
                <text id="3,765" font-family="Roboto-Regular, Roboto" font-weight="normal" letter-spacing="0.200000003" fill="#4F4F4F">
                    <tspan x="0" y="115">3,765</tspan>
                </text>
                <text id="3,765" font-family="Roboto-Regular, Roboto" font-weight="normal" letter-spacing="0.200000003" fill="#4F4F4F">
                    <tspan x="0" y="170">3,765</tspan>
                </text>
                <text id="3,765" font-family="Roboto-Regular, Roboto" font-weight="normal" letter-spacing="0.200000003" fill="#4F4F4F">
                    <tspan x="0" y="219">3,765</tspan>
                </text>
            </g>
            <g id="Group-12" transform="translate(854.975418, 21.000000)">
                <text id="Actions" font-family="Roboto-Medium, Roboto" font-size="14" font-weight="400" letter-spacing="0.5" fill="#000000">
                    <tspan x="31.0304818" y="13">Actions</tspan>
                </text>
                <g id="Group-25" transform="translate(0.000000, 43.000000)">
                    <g id="Group-5" fill="#FFFFFF" stroke="#DCDCDC">
                        <rect id="Rectangle-Copy-7" x="0.5" y="0.5" width="91.0904621" height="35" rx="4"></rect>
                    </g>
                    <text id="View-Info" font-family="Roboto-Medium, Roboto" font-size="14" font-weight="400" fill="#4F4F4F">
                        <tspan x="17.1922071" y="23">View Info</tspan>
                    </text>
                </g>
                <g id="Group-25" transform="translate(0.000000, 93.000000)">
                    <g id="Group-5" fill="#FFFFFF" stroke="#DCDCDC">
                        <rect id="Rectangle-Copy-7" x="0.5" y="0.5" width="91.0904621" height="35" rx="4"></rect>
                    </g>
                    <text id="View-Info" font-family="Roboto-Medium, Roboto" font-size="14" font-weight="400" fill="#4F4F4F">
                        <tspan x="17.1922071" y="23">View Info</tspan>
                    </text>
                </g>
                <g id="Group-25" transform="translate(0.000000, 144.000000)">
                    <g id="Group-5" fill="#FFFFFF" stroke="#DCDCDC">
                        <rect id="Rectangle-Copy-7" x="0.5" y="0.5" width="91.0904621" height="35" rx="4"></rect>
                    </g>
                    <text id="View-Info" font-family="Roboto-Medium, Roboto" font-size="14" font-weight="400" fill="#4F4F4F">
                        <tspan x="17.1922071" y="23">View Info</tspan>
                    </text>
                </g>
                <g id="Group-25" transform="translate(0.000000, 193.000000)">
                    <g id="Group-5" fill="#FFFFFF" stroke="#DCDCDC">
                        <rect id="Rectangle-Copy-7" x="0.5" y="0.5" width="91.0904621" height="35" rx="4"></rect>
                    </g>
                    <text id="View-Info" font-family="Roboto-Medium, Roboto" font-size="14" font-weight="400" fill="#4F4F4F">
                        <tspan x="17.1922071" y="23">View Info</tspan>
                    </text>
                </g>
            </g>
            <line x1="0.975417896" y1="56.5" x2="967.289602" y2="56.5" id="Line-2" stroke="#E1E1E1" stroke-linecap="square"></line>
            <line x1="0.975417896" y1="106.5" x2="967.289602" y2="106.5" id="Line-2" stroke="#E1E1E1" stroke-linecap="square"></line>
            <line x1="1.9754179" y1="157.5" x2="968.289602" y2="157.5" id="Line-2-Copy" stroke="#E1E1E1" stroke-linecap="square"></line>
            <line x1="1.9754179" y1="208.5" x2="968.289602" y2="208.5" id="Line-2-Copy-2" stroke="#E1E1E1" stroke-linecap="square"></line>
            <line x1="1.9754179" y1="257.5" x2="968.289602" y2="257.5" id="Line-2-Copy-2" stroke="#E1E1E1" stroke-linecap="square"></line>
            <g id="Group-29" transform="translate(615.975418, 274.000000)" fill="#4F4F4F" font-size="14" font-weight="normal" letter-spacing="0.200000003">
                <text id="Rows-per-page:-10-ca" font-family="Roboto-Regular, Roboto">
                    <tspan x="0" y="13">Rows per page: 10  </tspan>
                    <tspan x="125.336133" y="13" font-family="FontAwesome5Pro-Solid, Font Awesome 5 Pro" font-weight="700">caret-down</tspan>
                </text>
                <text id="1-4-of-4" font-family="Roboto-Regular, Roboto">
                    <tspan x="188" y="13">1-4 of 4</tspan>
                </text>
                <text id="angle-right" font-family="FontAwesome5Pro-Regular, Font Awesome 5 Pro">
                    <tspan x="322" y="13">angle-right</tspan>
                </text>
                <text id="angle-left" font-family="FontAwesome5Pro-Regular, Font Awesome 5 Pro">
                    <tspan x="286" y="13">angle-left</tspan>
                </text>
            </g>
        </g>
        <rect id="Rectangle" fill="#D8D8D8" opacity="0" x="0" y="206" width="218" height="48"></rect>
        <text id="On-chain" font-family="Roboto-Medium, Roboto" font-size="14" font-weight="400" fill="#5E4EA5">
            <tspan x="70" y="235">On-chain</tspan>
        </text>
        <rect id="Rectangle" fill="#D8D8D8" opacity="0" x="0" y="304" width="218" height="48"></rect>
        <text id="On-chain" font-family="Roboto-Regular, Roboto" font-size="14" font-weight="normal" fill="#4A4A4A">
            <tspan x="70" y="333">Advanced</tspan>
        </text>
        <rect id="Rectangle" fill="#D8D8D8" opacity="0" x="0" y="352" width="218" height="48"></rect>
        <text id="On-chain" font-family="Roboto-Regular, Roboto" font-size="14" font-weight="normal" fill="#4A4A4A">
            <tspan x="70" y="381">Help</tspan>
        </text>
        <text id="On-chain-Copy" font-family="Roboto-Regular, Roboto" font-size="14" font-weight="normal" fill="#474747">
            <tspan x="70" y="283">Lightning</tspan>
        </text>
        <text id="Dashboard" font-family="Roboto-Regular, Roboto" font-size="14" font-weight="normal" fill="#4A4A4A">
            <tspan x="70" y="185">Dashboard</tspan>
        </text>
        <g id="Group-18" transform="translate(24.000000, 117.000000)">
            <text id="Dashboard" font-family="Roboto-Regular, Roboto" font-size="16" font-weight="normal" fill="#181818">
                <tspan x="0" y="15">Amora_UK01</tspan>
            </text>
            <path d="M99.6365126,7 L107.823305,7 C108.389692,7 108.672855,7.6718734 108.271959,8.06561025 L104.180132,12.0874818 C103.931957,12.3312251 103.527861,12.3312251 103.279686,12.0874818 L99.1878898,8.06561025 C98.786963,7.6718734 99.0701566,7 99.6365126,7 Z" id="c" fill="#4B4B4B" fill-rule="nonzero"></path>
        </g>
        <line x1="0.5" y1="414.5" x2="218.5" y2="414.5" id="Line-3" stroke="#E6E6E6" stroke-linecap="square"></line>
        <text id="tachometer-alt-fast" font-family="FontAwesome5Pro-Solid, Font Awesome 5 Pro" font-size="14" font-weight="700" fill="#858585">
            <tspan x="24" y="184">tachometer-alt-fast</tspan>
        </text>
        <text id="link" font-family="FontAwesome5Pro-Solid, Font Awesome 5 Pro" font-size="14" font-weight="700" fill="#5E4EA5">
            <tspan x="25" y="233">link</tspan>
        </text>
        <text id="cog" font-family="FontAwesome5Pro-Solid, Font Awesome 5 Pro" font-size="14" font-weight="700" fill="#858585">
            <tspan x="25" y="332">cog</tspan>
        </text>
        <text id="life-ring" font-family="FontAwesome5Pro-Solid, Font Awesome 5 Pro" font-size="14" font-weight="700" fill="#858585">
            <tspan x="25" y="379">life-ring</tspan>
        </text>
        <text id="bolt" font-family="FontAwesome5Pro-Solid, Font Awesome 5 Pro" font-size="14" font-weight="700" fill="#858585">
            <tspan x="28" y="282">bolt</tspan>
        </text>
    </g>
</svg>