<?xml version="1.0" encoding="UTF-8"?>
<svg width="1284px" height="724px" viewBox="0 0 1284 724" version="1.1" xmlns="http://www.w3.org/2000/svg" xmlns:xlink="http://www.w3.org/1999/xlink">
    <!-- Generator: Sketch 58 (84663) - https://sketch.com -->
    <title>onchain_nav02_01_1_send</title>
    <desc>Created with Sketch.</desc>
    <defs>
        <rect id="path-1" x="0" y="91" width="218" height="633"></rect>
        <filter x="-6.7%" y="-2.0%" width="113.3%" height="104.6%" filterUnits="objectBoundingBox" id="filter-2">
            <feOffset dx="0" dy="2" in="SourceAlpha" result="shadowOffsetOuter1"></feOffset>
            <feGaussianBlur stdDeviation="4.5" in="shadowOffsetOuter1" result="shadowBlurOuter1"></feGaussianBlur>
            <feColorMatrix values="0 0 0 0 0.508718297   0 0 0 0 0.508320861   0 0 0 0 0.508320861  0 0 0 0.5 0" type="matrix" in="shadowBlurOuter1"></feColorMatrix>
        </filter>
        <rect id="path-3" x="0" y="38" width="1284" height="53"></rect>
        <filter x="-0.8%" y="-15.1%" width="101.6%" height="137.7%" filterUnits="objectBoundingBox" id="filter-4">
            <feOffset dx="0" dy="2" in="SourceAlpha" result="shadowOffsetOuter1"></feOffset>
            <feGaussianBlur stdDeviation="3" in="shadowOffsetOuter1" result="shadowBlurOuter1"></feGaussianBlur>
            <feColorMatrix values="0 0 0 0 0   0 0 0 0 0   0 0 0 0 0  0 0 0 0.5 0" type="matrix" in="shadowBlurOuter1"></feColorMatrix>
        </filter>
        <rect id="path-5" x="1" y="142" width="105" height="36" rx="4"></rect>
        <filter x="-3.8%" y="-5.6%" width="107.6%" height="122.2%" filterUnits="objectBoundingBox" id="filter-6">
            <feOffset dx="0" dy="2" in="SourceAlpha" result="shadowOffsetOuter1"></feOffset>
            <feGaussianBlur stdDeviation="1" in="shadowOffsetOuter1" result="shadowBlurOuter1"></feGaussianBlur>
            <feColorMatrix values="0 0 0 0 0   0 0 0 0 0   0 0 0 0 0  0 0 0 0.257457386 0" type="matrix" in="shadowBlurOuter1"></feColorMatrix>
        </filter>
    </defs>
    <g id="onchain_nav02_01_1_send" stroke="none" stroke-width="1" fill="none" fill-rule="evenodd">
        <rect fill="#1D1E1F" x="0" y="0" width="1284" height="724"></rect>
        <rect id="Background" fill="#F2F5F6" x="0" y="38" width="1284" height="686"></rect>
        <g id="Rectangle">
            <use fill="black" fill-opacity="1" filter="url(#filter-2)" xlink:href="#path-1"></use>
            <use fill="#FFFFFF" fill-rule="evenodd" xlink:href="#path-1"></use>
        </g>
        <g id="Rectangle-13">
            <use fill="black" fill-opacity="1" filter="url(#filter-4)" xlink:href="#path-3"></use>
            <use fill="#5E4EA5" fill-rule="evenodd" xlink:href="#path-3"></use>
        </g>
        <g id="Browser">
            <path d="M0,6.00024414 C0,2.68640081 2.6794487,0 5.99234946,0 L1278.00765,0 C1281.31713,0 1284,2.68722626 1284,6.00024414 L1284,38 L0,38 L0,6.00024414 Z" id="Tab-BG---Right" fill="#363738"></path>
            <circle id="Dot---Red" fill="#FF5F57" cx="18" cy="19" r="6"></circle>
            <circle id="Dot---Orange" fill="#FFBF2F" cx="38" cy="19" r="6"></circle>
            <circle id="Dot---Green" fill="#28CA42" cx="58" cy="19" r="6"></circle>
            <g id="Back" transform="translate(76.000000, 7.000000)">
                <rect id="Rectangle" fill="#656668" x="0" y="0" width="28" height="24" rx="4"></rect>
                <path d="M10.1607883,11.3246277 L15.780455,5.65901618 C15.9603839,5.47908726 16.2513057,5.47908726 16.4312347,5.65901618 L17.1891941,6.41697565 C17.3691231,6.59690457 17.3691231,6.88782642 17.1891941,7.06775535 L12.6528768,11.6500175 L17.1891941,16.2322797 C17.3691231,16.4122086 17.3691231,16.7031305 17.1891941,16.8830594 L16.4312347,17.6410189 C16.2513057,17.8209478 15.9603839,17.8209478 15.780455,17.6410189 L10.1607883,11.9754074 C9.98085942,11.7954785 9.98085942,11.5045566 10.1607883,11.3246277 Z" id="a" fill="#FFFFFF" fill-rule="nonzero"></path>
            </g>
            <g id="Forward" transform="translate(105.000000, 7.000000)">
                <rect id="Rectangle" fill="#656668" x="0" y="0" width="28" height="24" rx="4"></rect>
                <path d="M18.1891941,11.9754074 L12.5695275,17.6410189 C12.3895986,17.8209478 12.0986767,17.8209478 11.9187478,17.6410189 L11.1607883,16.8830594 C10.9808594,16.7031305 10.9808594,16.4122086 11.1607883,16.2322797 L15.6971057,11.6500175 L11.1607883,7.06775535 C10.9808594,6.88782642 10.9808594,6.59690457 11.1607883,6.41697565 L11.9187478,5.65901618 C12.0986767,5.47908726 12.3895986,5.47908726 12.5695275,5.65901618 L18.1891941,11.3246277 C18.3691231,11.5045566 18.3691231,11.7954785 18.1891941,11.9754074 Z" id="a" fill="#FFFFFF" fill-rule="nonzero" opacity="0.200334821"></path>
            </g>
            <g id="New-Tab" transform="translate(1260.000000, 14.000000)">
                <rect id="Rectangle" fill="#292A2B" x="0" y="0" width="24" height="24"></rect>
                <path d="M16.2531029,11.6843877 C16.3618742,11.6843877 16.4499775,11.7724909 16.4499775,11.8812622 L16.4499775,12.6687603 C16.4499775,12.7775316 16.3618742,12.8656349 16.2531029,12.8656349 L12.3156123,12.8656349 L12.3156123,16.8031255 C12.3156123,16.9118967 12.2275091,17 12.1187378,17 L11.3312397,17 C11.2224684,17 11.1343651,16.9118967 11.1343651,16.8031255 L11.1343651,12.8656349 L7.19687453,12.8656349 C7.08810328,12.8656349 7,12.7775316 7,12.6687603 L7,11.8812622 C7,11.7724909 7.08810328,11.6843877 7.19687453,11.6843877 L11.1343651,11.6843877 L11.1343651,7.74689706 C11.1343651,7.63812581 11.2224684,7.55002253 11.3312397,7.55002253 L12.1187378,7.55002253 C12.2275091,7.55002253 12.3156123,7.63812581 12.3156123,7.74689706 L12.3156123,11.6843877 L16.2531029,11.6843877 Z" id="p" fill="#FFFFFF" fill-rule="nonzero" opacity="0.497907366"></path>
            </g>
            <g id="URL" transform="translate(378.000000, 7.000000)">
                <path d="M0,3.99005301 C0,1.78640758 1.78094395,5.31029755e-14 3.99753941,5.28693238e-14 L516.002461,-1.1012102e-15 C518.210241,-1.33393271e-15 520,1.78429328 520,3.99005301 L520,20.009947 C520,22.2135924 518.219056,24 516.002461,24 L3.99753941,24 C1.78975936,24 0,22.2157067 0,20.009947 L0,3.99005301 Z" id="URL-Bar" fill="#696A6B"></path>
                <path d="M512.304658,5.17186422 C512.467743,5.17186422 512.59997,5.30412783 512.59997,5.46721261 L512.59997,10.1922013 C512.59997,10.3552861 512.467743,10.4875131 512.304658,10.4875131 L507.579669,10.4875131 C507.416585,10.4875131 507.284358,10.3552861 507.284358,10.1922013 L507.284358,9.51027815 C507.284358,9.34440559 507.42091,9.21109712 507.586711,9.21503845 L510.69705,9.2890827 C509.940722,7.61516854 508.257531,6.45158527 506.299985,6.45158527 C503.633864,6.45158527 501.476559,8.60927437 501.476559,11.2750113 C501.476559,13.9411327 503.634248,16.0984373 506.299985,16.0984373 C507.533046,16.0984373 508.65724,15.6369165 509.509554,14.8770557 C509.6264,14.7728747 509.804938,14.7799403 509.915632,14.8906341 L510.401377,15.3763797 C510.521276,15.4962781 510.51534,15.6917347 510.389505,15.8053845 C509.307296,16.7829079 507.873155,17.3781217 506.299985,17.3781217 C502.93257,17.3781217 500.202138,14.6509336 500.19686,11.2847685 C500.191635,7.92836054 502.924087,5.18242707 506.280471,5.17186422 C508.411171,5.16526784 510.288545,6.2506252 511.385221,7.89993005 L511.327471,5.47425415 C511.32353,5.30842965 511.456862,5.17186422 511.622711,5.17186422 L512.304658,5.17186422 Z" id="r" fill="#FFFFFF" fill-rule="nonzero" transform="translate(506.398415, 11.274993) rotate(-45.000000) translate(-506.398415, -11.274993) "></path>
                <text id="Ride-the-Lightning" font-family="Roboto-Regular, Roboto" font-size="12.6" font-weight="normal" fill="#FFFFFF">
                    <tspan x="210" y="17">Ride the Lightning</tspan>
                </text>
            </g>
        </g>
        <text id="Dashboard" font-family="FontAwesome5Pro-Regular, Font Awesome 5 Pro" font-size="18" font-weight="normal" fill="#FFFFFF">
            <tspan x="24" y="71">bars</tspan>
        </text>
        <g id="RTL-Logo" transform="translate(1210.000000, 56.000000)" fill="#FFFFFF">
            <path d="M5.10234375,10.1960631 L3.54375,10.1960631 L2.80546875,14.4124693 L0,14.4124693 L2.0671875,2.46871933 L6.28359375,2.47692246 C7.63438175,2.47692246 8.67480104,2.79273961 9.40488281,3.4243834 C10.1349646,4.05602718 10.4617191,4.91871386 10.3851562,6.01246933 C10.3249997,6.87653615 10.0761741,7.59156807 9.63867187,8.15758652 C9.20116969,8.72360498 8.58867581,9.17067082 7.80117187,9.49879746 L9.40898437,14.2730162 L9.40898437,14.4124693 L6.41484375,14.4124693 L5.10234375,10.1960631 Z M3.92109375,7.97301621 L5.56171875,7.98942246 C6.01015849,7.98942246 6.39980303,7.88004855 6.73066406,7.66129746 C7.06152509,7.44254636 7.29804616,7.1431353 7.44023438,6.76305527 C7.58242259,6.38297525 7.6234378,6.01520549 7.56328125,5.65973496 C7.4539057,5.05270067 7.06562834,4.732782 6.3984375,4.69996933 L4.4953125,4.69176621 L3.92109375,7.97301621 Z M21.0984375,4.69176621 L17.6203125,4.69176621 L15.9386719,14.4124693 L13.125,14.4124693 L14.8148438,4.69176621 L11.3941406,4.69176621 L11.7878906,2.46871933 L21.4839844,2.46871933 L21.0984375,4.69176621 Z M23.8464844,12.1976256 L28.7109375,12.1976256 L28.3253906,14.4124693 L20.6554688,14.4124693 L22.7226562,2.46871933 L25.5363281,2.46871933 L23.8464844,12.1976256 Z" id="RTL-Copy" fill-rule="nonzero"></path>
            <path d="M37.882011,5.59373905 C38.4131621,5.59373905 38.7433371,6.1708163 38.4763316,6.62733033 L33.4232186,15.3554345 C33.2968796,15.5736259 33.0671926,15.699965 32.8260382,15.699965 C32.3867394,15.699965 32.0537046,15.2894051 32.1570525,14.8529943 L33.4806404,9.26873029 L30.0726546,9.26873029 C29.656347,9.26873029 29.3347797,8.90123677 29.3893415,8.48778904 L30.3080893,1.59718047 C30.3540155,1.25553795 30.646872,1 30.9914024,1 L35.1257676,1 C35.5765338,1 35.9067088,1.43066304 35.7918653,1.86707385 L34.5687655,5.59373905 L37.882011,5.59373905 Z" id="b-copy" fill-rule="nonzero"></path>
            <text id="caret-down-copy" font-family="FontAwesome5Pro-Solid, Font Awesome 5 Pro" font-size="16" font-weight="700">
                <tspan x="46" y="14">caret-down</tspan>
            </text>
        </g>
        <g id="Group-10" transform="translate(70.000000, 55.000000)">
            <g id="Group-9">
                <g id="Group-6" transform="translate(1.000000, 0.000000)">
                    <g id="Group-3">
                        <circle id="Oval" fill="#28CA42" cx="5" cy="8" r="5"></circle>
                        <text id="NODE:-AMORA_[UK01]" font-family="Roboto-Bold, Roboto" font-size="14" font-weight="bold" letter-spacing="1.20000005" fill="#FFFFFF">
                            <tspan x="15.8318355" y="13">NODE: AMORA_[UK01]</tspan>
                        </text>
                    </g>
                </g>
                <rect id="Rectangle" fill="#FFFFFF" x="0" y="30" width="181" height="5"></rect>
            </g>
            <g id="Group-6" transform="translate(211.000000, 0.000000)">
                <g id="Group-3">
                    <circle id="Oval" fill="#28CA42" cx="5" cy="8" r="5"></circle>
                    <text id="NODE:-AMORA_[UK01]" font-family="Roboto-Medium, Roboto" font-size="14" font-weight="400" letter-spacing="1.20000005" fill="#FFFFFF">
                        <tspan x="16.2556636" y="13">NODE: AMORA_[UK01]</tspan>
                    </text>
                </g>
            </g>
        </g>
        <g id="Group-5" transform="translate(13.000000, 675.000000)">
            <rect id="Rectangle-Copy-7" stroke="#DCDCDC" fill="#FFFFFF" x="0.5" y="0.5" width="190" height="35" rx="4"></rect>
            <text id="Show-Public-Key" font-family="Roboto-Medium, Roboto" font-size="14" font-weight="400" fill="#4F4F4F">
                <tspan x="44.7280273" y="23">Show Public Key</tspan>
            </text>
        </g>
        <text id="Transactions" font-family="Roboto-Regular, Roboto" font-size="16" font-weight="normal" fill="#84979E">
            <tspan x="274" y="133">Transactions</tspan>
        </text>
        <path d="M265.890129,124.765187 C266.036552,124.618733 266.036583,124.381307 265.890129,124.234854 L262.999969,121.359861 C262.853515,121.213438 262.616089,121.213438 262.469636,121.359861 L262.248689,121.580807 C262.102236,121.727291 262.102236,121.964717 262.248689,122.11114 L264.153256,124.000021 L250.374999,124.000021 C250.167907,124.000021 250,124.167929 250,124.375021 L250,124.62502 C250,124.832112 250.167907,125.000019 250.374999,125.000019 L264.152859,125.000019 L262.248689,126.8889 C262.102236,127.035354 262.102236,127.27278 262.248689,127.419233 L262.469666,127.64018 C262.616089,127.786603 262.853515,127.786603 262.999969,127.64018 L265.890129,124.765187 Z M250.109833,129.765175 C249.963379,129.618721 249.96341,129.381295 250.109833,129.234842 L252.999993,126.359849 C253.146416,126.213395 253.383873,126.213426 253.530296,126.359849 L253.751273,126.580795 C253.897726,126.727279 253.897726,126.964706 253.751273,127.111129 L251.847103,129.00001 L265.624963,129.00001 C265.832055,129.00001 265.999962,129.167917 265.999962,129.375009 L265.999962,129.625008 C265.999962,129.8321 265.832055,130.000007 265.624963,130.000007 L251.846706,130.000007 L253.751273,131.888888 C253.897726,132.035342 253.897726,132.272768 253.751273,132.419221 L253.530326,132.640168 C253.383873,132.786591 253.146446,132.786591 252.999993,132.640168 L250.109833,129.765175 Z" id="e" fill="#84979E" fill-rule="nonzero"></path>
        <path d="M247.12777,154.5 C245.57762,154.5 244.940578,154.623018 244.282108,154.975172 C243.71739,155.277186 243.277186,155.71739 242.975172,156.282108 C242.623018,156.940578 242.5,157.57762 242.5,159.12777 L242.5,762.87223 C242.5,764.42238 242.623018,765.059422 242.975172,765.717892 C243.277186,766.28261 243.71739,766.722814 244.282108,767.024828 C244.940578,767.376982 245.57762,767.5 247.12777,767.5 L990.87223,767.5 C992.42238,767.5 993.059422,767.376982 993.717892,767.024828 C994.28261,766.722814 994.722814,766.28261 995.024828,765.717892 C995.376982,765.059422 995.5,764.42238 995.5,762.87223 L995.5,159.12777 C995.5,157.57762 995.376982,156.940578 995.024828,156.282108 C994.722814,155.71739 994.28261,155.277186 993.717892,154.975172 C993.059422,154.623018 992.42238,154.5 990.87223,154.5 L247.12777,154.5 Z" id="Rectangle" stroke="#DEDEDE" fill="#FFFFFF"></path>
        <path d="M400,202.5 L996,202.5" id="Line" stroke="#D7D7D7" stroke-linecap="square"></path>
        <rect id="Rectangle" fill="#5E4EA5" x="242" y="201" width="160" height="2"></rect>
        <rect id="Rectangle" fill="#59316B" opacity="0" x="402" y="201" width="160" height="2"></rect>
        <rect id="Rectangle" fill="#59316B" opacity="0" x="562" y="201" width="160" height="2"></rect>
        <text id="Send" font-family="Roboto-Medium, Roboto" font-size="14" font-weight="400" fill="#5E4EA5">
            <tspan x="306.174805" y="184">Send</tspan>
        </text>
        <text id="Receive" font-family="Roboto-Regular, Roboto" font-size="14" font-weight="normal" fill="#979797">
            <tspan x="457.811035" y="184">Receive</tspan>
        </text>
        <g id="Group-16" transform="translate(562.000000, 171.000000)">
            <rect id="Rectangle" fill="#59316B" opacity="0" x="0" y="30" width="160" height="2"></rect>
            <text id="Cashout" font-family="Roboto-Regular, Roboto" font-size="14" font-weight="normal" fill="#979797">
                <tspan x="54.0336914" y="13">Cashout</tspan>
            </text>
        </g>
        <g id="Group-4" transform="translate(267.000000, 438.000000)">
            <path d="M5.1277704,32.5 C3.5776195,32.5 2.94057806,32.6230184 2.28210802,32.975172 C1.71739041,33.2771863 1.27718629,33.7173904 0.975172007,34.282108 C0.623018378,34.9405781 0.5,35.5776195 0.5,37.1277704 L0.5,284.87223 C0.5,286.42238 0.623018378,287.059422 0.975172007,287.717892 C1.27718629,288.28261 1.71739041,288.722814 2.28210802,289.024828 C2.94057806,289.376982 3.5776195,289.5 5.1277704,289.5 L699.87223,289.5 C701.42238,289.5 702.059422,289.376982 702.717892,289.024828 C703.28261,288.722814 703.722814,288.28261 704.024828,287.717892 C704.376982,287.059422 704.5,286.42238 704.5,284.87223 L704.5,37.1277704 C704.5,35.5776195 704.376982,34.9405781 704.024828,34.282108 C703.722814,33.7173904 703.28261,33.2771863 702.717892,32.975172 C702.059422,32.6230184 701.42238,32.5 699.87223,32.5 L5.1277704,32.5 Z" id="Rectangle" stroke="#DEDEDE" fill="#FFFFFF"></path>
            <g id="Group-10" transform="translate(21.000000, 53.000000)" font-size="14">
                <text id="Date/Time" font-family="Roboto-Medium, Roboto" font-weight="400" letter-spacing="0.5" fill="#000000">
                    <tspan x="0" y="13">Date/Time</tspan>
                </text>
                <text id="04/SET/2019-08:00" font-family="Roboto-Regular, Roboto" font-weight="normal" letter-spacing="0.200000003" fill="#4F4F4F">
                    <tspan x="0" y="63">04/SET/2019 08:00</tspan>
                </text>
                <text id="04/SET/2019-08:00" font-family="Roboto-Regular, Roboto" font-weight="normal" letter-spacing="0.200000003" fill="#4F4F4F">
                    <tspan x="0" y="115">04/SET/2019 08:00</tspan>
                </text>
                <text id="04/SET/2019-08:00" font-family="Roboto-Regular, Roboto" font-weight="normal" letter-spacing="0.200000003" fill="#4F4F4F">
                    <tspan x="0" y="170">04/SET/2019 08:00</tspan>
                </text>
                <text id="04/SET/2019-08:00" font-family="Roboto-Regular, Roboto" font-weight="normal" letter-spacing="0.200000003" fill="#4F4F4F">
                    <tspan x="0" y="219">04/SET/2019 08:00</tspan>
                </text>
            </g>
            <g id="Group-2" transform="translate(329.000000, 53.000000)" font-size="14">
                <text id="Confirmations" font-family="Roboto-Medium, Roboto" font-weight="400" letter-spacing="0.5" fill="#000000">
                    <tspan x="0" y="13">Confirmations</tspan>
                </text>
                <text id="2,452" font-family="Roboto-Regular, Roboto" font-weight="normal" letter-spacing="0.200000003" fill="#4F4F4F">
                    <tspan x="59" y="63">2,452</tspan>
                </text>
                <text id="2,452" font-family="Roboto-Regular, Roboto" font-weight="normal" letter-spacing="0.200000003" fill="#4F4F4F">
                    <tspan x="59" y="115">2,452</tspan>
                </text>
                <text id="2,452" font-family="Roboto-Regular, Roboto" font-weight="normal" letter-spacing="0.200000003" fill="#4F4F4F">
                    <tspan x="59" y="170">2,452</tspan>
                </text>
                <text id="2,452" font-family="Roboto-Regular, Roboto" font-weight="normal" letter-spacing="0.200000003" fill="#4F4F4F">
                    <tspan x="59" y="219">2,452</tspan>
                </text>
            </g>
            <g id="Group-2" transform="translate(212.000000, 53.000000)" font-size="14">
                <text id="Amount" font-family="Roboto-Medium, Roboto" font-weight="400" letter-spacing="0.5" fill="#000000">
                    <tspan x="0" y="13">Amount</tspan>
                </text>
                <text id="330,000" font-family="Roboto-Regular, Roboto" font-weight="normal" letter-spacing="0.200000003" fill="#4F4F4F">
                    <tspan x="1.68398435" y="63">330,000</tspan>
                </text>
                <text id="330,000" font-family="Roboto-Regular, Roboto" font-weight="normal" letter-spacing="0.200000003" fill="#4F4F4F">
                    <tspan x="1.68398435" y="115">330,000</tspan>
                </text>
                <text id="330,000" font-family="Roboto-Regular, Roboto" font-weight="normal" letter-spacing="0.200000003" fill="#4F4F4F">
                    <tspan x="1.68398435" y="170">330,000</tspan>
                </text>
                <text id="330,000" font-family="Roboto-Regular, Roboto" font-weight="normal" letter-spacing="0.200000003" fill="#4F4F4F">
                    <tspan x="1.68398435" y="219">330,000</tspan>
                </text>
            </g>
            <g id="Group-19" transform="translate(489.000000, 53.000000)" font-size="14">
                <text id="Fees" font-family="Roboto-Medium, Roboto" font-weight="400" letter-spacing="0.5" fill="#000000">
                    <tspan x="0" y="13">Fees</tspan>
                </text>
                <text id="3,765" font-family="Roboto-Regular, Roboto" font-weight="normal" letter-spacing="0.200000003" fill="#4F4F4F">
                    <tspan x="0" y="63">3,765</tspan>
                </text>
                <text id="3,765" font-family="Roboto-Regular, Roboto" font-weight="normal" letter-spacing="0.200000003" fill="#4F4F4F">
                    <tspan x="0" y="115">3,765</tspan>
                </text>
                <text id="3,765" font-family="Roboto-Regular, Roboto" font-weight="normal" letter-spacing="0.200000003" fill="#4F4F4F">
                    <tspan x="0" y="170">3,765</tspan>
                </text>
                <text id="3,765" font-family="Roboto-Regular, Roboto" font-weight="normal" letter-spacing="0.200000003" fill="#4F4F4F">
                    <tspan x="0" y="219">3,765</tspan>
                </text>
            </g>
            <g id="Group-12" transform="translate(589.000000, 53.000000)">
                <text id="Actions" font-family="Roboto-Medium, Roboto" font-size="14" font-weight="400" letter-spacing="0.5" fill="#000000">
                    <tspan x="31" y="13">Actions</tspan>
                </text>
                <g id="Group-25" transform="translate(0.000000, 43.000000)">
                    <g id="Group-5" fill="#FFFFFF" stroke="#DCDCDC">
                        <rect id="Rectangle-Copy-7" x="0.5" y="0.5" width="91" height="35" rx="4"></rect>
                    </g>
                    <text id="View-Info" font-family="Roboto-Medium, Roboto" font-size="14" font-weight="400" fill="#4F4F4F">
                        <tspan x="17.1464844" y="23">View Info</tspan>
                    </text>
                </g>
                <g id="Group-25" transform="translate(0.000000, 93.000000)">
                    <g id="Group-5" fill="#FFFFFF" stroke="#DCDCDC">
                        <rect id="Rectangle-Copy-7" x="0.5" y="0.5" width="91" height="35" rx="4"></rect>
                    </g>
                    <text id="View-Info" font-family="Roboto-Medium, Roboto" font-size="14" font-weight="400" fill="#4F4F4F">
                        <tspan x="17.1464844" y="23">View Info</tspan>
                    </text>
                </g>
                <g id="Group-25" transform="translate(0.000000, 144.000000)">
                    <g id="Group-5" fill="#FFFFFF" stroke="#DCDCDC">
                        <rect id="Rectangle-Copy-7" x="0.5" y="0.5" width="91" height="35" rx="4"></rect>
                    </g>
                    <text id="View-Info" font-family="Roboto-Medium, Roboto" font-size="14" font-weight="400" fill="#4F4F4F">
                        <tspan x="17.1464844" y="23">View Info</tspan>
                    </text>
                </g>
                <g id="Group-25" transform="translate(0.000000, 193.000000)">
                    <g id="Group-5" fill="#FFFFFF" stroke="#DCDCDC">
                        <rect id="Rectangle-Copy-7" x="0.5" y="0.5" width="91" height="35" rx="4"></rect>
                    </g>
                    <text id="View-Info" font-family="Roboto-Medium, Roboto" font-size="14" font-weight="400" fill="#4F4F4F">
                        <tspan x="17.1464844" y="23">View Info</tspan>
                    </text>
                </g>
            </g>
            <path d="M1,88.5 L705.5,88.5" id="Line-2" stroke="#E1E1E1" stroke-linecap="square"></path>
            <path d="M1,138.5 L705.5,138.5" id="Line-2" stroke="#E1E1E1" stroke-linecap="square"></path>
            <path d="M1,190.5 L705.5,190.5" id="Line-2" stroke="#E1E1E1" stroke-linecap="square"></path>
            <path d="M1,239.5 L705.5,239.5" id="Line-2" stroke="#E1E1E1" stroke-linecap="square"></path>
            <g id="Group-17" transform="translate(3.000000, 0.000000)" fill="#84979E">
                <path d="M10.7499744,8.50001431 C10.8874862,8.50001431 10.9999738,8.61250302 10.9999738,8.7500149 L10.9999738,9.25001371 C10.9999738,9.38752559 10.8874862,9.50001431 10.7499744,9.50001431 L3.24999225,9.50001431 C3.11248037,9.50001431 2.99999285,9.38752559 2.99999285,9.25001371 L2.99999285,8.7500149 C2.99999285,8.61250302 3.11248037,8.50001431 3.24999225,8.50001431 L10.7499744,8.50001431 Z M10.7499744,11.5000072 C10.8874862,11.5000072 10.9999738,11.6124959 10.9999738,11.7500077 L10.9999738,12.2500066 C10.9999738,12.3875184 10.8874862,12.5000072 10.7499744,12.5000072 L3.24999225,12.5000072 C3.11248037,12.5000072 2.99999285,12.3875184 2.99999285,12.2500066 L2.99999285,11.7500077 C2.99999285,11.6124959 3.11248037,11.5000072 3.24999225,11.5000072 L10.7499744,11.5000072 Z M13.0655816,1.00003338 C13.5530988,1.00003338 13.9999666,1.39065745 13.996886,1.93441836 L13.996886,16.0687536 C13.996886,16.61874 13.5499555,16.9999952 13.0655816,16.9999952 C12.8812254,16.9999952 12.6937258,16.9437515 12.524964,16.8218646 L11.1655923,15.843748 L9.95935736,16.7124898 C9.69684578,16.9031327 9.39060261,16.9968824 9.08435944,16.9968824 C8.77811628,16.9968824 8.46872981,16.8999894 8.20621823,16.7124898 L6.99998331,15.843748 L5.79374839,16.7124898 C5.53123681,16.9031327 5.22499365,16.9968824 4.91875048,16.9968824 C4.60936401,16.9968824 4.30312084,16.8999894 4.04060926,16.7124898 L2.83437435,15.843748 L1.47500259,16.8218646 C1.303128,16.9437515 1.11562844,16.9999952 0.934384979,16.9999952 C0.446867831,16.9999952 0,16.6093712 0,16.0687536 L0,1.93441836 C0,1.38440136 0.450011134,1.00314616 0.934384979,1.00003338 C1.11874123,1.00003338 1.30624078,1.05627714 1.47500259,1.17816406 L2.83437435,2.15628062 L4.04060926,1.2875388 C4.30312084,1.09689594 4.60936401,1.00314616 4.91560718,1.00314616 C5.22185034,1.00314616 5.53123681,1.10003924 5.79374839,1.2875388 L6.99998331,2.15628062 L8.20621823,1.2875388 C8.46872981,1.09689594 8.77497298,1.00314616 9.08121614,1.00314616 C9.39060261,1.00314616 9.69684578,1.10003924 9.95935736,1.2875388 L11.1655923,2.15628062 L12.524964,1.17816406 C12.6968386,1.05627714 12.8843382,1.00003338 13.0655816,1.00003338 Z M12.999969,15.9312417 L12.999969,2.06878693 L11.749972,2.96877868 L11.1687356,3.39065268 L10.5843559,2.96877868 L9.37809043,2.10314965 C9.29059675,2.04064979 9.19059088,2.00628708 9.08435944,2.00628708 C8.97809749,2.00628708 8.87809163,2.03753701 8.79059794,2.10003686 L7.58436302,2.96877868 L6.99998331,3.39065268 L6.4156036,2.96877868 L5.20936868,2.10314965 C5.121875,2.04064979 5.02186913,2.00628708 4.91560718,2.00628708 C4.81248853,2.00628708 4.71248266,2.03753701 4.62498897,2.10003686 L3.41875406,2.96877868 L2.83437435,3.39065268 L2.24999464,2.96877868 L0.999997616,2.06878693 L0.999997616,15.9500099 L2.24999464,15.0312499 L2.83123104,14.6093759 L3.41561075,15.0312499 L4.62187619,15.896879 C4.70936988,15.9593788 4.80937574,15.9937415 4.91560718,15.9937415 C5.02186913,15.9937415 5.121875,15.9624916 5.20936868,15.8999918 L6.4156036,15.0312499 L6.99998331,14.6093759 L7.58436302,15.0312499 L8.79059794,15.896879 C8.87809163,15.9593788 8.97809749,15.9937415 9.08435944,15.9937415 C9.1874781,15.9937415 9.28748396,15.9624916 9.37497765,15.8999918 L10.5812126,15.0312499 L11.1655923,14.6093759 L11.749972,15.0312499 L12.999969,15.9312417 Z M10.7499744,5.50002146 C10.8874862,5.50002146 10.9999738,5.61251017 10.9999738,5.75002205 L10.9999738,6.25002086 C10.9999738,6.38753274 10.8874862,6.50002146 10.7499744,6.50002146 L3.24999225,6.50002146 C3.11248037,6.50002146 2.99999285,6.38753274 2.99999285,6.25002086 L2.99999285,5.75002205 C2.99999285,5.61251017 3.11248037,5.50002146 3.24999225,5.50002146 L10.7499744,5.50002146 Z" id="r" fill-rule="nonzero"></path>
                <text id="Sent-History" font-family="Roboto-Regular, Roboto" font-size="16" font-weight="normal">
                    <tspan x="21" y="15">Sent History</tspan>
                </text>
            </g>
        </g>
        <rect id="Rectangle" fill="#D8D8D8" opacity="0" x="0" y="152" width="218" height="48"></rect>
        <path d="M33.5919786,174.158071 C33.2956307,173.861723 32.9623795,173.624175 32.6069383,173.4458 C32.481622,173.382888 32.3297898,173.409377 32.2306689,173.508525 L32.1110403,173.628153 C31.8781117,173.861109 31.7430221,174.1554 31.7059586,174.459519 C31.6889756,174.598881 31.758937,174.736053 31.8853481,174.797122 C32.0783027,174.890395 32.3577744,175.089198 32.5091793,175.24087 C33.4054327,176.137123 33.4038038,177.594216 32.5091793,178.489027 L30.4531959,180.545278 C29.5533911,181.444522 28.1009715,181.440917 27.2047715,180.545278 C26.3055274,179.645446 26.3091323,178.193027 27.2047715,177.296853 L28.4584688,176.04345 C28.5385772,175.963341 28.5724364,175.847398 28.5460006,175.737249 C28.4786027,175.455721 28.4204707,174.99232 28.4162249,174.702888 C28.4120059,174.414525 28.0601429,174.275109 27.8560799,174.478878 L26.1222393,176.214027 L26.1222393,176.214027 C24.6255998,177.710694 24.6262407,180.132372 26.1222393,181.62781 C27.6185851,183.124743 30.0404238,183.123408 31.5360219,181.62781 L33.7641543,179.389238 C33.7995504,179.349308 33.8234441,179.319233 33.8585795,179.275719 C35.0788448,177.775288 34.9890166,175.555082 33.5919786,174.158071 Z" id="Path" fill="#5E4EA5" fill-rule="nonzero"></path>
        <path d="M37.8777273,169.872215 C39.373726,171.36768 39.3743668,173.789358 37.877754,175.286024 L36.1439134,177.021173 L36.1439134,177.021173 C35.9398505,177.224943 35.5879875,177.085527 35.5837684,176.797163 C35.5795227,176.507732 35.5213906,176.044331 35.4539927,175.762803 C35.4275569,175.652654 35.4614161,175.53671 35.5415245,175.456602 L36.7951951,174.203172 C37.6908343,173.306998 37.6944392,171.854579 36.7951951,170.954747 C35.8989952,170.059108 34.4465755,170.055503 33.5467707,170.954747 L31.4907873,173.010998 C30.5961628,173.905809 30.5945339,175.362902 31.4907873,176.259155 C31.6421923,176.410827 31.9216639,176.60963 32.1146185,176.702903 C32.2410296,176.763972 32.310991,176.901144 32.294008,177.040506 C32.2569445,177.344625 32.1218817,177.638943 31.8889263,177.871872 L31.7692977,177.9915 C31.6701234,178.090621 31.5183179,178.117137 31.3930283,178.054225 C31.0375871,177.87585 30.7043359,177.638302 30.4079881,177.341954 C29.0608443,175.994836 28.9292055,173.882273 30.0156574,172.38775 L30.2358123,172.11079 C30.3723402,171.956781 30.6799955,171.656164 32.4639448,169.872215 C33.9595428,168.376617 36.3813816,168.375282 37.8777273,169.872215 Z" id="Path" fill="#5E4EA5" fill-rule="nonzero"></path>
        <text id="On-chain" font-family="Roboto-Medium, Roboto" font-size="14" font-weight="400" fill="#5E4EA5">
            <tspan x="70" y="181">On-chain</tspan>
        </text>
        <g id="Group-3" transform="translate(0.000000, 250.000000)">
            <rect id="Rectangle" fill="#D8D8D8" opacity="0" x="0" y="0" width="218" height="48"></rect>
            <path d="M37.3734179,23.2304825 L38.2441434,22.7278554 C38.501879,22.5790673 38.6268215,22.2755364 38.5497571,21.9881072 C38.2379216,20.8251461 37.6243977,19.7856322 36.7981591,18.9584857 C36.5881682,18.7482811 36.2629279,18.7056901 36.0056195,18.8542913 L35.1364962,19.3562776 C34.902179,19.1885839 34.4991534,18.9555751 34.236905,18.8361868 L34.236905,17.8312263 C34.2368783,17.5525824 34.0183157,17.2683309 33.7490445,17.1966872 C32.607152,16.8929694 31.3942833,16.8925955 30.2509755,17.1966605 C29.9633327,17.2731641 29.7630616,17.53357 29.7630616,17.8311996 L29.7630616,18.8361601 C29.5008132,18.9555484 29.0977876,19.1885572 28.8634704,19.3562509 L27.9943471,18.8542646 C27.7370388,18.7056367 27.4117984,18.7482544 27.2018075,18.958459 C26.3755689,19.7856055 25.762045,20.8250927 25.4502095,21.9880805 C25.3731452,22.2755097 25.4980876,22.5790406 25.7558232,22.7278287 L26.6265487,23.2304825 C26.6127166,23.3735295 26.6015282,23.6062713 26.6015282,23.7499858 C26.6015282,23.8937271 26.6127166,24.1264688 26.6265487,24.2695158 L25.7558232,24.772143 C25.4980876,24.9209311 25.3731452,25.224462 25.4502095,25.5118911 C25.762045,26.6748522 26.3755689,27.7143662 27.2018075,28.5415126 C27.4117984,28.7517172 27.7370388,28.7943082 27.9943471,28.645707 L28.8634704,28.1437208 C29.0977876,28.3114145 29.5008132,28.5443965 29.7630616,28.6637848 L29.7630616,29.6687454 C29.7630883,29.9473893 29.9816509,30.2316407 30.2509221,30.3032844 C31.3928147,30.6069755 32.6056833,30.6074028 33.7489911,30.3033111 C34.0366339,30.2268075 34.236905,29.9664017 34.236905,29.6687721 L34.236905,28.6638115 C34.4991534,28.5444232 34.902179,28.3114412 35.1364962,28.1437475 L36.0056195,28.6457337 C36.2629279,28.7943349 36.5881682,28.7517439 36.7981591,28.5415393 C37.6243977,27.7143929 38.2379216,26.6748789 38.5497571,25.5119178 C38.6268215,25.2244887 38.501879,24.9209578 38.2441434,24.7721697 L37.3734179,24.2695425 C37.4067964,23.9236342 37.4067964,23.5763908 37.3734179,23.2304825 Z M35.9329878,24.953642 L37.13117,25.6451382 C36.9514066,26.1306221 36.5367652,26.8475927 36.2055969,27.2455181 L35.0071478,26.5534879 L34.6931273,26.8194236 C34.0815831,27.3276277 33.8607317,27.4267483 32.9244348,27.7573844 L32.9244348,29.1409642 C32.6711319,29.184196 32.2569712,29.2192835 31.9999833,29.2192835 C31.7429954,29.2192835 31.3288347,29.184196 31.0755318,29.1409642 L31.0755318,27.7573844 L30.6901931,27.6189012 C29.9478534,27.3443253 29.7504792,27.2024945 28.9928188,26.5534879 L27.7943697,27.2455181 C27.4632281,26.8475927 27.04856,26.1306221 26.8687967,25.6451382 L28.0669788,24.953642 L27.9854959,24.4949586 C27.8632598,23.7555466 27.8903561,23.5023644 28.0669788,22.546383 L26.8687967,21.8548869 C27.0834606,21.2743943 27.3968182,20.732434 27.7943697,20.2544802 L28.9928188,20.9465104 L29.3068405,20.6805723 C29.9183896,20.1723583 30.139258,20.0732037 31.0755318,19.7426139 L31.0755318,18.3590609 C31.3288347,18.315829 31.7429954,18.2807415 31.9999833,18.2807415 C32.2569712,18.2807415 32.6711319,18.315829 32.9244348,18.3590609 L32.9244348,19.7426406 L33.3097735,19.8811238 C34.0521132,20.1556997 34.2494874,20.2975305 35.0071478,20.9465371 L36.2055969,20.2545069 C36.5367652,20.6524323 36.9514066,21.369403 37.13117,21.8549136 L35.9329878,22.5464097 L36.0144795,23.0051003 C36.1367259,23.7445166 36.1096106,23.9976606 35.9329878,24.953642 Z M31.9999833,21.1250188 C30.5525571,21.1250188 29.3749896,22.3025863 29.3749896,23.7500125 C29.3749896,25.1974387 30.5525571,26.3750063 31.9999833,26.3750063 C33.4474095,26.3750063 34.6249771,25.1974387 34.6249771,23.7500125 C34.6249771,22.3025863 33.4474095,21.1250188 31.9999833,21.1250188 Z M31.9999833,25.0625094 C31.2762569,25.0625094 30.6874864,24.473739 30.6874864,23.7500125 C30.6874864,23.0263128 31.2762569,22.4375156 31.9999833,22.4375156 C32.7237098,22.4375156 33.3124802,23.0263128 33.3124802,23.7500125 C33.3124802,24.473739 32.7237098,25.0625094 31.9999833,25.0625094 Z" id="c" fill="#4A4A4A" fill-rule="nonzero"></path>
            <text id="On-chain" font-family="Roboto-Regular, Roboto" font-size="14" font-weight="normal" fill="#4A4A4A">
                <tspan x="70" y="29">Advanced</tspan>
            </text>
        </g>
        <g id="Group-3" transform="translate(0.000000, 298.000000)">
            <rect id="Rectangle" fill="#D8D8D8" opacity="0" x="0" y="0" width="218" height="48"></rect>
            <path d="M31.9999833,30.5312463 C35.7451602,30.5312463 38.7812171,27.4951894 38.7812171,23.7500125 C38.7812171,20.0048356 35.7451602,16.9687787 31.9999833,16.9687787 C28.2548064,16.9687787 25.2187495,20.0048356 25.2187495,23.7500125 C25.2187495,27.4951894 28.2548064,30.5312463 31.9999833,30.5312463 Z M29.172689,28.4334463 L30.6331462,26.9729891 C31.502857,27.3422891 32.4960148,27.3427164 33.3668204,26.9729891 L34.8272776,28.4334463 C33.0986707,29.4812115 30.9012959,29.4812115 29.172689,28.4334463 Z M34.1874781,23.7500125 C34.1874781,24.9562055 33.2061763,25.9375073 31.9999833,25.9375073 C30.7937904,25.9375073 29.8124885,24.9562055 29.8124885,23.7500125 C29.8124885,22.5438196 30.7937904,21.5625177 31.9999833,21.5625177 C33.2061763,21.5625177 34.1874781,22.5438196 34.1874781,23.7500125 Z M36.6834171,26.5773068 L35.2229599,25.1168496 C35.5922332,24.2471389 35.5926871,23.253981 35.2229599,22.3831754 L36.6834171,20.9227182 C37.7311823,22.6513251 37.7311823,24.8486999 36.6834171,26.5773068 Z M34.8272509,19.0665787 L33.3667937,20.5270359 C32.497083,20.1577626 31.5039251,20.1573087 30.6331462,20.5270359 L29.172689,19.0665787 C30.9012959,18.0188136 33.0986707,18.0188136 34.8272509,19.0665787 Z M27.3165495,20.9227182 L28.7770067,22.3831754 C28.4077067,23.2528862 28.4072795,24.246044 28.7770067,25.1168496 L27.3165495,26.5773068 C26.2687844,24.8486999 26.2687844,22.6513251 27.3165495,20.9227182 Z" id="l" fill="#4A4A4A" fill-rule="nonzero"></path>
            <text id="On-chain" font-family="Roboto-Regular, Roboto" font-size="14" font-weight="normal" fill="#4A4A4A">
                <tspan x="70" y="29">Help</tspan>
            </text>
        </g>
        <text id="On-chain-Copy" font-family="Roboto-Regular, Roboto" font-size="14" font-weight="normal" fill="#474747">
            <tspan x="70" y="229">Lightning</tspan>
        </text>
        <path d="M38.3304388,222.341045 C38.1062152,221.950009 37.6988103,221.714864 37.2476395,221.714864 L34.666385,221.714864 L35.4511541,219.322291 C35.5523311,218.944954 35.4730237,218.54847 35.2351283,218.236741 C34.9945092,217.927763 34.6308436,217.750029 34.2398342,217.750029 L30.6714833,217.750029 C30.0480527,217.750029 29.5148508,218.217596 29.4464916,218.764469 L28.0136718,224.566804 C27.9617082,224.944142 28.0738333,225.32423 28.3226501,225.611339 C28.5714937,225.898447 28.932409,226.062509 29.3124969,226.062509 L31.9949017,226.062509 L31.0406231,230.210552 C30.953118,230.585166 31.0378727,230.973424 31.2757681,231.274205 C31.5136635,231.577736 31.8718551,231.749996 32.2574171,231.749996 C32.6535919,231.749996 33.0260099,231.559877 33.2440663,231.271817 L38.3277151,223.59338 C38.557386,223.202371 38.557386,222.732054 38.3304388,222.341045 Z M32.3777133,230.257041 L33.6437472,224.750013 L29.298825,224.750013 L30.6714833,219.062526 L34.1605268,219.037906 L32.8535041,223.02736 L37.1327907,223.02736 L32.3777133,230.257041 Z" id="b" fill="#4C4C4C" fill-rule="nonzero"></path>
        <text id="Dashboard" font-family="Roboto-Regular, Roboto" font-size="14" font-weight="normal" fill="#4A4A4A">
            <tspan x="70" y="131">Dashboard</tspan>
        </text>
        <path d="M27.4999917,125.62501 C27.0168309,125.62501 26.6249937,126.016848 26.6249937,126.500008 C26.6249937,126.983169 27.0168309,127.375006 27.4999917,127.375006 C27.9831524,127.375006 28.3749896,126.983169 28.3749896,126.500008 C28.3749896,126.016848 27.9831524,125.62501 27.4999917,125.62501 Z M31.7287032,122.970483 L32.1727443,121.638574 C32.2044673,121.544233 32.2597154,121.464952 32.3072731,121.380731 C32.1779514,121.305242 32.0354919,121.250021 31.8749812,121.250021 C31.3918205,121.250021 30.9999833,121.641858 30.9999833,122.125019 C30.9999833,122.55651 31.3179872,122.898573 31.7287032,122.970483 Z M28.8124885,122.562518 C28.3293278,122.562518 27.9374906,122.954355 27.9374906,123.437516 C27.9374906,123.920676 28.3293278,124.312514 28.8124885,124.312514 C29.2956493,124.312514 29.6874864,123.920676 29.6874864,123.437516 C29.6874864,122.954355 29.2956493,122.562518 28.8124885,122.562518 Z M31.8749812,118.625027 C27.5257065,118.625027 24,122.150734 24,126.500008 C24,127.94375 24.3896475,129.296167 25.0680326,130.459369 C25.2214403,130.722418 25.513756,130.874998 25.818355,130.874998 L37.9316074,130.874998 C38.2362064,130.874998 38.5285222,130.722418 38.6819299,130.459369 C39.3603149,129.296167 39.7499624,127.94375 39.7499624,126.500008 C39.7499624,122.150734 36.224256,118.625027 31.8749812,118.625027 Z M37.6792124,129.562501 L26.0707501,129.562501 C25.5738907,128.622695 25.3124969,127.569696 25.3124969,126.500008 C25.3124969,122.881349 28.2563222,119.937524 31.8749812,119.937524 C35.4936402,119.937524 38.4374656,122.881349 38.4374656,126.500008 C38.4374656,127.569696 38.1760717,128.622695 37.6792124,129.562501 Z M35.3749729,126.500008 C35.3749729,126.983169 35.76681,127.375006 36.2499708,127.375006 C36.7331316,127.375006 37.1249687,126.983169 37.1249687,126.500008 C37.1249687,126.016848 36.7331316,125.62501 36.2499708,125.62501 C35.76681,125.62501 35.3749729,126.016848 35.3749729,126.500008 Z M33.8325113,121.502416 C33.4847072,121.386739 33.1171963,121.574033 33.0018134,121.917217 L31.762055,125.636226 C30.849326,125.695559 30.1249854,126.44695 30.1249854,127.375006 C30.1249854,127.695467 30.2174038,127.991601 30.3677941,128.250004 L33.3824354,128.250004 C33.5328256,127.991601 33.6252441,127.695467 33.6252441,127.375006 C33.6252441,126.843166 33.3829961,126.372583 33.0086493,126.051561 L34.2484077,122.332553 C34.3624288,121.988834 34.17623,121.616971 33.8325113,121.502416 Z M35.8124718,123.437516 C35.8124718,123.920676 35.4206347,124.312514 34.9374739,124.312781 C34.7939196,124.312781 34.6643041,124.270136 34.544809,124.20888 L35.0780108,122.609541 L35.0818561,122.591784 L35.0818561,122.591784 C35.4936402,122.662867 35.8124718,123.005491 35.8124718,123.437516 Z" id="t" fill="#4A4A4A" fill-rule="nonzero"></path>
        <g id="Group-18" transform="translate(1020.000000, 118.000000)">
            <g id="Group-20" transform="translate(3.000000, 0.000000)" fill="#84979E">
                <path d="M16.4933994,9.00001192 C16.7918301,9.00001192 17.0371603,9.26218781 16.9952598,9.55781088 C16.7512113,11.2843693 15.9193346,12.8203153 14.7099564,13.9596864 C14.617763,14.0465697 14.4990194,14.0887449 14.3796654,14.0887449 C14.2623561,14.0885313 14.0996673,14.0212097 14.0165376,13.9384462 L9.07810336,9.00001192 L16.4933994,9.00001192 Z M14.3712121,12.8787563 C15.1149542,12.0625046 15.6411981,11.0675119 15.8949511,10.0000095 L11.4924653,10.0000095 L14.3712121,12.8787563 Z M6.99998331,9.00001192 L11.8709129,13.8709415 C12.0849626,14.0849913 12.0687273,14.4484242 11.8218407,14.6234421 C10.6252798,15.472195 9.16999156,15.9796706 7.59498311,15.9993849 C7.56434354,15.9996901 7.53468052,15.9999952 7.50404095,15.9999952 C3.5368568,15.9999952 0.139678622,12.7353241 0.00436400327,8.76157865 C-0.128112488,4.86250958 2.71843834,1.60909937 6.44218435,1.0828555 C6.46437057,1.0797122 6.4865568,1.07815581 6.50810216,1.07815581 C6.77561861,1.07815581 6.99998331,1.3087766 6.99998331,1.58471588 L6.99998331,9.00001192 Z M7.58216576,14.9993873 C8.69529177,14.9856239 9.77030141,14.6900008 10.7252857,14.1393734 L5.99998569,9.41407343 L5.99998569,2.18221812 C3.01030776,2.88283901 0.897489315,5.59846974 1.00375127,8.72752112 C1.1193821,12.1275069 4.09624268,14.9999976 7.50373577,14.9999976 L7.58216576,14.9993873 Z M15.9987106,6.97502285 C16.0183944,7.26002584 15.7784048,7.5000155 15.4927609,7.5000155 L8.49997973,7.5000155 L8.49997973,0.507234318 C8.49997973,0.232851427 8.721842,3.33786011e-05 8.99247124,3.33786011e-05 C9.00309133,3.33786011e-05 9.01404711,0.000338553655 9.02497238,0.00128459632 C12.7580873,0.258791307 15.7412039,3.24190797 15.9987106,6.97502285 Z M9.49997735,6.50001788 L14.9405772,6.50001788 C14.508724,3.71096203 12.2890332,1.4909661 9.49997735,1.05941806 L9.49997735,6.50001788 Z" id="c" fill-rule="nonzero"></path>
                <text id="Check-your-balance." font-family="Roboto-Regular, Roboto" font-size="16" font-weight="normal">
                    <tspan x="25" y="15">Check your balance.</tspan>
                </text>
            </g>
            <g id="Group-11" transform="translate(0.000000, 36.000000)">
                <path d="M5.1277704,0.5 C3.5776195,0.5 2.94057806,0.623018378 2.28210802,0.975172007 C1.71739041,1.27718629 1.27718629,1.71739041 0.975172007,2.28210802 C0.623018378,2.94057806 0.5,3.5776195 0.5,5.1277704 L0.5,268.87223 C0.5,270.42238 0.623018378,271.059422 0.975172007,271.717892 C1.27718629,272.28261 1.71739041,272.722814 2.28210802,273.024828 C2.94057806,273.376982 3.5776195,273.5 5.1277704,273.5 L230.87223,273.5 C232.42238,273.5 233.059422,273.376982 233.717892,273.024828 C234.28261,272.722814 234.722814,272.28261 235.024828,271.717892 C235.376982,271.059422 235.5,270.42238 235.5,268.87223 L235.5,5.1277704 C235.5,3.5776195 235.376982,2.94057806 235.024828,2.28210802 C234.722814,1.71739041 234.28261,1.27718629 233.717892,0.975172007 C233.059422,0.623018378 232.42238,0.5 230.87223,0.5 L5.1277704,0.5 Z" id="Rectangle" stroke="#DEDEDE" fill="#FFFFFF"></path>
                <path d="M0,48.5 L236,48.5" id="Line" stroke="#D7D7D7" stroke-linecap="square"></path>
                <rect id="Rectangle" fill="#5E4EA5" x="1" y="47" width="79" height="2"></rect>
                <rect id="Rectangle" fill="#59316B" opacity="0" x="78" y="47" width="80" height="2"></rect>
                <rect id="Rectangle" fill="#59316B" opacity="0" x="157" y="47" width="79" height="2"></rect>
                <text id="SATS" font-family="Roboto-Medium, Roboto" font-size="14" font-weight="400" fill="#5E4EA5">
                    <tspan x="22.1435547" y="30">SATS</tspan>
                </text>
                <text id="BTC" font-family="Roboto-Regular, Roboto" font-size="14" font-weight="normal" fill="#979797">
                    <tspan x="104.90918" y="30">BTC</tspan>
                </text>
                <text id="GBP" font-family="Roboto-Regular, Roboto" font-size="14" font-weight="normal" fill="#979797">
                    <tspan x="182.958008" y="30">GBP</tspan>
                </text>
                <text id="Total-Balance" font-family="Roboto-Medium, Roboto" font-size="12" font-weight="400" fill="#5E4EA5">
                    <tspan x="24" y="83">Total Balance</tspan>
                </text>
                <text id="413,722" font-family="Roboto-Light, Roboto" font-size="20" font-weight="300" fill="#222831">
                    <tspan x="24" y="109">413,722</tspan>
                </text>
                <text id="Confirmed" font-family="Roboto-Medium, Roboto" font-size="12" font-weight="400" fill="#5E4EA5">
                    <tspan x="24" y="150">Confirmed</tspan>
                </text>
                <text id="413,721" font-family="Roboto-Light, Roboto" font-size="20" font-weight="300" fill="#222831">
                    <tspan x="24" y="176">413,721</tspan>
                </text>
                <text id="Unconfirmed" font-family="Roboto-Medium, Roboto" font-size="12" font-weight="400" fill="#5E4EA5">
                    <tspan x="24" y="219">Unconfirmed</tspan>
                </text>
                <text id="0" font-family="Roboto-Light, Roboto" font-size="20" font-weight="300" fill="#222831">
                    <tspan x="24" y="245">0</tspan>
                </text>
            </g>
        </g>
        <g id="Group-15" transform="translate(266.000000, 226.000000)">
            <text id="Number-of-Blocks" font-family="Roboto-Regular, Roboto" font-size="15" font-weight="normal" fill="#444444">
                <tspan x="305" y="107">Number of Blocks</tspan>
            </text>
            <rect id="Rectangle" stroke="#979797" fill="#D8D8D8" x="305.5" y="117.5" width="159" height="1"></rect>
            <text id="Amount" font-family="Roboto-Regular, Roboto" font-size="15" font-weight="normal" fill="#444444">
                <tspan x="423" y="37">Amount</tspan>
            </text>
            <text id="sats" font-family="Roboto-Regular, Roboto" font-size="15" font-weight="normal" fill="#B3B3B3">
                <tspan x="554.472168" y="37">sats</tspan>
            </text>
            <rect id="Rectangle" stroke="#979797" fill="#D8D8D8" transform="translate(503.000000, 46.500000) scale(1, -1) translate(-503.000000, -46.500000) " x="423.5" y="46.5" width="159" height="1"></rect>
            <text id="Amount" opacity="0" font-family="Roboto-Regular, Roboto" font-size="12" font-weight="normal" fill="#5E4EA5">
                <tspan x="423" y="12">Amount</tspan>
            </text>
            <g id="Group-13">
                <text id="Bitcoin-Address" font-family="Roboto-Regular, Roboto" font-size="15" font-weight="normal" fill="#444444">
                    <tspan x="0" y="36">Bitcoin Address</tspan>
                </text>
                <text id="Amount" opacity="0" font-family="Roboto-Regular, Roboto" font-size="12" font-weight="normal" fill="#5E4EA5">
                    <tspan x="0" y="11">Amount</tspan>
                </text>
                <g id="Group-7" transform="translate(0.000000, 22.000000)"></g>
            </g>
            <rect id="Rectangle" stroke="#979797" fill="#D8D8D8" x="0.5" y="46.5" width="397" height="1"></rect>
            <g id="Rectangle-Copy-7">
                <use fill="black" fill-opacity="1" filter="url(#filter-6)" xlink:href="#path-5"></use>
                <use fill="#5E4EA5" fill-rule="evenodd" xlink:href="#path-5"></use>
            </g>
            <text id="Send-Funds" font-family="Roboto-Medium, Roboto" font-size="14" font-weight="400" fill="#FFFFFF">
                <tspan x="17.3149414" y="165">Send Funds</tspan>
            </text>
            <g id="Group-14" transform="translate(120.000000, 142.000000)">
                <rect id="Rectangle-Copy-7" stroke="#DCDCDC" fill="#FFFFFF" x="0.5" y="0.5" width="104" height="35" rx="4"></rect>
                <text id="Clear-Fields" font-family="Roboto-Medium, Roboto" font-size="14" font-weight="400" fill="#4F4F4F">
                    <tspan x="16.1542969" y="23">Clear Fields</tspan>
                </text>
            </g>
            <path d="M8.76242898,97.4931641 L5.27237216,97.4931641 L5.27237216,107 L3.84801136,107 L3.84801136,97.4931641 L0.365411932,97.4931641 L0.365411932,96.3359375 L8.76242898,96.3359375 L8.76242898,97.4931641 Z M14.2958097,107 C14.2162638,106.843749 14.1516338,106.565432 14.1019176,106.165039 C13.4605792,106.819339 12.6949618,107.146484 11.8050426,107.146484 C11.0095841,107.146484 10.3570693,106.925539 9.84747869,106.483643 C9.33788808,106.041746 9.08309659,105.481449 9.08309659,104.802734 C9.08309659,103.977535 9.40251811,103.336672 10.0413707,102.880127 C10.6802234,102.423582 11.5788294,102.195312 12.7372159,102.195312 L14.0795455,102.195312 L14.0795455,101.572754 C14.0795455,101.099119 13.9353708,100.721925 13.647017,100.441162 C13.3586633,100.160399 12.9335966,100.02002 12.371804,100.02002 C11.879614,100.02002 11.4669761,100.142089 11.1338778,100.38623 C10.8007796,100.630372 10.634233,100.92578 10.634233,101.272461 L9.24715909,101.272461 C9.24715909,100.876951 9.3900909,100.494875 9.67595881,100.126221 C9.96182671,99.7575665 10.3496069,99.4658214 10.8393111,99.2509766 C11.3290152,99.0361317 11.8671846,98.9287109 12.4538352,98.9287109 C13.3835274,98.9287109 14.1118582,99.1569801 14.6388494,99.6135254 C15.1658407,100.070071 15.4392755,100.698726 15.4591619,101.499512 L15.4591619,105.146973 C15.4591619,105.874515 15.5536212,106.453123 15.7425426,106.882812 L15.7425426,107 L14.2958097,107 Z M12.006392,105.967285 C12.4389226,105.967285 12.8490748,105.857423 13.2368608,105.637695 C13.6246468,105.417968 13.9055389,105.132326 14.0795455,104.780762 L14.0795455,103.154785 L12.9982244,103.154785 C11.3078751,103.154785 10.4627131,103.64062 10.4627131,104.612305 C10.4627131,105.037111 10.6068878,105.369139 10.8952415,105.608398 C11.1835952,105.847657 11.553975,105.967285 12.006392,105.967285 Z M21.522017,100.291016 C21.3132092,100.256836 21.0870041,100.239746 20.8433949,100.239746 C19.9385608,100.239746 19.3245755,100.61816 19.0014205,101.375 L19.0014205,107 L17.621804,107 L17.621804,99.0751953 L18.9641335,99.0751953 L18.9865057,99.9907227 C19.4389227,99.2827113 20.0802515,98.9287109 20.9105114,98.9287109 C21.1789786,98.9287109 21.3828118,98.9628903 21.522017,99.03125 L21.522017,100.291016 Z M22.3199574,102.97168 C22.3199574,101.736322 22.6107925,100.753666 23.1924716,100.023682 C23.7741506,99.2936975 24.5447395,98.9287109 25.5042614,98.9287109 C26.4886413,98.9287109 27.2567444,99.2705044 27.8085937,99.9541016 L27.8757102,99.0751953 L29.1360085,99.0751953 L29.1360085,106.80957 C29.1360085,107.834966 28.8265301,108.643063 28.2075639,109.233887 C27.5885978,109.82471 26.7571075,110.120117 25.7130682,110.120117 C25.1313891,110.120117 24.5621477,109.998048 24.0053267,109.753906 C23.4485057,109.509764 23.023439,109.175295 22.7301136,108.750488 L23.4460227,107.9375 C24.037645,108.655277 24.7610042,109.01416 25.6161222,109.01416 C26.2872903,109.01416 26.810545,108.828615 27.185902,108.45752 C27.561259,108.086424 27.7489347,107.563968 27.7489347,106.890137 L27.7489347,106.208984 C27.1970853,106.833988 26.4438968,107.146484 25.4893466,107.146484 C24.5447396,107.146484 23.7803651,106.772953 23.1962003,106.025879 C22.6120354,105.278805 22.3199574,104.260749 22.3199574,102.97168 Z M23.7070312,103.125488 C23.7070312,104.019047 23.893464,104.720945 24.2663352,105.231201 C24.6392064,105.741458 25.1612182,105.996582 25.8323864,105.996582 C26.7024191,105.996582 27.3412622,105.608402 27.7489347,104.832031 L27.7489347,101.213867 C27.3263473,100.457027 26.6924758,100.078613 25.8473011,100.078613 C25.176133,100.078613 24.6516354,100.334958 24.2737926,100.847656 C23.8959498,101.360354 23.7070312,102.119624 23.7070312,103.125488 Z M34.5649858,107.146484 C33.4712303,107.146484 32.5813245,106.793705 31.8952415,106.088135 C31.2091585,105.382565 30.8661222,104.438971 30.8661222,103.257324 L30.8661222,103.008301 C30.8661222,102.222164 31.0189971,101.520267 31.3247514,100.902588 C31.6305058,100.284909 32.0580583,99.8015154 32.6074219,99.4523926 C33.1567854,99.1032697 33.7521275,98.9287109 34.3934659,98.9287109 C35.4424768,98.9287109 36.2578096,99.268063 36.8394886,99.9467773 C37.4211677,100.625492 37.7120028,101.597162 37.7120028,102.861816 L37.7120028,103.425781 L32.2457386,103.425781 C32.2656251,104.207035 32.4980447,104.838132 32.9430043,105.319092 C33.3879639,105.800051 33.9534767,106.040527 34.6395597,106.040527 C35.126778,106.040527 35.5394159,105.942872 35.8774858,105.747559 C36.2155557,105.552245 36.5113624,105.293459 36.7649148,104.971191 L37.6075994,105.615723 C36.9314597,106.636236 35.9172653,107.146484 34.5649858,107.146484 Z M34.3934659,100.041992 C33.8366449,100.041992 33.3693201,100.240965 32.9914773,100.638916 C32.6136345,101.036867 32.379972,101.594723 32.290483,102.3125 L36.3323864,102.3125 L36.3323864,102.209961 C36.2926134,101.521481 36.1036949,100.988039 35.765625,100.609619 C35.4275551,100.231199 34.9701733,100.041992 34.3934659,100.041992 Z M41.1796875,97.15625 L41.1796875,99.0751953 L42.6860795,99.0751953 L42.6860795,100.122559 L41.1796875,100.122559 L41.1796875,105.037109 C41.1796875,105.354494 41.2468033,105.592529 41.3810369,105.751221 C41.5152706,105.909913 41.7439615,105.989258 42.0671165,105.989258 C42.2262082,105.989258 42.444956,105.959961 42.7233665,105.901367 L42.7233665,107 C42.3604385,107.097657 42.0074591,107.146484 41.6644176,107.146484 C41.0479373,107.146484 40.5830982,106.963381 40.2698864,106.597168 C39.9566746,106.230955 39.800071,105.710941 39.800071,105.037109 L39.800071,100.122559 L38.3309659,100.122559 L38.3309659,99.0751953 L39.800071,99.0751953 L39.800071,97.15625 L41.1796875,97.15625 Z M56.2808949,103.616211 C56.1466613,104.744146 55.7228374,105.614499 55.0094105,106.227295 C54.2959836,106.840091 53.3476622,107.146484 52.1644176,107.146484 C50.8817407,107.146484 49.8538746,106.694829 49.0807884,105.791504 C48.3077021,104.888179 47.9211648,103.679695 47.9211648,102.166016 L47.9211648,101.140625 C47.9211648,100.149409 48.1013831,99.2778358 48.4618253,98.5258789 C48.8222674,97.773922 49.3330933,97.1965352 49.9943182,96.7937012 C50.6555431,96.3908671 51.4211648,96.1894531 52.2911932,96.1894531 C53.444608,96.1894531 54.3693147,96.5056121 55.0653409,97.1379395 C55.7613671,97.7702668 56.1665477,98.6455022 56.2808949,99.7636719 L54.8416193,99.7636719 C54.7173289,98.9140583 54.4476228,98.29883 54.0324929,97.9179688 C53.617363,97.5371075 53.0369355,97.3466797 52.2911932,97.3466797 C51.3764159,97.3466797 50.6592711,97.6787076 50.1397372,98.3427734 C49.6202034,99.0068393 49.3604403,99.951654 49.3604403,101.177246 L49.3604403,102.209961 C49.3604403,103.367193 49.6065316,104.287594 50.0987216,104.971191 C50.5909116,105.654789 51.27947,105.996582 52.1644176,105.996582 C52.9598761,105.996582 53.5701328,105.819582 53.995206,105.465576 C54.4202791,105.11157 54.7024141,104.495122 54.8416193,103.616211 L56.2808949,103.616211 Z M57.653054,102.964355 C57.653054,102.187984 57.8084146,101.489749 58.1191406,100.869629 C58.4298666,100.249509 58.8623907,99.7709978 59.4167259,99.434082 C59.971061,99.0971663 60.6036896,98.9287109 61.3146307,98.9287109 C62.4133578,98.9287109 63.3020208,99.3022424 63.9806463,100.049316 C64.6592719,100.79639 64.9985795,101.790033 64.9985795,103.030273 L64.9985795,103.125488 C64.9985795,103.896977 64.8481904,104.589108 64.5474077,105.201904 C64.2466249,105.8147 63.8165866,106.29199 63.2572798,106.633789 C62.6979731,106.975588 62.0554014,107.146484 61.3295455,107.146484 C60.23579,107.146484 59.3496128,106.772953 58.6709872,106.025879 C57.9923617,105.278805 57.653054,104.290045 57.653054,103.05957 L57.653054,102.964355 Z M59.0401278,103.125488 C59.0401278,104.004399 59.2476897,104.709958 59.6628196,105.242188 C60.0779495,105.774417 60.6335192,106.040527 61.3295455,106.040527 C62.0305433,106.040527 62.5873559,105.770755 63,105.231201 C63.4126441,104.691648 63.6189631,103.93604 63.6189631,102.964355 C63.6189631,102.09521 63.4089155,101.390872 62.9888139,100.851318 C62.5687124,100.311765 62.0106569,100.041992 61.3146307,100.041992 C60.6335193,100.041992 60.084164,100.308103 59.6665483,100.840332 C59.2489326,101.372561 59.0401278,102.134272 59.0401278,103.125488 Z M68.0337358,99.0751953 L68.0784801,100.071289 C68.6949605,99.3095665 69.5003501,98.9287109 70.4946733,98.9287109 C72.1999375,98.9287109 73.0600141,99.8735257 73.074929,101.763184 L73.074929,107 L71.6953125,107 L71.6953125,101.755859 C71.6903409,101.184567 71.5573522,100.762208 71.2963423,100.48877 C71.0353325,100.215331 70.628909,100.078613 70.0770597,100.078613 C69.6296142,100.078613 69.2368625,100.1958 68.8987926,100.430176 C68.5607227,100.664552 68.2972311,100.972166 68.1083097,101.353027 L68.1083097,107 L66.7286932,107 L66.7286932,99.0751953 L68.0337358,99.0751953 Z M75.6178977,107 L75.6178977,100.122559 L74.3426847,100.122559 L74.3426847,99.0751953 L75.6178977,99.0751953 L75.6178977,98.4013672 C75.6178977,97.5175737 75.875175,96.829104 76.3897372,96.3359375 C76.9042994,95.842771 77.6313873,95.5961914 78.5710227,95.5961914 C79.1278437,95.5961914 79.8313168,95.7451157 80.6814631,96.0429688 L80.4502841,97.1855469 C79.8288321,96.941405 79.2372187,96.8193359 78.6754261,96.8193359 C78.0838039,96.8193359 77.6574942,96.9499499 77.3964844,97.2111816 C77.1354745,97.4724134 77.0049716,97.8642552 77.0049716,98.3867188 L77.0049716,99.0751953 L78.653054,99.0751953 L78.653054,100.122559 L77.0049716,100.122559 L77.0049716,107 L75.6178977,107 Z M81.3675426,107 L79.9804687,107 L79.9804687,99.0751953 L81.3675426,99.0751953 L81.3675426,107 Z M87.512429,100.291016 C87.3036211,100.256836 87.077416,100.239746 86.8338068,100.239746 C85.9289727,100.239746 85.3149874,100.61816 84.9918324,101.375 L84.9918324,107 L83.6122159,107 L83.6122159,99.0751953 L84.9545455,99.0751953 L84.9769176,99.9907227 C85.4293346,99.2827113 86.0706635,98.9287109 86.9009233,98.9287109 C87.1693905,98.9287109 87.3732237,98.9628903 87.512429,99.03125 L87.512429,100.291016 Z M90.0777699,99.0751953 L90.1150568,99.9541016 C90.7066791,99.2705044 91.5046115,98.9287109 92.5088778,98.9287109 C93.6374346,98.9287109 94.4055377,99.3535114 94.8132102,100.203125 C95.0816775,99.8222637 95.4309282,99.5146496 95.860973,99.2802734 C96.2910178,99.0458973 96.7993579,98.9287109 97.3860085,98.9287109 C99.1559037,98.9287109 100.055753,99.8491119 100.085582,101.689941 L100.085582,107 L98.7059659,107 L98.7059659,101.770508 C98.7059659,101.204099 98.5742201,100.780519 98.3107244,100.499756 C98.0472288,100.218993 97.6047616,100.078613 96.9833097,100.078613 C96.4712332,100.078613 96.0461665,100.228758 95.7080966,100.529053 C95.3700267,100.829347 95.1736508,101.233396 95.1189631,101.741211 L95.1189631,107 L93.7318892,107 L93.7318892,101.807129 C93.7318892,100.654779 93.1576762,100.078613 92.009233,100.078613 C91.1043989,100.078613 90.485442,100.457027 90.1523437,101.213867 L90.1523437,107 L88.7727273,107 L88.7727273,99.0751953 L90.0777699,99.0751953 Z M107.147727,107 C107.068181,106.843749 107.003551,106.565432 106.953835,106.165039 C106.312497,106.819339 105.546879,107.146484 104.65696,107.146484 C103.861502,107.146484 103.208987,106.925539 102.699396,106.483643 C102.189806,106.041746 101.935014,105.481449 101.935014,104.802734 C101.935014,103.977535 102.254436,103.336672 102.893288,102.880127 C103.532141,102.423582 104.430747,102.195312 105.589134,102.195312 L106.931463,102.195312 L106.931463,101.572754 C106.931463,101.099119 106.787288,100.721925 106.498935,100.441162 C106.210581,100.160399 105.785514,100.02002 105.223722,100.02002 C104.731532,100.02002 104.318894,100.142089 103.985795,100.38623 C103.652697,100.630372 103.486151,100.92578 103.486151,101.272461 L102.099077,101.272461 C102.099077,100.876951 102.242009,100.494875 102.527876,100.126221 C102.813744,99.7575665 103.201525,99.4658214 103.691229,99.2509766 C104.180933,99.0361317 104.719102,98.9287109 105.305753,98.9287109 C106.235445,98.9287109 106.963776,99.1569801 107.490767,99.6135254 C108.017758,100.070071 108.291193,100.698726 108.31108,101.499512 L108.31108,105.146973 C108.31108,105.874515 108.405539,106.453123 108.59446,106.882812 L108.59446,107 L107.147727,107 Z M104.85831,105.967285 C105.29084,105.967285 105.700992,105.857423 106.088778,105.637695 C106.476564,105.417968 106.757457,105.132326 106.931463,104.780762 L106.931463,103.154785 L105.850142,103.154785 C104.159793,103.154785 103.314631,103.64062 103.314631,104.612305 C103.314631,105.037111 103.458805,105.369139 103.747159,105.608398 C104.035513,105.847657 104.405893,105.967285 104.85831,105.967285 Z M112.345526,97.15625 L112.345526,99.0751953 L113.851918,99.0751953 L113.851918,100.122559 L112.345526,100.122559 L112.345526,105.037109 C112.345526,105.354494 112.412641,105.592529 112.546875,105.751221 C112.681109,105.909913 112.9098,105.989258 113.232955,105.989258 C113.392046,105.989258 113.610794,105.959961 113.889205,105.901367 L113.889205,107 C113.526277,107.097657 113.173297,107.146484 112.830256,107.146484 C112.213775,107.146484 111.748936,106.963381 111.435724,106.597168 C111.122513,106.230955 110.965909,105.710941 110.965909,105.037109 L110.965909,100.122559 L109.496804,100.122559 L109.496804,99.0751953 L110.965909,99.0751953 L110.965909,97.15625 L112.345526,97.15625 Z M116.961648,107 L115.582031,107 L115.582031,99.0751953 L116.961648,99.0751953 L116.961648,107 Z M115.47017,96.9731445 C115.47017,96.7534169 115.538529,96.5678719 115.675249,96.4165039 C115.811968,96.265136 116.014558,96.1894531 116.283026,96.1894531 C116.551493,96.1894531 116.755326,96.265136 116.894531,96.4165039 C117.033736,96.5678719 117.103338,96.7534169 117.103338,96.9731445 C117.103338,97.1928722 117.033736,97.3759758 116.894531,97.5224609 C116.755326,97.668946 116.551493,97.7421875 116.283026,97.7421875 C116.014558,97.7421875 115.811968,97.668946 115.675249,97.5224609 C115.538529,97.3759758 115.47017,97.1928722 115.47017,96.9731445 Z M118.803622,102.964355 C118.803622,102.187984 118.958983,101.489749 119.269709,100.869629 C119.580435,100.249509 120.012959,99.7709978 120.567294,99.434082 C121.121629,99.0971663 121.754258,98.9287109 122.465199,98.9287109 C123.563926,98.9287109 124.452589,99.3022424 125.131214,100.049316 C125.80984,100.79639 126.149148,101.790033 126.149148,103.030273 L126.149148,103.125488 C126.149148,103.896977 125.998759,104.589108 125.697976,105.201904 C125.397193,105.8147 124.967155,106.29199 124.407848,106.633789 C123.848541,106.975588 123.20597,107.146484 122.480114,107.146484 C121.386358,107.146484 120.500181,106.772953 119.821555,106.025879 C119.14293,105.278805 118.803622,104.290045 118.803622,103.05957 L118.803622,102.964355 Z M120.190696,103.125488 C120.190696,104.004399 120.398258,104.709958 120.813388,105.242188 C121.228518,105.774417 121.784087,106.040527 122.480114,106.040527 C123.181111,106.040527 123.737924,105.770755 124.150568,105.231201 C124.563212,104.691648 124.769531,103.93604 124.769531,102.964355 C124.769531,102.09521 124.559484,101.390872 124.139382,100.851318 C123.719281,100.311765 123.161225,100.041992 122.465199,100.041992 C121.784088,100.041992 121.234732,100.308103 120.817116,100.840332 C120.399501,101.372561 120.190696,102.134272 120.190696,103.125488 Z M129.184304,99.0751953 L129.229048,100.071289 C129.845529,99.3095665 130.650918,98.9287109 131.645241,98.9287109 C133.350506,98.9287109 134.210582,99.8735257 134.225497,101.763184 L134.225497,107 L132.845881,107 L132.845881,101.755859 C132.840909,101.184567 132.70792,100.762208 132.446911,100.48877 C132.185901,100.215331 131.779477,100.078613 131.227628,100.078613 C130.780182,100.078613 130.387431,100.1958 130.049361,100.430176 C129.711291,100.664552 129.447799,100.972166 129.258878,101.353027 L129.258878,107 L127.879261,107 L127.879261,99.0751953 L129.184304,99.0751953 Z M140.303267,107 L140.303267,96.3359375 L143.852983,96.3359375 C145.031256,96.3359375 145.917433,96.5751929 146.511541,97.0537109 C147.105649,97.532229 147.402699,98.2402297 147.402699,99.1777344 C147.402699,99.6757837 147.258524,100.116453 146.97017,100.499756 C146.681817,100.883059 146.289065,101.179686 145.791903,101.389648 C146.378554,101.550782 146.84215,101.857175 147.182706,102.308838 C147.523262,102.7605 147.693537,103.298825 147.693537,103.923828 C147.693537,104.880864 147.377844,105.63281 146.746449,106.179688 C146.115054,106.726565 145.222662,107 144.069247,107 L140.303267,107 Z M141.735085,102.012207 L141.735085,105.850098 L144.099077,105.850098 C144.765273,105.850098 145.291014,105.680422 145.676314,105.341064 C146.061614,105.001707 146.254261,104.534183 146.254261,103.938477 C146.254261,102.65429 145.543331,102.012207 144.121449,102.012207 L141.735085,102.012207 Z M141.735085,100.884277 L143.897727,100.884277 C144.524151,100.884277 145.025034,100.73047 145.400391,100.422852 C145.775748,100.115233 145.963423,99.6977565 145.963423,99.1704102 C145.963423,98.5844697 145.789419,98.1584486 145.441406,97.892334 C145.093393,97.6262194 144.563924,97.4931641 143.852983,97.4931641 L141.735085,97.4931641 L141.735085,100.884277 Z M151.094105,107 L149.714489,107 L149.714489,95.75 L151.094105,95.75 L151.094105,107 Z M152.93608,102.964355 C152.93608,102.187984 153.09144,101.489749 153.402166,100.869629 C153.712892,100.249509 154.145416,99.7709978 154.699751,99.434082 C155.254087,99.0971663 155.886715,98.9287109 156.597656,98.9287109 C157.696383,98.9287109 158.585046,99.3022424 159.263672,100.049316 C159.942297,100.79639 160.281605,101.790033 160.281605,103.030273 L160.281605,103.125488 C160.281605,103.896977 160.131216,104.589108 159.830433,105.201904 C159.52965,105.8147 159.099612,106.29199 158.540305,106.633789 C157.980999,106.975588 157.338427,107.146484 156.612571,107.146484 C155.518816,107.146484 154.632638,106.772953 153.954013,106.025879 C153.275387,105.278805 152.93608,104.290045 152.93608,103.05957 L152.93608,102.964355 Z M154.323153,103.125488 C154.323153,104.004399 154.530715,104.709958 154.945845,105.242188 C155.360975,105.774417 155.916545,106.040527 156.612571,106.040527 C157.313569,106.040527 157.870381,105.770755 158.283026,105.231201 C158.69567,104.691648 158.901989,103.93604 158.901989,102.964355 C158.901989,102.09521 158.691941,101.390872 158.271839,100.851318 C157.851738,100.311765 157.293682,100.041992 156.597656,100.041992 C155.916545,100.041992 155.36719,100.308103 154.949574,100.840332 C154.531958,101.372561 154.323153,102.134272 154.323153,103.125488 Z M165.248224,106.040527 C165.740414,106.040527 166.170453,105.894044 166.538352,105.601074 C166.906252,105.308104 167.110085,104.941897 167.149858,104.502441 L168.454901,104.502441 C168.430042,104.956545 168.270953,105.38867 167.977628,105.798828 C167.684303,106.208986 167.292794,106.536132 166.803089,106.780273 C166.313385,107.024415 165.795102,107.146484 165.248224,107.146484 C164.149497,107.146484 163.275749,106.786381 162.626953,106.066162 C161.978157,105.345944 161.653764,104.360846 161.653764,103.11084 L161.653764,102.883789 C161.653764,102.112301 161.797939,101.426273 162.086293,100.825684 C162.374646,100.225095 162.788527,99.7587907 163.327947,99.4267578 C163.867368,99.0947249 164.504968,98.9287109 165.240767,98.9287109 C166.145601,98.9287109 166.897547,99.1948216 167.496626,99.7270508 C168.095706,100.25928 168.415128,100.950191 168.454901,101.799805 L167.149858,101.799805 C167.110085,101.287107 166.912466,100.865968 166.556996,100.536377 C166.201525,100.206785 165.762787,100.041992 165.240767,100.041992 C164.539769,100.041992 163.996628,100.289792 163.611328,100.7854 C163.226028,101.281008 163.033381,101.997554 163.033381,102.935059 L163.033381,103.191406 C163.033381,104.104497 163.224785,104.807615 163.607599,105.300781 C163.990414,105.793948 164.537283,106.040527 165.248224,106.040527 Z M172.258168,103.330566 L171.393111,104.216797 L171.393111,107 L170.013494,107 L170.013494,95.75 L171.393111,95.75 L171.393111,102.554199 L172.131392,101.682617 L174.644531,99.0751953 L176.322443,99.0751953 L173.182884,102.385742 L176.687855,107 L175.069602,107 L172.258168,103.330566 Z M182.444957,104.897949 C182.444957,104.531736 182.304511,104.247315 182.023615,104.044678 C181.742719,103.84204 181.253022,103.667481 180.55451,103.520996 C179.855998,103.374511 179.301671,103.198731 178.891513,102.993652 C178.481354,102.788573 178.17809,102.544435 177.981712,102.26123 C177.785333,101.978026 177.687145,101.641115 177.687145,101.250488 C177.687145,100.601071 177.966794,100.05176 178.526101,99.6025391 C179.085408,99.1533181 179.800067,98.9287109 180.670099,98.9287109 C181.584877,98.9287109 182.326879,99.1606422 182.896129,99.6245117 C183.465379,100.088381 183.75,100.681637 183.75,101.404297 L182.362926,101.404297 C182.362926,101.033201 182.202594,100.71338 181.881925,100.444824 C181.561255,100.176268 181.157318,100.041992 180.670099,100.041992 C180.167966,100.041992 179.775214,100.149413 179.491832,100.364258 C179.20845,100.579103 179.066761,100.859862 179.066761,101.206543 C179.066761,101.533693 179.198507,101.780273 179.462003,101.946289 C179.725498,102.112306 180.201524,102.270995 180.890092,102.422363 C181.578661,102.573731 182.136717,102.754393 182.564276,102.964355 C182.991835,103.174317 183.30877,103.427 183.515092,103.722412 C183.721414,104.017824 183.824574,104.377928 183.824574,104.802734 C183.824574,105.510746 183.536224,106.078367 182.959517,106.505615 C182.38281,106.932863 181.634593,107.146484 180.714844,107.146484 C180.068534,107.146484 179.496806,107.034181 178.999645,106.80957 C178.502483,106.58496 178.11346,106.271242 177.832564,105.868408 C177.551668,105.465574 177.411222,105.029787 177.411222,104.561035 L178.790838,104.561035 C178.815696,105.015139 179.000886,105.375243 179.346413,105.641357 C179.691941,105.907472 180.14808,106.040527 180.714844,106.040527 C181.236863,106.040527 181.655716,105.936769 181.971413,105.729248 C182.287111,105.521727 182.444957,105.244631 182.444957,104.897949 Z" id="TargetConfrmationBlocks" fill="#444444" fill-rule="nonzero"></path>
            <rect id="Rectangle" stroke="#979797" fill="#D8D8D8" x="0.5" y="117.5" width="279" height="1"></rect>
            <path d="M261.650446,101.000019 L269.837238,101.000019 C270.403626,101.000019 270.686788,101.671892 270.285892,102.065629 L266.194065,106.087501 C265.94589,106.331244 265.541794,106.331244 265.293619,106.087501 L261.201823,102.065629 C260.800896,101.671892 261.08409,101.000019 261.650446,101.000019 Z" id="c" fill="#5F5F5F" fill-rule="nonzero"></path>
            <text id="Amount" opacity="0" font-family="Roboto-Regular, Roboto" font-size="12" font-weight="normal" fill="#5E4EA5">
                <tspan x="0" y="82">Amount</tspan>
            </text>
            <text id="sats" font-family="Roboto-Regular, Roboto" font-size="15" font-weight="normal" fill="#444444">
                <tspan x="608" y="36">sats</tspan>
            </text>
            <rect id="Rectangle" stroke="#979797" fill="#D8D8D8" x="608.5" y="46.5" width="97" height="1"></rect>
            <path d="M689.625146,30.0000191 L697.665746,30.0000191 C698.222019,30.0000191 698.500125,30.6718925 698.106388,31.0656293 L694.08763,35.0875008 C693.843886,35.3312442 693.447006,35.3312442 693.203263,35.0875008 L689.184535,31.0656293 C688.790767,30.6718925 689.068904,30.0000191 689.625146,30.0000191 Z" id="c" fill="#5F5F5F" fill-rule="nonzero"></path>
            <g id="Group-31" transform="translate(423.000000, 1.000000)"></g>
            <g id="Group-8" transform="translate(1.000000, 142.000000)"></g>
            <g id="Group-11" transform="translate(0.000000, 71.000000)">
                <g id="Group-9" transform="translate(0.000000, 24.000000)"></g>
            </g>
        </g>
        <text id="sats" font-family="Roboto-Regular, Roboto" font-size="15" font-weight="normal" fill="#444444">
            <tspan x="874" y="262">sats</tspan>
        </text>
    </g>
</svg>