<?xml version="1.0" encoding="UTF-8"?>
<svg width="1284px" height="1030px" viewBox="0 0 1284 1030" version="1.1" xmlns="http://www.w3.org/2000/svg" xmlns:xlink="http://www.w3.org/1999/xlink">
    <!-- Generator: Sketch 63.1 (92452) - https://sketch.com -->
    <title>1.1channels_nochannels</title>
    <desc>Created with Sketch.</desc>
    <defs>
        <rect id="path-1" x="0" y="0" width="218" height="939"></rect>
        <filter x="-6.7%" y="-1.3%" width="113.3%" height="103.1%" filterUnits="objectBoundingBox" id="filter-2">
            <feOffset dx="0" dy="2" in="SourceAlpha" result="shadowOffsetOuter1"></feOffset>
            <feGaussianBlur stdDeviation="4.5" in="shadowOffsetOuter1" result="shadowBlurOuter1"></feGaussianBlur>
            <feColorMatrix values="0 0 0 0 0.508718297   0 0 0 0 0.508320861   0 0 0 0 0.508320861  0 0 0 0.5 0" type="matrix" in="shadowBlurOuter1"></feColorMatrix>
        </filter>
        <rect id="path-3" x="0" y="38" width="1284" height="53"></rect>
        <filter x="-0.8%" y="-15.1%" width="101.6%" height="137.7%" filterUnits="objectBoundingBox" id="filter-4">
            <feOffset dx="0" dy="2" in="SourceAlpha" result="shadowOffsetOuter1"></feOffset>
            <feGaussianBlur stdDeviation="3" in="shadowOffsetOuter1" result="shadowBlurOuter1"></feGaussianBlur>
            <feColorMatrix values="0 0 0 0 0   0 0 0 0 0   0 0 0 0 0  0 0 0 0.5 0" type="matrix" in="shadowBlurOuter1"></feColorMatrix>
        </filter>
        <rect id="path-5" x="0" y="0" width="122" height="36" rx="4"></rect>
        <filter x="-3.3%" y="-5.6%" width="106.6%" height="122.2%" filterUnits="objectBoundingBox" id="filter-6">
            <feOffset dx="0" dy="2" in="SourceAlpha" result="shadowOffsetOuter1"></feOffset>
            <feGaussianBlur stdDeviation="1" in="shadowOffsetOuter1" result="shadowBlurOuter1"></feGaussianBlur>
            <feColorMatrix values="0 0 0 0 0   0 0 0 0 0   0 0 0 0 0  0 0 0 0.257457386 0" type="matrix" in="shadowBlurOuter1"></feColorMatrix>
        </filter>
        <path d="M270.12777,470 L1228.87223,470 C1230.65527,470 1231.30184,470.185651 1231.95369,470.534265 C1232.60554,470.88288 1233.11712,471.394457 1233.46573,472.046309 C1233.81435,472.69816 1234,473.344733 1234,475.12777 L1234,776.87223 C1234,778.655267 1233.81435,779.30184 1233.46573,779.953691 C1233.11712,780.605543 1232.60554,781.11712 1231.95369,781.465735 C1231.30184,781.814349 1230.65527,782 1228.87223,782 L270.12777,782 C268.344733,782 267.69816,781.814349 267.046309,781.465735 C266.394457,781.11712 265.88288,780.605543 265.534265,779.953691 C265.185651,779.30184 265,778.655267 265,776.87223 L265,475.12777 C265,473.344733 265.185651,472.69816 265.534265,472.046309 C265.88288,471.394457 266.394457,470.88288 267.046309,470.534265 C267.69816,470.185651 268.344733,470 270.12777,470 Z" id="path-7"></path>
        <filter x="-1.0%" y="-2.7%" width="102.0%" height="106.1%" filterUnits="objectBoundingBox" id="filter-8">
            <feOffset dx="0" dy="1" in="SourceAlpha" result="shadowOffsetOuter1"></feOffset>
            <feGaussianBlur stdDeviation="3" in="shadowOffsetOuter1" result="shadowBlurOuter1"></feGaussianBlur>
            <feColorMatrix values="0 0 0 0 0   0 0 0 0 0   0 0 0 0 0  0 0 0 0.179550918 0" type="matrix" in="shadowBlurOuter1"></feColorMatrix>
        </filter>
    </defs>
    <g id="1.1channels_nochannels" stroke="none" stroke-width="1" fill="none" fill-rule="evenodd">
        <rect fill="#1D1E1F" x="0" y="0" width="1284" height="1030"></rect>
        <rect id="Background" fill="#F2F5F6" x="0" y="38" width="1284" height="992"></rect>
        <g id="Group-14" transform="translate(0.000000, 91.000000)">
            <g id="Rectangle">
                <use fill="black" fill-opacity="1" filter="url(#filter-2)" xlink:href="#path-1"></use>
                <use fill="#FFFFFF" fill-rule="evenodd" xlink:href="#path-1"></use>
            </g>
            <rect id="Rectangle" fill-opacity="0.114128059" fill="#C2C2C2" x="1" y="209" width="218" height="264"></rect>
            <rect id="Rectangle" fill-opacity="0.114128059" fill="#BEBEBE" x="0" y="208" width="219" height="36"></rect>
            <g id="Group-5" transform="translate(0.000000, 323.000000)">
                <g id="Group-2">
                    <rect id="Rectangle" fill-opacity="0.114128059" fill="#5E4EA5" opacity="0" x="0" y="0" width="218" height="36"></rect>
                    <text id="On-chain-Copy" font-family="Roboto-Regular, Roboto" font-size="14" font-weight="normal" fill="#474747">
                        <tspan x="76" y="23">Graph Lookup</tspan>
                    </text>
                </g>
                <text id="search" font-family="FontAwesome5Pro-Solid, Font Awesome 5 Pro" font-size="14" font-weight="700" fill="#858585">
                    <tspan x="37" y="23">search</tspan>
                </text>
            </g>
            <g id="Group-5" transform="translate(0.000000, 361.000000)">
                <g id="Group-2">
                    <rect id="Rectangle" fill-opacity="0.114128059" fill="#5E4EA5" opacity="0" x="0" y="0" width="218" height="36"></rect>
                    <text id="On-chain-Copy" font-family="Roboto-Regular, Roboto" font-size="14" font-weight="normal" fill="#474747">
                        <tspan x="76" y="23">Sign / Verify</tspan>
                    </text>
                </g>
                <text id="user-check" font-family="FontAwesome5Pro-Solid, Font Awesome 5 Pro" font-size="14" font-weight="700" fill="#858585">
                    <tspan x="37" y="23">user-check</tspan>
                </text>
            </g>
            <g id="Group-5" transform="translate(0.000000, 399.000000)">
                <g id="Group-2">
                    <rect id="Rectangle" fill-opacity="0.114128059" fill="#5E4EA5" opacity="0" x="0" y="0" width="218" height="36"></rect>
                    <text id="On-chain-Copy" font-family="Roboto-Regular, Roboto" font-size="14" font-weight="normal" fill="#4A4A4A">
                        <tspan x="76" y="23">Loop</tspan>
                    </text>
                </g>
                <text id="circle-notch" font-family="FontAwesome5Pro-Solid, Font Awesome 5 Pro" font-size="14" font-weight="700" fill="#777777">
                    <tspan x="37" y="23">circle-notch</tspan>
                </text>
            </g>
            <g id="Group-5" transform="translate(0.000000, 437.000000)">
                <g id="Group-2">
                    <rect id="Rectangle" fill-opacity="0.114128059" fill="#5E4EA5" opacity="0" x="0" y="0" width="218" height="36"></rect>
                    <text id="On-chain-Copy" font-family="Roboto-Regular, Roboto" font-size="14" font-weight="normal" fill="#474747">
                        <tspan x="76" y="23">Backup</tspan>
                    </text>
                </g>
                <text id="download" font-family="FontAwesome5Pro-Solid, Font Awesome 5 Pro" font-size="14" font-weight="700" fill="#858585">
                    <tspan x="37" y="23">download</tspan>
                </text>
            </g>
            <g id="Group-7" transform="translate(0.000000, 285.000000)">
                <g id="Group-2">
                    <rect id="Rectangle" fill-opacity="0.114128059" fill="#5E4EA5" opacity="0" x="0" y="0" width="218" height="36"></rect>
                    <text id="On-chain-Copy" font-family="Roboto-Regular, Roboto" font-size="14" font-weight="normal" fill="#474747">
                        <tspan x="76" y="23">Routing</tspan>
                    </text>
                </g>
                <text id="map-signs" font-family="FontAwesome5Pro-Solid, Font Awesome 5 Pro" font-size="14" font-weight="700" fill="#858585">
                    <tspan x="37" y="23">map-signs</tspan>
                </text>
            </g>
            <g id="Group-13" transform="translate(0.000000, 209.000000)" fill="#5E4EA5">
                <g id="Group-2">
                    <g id="Group-11">
                        <rect id="Rectangle" fill-opacity="0.114128059" opacity="0" x="0" y="0" width="218" height="36"></rect>
                        <text id="users" font-family="FontAwesome5Pro-Solid, Font Awesome 5 Pro" font-size="14" font-weight="700">
                            <tspan x="35" y="23">users</tspan>
                        </text>
                    </g>
                    <text id="On-chain-Copy" font-family="Roboto-Medium, Roboto" font-size="14" font-weight="400">
                        <tspan x="77" y="23">Peers / Channels</tspan>
                    </text>
                </g>
            </g>
            <rect id="Rectangle" fill="#D8D8D8" opacity="0" x="1" y="112" width="218" height="48"></rect>
            <text id="On-chain" font-family="Roboto-Regular, Roboto" font-size="14" font-weight="normal" fill="#474747">
                <tspan x="71" y="141">On-chain</tspan>
            </text>
            <g id="Group-10" transform="translate(1.000000, 530.000000)">
                <rect id="Rectangle" fill="#D8D8D8" opacity="0" x="0" y="0" width="218" height="48"></rect>
                <text id="On-chain" font-family="Roboto-Regular, Roboto" font-size="14" font-weight="normal" fill="#4A4A4A">
                    <tspan x="70" y="29">Settings</tspan>
                </text>
                <text id="cog" font-family="FontAwesome5Pro-Solid, Font Awesome 5 Pro" font-size="14" font-weight="700" fill="#858585">
                    <tspan x="25" y="28">cog</tspan>
                </text>
            </g>
            <g id="Group-9" transform="translate(1.000000, 579.000000)">
                <rect id="Rectangle" fill="#D8D8D8" opacity="0" x="0" y="0" width="218" height="48"></rect>
                <text id="On-chain" font-family="Roboto-Regular, Roboto" font-size="14" font-weight="normal" fill="#4A4A4A">
                    <tspan x="70" y="29">Help</tspan>
                </text>
                <text id="life-ring" font-family="FontAwesome5Pro-Solid, Font Awesome 5 Pro" font-size="14" font-weight="700" fill="#858585">
                    <tspan x="25" y="27">life-ring</tspan>
                </text>
            </g>
            <g id="Group-6" transform="translate(1.000000, 884.000000)">
                <g id="Group-30" transform="translate(0.000000, 7.000000)">
                    <g id="Group-3">
                        <rect id="Rectangle" fill="#D8D8D8" opacity="0" x="0" y="0" width="218" height="48"></rect>
                        <text id="On-chain" font-family="Roboto-Regular, Roboto" font-size="14" font-weight="normal" fill="#4A4A4A">
                            <tspan x="70" y="29">Public Key</tspan>
                        </text>
                    </g>
                    <text id="eye" font-family="FontAwesome5Pro-Solid, Font Awesome 5 Pro" font-size="14" font-weight="700" fill="#858585">
                        <tspan x="24" y="27">eye</tspan>
                    </text>
                </g>
                <line x1="0.5" y1="0.5" x2="218.5" y2="0.5" id="Line-3" stroke="#E6E6E6" stroke-linecap="square"></line>
            </g>
            <g id="Group-8" transform="translate(1.000000, 482.000000)">
                <rect id="Rectangle" fill="#D8D8D8" opacity="0" x="0" y="0" width="218" height="48"></rect>
                <text id="On-chain" font-family="Roboto-Regular, Roboto" font-size="14" font-weight="normal" fill="#4A4A4A">
                    <tspan x="70" y="29">Node / Network</tspan>
                </text>
                <text id="server" font-family="FontAwesome5Pro-Solid, Font Awesome 5 Pro" font-size="14" font-weight="700" fill="#858585">
                    <tspan x="25" y="28">server</tspan>
                </text>
            </g>
            <g id="Group-12" transform="translate(29.000000, 176.000000)" font-size="14">
                <text id="On-chain-Copy" font-family="Roboto-Regular, Roboto" font-weight="normal" fill="#474747">
                    <tspan x="42" y="13">Lightning</tspan>
                </text>
                <text id="bolt" font-family="FontAwesome5Pro-Solid, Font Awesome 5 Pro" font-weight="700" fill="#858585">
                    <tspan x="0" y="12">bolt</tspan>
                </text>
            </g>
            <text id="Dashboard" font-family="Roboto-Regular, Roboto" font-size="14" font-weight="normal" fill="#4A4A4A">
                <tspan x="71" y="91">Dashboard</tspan>
            </text>
            <g id="Group-18" transform="translate(25.000000, 26.000000)">
                <text id="Dashboard" font-family="Roboto-Regular, Roboto" font-size="16" font-weight="normal" fill="#181818">
                    <tspan x="0" y="15">Amora_UK01</tspan>
                </text>
                <path d="M99.6365126,7 L107.823305,7 C108.389692,7 108.672855,7.6718734 108.271959,8.06561025 L104.180132,12.0874818 C103.931957,12.3312251 103.527861,12.3312251 103.279686,12.0874818 L99.1878898,8.06561025 C98.786963,7.6718734 99.0701566,7 99.6365126,7 Z" id="c" fill="#4B4B4B" fill-rule="nonzero"></path>
            </g>
            <text id="tachometer-alt-fast" font-family="FontAwesome5Pro-Solid, Font Awesome 5 Pro" font-size="14" font-weight="700" fill="#858585">
                <tspan x="25" y="90">tachometer-alt-fast</tspan>
            </text>
            <text id="link" font-family="FontAwesome5Pro-Solid, Font Awesome 5 Pro" font-size="14" font-weight="700" fill="#858585">
                <tspan x="26" y="139">link</tspan>
            </text>
            <text id="bolt" font-family="FontAwesome5Pro-Solid, Font Awesome 5 Pro" font-size="14" font-weight="700" fill="#858585">
                <tspan x="29" y="188">bolt</tspan>
            </text>
            <g id="Group-2" transform="translate(0.000000, 247.000000)">
                <rect id="Rectangle" fill-opacity="0.114128059" fill="#5E4EA5" opacity="0" x="0" y="0" width="218" height="36"></rect>
                <text id="On-chain-Copy" font-family="Roboto-Regular, Roboto" font-size="14" font-weight="normal" fill="#4C4C4C">
                    <tspan x="76" y="23">Transactions</tspan>
                </text>
            </g>
            <text id="exchange" font-family="FontAwesome5Pro-Solid, Font Awesome 5 Pro" font-size="14" font-weight="700" fill="#7E7E7E">
                <tspan x="37" y="270">exchange</tspan>
            </text>
        </g>
        <g id="Rectangle-13">
            <use fill="black" fill-opacity="1" filter="url(#filter-4)" xlink:href="#path-3"></use>
            <use fill="#5E4EA5" fill-rule="evenodd" xlink:href="#path-3"></use>
        </g>
        <g id="Browser">
            <path d="M0,6.00024414 C0,2.68640081 2.6794487,0 5.99234946,0 L1278.00765,0 C1281.31713,0 1284,2.68722626 1284,6.00024414 L1284,38 L0,38 L0,6.00024414 Z" id="Tab-BG---Right" fill="#363738"></path>
            <circle id="Dot---Red" fill="#FF5F57" cx="18" cy="19" r="6"></circle>
            <circle id="Dot---Orange" fill="#FFBF2F" cx="38" cy="19" r="6"></circle>
            <circle id="Dot---Green" fill="#28CA42" cx="58" cy="19" r="6"></circle>
            <g id="Back" transform="translate(76.000000, 7.000000)">
                <rect id="Rectangle" fill="#656668" x="0" y="0" width="28" height="24" rx="4"></rect>
                <path d="M10.1607883,11.3246277 L15.780455,5.65901618 C15.9603839,5.47908726 16.2513057,5.47908726 16.4312347,5.65901618 L17.1891941,6.41697565 C17.3691231,6.59690457 17.3691231,6.88782642 17.1891941,7.06775535 L12.6528768,11.6500175 L17.1891941,16.2322797 C17.3691231,16.4122086 17.3691231,16.7031305 17.1891941,16.8830594 L16.4312347,17.6410189 C16.2513057,17.8209478 15.9603839,17.8209478 15.780455,17.6410189 L10.1607883,11.9754074 C9.98085942,11.7954785 9.98085942,11.5045566 10.1607883,11.3246277 Z" id="a" fill="#FFFFFF" fill-rule="nonzero"></path>
            </g>
            <g id="Forward" transform="translate(105.000000, 7.000000)">
                <rect id="Rectangle" fill="#656668" x="0" y="0" width="28" height="24" rx="4"></rect>
                <path d="M18.1891941,11.9754074 L12.5695275,17.6410189 C12.3895986,17.8209478 12.0986767,17.8209478 11.9187478,17.6410189 L11.1607883,16.8830594 C10.9808594,16.7031305 10.9808594,16.4122086 11.1607883,16.2322797 L15.6971057,11.6500175 L11.1607883,7.06775535 C10.9808594,6.88782642 10.9808594,6.59690457 11.1607883,6.41697565 L11.9187478,5.65901618 C12.0986767,5.47908726 12.3895986,5.47908726 12.5695275,5.65901618 L18.1891941,11.3246277 C18.3691231,11.5045566 18.3691231,11.7954785 18.1891941,11.9754074 Z" id="a" fill="#FFFFFF" fill-rule="nonzero" opacity="0.200334821"></path>
            </g>
            <g id="New-Tab" transform="translate(1260.000000, 14.000000)">
                <rect id="Rectangle" fill="#292A2B" x="0" y="0" width="24" height="24"></rect>
                <path d="M16.2531029,11.6843877 C16.3618742,11.6843877 16.4499775,11.7724909 16.4499775,11.8812622 L16.4499775,12.6687603 C16.4499775,12.7775316 16.3618742,12.8656349 16.2531029,12.8656349 L12.3156123,12.8656349 L12.3156123,16.8031255 C12.3156123,16.9118967 12.2275091,17 12.1187378,17 L11.3312397,17 C11.2224684,17 11.1343651,16.9118967 11.1343651,16.8031255 L11.1343651,12.8656349 L7.19687453,12.8656349 C7.08810328,12.8656349 7,12.7775316 7,12.6687603 L7,11.8812622 C7,11.7724909 7.08810328,11.6843877 7.19687453,11.6843877 L11.1343651,11.6843877 L11.1343651,7.74689706 C11.1343651,7.63812581 11.2224684,7.55002253 11.3312397,7.55002253 L12.1187378,7.55002253 C12.2275091,7.55002253 12.3156123,7.63812581 12.3156123,7.74689706 L12.3156123,11.6843877 L16.2531029,11.6843877 Z" id="p" fill="#FFFFFF" fill-rule="nonzero" opacity="0.497907366"></path>
            </g>
            <g id="URL" transform="translate(378.000000, 7.000000)">
                <path d="M0,3.99005301 C0,1.78640758 1.78094395,5.31029755e-14 3.99753941,5.28693238e-14 L516.002461,-1.1012102e-15 C518.210241,-1.33393271e-15 520,1.78429328 520,3.99005301 L520,20.009947 C520,22.2135924 518.219056,24 516.002461,24 L3.99753941,24 C1.78975936,24 0,22.2157067 0,20.009947 L0,3.99005301 Z" id="URL-Bar" fill="#696A6B"></path>
                <path d="M512.304658,5.17186422 C512.467743,5.17186422 512.59997,5.30412783 512.59997,5.46721261 L512.59997,10.1922013 C512.59997,10.3552861 512.467743,10.4875131 512.304658,10.4875131 L507.579669,10.4875131 C507.416585,10.4875131 507.284358,10.3552861 507.284358,10.1922013 L507.284358,9.51027815 C507.284358,9.34440559 507.42091,9.21109712 507.586711,9.21503845 L510.69705,9.2890827 C509.940722,7.61516854 508.257531,6.45158527 506.299985,6.45158527 C503.633864,6.45158527 501.476559,8.60927437 501.476559,11.2750113 C501.476559,13.9411327 503.634248,16.0984373 506.299985,16.0984373 C507.533046,16.0984373 508.65724,15.6369165 509.509554,14.8770557 C509.6264,14.7728747 509.804938,14.7799403 509.915632,14.8906341 L510.401377,15.3763797 C510.521276,15.4962781 510.51534,15.6917347 510.389505,15.8053845 C509.307296,16.7829079 507.873155,17.3781217 506.299985,17.3781217 C502.93257,17.3781217 500.202138,14.6509336 500.19686,11.2847685 C500.191635,7.92836054 502.924087,5.18242707 506.280471,5.17186422 C508.411171,5.16526784 510.288545,6.2506252 511.385221,7.89993005 L511.327471,5.47425415 C511.32353,5.30842965 511.456862,5.17186422 511.622711,5.17186422 L512.304658,5.17186422 Z" id="r" fill="#FFFFFF" fill-rule="nonzero" transform="translate(506.398415, 11.274993) rotate(-45.000000) translate(-506.398415, -11.274993) "></path>
                <text id="Ride-the-Lightning" font-family="Roboto-Regular, Roboto" font-size="12.6" font-weight="normal" fill="#FFFFFF">
                    <tspan x="210" y="17">Ride the Lightning</tspan>
                </text>
            </g>
        </g>
        <text id="Dashboard" font-family="FontAwesome5Pro-Regular, Font Awesome 5 Pro" font-size="18" font-weight="normal" fill="#FFFFFF">
            <tspan x="24" y="71">bars</tspan>
        </text>
        <g id="RTL-Logo" transform="translate(1210.000000, 56.000000)" fill="#FFFFFF">
            <path d="M5.10234375,10.1960631 L3.54375,10.1960631 L2.80546875,14.4124693 L0,14.4124693 L2.0671875,2.46871933 L6.28359375,2.47692246 C7.63438175,2.47692246 8.67480104,2.79273961 9.40488281,3.4243834 C10.1349646,4.05602718 10.4617191,4.91871386 10.3851562,6.01246933 C10.3249997,6.87653615 10.0761741,7.59156807 9.63867187,8.15758652 C9.20116969,8.72360498 8.58867581,9.17067082 7.80117187,9.49879746 L9.40898437,14.2730162 L9.40898437,14.4124693 L6.41484375,14.4124693 L5.10234375,10.1960631 Z M3.92109375,7.97301621 L5.56171875,7.98942246 C6.01015849,7.98942246 6.39980303,7.88004855 6.73066406,7.66129746 C7.06152509,7.44254636 7.29804616,7.1431353 7.44023438,6.76305527 C7.58242259,6.38297525 7.6234378,6.01520549 7.56328125,5.65973496 C7.4539057,5.05270067 7.06562834,4.732782 6.3984375,4.69996933 L4.4953125,4.69176621 L3.92109375,7.97301621 Z M21.0984375,4.69176621 L17.6203125,4.69176621 L15.9386719,14.4124693 L13.125,14.4124693 L14.8148438,4.69176621 L11.3941406,4.69176621 L11.7878906,2.46871933 L21.4839844,2.46871933 L21.0984375,4.69176621 Z M23.8464844,12.1976256 L28.7109375,12.1976256 L28.3253906,14.4124693 L20.6554688,14.4124693 L22.7226562,2.46871933 L25.5363281,2.46871933 L23.8464844,12.1976256 Z" id="RTL-Copy" fill-rule="nonzero"></path>
            <path d="M37.882011,5.59373905 C38.4131621,5.59373905 38.7433371,6.1708163 38.4763316,6.62733033 L33.4232186,15.3554345 C33.2968796,15.5736259 33.0671926,15.699965 32.8260382,15.699965 C32.3867394,15.699965 32.0537046,15.2894051 32.1570525,14.8529943 L33.4806404,9.26873029 L30.0726546,9.26873029 C29.656347,9.26873029 29.3347797,8.90123677 29.3893415,8.48778904 L30.3080893,1.59718047 C30.3540155,1.25553795 30.646872,1 30.9914024,1 L35.1257676,1 C35.5765338,1 35.9067088,1.43066304 35.7918653,1.86707385 L34.5687655,5.59373905 L37.882011,5.59373905 Z" id="b-copy" fill-rule="nonzero"></path>
            <text id="caret-down-copy" font-family="FontAwesome5Pro-Solid, Font Awesome 5 Pro" font-size="16" font-weight="700">
                <tspan x="46" y="14">caret-down</tspan>
            </text>
        </g>
        <path d="M1254.87223,337.5 L247.12777,337.5 C245.486332,337.5 244.884079,337.653234 244.282108,337.975172 C243.718679,338.276497 243.276497,338.718679 242.975172,339.282108 C242.653234,339.884079 242.5,340.486332 242.5,342.12777 L242.5,802.87223 C242.5,804.513668 242.653234,805.115921 242.975172,805.717892 C243.276497,806.281321 243.718679,806.723503 244.282108,807.024828 C244.884079,807.346766 245.486332,807.5 247.12777,807.5 L1254.87223,807.5 C1256.51367,807.5 1257.11592,807.346766 1257.71789,807.024828 C1258.28132,806.723503 1258.7235,806.281321 1259.02483,805.717892 C1259.34677,805.115921 1259.5,804.513668 1259.5,802.87223 L1259.5,342.12777 C1259.5,340.486332 1259.34677,339.884079 1259.02483,339.282108 C1258.7235,338.718679 1258.28132,338.276497 1257.71789,337.975172 C1257.11592,337.653234 1256.51367,337.5 1254.87223,337.5 Z" id="Rectangle" stroke="#DEDEDE" fill="#FFFFFF"></path>
        <g id="Group-7" transform="translate(242.000000, 354.000000)">
            <line x1="158" y1="31.5" x2="1018.5" y2="30.5" id="Line" stroke="#D7D7D7" stroke-linecap="square"></line>
            <rect id="Rectangle" fill="#5E4EA5" x="0" y="30" width="160" height="2"></rect>
            <text id="Channels" font-family="Roboto-Medium, Roboto" font-size="14" font-weight="400" fill="#5E4EA5">
                <tspan x="50.8139648" y="13">Channels</tspan>
            </text>
            <text id="Peers" font-family="Roboto-Regular, Roboto" font-size="14" font-weight="normal" fill="#979797">
                <tspan x="222.188965" y="13">Peers</tspan>
            </text>
            <text id="4" font-family="Roboto-Bold, Roboto" font-size="11" font-weight="bold" fill="#FFFFFF">
                <tspan x="266.344482" y="12">4</tspan>
            </text>
            <g id="Group-35" transform="translate(114.000000, 2.000000)">
                <g id="Group-19">
                    <g id="Group-17">
                        <g id="Group-34">
                            <circle id="Oval" fill="#858585" cx="155.5" cy="7.5" r="7.5"></circle>
                            <text id="0" font-family="Roboto-Bold, Roboto" font-size="11" font-weight="bold" fill="#FFFFFF">
                                <tspan x="152.344482" y="11">0</tspan>
                            </text>
                            <circle id="Oval" fill="#5E4EA5" cx="7.5" cy="7.5" r="7.5"></circle>
                        </g>
                    </g>
                    <g id="Group-17" transform="translate(4.000000, 1.000000)"></g>
                </g>
                <text id="0" font-family="Roboto-Bold, Roboto" font-size="11" font-weight="bold" fill="#FFFFFF">
                    <tspan x="4.34448242" y="11">0</tspan>
                </text>
            </g>
        </g>
        <g id="Group-8" transform="translate(267.000000, 409.000000)">
            <g id="Rectangle-Copy-7">
                <use fill="black" fill-opacity="1" filter="url(#filter-6)" xlink:href="#path-5"></use>
                <use fill="#5E4EA5" fill-rule="evenodd" xlink:href="#path-5"></use>
            </g>
            <text id="Open-Channel" font-family="Roboto-Medium, Roboto" font-size="14" font-weight="400" fill="#FFFFFF">
                <tspan x="17.7602539" y="23">Open Channel</tspan>
            </text>
        </g>
        <g id="Rectangle">
            <use fill="black" fill-opacity="1" filter="url(#filter-8)" xlink:href="#path-7"></use>
            <use fill="#FFFFFF" fill-rule="evenodd" xlink:href="#path-7"></use>
        </g>
        <line x1="415" y1="518.5" x2="1233.52381" y2="517.50122" id="Line" stroke="#D7D7D7" stroke-linecap="square"></line>
        <g id="Group-15" transform="translate(265.000000, 487.000000)">
            <rect id="Rectangle" fill="#5E4EA5" x="0" y="30" width="152" height="2"></rect>
            <text id="Open" font-family="Roboto-Medium, Roboto" font-size="14" font-weight="400" fill="#5E4EA5">
                <tspan x="59.5766602" y="13">Open</tspan>
            </text>
            <g id="Group-4" transform="translate(96.000000, 1.000000)">
                <circle id="Oval" fill="#5E4EA5" cx="7.5" cy="7.5" r="7.5"></circle>
                <text id="0" font-family="Roboto-Bold, Roboto" font-size="11" font-weight="bold" fill="#FFFFFF">
                    <tspan x="4.11114909" y="11">0</tspan>
                </text>
            </g>
        </g>
        <rect id="Rectangle" fill="#59316B" opacity="0" x="417" y="517" width="153" height="2"></rect>
        <rect id="Rectangle" fill="#59316B" opacity="0" x="570" y="517" width="152" height="2"></rect>
        <g id="Group-25" transform="translate(417.000000, 487.000000)">
            <text id="Pending" font-family="Roboto-Regular, Roboto" font-size="14" font-weight="normal" fill="#979797">
                <tspan x="51.0771484" y="13">Pending</tspan>
            </text>
            <g id="Group-22" transform="translate(106.000000, 1.000000)">
                <circle id="Oval" fill="#858585" cx="7.5" cy="7.5" r="7.5"></circle>
                <text id="0" font-family="Roboto-Bold, Roboto" font-size="11" font-weight="bold" fill="#FFFFFF">
                    <tspan x="4.11114909" y="11">0</tspan>
                </text>
            </g>
        </g>
        <g id="Group-25" transform="translate(569.000000, 487.000000)">
            <text id="Closed" font-family="Roboto-Regular, Roboto" font-size="14" font-weight="normal" fill="#979797">
                <tspan x="54.9873047" y="13">Closed</tspan>
            </text>
            <g id="Group-22" transform="translate(101.000000, 1.000000)">
                <circle id="Oval" fill="#858585" cx="7.5" cy="7.5" r="7.5"></circle>
                <text id="0" font-family="Roboto-Bold, Roboto" font-size="11" font-weight="bold" fill="#FFFFFF">
                    <tspan x="4.11114909" y="11">0</tspan>
                </text>
            </g>
        </g>
        <g id="Group-31" transform="translate(1136.000000, 476.000000)">
            <rect id="Rectangle-Copy-7" stroke="#DCDCDC" fill="#FFFFFF" x="0.5" y="0.5" width="91" height="35" rx="4"></rect>
            <text id="Actions-caret-down" font-family="Roboto-Medium, Roboto" font-size="14" font-weight="400" fill="#4F4F4F">
                <tspan x="16.4526367" y="23">Actions </tspan>
                <tspan x="67.7973633" y="23" font-family="FontAwesome5Pro-Solid, Font Awesome 5 Pro" font-weight="700">caret-down</tspan>
            </text>
        </g>
        <g id="Group-15" transform="translate(998.000000, 540.000000)">
            <path d="M4,0 L208,0 C210.209139,-4.05812251e-16 212,1.790861 212,4 L212,40 L212,40 L0,40 L0,4 C-2.705415e-16,1.790861 1.790861,4.05812251e-16 4,0 Z" id="Rectangle" fill="#F0F0F0"></path>
            <text id="Filter" font-family="Roboto-Regular, Roboto" font-size="16" font-weight="normal" fill="#717171">
                <tspan x="14" y="25.9">Filter</tspan>
            </text>
            <rect id="Rectangle" stroke="#838383" x="0.5" y="39.7" width="211" height="1"></rect>
        </g>
        <g id="Group-21" transform="translate(243.000000, 143.000000)">
            <path d="M1012.87223,0.5 L5.1277704,0.5 C3.48633153,0.5 2.88407891,0.653234454 2.28210802,0.975172007 C1.71867923,1.27649702 1.27649702,1.71867923 0.975172007,2.28210802 C0.653234454,2.88407891 0.5,3.48633153 0.5,5.1277704 L0.5,126.87223 C0.5,128.513668 0.653234454,129.115921 0.975172007,129.717892 C1.27649702,130.281321 1.71867923,130.723503 2.28210802,131.024828 C2.88407891,131.346766 3.48633153,131.5 5.1277704,131.5 L1012.87223,131.5 C1014.51367,131.5 1015.11592,131.346766 1015.71789,131.024828 C1016.28132,130.723503 1016.7235,130.281321 1017.02483,129.717892 C1017.34677,129.115921 1017.5,128.513668 1017.5,126.87223 L1017.5,5.1277704 C1017.5,3.48633153 1017.34677,2.88407891 1017.02483,2.28210802 C1016.7235,1.71867923 1016.28132,1.27649702 1015.71789,0.975172007 C1015.11592,0.653234454 1014.51367,0.5 1012.87223,0.5 Z" id="Rectangle" stroke="#DEDEDE" fill="#FFFFFF"></path>
            <line x1="0" y1="48.5" x2="1018" y2="48.5" id="Line" stroke="#D7D7D7" stroke-linecap="square"></line>
            <rect id="Rectangle" fill="#5E4EA5" x="1" y="47" width="79" height="2"></rect>
            <rect id="Rectangle" fill="#59316B" opacity="0" x="78" y="47" width="80" height="2"></rect>
            <text id="SATS" font-family="Roboto-Medium, Roboto" font-size="14" font-weight="400" fill="#5E4EA5">
                <tspan x="22.1435547" y="30">SATS</tspan>
            </text>
            <text id="BTC" font-family="Roboto-Regular, Roboto" font-size="14" font-weight="normal" fill="#979797">
                <tspan x="104.90918" y="30">BTC</tspan>
            </text>
            <text id="GBP" font-family="Roboto-Regular, Roboto" font-size="14" font-weight="normal" fill="#979797">
                <tspan x="182.958008" y="30">GBP</tspan>
            </text>
            <g id="Group-26" transform="translate(24.000000, 72.000000)">
                <text id="Total-Balance" font-family="Roboto-Medium, Roboto" font-size="12" font-weight="400" fill="#5E4EA5">
                    <tspan x="0" y="11">Total Balance</tspan>
                </text>
                <text id="413,722" font-family="Roboto-Light, Roboto" font-size="20" font-weight="300" fill="#222831">
                    <tspan x="0" y="37">413,722</tspan>
                </text>
            </g>
            <g id="Group-23" transform="translate(121.000000, 72.000000)">
                <text id="Confirmed" font-family="Roboto-Medium, Roboto" font-size="12" font-weight="400" fill="#5E4EA5">
                    <tspan x="0" y="11">Confirmed</tspan>
                </text>
                <text id="413,721" font-family="Roboto-Light, Roboto" font-size="20" font-weight="300" fill="#222831">
                    <tspan x="0" y="37">413,721</tspan>
                </text>
            </g>
            <g id="Group-24" transform="translate(216.000000, 72.000000)">
                <text id="Unconfirmed" font-family="Roboto-Medium, Roboto" font-size="12" font-weight="400" fill="#5E4EA5">
                    <tspan x="0" y="11">Unconfirmed</tspan>
                </text>
                <text id="0" font-family="Roboto-Light, Roboto" font-size="20" font-weight="300" fill="#222831">
                    <tspan x="0" y="37">0</tspan>
                </text>
            </g>
        </g>
        <text id="On-chain-Balance" font-family="Roboto-Regular, Roboto" font-size="16" font-weight="normal" fill="#84979E">
            <tspan x="270.000078" y="130">On-chain Balance</tspan>
        </text>
        <g id="Group-20" transform="translate(245.000078, 116.000000)"></g>
        <text id="chart-pie" font-family="FontAwesome5Pro-Solid, Font Awesome 5 Pro" font-size="16" font-weight="700" fill="#84979E">
            <tspan x="245" y="130">chart-pie</tspan>
        </text>
        <g id="Group-33" transform="translate(245.000000, 309.000000)" fill="#84979E" font-size="16">
            <text id="Connections" font-family="Roboto-Regular, Roboto" font-weight="normal">
                <tspan x="25" y="15">Connections</tspan>
            </text>
            <text id="users" font-family="FontAwesome5Pro-Solid, Font Awesome 5 Pro" font-weight="700">
                <tspan x="0" y="15">users</tspan>
            </text>
        </g>
        <g id="Group-33" transform="translate(291.000000, 563.000000)" fill="#84979E" font-size="16">
            <text id="Channel-List" font-family="Roboto-Regular, Roboto" font-weight="normal">
                <tspan x="31" y="15">Channel List</tspan>
            </text>
            <text id="network-wired" font-family="FontAwesome5Pro-Solid, Font Awesome 5 Pro" font-weight="700">
                <tspan x="0" y="15">network-wired</tspan>
            </text>
        </g>
        <g id="Group-26" transform="translate(289.000000, 593.000000)">
            <g id="Group-21">
                <g id="Group-45">
                    <path d="M914.87223,0.5 L5.1277704,0.5 C3.48633153,0.5 2.88407891,0.653234454 2.28210802,0.975172007 C1.71867923,1.27649702 1.27649702,1.71867923 0.975172007,2.28210802 C0.653234454,2.88407891 0.5,3.48633153 0.5,5.1277704 L0.5,158.87223 C0.5,160.513668 0.653234454,161.115921 0.975172007,161.717892 C1.27649702,162.281321 1.71867923,162.723503 2.28210802,163.024828 C2.88407891,163.346766 3.48633153,163.5 5.1277704,163.5 L914.87223,163.5 C916.513668,163.5 917.115921,163.346766 917.717892,163.024828 C918.281321,162.723503 918.723503,162.281321 919.024828,161.717892 C919.346766,161.115921 919.5,160.513668 919.5,158.87223 L919.5,5.1277704 C919.5,3.48633153 919.346766,2.88407891 919.024828,2.28210802 C918.723503,1.71867923 918.281321,1.27649702 917.717892,0.975172007 C917.115921,0.653234454 916.513668,0.5 914.87223,0.5 Z" id="Rectangle" stroke="#DEDEDE" fill="#FFFFFF"></path>
                    <text id="No-peers-connected." font-family="Roboto-Regular, Roboto" font-size="14" font-weight="normal" letter-spacing="0.200000003" fill="#4F4F4F">
                        <tspan x="18" y="90">No peers connected. Add a peer in order to open a channel.</tspan>
                    </text>
                    <line x1="1" y1="56.5" x2="920.347518" y2="56.5" id="Line-2" stroke="#E1E1E1" stroke-linecap="square"></line>
                    <text id="Rows-per-page:-10-ca" font-family="Roboto-Regular, Roboto" font-size="14" font-weight="normal" letter-spacing="0.200000003" fill="#4F4F4F">
                        <tspan x="570" y="142">Rows per page: 10  </tspan>
                        <tspan x="695.336133" y="142" font-family="FontAwesome5Pro-Solid, Font Awesome 5 Pro" font-weight="700">caret-down</tspan>
                    </text>
                    <text id="0-0-of-0" font-family="Roboto-Regular, Roboto" font-size="14" font-weight="normal" letter-spacing="0.200000003" fill="#4F4F4F">
                        <tspan x="758" y="142">0-0 of 0</tspan>
                    </text>
                    <text id="angle-right" font-family="FontAwesome5Pro-Regular, Font Awesome 5 Pro" font-size="14" font-weight="normal" letter-spacing="0.200000003" fill="#4F4F4F">
                        <tspan x="892" y="142">angle-right</tspan>
                    </text>
                    <text id="angle-left" font-family="FontAwesome5Pro-Regular, Font Awesome 5 Pro" font-size="14" font-weight="normal" letter-spacing="0.200000003" fill="#4F4F4F">
                        <tspan x="856" y="142">angle-left</tspan>
                    </text>
                    <line x1="1" y1="112.5" x2="920.347518" y2="112.5" id="Line-2" stroke="#E1E1E1" stroke-linecap="square"></line>
                </g>
                <text id="Actions" font-family="Roboto-Medium, Roboto" font-size="14" font-weight="400" letter-spacing="0.5" fill="#000000">
                    <tspan x="844" y="36">Actions</tspan>
                </text>
                <text id="Fee-Policy" font-family="Roboto-Medium, Roboto" font-size="14" font-weight="400" letter-spacing="0.5" fill="#000000">
                    <tspan x="719" y="36">Fee Policy</tspan>
                </text>
            </g>
            <text id="Peer" font-family="Roboto-Medium, Roboto" font-size="14" font-weight="400" letter-spacing="0.5" fill="#000000">
                <tspan x="17" y="36">Peer</tspan>
            </text>
            <text id="Sent" font-family="Roboto-Medium, Roboto" font-size="14" font-weight="400" letter-spacing="0.5" fill="#000000">
                <tspan x="142" y="36">Sent</tspan>
            </text>
            <text id="Received" font-family="Roboto-Medium, Roboto" font-size="14" font-weight="400" letter-spacing="0.5" fill="#000000">
                <tspan x="203.083984" y="36">Received</tspan>
            </text>
            <text id="Capacity" font-family="Roboto-Medium, Roboto" font-size="14" font-weight="400" letter-spacing="0.5" fill="#000000">
                <tspan x="289" y="36">Capacity</tspan>
            </text>
        </g>
    </g>
</svg>