<?xml version="1.0" encoding="UTF-8"?>
<svg width="1284px" height="1030px" viewBox="0 0 1284 1030" version="1.1" xmlns="http://www.w3.org/2000/svg" xmlns:xlink="http://www.w3.org/1999/xlink">
    <!-- Generator: Sketch 61.2 (89653) - https://sketch.com -->
    <title>1.2channels_channels_basic</title>
    <desc>Created with Sketch.</desc>
    <defs>
        <rect id="path-1" x="0" y="91" width="218" height="939"></rect>
        <filter x="-6.7%" y="-1.3%" width="113.3%" height="103.1%" filterUnits="objectBoundingBox" id="filter-2">
            <feOffset dx="0" dy="2" in="SourceAlpha" result="shadowOffsetOuter1"></feOffset>
            <feGaussianBlur stdDeviation="4.5" in="shadowOffsetOuter1" result="shadowBlurOuter1"></feGaussianBlur>
            <feColorMatrix values="0 0 0 0 0.508718297   0 0 0 0 0.508320861   0 0 0 0 0.508320861  0 0 0 0.5 0" type="matrix" in="shadowBlurOuter1"></feColorMatrix>
        </filter>
        <rect id="path-3" x="0" y="38" width="1284" height="53"></rect>
        <filter x="-0.8%" y="-15.1%" width="101.6%" height="137.7%" filterUnits="objectBoundingBox" id="filter-4">
            <feOffset dx="0" dy="2" in="SourceAlpha" result="shadowOffsetOuter1"></feOffset>
            <feGaussianBlur stdDeviation="3" in="shadowOffsetOuter1" result="shadowBlurOuter1"></feGaussianBlur>
            <feColorMatrix values="0 0 0 0 0   0 0 0 0 0   0 0 0 0 0  0 0 0 0.5 0" type="matrix" in="shadowBlurOuter1"></feColorMatrix>
        </filter>
        <rect id="path-5" x="0" y="0" width="122" height="36" rx="4"></rect>
        <filter x="-3.3%" y="-5.6%" width="106.6%" height="122.2%" filterUnits="objectBoundingBox" id="filter-6">
            <feOffset dx="0" dy="2" in="SourceAlpha" result="shadowOffsetOuter1"></feOffset>
            <feGaussianBlur stdDeviation="1" in="shadowOffsetOuter1" result="shadowBlurOuter1"></feGaussianBlur>
            <feColorMatrix values="0 0 0 0 0   0 0 0 0 0   0 0 0 0 0  0 0 0 0.257457386 0" type="matrix" in="shadowBlurOuter1"></feColorMatrix>
        </filter>
        <circle id="path-7" cx="10" cy="10" r="10"></circle>
        <filter x="-10.0%" y="-5.0%" width="120.0%" height="120.0%" filterUnits="objectBoundingBox" id="filter-8">
            <feOffset dx="0" dy="1" in="SourceAlpha" result="shadowOffsetOuter1"></feOffset>
            <feGaussianBlur stdDeviation="0.5" in="shadowOffsetOuter1" result="shadowBlurOuter1"></feGaussianBlur>
            <feColorMatrix values="0 0 0 0 0   0 0 0 0 0   0 0 0 0 0  0 0 0 0.5 0" type="matrix" in="shadowBlurOuter1"></feColorMatrix>
        </filter>
    </defs>
    <g id="1.2channels_channels_basic" stroke="none" stroke-width="1" fill="none" fill-rule="evenodd">
        <rect fill="#1D1E1F" x="0" y="0" width="1284" height="1030"></rect>
        <rect id="Background" fill="#F2F5F6" x="0" y="38" width="1284" height="992"></rect>
        <g id="Rectangle">
            <use fill="black" fill-opacity="1" filter="url(#filter-2)" xlink:href="#path-1"></use>
            <use fill="#FFFFFF" fill-rule="evenodd" xlink:href="#path-1"></use>
        </g>
        <g id="Rectangle-13">
            <use fill="black" fill-opacity="1" filter="url(#filter-4)" xlink:href="#path-3"></use>
            <use fill="#5E4EA5" fill-rule="evenodd" xlink:href="#path-3"></use>
        </g>
        <g id="Browser">
            <path d="M0,6.00024414 C0,2.68640081 2.6794487,0 5.99234946,0 L1278.00765,0 C1281.31713,0 1284,2.68722626 1284,6.00024414 L1284,38 L0,38 L0,6.00024414 Z" id="Tab-BG---Right" fill="#363738"></path>
            <circle id="Dot---Red" fill="#FF5F57" cx="18" cy="19" r="6"></circle>
            <circle id="Dot---Orange" fill="#FFBF2F" cx="38" cy="19" r="6"></circle>
            <circle id="Dot---Green" fill="#28CA42" cx="58" cy="19" r="6"></circle>
            <g id="Back" transform="translate(76.000000, 7.000000)">
                <rect id="Rectangle" fill="#656668" x="0" y="0" width="28" height="24" rx="4"></rect>
                <path d="M10.1607883,11.3246277 L15.780455,5.65901618 C15.9603839,5.47908726 16.2513057,5.47908726 16.4312347,5.65901618 L17.1891941,6.41697565 C17.3691231,6.59690457 17.3691231,6.88782642 17.1891941,7.06775535 L12.6528768,11.6500175 L17.1891941,16.2322797 C17.3691231,16.4122086 17.3691231,16.7031305 17.1891941,16.8830594 L16.4312347,17.6410189 C16.2513057,17.8209478 15.9603839,17.8209478 15.780455,17.6410189 L10.1607883,11.9754074 C9.98085942,11.7954785 9.98085942,11.5045566 10.1607883,11.3246277 Z" id="a" fill="#FFFFFF" fill-rule="nonzero"></path>
            </g>
            <g id="Forward" transform="translate(105.000000, 7.000000)">
                <rect id="Rectangle" fill="#656668" x="0" y="0" width="28" height="24" rx="4"></rect>
                <path d="M18.1891941,11.9754074 L12.5695275,17.6410189 C12.3895986,17.8209478 12.0986767,17.8209478 11.9187478,17.6410189 L11.1607883,16.8830594 C10.9808594,16.7031305 10.9808594,16.4122086 11.1607883,16.2322797 L15.6971057,11.6500175 L11.1607883,7.06775535 C10.9808594,6.88782642 10.9808594,6.59690457 11.1607883,6.41697565 L11.9187478,5.65901618 C12.0986767,5.47908726 12.3895986,5.47908726 12.5695275,5.65901618 L18.1891941,11.3246277 C18.3691231,11.5045566 18.3691231,11.7954785 18.1891941,11.9754074 Z" id="a" fill="#FFFFFF" fill-rule="nonzero" opacity="0.200334821"></path>
            </g>
            <g id="New-Tab" transform="translate(1260.000000, 14.000000)">
                <rect id="Rectangle" fill="#292A2B" x="0" y="0" width="24" height="24"></rect>
                <path d="M16.2531029,11.6843877 C16.3618742,11.6843877 16.4499775,11.7724909 16.4499775,11.8812622 L16.4499775,12.6687603 C16.4499775,12.7775316 16.3618742,12.8656349 16.2531029,12.8656349 L12.3156123,12.8656349 L12.3156123,16.8031255 C12.3156123,16.9118967 12.2275091,17 12.1187378,17 L11.3312397,17 C11.2224684,17 11.1343651,16.9118967 11.1343651,16.8031255 L11.1343651,12.8656349 L7.19687453,12.8656349 C7.08810328,12.8656349 7,12.7775316 7,12.6687603 L7,11.8812622 C7,11.7724909 7.08810328,11.6843877 7.19687453,11.6843877 L11.1343651,11.6843877 L11.1343651,7.74689706 C11.1343651,7.63812581 11.2224684,7.55002253 11.3312397,7.55002253 L12.1187378,7.55002253 C12.2275091,7.55002253 12.3156123,7.63812581 12.3156123,7.74689706 L12.3156123,11.6843877 L16.2531029,11.6843877 Z" id="p" fill="#FFFFFF" fill-rule="nonzero" opacity="0.497907366"></path>
            </g>
            <g id="URL" transform="translate(378.000000, 7.000000)">
                <path d="M0,3.99005301 C0,1.78640758 1.78094395,5.31029755e-14 3.99753941,5.28693238e-14 L516.002461,-1.1012102e-15 C518.210241,-1.33393271e-15 520,1.78429328 520,3.99005301 L520,20.009947 C520,22.2135924 518.219056,24 516.002461,24 L3.99753941,24 C1.78975936,24 0,22.2157067 0,20.009947 L0,3.99005301 Z" id="URL-Bar" fill="#696A6B"></path>
                <path d="M512.304658,5.17186422 C512.467743,5.17186422 512.59997,5.30412783 512.59997,5.46721261 L512.59997,10.1922013 C512.59997,10.3552861 512.467743,10.4875131 512.304658,10.4875131 L507.579669,10.4875131 C507.416585,10.4875131 507.284358,10.3552861 507.284358,10.1922013 L507.284358,9.51027815 C507.284358,9.34440559 507.42091,9.21109712 507.586711,9.21503845 L510.69705,9.2890827 C509.940722,7.61516854 508.257531,6.45158527 506.299985,6.45158527 C503.633864,6.45158527 501.476559,8.60927437 501.476559,11.2750113 C501.476559,13.9411327 503.634248,16.0984373 506.299985,16.0984373 C507.533046,16.0984373 508.65724,15.6369165 509.509554,14.8770557 C509.6264,14.7728747 509.804938,14.7799403 509.915632,14.8906341 L510.401377,15.3763797 C510.521276,15.4962781 510.51534,15.6917347 510.389505,15.8053845 C509.307296,16.7829079 507.873155,17.3781217 506.299985,17.3781217 C502.93257,17.3781217 500.202138,14.6509336 500.19686,11.2847685 C500.191635,7.92836054 502.924087,5.18242707 506.280471,5.17186422 C508.411171,5.16526784 510.288545,6.2506252 511.385221,7.89993005 L511.327471,5.47425415 C511.32353,5.30842965 511.456862,5.17186422 511.622711,5.17186422 L512.304658,5.17186422 Z" id="r" fill="#FFFFFF" fill-rule="nonzero" transform="translate(506.398415, 11.274993) rotate(-45.000000) translate(-506.398415, -11.274993) "></path>
                <text id="Ride-the-Lightning" font-family="Roboto-Regular, Roboto" font-size="12.6" font-weight="normal" fill="#FFFFFF">
                    <tspan x="210" y="17">Ride the Lightning</tspan>
                </text>
            </g>
        </g>
        <text id="Dashboard" font-family="Helvetica" font-size="18" font-weight="normal" fill="#FFFFFF">
            <tspan x="24" y="73">bars</tspan>
        </text>
        <g id="RTL-Logo" transform="translate(1210.000000, 56.000000)" fill="#FFFFFF">
            <path d="M5.10234375,10.1960631 L3.54375,10.1960631 L2.80546875,14.4124693 L0,14.4124693 L2.0671875,2.46871933 L6.28359375,2.47692246 C7.63438175,2.47692246 8.67480104,2.79273961 9.40488281,3.4243834 C10.1349646,4.05602718 10.4617191,4.91871386 10.3851562,6.01246933 C10.3249997,6.87653615 10.0761741,7.59156807 9.63867187,8.15758652 C9.20116969,8.72360498 8.58867581,9.17067082 7.80117187,9.49879746 L9.40898437,14.2730162 L9.40898437,14.4124693 L6.41484375,14.4124693 L5.10234375,10.1960631 Z M3.92109375,7.97301621 L5.56171875,7.98942246 C6.01015849,7.98942246 6.39980303,7.88004855 6.73066406,7.66129746 C7.06152509,7.44254636 7.29804616,7.1431353 7.44023438,6.76305527 C7.58242259,6.38297525 7.6234378,6.01520549 7.56328125,5.65973496 C7.4539057,5.05270067 7.06562834,4.732782 6.3984375,4.69996933 L4.4953125,4.69176621 L3.92109375,7.97301621 Z M21.0984375,4.69176621 L17.6203125,4.69176621 L15.9386719,14.4124693 L13.125,14.4124693 L14.8148438,4.69176621 L11.3941406,4.69176621 L11.7878906,2.46871933 L21.4839844,2.46871933 L21.0984375,4.69176621 Z M23.8464844,12.1976256 L28.7109375,12.1976256 L28.3253906,14.4124693 L20.6554688,14.4124693 L22.7226562,2.46871933 L25.5363281,2.46871933 L23.8464844,12.1976256 Z" id="RTL-Copy" fill-rule="nonzero"></path>
            <path d="M37.882011,5.59373905 C38.4131621,5.59373905 38.7433371,6.1708163 38.4763316,6.62733033 L33.4232186,15.3554345 C33.2968796,15.5736259 33.0671926,15.699965 32.8260382,15.699965 C32.3867394,15.699965 32.0537046,15.2894051 32.1570525,14.8529943 L33.4806404,9.26873029 L30.0726546,9.26873029 C29.656347,9.26873029 29.3347797,8.90123677 29.3893415,8.48778904 L30.3080893,1.59718047 C30.3540155,1.25553795 30.646872,1 30.9914024,1 L35.1257676,1 C35.5765338,1 35.9067088,1.43066304 35.7918653,1.86707385 L34.5687655,5.59373905 L37.882011,5.59373905 Z" id="b-copy" fill-rule="nonzero"></path>
            <text id="caret-down-copy" font-family="Helvetica" font-size="16" font-weight="normal">
                <tspan x="47" y="15">c</tspan>
                <tspan x="46.5507812" y="34">a</tspan>
                <tspan x="48.3359375" y="53">r</tspan>
                <tspan x="46.5507812" y="72">e</tspan>
                <tspan x="46.1132812" y="91">t-</tspan>
                <tspan x="46.5507812" y="110">d</tspan>
                <tspan x="46.5507812" y="129">o</tspan>
                <tspan x="46" y="148">w</tspan>
                <tspan x="46.5507812" y="167">n</tspan>
            </text>
        </g>
        <g id="Group-2" transform="translate(1.000000, 396.000000)">
            <rect id="Rectangle" fill-opacity="0.114128059" fill="#5E4EA5" opacity="0" x="0" y="0" width="218" height="48"></rect>
            <text id="On-chain-Copy" font-family="Roboto-Regular, Roboto" font-size="14" font-weight="normal" fill="#474747">
                <tspan x="76" y="29">Lookup</tspan>
            </text>
        </g>
        <g id="Group-2" transform="translate(1.000000, 444.000000)">
            <rect id="Rectangle" fill-opacity="0.114128059" fill="#5E4EA5" opacity="0" x="0" y="0" width="218" height="48"></rect>
            <text id="On-chain-Copy" font-family="Roboto-Regular, Roboto" font-size="14" font-weight="normal" fill="#474747">
                <tspan x="76" y="29">Routing</tspan>
            </text>
        </g>
        <rect id="Rectangle" fill-opacity="0.114128059" fill="#C2C2C2" x="1" y="300" width="218" height="192"></rect>
        <rect id="Rectangle" fill-opacity="0.114128059" fill="#BEBEBE" x="-1" y="300" width="219" height="48"></rect>
        <g id="Group-14" transform="translate(0.000000, 349.000000)">
            <g id="Group-2">
                <rect id="Rectangle" fill-opacity="0.114128059" fill="#5E4EA5" opacity="0" x="0" y="0" width="218" height="48"></rect>
                <text id="On-chain-Copy" font-family="Roboto-Regular, Roboto" font-size="14" font-weight="normal" fill="#474747">
                    <tspan x="76" y="29">Transactions</tspan>
                </text>
            </g>
            <text id="exchange" font-family="Helvetica" font-size="14" font-weight="normal" fill="#858585">
                <tspan x="37" y="31">exchange</tspan>
            </text>
        </g>
        <g id="Group-11" transform="translate(0.000000, 300.000000)" fill="#5E4EA5">
            <g id="Group-13">
                <g id="Group-2">
                    <rect id="Rectangle" fill-opacity="0.114128059" opacity="0" x="0" y="0" width="218" height="48"></rect>
                    <text id="On-chain-Copy" font-family="Roboto-Medium, Roboto" font-size="14" font-weight="400">
                        <tspan x="76" y="29">Peers / Channels</tspan>
                    </text>
                </g>
            </g>
            <text id="users" font-family="Helvetica" font-size="14" font-weight="normal">
                <tspan x="35" y="31">users</tspan>
            </text>
        </g>
        <rect id="Rectangle" fill="#D8D8D8" opacity="0" x="0" y="206" width="218" height="48"></rect>
        <text id="On-chain" font-family="Roboto-Regular, Roboto" font-size="14" font-weight="normal" fill="#474747">
            <tspan x="70" y="235">On-chain</tspan>
        </text>
        <g id="Group-9" transform="translate(0.000000, 492.000000)">
            <rect id="Rectangle" fill="#D8D8D8" opacity="0" x="0" y="0" width="218" height="48"></rect>
            <text id="On-chain" font-family="Roboto-Regular, Roboto" font-size="14" font-weight="normal" fill="#4A4A4A">
                <tspan x="70" y="29">Advanced</tspan>
            </text>
            <rect id="Rectangle" fill="#D8D8D8" opacity="0" x="0" y="48" width="218" height="48"></rect>
            <text id="On-chain" font-family="Roboto-Regular, Roboto" font-size="14" font-weight="normal" fill="#4A4A4A">
                <tspan x="70" y="77">Help</tspan>
            </text>
            <g id="Group-6" transform="translate(0.000000, 110.000000)">
                <g id="Group-30" transform="translate(0.000000, 7.000000)">
                    <g id="Group-3">
                        <rect id="Rectangle" fill="#D8D8D8" opacity="0" x="0" y="0" width="218" height="48"></rect>
                        <text id="On-chain" font-family="Roboto-Regular, Roboto" font-size="14" font-weight="normal" fill="#4A4A4A">
                            <tspan x="70" y="29">Show Public Key</tspan>
                        </text>
                    </g>
                    <text id="eye" font-family="Helvetica" font-size="14" font-weight="normal" fill="#858585">
                        <tspan x="24" y="29">eye</tspan>
                    </text>
                </g>
                <line x1="0.5" y1="0.5" x2="218.5" y2="0.5" id="Line-3" stroke="#E6E6E6" stroke-linecap="square"></line>
            </g>
            <text id="cog" font-family="Helvetica" font-size="14" font-weight="normal" fill="#858585">
                <tspan x="25" y="30">cog</tspan>
            </text>
            <text id="life-ring" font-family="Helvetica" font-size="14" font-weight="normal" fill="#858585">
                <tspan x="25" y="77">life-ring</tspan>
            </text>
        </g>
        <text id="On-chain-Copy" font-family="Roboto-Regular, Roboto" font-size="14" font-weight="normal" fill="#474747">
            <tspan x="70" y="283">Lightning</tspan>
        </text>
        <text id="Dashboard" font-family="Roboto-Regular, Roboto" font-size="14" font-weight="normal" fill="#4A4A4A">
            <tspan x="70" y="185">Dashboard</tspan>
        </text>
        <g id="Group-18" transform="translate(24.000000, 117.000000)">
            <text id="Dashboard" font-family="Roboto-Regular, Roboto" font-size="16" font-weight="normal" fill="#181818">
                <tspan x="0" y="15">Amora_UK01</tspan>
            </text>
            <path d="M99.6365126,7 L107.823305,7 C108.389692,7 108.672855,7.6718734 108.271959,8.06561025 L104.180132,12.0874818 C103.931957,12.3312251 103.527861,12.3312251 103.279686,12.0874818 L99.1878898,8.06561025 C98.786963,7.6718734 99.0701566,7 99.6365126,7 Z" id="c" fill="#4B4B4B" fill-rule="nonzero"></path>
        </g>
        <text id="tachometer-alt-fast" font-family="Helvetica" font-size="14" font-weight="normal" fill="#858585">
            <tspan x="24" y="186">tachometer-alt-fast</tspan>
        </text>
        <text id="link" font-family="Helvetica" font-size="14" font-weight="normal" fill="#858585">
            <tspan x="25" y="235">link</tspan>
        </text>
        <text id="bolt" font-family="Helvetica" font-size="14" font-weight="normal" fill="#858585">
            <tspan x="28" y="284">bolt</tspan>
        </text>
        <text id="bolt" font-family="Helvetica" font-size="14" font-weight="normal" fill="#858585">
            <tspan x="28" y="284">bolt</tspan>
        </text>
        <text id="search" font-family="Helvetica" font-size="14" font-weight="normal" fill="#858585">
            <tspan x="38" y="427">search</tspan>
        </text>
        <text id="project-diagram" font-family="Helvetica" font-size="14" font-weight="normal" fill="#858585">
            <tspan x="36" y="476">project-diagram</tspan>
        </text>
        <g id="Group-21" transform="translate(243.000000, 154.000000)">
            <path d="M5.1277704,0.5 C3.5776195,0.5 2.94057806,0.623018378 2.28210802,0.975172007 C1.71739041,1.27718629 1.27718629,1.71739041 0.975172007,2.28210802 C0.623018378,2.94057806 0.5,3.5776195 0.5,5.1277704 L0.5,126.87223 C0.5,128.42238 0.623018378,129.059422 0.975172007,129.717892 C1.27718629,130.28261 1.71739041,130.722814 2.28210802,131.024828 C2.94057806,131.376982 3.5776195,131.5 5.1277704,131.5 L1012.87223,131.5 C1014.42238,131.5 1015.05942,131.376982 1015.71789,131.024828 C1016.28261,130.722814 1016.72281,130.28261 1017.02483,129.717892 C1017.37698,129.059422 1017.5,128.42238 1017.5,126.87223 L1017.5,5.1277704 C1017.5,3.5776195 1017.37698,2.94057806 1017.02483,2.28210802 C1016.72281,1.71739041 1016.28261,1.27718629 1015.71789,0.975172007 C1015.05942,0.623018378 1014.42238,0.5 1012.87223,0.5 L5.1277704,0.5 Z" id="Rectangle" stroke="#DEDEDE" fill="#FFFFFF"></path>
            <line x1="0" y1="48.5" x2="1018" y2="48.5" id="Line" stroke="#D7D7D7" stroke-linecap="square"></line>
            <rect id="Rectangle" fill="#5E4EA5" x="1" y="47" width="79" height="2"></rect>
            <rect id="Rectangle" fill="#59316B" opacity="0" x="78" y="47" width="80" height="2"></rect>
            <text id="SATS" font-family="Roboto-Medium, Roboto" font-size="14" font-weight="400" fill="#5E4EA5">
                <tspan x="22.1435547" y="30">SATS</tspan>
            </text>
            <text id="BTC" font-family="Roboto-Regular, Roboto" font-size="14" font-weight="normal" fill="#979797">
                <tspan x="104.90918" y="30">BTC</tspan>
            </text>
            <text id="GBP" font-family="Roboto-Regular, Roboto" font-size="14" font-weight="normal" fill="#979797">
                <tspan x="182.958008" y="30">GBP</tspan>
            </text>
            <g id="Group-26" transform="translate(24.000000, 72.000000)">
                <text id="Total-Balance" font-family="Roboto-Medium, Roboto" font-size="12" font-weight="400" fill="#5E4EA5">
                    <tspan x="0" y="11">Total Balance</tspan>
                </text>
                <text id="413,722" font-family="Roboto-Light, Roboto" font-size="20" font-weight="300" fill="#222831">
                    <tspan x="0" y="37">413,722</tspan>
                </text>
            </g>
            <g id="Group-23" transform="translate(121.000000, 72.000000)">
                <text id="Confirmed" font-family="Roboto-Medium, Roboto" font-size="12" font-weight="400" fill="#5E4EA5">
                    <tspan x="0" y="11">Confirmed</tspan>
                </text>
                <text id="413,721" font-family="Roboto-Light, Roboto" font-size="20" font-weight="300" fill="#222831">
                    <tspan x="0" y="37">413,721</tspan>
                </text>
            </g>
            <g id="Group-24" transform="translate(216.000000, 72.000000)">
                <text id="Unconfirmed" font-family="Roboto-Medium, Roboto" font-size="12" font-weight="400" fill="#5E4EA5">
                    <tspan x="0" y="11">Unconfirmed</tspan>
                </text>
                <text id="0" font-family="Roboto-Light, Roboto" font-size="20" font-weight="300" fill="#222831">
                    <tspan x="0" y="37">0</tspan>
                </text>
            </g>
        </g>
        <g id="Group-27" transform="translate(243.000000, 117.000000)">
            <path d="M16.4934772,9.00001192 C16.7919079,9.00001192 17.0372381,9.26218781 16.9953375,9.55781088 C16.7512891,11.2843693 15.9194124,12.8203153 14.7100342,13.9596864 C14.6178408,14.0465697 14.4990972,14.0887449 14.3797432,14.0887449 C14.2624339,14.0885313 14.0997451,14.0212097 14.0166154,13.9384462 L9.07818113,9.00001192 L16.4934772,9.00001192 Z M14.3712898,12.8787563 C15.115032,12.0625046 15.6412758,11.0675119 15.8950289,10.0000095 L11.492543,10.0000095 L14.3712898,12.8787563 Z M7.00006108,9.00001192 L11.8709906,13.8709415 C12.0850404,14.0849913 12.0688051,14.4484242 11.8219185,14.6234421 C10.6253576,15.472195 9.17006934,15.9796706 7.59506088,15.9993849 C7.56442131,15.9996901 7.53475829,15.9999952 7.50411872,15.9999952 C3.53693457,15.9999952 0.139756393,12.7353241 0.0044417746,8.76157865 C-0.128034716,4.86250958 2.71851611,1.60909937 6.44226212,1.0828555 C6.46444835,1.0797122 6.48663457,1.07815581 6.50817993,1.07815581 C6.77569638,1.07815581 7.00006108,1.3087766 7.00006108,1.58471588 L7.00006108,9.00001192 Z M7.58224353,14.9993873 C8.69536954,14.9856239 9.77037918,14.6900008 10.7253635,14.1393734 L6.00006347,9.41407343 L6.00006347,2.18221812 C3.01038554,2.88283901 0.897567087,5.59846974 1.00382904,8.72752112 C1.11945987,12.1275069 4.09632045,14.9999976 7.50381354,14.9999976 L7.58224353,14.9993873 Z M15.9987884,6.97502285 C16.0184722,7.26002584 15.7784825,7.5000155 15.4928387,7.5000155 L8.50005751,7.5000155 L8.50005751,0.507234318 C8.50005751,0.232851427 8.72191977,3.33786011e-05 8.99254901,3.33786011e-05 C9.0031691,3.33786011e-05 9.01412488,0.000338553655 9.02505015,0.00128459632 C12.758165,0.258791307 15.7412817,3.24190797 15.9987884,6.97502285 Z M9.50005512,6.50001788 L14.9406549,6.50001788 C14.5088017,3.71096203 12.289111,1.4909661 9.50005512,1.05941806 L9.50005512,6.50001788 Z" id="c" fill="#84979E" fill-rule="nonzero"></path>
            <text id="On-chain-Balance" font-family="Roboto-Regular, Roboto" font-size="16" font-weight="normal" fill="#84979E">
                <tspan x="25.0000778" y="15">On-chain Balance</tspan>
            </text>
            <g id="Group-20" transform="translate(0.000078, 0.000000)"></g>
        </g>
        <text id="chart-pie" font-family="Helvetica" font-size="16" font-weight="normal" fill="#84979E">
            <tspan x="243" y="132">chart-pie</tspan>
        </text>
        <text id="Connections" font-family="Roboto-Regular, Roboto" font-size="16" font-weight="normal" fill="#84979E">
            <tspan x="268" y="341">Connections</tspan>
        </text>
        <path d="M247.12777,362.5 C245.57762,362.5 244.940578,362.623018 244.282108,362.975172 C243.71739,363.277186 243.277186,363.71739 242.975172,364.282108 C242.623018,364.940578 242.5,365.57762 242.5,367.12777 L242.5,1014.87223 C242.5,1016.42238 242.623018,1017.05942 242.975172,1017.71789 C243.277186,1018.28261 243.71739,1018.72281 244.282108,1019.02483 C244.940578,1019.37698 245.57762,1019.5 247.12777,1019.5 L1254.87223,1019.5 C1256.42238,1019.5 1257.05942,1019.37698 1257.71789,1019.02483 C1258.28261,1018.72281 1258.72281,1018.28261 1259.02483,1017.71789 C1259.37698,1017.05942 1259.5,1016.42238 1259.5,1014.87223 L1259.5,367.12777 C1259.5,365.57762 1259.37698,364.940578 1259.02483,364.282108 C1258.72281,363.71739 1258.28261,363.277186 1257.71789,362.975172 C1257.05942,362.623018 1256.42238,362.5 1254.87223,362.5 L247.12777,362.5 Z" id="Rectangle" stroke="#DEDEDE" fill="#FFFFFF"></path>
        <line x1="400" y1="410.5" x2="1260.5" y2="409.5" id="Line" stroke="#D7D7D7" stroke-linecap="square"></line>
        <rect id="Rectangle" fill="#5E4EA5" x="242" y="409" width="160" height="2"></rect>
        <rect id="Rectangle" fill="#59316B" opacity="0" x="402" y="409" width="160" height="2"></rect>
        <rect id="Rectangle" fill="#59316B" opacity="0" x="562" y="409" width="160" height="2"></rect>
        <text id="Channels" font-family="Roboto-Medium, Roboto" font-size="14" font-weight="400" fill="#5E4EA5">
            <tspan x="292.813965" y="392">Channels</tspan>
        </text>
        <text id="Peers" font-family="Roboto-Regular, Roboto" font-size="14" font-weight="normal" fill="#979797">
            <tspan x="464.188965" y="392">Peers</tspan>
        </text>
        <text id="Alias" font-family="Roboto-Regular, Roboto" font-size="15" font-weight="normal" fill="#444444">
            <tspan x="266" y="465">Alias</tspan>
        </text>
        <text id="caret-down" font-family="Helvetica" font-size="15" font-weight="normal" fill="#444444">
            <tspan x="667.657715" y="467">caret-</tspan>
            <tspan x="670.140625" y="485">down</tspan>
        </text>
        <rect id="Rectangle" stroke="#979797" fill="#D8D8D8" x="266.5" y="475.5" width="439" height="1"></rect>
        <text id="Amount" opacity="0" font-family="Roboto-Regular, Roboto" font-size="12" font-weight="normal" fill="#5E4EA5">
            <tspan x="266" y="440">Amount</tspan>
        </text>
        <g id="Group-8" transform="translate(384.000000, 503.000000)">
            <g id="Rectangle-Copy-7">
                <use fill="black" fill-opacity="1" filter="url(#filter-6)" xlink:href="#path-5"></use>
                <use fill="#5E4EA5" fill-rule="evenodd" xlink:href="#path-5"></use>
            </g>
            <text id="Open-Channel" font-family="Roboto-Medium, Roboto" font-size="14" font-weight="400" fill="#FFFFFF">
                <tspan x="17.7602539" y="23">Open Channel</tspan>
            </text>
        </g>
        <g id="Group-5" transform="translate(265.000000, 503.000000)">
            <rect id="Rectangle-Copy-7" stroke="#DCDCDC" fill="#FFFFFF" x="0.5" y="0.5" width="101" height="35" rx="4"></rect>
            <text id="Clear-Fields" font-family="Roboto-Medium, Roboto" font-size="14" font-weight="400" fill="#4F4F4F">
                <tspan x="14.6542969" y="23">Clear Fields</tspan>
            </text>
        </g>
        <g id="Group-16" transform="translate(1096.000000, 440.000000)">
            <rect id="Rectangle-Copy-7" stroke="#DCDCDC" fill="#FFFFFF" x="0.5" y="0.5" width="138" height="35" rx="4"></rect>
            <text id="Show-Advanced" font-family="Roboto-Medium, Roboto" font-size="14" font-weight="400" fill="#4F4F4F">
                <tspan x="19.8857422" y="23">Show Advanced</tspan>
            </text>
        </g>
        <g id="Group-13-Copy" transform="translate(729.000000, 429.000000)">
            <g id="Group-7" transform="translate(0.000000, 22.000000)">
                <text id="Amount" font-family="Roboto-Regular, Roboto" font-size="15" font-weight="normal" fill="#444444">
                    <tspan x="1.42108547e-13" y="14">Amount</tspan>
                </text>
                <text id="sats" font-family="Roboto-Regular, Roboto" font-size="15" font-weight="normal" fill="#858585">
                    <tspan x="203.472168" y="14">sats</tspan>
                </text>
                <rect id="Rectangle" stroke="#979797" fill="#D8D8D8" x="0.5" y="24.5" width="231" height="1"></rect>
            </g>
            <text id="Amount" opacity="0" font-family="Roboto-Regular, Roboto" font-size="12" font-weight="normal" fill="#5E4EA5">
                <tspan x="0" y="11">Amount</tspan>
            </text>
        </g>
        <g id="Group-15-Copy" transform="translate(985.000000, 448.000000)">
            <g id="Group-12">
                <rect id="Rectangle" fill="#9B9B9B" x="1" y="3" width="31" height="14" rx="7"></rect>
                <g id="Oval">
                    <use fill="black" fill-opacity="1" filter="url(#filter-8)" xlink:href="#path-7"></use>
                    <use fill="#FFFFFF" fill-rule="evenodd" xlink:href="#path-7"></use>
                </g>
            </g>
            <text id="Private" font-family="Roboto-Regular, Roboto" font-size="16" font-weight="normal" fill="#323232">
                <tspan x="43" y="15">Private</tspan>
            </text>
        </g>
        <text id="users" font-family="Helvetica" font-size="16" font-weight="normal" fill="#84979E">
            <tspan x="243" y="342">users</tspan>
        </text>
        <g id="Group-19" transform="translate(356.000000, 380.000000)">
            <g id="Group-17" transform="translate(148.000000, 0.000000)">
                <circle id="Oval" fill="#858585" cx="7.5" cy="7.5" r="7.5"></circle>
                <text id="0" font-family="Roboto-Bold, Roboto" font-size="11" font-weight="bold" fill="#FFFFFF">
                    <tspan x="4.34448242" y="11">0</tspan>
                </text>
            </g>
            <g id="Group-17">
                <circle id="Oval" fill="#5E4EA5" cx="7.5" cy="7.5" r="7.5"></circle>
                <text id="4" font-family="Roboto-Bold, Roboto" font-size="11" font-weight="bold" fill="#FFFFFF">
                    <tspan x="4.34448242" y="11">4</tspan>
                </text>
            </g>
        </g>
        <g id="Group-10" transform="translate(265.000000, 560.000000)">
            <path d="M5.1277704,0.5 C3.5776195,0.5 2.94057806,0.623018378 2.28210802,0.975172007 C1.71739041,1.27718629 1.27718629,1.71739041 0.975172007,2.28210802 C0.623018378,2.94057806 0.5,3.5776195 0.5,5.1277704 L0.5,430.87223 C0.5,432.42238 0.623018378,433.059422 0.975172007,433.717892 C1.27718629,434.28261 1.71739041,434.722814 2.28210802,435.024828 C2.94057806,435.376982 3.5776195,435.5 5.1277704,435.5 L963.87223,435.5 C965.42238,435.5 966.059422,435.376982 966.717892,435.024828 C967.28261,434.722814 967.722814,434.28261 968.024828,433.717892 C968.376982,433.059422 968.5,432.42238 968.5,430.87223 L968.5,5.1277704 C968.5,3.5776195 968.376982,2.94057806 968.024828,2.28210802 C967.722814,1.71739041 967.28261,1.27718629 966.717892,0.975172007 C966.059422,0.623018378 965.42238,0.5 963.87223,0.5 L5.1277704,0.5 Z" id="Rectangle" stroke="#DEDEDE" fill="#FFFFFF"></path>
            <line x1="150" y1="48.5" x2="969.52381" y2="47.5" id="Line" stroke="#D7D7D7" stroke-linecap="square"></line>
            <g id="Group-15" transform="translate(0.000000, 17.000000)">
                <rect id="Rectangle" fill="#5E4EA5" x="0" y="30" width="152" height="2"></rect>
                <text id="Open" font-family="Roboto-Medium, Roboto" font-size="14" font-weight="400" fill="#5E4EA5">
                    <tspan x="59.5766602" y="13">Open</tspan>
                </text>
                <g id="Group-4" transform="translate(96.000000, 1.000000)">
                    <circle id="Oval" fill="#5E4EA5" cx="7.5" cy="7.5" r="7.5"></circle>
                    <text id="4" font-family="Roboto-Bold, Roboto" font-size="11" font-weight="bold" fill="#FFFFFF">
                        <tspan x="4.11114909" y="11">4</tspan>
                    </text>
                </g>
            </g>
            <rect id="Rectangle" fill="#59316B" opacity="0" x="152" y="47" width="153" height="2"></rect>
            <rect id="Rectangle" fill="#59316B" opacity="0" x="305" y="47" width="152" height="2"></rect>
            <g id="Group-25" transform="translate(152.000000, 17.000000)">
                <text id="Pending" font-family="Roboto-Regular, Roboto" font-size="14" font-weight="normal" fill="#979797">
                    <tspan x="51.0771484" y="13">Pending</tspan>
                </text>
                <g id="Group-22" transform="translate(106.000000, 1.000000)">
                    <circle id="Oval" fill="#858585" cx="7.5" cy="7.5" r="7.5"></circle>
                    <text id="0" font-family="Roboto-Bold, Roboto" font-size="11" font-weight="bold" fill="#FFFFFF">
                        <tspan x="4.11114909" y="11">0</tspan>
                    </text>
                </g>
            </g>
            <g id="Group-25" transform="translate(304.000000, 17.000000)">
                <text id="Closed" font-family="Roboto-Regular, Roboto" font-size="14" font-weight="normal" fill="#979797">
                    <tspan x="54.9873047" y="13">Closed</tspan>
                </text>
                <g id="Group-22" transform="translate(101.000000, 1.000000)">
                    <circle id="Oval" fill="#858585" cx="7.5" cy="7.5" r="7.5"></circle>
                    <text id="0" font-family="Roboto-Bold, Roboto" font-size="11" font-weight="bold" fill="#FFFFFF">
                        <tspan x="4.11114909" y="11">0</tspan>
                    </text>
                </g>
            </g>
        </g>
        <g id="Group-29" transform="translate(289.000000, 566.000000)">
            <path d="M5.1277704,102.5 C3.5776195,102.5 2.94057806,102.623018 2.28210802,102.975172 C1.71739041,103.277186 1.27718629,103.71739 0.975172007,104.282108 C0.623018378,104.940578 0.5,105.57762 0.5,107.12777 L0.5,404.87223 C0.5,406.42238 0.623018378,407.059422 0.975172007,407.717892 C1.27718629,408.28261 1.71739041,408.722814 2.28210802,409.024828 C2.94057806,409.376982 3.5776195,409.5 5.1277704,409.5 L915.87223,409.5 C917.42238,409.5 918.059422,409.376982 918.717892,409.024828 C919.28261,408.722814 919.722814,408.28261 920.024828,407.717892 C920.376982,407.059422 920.5,406.42238 920.5,404.87223 L920.5,107.12777 C920.5,105.57762 920.376982,104.940578 920.024828,104.282108 C919.722814,103.71739 919.28261,103.277186 918.717892,102.975172 C918.059422,102.623018 917.42238,102.5 915.87223,102.5 L5.1277704,102.5 Z" id="Rectangle" stroke="#DEDEDE" fill="#FFFFFF"></path>
            <text id="Peer" font-family="Roboto-Medium, Roboto" font-size="14" font-weight="400" letter-spacing="0.5" fill="#000000">
                <tspan x="17" y="136">Peer</tspan>
            </text>
            <text id="Bitrefill" font-family="Roboto-Regular, Roboto" font-size="14" font-weight="normal" letter-spacing="0.200000003" fill="#4F4F4F">
                <tspan x="35" y="186">Bitrefill</tspan>
            </text>
            <text id="Blockstream" font-family="Roboto-Regular, Roboto" font-size="14" font-weight="normal" letter-spacing="0.200000003" fill="#4F4F4F">
                <tspan x="35" y="238">Blockstream</tspan>
            </text>
            <text id="tipping.me" font-family="Roboto-Regular, Roboto" font-size="14" font-weight="normal" letter-spacing="0.200000003" fill="#4F4F4F">
                <tspan x="35" y="293">tipping.me</tspan>
            </text>
            <text id="Hold-Monkey" font-family="Roboto-Regular, Roboto" font-size="14" font-weight="normal" letter-spacing="0.200000003" fill="#4F4F4F">
                <tspan x="35" y="342">Hold Monkey</tspan>
            </text>
            <circle id="Oval" fill="#28CA42" cx="22" cy="181" r="5"></circle>
            <circle id="Oval" fill="#28CA42" cx="22" cy="233" r="5"></circle>
            <circle id="Oval" fill="#FFBD2E" cx="22" cy="288" r="5"></circle>
            <circle id="Oval" fill="#FFBD2E" cx="22" cy="337" r="5"></circle>
            <text id="Sent" font-family="Roboto-Medium, Roboto" font-size="14" font-weight="400" letter-spacing="0.5" fill="#000000">
                <tspan x="142" y="136">Sent</tspan>
            </text>
            <text id="0" font-family="Roboto-Regular, Roboto" font-size="14" font-weight="normal" letter-spacing="0.200000003" fill="#4F4F4F">
                <tspan x="171.938672" y="186">0</tspan>
            </text>
            <text id="0" font-family="Roboto-Regular, Roboto" font-size="14" font-weight="normal" letter-spacing="0.200000003" fill="#4F4F4F">
                <tspan x="171.938672" y="238">0</tspan>
            </text>
            <text id="0" font-family="Roboto-Regular, Roboto" font-size="14" font-weight="normal" letter-spacing="0.200000003" fill="#4F4F4F">
                <tspan x="171.938672" y="293">0</tspan>
            </text>
            <text id="0" font-family="Roboto-Regular, Roboto" font-size="14" font-weight="normal" letter-spacing="0.200000003" fill="#4F4F4F">
                <tspan x="171.938672" y="342">0</tspan>
            </text>
            <text id="Received" font-family="Roboto-Medium, Roboto" font-size="14" font-weight="400" letter-spacing="0.5" fill="#000000">
                <tspan x="203.083984" y="136">Received</tspan>
            </text>
            <text id="0" font-family="Roboto-Regular, Roboto" font-size="14" font-weight="normal" letter-spacing="0.200000003" fill="#4F4F4F">
                <tspan x="255.938672" y="186">0</tspan>
            </text>
            <text id="0" font-family="Roboto-Regular, Roboto" font-size="14" font-weight="normal" letter-spacing="0.200000003" fill="#4F4F4F">
                <tspan x="255.938672" y="238">0</tspan>
            </text>
            <text id="0" font-family="Roboto-Regular, Roboto" font-size="14" font-weight="normal" letter-spacing="0.200000003" fill="#4F4F4F">
                <tspan x="255.938672" y="293">0</tspan>
            </text>
            <text id="0" font-family="Roboto-Regular, Roboto" font-size="14" font-weight="normal" letter-spacing="0.200000003" fill="#4F4F4F">
                <tspan x="255.938672" y="342">0</tspan>
            </text>
            <text id="5-sats" font-family="Roboto-Regular, Roboto" font-size="14" font-weight="normal" letter-spacing="0.200000003" fill="#4F4F4F">
                <tspan x="746.846875" y="186">5 sats</tspan>
            </text>
            <text id="15-sats-*" font-family="Roboto-Regular, Roboto" font-size="14" font-weight="normal" letter-spacing="0.200000003" fill="#4F4F4F">
                <tspan x="728.89043" y="238">15 sats *</tspan>
            </text>
            <text id="5-sats" font-family="Roboto-Regular, Roboto" font-size="14" font-weight="normal" letter-spacing="0.200000003" fill="#4F4F4F">
                <tspan x="746.846875" y="293">5 sats</tspan>
            </text>
            <text id="5-sats" font-family="Roboto-Regular, Roboto" font-size="14" font-weight="normal" letter-spacing="0.200000003" fill="#4F4F4F">
                <tspan x="746.846875" y="342">5 sats</tspan>
            </text>
            <text id="Actions" font-family="Roboto-Medium, Roboto" font-size="14" font-weight="400" letter-spacing="0.5" fill="#000000">
                <tspan x="844" y="136">Actions</tspan>
            </text>
            <g id="Group-31" transform="translate(813.000000, 166.000000)">
                <rect id="Rectangle-Copy-7" stroke="#DCDCDC" fill="#FFFFFF" x="0.5" y="0.5" width="91" height="35" rx="4"></rect>
                <text id="Actions-caret-down" font-family="Roboto-Medium, Roboto" font-size="14" font-weight="400" fill="#4F4F4F">
                    <tspan x="22.5708008" y="23">Actions </tspan>
                    <tspan x="28.6069336" y="39" font-family="Helvetica" font-weight="normal">caret-</tspan>
                    <tspan x="29.765625" y="56" font-family="Helvetica" font-weight="normal">down</tspan>
                </text>
            </g>
            <g id="Group-31" transform="translate(846.000000, 0.000000)">
                <rect id="Rectangle-Copy-7" stroke="#DCDCDC" fill="#FFFFFF" x="0.5" y="0.5" width="91" height="35" rx="4"></rect>
                <text id="Actions-caret-down" font-family="Roboto-Medium, Roboto" font-size="14" font-weight="400" fill="#4F4F4F">
                    <tspan x="22.5708008" y="23">Actions </tspan>
                    <tspan x="28.6069336" y="39" font-family="Helvetica" font-weight="normal">caret-</tspan>
                    <tspan x="29.765625" y="56" font-family="Helvetica" font-weight="normal">down</tspan>
                </text>
            </g>
            <rect id="Rectangle-Copy-7" stroke="#DCDCDC" fill="#FFFFFF" x="813.5" y="216.5" width="91" height="35" rx="4"></rect>
            <text id="Actions-caret-down" font-family="Roboto-Medium, Roboto" font-size="14" font-weight="400" fill="#4F4F4F">
                <tspan x="835.570801" y="239">Actions </tspan>
                <tspan x="841.606934" y="255" font-family="Helvetica" font-weight="normal">caret-</tspan>
                <tspan x="842.765625" y="272" font-family="Helvetica" font-weight="normal">down</tspan>
            </text>
            <rect id="Rectangle-Copy-7" stroke="#DCDCDC" fill="#FFFFFF" x="813.5" y="267.5" width="91" height="35" rx="4"></rect>
            <text id="Actions-caret-down" font-family="Roboto-Medium, Roboto" font-size="14" font-weight="400" fill="#4F4F4F">
                <tspan x="835.570801" y="290">Actions </tspan>
                <tspan x="841.606934" y="306" font-family="Helvetica" font-weight="normal">caret-</tspan>
                <tspan x="842.765625" y="323" font-family="Helvetica" font-weight="normal">down</tspan>
            </text>
            <rect id="Rectangle-Copy-7" stroke="#DCDCDC" fill="#FFFFFF" x="813.5" y="317.5" width="91" height="35" rx="4"></rect>
            <text id="Actions-caret-down" font-family="Roboto-Medium, Roboto" font-size="14" font-weight="400" fill="#4F4F4F">
                <tspan x="835.570801" y="340">Actions </tspan>
                <tspan x="841.606934" y="356" font-family="Helvetica" font-weight="normal">caret-</tspan>
                <tspan x="842.765625" y="373" font-family="Helvetica" font-weight="normal">down</tspan>
            </text>
            <line x1="1" y1="158.5" x2="922" y2="158.5" id="Line-2" stroke="#E1E1E1" stroke-linecap="square"></line>
            <text id="Rows-per-page:-10-ca" font-family="Roboto-Regular, Roboto" font-size="14" font-weight="normal" letter-spacing="0.200000003" fill="#4F4F4F">
                <tspan x="577" y="389">Rows per page: 10  </tspan>
                <tspan x="577" y="405" font-family="Helvetica">caret-down</tspan>
            </text>
            <text id="1-4-of-4" font-family="Roboto-Regular, Roboto" font-size="14" font-weight="normal" letter-spacing="0.200000003" fill="#4F4F4F">
                <tspan x="765" y="389">1-4 of 4</tspan>
            </text>
            <text id="angle-right" font-family="Helvetica" font-size="14" font-weight="normal" letter-spacing="0.200000003" fill="#4F4F4F">
                <tspan x="899" y="391">angle-right</tspan>
            </text>
            <text id="angle-left" font-family="Helvetica" font-size="14" font-weight="normal" letter-spacing="0.200000003" fill="#4F4F4F">
                <tspan x="863" y="391">angle-left</tspan>
            </text>
            <rect id="Rectangle" fill="#D1C7FF" x="288" y="190" width="413" height="4"></rect>
            <rect id="Rectangle" fill="#5E4EA5" x="288" y="190" width="232" height="4"></rect>
            <text id="Local:-323,913-sats" font-family="Roboto-Bold, Roboto" font-size="12" font-weight="bold" letter-spacing="0.171428574" fill="#4F4F4F">
                <tspan x="288" y="184">Local: </tspan>
                <tspan x="324.73125" y="184" font-family="Roboto-Regular, Roboto" font-weight="normal">323,913 sats</tspan>
            </text>
            <text id="Remote:-323,913-sats" font-family="Roboto-Bold, Roboto" font-size="12" font-weight="bold" letter-spacing="0.171428574" fill="#4F4F4F">
                <tspan x="577" y="184">Remote: </tspan>
                <tspan x="626.605804" y="184" font-family="Roboto-Regular, Roboto" font-weight="normal">323,913 sats</tspan>
            </text>
            <text id="Capacity" font-family="Roboto-Medium, Roboto" font-size="14" font-weight="400" letter-spacing="0.5" fill="#000000">
                <tspan x="289" y="136">Capacity</tspan>
            </text>
            <rect id="Rectangle" fill="#D1C7FF" x="288" y="240" width="413" height="4"></rect>
            <rect id="Rectangle" fill="#5E4EA5" x="288" y="240" width="232" height="4"></rect>
            <text id="Local:-323,913-sats" font-family="Roboto-Bold, Roboto" font-size="12" font-weight="bold" letter-spacing="0.171428574" fill="#4F4F4F">
                <tspan x="288" y="234">Local: </tspan>
                <tspan x="324.73125" y="234" font-family="Roboto-Regular, Roboto" font-weight="normal">323,913 sats</tspan>
            </text>
            <text id="Remote:-323,913-sats" font-family="Roboto-Bold, Roboto" font-size="12" font-weight="bold" letter-spacing="0.171428574" fill="#4F4F4F">
                <tspan x="577" y="234">Remote: </tspan>
                <tspan x="626.605804" y="234" font-family="Roboto-Regular, Roboto" font-weight="normal">323,913 sats</tspan>
            </text>
            <rect id="Rectangle" fill="#D1C7FF" x="288" y="291" width="413" height="4"></rect>
            <rect id="Rectangle" fill="#5E4EA5" x="288" y="291" width="232" height="4"></rect>
            <text id="Local:-323,913-sats" font-family="Roboto-Bold, Roboto" font-size="12" font-weight="bold" letter-spacing="0.171428574" fill="#4F4F4F">
                <tspan x="288" y="285">Local: </tspan>
                <tspan x="324.73125" y="285" font-family="Roboto-Regular, Roboto" font-weight="normal">323,913 sats</tspan>
            </text>
            <text id="Remote:-323,913-sats" font-family="Roboto-Bold, Roboto" font-size="12" font-weight="bold" letter-spacing="0.171428574" fill="#4F4F4F">
                <tspan x="577" y="285">Remote: </tspan>
                <tspan x="626.605804" y="285" font-family="Roboto-Regular, Roboto" font-weight="normal">323,913 sats</tspan>
            </text>
            <rect id="Rectangle" fill="#D1C7FF" x="288" y="341" width="413" height="4"></rect>
            <rect id="Rectangle" fill="#5E4EA5" x="288" y="341" width="232" height="4"></rect>
            <text id="Local:-323,913-sats" font-family="Roboto-Bold, Roboto" font-size="12" font-weight="bold" letter-spacing="0.171428574" fill="#4F4F4F">
                <tspan x="288" y="335">Local: </tspan>
                <tspan x="324.73125" y="335" font-family="Roboto-Regular, Roboto" font-weight="normal">323,913 sats</tspan>
            </text>
            <text id="Remote:-323,913-sats" font-family="Roboto-Bold, Roboto" font-size="12" font-weight="bold" letter-spacing="0.171428574" fill="#4F4F4F">
                <tspan x="577" y="335">Remote: </tspan>
                <tspan x="626.605804" y="335" font-family="Roboto-Regular, Roboto" font-weight="normal">323,913 sats</tspan>
            </text>
            <line x1="1" y1="208.5" x2="922" y2="208.5" id="Line-2" stroke="#E1E1E1" stroke-linecap="square"></line>
            <line x1="1" y1="259.5" x2="922" y2="259.5" id="Line-2" stroke="#E1E1E1" stroke-linecap="square"></line>
            <line x1="1" y1="309.5" x2="922" y2="309.5" id="Line-2" stroke="#E1E1E1" stroke-linecap="square"></line>
            <line x1="1" y1="359.5" x2="922" y2="359.5" id="Line-2" stroke="#E1E1E1" stroke-linecap="square"></line>
            <g id="Group-28" transform="translate(648.000000, 67.000000)">
                <text id="Filter" font-family="Roboto-Regular, Roboto" font-size="15" font-weight="normal" fill="#444444">
                    <tspan x="1" y="14">Filter</tspan>
                </text>
                <rect id="Rectangle" stroke="#979797" fill="#D8D8D8" transform="translate(135.500000, 22.500000) scale(1, -1) translate(-135.500000, -22.500000) " x="0.5" y="22.5" width="270" height="1"></rect>
            </g>
            <text id="Fee-Policy" font-family="Roboto-Medium, Roboto" font-size="14" font-weight="400" letter-spacing="0.5" fill="#000000">
                <tspan x="719" y="136">Fee Policy</tspan>
            </text>
        </g>
    </g>
</svg>