<?xml version="1.0" encoding="UTF-8"?>
<svg width="1284px" height="1030px" viewBox="0 0 1284 1030" version="1.1" xmlns="http://www.w3.org/2000/svg" xmlns:xlink="http://www.w3.org/1999/xlink">
    <!-- Generator: Sketch 59.1 (86144) - https://sketch.com -->
    <title>1.3channels_peers_advanced</title>
    <desc>Created with Sketch.</desc>
    <defs>
        <rect id="path-1" x="0" y="91" width="218" height="939"></rect>
        <filter x="-6.7%" y="-1.3%" width="113.3%" height="103.1%" filterUnits="objectBoundingBox" id="filter-2">
            <feOffset dx="0" dy="2" in="SourceAlpha" result="shadowOffsetOuter1"></feOffset>
            <feGaussianBlur stdDeviation="4.5" in="shadowOffsetOuter1" result="shadowBlurOuter1"></feGaussianBlur>
            <feColorMatrix values="0 0 0 0 0.508718297   0 0 0 0 0.508320861   0 0 0 0 0.508320861  0 0 0 0.5 0" type="matrix" in="shadowBlurOuter1"></feColorMatrix>
        </filter>
        <rect id="path-3" x="0" y="38" width="1284" height="53"></rect>
        <filter x="-0.8%" y="-15.1%" width="101.6%" height="137.7%" filterUnits="objectBoundingBox" id="filter-4">
            <feOffset dx="0" dy="2" in="SourceAlpha" result="shadowOffsetOuter1"></feOffset>
            <feGaussianBlur stdDeviation="3" in="shadowOffsetOuter1" result="shadowBlurOuter1"></feGaussianBlur>
            <feColorMatrix values="0 0 0 0 0   0 0 0 0 0   0 0 0 0 0  0 0 0 0.5 0" type="matrix" in="shadowBlurOuter1"></feColorMatrix>
        </filter>
        <rect id="path-5" x="0" y="0" width="122" height="36" rx="4"></rect>
        <filter x="-3.3%" y="-5.6%" width="106.6%" height="122.2%" filterUnits="objectBoundingBox" id="filter-6">
            <feOffset dx="0" dy="2" in="SourceAlpha" result="shadowOffsetOuter1"></feOffset>
            <feGaussianBlur stdDeviation="1" in="shadowOffsetOuter1" result="shadowBlurOuter1"></feGaussianBlur>
            <feColorMatrix values="0 0 0 0 0   0 0 0 0 0   0 0 0 0 0  0 0 0 0.257457386 0" type="matrix" in="shadowBlurOuter1"></feColorMatrix>
        </filter>
        <circle id="path-7" cx="10" cy="10" r="10"></circle>
        <filter x="-10.0%" y="-5.0%" width="120.0%" height="120.0%" filterUnits="objectBoundingBox" id="filter-8">
            <feOffset dx="0" dy="1" in="SourceAlpha" result="shadowOffsetOuter1"></feOffset>
            <feGaussianBlur stdDeviation="0.5" in="shadowOffsetOuter1" result="shadowBlurOuter1"></feGaussianBlur>
            <feColorMatrix values="0 0 0 0 0   0 0 0 0 0   0 0 0 0 0  0 0 0 0.5 0" type="matrix" in="shadowBlurOuter1"></feColorMatrix>
        </filter>
        <circle id="path-9" cx="10" cy="10" r="10"></circle>
        <filter x="-10.0%" y="-5.0%" width="120.0%" height="120.0%" filterUnits="objectBoundingBox" id="filter-10">
            <feOffset dx="0" dy="1" in="SourceAlpha" result="shadowOffsetOuter1"></feOffset>
            <feGaussianBlur stdDeviation="0.5" in="shadowOffsetOuter1" result="shadowBlurOuter1"></feGaussianBlur>
            <feColorMatrix values="0 0 0 0 0   0 0 0 0 0   0 0 0 0 0  0 0 0 0.5 0" type="matrix" in="shadowBlurOuter1"></feColorMatrix>
        </filter>
    </defs>
    <g id="1.3channels_peers_advanced" stroke="none" stroke-width="1" fill="none" fill-rule="evenodd">
        <rect fill="#1D1E1F" x="0" y="0" width="1284" height="1030"></rect>
        <rect id="Background" fill="#F2F5F6" x="0" y="38" width="1284" height="992"></rect>
        <g id="Rectangle">
            <use fill="black" fill-opacity="1" filter="url(#filter-2)" xlink:href="#path-1"></use>
            <use fill="#FFFFFF" fill-rule="evenodd" xlink:href="#path-1"></use>
        </g>
        <g id="Rectangle-13">
            <use fill="black" fill-opacity="1" filter="url(#filter-4)" xlink:href="#path-3"></use>
            <use fill="#5E4EA5" fill-rule="evenodd" xlink:href="#path-3"></use>
        </g>
        <g id="Browser">
            <path d="M0,6.00024414 C0,2.68640081 2.6794487,0 5.99234946,0 L1278.00765,0 C1281.31713,0 1284,2.68722626 1284,6.00024414 L1284,38 L0,38 L0,6.00024414 Z" id="Tab-BG---Right" fill="#363738"></path>
            <circle id="Dot---Red" fill="#FF5F57" cx="18" cy="19" r="6"></circle>
            <circle id="Dot---Orange" fill="#FFBF2F" cx="38" cy="19" r="6"></circle>
            <circle id="Dot---Green" fill="#28CA42" cx="58" cy="19" r="6"></circle>
            <g id="Back" transform="translate(76.000000, 7.000000)">
                <rect id="Rectangle" fill="#656668" x="0" y="0" width="28" height="24" rx="4"></rect>
                <path d="M10.1607883,11.3246277 L15.780455,5.65901618 C15.9603839,5.47908726 16.2513057,5.47908726 16.4312347,5.65901618 L17.1891941,6.41697565 C17.3691231,6.59690457 17.3691231,6.88782642 17.1891941,7.06775535 L12.6528768,11.6500175 L17.1891941,16.2322797 C17.3691231,16.4122086 17.3691231,16.7031305 17.1891941,16.8830594 L16.4312347,17.6410189 C16.2513057,17.8209478 15.9603839,17.8209478 15.780455,17.6410189 L10.1607883,11.9754074 C9.98085942,11.7954785 9.98085942,11.5045566 10.1607883,11.3246277 Z" id="a" fill="#FFFFFF" fill-rule="nonzero"></path>
            </g>
            <g id="Forward" transform="translate(105.000000, 7.000000)">
                <rect id="Rectangle" fill="#656668" x="0" y="0" width="28" height="24" rx="4"></rect>
                <path d="M18.1891941,11.9754074 L12.5695275,17.6410189 C12.3895986,17.8209478 12.0986767,17.8209478 11.9187478,17.6410189 L11.1607883,16.8830594 C10.9808594,16.7031305 10.9808594,16.4122086 11.1607883,16.2322797 L15.6971057,11.6500175 L11.1607883,7.06775535 C10.9808594,6.88782642 10.9808594,6.59690457 11.1607883,6.41697565 L11.9187478,5.65901618 C12.0986767,5.47908726 12.3895986,5.47908726 12.5695275,5.65901618 L18.1891941,11.3246277 C18.3691231,11.5045566 18.3691231,11.7954785 18.1891941,11.9754074 Z" id="a" fill="#FFFFFF" fill-rule="nonzero" opacity="0.200334821"></path>
            </g>
            <g id="New-Tab" transform="translate(1260.000000, 14.000000)">
                <rect id="Rectangle" fill="#292A2B" x="0" y="0" width="24" height="24"></rect>
                <path d="M16.2531029,11.6843877 C16.3618742,11.6843877 16.4499775,11.7724909 16.4499775,11.8812622 L16.4499775,12.6687603 C16.4499775,12.7775316 16.3618742,12.8656349 16.2531029,12.8656349 L12.3156123,12.8656349 L12.3156123,16.8031255 C12.3156123,16.9118967 12.2275091,17 12.1187378,17 L11.3312397,17 C11.2224684,17 11.1343651,16.9118967 11.1343651,16.8031255 L11.1343651,12.8656349 L7.19687453,12.8656349 C7.08810328,12.8656349 7,12.7775316 7,12.6687603 L7,11.8812622 C7,11.7724909 7.08810328,11.6843877 7.19687453,11.6843877 L11.1343651,11.6843877 L11.1343651,7.74689706 C11.1343651,7.63812581 11.2224684,7.55002253 11.3312397,7.55002253 L12.1187378,7.55002253 C12.2275091,7.55002253 12.3156123,7.63812581 12.3156123,7.74689706 L12.3156123,11.6843877 L16.2531029,11.6843877 Z" id="p" fill="#FFFFFF" fill-rule="nonzero" opacity="0.497907366"></path>
            </g>
            <g id="URL" transform="translate(378.000000, 7.000000)">
                <path d="M0,3.99005301 C0,1.78640758 1.78094395,5.31029755e-14 3.99753941,5.28693238e-14 L516.002461,-1.1012102e-15 C518.210241,-1.33393271e-15 520,1.78429328 520,3.99005301 L520,20.009947 C520,22.2135924 518.219056,24 516.002461,24 L3.99753941,24 C1.78975936,24 0,22.2157067 0,20.009947 L0,3.99005301 Z" id="URL-Bar" fill="#696A6B"></path>
                <path d="M512.304658,5.17186422 C512.467743,5.17186422 512.59997,5.30412783 512.59997,5.46721261 L512.59997,10.1922013 C512.59997,10.3552861 512.467743,10.4875131 512.304658,10.4875131 L507.579669,10.4875131 C507.416585,10.4875131 507.284358,10.3552861 507.284358,10.1922013 L507.284358,9.51027815 C507.284358,9.34440559 507.42091,9.21109712 507.586711,9.21503845 L510.69705,9.2890827 C509.940722,7.61516854 508.257531,6.45158527 506.299985,6.45158527 C503.633864,6.45158527 501.476559,8.60927437 501.476559,11.2750113 C501.476559,13.9411327 503.634248,16.0984373 506.299985,16.0984373 C507.533046,16.0984373 508.65724,15.6369165 509.509554,14.8770557 C509.6264,14.7728747 509.804938,14.7799403 509.915632,14.8906341 L510.401377,15.3763797 C510.521276,15.4962781 510.51534,15.6917347 510.389505,15.8053845 C509.307296,16.7829079 507.873155,17.3781217 506.299985,17.3781217 C502.93257,17.3781217 500.202138,14.6509336 500.19686,11.2847685 C500.191635,7.92836054 502.924087,5.18242707 506.280471,5.17186422 C508.411171,5.16526784 510.288545,6.2506252 511.385221,7.89993005 L511.327471,5.47425415 C511.32353,5.30842965 511.456862,5.17186422 511.622711,5.17186422 L512.304658,5.17186422 Z" id="r" fill="#FFFFFF" fill-rule="nonzero" transform="translate(506.398415, 11.274993) rotate(-45.000000) translate(-506.398415, -11.274993) "></path>
                <text id="Ride-the-Lightning" font-family="Roboto-Regular, Roboto" font-size="12.6" font-weight="normal" fill="#FFFFFF">
                    <tspan x="210" y="17">Ride the Lightning</tspan>
                </text>
            </g>
        </g>
        <text id="Dashboard" font-family="FontAwesome5Pro-Regular, Font Awesome 5 Pro" font-size="18" font-weight="normal" fill="#FFFFFF">
            <tspan x="24" y="71">bars</tspan>
        </text>
        <g id="RTL-Logo" transform="translate(1210.000000, 56.000000)" fill="#FFFFFF">
            <path d="M5.10234375,10.1960631 L3.54375,10.1960631 L2.80546875,14.4124693 L0,14.4124693 L2.0671875,2.46871933 L6.28359375,2.47692246 C7.63438175,2.47692246 8.67480104,2.79273961 9.40488281,3.4243834 C10.1349646,4.05602718 10.4617191,4.91871386 10.3851562,6.01246933 C10.3249997,6.87653615 10.0761741,7.59156807 9.63867187,8.15758652 C9.20116969,8.72360498 8.58867581,9.17067082 7.80117187,9.49879746 L9.40898437,14.2730162 L9.40898437,14.4124693 L6.41484375,14.4124693 L5.10234375,10.1960631 Z M3.92109375,7.97301621 L5.56171875,7.98942246 C6.01015849,7.98942246 6.39980303,7.88004855 6.73066406,7.66129746 C7.06152509,7.44254636 7.29804616,7.1431353 7.44023438,6.76305527 C7.58242259,6.38297525 7.6234378,6.01520549 7.56328125,5.65973496 C7.4539057,5.05270067 7.06562834,4.732782 6.3984375,4.69996933 L4.4953125,4.69176621 L3.92109375,7.97301621 Z M21.0984375,4.69176621 L17.6203125,4.69176621 L15.9386719,14.4124693 L13.125,14.4124693 L14.8148438,4.69176621 L11.3941406,4.69176621 L11.7878906,2.46871933 L21.4839844,2.46871933 L21.0984375,4.69176621 Z M23.8464844,12.1976256 L28.7109375,12.1976256 L28.3253906,14.4124693 L20.6554688,14.4124693 L22.7226562,2.46871933 L25.5363281,2.46871933 L23.8464844,12.1976256 Z" id="RTL-Copy" fill-rule="nonzero"></path>
            <path d="M37.882011,5.59373905 C38.4131621,5.59373905 38.7433371,6.1708163 38.4763316,6.62733033 L33.4232186,15.3554345 C33.2968796,15.5736259 33.0671926,15.699965 32.8260382,15.699965 C32.3867394,15.699965 32.0537046,15.2894051 32.1570525,14.8529943 L33.4806404,9.26873029 L30.0726546,9.26873029 C29.656347,9.26873029 29.3347797,8.90123677 29.3893415,8.48778904 L30.3080893,1.59718047 C30.3540155,1.25553795 30.646872,1 30.9914024,1 L35.1257676,1 C35.5765338,1 35.9067088,1.43066304 35.7918653,1.86707385 L34.5687655,5.59373905 L37.882011,5.59373905 Z" id="b-copy" fill-rule="nonzero"></path>
            <text id="caret-down-copy" font-family="FontAwesome5Pro-Solid, Font Awesome 5 Pro" font-size="16" font-weight="700">
                <tspan x="46" y="14">caret-down</tspan>
            </text>
        </g>
        <text id="Connections" font-family="Roboto-Regular, Roboto" font-size="16" font-weight="normal" fill="#84979E">
            <tspan x="268" y="346">Connections</tspan>
        </text>
        <path d="M247.12777,367.5 C245.57762,367.5 244.940578,367.623018 244.282108,367.975172 C243.71739,368.277186 243.277186,368.71739 242.975172,369.282108 C242.623018,369.940578 242.5,370.57762 242.5,372.12777 L242.5,1000.87223 C242.5,1002.42238 242.623018,1003.05942 242.975172,1003.71789 C243.277186,1004.28261 243.71739,1004.72281 244.282108,1005.02483 C244.940578,1005.37698 245.57762,1005.5 247.12777,1005.5 L1254.87223,1005.5 C1256.42238,1005.5 1257.05942,1005.37698 1257.71789,1005.02483 C1258.28261,1004.72281 1258.72281,1004.28261 1259.02483,1003.71789 C1259.37698,1003.05942 1259.5,1002.42238 1259.5,1000.87223 L1259.5,372.12777 C1259.5,370.57762 1259.37698,369.940578 1259.02483,369.282108 C1258.72281,368.71739 1258.28261,368.277186 1257.71789,367.975172 C1257.05942,367.623018 1256.42238,367.5 1254.87223,367.5 L247.12777,367.5 Z" id="Rectangle" stroke="#DEDEDE" fill="#FFFFFF"></path>
        <g id="Group-17" transform="translate(505.000000, 385.000000)">
            <circle id="Oval" fill="#858585" cx="7.5" cy="7.5" r="7.5"></circle>
            <text id="4" font-family="Roboto-Bold, Roboto" font-size="11" font-weight="bold" fill="#FFFFFF">
                <tspan x="4.34448242" y="11">4</tspan>
            </text>
        </g>
        <g id="Group-17" transform="translate(357.000000, 385.000000)">
            <circle id="Oval" fill="#5E4EA5" cx="7.5" cy="7.5" r="7.5"></circle>
            <text id="4" font-family="Roboto-Bold, Roboto" font-size="11" font-weight="bold" fill="#FFFFFF">
                <tspan x="4.34448242" y="11">4</tspan>
            </text>
        </g>
        <line x1="400" y1="415.5" x2="1260.5" y2="414.5" id="Line" stroke="#D7D7D7" stroke-linecap="square"></line>
        <rect id="Rectangle" fill="#5E4EA5" x="242" y="414" width="160" height="2"></rect>
        <rect id="Rectangle" fill="#59316B" opacity="0" x="402" y="414" width="160" height="2"></rect>
        <rect id="Rectangle" fill="#59316B" opacity="0" x="562" y="414" width="160" height="2"></rect>
        <text id="Channels" font-family="Roboto-Medium, Roboto" font-size="14" font-weight="400" fill="#5E4EA5">
            <tspan x="292.813965" y="397">Channels</tspan>
        </text>
        <text id="Peers" font-family="Roboto-Regular, Roboto" font-size="14" font-weight="normal" fill="#979797">
            <tspan x="464.188965" y="397">Peers</tspan>
        </text>
        <text id="Alias" font-family="Roboto-Regular, Roboto" font-size="15" font-weight="normal" fill="#444444">
            <tspan x="266" y="475">Alias</tspan>
        </text>
        <text id="caret-down" font-family="FontAwesome5Pro-Solid, Font Awesome 5 Pro" font-size="15" font-weight="700" fill="#444444">
            <tspan x="696.625" y="475">caret-down</tspan>
        </text>
        <rect id="Rectangle" stroke="#979797" fill="#D8D8D8" x="266.5" y="485.5" width="439" height="1"></rect>
        <text id="Amount" opacity="0" font-family="Roboto-Regular, Roboto" font-size="12" font-weight="normal" fill="#5E4EA5">
            <tspan x="266" y="450">Amount</tspan>
        </text>
        <g id="Group-35" transform="translate(265.000000, 569.000000)">
            <g id="Group-8">
                <g id="Rectangle-Copy-7">
                    <use fill="black" fill-opacity="1" filter="url(#filter-6)" xlink:href="#path-5"></use>
                    <use fill="#5E4EA5" fill-rule="evenodd" xlink:href="#path-5"></use>
                </g>
                <text id="Open-Channel" font-family="Roboto-Medium, Roboto" font-size="14" font-weight="400" fill="#FFFFFF">
                    <tspan x="17.7602539" y="23">Open Channel</tspan>
                </text>
            </g>
            <g id="Group-5" transform="translate(139.000000, 0.000000)">
                <rect id="Rectangle-Copy-7" stroke="#DCDCDC" fill="#FFFFFF" x="0.5" y="0.5" width="101" height="35" rx="4"></rect>
                <text id="Clear-Fields" font-family="Roboto-Medium, Roboto" font-size="14" font-weight="400" fill="#4F4F4F">
                    <tspan x="14.6542969" y="23">Clear Fields</tspan>
                </text>
            </g>
        </g>
        <g id="Group-16" transform="translate(1096.000000, 450.000000)">
            <rect id="Rectangle-Copy-7" stroke="#DCDCDC" fill="#FFFFFF" x="0.5" y="0.5" width="138" height="35" rx="4"></rect>
            <text id="Hide-Advanced" font-family="Roboto-Medium, Roboto" font-size="14" font-weight="400" fill="#4F4F4F">
                <tspan x="22.7158203" y="23">Hide Advanced</tspan>
            </text>
        </g>
        <g id="Group-34" transform="translate(267.000000, 641.000000)">
            <path d="M5.1277704,32.5 C3.5776195,32.5 2.94057806,32.6230184 2.28210802,32.975172 C1.71739041,33.2771863 1.27718629,33.7173904 0.975172007,34.282108 C0.623018378,34.9405781 0.5,35.5776195 0.5,37.1277704 L0.5,334.87223 C0.5,336.42238 0.623018378,337.059422 0.975172007,337.717892 C1.27718629,338.28261 1.71739041,338.722814 2.28210802,339.024828 C2.94057806,339.376982 3.5776195,339.5 5.1277704,339.5 L962.87223,339.5 C964.42238,339.5 965.059422,339.376982 965.717892,339.024828 C966.28261,338.722814 966.722814,338.28261 967.024828,337.717892 C967.376982,337.059422 967.5,336.42238 967.5,334.87223 L967.5,37.1277704 C967.5,35.5776195 967.376982,34.9405781 967.024828,34.282108 C966.722814,33.7173904 966.28261,33.2771863 965.717892,32.975172 C965.059422,32.6230184 964.42238,32.5 962.87223,32.5 L5.1277704,32.5 Z" id="Rectangle" stroke="#DEDEDE" fill="#FFFFFF"></path>
            <g id="Group-31" transform="translate(17.000000, 53.000000)">
                <g id="Group-29" font-size="14">
                    <text id="Alias" font-family="Roboto-Medium, Roboto" font-weight="400" letter-spacing="0.5" fill="#000000">
                        <tspan x="0" y="13">Alias</tspan>
                    </text>
                    <text id="Bitrefill" font-family="Roboto-Regular, Roboto" font-weight="normal" letter-spacing="0.200000003" fill="#4F4F4F">
                        <tspan x="18" y="63">Bitrefill</tspan>
                    </text>
                    <text id="Blockstream" font-family="Roboto-Regular, Roboto" font-weight="normal" letter-spacing="0.200000003" fill="#4F4F4F">
                        <tspan x="18" y="115">Blockstream</tspan>
                    </text>
                    <text id="tipping.me" font-family="Roboto-Regular, Roboto" font-weight="normal" letter-spacing="0.200000003" fill="#4F4F4F">
                        <tspan x="18" y="170">tipping.me</tspan>
                    </text>
                    <text id="Hold-Monkey" font-family="Roboto-Regular, Roboto" font-weight="normal" letter-spacing="0.200000003" fill="#4F4F4F">
                        <tspan x="18" y="219">Hold Monkey</tspan>
                    </text>
                </g>
                <circle id="Oval" fill="#28CA42" cx="5" cy="58" r="5"></circle>
                <circle id="Oval" fill="#28CA42" cx="5" cy="110" r="5"></circle>
                <circle id="Oval" fill="#FFBD2E" cx="5" cy="165" r="5"></circle>
                <circle id="Oval" fill="#FF625A" cx="5" cy="214" r="5"></circle>
            </g>
            <g id="Group-15" transform="translate(148.000000, 53.000000)" font-size="14">
                <text id="Sent" font-family="Roboto-Medium, Roboto" font-weight="400" letter-spacing="0.5" fill="#000000">
                    <tspan x="0" y="13">Sent</tspan>
                </text>
                <text id="0" font-family="Roboto-Regular, Roboto" font-weight="normal" letter-spacing="0.200000003" fill="#4F4F4F">
                    <tspan x="29.9386719" y="63">0</tspan>
                </text>
                <text id="0" font-family="Roboto-Regular, Roboto" font-weight="normal" letter-spacing="0.200000003" fill="#4F4F4F">
                    <tspan x="29.9386719" y="115">0</tspan>
                </text>
                <text id="0" font-family="Roboto-Regular, Roboto" font-weight="normal" letter-spacing="0.200000003" fill="#4F4F4F">
                    <tspan x="29.9386719" y="170">0</tspan>
                </text>
                <text id="0" font-family="Roboto-Regular, Roboto" font-weight="normal" letter-spacing="0.200000003" fill="#4F4F4F">
                    <tspan x="29.9386719" y="219">0</tspan>
                </text>
            </g>
            <g id="Group-32" transform="translate(221.000000, 53.000000)" font-size="14">
                <text id="Received" font-family="Roboto-Medium, Roboto" font-weight="400" letter-spacing="0.5" fill="#000000">
                    <tspan x="0.083984375" y="13">Received</tspan>
                </text>
                <text id="0" font-family="Roboto-Regular, Roboto" font-weight="normal" letter-spacing="0.200000003" fill="#4F4F4F">
                    <tspan x="52.9386719" y="63">0</tspan>
                </text>
                <text id="0" font-family="Roboto-Regular, Roboto" font-weight="normal" letter-spacing="0.200000003" fill="#4F4F4F">
                    <tspan x="52.9386719" y="115">0</tspan>
                </text>
                <text id="0" font-family="Roboto-Regular, Roboto" font-weight="normal" letter-spacing="0.200000003" fill="#4F4F4F">
                    <tspan x="52.9386719" y="170">0</tspan>
                </text>
                <text id="0" font-family="Roboto-Regular, Roboto" font-weight="normal" letter-spacing="0.200000003" fill="#4F4F4F">
                    <tspan x="52.9386719" y="219">0</tspan>
                </text>
            </g>
            <g id="Group-4" transform="translate(801.000000, 53.000000)" font-size="14">
                <text id="Ping" font-family="Roboto-Medium, Roboto" font-weight="400" letter-spacing="0.5" fill="#000000">
                    <tspan x="0.75390625" y="13">Ping</tspan>
                </text>
                <text id="0" font-family="Roboto-Regular, Roboto" font-weight="normal" letter-spacing="0.200000003" fill="#4F4F4F">
                    <tspan x="22.9386719" y="63">0</tspan>
                </text>
                <text id="0" font-family="Roboto-Regular, Roboto" font-weight="normal" letter-spacing="0.200000003" fill="#4F4F4F">
                    <tspan x="22.9386719" y="115">0</tspan>
                </text>
                <text id="0" font-family="Roboto-Regular, Roboto" font-weight="normal" letter-spacing="0.200000003" fill="#4F4F4F">
                    <tspan x="22.9386719" y="170">0</tspan>
                </text>
                <text id="0" font-family="Roboto-Regular, Roboto" font-weight="normal" letter-spacing="0.200000003" fill="#4F4F4F">
                    <tspan x="22.9386719" y="219">0</tspan>
                </text>
            </g>
            <g id="Group-12" transform="translate(868.000000, 53.000000)">
                <text id="Actions" font-family="Roboto-Medium, Roboto" font-size="14" font-weight="400" letter-spacing="0.5" fill="#000000">
                    <tspan x="31" y="13">Actions</tspan>
                </text>
                <g id="Group-25" transform="translate(0.000000, 43.000000)">
                    <g id="Group-5" fill="#FFFFFF" stroke="#DCDCDC">
                        <rect id="Rectangle-Copy-7" x="0.5" y="0.5" width="91" height="35" rx="4"></rect>
                    </g>
                    <text id="Actions-caret-down" font-family="Roboto-Medium, Roboto" font-size="14" font-weight="400" fill="#4F4F4F">
                        <tspan x="16.4526367" y="23">Actions </tspan>
                        <tspan x="67.7973633" y="23" font-family="FontAwesome5Pro-Solid, Font Awesome 5 Pro" font-weight="700">caret-down</tspan>
                    </text>
                </g>
                <g id="Group-25" transform="translate(0.000000, 93.000000)">
                    <g id="Group-5" fill="#FFFFFF" stroke="#DCDCDC">
                        <rect id="Rectangle-Copy-7" x="0.5" y="0.5" width="91" height="35" rx="4"></rect>
                    </g>
                    <text id="Actions-caret-down" font-family="Roboto-Medium, Roboto" font-size="14" font-weight="400" fill="#4F4F4F">
                        <tspan x="16.4526367" y="23">Actions </tspan>
                        <tspan x="67.7973633" y="23" font-family="FontAwesome5Pro-Solid, Font Awesome 5 Pro" font-weight="700">caret-down</tspan>
                    </text>
                </g>
                <g id="Group-25" transform="translate(0.000000, 144.000000)">
                    <g id="Group-5" fill="#FFFFFF" stroke="#DCDCDC">
                        <rect id="Rectangle-Copy-7" x="0.5" y="0.5" width="91" height="35" rx="4"></rect>
                    </g>
                    <text id="Actions-caret-down" font-family="Roboto-Medium, Roboto" font-size="14" font-weight="400" fill="#4F4F4F">
                        <tspan x="16.4526367" y="23">Actions </tspan>
                        <tspan x="67.7973633" y="23" font-family="FontAwesome5Pro-Solid, Font Awesome 5 Pro" font-weight="700">caret-down</tspan>
                    </text>
                </g>
                <g id="Group-25" transform="translate(0.000000, 194.000000)">
                    <g id="Group-5" fill="#FFFFFF" stroke="#DCDCDC">
                        <rect id="Rectangle-Copy-7" x="0.5" y="0.5" width="91" height="35" rx="4"></rect>
                    </g>
                    <text id="Actions-caret-down" font-family="Roboto-Medium, Roboto" font-size="14" font-weight="400" fill="#4F4F4F">
                        <tspan x="16.4526367" y="23">Actions </tspan>
                        <tspan x="67.7973633" y="23" font-family="FontAwesome5Pro-Solid, Font Awesome 5 Pro" font-weight="700">caret-down</tspan>
                    </text>
                </g>
            </g>
            <line x1="1" y1="88.5" x2="968.313475" y2="88.5" id="Line-2" stroke="#E1E1E1" stroke-linecap="square"></line>
            <text id="Channels" font-family="Roboto-Regular, Roboto" font-size="16" font-weight="normal" fill="#84979E">
                <tspan x="29" y="15">Channels</tspan>
            </text>
            <g id="Group-33" transform="translate(619.000000, 306.000000)" fill="#4F4F4F" font-size="14" font-weight="normal" letter-spacing="0.200000003">
                <text id="Rows-per-page:-10-ca" font-family="Roboto-Regular, Roboto">
                    <tspan x="0" y="13">Rows per page: 10  </tspan>
                    <tspan x="125.336133" y="13" font-family="FontAwesome5Pro-Solid, Font Awesome 5 Pro" font-weight="700">caret-down</tspan>
                </text>
                <text id="1-4-of-4" font-family="Roboto-Regular, Roboto">
                    <tspan x="188" y="13">1-4 of 4</tspan>
                </text>
                <text id="angle-right" font-family="FontAwesome5Pro-Regular, Font Awesome 5 Pro">
                    <tspan x="322" y="13">angle-right</tspan>
                </text>
                <text id="angle-left" font-family="FontAwesome5Pro-Regular, Font Awesome 5 Pro">
                    <tspan x="286" y="13">angle-left</tspan>
                </text>
            </g>
            <text id="exchange" font-family="FontAwesome5Pro-Solid, Font Awesome 5 Pro" font-size="16" font-weight="700" fill="#84979E">
                <tspan x="0" y="15">exchange</tspan>
            </text>
            <g id="Group-10" transform="translate(318.000000, 53.000000)">
                <g id="Group-28" transform="translate(0.000000, 50.000000)">
                    <rect id="Rectangle" fill="#D1C7FF" x="0" y="17" width="447" height="4"></rect>
                    <rect id="Rectangle" fill="#5E4EA5" x="0" y="17" width="232" height="4"></rect>
                    <text id="Local:-323,913-sats" font-family="Roboto-Bold, Roboto" font-size="12" font-weight="bold" letter-spacing="0.171428574" fill="#4F4F4F">
                        <tspan x="0" y="11">Local: </tspan>
                        <tspan x="36.73125" y="11" font-family="Roboto-Regular, Roboto" font-weight="normal">323,913 sats</tspan>
                    </text>
                    <text id="Remote:-323,913-sats" font-family="Roboto-Bold, Roboto" font-size="12" font-weight="bold" letter-spacing="0.171428574" fill="#4F4F4F">
                        <tspan x="327" y="11">Remote: </tspan>
                        <tspan x="376.605804" y="11" font-family="Roboto-Regular, Roboto" font-weight="normal">323,913 sats</tspan>
                    </text>
                </g>
                <text id="Capacity" font-family="Roboto-Medium, Roboto" font-size="14" font-weight="400" letter-spacing="0.5" fill="#000000">
                    <tspan x="1" y="13">Capacity</tspan>
                </text>
                <g id="Group-22" transform="translate(0.000000, 100.000000)">
                    <rect id="Rectangle" fill="#D1C7FF" x="0" y="17" width="447" height="4"></rect>
                    <rect id="Rectangle" fill="#5E4EA5" x="0" y="17" width="232" height="4"></rect>
                    <text id="Local:-323,913-sats" font-family="Roboto-Bold, Roboto" font-size="12" font-weight="bold" letter-spacing="0.171428574" fill="#4F4F4F">
                        <tspan x="0" y="11">Local: </tspan>
                        <tspan x="36.73125" y="11" font-family="Roboto-Regular, Roboto" font-weight="normal">323,913 sats</tspan>
                    </text>
                    <text id="Remote:-323,913-sats" font-family="Roboto-Bold, Roboto" font-size="12" font-weight="bold" letter-spacing="0.171428574" fill="#4F4F4F">
                        <tspan x="327" y="11">Remote: </tspan>
                        <tspan x="376.605804" y="11" font-family="Roboto-Regular, Roboto" font-weight="normal">323,913 sats</tspan>
                    </text>
                </g>
                <g id="Group-19" transform="translate(0.000000, 151.000000)">
                    <rect id="Rectangle" fill="#D1C7FF" x="0" y="17" width="447" height="4"></rect>
                    <rect id="Rectangle" fill="#5E4EA5" x="0" y="17" width="232" height="4"></rect>
                    <text id="Local:-323,913-sats" font-family="Roboto-Bold, Roboto" font-size="12" font-weight="bold" letter-spacing="0.171428574" fill="#4F4F4F">
                        <tspan x="0" y="11">Local: </tspan>
                        <tspan x="36.73125" y="11" font-family="Roboto-Regular, Roboto" font-weight="normal">323,913 sats</tspan>
                    </text>
                    <text id="Remote:-323,913-sats" font-family="Roboto-Bold, Roboto" font-size="12" font-weight="bold" letter-spacing="0.171428574" fill="#4F4F4F">
                        <tspan x="327" y="11">Remote: </tspan>
                        <tspan x="376.605804" y="11" font-family="Roboto-Regular, Roboto" font-weight="normal">323,913 sats</tspan>
                    </text>
                </g>
                <g id="Group-17" transform="translate(0.000000, 201.000000)">
                    <rect id="Rectangle" fill="#D1C7FF" x="0" y="17" width="447" height="4"></rect>
                    <rect id="Rectangle" fill="#5E4EA5" x="0" y="17" width="232" height="4"></rect>
                    <text id="Local:-323,913-sats" font-family="Roboto-Bold, Roboto" font-size="12" font-weight="bold" letter-spacing="0.171428574" fill="#4F4F4F">
                        <tspan x="0" y="11">Local: </tspan>
                        <tspan x="36.73125" y="11" font-family="Roboto-Regular, Roboto" font-weight="normal">323,913 sats</tspan>
                    </text>
                    <text id="Remote:-323,913-sats" font-family="Roboto-Bold, Roboto" font-size="12" font-weight="bold" letter-spacing="0.171428574" fill="#4F4F4F">
                        <tspan x="327" y="11">Remote: </tspan>
                        <tspan x="376.605804" y="11" font-family="Roboto-Regular, Roboto" font-weight="normal">323,913 sats</tspan>
                    </text>
                </g>
            </g>
            <line x1="1" y1="138.5" x2="968.313475" y2="138.5" id="Line-2" stroke="#E1E1E1" stroke-linecap="square"></line>
            <line x1="1" y1="189.5" x2="968.313475" y2="189.5" id="Line-2" stroke="#E1E1E1" stroke-linecap="square"></line>
            <line x1="1" y1="239.5" x2="968.313475" y2="239.5" id="Line-2" stroke="#E1E1E1" stroke-linecap="square"></line>
            <line x1="1" y1="289.5" x2="968.313475" y2="289.5" id="Line-2" stroke="#E1E1E1" stroke-linecap="square"></line>
        </g>
        <g id="Group-2" transform="translate(1.000000, 396.000000)">
            <rect id="Rectangle" fill-opacity="0.114128059" fill="#5E4EA5" opacity="0" x="0" y="0" width="218" height="48"></rect>
            <text id="On-chain-Copy" font-family="Roboto-Regular, Roboto" font-size="14" font-weight="normal" fill="#474747">
                <tspan x="76" y="29">Lookup</tspan>
            </text>
        </g>
        <g id="Group-2" transform="translate(1.000000, 444.000000)">
            <rect id="Rectangle" fill-opacity="0.114128059" fill="#5E4EA5" opacity="0" x="0" y="0" width="218" height="48"></rect>
            <text id="On-chain-Copy" font-family="Roboto-Regular, Roboto" font-size="14" font-weight="normal" fill="#474747">
                <tspan x="76" y="29">Routing</tspan>
            </text>
        </g>
        <rect id="Rectangle" fill-opacity="0.114128059" fill="#C2C2C2" x="1" y="300" width="218" height="192"></rect>
        <rect id="Rectangle" fill-opacity="0.114128059" fill="#BEBEBE" x="-1" y="300" width="219" height="48"></rect>
        <g id="Group-14" transform="translate(0.000000, 349.000000)">
            <g id="Group-2">
                <rect id="Rectangle" fill-opacity="0.114128059" fill="#5E4EA5" opacity="0" x="0" y="0" width="218" height="48"></rect>
                <text id="On-chain-Copy" font-family="Roboto-Regular, Roboto" font-size="14" font-weight="normal" fill="#474747">
                    <tspan x="76" y="29">Transactions</tspan>
                </text>
            </g>
            <text id="exchange" font-family="FontAwesome5Pro-Solid, Font Awesome 5 Pro" font-size="14" font-weight="700" fill="#858585">
                <tspan x="37" y="29">exchange</tspan>
            </text>
        </g>
        <g id="Group-11" transform="translate(0.000000, 300.000000)" fill="#5E4EA5">
            <g id="Group-13">
                <g id="Group-2">
                    <rect id="Rectangle" fill-opacity="0.114128059" opacity="0" x="0" y="0" width="218" height="48"></rect>
                    <text id="On-chain-Copy" font-family="Roboto-Medium, Roboto" font-size="14" font-weight="400">
                        <tspan x="76" y="29">Peers / Channels</tspan>
                    </text>
                </g>
            </g>
            <text id="users" font-family="FontAwesome5Pro-Solid, Font Awesome 5 Pro" font-size="14" font-weight="700">
                <tspan x="35" y="29">users</tspan>
            </text>
        </g>
        <rect id="Rectangle" fill="#D8D8D8" opacity="0" x="0" y="206" width="218" height="48"></rect>
        <text id="On-chain" font-family="Roboto-Regular, Roboto" font-size="14" font-weight="normal" fill="#474747">
            <tspan x="70" y="235">On-chain</tspan>
        </text>
        <g id="Group-9" transform="translate(0.000000, 492.000000)">
            <rect id="Rectangle" fill="#D8D8D8" opacity="0" x="0" y="0" width="218" height="48"></rect>
            <text id="On-chain" font-family="Roboto-Regular, Roboto" font-size="14" font-weight="normal" fill="#4A4A4A">
                <tspan x="70" y="29">Advanced</tspan>
            </text>
            <rect id="Rectangle" fill="#D8D8D8" opacity="0" x="0" y="48" width="218" height="48"></rect>
            <text id="On-chain" font-family="Roboto-Regular, Roboto" font-size="14" font-weight="normal" fill="#4A4A4A">
                <tspan x="70" y="77">Help</tspan>
            </text>
            <g id="Group-6" transform="translate(0.000000, 110.000000)">
                <g id="Group-30" transform="translate(0.000000, 7.000000)">
                    <g id="Group-3">
                        <rect id="Rectangle" fill="#D8D8D8" opacity="0" x="0" y="0" width="218" height="48"></rect>
                        <text id="On-chain" font-family="Roboto-Regular, Roboto" font-size="14" font-weight="normal" fill="#4A4A4A">
                            <tspan x="70" y="29">Show Public Key</tspan>
                        </text>
                    </g>
                    <text id="eye" font-family="FontAwesome5Pro-Solid, Font Awesome 5 Pro" font-size="14" font-weight="700" fill="#858585">
                        <tspan x="24" y="27">eye</tspan>
                    </text>
                </g>
                <line x1="0.5" y1="0.5" x2="218.5" y2="0.5" id="Line-3" stroke="#E6E6E6" stroke-linecap="square"></line>
            </g>
            <text id="cog" font-family="FontAwesome5Pro-Solid, Font Awesome 5 Pro" font-size="14" font-weight="700" fill="#858585">
                <tspan x="25" y="28">cog</tspan>
            </text>
            <text id="life-ring" font-family="FontAwesome5Pro-Solid, Font Awesome 5 Pro" font-size="14" font-weight="700" fill="#858585">
                <tspan x="25" y="75">life-ring</tspan>
            </text>
        </g>
        <text id="On-chain-Copy" font-family="Roboto-Regular, Roboto" font-size="14" font-weight="normal" fill="#474747">
            <tspan x="70" y="283">Lightning</tspan>
        </text>
        <text id="Dashboard" font-family="Roboto-Regular, Roboto" font-size="14" font-weight="normal" fill="#4A4A4A">
            <tspan x="70" y="185">Dashboard</tspan>
        </text>
        <g id="Group-18" transform="translate(24.000000, 117.000000)">
            <text id="Dashboard" font-family="Roboto-Regular, Roboto" font-size="16" font-weight="normal" fill="#181818">
                <tspan x="0" y="15">Amora_UK01</tspan>
            </text>
            <path d="M99.6365126,7 L107.823305,7 C108.389692,7 108.672855,7.6718734 108.271959,8.06561025 L104.180132,12.0874818 C103.931957,12.3312251 103.527861,12.3312251 103.279686,12.0874818 L99.1878898,8.06561025 C98.786963,7.6718734 99.0701566,7 99.6365126,7 Z" id="c" fill="#4B4B4B" fill-rule="nonzero"></path>
        </g>
        <text id="tachometer-alt-fast" font-family="FontAwesome5Pro-Solid, Font Awesome 5 Pro" font-size="14" font-weight="700" fill="#858585">
            <tspan x="24" y="184">tachometer-alt-fast</tspan>
        </text>
        <text id="link" font-family="FontAwesome5Pro-Solid, Font Awesome 5 Pro" font-size="14" font-weight="700" fill="#858585">
            <tspan x="25" y="233">link</tspan>
        </text>
        <text id="bolt" font-family="FontAwesome5Pro-Solid, Font Awesome 5 Pro" font-size="14" font-weight="700" fill="#858585">
            <tspan x="28" y="282">bolt</tspan>
        </text>
        <text id="bolt" font-family="FontAwesome5Pro-Solid, Font Awesome 5 Pro" font-size="14" font-weight="700" fill="#858585">
            <tspan x="28" y="282">bolt</tspan>
        </text>
        <text id="search" font-family="FontAwesome5Pro-Solid, Font Awesome 5 Pro" font-size="14" font-weight="700" fill="#858585">
            <tspan x="38" y="425">search</tspan>
        </text>
        <text id="project-diagram" font-family="FontAwesome5Pro-Solid, Font Awesome 5 Pro" font-size="14" font-weight="700" fill="#858585">
            <tspan x="36" y="474">project-diagram</tspan>
        </text>
        <g id="Group-21" transform="translate(243.000000, 154.000000)">
            <path d="M5.1277704,0.5 C3.5776195,0.5 2.94057806,0.623018378 2.28210802,0.975172007 C1.71739041,1.27718629 1.27718629,1.71739041 0.975172007,2.28210802 C0.623018378,2.94057806 0.5,3.5776195 0.5,5.1277704 L0.5,126.87223 C0.5,128.42238 0.623018378,129.059422 0.975172007,129.717892 C1.27718629,130.28261 1.71739041,130.722814 2.28210802,131.024828 C2.94057806,131.376982 3.5776195,131.5 5.1277704,131.5 L1012.87223,131.5 C1014.42238,131.5 1015.05942,131.376982 1015.71789,131.024828 C1016.28261,130.722814 1016.72281,130.28261 1017.02483,129.717892 C1017.37698,129.059422 1017.5,128.42238 1017.5,126.87223 L1017.5,5.1277704 C1017.5,3.5776195 1017.37698,2.94057806 1017.02483,2.28210802 C1016.72281,1.71739041 1016.28261,1.27718629 1015.71789,0.975172007 C1015.05942,0.623018378 1014.42238,0.5 1012.87223,0.5 L5.1277704,0.5 Z" id="Rectangle" stroke="#DEDEDE" fill="#FFFFFF"></path>
            <line x1="0" y1="48.5" x2="1018" y2="48.5" id="Line" stroke="#D7D7D7" stroke-linecap="square"></line>
            <rect id="Rectangle" fill="#5E4EA5" x="1" y="47" width="79" height="2"></rect>
            <rect id="Rectangle" fill="#59316B" opacity="0" x="78" y="47" width="80" height="2"></rect>
            <text id="SATS" font-family="Roboto-Medium, Roboto" font-size="14" font-weight="400" fill="#5E4EA5">
                <tspan x="22.1435547" y="30">SATS</tspan>
            </text>
            <text id="BTC" font-family="Roboto-Regular, Roboto" font-size="14" font-weight="normal" fill="#979797">
                <tspan x="104.90918" y="30">BTC</tspan>
            </text>
            <text id="GBP" font-family="Roboto-Regular, Roboto" font-size="14" font-weight="normal" fill="#979797">
                <tspan x="182.958008" y="30">GBP</tspan>
            </text>
            <g id="Group-26" transform="translate(24.000000, 72.000000)">
                <text id="Total-Balance" font-family="Roboto-Medium, Roboto" font-size="12" font-weight="400" fill="#5E4EA5">
                    <tspan x="0" y="11">Total Balance</tspan>
                </text>
                <text id="413,722" font-family="Roboto-Light, Roboto" font-size="20" font-weight="300" fill="#222831">
                    <tspan x="0" y="37">413,722</tspan>
                </text>
            </g>
            <g id="Group-23" transform="translate(121.000000, 72.000000)">
                <text id="Confirmed" font-family="Roboto-Medium, Roboto" font-size="12" font-weight="400" fill="#5E4EA5">
                    <tspan x="0" y="11">Confirmed</tspan>
                </text>
                <text id="413,721" font-family="Roboto-Light, Roboto" font-size="20" font-weight="300" fill="#222831">
                    <tspan x="0" y="37">413,721</tspan>
                </text>
            </g>
            <g id="Group-24" transform="translate(216.000000, 72.000000)">
                <text id="Unconfirmed" font-family="Roboto-Medium, Roboto" font-size="12" font-weight="400" fill="#5E4EA5">
                    <tspan x="0" y="11">Unconfirmed</tspan>
                </text>
                <text id="0" font-family="Roboto-Light, Roboto" font-size="20" font-weight="300" fill="#222831">
                    <tspan x="0" y="37">0</tspan>
                </text>
            </g>
        </g>
        <g id="Group-27" transform="translate(243.000000, 117.000000)">
            <path d="M16.4934772,9.00001192 C16.7919079,9.00001192 17.0372381,9.26218781 16.9953375,9.55781088 C16.7512891,11.2843693 15.9194124,12.8203153 14.7100342,13.9596864 C14.6178408,14.0465697 14.4990972,14.0887449 14.3797432,14.0887449 C14.2624339,14.0885313 14.0997451,14.0212097 14.0166154,13.9384462 L9.07818113,9.00001192 L16.4934772,9.00001192 Z M14.3712898,12.8787563 C15.115032,12.0625046 15.6412758,11.0675119 15.8950289,10.0000095 L11.492543,10.0000095 L14.3712898,12.8787563 Z M7.00006108,9.00001192 L11.8709906,13.8709415 C12.0850404,14.0849913 12.0688051,14.4484242 11.8219185,14.6234421 C10.6253576,15.472195 9.17006934,15.9796706 7.59506088,15.9993849 C7.56442131,15.9996901 7.53475829,15.9999952 7.50411872,15.9999952 C3.53693457,15.9999952 0.139756393,12.7353241 0.0044417746,8.76157865 C-0.128034716,4.86250958 2.71851611,1.60909937 6.44226212,1.0828555 C6.46444835,1.0797122 6.48663457,1.07815581 6.50817993,1.07815581 C6.77569638,1.07815581 7.00006108,1.3087766 7.00006108,1.58471588 L7.00006108,9.00001192 Z M7.58224353,14.9993873 C8.69536954,14.9856239 9.77037918,14.6900008 10.7253635,14.1393734 L6.00006347,9.41407343 L6.00006347,2.18221812 C3.01038554,2.88283901 0.897567087,5.59846974 1.00382904,8.72752112 C1.11945987,12.1275069 4.09632045,14.9999976 7.50381354,14.9999976 L7.58224353,14.9993873 Z M15.9987884,6.97502285 C16.0184722,7.26002584 15.7784825,7.5000155 15.4928387,7.5000155 L8.50005751,7.5000155 L8.50005751,0.507234318 C8.50005751,0.232851427 8.72191977,3.33786011e-05 8.99254901,3.33786011e-05 C9.0031691,3.33786011e-05 9.01412488,0.000338553655 9.02505015,0.00128459632 C12.758165,0.258791307 15.7412817,3.24190797 15.9987884,6.97502285 Z M9.50005512,6.50001788 L14.9406549,6.50001788 C14.5088017,3.71096203 12.289111,1.4909661 9.50005512,1.05941806 L9.50005512,6.50001788 Z" id="c" fill="#84979E" fill-rule="nonzero"></path>
            <text id="On-chain-Balance" font-family="Roboto-Regular, Roboto" font-size="16" font-weight="normal" fill="#84979E">
                <tspan x="25.0000778" y="15">On-chain Balance</tspan>
            </text>
            <g id="Group-20" transform="translate(0.000078, 0.000000)"></g>
        </g>
        <text id="chart-pie" font-family="FontAwesome5Pro-Solid, Font Awesome 5 Pro" font-size="16" font-weight="700" fill="#84979E">
            <tspan x="243" y="131">chart-pie</tspan>
        </text>
        <text id="users" font-family="FontAwesome5Pro-Solid, Font Awesome 5 Pro" font-size="16" font-weight="700" fill="#84979E">
            <tspan x="243" y="346">users</tspan>
        </text>
        <g id="Group-13-Copy" transform="translate(729.000000, 439.000000)">
            <g id="Group-7" transform="translate(0.000000, 22.000000)">
                <text id="Amount" font-family="Roboto-Regular, Roboto" font-size="15" font-weight="normal" fill="#444444">
                    <tspan x="1.42108547e-13" y="14">Amount</tspan>
                </text>
                <text id="sats" font-family="Roboto-Regular, Roboto" font-size="15" font-weight="normal" fill="#858585">
                    <tspan x="203.472168" y="14">sats</tspan>
                </text>
                <rect id="Rectangle" stroke="#979797" fill="#D8D8D8" x="0.5" y="24.5" width="231" height="1"></rect>
            </g>
            <text id="Amount" opacity="0" font-family="Roboto-Regular, Roboto" font-size="12" font-weight="normal" fill="#5E4EA5">
                <tspan x="0" y="11">Amount</tspan>
            </text>
        </g>
        <g id="Group-15-Copy" transform="translate(985.000000, 458.000000)">
            <g id="Group-12">
                <rect id="Rectangle" fill="#9B9B9B" x="1" y="3" width="31" height="14" rx="7"></rect>
                <g id="Oval">
                    <use fill="black" fill-opacity="1" filter="url(#filter-8)" xlink:href="#path-7"></use>
                    <use fill="#FFFFFF" fill-rule="evenodd" xlink:href="#path-7"></use>
                </g>
            </g>
            <text id="Private" font-family="Roboto-Regular, Roboto" font-size="16" font-weight="normal" fill="#323232">
                <tspan x="43" y="15">Private</tspan>
            </text>
        </g>
        <g id="Group-15-Copy" transform="translate(722.000000, 518.000000)">
            <g id="Group-12">
                <rect id="Rectangle" fill="#9B9B9B" x="1" y="3" width="31" height="14" rx="7"></rect>
                <g id="Oval">
                    <use fill="black" fill-opacity="1" filter="url(#filter-10)" xlink:href="#path-9"></use>
                    <use fill="#FFFFFF" fill-rule="evenodd" xlink:href="#path-9"></use>
                </g>
            </g>
            <text id="Spend-Unconfirmed-Ou" font-family="Roboto-Regular, Roboto" font-size="16" font-weight="normal" fill="#323232">
                <tspan x="43" y="15">Spend Unconfirmed Output</tspan>
            </text>
        </g>
        <g id="Group-36" transform="translate(546.000000, 521.000000)">
            <text id="Number-of-Blocks" font-family="Roboto-Regular, Roboto" font-size="15" font-weight="normal" fill="#444444">
                <tspan x="4.68958206e-13" y="14">Number of Blocks</tspan>
            </text>
            <rect id="Rectangle" stroke="#979797" fill="#D8D8D8" x="0.5" y="24.5" width="159.157325" height="1"></rect>
        </g>
        <path d="M274.794644,525.493164 L271.301155,525.493164 L271.301155,535 L269.875394,535 L269.875394,525.493164 L266.38937,525.493164 L266.38937,524.335938 L274.794644,524.335938 L274.794644,525.493164 Z M280.333465,535 C280.253841,534.843749 280.189148,534.565432 280.139383,534.165039 C279.497414,534.819339 278.731043,535.146484 277.840249,535.146484 C277.044008,535.146484 276.390852,534.925539 275.88076,534.483643 C275.370669,534.041746 275.115627,533.481449 275.115627,532.802734 C275.115627,531.977535 275.435362,531.336672 276.074843,530.880127 C276.714324,530.423582 277.613814,530.195312 278.773339,530.195312 L280.116988,530.195312 L280.116988,529.572754 C280.116988,529.099119 279.972672,528.721925 279.684035,528.441162 C279.395398,528.160399 278.969913,528.02002 278.407568,528.02002 C277.914894,528.02002 277.50185,528.142089 277.168424,528.38623 C276.834999,528.630372 276.668288,528.92578 276.668288,529.272461 L275.27985,529.272461 C275.27985,528.876951 275.422923,528.494875 275.709072,528.126221 C275.995221,527.757567 276.383382,527.465821 276.873568,527.250977 C277.363754,527.036132 277.902452,526.928711 278.48968,526.928711 C279.420286,526.928711 280.149333,527.15698 280.676842,527.613525 C281.204352,528.070071 281.478055,528.698726 281.497962,529.499512 L281.497962,533.146973 C281.497962,533.874515 281.592514,534.453123 281.781621,534.882812 L281.781621,535 L280.333465,535 Z M278.041797,533.967285 C278.474752,533.967285 278.885308,533.857423 279.273475,533.637695 C279.661643,533.417968 279.942811,533.132326 280.116988,532.780762 L280.116988,531.154785 L279.034604,531.154785 C277.342593,531.154785 276.4966,531.64062 276.4966,532.612305 C276.4966,533.037111 276.640916,533.369139 276.929553,533.608398 C277.218191,533.847657 277.588935,533.967285 278.041797,533.967285 Z M287.566778,528.291016 C287.357765,528.256836 287.131337,528.239746 286.887489,528.239746 C285.981765,528.239746 285.367176,528.61816 285.043703,529.375 L285.043703,535 L283.66273,535 L283.66273,527.075195 L285.006379,527.075195 L285.028774,527.990723 C285.481636,527.282711 286.123595,526.928711 286.954671,526.928711 C287.223402,526.928711 287.427436,526.96289 287.566778,527.03125 L287.566778,528.291016 Z M288.365503,530.97168 C288.365503,529.736322 288.656624,528.753666 289.238875,528.023682 C289.821126,527.293698 290.592473,526.928711 291.552938,526.928711 C292.538286,526.928711 293.307144,527.270504 293.859536,527.954102 L293.926719,527.075195 L295.188256,527.075195 L295.188256,534.80957 C295.188256,535.834966 294.878474,536.643063 294.258899,537.233887 C293.639324,537.82471 292.807016,538.120117 291.76195,538.120117 C291.179699,538.120117 290.609898,537.998048 290.05253,537.753906 C289.495161,537.509764 289.069676,537.175295 288.776063,536.750488 L289.492676,535.9375 C290.08488,536.655277 290.80895,537.01416 291.664909,537.01416 C292.336737,537.01416 292.860506,536.828615 293.236232,536.45752 C293.611958,536.086424 293.799819,535.563968 293.799819,534.890137 L293.799819,534.208984 C293.247427,534.833988 292.493498,535.146484 291.538009,535.146484 C290.592473,535.146484 289.827347,534.772953 289.242608,534.025879 C288.657868,533.278805 288.365503,532.260749 288.365503,530.97168 Z M289.753941,531.125488 C289.753941,532.019047 289.940557,532.720945 290.313795,533.231201 C290.687033,533.741458 291.209558,533.996582 291.881386,533.996582 C292.752274,533.996582 293.391745,533.608402 293.799819,532.832031 L293.799819,529.213867 C293.376816,528.457027 292.742321,528.078613 291.896315,528.078613 C291.224487,528.078613 290.699474,528.334958 290.321259,528.847656 C289.943045,529.360354 289.753941,530.119624 289.753941,531.125488 Z M300.622572,535.146484 C299.527741,535.146484 298.63696,534.793705 297.950202,534.088135 C297.263445,533.382565 296.920071,532.438971 296.920071,531.257324 L296.920071,531.008301 C296.920071,530.222164 297.073096,529.520267 297.379151,528.902588 C297.685206,528.284909 298.113179,527.801515 298.663083,527.452393 C299.212987,527.10327 299.808914,526.928711 300.450883,526.928711 C301.500926,526.928711 302.31706,527.268063 302.899311,527.946777 C303.481562,528.625492 303.772683,529.597162 303.772683,530.861816 L303.772683,531.425781 L298.301044,531.425781 C298.32095,532.207035 298.553598,532.838132 298.998995,533.319092 C299.444393,533.800051 300.010461,534.040527 300.697219,534.040527 C301.184916,534.040527 301.59796,533.942872 301.936362,533.747559 C302.274765,533.552245 302.570862,533.293459 302.824664,532.971191 L303.668177,533.615723 C302.991373,534.636236 301.976181,535.146484 300.622572,535.146484 Z M300.450883,528.041992 C299.893515,528.041992 299.42573,528.240965 299.047516,528.638916 C298.669302,529.036867 298.43541,529.594723 298.345832,530.3125 L302.39171,530.3125 L302.39171,530.209961 C302.351898,529.521481 302.162794,528.988039 301.824392,528.609619 C301.485989,528.231199 301.028158,528.041992 300.450883,528.041992 Z M307.243778,525.15625 L307.243778,527.075195 L308.751651,527.075195 L308.751651,528.122559 L307.243778,528.122559 L307.243778,533.037109 C307.243778,533.354494 307.310959,533.592529 307.445325,533.751221 C307.579691,533.909913 307.808606,533.989258 308.132079,533.989258 C308.291327,533.989258 308.51029,533.959961 308.788975,533.901367 L308.788975,535 C308.42569,535.097657 308.072363,535.146484 307.728984,535.146484 C307.111898,535.146484 306.646602,534.963381 306.333082,534.597168 C306.019562,534.230955 305.862805,533.710941 305.862805,533.037109 L305.862805,528.122559 L304.392255,528.122559 L304.392255,527.075195 L305.862805,527.075195 L305.862805,525.15625 L307.243778,525.15625 Z M322.359834,531.616211 C322.225468,532.744146 321.801228,533.614499 321.087099,534.227295 C320.372971,534.840091 319.423717,535.146484 318.239309,535.146484 C316.955371,535.146484 315.926494,534.694829 315.152648,533.791504 C314.378801,532.888179 313.991884,531.679695 313.991884,530.166016 L313.991884,529.140625 C313.991884,528.149409 314.172279,527.277836 314.533076,526.525879 C314.893872,525.773922 315.405201,525.196535 316.067076,524.793701 C316.728951,524.390867 317.495321,524.189453 318.366209,524.189453 C319.520758,524.189453 320.446374,524.505612 321.143085,525.137939 C321.839795,525.770267 322.245374,526.645502 322.359834,527.763672 L320.919143,527.763672 C320.79473,526.914058 320.524759,526.29883 320.109221,525.917969 C319.693683,525.537107 319.112685,525.34668 318.366209,525.34668 C317.450532,525.34668 316.732682,525.678708 316.212638,526.342773 C315.692593,527.006839 315.432575,527.951654 315.432575,529.177246 L315.432575,530.209961 C315.432575,531.367193 315.678908,532.287594 316.171582,532.971191 C316.664256,533.654789 317.353491,533.996582 318.239309,533.996582 C319.03555,533.996582 319.646406,533.819582 320.071897,533.465576 C320.497389,533.11157 320.779801,532.495122 320.919143,531.616211 L322.359834,531.616211 Z M323.733342,530.964355 C323.733342,530.187984 323.888856,529.489749 324.199887,528.869629 C324.510919,528.249509 324.943868,527.770998 325.498748,527.434082 C326.053628,527.097166 326.686879,526.928711 327.398519,526.928711 C328.498327,526.928711 329.387863,527.302242 330.067156,528.049316 C330.746449,528.79639 331.08609,529.790033 331.08609,531.030273 L331.08609,531.125488 C331.08609,531.896977 330.935553,532.589108 330.634475,533.201904 C330.333396,533.8147 329.902935,534.29199 329.343079,534.633789 C328.783222,534.975588 328.140018,535.146484 327.413449,535.146484 C326.318618,535.146484 325.431569,534.772953 324.752276,534.025879 C324.072983,533.278805 323.733342,532.290045 323.733342,531.05957 L323.733342,530.964355 Z M325.12178,531.125488 C325.12178,532.004399 325.329546,532.709958 325.745084,533.242188 C326.160622,533.774417 326.716738,534.040527 327.413449,534.040527 C328.115136,534.040527 328.672496,533.770755 329.085546,533.231201 C329.498596,532.691648 329.705117,531.93604 329.705117,530.964355 C329.705117,530.09521 329.494863,529.390872 329.074349,528.851318 C328.653834,528.311765 328.09523,528.041992 327.398519,528.041992 C326.716738,528.041992 326.166843,528.308103 325.748816,528.840332 C325.33079,529.372561 325.12178,530.134272 325.12178,531.125488 Z M334.124231,527.075195 L334.169019,528.071289 C334.786106,527.309567 335.592288,526.928711 336.587588,526.928711 C338.294529,526.928711 339.155452,527.873526 339.170381,529.763184 L339.170381,535 L337.789408,535 L337.789408,529.755859 C337.784432,529.184567 337.651312,528.762208 337.390046,528.48877 C337.128779,528.215331 336.721956,528.078613 336.169564,528.078613 C335.721679,528.078613 335.328541,528.1958 334.990139,528.430176 C334.651736,528.664552 334.387985,528.972166 334.198878,529.353027 L334.198878,535 L332.817905,535 L332.817905,527.075195 L334.124231,527.075195 Z M341.71585,535 L341.71585,528.122559 L340.439383,528.122559 L340.439383,527.075195 L341.71585,527.075195 L341.71585,526.401367 C341.71585,525.517574 341.973381,524.829104 342.488449,524.335938 C343.003517,523.842771 343.73132,523.596191 344.671879,523.596191 C345.229248,523.596191 345.933412,523.745116 346.784395,524.042969 L346.552988,525.185547 C345.930925,524.941405 345.33873,524.819336 344.776385,524.819336 C344.184181,524.819336 343.757452,524.94995 343.496186,525.211182 C343.234919,525.472413 343.104288,525.864255 343.104288,526.386719 L343.104288,527.075195 L344.753991,527.075195 L344.753991,528.122559 L343.104288,528.122559 L343.104288,535 L341.71585,535 Z M347.471149,535 L346.082711,535 L346.082711,527.075195 L347.471149,527.075195 L347.471149,535 Z M353.622077,528.291016 C353.413064,528.256836 353.186637,528.239746 352.942788,528.239746 C352.037064,528.239746 351.422475,528.61816 351.099002,529.375 L351.099002,535 L349.718029,535 L349.718029,527.075195 L351.061679,527.075195 L351.084073,527.990723 C351.536935,527.282711 352.178894,526.928711 353.00997,526.928711 C353.278702,526.928711 353.482735,526.96289 353.622077,527.03125 L353.622077,528.291016 Z M356.189941,527.075195 L356.227264,527.954102 C356.819468,527.270504 357.618185,526.928711 358.623439,526.928711 C359.753106,526.928711 360.521964,527.353511 360.930037,528.203125 C361.198769,527.822264 361.548363,527.51465 361.97883,527.280273 C362.409298,527.045897 362.918138,526.928711 363.505365,526.928711 C365.277001,526.928711 366.177735,527.849112 366.207594,529.689941 L366.207594,535 L364.826621,535 L364.826621,529.770508 C364.826621,529.204099 364.694745,528.780519 364.430991,528.499756 C364.167236,528.218993 363.724334,528.078613 363.102271,528.078613 C362.589691,528.078613 362.164206,528.228758 361.825804,528.529053 C361.487401,528.829347 361.290832,529.233396 361.236091,529.741211 L361.236091,535 L359.847653,535 L359.847653,529.807129 C359.847653,528.654779 359.272875,528.078613 358.123303,528.078613 C357.217579,528.078613 356.598014,528.457027 356.264588,529.213867 L356.264588,535 L354.883615,535 L354.883615,527.075195 L356.189941,527.075195 Z M373.276683,535 C373.197059,534.843749 373.132365,534.565432 373.0826,534.165039 C372.440631,534.819339 371.674261,535.146484 370.783467,535.146484 C369.987226,535.146484 369.33407,534.925539 368.823978,534.483643 C368.313886,534.041746 368.058844,533.481449 368.058844,532.802734 C368.058844,531.977535 368.37858,531.336672 369.018061,530.880127 C369.657541,530.423582 370.557031,530.195312 371.716556,530.195312 L373.060206,530.195312 L373.060206,529.572754 C373.060206,529.099119 372.915889,528.721925 372.627252,528.441162 C372.338615,528.160399 371.91313,528.02002 371.350785,528.02002 C370.858111,528.02002 370.445068,528.142089 370.111642,528.38623 C369.778216,528.630372 369.611506,528.92578 369.611506,529.272461 L368.223068,529.272461 C368.223068,528.876951 368.36614,528.494875 368.652289,528.126221 C368.938438,527.757567 369.3266,527.465821 369.816785,527.250977 C370.306971,527.036132 370.84567,526.928711 371.432897,526.928711 C372.363503,526.928711 373.09255,527.15698 373.62006,527.613525 C374.147569,528.070071 374.421273,528.698726 374.441179,529.499512 L374.441179,533.146973 C374.441179,533.874515 374.535731,534.453123 374.724838,534.882812 L374.724838,535 L373.276683,535 Z M370.985014,533.967285 C371.41797,533.967285 371.828525,533.857423 372.216693,533.637695 C372.60486,533.417968 372.886028,533.132326 373.060206,532.780762 L373.060206,531.154785 L371.977822,531.154785 C370.28581,531.154785 369.439817,531.64062 369.439817,532.612305 C369.439817,533.037111 369.584134,533.369139 369.872771,533.608398 C370.161408,533.847657 370.532152,533.967285 370.985014,533.967285 Z M378.479592,525.15625 L378.479592,527.075195 L379.987465,527.075195 L379.987465,528.122559 L378.479592,528.122559 L378.479592,533.037109 C378.479592,533.354494 378.546774,533.592529 378.681139,533.751221 C378.815505,533.909913 379.044421,533.989258 379.367894,533.989258 C379.527142,533.989258 379.746105,533.959961 380.024789,533.901367 L380.024789,535 C379.661504,535.097657 379.308178,535.146484 378.964799,535.146484 C378.347712,535.146484 377.882416,534.963381 377.568896,534.597168 C377.255376,534.230955 377.098619,533.710941 377.098619,533.037109 L377.098619,528.122559 L375.628069,528.122559 L375.628069,527.075195 L377.098619,527.075195 L377.098619,525.15625 L378.479592,525.15625 Z M383.100253,535 L381.71928,535 L381.71928,527.075195 L383.100253,527.075195 L383.100253,535 Z M381.607309,524.973145 C381.607309,524.753417 381.675735,524.567872 381.812589,524.416504 C381.949443,524.265136 382.152232,524.189453 382.420964,524.189453 C382.689695,524.189453 382.893728,524.265136 383.033071,524.416504 C383.172413,524.567872 383.242083,524.753417 383.242083,524.973145 C383.242083,525.192872 383.172413,525.375976 383.033071,525.522461 C382.893728,525.668946 382.689695,525.742188 382.420964,525.742188 C382.152232,525.742188 381.949443,525.668946 381.812589,525.522461 C381.675735,525.375976 381.607309,525.192872 381.607309,524.973145 Z M384.944039,530.964355 C384.944039,530.187984 385.099552,529.489749 385.410584,528.869629 C385.721615,528.249509 386.154565,527.770998 386.709445,527.434082 C387.264325,527.097166 387.897576,526.928711 388.609216,526.928711 C389.709023,526.928711 390.59856,527.302242 391.277853,528.049316 C391.957146,528.79639 392.296787,529.790033 392.296787,531.030273 L392.296787,531.125488 C392.296787,531.896977 392.14625,532.589108 391.845172,533.201904 C391.544093,533.8147 391.113632,534.29199 390.553775,534.633789 C389.993918,534.975588 389.350715,535.146484 388.624145,535.146484 C387.529314,535.146484 386.642266,534.772953 385.962973,534.025879 C385.28368,533.278805 384.944039,532.290045 384.944039,531.05957 L384.944039,530.964355 Z M386.332476,531.125488 C386.332476,532.004399 386.540242,532.709958 386.95578,533.242188 C387.371319,533.774417 387.927435,534.040527 388.624145,534.040527 C389.325832,534.040527 389.883192,533.770755 390.296242,533.231201 C390.709292,532.691648 390.915814,531.93604 390.915814,530.964355 C390.915814,530.09521 390.70556,529.390872 390.285045,528.851318 C389.864531,528.311765 389.305926,528.041992 388.609216,528.041992 C387.927435,528.041992 387.377539,528.308103 386.959513,528.840332 C386.541486,529.372561 386.332476,530.134272 386.332476,531.125488 Z M395.334928,527.075195 L395.379716,528.071289 C395.996803,527.309567 396.802984,526.928711 397.798285,526.928711 C399.505226,526.928711 400.366148,527.873526 400.381078,529.763184 L400.381078,535 L399.000105,535 L399.000105,529.755859 C398.995128,529.184567 398.862009,528.762208 398.600742,528.48877 C398.339476,528.215331 397.932653,528.078613 397.380261,528.078613 C396.932375,528.078613 396.539237,528.1958 396.200835,528.430176 C395.862433,528.664552 395.598682,528.972166 395.409575,529.353027 L395.409575,535 L394.028602,535 L394.028602,527.075195 L395.334928,527.075195 Z M406.464824,535 L406.464824,524.335938 L410.01803,524.335938 C411.197462,524.335938 412.08451,524.575193 412.679202,525.053711 C413.273895,525.532229 413.571236,526.24023 413.571236,527.177734 C413.571236,527.675784 413.42692,528.116453 413.138283,528.499756 C412.849645,528.883059 412.456508,529.179686 411.958857,529.389648 C412.546085,529.550782 413.010137,529.857175 413.351027,530.308838 C413.691918,530.7605 413.86236,531.298825 413.86236,531.923828 C413.86236,532.880864 413.546357,533.63281 412.914341,534.179688 C412.282325,534.726565 411.389056,535 410.234507,535 L406.464824,535 Z M407.89805,530.012207 L407.89805,533.850098 L410.264366,533.850098 C410.931217,533.850098 411.457475,533.680422 411.843154,533.341064 C412.228833,533.001707 412.42167,532.534183 412.42167,531.938477 C412.42167,530.65429 411.71004,530.012207 410.28676,530.012207 L407.89805,530.012207 Z M407.89805,528.884277 L410.062818,528.884277 C410.689858,528.884277 411.191233,528.73047 411.566959,528.422852 C411.942685,528.115233 412.130546,527.697757 412.130546,527.17041 C412.130546,526.58447 411.956371,526.158449 411.608015,525.892334 C411.25966,525.626219 410.72967,525.493164 410.01803,525.493164 L407.89805,525.493164 L407.89805,528.884277 Z M417.266272,535 L415.885299,535 L415.885299,523.75 L417.266272,523.75 L417.266272,535 Z M419.110058,530.964355 C419.110058,530.187984 419.265571,529.489749 419.576603,528.869629 C419.887634,528.249509 420.320584,527.770998 420.875464,527.434082 C421.430344,527.097166 422.063595,526.928711 422.775235,526.928711 C423.875043,526.928711 424.764579,527.302242 425.443872,528.049316 C426.123165,528.79639 426.462806,529.790033 426.462806,531.030273 L426.462806,531.125488 C426.462806,531.896977 426.312269,532.589108 426.011191,533.201904 C425.710112,533.8147 425.279651,534.29199 424.719794,534.633789 C424.159938,534.975588 423.516734,535.146484 422.790165,535.146484 C421.695334,535.146484 420.808285,534.772953 420.128992,534.025879 C419.449699,533.278805 419.110058,532.290045 419.110058,531.05957 L419.110058,530.964355 Z M420.498496,531.125488 C420.498496,532.004399 420.706262,532.709958 421.1218,533.242188 C421.537338,533.774417 422.093454,534.040527 422.790165,534.040527 C423.491852,534.040527 424.049212,533.770755 424.462262,533.231201 C424.875311,532.691648 425.081833,531.93604 425.081833,530.964355 C425.081833,530.09521 424.871579,529.390872 424.451065,528.851318 C424.03055,528.311765 423.471946,528.041992 422.775235,528.041992 C422.093454,528.041992 421.543559,528.308103 421.125532,528.840332 C420.707506,529.372561 420.498496,530.134272 420.498496,531.125488 Z M431.434309,534.040527 C431.926983,534.040527 432.357444,533.894044 432.725706,533.601074 C433.093967,533.308104 433.298001,532.941897 433.337813,532.502441 L434.644138,532.502441 C434.619256,532.956545 434.46001,533.38867 434.166396,533.798828 C433.872783,534.208986 433.480889,534.536132 432.990703,534.780273 C432.500517,535.024415 431.981725,535.146484 431.434309,535.146484 C430.334502,535.146484 429.459894,534.786381 428.81046,534.066162 C428.161027,533.345944 427.836315,532.360846 427.836315,531.11084 L427.836315,530.883789 C427.836315,530.112301 427.980631,529.426273 428.269268,528.825684 C428.557906,528.225095 428.972193,527.758791 429.512144,527.426758 C430.052095,527.094725 430.690322,526.928711 431.426844,526.928711 C432.332568,526.928711 433.085253,527.194822 433.684922,527.727051 C434.284591,528.25928 434.604326,528.950191 434.644138,529.799805 L433.337813,529.799805 C433.298001,529.287107 433.100187,528.865968 432.744367,528.536377 C432.388547,528.206785 431.949377,528.041992 431.426844,528.041992 C430.725157,528.041992 430.181482,528.289792 429.795803,528.7854 C429.410124,529.281008 429.217288,529.997554 429.217288,530.935059 L429.217288,531.191406 C429.217288,532.104497 429.40888,532.807615 429.792071,533.300781 C430.175262,533.793948 430.722669,534.040527 431.434309,534.040527 Z M438.451145,531.330566 L437.585238,532.216797 L437.585238,535 L436.204265,535 L436.204265,523.75 L437.585238,523.75 L437.585238,530.554199 L438.324245,529.682617 L440.839855,527.075195 L442.519417,527.075195 L439.37677,530.385742 L442.885188,535 L441.265344,535 L438.451145,531.330566 Z M448.647951,532.897949 C448.647951,532.531736 448.507367,532.247315 448.226195,532.044678 C447.945022,531.84204 447.454844,531.667481 446.755645,531.520996 C446.056446,531.374511 445.501574,531.198731 445.091013,530.993652 C444.680451,530.788573 444.376889,530.544435 444.180317,530.26123 C443.983745,529.978026 443.885461,529.641115 443.885461,529.250488 C443.885461,528.601071 444.165385,528.05176 444.725242,527.602539 C445.285098,527.153318 446.00046,526.928711 446.871348,526.928711 C447.787025,526.928711 448.529757,527.160642 449.099567,527.624512 C449.669377,528.088381 449.954277,528.681637 449.954277,529.404297 L448.56584,529.404297 C448.56584,529.033201 448.40535,528.71338 448.084365,528.444824 C447.763381,528.176268 447.359046,528.041992 446.871348,528.041992 C446.368721,528.041992 445.975583,528.149413 445.691923,528.364258 C445.408262,528.579103 445.266434,528.859862 445.266434,529.206543 C445.266434,529.533693 445.398309,529.780273 445.662064,529.946289 C445.925819,530.112306 446.402312,530.270995 447.091558,530.422363 C447.780803,530.573731 448.339408,530.754393 448.767387,530.964355 C449.195366,531.174317 449.512614,531.427 449.719139,531.722412 C449.925664,532.017824 450.028924,532.377928 450.028924,532.802734 C450.028924,533.510746 449.740292,534.078367 449.163017,534.505615 C448.585743,534.932863 447.83679,535.146484 446.916137,535.146484 C446.269191,535.146484 445.696902,535.034181 445.199251,534.80957 C444.701601,534.58496 444.312195,534.271242 444.031023,533.868408 C443.74985,533.465574 443.609266,533.029787 443.609266,532.561035 L444.990239,532.561035 C445.015122,533.015139 445.200494,533.375243 445.546361,533.641357 C445.892228,533.907472 446.348815,534.040527 446.916137,534.040527 C447.43867,534.040527 447.857934,533.936769 448.173942,533.729248 C448.48995,533.521727 448.647951,533.244631 448.647951,532.897949 Z" id="TargetConfrmationBlocks" fill="#444444" fill-rule="nonzero"></path>
        <rect id="Rectangle" stroke="#979797" fill="#D8D8D8" x="266.523599" y="545.5" width="255" height="1"></rect>
        <path d="M505.637138,529.000019 L513.831981,529.000019 C514.398925,529.000019 514.682366,529.671892 514.281076,530.065629 L510.185225,534.087501 C509.936806,534.331244 509.532313,534.331244 509.283894,534.087501 L505.188075,530.065629 C504.786754,529.671892 505.070226,529.000019 505.637138,529.000019 Z" id="c" fill="#5F5F5F" fill-rule="nonzero"></path>
        <text id="Amount" opacity="0" font-family="Roboto-Regular, Roboto" font-size="12" font-weight="normal" fill="#5E4EA5">
            <tspan x="266.023599" y="510">Amount</tspan>
        </text>
        <g id="Group-11" transform="translate(265.023599, 523.000000)">
            <g id="Group-9" transform="translate(0.976401, 0.000000)"></g>
        </g>
    </g>
</svg>