<?xml version="1.0" encoding="UTF-8"?>
<svg width="1284px" height="771px" viewBox="0 0 1284 771" version="1.1" xmlns="http://www.w3.org/2000/svg" xmlns:xlink="http://www.w3.org/1999/xlink">
    <!-- Generator: Sketch 63.1 (92452) - https://sketch.com -->
    <title>0.0_Onboarding_Step2</title>
    <desc>Created with Sketch.</desc>
    <defs>
        <rect id="path-1" x="0" y="0" width="218" height="680"></rect>
        <filter x="-6.7%" y="-1.8%" width="113.3%" height="104.3%" filterUnits="objectBoundingBox" id="filter-2">
            <feOffset dx="0" dy="2" in="SourceAlpha" result="shadowOffsetOuter1"></feOffset>
            <feGaussianBlur stdDeviation="4.5" in="shadowOffsetOuter1" result="shadowBlurOuter1"></feGaussianBlur>
            <feColorMatrix values="0 0 0 0 0.508718297   0 0 0 0 0.508320861   0 0 0 0 0.508320861  0 0 0 0.5 0" type="matrix" in="shadowBlurOuter1"></feColorMatrix>
        </filter>
        <rect id="path-3" x="0" y="0" width="1284" height="53"></rect>
        <filter x="-0.8%" y="-15.1%" width="101.6%" height="137.7%" filterUnits="objectBoundingBox" id="filter-4">
            <feOffset dx="0" dy="2" in="SourceAlpha" result="shadowOffsetOuter1"></feOffset>
            <feGaussianBlur stdDeviation="3" in="shadowOffsetOuter1" result="shadowBlurOuter1"></feGaussianBlur>
            <feColorMatrix values="0 0 0 0 0   0 0 0 0 0   0 0 0 0 0  0 0 0 0.5 0" type="matrix" in="shadowBlurOuter1"></feColorMatrix>
        </filter>
        <rect id="path-5" x="0" y="0" width="455" height="521" rx="4"></rect>
        <filter x="-6.2%" y="-5.0%" width="112.3%" height="110.7%" filterUnits="objectBoundingBox" id="filter-6">
            <feOffset dx="0" dy="2" in="SourceAlpha" result="shadowOffsetOuter1"></feOffset>
            <feGaussianBlur stdDeviation="9" in="shadowOffsetOuter1" result="shadowBlurOuter1"></feGaussianBlur>
            <feColorMatrix values="0 0 0 0 0   0 0 0 0 0   0 0 0 0 0  0 0 0 0.191105769 0" type="matrix" in="shadowBlurOuter1"></feColorMatrix>
        </filter>
    </defs>
    <g id="0.0_Onboarding_Step2" stroke="none" stroke-width="1" fill="none" fill-rule="evenodd">
        <rect fill="#131415" x="0" y="0" width="1284" height="771"></rect>
        <rect id="Background" fill="#F2F5F6" x="0" y="38" width="1284" height="733"></rect>
        <g id="Group-13" transform="translate(0.000000, 91.000000)">
            <g id="Rectangle">
                <use fill="black" fill-opacity="1" filter="url(#filter-2)" xlink:href="#path-1"></use>
                <use fill="#FFFFFF" fill-rule="evenodd" xlink:href="#path-1"></use>
            </g>
            <g id="Group-7" transform="translate(1.000000, 23.000000)">
                <rect id="Rectangle" fill="#D8D8D8" opacity="0" x="0" y="34" width="218" height="48"></rect>
                <rect id="Rectangle" fill="#D8D8D8" opacity="0" x="0" y="80" width="218" height="48"></rect>
                <text id="On-chain" font-family="Roboto-Regular, Roboto" font-size="14" font-weight="normal" fill="#474747">
                    <tspan x="70" y="63">On-chain</tspan>
                </text>
                <g id="Group-2" transform="translate(0.000000, 126.000000)">
                    <g id="Group-10" transform="translate(0.000000, 48.000000)">
                        <rect id="Rectangle" fill="#D8D8D8" opacity="0" x="0" y="0" width="218" height="48"></rect>
                        <text id="On-chain" font-family="Roboto-Regular, Roboto" font-size="14" font-weight="normal" fill="#4A4A4A">
                            <tspan x="70" y="29">Settings</tspan>
                        </text>
                        <text id="cog" font-family="FontAwesome5Pro-Solid, Font Awesome 5 Pro" font-size="14" font-weight="700" fill="#858585">
                            <tspan x="25" y="28">cog</tspan>
                        </text>
                    </g>
                    <g id="Group-9" transform="translate(0.000000, 97.000000)">
                        <rect id="Rectangle" fill="#D8D8D8" opacity="0" x="0" y="0" width="218" height="48"></rect>
                        <text id="On-chain" font-family="Roboto-Regular, Roboto" font-size="14" font-weight="normal" fill="#4A4A4A">
                            <tspan x="70" y="29">Help</tspan>
                        </text>
                        <text id="life-ring" font-family="FontAwesome5Pro-Solid, Font Awesome 5 Pro" font-size="14" font-weight="700" fill="#858585">
                            <tspan x="25" y="27">life-ring</tspan>
                        </text>
                    </g>
                    <g id="Group-6" transform="translate(0.000000, 143.000000)">
                        <g id="Group-30" transform="translate(0.000000, 7.000000)">
                            <g id="Group-3">
                                <rect id="Rectangle" fill="#D8D8D8" opacity="0" x="0" y="0" width="218" height="48"></rect>
                                <text id="On-chain" font-family="Roboto-Regular, Roboto" font-size="14" font-weight="normal" fill="#4A4A4A">
                                    <tspan x="70" y="29">Public Key</tspan>
                                </text>
                            </g>
                            <text id="eye" font-family="FontAwesome5Pro-Solid, Font Awesome 5 Pro" font-size="14" font-weight="700" fill="#858585">
                                <tspan x="24" y="27">eye</tspan>
                            </text>
                        </g>
                        <line x1="0.5" y1="0.5" x2="218.5" y2="0.5" id="Line-3" stroke="#E6E6E6" stroke-linecap="square"></line>
                    </g>
                    <g id="Group-8">
                        <rect id="Rectangle" fill="#D8D8D8" opacity="0" x="0" y="0" width="218" height="48"></rect>
                        <text id="On-chain" font-family="Roboto-Regular, Roboto" font-size="14" font-weight="normal" fill="#4A4A4A">
                            <tspan x="70" y="29">Network</tspan>
                        </text>
                        <text id="project-diagram" font-family="FontAwesome5Pro-Solid, Font Awesome 5 Pro" font-size="14" font-weight="700" fill="#858585">
                            <tspan x="25" y="28">project-diagram</tspan>
                        </text>
                    </g>
                </g>
                <g id="Group-12" transform="translate(28.000000, 98.000000)" font-size="14">
                    <text id="On-chain-Copy" font-family="Roboto-Regular, Roboto" font-weight="normal" fill="#474747">
                        <tspan x="42" y="13">Lightning</tspan>
                    </text>
                    <text id="bolt" font-family="FontAwesome5Pro-Solid, Font Awesome 5 Pro" font-weight="700" fill="#858585">
                        <tspan x="0" y="12">bolt</tspan>
                    </text>
                </g>
                <text id="Dashboard" font-family="Roboto-Regular, Roboto" font-size="14" font-weight="normal" fill="#4A4A4A">
                    <tspan x="70" y="13">Dashboard</tspan>
                </text>
                <text id="tachometer-alt-fast" font-family="FontAwesome5Pro-Solid, Font Awesome 5 Pro" font-size="14" font-weight="700" fill="#858585">
                    <tspan x="24" y="12">tachometer-alt-fast</tspan>
                </text>
                <text id="link" font-family="FontAwesome5Pro-Solid, Font Awesome 5 Pro" font-size="14" font-weight="700" fill="#858585">
                    <tspan x="25" y="61">link</tspan>
                </text>
                <text id="bolt" font-family="FontAwesome5Pro-Solid, Font Awesome 5 Pro" font-size="14" font-weight="700" fill="#858585">
                    <tspan x="28" y="110">bolt</tspan>
                </text>
            </g>
        </g>
        <g id="Browser">
            <path d="M0,6.00024414 C0,2.68640081 2.6794487,0 5.99234946,0 L1278.00765,0 C1281.31713,0 1284,2.68722626 1284,6.00024414 L1284,38 L0,38 L0,6.00024414 Z" id="Tab-BG---Right" fill="#363738"></path>
            <circle id="Dot---Red" fill="#FF5F57" cx="18" cy="19" r="6"></circle>
            <circle id="Dot---Orange" fill="#FFBF2F" cx="38" cy="19" r="6"></circle>
            <circle id="Dot---Green" fill="#28CA42" cx="58" cy="19" r="6"></circle>
            <g id="Back" transform="translate(76.000000, 7.000000)">
                <rect id="Rectangle" fill="#656668" x="0" y="0" width="28" height="24" rx="4"></rect>
                <path d="M10.1607883,11.3246277 L15.780455,5.65901618 C15.9603839,5.47908726 16.2513057,5.47908726 16.4312347,5.65901618 L17.1891941,6.41697565 C17.3691231,6.59690457 17.3691231,6.88782642 17.1891941,7.06775535 L12.6528768,11.6500175 L17.1891941,16.2322797 C17.3691231,16.4122086 17.3691231,16.7031305 17.1891941,16.8830594 L16.4312347,17.6410189 C16.2513057,17.8209478 15.9603839,17.8209478 15.780455,17.6410189 L10.1607883,11.9754074 C9.98085942,11.7954785 9.98085942,11.5045566 10.1607883,11.3246277 Z" id="a" fill="#FFFFFF" fill-rule="nonzero"></path>
            </g>
            <g id="Forward" transform="translate(105.000000, 7.000000)">
                <rect id="Rectangle" fill="#656668" x="0" y="0" width="28" height="24" rx="4"></rect>
                <path d="M18.1891941,11.9754074 L12.5695275,17.6410189 C12.3895986,17.8209478 12.0986767,17.8209478 11.9187478,17.6410189 L11.1607883,16.8830594 C10.9808594,16.7031305 10.9808594,16.4122086 11.1607883,16.2322797 L15.6971057,11.6500175 L11.1607883,7.06775535 C10.9808594,6.88782642 10.9808594,6.59690457 11.1607883,6.41697565 L11.9187478,5.65901618 C12.0986767,5.47908726 12.3895986,5.47908726 12.5695275,5.65901618 L18.1891941,11.3246277 C18.3691231,11.5045566 18.3691231,11.7954785 18.1891941,11.9754074 Z" id="a" fill="#FFFFFF" fill-rule="nonzero" opacity="0.200334821"></path>
            </g>
            <g id="New-Tab" transform="translate(1260.000000, 14.000000)">
                <rect id="Rectangle" fill="#292A2B" x="0" y="0" width="24" height="24"></rect>
                <path d="M16.2531029,11.6843877 C16.3618742,11.6843877 16.4499775,11.7724909 16.4499775,11.8812622 L16.4499775,12.6687603 C16.4499775,12.7775316 16.3618742,12.8656349 16.2531029,12.8656349 L12.3156123,12.8656349 L12.3156123,16.8031255 C12.3156123,16.9118967 12.2275091,17 12.1187378,17 L11.3312397,17 C11.2224684,17 11.1343651,16.9118967 11.1343651,16.8031255 L11.1343651,12.8656349 L7.19687453,12.8656349 C7.08810328,12.8656349 7,12.7775316 7,12.6687603 L7,11.8812622 C7,11.7724909 7.08810328,11.6843877 7.19687453,11.6843877 L11.1343651,11.6843877 L11.1343651,7.74689706 C11.1343651,7.63812581 11.2224684,7.55002253 11.3312397,7.55002253 L12.1187378,7.55002253 C12.2275091,7.55002253 12.3156123,7.63812581 12.3156123,7.74689706 L12.3156123,11.6843877 L16.2531029,11.6843877 Z" id="p" fill="#FFFFFF" fill-rule="nonzero" opacity="0.497907366"></path>
            </g>
            <g id="URL" transform="translate(378.000000, 7.000000)">
                <path d="M0,3.99005301 C0,1.78640758 1.78094395,5.31029755e-14 3.99753941,5.28693238e-14 L516.002461,-1.1012102e-15 C518.210241,-1.33393271e-15 520,1.78429328 520,3.99005301 L520,20.009947 C520,22.2135924 518.219056,24 516.002461,24 L3.99753941,24 C1.78975936,24 0,22.2157067 0,20.009947 L0,3.99005301 Z" id="URL-Bar" fill="#696A6B"></path>
                <path d="M512.304658,5.17186422 C512.467743,5.17186422 512.59997,5.30412783 512.59997,5.46721261 L512.59997,10.1922013 C512.59997,10.3552861 512.467743,10.4875131 512.304658,10.4875131 L507.579669,10.4875131 C507.416585,10.4875131 507.284358,10.3552861 507.284358,10.1922013 L507.284358,9.51027815 C507.284358,9.34440559 507.42091,9.21109712 507.586711,9.21503845 L510.69705,9.2890827 C509.940722,7.61516854 508.257531,6.45158527 506.299985,6.45158527 C503.633864,6.45158527 501.476559,8.60927437 501.476559,11.2750113 C501.476559,13.9411327 503.634248,16.0984373 506.299985,16.0984373 C507.533046,16.0984373 508.65724,15.6369165 509.509554,14.8770557 C509.6264,14.7728747 509.804938,14.7799403 509.915632,14.8906341 L510.401377,15.3763797 C510.521276,15.4962781 510.51534,15.6917347 510.389505,15.8053845 C509.307296,16.7829079 507.873155,17.3781217 506.299985,17.3781217 C502.93257,17.3781217 500.202138,14.6509336 500.19686,11.2847685 C500.191635,7.92836054 502.924087,5.18242707 506.280471,5.17186422 C508.411171,5.16526784 510.288545,6.2506252 511.385221,7.89993005 L511.327471,5.47425415 C511.32353,5.30842965 511.456862,5.17186422 511.622711,5.17186422 L512.304658,5.17186422 Z" id="r" fill="#FFFFFF" fill-rule="nonzero" transform="translate(506.398415, 11.274993) rotate(-45.000000) translate(-506.398415, -11.274993) "></path>
                <text id="Ride-the-Lightning" font-family="Roboto-Regular, Roboto" font-size="12.6" font-weight="normal" fill="#FFFFFF">
                    <tspan x="210" y="17">Ride the Lightning</tspan>
                </text>
            </g>
        </g>
        <g id="Group-20" transform="translate(0.000000, 38.000000)">
            <g id="Rectangle-13">
                <use fill="black" fill-opacity="1" filter="url(#filter-4)" xlink:href="#path-3"></use>
                <use fill="#5E4EA5" fill-rule="evenodd" xlink:href="#path-3"></use>
            </g>
            <text id="Dashboard" font-family="FontAwesome5Pro-Regular, Font Awesome 5 Pro" font-size="18" font-weight="normal" fill="#FFFFFF">
                <tspan x="24" y="33">bars</tspan>
            </text>
            <text id="caret-down-copy" font-family="FontAwesome5Pro-Solid, Font Awesome 5 Pro" font-size="16" font-weight="700" fill="#FFFFFF">
                <tspan x="1256" y="32">caret-down</tspan>
            </text>
            <path d="M1240.89813,18.1212981 C1240.97355,18.5162463 1241.00376,18.8283095 1240.99963,19 C1240.70754,18.6091703 1240.26821,18.2769436 1240.02855,18.181703 C1239.87253,18.1195821 1240.38323,17.8444139 1240.89813,18.1212981 M1241.85028,28.2969635 C1241.98775,28.2673062 1242.12593,28.238967 1242.26423,28.2113468 C1242.40882,28.1824085 1242.55376,28.1546685 1242.69923,28.1284863 C1242.58257,28.0535942 1242.4655,27.9794211 1242.34767,27.9063863 C1240.85092,26.9784435 1239.25545,26.1905189 1237.67903,25.4279378 C1236.68413,24.9466514 1235.6709,24.4682408 1234.63914,24.0370422 C1235.53913,22.8274452 1236.69148,21.8008846 1237.92316,20.9215317 C1237.92422,20.9208128 1237.92922,20.9172779 1237.93698,20.9117059 C1238.20658,21.2865857 1238.54738,21.5416981 1238.71825,21.6375599 C1239.05229,21.8250897 1239.47301,22.0003371 1239.85979,22.0539 C1240.62043,22.1592881 1241.24847,22.1430515 1241.9433,22.0210074 C1242.00592,22.0100432 1242.06902,22.0022544 1242.13181,21.9915897 C1242.5774,21.9156791 1242.86252,21.9041757 1243.12353,21.8992029 C1243.46921,21.8926124 1243.64044,21.9672049 1243.68113,21.9779893 C1243.80461,22.0105225 1243.90957,22.0643848 1243.96789,22.1366407 C1244.03563,22.224594 1244.10801,22.3075744 1244.18557,22.3835449 C1244.41818,22.619425 1244.64915,22.7500368 1244.98425,22.7874828 C1245.41554,22.8356534 1245.72083,22.6637611 1245.93669,22.3783923 C1246.03865,22.2436465 1245.98955,22.0320315 1245.97838,21.9905113 C1245.92175,21.7782372 1245.79104,21.4694422 1245.69643,21.1819764 C1245.67191,21.1076835 1245.55308,20.8792926 1245.41008,20.724296 C1245.36286,20.6730099 1245.31535,20.6218436 1245.2679,20.5707372 C1245.04581,20.3313822 1244.82196,20.0938245 1244.60005,19.8546492 C1243.71459,18.9009435 1242.75468,18.0228488 1241.76508,17.1832787 C1241.66253,17.0962841 1241.55981,17.0090498 1241.45691,16.9219952 C1241.38229,16.8587863 1241.30738,16.7959369 1241.23259,16.7329676 C1241.19455,16.7009737 1241.15656,16.6690397 1241.1184,16.6371058 C1241.0379,16.569643 1240.95717,16.5026595 1240.87626,16.4357359 C1240.84433,16.4093739 1240.81229,16.3831917 1240.7803,16.3568896 C1240.72991,16.3155491 1240.6149,16.2168713 1240.51805,16.1378452 C1240.83904,15.8117951 1241.09806,15.6088076 1241.55781,15.3018699 C1241.62373,15.2578932 1241.97888,15.0648514 1241.96635,15.0158421 C1241.95882,14.9862447 1241.37571,14.992955 1240.70757,15.0806686 C1240.47284,15.1114643 1239.15719,15.309419 1238.25385,15.5100099 C1237.29224,15.7234823 1236.27683,16.0219123 1235.34156,16.3219 C1232.64001,17.1884912 1230.0604,18.3629188 1227.69818,19.9590188 C1226.34061,20.8762969 1225.06983,21.8885382 1223.84327,22.9791466 C1223.27168,23.4872744 1222.70355,24.0035504 1222.14884,24.5340859 C1222.06193,24.6171862 1221.97573,24.7010054 1221.88953,24.7848845 C1222.00766,24.807412 1222.12573,24.8309581 1222.24356,24.8556425 C1223.2204,25.060068 1224.18654,25.3332743 1225.12587,25.60684 C1226.2747,25.9413979 1227.43693,26.3020782 1228.56077,26.7448401 C1227.92038,27.3656056 1227.29564,28.001649 1226.70088,28.6747191 C1225.58092,29.941953 1224.53687,31.2807238 1223.56262,32.6670061 C1222.29313,34.4732832 1221.20939,36.421316 1220.26472,38.4288431 C1220.17522,38.6187694 1220.08679,38.8091151 1220,39 C1220.17475,38.8574654 1220.35056,38.716189 1220.52767,38.5761708 C1222.05705,37.3676523 1223.66957,36.2502026 1225.27957,35.1706183 C1227.54501,33.6515074 1229.97626,32.3964959 1232.49912,31.3866511 C1235.54071,30.1692055 1238.64687,28.9881275 1241.85028,28.2969635" id="Fill-1" fill="#FFFFFE"></path>
        </g>
        <g id="Group-11" transform="translate(242.000000, 114.000000)">
            <path d="M5.1277704,1.5 C3.48633153,1.5 2.88407891,1.65323445 2.28210802,1.97517201 C1.71867923,2.27649702 1.27649702,2.71867923 0.975172007,3.28210802 C0.653234454,3.88407891 0.5,4.48633153 0.5,6.1277704 L0.5,251.87223 C0.5,253.513668 0.653234454,254.115921 0.975172007,254.717892 C1.27649702,255.281321 1.71867923,255.723503 2.28210802,256.024828 C2.88407891,256.346766 3.48633153,256.5 5.1277704,256.5 L316.87223,256.5 C318.513668,256.5 319.115921,256.346766 319.717892,256.024828 C320.281321,255.723503 320.723503,255.281321 321.024828,254.717892 C321.346766,254.115921 321.5,253.513668 321.5,251.87223 L321.5,6.1277704 C321.5,4.48633153 321.346766,3.88407891 321.024828,3.28210802 C320.723503,2.71867923 320.281321,2.27649702 319.717892,1.97517201 C319.115921,1.65323445 318.513668,1.5 316.87223,1.5 L5.1277704,1.5 Z" id="Rectangle-Copy-5" stroke="#DEDEDE" fill="#FFFFFF"></path>
            <path d="M316.87223,281.5 L5.1277704,281.5 C3.48633153,281.5 2.88407891,281.653234 2.28210802,281.975172 C1.71867923,282.276497 1.27649702,282.718679 0.975172007,283.282108 C0.653234454,283.884079 0.5,284.486332 0.5,286.12777 L0.5,591.87223 C0.5,593.513668 0.653234454,594.115921 0.975172007,594.717892 C1.27649702,595.281321 1.71867923,595.723503 2.28210802,596.024828 C2.88407891,596.346766 3.48633153,596.5 5.1277704,596.5 L316.87223,596.5 C318.513668,596.5 319.115921,596.346766 319.717892,596.024828 C320.281321,595.723503 320.723503,595.281321 321.024828,594.717892 C321.346766,594.115921 321.5,593.513668 321.5,591.87223 L321.5,286.12777 C321.5,284.486332 321.346766,283.884079 321.024828,283.282108 C320.723503,282.718679 320.281321,282.276497 319.717892,281.975172 C319.115921,281.653234 318.513668,281.5 316.87223,281.5 Z" id="Rectangle-Copy-5" stroke="#DEDEDE" fill="#FFFFFF"></path>
            <path d="M661.87223,281.5 L350.12777,281.5 C348.486332,281.5 347.884079,281.653234 347.282108,281.975172 C346.718679,282.276497 346.276497,282.718679 345.975172,283.282108 C345.653234,283.884079 345.5,284.486332 345.5,286.12777 L345.5,591.87223 C345.5,593.513668 345.653234,594.115921 345.975172,594.717892 C346.276497,595.281321 346.718679,595.723503 347.282108,596.024828 C347.884079,596.346766 348.486332,596.5 350.12777,596.5 L661.87223,596.5 C663.513668,596.5 664.115921,596.346766 664.717892,596.024828 C665.281321,595.723503 665.723503,595.281321 666.024828,594.717892 C666.346766,594.115921 666.5,593.513668 666.5,591.87223 L666.5,286.12777 C666.5,284.486332 666.346766,283.884079 666.024828,283.282108 C665.723503,282.718679 665.281321,282.276497 664.717892,281.975172 C664.115921,281.653234 663.513668,281.5 661.87223,281.5 Z" id="Rectangle-Copy-5" stroke="#DEDEDE" fill="#FFFFFF"></path>
            <text id="Node-Information" font-family="Roboto-Regular, Roboto" font-size="16" font-weight="normal" fill="#84979E">
                <tspan x="46" y="40">Node Information</tspan>
            </text>
            <text id="info-circle" font-family="FontAwesome5Pro-Solid, Font Awesome 5 Pro" font-size="16" font-weight="700" fill="#84979E">
                <tspan x="24" y="41">info-circle</tspan>
            </text>
            <g id="Group-18" transform="translate(24.000000, 131.000000)">
                <text id="On-chain" font-family="Roboto-Medium, Roboto" font-size="12" font-weight="400" fill="#5E4EA5">
                    <tspan x="0" y="11">Implementation</tspan>
                </text>
                <text id="On-chain" font-family="Roboto-Regular, Roboto" font-size="16" font-weight="normal" fill="#CACACA">
                    <tspan x="0" y="35">—</tspan>
                </text>
            </g>
            <g id="Group-19" transform="translate(24.000000, 68.000000)">
                <text id="On-chain" font-family="Roboto-Medium, Roboto" font-size="12" font-weight="400" fill="#5E4EA5">
                    <tspan x="0" y="11">Alias</tspan>
                </text>
                <text id="On-chain" font-family="Roboto-Regular, Roboto" font-size="16" font-weight="normal" fill="#CACACA">
                    <tspan x="0" y="35">—</tspan>
                </text>
            </g>
            <g id="Group-19-Copy" transform="translate(24.000000, 194.000000)">
                <text id="On-chain" font-family="Roboto-Medium, Roboto" font-size="12" font-weight="400" fill="#5E4EA5">
                    <tspan x="0" y="11">Chain</tspan>
                </text>
                <text id="On-chain" font-family="Roboto-Regular, Roboto" font-size="16" font-weight="normal" fill="#CACACA">
                    <tspan x="0" y="35">—</tspan>
                </text>
            </g>
            <g id="Group-2" transform="translate(346.000000, 1.000000)">
                <path d="M316.87223,0.5 L5.1277704,0.5 C3.48633153,0.5 2.88407891,0.653234454 2.28210802,0.975172007 C1.71867923,1.27649702 1.27649702,1.71867923 0.975172007,2.28210802 C0.653234454,2.88407891 0.5,3.48633153 0.5,5.1277704 L0.5,250.87223 C0.5,252.513668 0.653234454,253.115921 0.975172007,253.717892 C1.27649702,254.281321 1.71867923,254.723503 2.28210802,255.024828 C2.88407891,255.346766 3.48633153,255.5 5.1277704,255.5 L316.87223,255.5 C318.513668,255.5 319.115921,255.346766 319.717892,255.024828 C320.281321,254.723503 320.723503,254.281321 321.024828,253.717892 C321.346766,253.115921 321.5,252.513668 321.5,250.87223 L321.5,5.1277704 C321.5,3.48633153 321.346766,2.88407891 321.024828,2.28210802 C320.723503,1.71867923 320.281321,1.27649702 319.717892,0.975172007 C319.115921,0.653234454 318.513668,0.5 316.87223,0.5 Z" id="Rectangle-Copy-5" stroke="#DEDEDE" fill="#FFFFFF"></path>
                <text id="Balances" font-family="Roboto-Regular, Roboto" font-size="16" font-weight="normal" fill="#84979E">
                    <tspan x="46" y="39">Balances</tspan>
                </text>
                <text id="chart-pie" font-family="FontAwesome5Pro-Solid, Font Awesome 5 Pro" font-size="16" font-weight="700" fill="#84979E">
                    <tspan x="24" y="40">chart-pie</tspan>
                </text>
                <g id="Group-18" transform="translate(24.000000, 131.000000)">
                    <text id="On-chain" font-family="Roboto-Medium, Roboto" font-size="12" font-weight="400" fill="#5E4EA5">
                        <tspan x="0" y="11">On-Chain</tspan>
                    </text>
                    <text id="On-chain" font-family="Roboto-Regular, Roboto" font-size="16" font-weight="normal" fill="#4A4A4A">
                        <tspan x="0" y="35">0 sats</tspan>
                    </text>
                </g>
                <g id="Group-19" transform="translate(24.000000, 66.000000)">
                    <text id="On-chain" font-family="Roboto-Medium, Roboto" font-size="12" font-weight="400" fill="#5E4EA5">
                        <tspan x="0" y="11">Lightning</tspan>
                    </text>
                    <text id="On-chain" font-family="Roboto-Regular, Roboto" font-size="16" font-weight="normal" fill="#4A4A4A">
                        <tspan x="0" y="35">0 sats</tspan>
                    </text>
                </g>
                <g id="Group-19" transform="translate(24.000000, 193.000000)">
                    <text id="On-chain" font-family="Roboto-Medium, Roboto" font-size="12" font-weight="400" fill="#5E4EA5">
                        <tspan x="0" y="11">Total</tspan>
                    </text>
                    <text id="On-chain" font-family="Roboto-Regular, Roboto" font-size="16" font-weight="normal" fill="#4A4A4A">
                        <tspan x="0" y="35">0 sats</tspan>
                    </text>
                </g>
                <rect id="Rectangle-Copy-7" fill="#AA9FDA" x="27" y="108" width="277" height="6" rx="3"></rect>
                <rect id="Rectangle-Copy-7" fill="#AA9FDA" x="27" y="108" width="277" height="6" rx="3"></rect>
                <rect id="Rectangle-Copy-7" fill="#AA9FDA" x="27" y="172" width="277" height="6" rx="3"></rect>
            </g>
            <path d="M1008.87223,0.5 L697.12777,0.5 C695.486332,0.5 694.884079,0.653234454 694.282108,0.975172007 C693.718679,1.27649702 693.276497,1.71867923 692.975172,2.28210802 C692.653234,2.88407891 692.5,3.48633153 692.5,5.1277704 L692.5,591.87223 C692.5,593.513668 692.653234,594.115921 692.975172,594.717892 C693.276497,595.281321 693.718679,595.723503 694.282108,596.024828 C694.884079,596.346766 695.486332,596.5 697.12777,596.5 L1008.87223,596.5 C1010.51367,596.5 1011.11592,596.346766 1011.71789,596.024828 C1012.28132,595.723503 1012.7235,595.281321 1013.02483,594.717892 C1013.34677,594.115921 1013.5,593.513668 1013.5,591.87223 L1013.5,5.1277704 C1013.5,3.48633153 1013.34677,2.88407891 1013.02483,2.28210802 C1012.7235,1.71867923 1012.28132,1.27649702 1011.71789,0.975172007 C1011.11592,0.653234454 1010.51367,0.5 1008.87223,0.5 Z" id="Rectangle-Copy-5" stroke="#DEDEDE" fill="#FFFFFF"></path>
            <g id="Group-5" transform="translate(716.000000, 61.000000)">
                <text id="Total-Capacity" font-family="Roboto-Regular, Roboto" font-size="16" font-weight="normal" fill="#222831">
                    <tspan x="1" y="15">Total Capacity</tspan>
                </text>
                <g id="Group-4" transform="translate(0.000000, 27.000000)">
                    <rect id="Rectangle-Copy-6" fill="#D8D8D8" x="3" y="18" width="277" height="6" rx="3"></rect>
                    <text id="Local:-0-sats" font-family="Roboto-Regular, Roboto" font-size="12" font-weight="normal" fill="#4B4B4B">
                        <tspan x="0" y="11">Local: 0 sats</tspan>
                    </text>
                    <text id="Remote:-0-sats" font-family="Roboto-Regular, Roboto" font-size="12" font-weight="normal" fill="#4B4B4B">
                        <tspan x="199.207031" y="11">Remote: 0 sats</tspan>
                    </text>
                </g>
            </g>
            <text id="Channels-Capacity" font-family="Roboto-Regular, Roboto" font-size="16" font-weight="normal" fill="#84979E">
                <tspan x="742" y="38">Channels Capacity</tspan>
            </text>
            <text id="chart-network" font-family="FontAwesome5Pro-Solid, Font Awesome 5 Pro" font-size="16" font-weight="700" fill="#84979E">
                <tspan x="716" y="39">chart-network</tspan>
            </text>
            <line x1="719.5" y1="136.5" x2="995.5" y2="136.5" id="Line" stroke="#EAEAEA" stroke-linecap="square"></line>
            <text id="Routing-Fee-Report" font-family="Roboto-Regular, Roboto" font-size="16" font-weight="normal" fill="#84979E">
                <tspan x="40" y="314">Routing Fee Report</tspan>
            </text>
            <text id="bolt" font-family="FontAwesome5Pro-Solid, Font Awesome 5 Pro" font-size="16" font-weight="700" fill="#84979E">
                <tspan x="24" y="316">bolt</tspan>
            </text>
            <text id="Channels" font-family="Roboto-Regular, Roboto" font-size="16" font-weight="normal" fill="#84979E">
                <tspan x="396" y="316">Channels</tspan>
            </text>
            <text id="chart-network" font-family="FontAwesome5Pro-Solid, Font Awesome 5 Pro" font-size="16" font-weight="700" fill="#84979E">
                <tspan x="370" y="317">chart-network</tspan>
            </text>
            <text id="On-chain" font-family="Roboto-Medium, Roboto" font-size="12" font-weight="400" fill="#5E4EA5">
                <tspan x="24" y="356">Daily</tspan>
            </text>
            <text id="On-chain" font-family="Roboto-Medium, Roboto" font-size="12" font-weight="400" fill="#5E4EA5">
                <tspan x="24" y="419">Weekly</tspan>
            </text>
            <text id="On-chain" font-family="Roboto-Medium, Roboto" font-size="12" font-weight="400" fill="#5E4EA5">
                <tspan x="24" y="482">Monthly</tspan>
            </text>
            <text id="On-chain" font-family="Roboto-Regular, Roboto" font-size="16" font-weight="normal" fill="#4A4A4A">
                <tspan x="25" y="380">0 sat</tspan>
            </text>
            <text id="On-chain" font-family="Roboto-Regular, Roboto" font-size="16" font-weight="normal" fill="#4A4A4A">
                <tspan x="25" y="443">0 sats</tspan>
            </text>
            <text id="On-chain" font-family="Roboto-Regular, Roboto" font-size="16" font-weight="normal" fill="#4A4A4A">
                <tspan x="25" y="506">0 sats</tspan>
            </text>
            <text id="On-chain" font-family="Roboto-Medium, Roboto" font-size="12" font-weight="400" fill="#5E4EA5">
                <tspan x="24" y="545">All Time</tspan>
            </text>
            <text id="On-chain" font-family="Roboto-Regular, Roboto" font-size="16" font-weight="normal" fill="#4A4A4A">
                <tspan x="25" y="569">0 sats</tspan>
            </text>
            <text id="On-chain" font-family="Roboto-Medium, Roboto" font-size="12" font-weight="400" fill="#5E4EA5">
                <tspan x="370" y="484">Inactive</tspan>
            </text>
            <text id="On-chain" font-family="Roboto-Medium, Roboto" font-size="12" font-weight="400" fill="#5E4EA5">
                <tspan x="370" y="547">Closing</tspan>
            </text>
            <text id="On-chain" font-family="Roboto-Medium, Roboto" font-size="12" font-weight="400" fill="#5E4EA5">
                <tspan x="369" y="421">Pending</tspan>
            </text>
            <circle id="Oval" fill="#28CA42" cx="372" cy="369" r="4"></circle>
            <text id="On-chain" font-family="Roboto-Medium, Roboto" font-size="12" font-weight="400" fill="#5E4EA5">
                <tspan x="369" y="351">Active</tspan>
            </text>
            <text id="On-chain" font-family="Roboto-Regular, Roboto" font-size="16" font-weight="normal" fill="#3B3B3B">
                <tspan x="381" y="375">0</tspan>
            </text>
            <text id="On-chain" font-family="Roboto-Medium, Roboto" font-size="12" font-weight="400" fill="#5E4EA5">
                <tspan x="435" y="351">Capacity</tspan>
            </text>
            <text id="On-chain" font-family="Roboto-Regular, Roboto" font-size="16" font-weight="normal" fill="#3B3B3B">
                <tspan x="435" y="375">0 sats</tspan>
            </text>
            <text id="On-chain" font-family="Roboto-Medium, Roboto" font-size="12" font-weight="400" fill="#5E4EA5">
                <tspan x="435" y="421">Capacity</tspan>
            </text>
            <text id="On-chain" font-family="Roboto-Regular, Roboto" font-size="16" font-weight="normal" fill="#3B3B3B">
                <tspan x="435" y="445">0 sats</tspan>
            </text>
            <text id="On-chain" font-family="Roboto-Medium, Roboto" font-size="12" font-weight="400" fill="#5E4EA5">
                <tspan x="435" y="483">Capacity</tspan>
            </text>
            <text id="On-chain" font-family="Roboto-Regular, Roboto" font-size="16" font-weight="normal" fill="#3B3B3B">
                <tspan x="435" y="507">0 sats</tspan>
            </text>
            <text id="On-chain" font-family="Roboto-Medium, Roboto" font-size="12" font-weight="400" fill="#5E4EA5">
                <tspan x="435" y="547">Capacity</tspan>
            </text>
            <text id="On-chain" font-family="Roboto-Regular, Roboto" font-size="16" font-weight="normal" fill="#3B3B3B">
                <tspan x="435" y="571">0 sats</tspan>
            </text>
            <circle id="Oval" fill="#FFBF2F" cx="372" cy="439" r="4"></circle>
            <text id="On-chain" font-family="Roboto-Regular, Roboto" font-size="16" font-weight="normal" fill="#3B3B3B">
                <tspan x="381" y="445">0</tspan>
            </text>
            <circle id="Oval" fill="#D0D0D0" cx="372" cy="502" r="4"></circle>
            <text id="On-chain" font-family="Roboto-Regular, Roboto" font-size="16" font-weight="normal" fill="#3B3B3B">
                <tspan x="381" y="508">0</tspan>
            </text>
            <circle id="Oval" fill="#FF5F57" cx="372" cy="565" r="4"></circle>
            <text id="On-chain" font-family="Roboto-Regular, Roboto" font-size="16" font-weight="normal" fill="#3B3B3B">
                <tspan x="381" y="571">0</tspan>
            </text>
            <circle id="Oval" fill="#28CA42" cx="372" cy="369" r="4"></circle>
            <g id="Group-12" transform="translate(720.000000, 184.000000)">
                <rect id="Rectangle-Copy-7" stroke="#DCDCDC" fill="#FFFFFF" x="0.5" y="0.5" width="273" height="35" rx="4"></rect>
                <text id="Open-Channel" font-family="Roboto-Medium, Roboto" font-size="14" font-weight="400" fill="#4F4F4F">
                    <tspan x="94.2602539" y="23">Open Channel</tspan>
                </text>
            </g>
            <text id="No-channels-availabl" font-family="Roboto-Regular, Roboto" font-size="12" font-weight="normal" fill="#4B4B4B">
                <tspan x="798" y="164">No channels available.</tspan>
            </text>
        </g>
        <rect id="Rectangle" fill="#222222" opacity="0.592680432" x="0" y="38" width="1284" height="733"></rect>
        <g id="Group-21" transform="translate(415.000000, 144.000000)">
            <g id="Rectangle-Copy-4">
                <use fill="black" fill-opacity="1" filter="url(#filter-6)" xlink:href="#path-5"></use>
                <use fill="#FFFFFF" fill-rule="evenodd" xlink:href="#path-5"></use>
            </g>
            <text id="Lightning-Network" font-family="Roboto-Medium, Roboto" font-size="24" font-weight="400" fill="#343434">
                <tspan x="131.603516" y="304">Lightning Network</tspan>
            </text>
            <text id="What-lightning-imple" font-family="Roboto-Regular, Roboto" font-size="16" font-weight="normal" fill="#6E6E6E">
                <tspan x="36.0195312" y="336">What lightning implementation are you running locally?</tspan>
            </text>
            <rect id="Rectangle-Copy-7" x="366" y="461" width="65" height="36" rx="4"></rect>
            <text id="NEXT" font-family="Roboto-Medium, Roboto" font-size="14" font-weight="400" letter-spacing="1" fill="#432BAE">
                <tspan x="380.788086" y="484">NEXT</tspan>
            </text>
            <g id="Group-14" transform="translate(267.000000, 461.000000)">
                <rect id="Rectangle-Copy-7" x="0" y="0" width="75" height="36" rx="4"></rect>
                <text id="CLOSE" font-family="Roboto-Medium, Roboto" font-size="14" font-weight="400" letter-spacing="1" fill="#432BAE">
                    <tspan x="14.6923828" y="23">CLOSE</tspan>
                </text>
            </g>
            <circle id="Oval" fill="#D9D1FF" cx="202" cy="415" r="4"></circle>
            <circle id="Oval" fill="#5E4EA5" cx="216" cy="415" r="4"></circle>
            <circle id="Oval" fill="#D9D1FF" cx="230" cy="415" r="4"></circle>
            <circle id="Oval" fill="#D9D1FF" cx="244" cy="415" r="4"></circle>
            <circle id="Oval" fill="#D9D1FF" cx="258" cy="415" r="4"></circle>
            <path d="M137.27845,181.485666 L136.974329,181.371666 C136.907498,181.346483 130.256124,178.798118 127.140329,173.019813 C124.024409,167.241232 125.550127,160.2838 125.5659,160.214342 L125.63771,159.897491 L125.941692,160.011491 C126.008522,160.036674 132.659758,162.58504 135.775692,168.363345 C138.891612,174.141926 137.365896,181.099358 137.350121,181.168816 L137.27845,181.485666 Z M127.63927,172.750828 C130.27356,177.636414 135.529682,180.140781 136.861423,180.712497 C137.114623,179.285147 137.908692,173.513205 135.276756,168.632322 C132.645096,163.75199 127.386898,161.24375 126.054602,160.670651 C125.801261,162.098834 125.007473,167.870219 127.63927,172.750828 Z" id="Shape" fill="#3F3D56" fill-rule="nonzero"></path>
            <path d="M129.52152,170.992866 C135.12101,174.361706 137.277552,181.053148 137.277552,181.053148 C137.277552,181.053148 130.355525,182.282625 124.756032,178.913788 C119.156539,175.544951 117,168.853506 117,168.853506 C117,168.853506 123.92203,167.624027 129.52152,170.992866 Z" id="Path" fill="#D0CDE1" fill-rule="nonzero"></path>
            <path d="M246.283421,83.2869568 L246.283421,82 L217.970381,82 L217.970381,83.2869568 L155.272279,83.2869568 C154.152099,83.2869568 153.077799,83.7319467 152.285712,84.5240339 C151.493626,85.316121 151.048637,86.3904216 151.048637,87.5106016 L151.048637,173.011125 C151.048637,175.343782 152.939622,177.234784 155.272279,177.234784 L308.724125,177.234784 C309.844308,177.234784 310.918611,176.789792 311.7107,175.997702 C312.502788,175.205612 312.947777,174.131308 312.947777,173.011125 L312.947777,87.5106016 C312.947777,86.3904197 312.502788,85.3161173 311.710699,84.5240298 C310.91861,83.7319422 309.844307,83.2869536 308.724125,83.2869568 L246.283421,83.2869568 Z" id="Path" fill="#3F3D56" fill-rule="nonzero"></path>
            <polygon id="Path" fill="#5E4EA5" fill-rule="nonzero" points="156.711247 90.7513048 307.285159 90.7513048 307.285159 175.690434 156.711247 175.690434"></polygon>
            <circle id="Oval" fill="#5E4EA5" fill-rule="nonzero" cx="231.869508" cy="86.8904344" r="1.5443472"></circle>
            <path d="M298.641089,101.561642 L291.503489,101.561642 L291.503489,94.4240536 L298.641089,94.4240536 L298.641089,101.561642 Z M291.81383,101.251322 L298.330759,101.251322 L298.330759,94.7343832 L291.81383,94.7343832 L291.81383,101.251322 Z" id="Shape" fill="#3F3D56" fill-rule="nonzero"></path>
            <path d="M317.175557,174.146085 L302.480522,174.146085 L302.480522,173.087315 C302.480524,173.031638 302.458406,172.978241 302.419036,172.938871 C302.379667,172.899502 302.326269,172.877387 302.270592,172.877387 L297.232294,172.877387 C297.176617,172.877387 297.12322,172.899503 297.083851,172.938872 C297.044481,172.978242 297.022364,173.031638 297.022366,173.087315 L297.022366,174.146085 L293.873429,174.146085 L293.873429,173.087315 C293.87343,173.031638 293.851313,172.978242 293.811944,172.938872 C293.772574,172.899503 293.719178,172.877387 293.663501,172.877387 L288.625202,172.877387 C288.569525,172.877387 288.516128,172.899502 288.476758,172.938871 C288.437388,172.978241 288.415271,173.031638 288.415272,173.087315 L288.415272,174.146085 L285.266338,174.146085 L285.266338,173.087315 C285.266339,173.031638 285.244222,172.978241 285.204852,172.938871 C285.165482,172.899502 285.112084,172.877387 285.056407,172.877387 L280.018097,172.877387 C279.96242,172.877387 279.909023,172.899503 279.869654,172.938872 C279.830284,172.978242 279.808168,173.031638 279.808169,173.087315 L279.808169,174.146085 L276.659244,174.146085 L276.659244,173.087315 C276.659245,173.031638 276.637128,172.978242 276.597759,172.938872 C276.55839,172.899503 276.504993,172.877387 276.449316,172.877387 L271.411018,172.877387 C271.355341,172.877387 271.301944,172.899503 271.262575,172.938872 C271.223205,172.978242 271.201088,173.031638 271.20109,173.087315 L271.20109,174.146085 L268.052153,174.146085 L268.052153,173.087315 C268.052154,173.031638 268.030037,172.978241 267.990667,172.938871 C267.951297,172.899502 267.8979,172.877387 267.842222,172.877387 L262.803926,172.877387 C262.748249,172.877387 262.694852,172.899502 262.655482,172.938871 C262.616112,172.978241 262.593995,173.031638 262.593996,173.087315 L262.593996,174.146085 L259.445057,174.146085 L259.445057,173.087315 C259.445059,173.031638 259.422942,172.978241 259.383572,172.938872 C259.344203,172.899502 259.290806,172.877387 259.235129,172.877387 L254.196833,172.877387 C254.141156,172.877387 254.087759,172.899503 254.04839,172.938872 C254.00902,172.978242 253.986904,173.031638 253.986905,173.087315 L253.986905,174.146085 L250.837968,174.146085 L250.837968,173.087315 C250.837969,173.031638 250.815852,172.978242 250.776483,172.938872 C250.737114,172.899503 250.683717,172.877387 250.62804,172.877387 L211.161377,172.877387 C211.1057,172.877387 211.052303,172.899503 211.012934,172.938872 C210.973564,172.978242 210.951448,173.031638 210.951449,173.087315 L210.951449,174.146085 L207.802507,174.146085 L207.802507,173.087315 C207.802508,173.031638 207.780392,172.978242 207.741022,172.938872 C207.701653,172.899503 207.648256,172.877387 207.592579,172.877387 L202.554281,172.877387 C202.498604,172.877387 202.445206,172.899502 202.405836,172.938871 C202.366466,172.978241 202.344349,173.031638 202.34435,173.087315 L202.34435,174.146085 L199.195416,174.146085 L199.195416,173.087315 C199.195417,173.031638 199.1733,172.978241 199.13393,172.938871 C199.09456,172.899502 199.041163,172.877387 198.985486,172.877387 L193.947187,172.877387 C193.89151,172.877387 193.838114,172.899503 193.798744,172.938872 C193.759375,172.978242 193.737258,173.031638 193.737259,173.087315 L193.737259,174.146085 L190.588322,174.146085 L190.588322,173.087315 C190.588324,173.031638 190.566207,172.978242 190.526837,172.938872 C190.487468,172.899503 190.434071,172.877387 190.378394,172.877387 L185.340096,172.877387 C185.284419,172.877387 185.231021,172.899502 185.191652,172.938871 C185.152282,172.978241 185.130164,173.031638 185.130166,173.087315 L185.130166,174.146085 L181.981231,174.146085 L181.981231,173.087315 C181.981232,173.031638 181.959115,172.978241 181.919745,172.938871 C181.880375,172.899502 181.826978,172.877387 181.771301,172.877387 L176.733002,172.877387 C176.677326,172.877387 176.623929,172.899503 176.584559,172.938872 C176.54519,172.978242 176.523073,173.031638 176.523074,173.087315 L176.523074,174.146085 L173.374138,174.146085 L173.374138,173.087315 C173.374139,173.031638 173.352022,172.978242 173.312653,172.938872 C173.273283,172.899503 173.219886,172.877387 173.16421,172.877387 L168.125911,172.877387 C168.070234,172.877387 168.016838,172.899503 167.977468,172.938872 C167.938099,172.978242 167.915982,173.031638 167.915983,173.087315 L167.915983,174.146085 L164.767046,174.146085 L164.767046,173.087315 C164.767048,173.031638 164.74493,172.978241 164.70556,172.938871 C164.666191,172.899502 164.612793,172.877387 164.557116,172.877387 L159.51882,172.877387 C159.463143,172.877387 159.409745,172.899502 159.370376,172.938871 C159.331006,172.978241 159.308888,173.031638 159.30889,173.087315 L159.30889,174.146085 L149.652154,174.146085 C146.869579,174.146085 144.613855,176.401806 144.613855,179.184381 L144.613855,181.462581 C144.613855,184.245151 146.869583,186.500867 149.652154,186.500867 L317.175557,186.500867 C319.958127,186.500867 322.213855,184.245151 322.213855,181.462581 L322.213855,179.184381 C322.213855,176.401807 319.958131,174.146086 317.175557,174.146085 L317.175557,174.146085 Z" id="Path" fill="#3F3D56" fill-rule="nonzero"></path>
            <polygon id="Path" fill="#3F3D56" fill-rule="nonzero" points="123.890719 181.332038 342.936994 181.332038 342.936994 182.000507 123.890719 182.000507"></polygon>
            <path d="M297.977186,138.080973 L249.497186,138.080973 L249.497186,110.480973 L297.977186,110.480973 L297.977186,138.080973 Z M249.977186,137.600973 L297.497186,137.600973 L297.497186,110.960973 L249.977186,110.960973 L249.977186,137.600973 Z" id="Shape" fill="#3F3D56" fill-rule="nonzero"></path>
            <path d="M209.177186,143.600973 L165.977186,143.600973 L165.977186,116.720973 L209.177186,116.720973 L209.177186,143.600973 Z M166.457186,143.120973 L208.697186,143.120973 L208.697186,117.200973 L166.457186,117.200973 L166.457186,143.120973 Z" id="Shape" fill="#3F3D56" fill-rule="nonzero"></path>
            <path d="M186.159804,133.280973 L186.118438,132.744254 C185.994686,131.629799 186.366173,130.411989 187.398118,129.173786 C188.326946,128.079722 188.842918,127.274879 188.842918,126.34605 C188.842918,125.293473 188.18245,124.591754 186.882137,124.571128 C186.138454,124.568104 185.411427,124.791251 184.797497,125.210968 L184.302137,123.910648 C184.983348,123.41518 186.159792,123.084945 187.253621,123.084945 C189.627254,123.084945 190.700458,124.55049 190.700458,126.118929 C190.700458,127.5226 189.916121,128.533929 188.925418,129.710258 C188.017332,130.783461 187.687097,131.691664 187.748971,132.744242 L187.769597,133.280973 L186.159804,133.280973 Z M185.705702,136.170573 C185.68325,135.830138 185.804351,135.495851 186.039636,135.248786 C186.274921,135.001721 186.602898,134.864445 186.944023,134.870253 C187.666483,134.870253 188.161836,135.406737 188.161836,136.170573 C188.180418,136.621391 187.950499,137.046149 187.562882,137.277093 C187.175266,137.508038 186.692273,137.508038 186.304656,137.277093 C185.917039,137.046149 185.68712,136.621391 185.705702,136.170573 L185.705702,136.170573 Z" id="Shape" fill="#D0CDE1" fill-rule="nonzero"></path>
            <path d="M272.319804,127.280973 L272.278438,126.744254 C272.154686,125.629799 272.526173,124.411989 273.558118,123.173786 C274.486946,122.079722 275.002918,121.274879 275.002918,120.34605 C275.002918,119.293473 274.34245,118.591754 273.042137,118.571128 C272.298454,118.568104 271.571427,118.791251 270.957497,119.210968 L270.462137,117.910648 C271.143348,117.41518 272.319792,117.084945 273.413621,117.084945 C275.787254,117.084945 276.860458,118.55049 276.860458,120.118929 C276.860458,121.5226 276.076121,122.533929 275.085418,123.710258 C274.177332,124.783461 273.847097,125.691664 273.908971,126.744242 L273.929597,127.280973 L272.319804,127.280973 Z M271.865702,130.170573 C271.84325,129.830138 271.964351,129.495851 272.199636,129.248786 C272.434921,129.001721 272.762898,128.864445 273.104023,128.870253 C273.826483,128.870253 274.321836,129.406737 274.321836,130.170573 C274.340418,130.621391 274.110499,131.046149 273.722882,131.277093 C273.335266,131.508038 272.852273,131.508038 272.464656,131.277093 C272.077039,131.046149 271.84712,130.621391 271.865702,130.170573 L271.865702,130.170573 Z" id="Shape" fill="#D0CDE1" fill-rule="nonzero"></path>
            <circle id="Oval" fill="#2F2E41" fill-rule="nonzero" cx="232.846351" cy="144.603693" r="20.71014"></circle>
            <polygon id="Path" fill="#2F2E41" fill-rule="nonzero" points="224.847602 172.96432 218.656322 171.84352 220.664402 158.91616 226.855442 160.03696"></polygon>
            <polygon id="Path" fill="#2F2E41" fill-rule="nonzero" transform="translate(235.138105, 167.264187) rotate(10.261060) translate(-235.138105, -167.264187) " points="231.99226 161.627883 238.283949 161.627883 238.283949 172.900491 231.99226 172.900491"></polygon>
            <ellipse id="Oval" fill="#2F2E41" fill-rule="nonzero" transform="translate(236.228255, 172.937474) rotate(-78.586970) translate(-236.228255, -172.937474) " cx="236.228255" cy="172.937474" rx="1.966152" ry="5.24307361"></ellipse>
            <ellipse id="Oval" fill="#2F2E41" fill-rule="nonzero" transform="translate(223.275086, 172.952117) rotate(-82.453700) translate(-223.275086, -172.952117) " cx="223.275086" cy="172.952117" rx="1.966152" ry="5.24307359"></ellipse>
            <circle id="Oval" fill="#FFFFFF" fill-rule="nonzero" cx="234.296242" cy="139.537874" r="7.0781496"></circle>
            <circle id="Oval" fill="#3F3D56" fill-rule="nonzero" cx="237.205337" cy="137.000735" r="2.3593824"></circle>
            <ellipse id="Oval" fill="#2F2E41" fill-rule="nonzero" transform="translate(251.969297, 140.830652) rotate(-12.910100) translate(-251.969297, -140.830652) " cx="251.969297" cy="140.830652" rx="10.3550711" ry="3.25077598"></ellipse>
            <ellipse id="Oval" fill="#2F2E41" fill-rule="nonzero" transform="translate(211.316074, 147.591222) rotate(-12.910100) translate(-211.316074, -147.591222) " cx="211.316074" cy="147.591222" rx="10.3550711" ry="3.25077598"></ellipse>
            <path d="M227.158301,152.765298 C226.857995,154.424189 227.465508,156.117278 228.751997,157.206796 C230.038485,158.296314 231.808501,158.616737 233.395295,158.047364 C234.982089,157.477991 236.144591,156.105324 236.444897,154.446434 C236.909129,151.882012 234.926402,150.974565 232.361981,150.51033 C229.797559,150.046096 227.622535,150.200877 227.158301,152.765298 Z" id="Path" fill="#FFFFFF" fill-rule="nonzero"></path>
            <circle id="Oval" fill="#3F3D56" fill-rule="nonzero" cx="171.114792" cy="87.032608" r="1.506612"></circle>
            <polygon id="Path" fill="#D0CDE1" fill-rule="nonzero" points="170.285321 147.870122 204.338196 147.870122 204.338196 180.262274 170.285321 180.262274"></polygon>
            <polygon id="Path" fill="#FFFFFF" fill-rule="nonzero" points="174.154966 151.739766 200.468551 151.739766 200.468551 171.861921 174.154966 171.861921"></polygon>
            <polygon id="Path" fill="#5E4EA5" fill-rule="nonzero" points="181 156 193 156 193 168 181 168"></polygon>
            <text id="bolt" font-family="FontAwesome5Pro-Solid, Font Awesome 5 Pro" font-size="8" font-weight="700" fill="#FFFFFF">
                <tspan x="185" y="165">bolt</tspan>
            </text>
            <polygon id="Path" fill="#F2F2F2" fill-rule="nonzero" points="174.128906 173.859174 188.441717 173.859174 188.441717 174.612479 174.128906 174.612479"></polygon>
            <circle id="Oval" fill="#3F3D56" fill-rule="nonzero" cx="187.311758" cy="149.753387" r="1.506612"></circle>
            <polygon id="Path" fill="#D0CDE1" fill-rule="nonzero" points="258.944762 138.172667 292.997638 138.172667 292.997638 170.564819 258.944762 170.564819"></polygon>
            <polygon id="Path" fill="#FFFFFF" fill-rule="nonzero" points="262.814407 142.042312 289.127993 142.042312 289.127993 162.164466 262.814407 162.164466"></polygon>
            <polygon id="Path" fill="#F2F2F2" fill-rule="nonzero" points="262.788348 164.16172 277.101158 164.16172 277.101158 164.915025 262.788348 164.915025"></polygon>
            <polygon id="Path" fill="#F2F2F2" fill-rule="nonzero" points="262.788348 166.044983 282.750953 166.044983 282.750953 166.798288 262.788348 166.798288"></polygon>
            <circle id="Oval" fill="#3F3D56" fill-rule="nonzero" cx="275.9712" cy="140.05593" r="1.506612"></circle>
            <text id="LND" font-family="Roboto-Regular, Roboto" font-size="15" font-weight="normal" fill="#444444">
                <tspan x="108" y="379">LND</tspan>
            </text>
            <circle id="Oval" stroke="#5E4EA5" stroke-width="2" fill="#FFFFFF" cx="90" cy="373" r="9"></circle>
            <circle id="Oval" fill="#5E4EA5" cx="90" cy="373" r="5"></circle>
            <text id="C-Lightning" font-family="Roboto-Regular, Roboto" font-size="15" font-weight="normal" fill="#444444">
                <tspan x="188" y="379">C-Lightning</tspan>
            </text>
            <circle id="Oval" stroke="#8D8D8D" stroke-width="2" fill="#FFFFFF" cx="170" cy="373" r="9"></circle>
            <text id="Eclair" font-family="Roboto-Regular, Roboto" font-size="15" font-weight="normal" fill="#444444">
                <tspan x="315" y="379">Eclair</tspan>
            </text>
            <circle id="Oval" stroke="#8D8D8D" stroke-width="2" fill="#FFFFFF" cx="297" cy="373" r="9"></circle>
            <circle id="Oval" fill="#3F3D56" cx="276" cy="152" r="6"></circle>
            <text id="bolt" font-family="FontAwesome5Pro-Solid, Font Awesome 5 Pro" font-size="8" font-weight="700" fill="#FFFFFF">
                <tspan x="274" y="155">bolt</tspan>
            </text>
        </g>
    </g>
</svg>