<?xml version="1.0" encoding="UTF-8"?>
<svg width="1284px" height="771px" viewBox="0 0 1284 771" version="1.1" xmlns="http://www.w3.org/2000/svg" xmlns:xlink="http://www.w3.org/1999/xlink">
    <!-- Generator: Sketch 63.1 (92452) - https://sketch.com -->
    <title>0.4_Onboarding_Step4</title>
    <desc>Created with Sketch.</desc>
    <defs>
        <rect id="path-1" x="0" y="0" width="218" height="680"></rect>
        <filter x="-6.7%" y="-1.8%" width="113.3%" height="104.3%" filterUnits="objectBoundingBox" id="filter-2">
            <feOffset dx="0" dy="2" in="SourceAlpha" result="shadowOffsetOuter1"></feOffset>
            <feGaussianBlur stdDeviation="4.5" in="shadowOffsetOuter1" result="shadowBlurOuter1"></feGaussianBlur>
            <feColorMatrix values="0 0 0 0 0.508718297   0 0 0 0 0.508320861   0 0 0 0 0.508320861  0 0 0 0.5 0" type="matrix" in="shadowBlurOuter1"></feColorMatrix>
        </filter>
        <rect id="path-3" x="0" y="0" width="1284" height="53"></rect>
        <filter x="-0.8%" y="-15.1%" width="101.6%" height="137.7%" filterUnits="objectBoundingBox" id="filter-4">
            <feOffset dx="0" dy="2" in="SourceAlpha" result="shadowOffsetOuter1"></feOffset>
            <feGaussianBlur stdDeviation="3" in="shadowOffsetOuter1" result="shadowBlurOuter1"></feGaussianBlur>
            <feColorMatrix values="0 0 0 0 0   0 0 0 0 0   0 0 0 0 0  0 0 0 0.5 0" type="matrix" in="shadowBlurOuter1"></feColorMatrix>
        </filter>
        <rect id="path-5" x="415.000003" y="135" width="455" height="406" rx="4"></rect>
        <filter x="-6.2%" y="-6.4%" width="112.3%" height="113.8%" filterUnits="objectBoundingBox" id="filter-6">
            <feOffset dx="0" dy="2" in="SourceAlpha" result="shadowOffsetOuter1"></feOffset>
            <feGaussianBlur stdDeviation="9" in="shadowOffsetOuter1" result="shadowBlurOuter1"></feGaussianBlur>
            <feColorMatrix values="0 0 0 0 0   0 0 0 0 0   0 0 0 0 0  0 0 0 0.191105769 0" type="matrix" in="shadowBlurOuter1"></feColorMatrix>
        </filter>
        <linearGradient x1="49.9999338%" y1="99.9998677%" x2="49.9999338%" y2="0%" id="linearGradient-7">
            <stop stop-color="#808080" stop-opacity="0.25" offset="0%"></stop>
            <stop stop-color="#808080" stop-opacity="0.12" offset="53.514%"></stop>
            <stop stop-color="#808080" stop-opacity="0.1" offset="100%"></stop>
        </linearGradient>
        <linearGradient x1="50.0000165%" y1="99.9998677%" x2="50.0000165%" y2="9.40165456e-14%" id="linearGradient-8">
            <stop stop-color="#808080" stop-opacity="0.25" offset="0%"></stop>
            <stop stop-color="#808080" stop-opacity="0.12" offset="53.514%"></stop>
            <stop stop-color="#808080" stop-opacity="0.1" offset="100%"></stop>
        </linearGradient>
        <linearGradient x1="50.000021%" y1="99.9998317%" x2="50.000021%" y2="0%" id="linearGradient-9">
            <stop stop-color="#808080" stop-opacity="0.25" offset="0%"></stop>
            <stop stop-color="#808080" stop-opacity="0.12" offset="53.514%"></stop>
            <stop stop-color="#808080" stop-opacity="0.1" offset="100%"></stop>
        </linearGradient>
        <linearGradient x1="50.000021%" y1="99.9998317%" x2="50.000021%" y2="-1.19552917e-13%" id="linearGradient-10">
            <stop stop-color="#808080" stop-opacity="0.25" offset="0%"></stop>
            <stop stop-color="#808080" stop-opacity="0.12" offset="53.514%"></stop>
            <stop stop-color="#808080" stop-opacity="0.1" offset="100%"></stop>
        </linearGradient>
        <linearGradient x1="50%" y1="100%" x2="50%" y2="2.34058383e-13%" id="linearGradient-11">
            <stop stop-color="#808080" stop-opacity="0.25" offset="0%"></stop>
            <stop stop-color="#808080" stop-opacity="0.12" offset="53.514%"></stop>
            <stop stop-color="#808080" stop-opacity="0.1" offset="100%"></stop>
        </linearGradient>
        <linearGradient x1="50%" y1="100.000054%" x2="50%" y2="0%" id="linearGradient-12">
            <stop stop-color="#808080" stop-opacity="0.25" offset="0%"></stop>
            <stop stop-color="#808080" stop-opacity="0.12" offset="53.514%"></stop>
            <stop stop-color="#808080" stop-opacity="0.1" offset="100%"></stop>
        </linearGradient>
    </defs>
    <g id="0.4_Onboarding_Step4" stroke="none" stroke-width="1" fill="none" fill-rule="evenodd">
        <rect fill="#131415" x="0" y="0" width="1284" height="771"></rect>
        <rect id="Background" fill="#F2F5F6" x="0" y="38" width="1284" height="733"></rect>
        <g id="Group-13" transform="translate(0.000000, 91.000000)">
            <g id="Rectangle">
                <use fill="black" fill-opacity="1" filter="url(#filter-2)" xlink:href="#path-1"></use>
                <use fill="#FFFFFF" fill-rule="evenodd" xlink:href="#path-1"></use>
            </g>
            <g id="Group-7" transform="translate(1.000000, 23.000000)">
                <rect id="Rectangle" fill="#D8D8D8" opacity="0" x="0" y="34" width="218" height="48"></rect>
                <rect id="Rectangle" fill="#D8D8D8" opacity="0" x="0" y="80" width="218" height="48"></rect>
                <text id="On-chain" font-family="Roboto-Regular, Roboto" font-size="14" font-weight="normal" fill="#474747">
                    <tspan x="70" y="63">On-chain</tspan>
                </text>
                <g id="Group-2" transform="translate(0.000000, 126.000000)">
                    <g id="Group-10" transform="translate(0.000000, 48.000000)">
                        <rect id="Rectangle" fill="#D8D8D8" opacity="0" x="0" y="0" width="218" height="48"></rect>
                        <text id="On-chain" font-family="Roboto-Regular, Roboto" font-size="14" font-weight="normal" fill="#4A4A4A">
                            <tspan x="70" y="29">Settings</tspan>
                        </text>
                        <text id="cog" font-family="FontAwesome5Pro-Solid, Font Awesome 5 Pro" font-size="14" font-weight="700" fill="#858585">
                            <tspan x="25" y="28">cog</tspan>
                        </text>
                    </g>
                    <g id="Group-9" transform="translate(0.000000, 97.000000)">
                        <rect id="Rectangle" fill="#D8D8D8" opacity="0" x="0" y="0" width="218" height="48"></rect>
                        <text id="On-chain" font-family="Roboto-Regular, Roboto" font-size="14" font-weight="normal" fill="#4A4A4A">
                            <tspan x="70" y="29">Help</tspan>
                        </text>
                        <text id="life-ring" font-family="FontAwesome5Pro-Solid, Font Awesome 5 Pro" font-size="14" font-weight="700" fill="#858585">
                            <tspan x="25" y="27">life-ring</tspan>
                        </text>
                    </g>
                    <g id="Group-6" transform="translate(0.000000, 143.000000)">
                        <g id="Group-30" transform="translate(0.000000, 7.000000)">
                            <g id="Group-3">
                                <rect id="Rectangle" fill="#D8D8D8" opacity="0" x="0" y="0" width="218" height="48"></rect>
                                <text id="On-chain" font-family="Roboto-Regular, Roboto" font-size="14" font-weight="normal" fill="#4A4A4A">
                                    <tspan x="70" y="29">Public Key</tspan>
                                </text>
                            </g>
                            <text id="eye" font-family="FontAwesome5Pro-Solid, Font Awesome 5 Pro" font-size="14" font-weight="700" fill="#858585">
                                <tspan x="24" y="27">eye</tspan>
                            </text>
                        </g>
                        <line x1="0.5" y1="0.5" x2="218.5" y2="0.5" id="Line-3" stroke="#E6E6E6" stroke-linecap="square"></line>
                    </g>
                    <g id="Group-8">
                        <rect id="Rectangle" fill="#D8D8D8" opacity="0" x="0" y="0" width="218" height="48"></rect>
                        <text id="On-chain" font-family="Roboto-Regular, Roboto" font-size="14" font-weight="normal" fill="#4A4A4A">
                            <tspan x="70" y="29">Network</tspan>
                        </text>
                        <text id="project-diagram" font-family="FontAwesome5Pro-Solid, Font Awesome 5 Pro" font-size="14" font-weight="700" fill="#858585">
                            <tspan x="25" y="28">project-diagram</tspan>
                        </text>
                    </g>
                </g>
                <g id="Group-12" transform="translate(28.000000, 98.000000)" font-size="14">
                    <text id="On-chain-Copy" font-family="Roboto-Regular, Roboto" font-weight="normal" fill="#474747">
                        <tspan x="42" y="13">Lightning</tspan>
                    </text>
                    <text id="bolt" font-family="FontAwesome5Pro-Solid, Font Awesome 5 Pro" font-weight="700" fill="#858585">
                        <tspan x="0" y="12">bolt</tspan>
                    </text>
                </g>
                <text id="Dashboard" font-family="Roboto-Regular, Roboto" font-size="14" font-weight="normal" fill="#4A4A4A">
                    <tspan x="70" y="13">Dashboard</tspan>
                </text>
                <text id="tachometer-alt-fast" font-family="FontAwesome5Pro-Solid, Font Awesome 5 Pro" font-size="14" font-weight="700" fill="#858585">
                    <tspan x="24" y="12">tachometer-alt-fast</tspan>
                </text>
                <text id="link" font-family="FontAwesome5Pro-Solid, Font Awesome 5 Pro" font-size="14" font-weight="700" fill="#858585">
                    <tspan x="25" y="61">link</tspan>
                </text>
                <text id="bolt" font-family="FontAwesome5Pro-Solid, Font Awesome 5 Pro" font-size="14" font-weight="700" fill="#858585">
                    <tspan x="28" y="110">bolt</tspan>
                </text>
            </g>
        </g>
        <g id="Browser">
            <path d="M0,6.00024414 C0,2.68640081 2.6794487,0 5.99234946,0 L1278.00765,0 C1281.31713,0 1284,2.68722626 1284,6.00024414 L1284,38 L0,38 L0,6.00024414 Z" id="Tab-BG---Right" fill="#363738"></path>
            <circle id="Dot---Red" fill="#FF5F57" cx="18" cy="19" r="6"></circle>
            <circle id="Dot---Orange" fill="#FFBF2F" cx="38" cy="19" r="6"></circle>
            <circle id="Dot---Green" fill="#28CA42" cx="58" cy="19" r="6"></circle>
            <g id="Back" transform="translate(76.000000, 7.000000)">
                <rect id="Rectangle" fill="#656668" x="0" y="0" width="28" height="24" rx="4"></rect>
                <path d="M10.1607883,11.3246277 L15.780455,5.65901618 C15.9603839,5.47908726 16.2513057,5.47908726 16.4312347,5.65901618 L17.1891941,6.41697565 C17.3691231,6.59690457 17.3691231,6.88782642 17.1891941,7.06775535 L12.6528768,11.6500175 L17.1891941,16.2322797 C17.3691231,16.4122086 17.3691231,16.7031305 17.1891941,16.8830594 L16.4312347,17.6410189 C16.2513057,17.8209478 15.9603839,17.8209478 15.780455,17.6410189 L10.1607883,11.9754074 C9.98085942,11.7954785 9.98085942,11.5045566 10.1607883,11.3246277 Z" id="a" fill="#FFFFFF" fill-rule="nonzero"></path>
            </g>
            <g id="Forward" transform="translate(105.000000, 7.000000)">
                <rect id="Rectangle" fill="#656668" x="0" y="0" width="28" height="24" rx="4"></rect>
                <path d="M18.1891941,11.9754074 L12.5695275,17.6410189 C12.3895986,17.8209478 12.0986767,17.8209478 11.9187478,17.6410189 L11.1607883,16.8830594 C10.9808594,16.7031305 10.9808594,16.4122086 11.1607883,16.2322797 L15.6971057,11.6500175 L11.1607883,7.06775535 C10.9808594,6.88782642 10.9808594,6.59690457 11.1607883,6.41697565 L11.9187478,5.65901618 C12.0986767,5.47908726 12.3895986,5.47908726 12.5695275,5.65901618 L18.1891941,11.3246277 C18.3691231,11.5045566 18.3691231,11.7954785 18.1891941,11.9754074 Z" id="a" fill="#FFFFFF" fill-rule="nonzero" opacity="0.200334821"></path>
            </g>
            <g id="New-Tab" transform="translate(1260.000000, 14.000000)">
                <rect id="Rectangle" fill="#292A2B" x="0" y="0" width="24" height="24"></rect>
                <path d="M16.2531029,11.6843877 C16.3618742,11.6843877 16.4499775,11.7724909 16.4499775,11.8812622 L16.4499775,12.6687603 C16.4499775,12.7775316 16.3618742,12.8656349 16.2531029,12.8656349 L12.3156123,12.8656349 L12.3156123,16.8031255 C12.3156123,16.9118967 12.2275091,17 12.1187378,17 L11.3312397,17 C11.2224684,17 11.1343651,16.9118967 11.1343651,16.8031255 L11.1343651,12.8656349 L7.19687453,12.8656349 C7.08810328,12.8656349 7,12.7775316 7,12.6687603 L7,11.8812622 C7,11.7724909 7.08810328,11.6843877 7.19687453,11.6843877 L11.1343651,11.6843877 L11.1343651,7.74689706 C11.1343651,7.63812581 11.2224684,7.55002253 11.3312397,7.55002253 L12.1187378,7.55002253 C12.2275091,7.55002253 12.3156123,7.63812581 12.3156123,7.74689706 L12.3156123,11.6843877 L16.2531029,11.6843877 Z" id="p" fill="#FFFFFF" fill-rule="nonzero" opacity="0.497907366"></path>
            </g>
            <g id="URL" transform="translate(378.000000, 7.000000)">
                <path d="M0,3.99005301 C0,1.78640758 1.78094395,5.31029755e-14 3.99753941,5.28693238e-14 L516.002461,-1.1012102e-15 C518.210241,-1.33393271e-15 520,1.78429328 520,3.99005301 L520,20.009947 C520,22.2135924 518.219056,24 516.002461,24 L3.99753941,24 C1.78975936,24 0,22.2157067 0,20.009947 L0,3.99005301 Z" id="URL-Bar" fill="#696A6B"></path>
                <path d="M512.304658,5.17186422 C512.467743,5.17186422 512.59997,5.30412783 512.59997,5.46721261 L512.59997,10.1922013 C512.59997,10.3552861 512.467743,10.4875131 512.304658,10.4875131 L507.579669,10.4875131 C507.416585,10.4875131 507.284358,10.3552861 507.284358,10.1922013 L507.284358,9.51027815 C507.284358,9.34440559 507.42091,9.21109712 507.586711,9.21503845 L510.69705,9.2890827 C509.940722,7.61516854 508.257531,6.45158527 506.299985,6.45158527 C503.633864,6.45158527 501.476559,8.60927437 501.476559,11.2750113 C501.476559,13.9411327 503.634248,16.0984373 506.299985,16.0984373 C507.533046,16.0984373 508.65724,15.6369165 509.509554,14.8770557 C509.6264,14.7728747 509.804938,14.7799403 509.915632,14.8906341 L510.401377,15.3763797 C510.521276,15.4962781 510.51534,15.6917347 510.389505,15.8053845 C509.307296,16.7829079 507.873155,17.3781217 506.299985,17.3781217 C502.93257,17.3781217 500.202138,14.6509336 500.19686,11.2847685 C500.191635,7.92836054 502.924087,5.18242707 506.280471,5.17186422 C508.411171,5.16526784 510.288545,6.2506252 511.385221,7.89993005 L511.327471,5.47425415 C511.32353,5.30842965 511.456862,5.17186422 511.622711,5.17186422 L512.304658,5.17186422 Z" id="r" fill="#FFFFFF" fill-rule="nonzero" transform="translate(506.398415, 11.274993) rotate(-45.000000) translate(-506.398415, -11.274993) "></path>
                <text id="Ride-the-Lightning" font-family="Roboto-Regular, Roboto" font-size="12.6" font-weight="normal" fill="#FFFFFF">
                    <tspan x="210" y="17">Ride the Lightning</tspan>
                </text>
            </g>
        </g>
        <g id="Group-20" transform="translate(0.000000, 38.000000)">
            <g id="Rectangle-13">
                <use fill="black" fill-opacity="1" filter="url(#filter-4)" xlink:href="#path-3"></use>
                <use fill="#5E4EA5" fill-rule="evenodd" xlink:href="#path-3"></use>
            </g>
            <text id="Dashboard" font-family="FontAwesome5Pro-Regular, Font Awesome 5 Pro" font-size="18" font-weight="normal" fill="#FFFFFF">
                <tspan x="24" y="33">bars</tspan>
            </text>
            <text id="caret-down-copy" font-family="FontAwesome5Pro-Solid, Font Awesome 5 Pro" font-size="16" font-weight="700" fill="#FFFFFF">
                <tspan x="1256" y="32">caret-down</tspan>
            </text>
            <path d="M1240.89813,18.1212981 C1240.97355,18.5162463 1241.00376,18.8283095 1240.99963,19 C1240.70754,18.6091703 1240.26821,18.2769436 1240.02855,18.181703 C1239.87253,18.1195821 1240.38323,17.8444139 1240.89813,18.1212981 M1241.85028,28.2969635 C1241.98775,28.2673062 1242.12593,28.238967 1242.26423,28.2113468 C1242.40882,28.1824085 1242.55376,28.1546685 1242.69923,28.1284863 C1242.58257,28.0535942 1242.4655,27.9794211 1242.34767,27.9063863 C1240.85092,26.9784435 1239.25545,26.1905189 1237.67903,25.4279378 C1236.68413,24.9466514 1235.6709,24.4682408 1234.63914,24.0370422 C1235.53913,22.8274452 1236.69148,21.8008846 1237.92316,20.9215317 C1237.92422,20.9208128 1237.92922,20.9172779 1237.93698,20.9117059 C1238.20658,21.2865857 1238.54738,21.5416981 1238.71825,21.6375599 C1239.05229,21.8250897 1239.47301,22.0003371 1239.85979,22.0539 C1240.62043,22.1592881 1241.24847,22.1430515 1241.9433,22.0210074 C1242.00592,22.0100432 1242.06902,22.0022544 1242.13181,21.9915897 C1242.5774,21.9156791 1242.86252,21.9041757 1243.12353,21.8992029 C1243.46921,21.8926124 1243.64044,21.9672049 1243.68113,21.9779893 C1243.80461,22.0105225 1243.90957,22.0643848 1243.96789,22.1366407 C1244.03563,22.224594 1244.10801,22.3075744 1244.18557,22.3835449 C1244.41818,22.619425 1244.64915,22.7500368 1244.98425,22.7874828 C1245.41554,22.8356534 1245.72083,22.6637611 1245.93669,22.3783923 C1246.03865,22.2436465 1245.98955,22.0320315 1245.97838,21.9905113 C1245.92175,21.7782372 1245.79104,21.4694422 1245.69643,21.1819764 C1245.67191,21.1076835 1245.55308,20.8792926 1245.41008,20.724296 C1245.36286,20.6730099 1245.31535,20.6218436 1245.2679,20.5707372 C1245.04581,20.3313822 1244.82196,20.0938245 1244.60005,19.8546492 C1243.71459,18.9009435 1242.75468,18.0228488 1241.76508,17.1832787 C1241.66253,17.0962841 1241.55981,17.0090498 1241.45691,16.9219952 C1241.38229,16.8587863 1241.30738,16.7959369 1241.23259,16.7329676 C1241.19455,16.7009737 1241.15656,16.6690397 1241.1184,16.6371058 C1241.0379,16.569643 1240.95717,16.5026595 1240.87626,16.4357359 C1240.84433,16.4093739 1240.81229,16.3831917 1240.7803,16.3568896 C1240.72991,16.3155491 1240.6149,16.2168713 1240.51805,16.1378452 C1240.83904,15.8117951 1241.09806,15.6088076 1241.55781,15.3018699 C1241.62373,15.2578932 1241.97888,15.0648514 1241.96635,15.0158421 C1241.95882,14.9862447 1241.37571,14.992955 1240.70757,15.0806686 C1240.47284,15.1114643 1239.15719,15.309419 1238.25385,15.5100099 C1237.29224,15.7234823 1236.27683,16.0219123 1235.34156,16.3219 C1232.64001,17.1884912 1230.0604,18.3629188 1227.69818,19.9590188 C1226.34061,20.8762969 1225.06983,21.8885382 1223.84327,22.9791466 C1223.27168,23.4872744 1222.70355,24.0035504 1222.14884,24.5340859 C1222.06193,24.6171862 1221.97573,24.7010054 1221.88953,24.7848845 C1222.00766,24.807412 1222.12573,24.8309581 1222.24356,24.8556425 C1223.2204,25.060068 1224.18654,25.3332743 1225.12587,25.60684 C1226.2747,25.9413979 1227.43693,26.3020782 1228.56077,26.7448401 C1227.92038,27.3656056 1227.29564,28.001649 1226.70088,28.6747191 C1225.58092,29.941953 1224.53687,31.2807238 1223.56262,32.6670061 C1222.29313,34.4732832 1221.20939,36.421316 1220.26472,38.4288431 C1220.17522,38.6187694 1220.08679,38.8091151 1220,39 C1220.17475,38.8574654 1220.35056,38.716189 1220.52767,38.5761708 C1222.05705,37.3676523 1223.66957,36.2502026 1225.27957,35.1706183 C1227.54501,33.6515074 1229.97626,32.3964959 1232.49912,31.3866511 C1235.54071,30.1692055 1238.64687,28.9881275 1241.85028,28.2969635" id="Fill-1" fill="#FFFFFE"></path>
        </g>
        <g id="Group-11" transform="translate(242.000000, 114.000000)">
            <path d="M5.1277704,1.5 C3.48633153,1.5 2.88407891,1.65323445 2.28210802,1.97517201 C1.71867923,2.27649702 1.27649702,2.71867923 0.975172007,3.28210802 C0.653234454,3.88407891 0.5,4.48633153 0.5,6.1277704 L0.5,251.87223 C0.5,253.513668 0.653234454,254.115921 0.975172007,254.717892 C1.27649702,255.281321 1.71867923,255.723503 2.28210802,256.024828 C2.88407891,256.346766 3.48633153,256.5 5.1277704,256.5 L316.87223,256.5 C318.513668,256.5 319.115921,256.346766 319.717892,256.024828 C320.281321,255.723503 320.723503,255.281321 321.024828,254.717892 C321.346766,254.115921 321.5,253.513668 321.5,251.87223 L321.5,6.1277704 C321.5,4.48633153 321.346766,3.88407891 321.024828,3.28210802 C320.723503,2.71867923 320.281321,2.27649702 319.717892,1.97517201 C319.115921,1.65323445 318.513668,1.5 316.87223,1.5 L5.1277704,1.5 Z" id="Rectangle-Copy-5" stroke="#DEDEDE" fill="#FFFFFF"></path>
            <path d="M316.87223,281.5 L5.1277704,281.5 C3.48633153,281.5 2.88407891,281.653234 2.28210802,281.975172 C1.71867923,282.276497 1.27649702,282.718679 0.975172007,283.282108 C0.653234454,283.884079 0.5,284.486332 0.5,286.12777 L0.5,591.87223 C0.5,593.513668 0.653234454,594.115921 0.975172007,594.717892 C1.27649702,595.281321 1.71867923,595.723503 2.28210802,596.024828 C2.88407891,596.346766 3.48633153,596.5 5.1277704,596.5 L316.87223,596.5 C318.513668,596.5 319.115921,596.346766 319.717892,596.024828 C320.281321,595.723503 320.723503,595.281321 321.024828,594.717892 C321.346766,594.115921 321.5,593.513668 321.5,591.87223 L321.5,286.12777 C321.5,284.486332 321.346766,283.884079 321.024828,283.282108 C320.723503,282.718679 320.281321,282.276497 319.717892,281.975172 C319.115921,281.653234 318.513668,281.5 316.87223,281.5 Z" id="Rectangle-Copy-5" stroke="#DEDEDE" fill="#FFFFFF"></path>
            <path d="M661.87223,281.5 L350.12777,281.5 C348.486332,281.5 347.884079,281.653234 347.282108,281.975172 C346.718679,282.276497 346.276497,282.718679 345.975172,283.282108 C345.653234,283.884079 345.5,284.486332 345.5,286.12777 L345.5,591.87223 C345.5,593.513668 345.653234,594.115921 345.975172,594.717892 C346.276497,595.281321 346.718679,595.723503 347.282108,596.024828 C347.884079,596.346766 348.486332,596.5 350.12777,596.5 L661.87223,596.5 C663.513668,596.5 664.115921,596.346766 664.717892,596.024828 C665.281321,595.723503 665.723503,595.281321 666.024828,594.717892 C666.346766,594.115921 666.5,593.513668 666.5,591.87223 L666.5,286.12777 C666.5,284.486332 666.346766,283.884079 666.024828,283.282108 C665.723503,282.718679 665.281321,282.276497 664.717892,281.975172 C664.115921,281.653234 663.513668,281.5 661.87223,281.5 Z" id="Rectangle-Copy-5" stroke="#DEDEDE" fill="#FFFFFF"></path>
            <text id="Node-Information" font-family="Roboto-Regular, Roboto" font-size="16" font-weight="normal" fill="#84979E">
                <tspan x="46" y="40">Node Information</tspan>
            </text>
            <text id="info-circle" font-family="FontAwesome5Pro-Solid, Font Awesome 5 Pro" font-size="16" font-weight="700" fill="#84979E">
                <tspan x="24" y="41">info-circle</tspan>
            </text>
            <g id="Group-18" transform="translate(24.000000, 131.000000)">
                <text id="On-chain" font-family="Roboto-Medium, Roboto" font-size="12" font-weight="400" fill="#5E4EA5">
                    <tspan x="0" y="11">Implementation</tspan>
                </text>
                <text id="On-chain" font-family="Roboto-Regular, Roboto" font-size="16" font-weight="normal" fill="#3D3D3D">
                    <tspan x="0" y="35">LND 0.9.0-beta</tspan>
                </text>
            </g>
            <g id="Group-19" transform="translate(24.000000, 68.000000)">
                <text id="On-chain" font-family="Roboto-Medium, Roboto" font-size="12" font-weight="400" fill="#5E4EA5">
                    <tspan x="0" y="11">Alias</tspan>
                </text>
                <text id="On-chain" font-family="Roboto-Regular, Roboto" font-size="16" font-weight="normal" fill="#4C4C4C">
                    <tspan x="0" y="35">AmoraUK</tspan>
                </text>
            </g>
            <g id="Group-19-Copy" transform="translate(24.000000, 194.000000)">
                <text id="On-chain" font-family="Roboto-Medium, Roboto" font-size="12" font-weight="400" fill="#5E4EA5">
                    <tspan x="0" y="11">Chain</tspan>
                </text>
                <text id="On-chain" font-family="Roboto-Regular, Roboto" font-size="16" font-weight="normal" fill="#343434">
                    <tspan x="0" y="35">Bitcoin Mainnet</tspan>
                </text>
            </g>
            <g id="Group-2" transform="translate(346.000000, 1.000000)">
                <path d="M316.87223,0.5 L5.1277704,0.5 C3.48633153,0.5 2.88407891,0.653234454 2.28210802,0.975172007 C1.71867923,1.27649702 1.27649702,1.71867923 0.975172007,2.28210802 C0.653234454,2.88407891 0.5,3.48633153 0.5,5.1277704 L0.5,250.87223 C0.5,252.513668 0.653234454,253.115921 0.975172007,253.717892 C1.27649702,254.281321 1.71867923,254.723503 2.28210802,255.024828 C2.88407891,255.346766 3.48633153,255.5 5.1277704,255.5 L316.87223,255.5 C318.513668,255.5 319.115921,255.346766 319.717892,255.024828 C320.281321,254.723503 320.723503,254.281321 321.024828,253.717892 C321.346766,253.115921 321.5,252.513668 321.5,250.87223 L321.5,5.1277704 C321.5,3.48633153 321.346766,2.88407891 321.024828,2.28210802 C320.723503,1.71867923 320.281321,1.27649702 319.717892,0.975172007 C319.115921,0.653234454 318.513668,0.5 316.87223,0.5 Z" id="Rectangle-Copy-5" stroke="#DEDEDE" fill="#FFFFFF"></path>
                <text id="Balances" font-family="Roboto-Regular, Roboto" font-size="16" font-weight="normal" fill="#84979E">
                    <tspan x="46" y="39">Balances</tspan>
                </text>
                <text id="chart-pie" font-family="FontAwesome5Pro-Solid, Font Awesome 5 Pro" font-size="16" font-weight="700" fill="#84979E">
                    <tspan x="24" y="40">chart-pie</tspan>
                </text>
                <g id="Group-18" transform="translate(24.000000, 131.000000)">
                    <text id="On-chain" font-family="Roboto-Medium, Roboto" font-size="12" font-weight="400" fill="#5E4EA5">
                        <tspan x="0" y="11">On-Chain</tspan>
                    </text>
                    <text id="On-chain" font-family="Roboto-Regular, Roboto" font-size="16" font-weight="normal" fill="#4A4A4A">
                        <tspan x="0" y="35">0 sats</tspan>
                    </text>
                </g>
                <g id="Group-19" transform="translate(24.000000, 66.000000)">
                    <text id="On-chain" font-family="Roboto-Medium, Roboto" font-size="12" font-weight="400" fill="#5E4EA5">
                        <tspan x="0" y="11">Lightning</tspan>
                    </text>
                    <text id="On-chain" font-family="Roboto-Regular, Roboto" font-size="16" font-weight="normal" fill="#4A4A4A">
                        <tspan x="0" y="35">0 sats</tspan>
                    </text>
                </g>
                <g id="Group-19" transform="translate(24.000000, 193.000000)">
                    <text id="On-chain" font-family="Roboto-Medium, Roboto" font-size="12" font-weight="400" fill="#5E4EA5">
                        <tspan x="0" y="11">Total</tspan>
                    </text>
                    <text id="On-chain" font-family="Roboto-Regular, Roboto" font-size="16" font-weight="normal" fill="#4A4A4A">
                        <tspan x="0" y="35">0 sats</tspan>
                    </text>
                </g>
                <rect id="Rectangle-Copy-7" fill="#AA9FDA" x="27" y="108" width="277" height="6" rx="3"></rect>
                <rect id="Rectangle-Copy-7" fill="#AA9FDA" x="27" y="108" width="277" height="6" rx="3"></rect>
                <rect id="Rectangle-Copy-7" fill="#AA9FDA" x="27" y="172" width="277" height="6" rx="3"></rect>
            </g>
            <path d="M1008.87223,0.5 L697.12777,0.5 C695.486332,0.5 694.884079,0.653234454 694.282108,0.975172007 C693.718679,1.27649702 693.276497,1.71867923 692.975172,2.28210802 C692.653234,2.88407891 692.5,3.48633153 692.5,5.1277704 L692.5,591.87223 C692.5,593.513668 692.653234,594.115921 692.975172,594.717892 C693.276497,595.281321 693.718679,595.723503 694.282108,596.024828 C694.884079,596.346766 695.486332,596.5 697.12777,596.5 L1008.87223,596.5 C1010.51367,596.5 1011.11592,596.346766 1011.71789,596.024828 C1012.28132,595.723503 1012.7235,595.281321 1013.02483,594.717892 C1013.34677,594.115921 1013.5,593.513668 1013.5,591.87223 L1013.5,5.1277704 C1013.5,3.48633153 1013.34677,2.88407891 1013.02483,2.28210802 C1012.7235,1.71867923 1012.28132,1.27649702 1011.71789,0.975172007 C1011.11592,0.653234454 1010.51367,0.5 1008.87223,0.5 Z" id="Rectangle-Copy-5" stroke="#DEDEDE" fill="#FFFFFF"></path>
            <g id="Group-5" transform="translate(716.000000, 61.000000)">
                <text id="Total-Capacity" font-family="Roboto-Regular, Roboto" font-size="16" font-weight="normal" fill="#222831">
                    <tspan x="1" y="15">Total Capacity</tspan>
                </text>
                <g id="Group-4" transform="translate(0.000000, 27.000000)">
                    <rect id="Rectangle-Copy-6" fill="#D8D8D8" x="3" y="18" width="277" height="6" rx="3"></rect>
                    <text id="Local:-0-sats" font-family="Roboto-Regular, Roboto" font-size="12" font-weight="normal" fill="#4B4B4B">
                        <tspan x="0" y="11">Local: 0 sats</tspan>
                    </text>
                    <text id="Remote:-0-sats" font-family="Roboto-Regular, Roboto" font-size="12" font-weight="normal" fill="#4B4B4B">
                        <tspan x="199.207031" y="11">Remote: 0 sats</tspan>
                    </text>
                </g>
            </g>
            <text id="Channels-Capacity" font-family="Roboto-Regular, Roboto" font-size="16" font-weight="normal" fill="#84979E">
                <tspan x="742" y="38">Channels Capacity</tspan>
            </text>
            <text id="chart-network" font-family="FontAwesome5Pro-Solid, Font Awesome 5 Pro" font-size="16" font-weight="700" fill="#84979E">
                <tspan x="716" y="39">chart-network</tspan>
            </text>
            <line x1="719.5" y1="136.5" x2="995.5" y2="136.5" id="Line" stroke="#EAEAEA" stroke-linecap="square"></line>
            <text id="Routing-Fee-Report" font-family="Roboto-Regular, Roboto" font-size="16" font-weight="normal" fill="#84979E">
                <tspan x="40" y="314">Routing Fee Report</tspan>
            </text>
            <text id="bolt" font-family="FontAwesome5Pro-Solid, Font Awesome 5 Pro" font-size="16" font-weight="700" fill="#84979E">
                <tspan x="24" y="316">bolt</tspan>
            </text>
            <text id="Channels" font-family="Roboto-Regular, Roboto" font-size="16" font-weight="normal" fill="#84979E">
                <tspan x="396" y="316">Channels</tspan>
            </text>
            <text id="chart-network" font-family="FontAwesome5Pro-Solid, Font Awesome 5 Pro" font-size="16" font-weight="700" fill="#84979E">
                <tspan x="370" y="317">chart-network</tspan>
            </text>
            <text id="On-chain" font-family="Roboto-Medium, Roboto" font-size="12" font-weight="400" fill="#5E4EA5">
                <tspan x="24" y="356">Daily</tspan>
            </text>
            <text id="On-chain" font-family="Roboto-Medium, Roboto" font-size="12" font-weight="400" fill="#5E4EA5">
                <tspan x="24" y="419">Weekly</tspan>
            </text>
            <text id="On-chain" font-family="Roboto-Medium, Roboto" font-size="12" font-weight="400" fill="#5E4EA5">
                <tspan x="24" y="482">Monthly</tspan>
            </text>
            <text id="On-chain" font-family="Roboto-Regular, Roboto" font-size="16" font-weight="normal" fill="#4A4A4A">
                <tspan x="25" y="380">0 sat</tspan>
            </text>
            <text id="On-chain" font-family="Roboto-Regular, Roboto" font-size="16" font-weight="normal" fill="#4A4A4A">
                <tspan x="25" y="443">0 sats</tspan>
            </text>
            <text id="On-chain" font-family="Roboto-Regular, Roboto" font-size="16" font-weight="normal" fill="#4A4A4A">
                <tspan x="25" y="506">0 sats</tspan>
            </text>
            <text id="On-chain" font-family="Roboto-Medium, Roboto" font-size="12" font-weight="400" fill="#5E4EA5">
                <tspan x="24" y="545">All Time</tspan>
            </text>
            <text id="On-chain" font-family="Roboto-Regular, Roboto" font-size="16" font-weight="normal" fill="#4A4A4A">
                <tspan x="25" y="569">0 sats</tspan>
            </text>
            <text id="On-chain" font-family="Roboto-Medium, Roboto" font-size="12" font-weight="400" fill="#5E4EA5">
                <tspan x="370" y="484">Inactive</tspan>
            </text>
            <text id="On-chain" font-family="Roboto-Medium, Roboto" font-size="12" font-weight="400" fill="#5E4EA5">
                <tspan x="370" y="547">Closing</tspan>
            </text>
            <text id="On-chain" font-family="Roboto-Medium, Roboto" font-size="12" font-weight="400" fill="#5E4EA5">
                <tspan x="369" y="421">Pending</tspan>
            </text>
            <circle id="Oval" fill="#28CA42" cx="372" cy="369" r="4"></circle>
            <text id="On-chain" font-family="Roboto-Medium, Roboto" font-size="12" font-weight="400" fill="#5E4EA5">
                <tspan x="369" y="351">Active</tspan>
            </text>
            <text id="On-chain" font-family="Roboto-Regular, Roboto" font-size="16" font-weight="normal" fill="#3B3B3B">
                <tspan x="381" y="375">0</tspan>
            </text>
            <text id="On-chain" font-family="Roboto-Medium, Roboto" font-size="12" font-weight="400" fill="#5E4EA5">
                <tspan x="435" y="351">Capacity</tspan>
            </text>
            <text id="On-chain" font-family="Roboto-Regular, Roboto" font-size="16" font-weight="normal" fill="#3B3B3B">
                <tspan x="435" y="375">0 sats</tspan>
            </text>
            <text id="On-chain" font-family="Roboto-Medium, Roboto" font-size="12" font-weight="400" fill="#5E4EA5">
                <tspan x="435" y="421">Capacity</tspan>
            </text>
            <text id="On-chain" font-family="Roboto-Regular, Roboto" font-size="16" font-weight="normal" fill="#3B3B3B">
                <tspan x="435" y="445">0 sats</tspan>
            </text>
            <text id="On-chain" font-family="Roboto-Medium, Roboto" font-size="12" font-weight="400" fill="#5E4EA5">
                <tspan x="435" y="483">Capacity</tspan>
            </text>
            <text id="On-chain" font-family="Roboto-Regular, Roboto" font-size="16" font-weight="normal" fill="#3B3B3B">
                <tspan x="435" y="507">0 sats</tspan>
            </text>
            <text id="On-chain" font-family="Roboto-Medium, Roboto" font-size="12" font-weight="400" fill="#5E4EA5">
                <tspan x="435" y="547">Capacity</tspan>
            </text>
            <text id="On-chain" font-family="Roboto-Regular, Roboto" font-size="16" font-weight="normal" fill="#3B3B3B">
                <tspan x="435" y="571">0 sats</tspan>
            </text>
            <circle id="Oval" fill="#FFBF2F" cx="372" cy="439" r="4"></circle>
            <text id="On-chain" font-family="Roboto-Regular, Roboto" font-size="16" font-weight="normal" fill="#3B3B3B">
                <tspan x="381" y="445">0</tspan>
            </text>
            <circle id="Oval" fill="#D0D0D0" cx="372" cy="502" r="4"></circle>
            <text id="On-chain" font-family="Roboto-Regular, Roboto" font-size="16" font-weight="normal" fill="#3B3B3B">
                <tspan x="381" y="508">0</tspan>
            </text>
            <circle id="Oval" fill="#FF5F57" cx="372" cy="565" r="4"></circle>
            <text id="On-chain" font-family="Roboto-Regular, Roboto" font-size="16" font-weight="normal" fill="#3B3B3B">
                <tspan x="381" y="571">0</tspan>
            </text>
            <circle id="Oval" fill="#28CA42" cx="372" cy="369" r="4"></circle>
            <g id="Group-12" transform="translate(720.000000, 184.000000)">
                <rect id="Rectangle-Copy-7" stroke="#DCDCDC" fill="#FFFFFF" x="0.5" y="0.5" width="273" height="35" rx="4"></rect>
                <text id="Open-Channel" font-family="Roboto-Medium, Roboto" font-size="14" font-weight="400" fill="#4F4F4F">
                    <tspan x="94.2602539" y="23">Open Channel</tspan>
                </text>
            </g>
            <text id="No-channels-availabl" font-family="Roboto-Regular, Roboto" font-size="12" font-weight="normal" fill="#4B4B4B">
                <tspan x="798" y="164">No channels available.</tspan>
            </text>
        </g>
        <circle id="Oval" fill="#FF0093" cx="346" cy="211" r="4"></circle>
        <g id="Group-16" transform="translate(0.000000, 38.000000)">
            <rect id="Rectangle" fill="#222222" opacity="0.592680432" x="0" y="0" width="1284" height="733"></rect>
            <g id="Rectangle-Copy-14">
                <use fill="black" fill-opacity="1" filter="url(#filter-6)" xlink:href="#path-5"></use>
                <use fill="#FFFFFF" fill-rule="evenodd" xlink:href="#path-5"></use>
            </g>
            <text id="Congratulations!" font-family="Roboto-Medium, Roboto" font-size="24" font-weight="400" fill="#343434">
                <tspan x="556.136721" y="397">Congratulations!</tspan>
            </text>
            <text id="You’re-all-set!-Ride" font-family="Roboto-Regular, Roboto" font-size="16" font-weight="normal" fill="#6E6E6E">
                <tspan x="597.777346" y="429">You’re all set!</tspan>
                <tspan x="525.261721" y="448">Ride the Lightning is now running.</tspan>
            </text>
            <g id="Group-14" transform="translate(721.000000, 481.000000)">
                <rect id="Rectangle-Copy-15" x="0" y="0" width="125" height="36" rx="4"></rect>
                <text id="GET-STARTED-Copy-2" font-family="Roboto-Medium, Roboto" font-size="14" font-weight="400" letter-spacing="1" fill="#432BAE">
                    <tspan x="14.4472656" y="23">GET STARTED</tspan>
                </text>
            </g>
            <g id="Group-15" transform="translate(565.000000, 173.000000)">
                <path d="M172.972813,86.4864 C172.975158,91.2077811 172.592943,95.9215101 171.829946,100.580832 C171.76817,100.965744 171.701642,101.350656 171.632738,101.735568 C166.681154,129.57516 148.407338,152.810064 123.637538,164.60928 C123.518738,164.666304 123.397562,164.723328 123.276386,164.780352 C122.309354,165.236554 121.331234,165.675322 120.342026,166.096656 C120.075914,166.208328 119.812178,166.32 119.54369,166.429296 C114.187826,168.647303 108.620912,170.31666 102.928322,171.411768 C102.676466,171.461664 102.42461,171.506808 102.172754,171.551952 C97.0189182,172.496155 91.7901671,172.9728 86.5505542,172.9728 L86.3105782,172.9728 C85.8448822,172.9728 85.3791862,172.968048 84.9158662,172.956168 C84.8279542,172.956168 84.7400422,172.956168 84.6521302,172.951416 C79.427909,172.845863 74.2239073,172.268524 69.1035862,171.22644 C68.8541062,171.174168 68.6046262,171.121896 68.3551462,171.067248 C63.7507524,170.087179 59.2352379,168.728234 54.8547142,167.004288 C54.5862262,166.90212 54.3224902,166.7952 54.0563782,166.685904 C53.0679622,166.289112 52.0898422,165.87252 51.1220182,165.436128 C51.0008422,165.38148 50.8796662,165.326832 50.7608662,165.272184 C25.2687622,153.693936 6.38669021,130.107384 1.34006621,101.735568 C1.27116221,101.350656 1.20463421,100.965744 1.14285821,100.580832 C-0.377757331,91.2670498 -0.380966826,81.7685517 1.13335421,72.453744 C1.21889021,71.919144 1.31155421,71.382168 1.41134621,70.849944 C2.09129582,67.1141075 3.02000264,63.4278558 4.19126621,59.8158 C4.31006621,59.44752 4.43124221,59.07924 4.55479421,58.71096 C16.1259142,24.572592 48.4371382,-2.50111043e-14 86.4864022,-2.50111043e-14 C128.912258,-2.50111043e-14 164.202986,30.550608 171.561458,70.849944 C171.66125,71.382168 171.753914,71.919144 171.83945,72.453744 C172.595739,77.0929936 172.974764,81.78591 172.972813,86.4864 Z" id="Path" fill="#5E4EA5" fill-rule="nonzero" opacity="0.1"></path>
                <path d="M73.8684285,34.0218204 L73.4071281,34.0218204 C73.3131763,34.0218204 73.0808296,33.6530652 73.0808296,33.5472525 L73.0808296,33.1186625 C73.0808296,32.7842096 72.7024896,31.8666673 72.3680296,31.8666673 C72.0335696,31.8666673 71.6552296,32.7842096 71.6552296,33.1186625 L71.6552296,33.5472525 C71.6552296,33.6980524 71.5388056,34.0218204 71.3964642,34.0218204 L70.9351638,34.0218204 C70.6006991,34.0218204 69.6831686,34.2813604 69.6831686,34.6158204 C69.6831686,34.9502805 70.6006991,35.2098204 70.9351638,35.2098204 L71.4853219,35.2098204 C71.6595373,35.2098204 71.6552296,35.3890231 71.6552296,35.4802591 L71.6552296,36.0519247 C71.6552296,36.3863919 72.0335696,37.3039199 72.3680296,37.3039199 C72.7024896,37.3039199 73.0808296,36.3863919 73.0808296,36.0519247 L73.0808296,35.4802591 C73.0808296,35.404517 73.2337894,35.2098204 73.3182728,35.2098204 L73.8684285,35.2098204 C74.2028814,35.2098204 75.1204237,34.9502947 75.1204237,34.6158204 C75.1204237,34.2813462 74.2028814,34.0218204 73.8684285,34.0218204 Z" id="Path" fill="#2196F3" fill-rule="nonzero"></path>
                <path d="M9.23685665,58.5513284 L8.62746729,58.5513284 C8.50335456,58.5513284 8.19641813,58.0641867 8.19641813,57.9244113 L8.19641813,57.3582343 C8.19641813,56.9164123 7.6966194,55.7043126 7.25478081,55.7043126 C6.81294223,55.7043126 6.31317201,56.9164123 6.31317201,57.3582343 L6.31317201,57.9244113 C6.31317201,58.1236223 6.15937591,58.5513284 5.97133689,58.5513284 L5.36194754,58.5513284 C4.92010658,58.5513284 3.70801394,58.8941852 3.70801394,59.3360286 C3.70801394,59.7778719 4.9200947,60.1207097 5.36194754,60.1207097 L6.08871842,60.1207097 C6.31886253,60.1207097 6.31317201,60.3574425 6.31317201,60.4779698 L6.31317201,61.2331553 C6.31317201,61.6749962 6.81297074,62.8870889 7.25478081,62.8870889 C7.69659089,62.8870889 8.19641813,61.6750057 8.19641813,61.2331553 L8.19641813,60.4779698 C8.19641813,60.3779093 8.39848267,60.1207097 8.51008577,60.1207097 L9.23685665,60.1207097 C9.67868097,60.1207097 10.8907902,59.7778672 10.8907902,59.3360286 C10.8907902,58.89419 9.67868097,58.5513284 9.23685665,58.5513284 Z" id="Path" fill="url(#linearGradient-7)" fill-rule="nonzero"></path>
                <path d="M74.3392566,33.8409284 L73.7298673,33.8409284 C73.6057546,33.8409284 73.2988181,33.3537867 73.2988181,33.2140113 L73.2988181,32.6478343 C73.2988181,32.2060123 72.7990194,30.9939126 72.3571808,30.9939126 C71.9153422,30.9939126 71.4155601,32.2060123 71.4155601,32.6478343 L71.4155601,33.2140113 C71.4155601,33.4132223 71.261764,33.8409284 71.073725,33.8409284 L70.4643357,33.8409284 C70.0224947,33.8409284 68.8104021,34.1837852 68.8104021,34.6256286 C68.8104021,35.0674719 70.0224828,35.4103097 70.4643357,35.4103097 L71.1911065,35.4103097 C71.4212507,35.4103097 71.4155601,35.6470425 71.4155601,35.7675698 L71.4155601,36.5227553 C71.4155601,36.9645962 71.9153589,38.1766889 72.3571808,38.1766889 C72.7990028,38.1766889 73.2988181,36.9646057 73.2988181,36.5227553 L73.2988181,35.7675698 C73.2988181,35.6675093 73.5008827,35.4103097 73.6124858,35.4103097 L74.3392566,35.4103097 C74.781081,35.4103097 75.9931902,35.0674672 75.9931902,34.6256286 C75.9931902,34.18379 74.781081,33.8409284 74.3392566,33.8409284 Z" id="Path" fill="url(#linearGradient-8)" fill-rule="nonzero"></path>
                <path d="M140.154457,45.0081284 L139.545067,45.0081284 C139.420955,45.0081284 139.114018,44.5209867 139.114018,44.3812113 L139.114018,43.8150343 C139.114018,43.3732123 138.614219,42.1611126 138.172381,42.1611126 C137.730542,42.1611126 137.23076,43.3732123 137.23076,43.8150343 L137.23076,44.3812113 C137.23076,44.5804223 137.076964,45.0081284 136.888925,45.0081284 L136.279536,45.0081284 C135.837695,45.0081284 134.625602,45.3509852 134.625602,45.7928286 C134.625602,46.2346719 135.837683,46.5775097 136.279536,46.5775097 L137.006307,46.5775097 C137.236451,46.5775097 137.23076,46.8142425 137.23076,46.9347698 L137.23076,47.6899553 C137.23076,48.1317962 137.730559,49.3438889 138.172381,49.3438889 C138.614203,49.3438889 139.114018,48.1318057 139.114018,47.6899553 L139.114018,46.9347698 C139.114018,46.8347093 139.316083,46.5775097 139.427686,46.5775097 L140.154457,46.5775097 C140.596281,46.5775097 141.80839,46.2346672 141.80839,45.7928286 C141.80839,45.35099 140.596281,45.0081284 140.154457,45.0081284 Z" id="Path" fill="url(#linearGradient-8)" fill-rule="nonzero"></path>
                <path d="M114.00172,41.1498204 L113.70773,41.1498204 C113.647855,41.1498204 113.47283,40.91721 113.47283,40.8497744 L113.47283,40.5766318 C113.47283,40.3634832 113.210783,39.7787283 112.99763,39.7787283 C112.784476,39.7787283 112.52243,40.3634832 112.52243,40.5766318 L112.52243,40.8497744 C112.52243,40.9458812 112.517038,41.1498204 112.426323,41.1498204 L112.132333,41.1498204 C111.919177,41.1498204 111.33443,41.2930671 111.33443,41.5062204 C111.33443,41.7193738 111.919177,41.8626204 112.132333,41.8626204 L112.482952,41.8626204 C112.59398,41.8626204 112.52243,42.0235469 112.52243,42.0816876 L112.52243,42.446014 C112.52243,42.6591721 112.784476,43.2439176 112.99763,43.2439176 C113.210783,43.2439176 113.47283,42.659184 113.47283,42.446014 L113.47283,42.0816924 C113.47283,42.0334192 113.597261,41.8626252 113.651101,41.8626252 L114.00172,41.8626252 C114.214869,41.8626252 114.799624,41.7193857 114.799624,41.5062252 C114.799624,41.2930647 114.214869,41.1498204 114.00172,41.1498204 Z" id="Path" fill="#1976D2" fill-rule="nonzero"></path>
                <path d="M31.4306473,54.4652452 L30.9514248,54.4652452 C30.8538211,54.4652452 30.5685157,54.0860665 30.5685157,53.976148 L30.5685157,53.5309046 C30.5685157,53.183455 30.1413608,52.2302584 29.793897,52.2302584 C29.4464331,52.2302584 29.0192901,53.183455 29.0192901,53.5309046 L29.0192901,53.976148 C29.0192901,54.1328048 29.0104989,54.4652452 28.8626309,54.4652452 L28.383406,54.4652452 C28.0359421,54.4652452 27.0827598,54.6987466 27.0827598,55.0462105 C27.0827598,55.3936743 28.0359421,55.6271639 28.383406,55.6271639 L28.9549385,55.6271639 C29.1359256,55.6271639 29.0192901,55.8894743 29.0192901,55.9842767 L29.0192901,56.5781555 C29.0192901,56.9256193 29.4464474,57.8788016 29.793897,57.8788016 C30.1413466,57.8788016 30.5685157,56.9256193 30.5685157,56.5781555 L30.5685157,55.9842624 C30.5685157,55.9055764 30.7713501,55.6271496 30.8591148,55.6271496 L31.4306473,55.6271496 C31.778097,55.6271496 32.7312935,55.3936601 32.7312935,55.0461962 C32.7312935,54.6987324 31.778097,54.4652452 31.4306473,54.4652452 Z" id="Path" fill="url(#linearGradient-9)" fill-rule="nonzero"></path>
                <path d="M114.590647,40.9220452 L114.111425,40.9220452 C114.013821,40.9220452 113.728516,40.5428665 113.728516,40.432948 L113.728516,39.9877046 C113.728516,39.640255 113.301361,38.6870584 112.953897,38.6870584 C112.606433,38.6870584 112.17929,39.640255 112.17929,39.9877046 L112.17929,40.432948 C112.17929,40.5896048 112.170499,40.9220452 112.022631,40.9220452 L111.543406,40.9220452 C111.195942,40.9220452 110.24276,41.1555466 110.24276,41.5030105 C110.24276,41.8504743 111.195942,42.0839639 111.543406,42.0839639 L112.114939,42.0839639 C112.295926,42.0839639 112.17929,42.3462743 112.17929,42.4410767 L112.17929,43.0349555 C112.17929,43.3824193 112.606447,44.3356016 112.953897,44.3356016 C113.301347,44.3356016 113.728516,43.3824193 113.728516,43.0349555 L113.728516,42.4410624 C113.728516,42.3623764 113.93135,42.0839496 114.019115,42.0839496 L114.590647,42.0839496 C114.938097,42.0839496 115.891294,41.8504601 115.891294,41.5029962 C115.891294,41.1555324 114.938097,40.9220452 114.590647,40.9220452 Z" id="Path" fill="url(#linearGradient-10)" fill-rule="nonzero"></path>
                <path d="M30.8417201,54.6930204 L30.5477305,54.6930204 C30.4878553,54.6930204 30.3128296,54.46041 30.3128296,54.3929744 L30.3128296,54.1198318 C30.3128296,53.9066832 30.050783,53.3219283 29.8376296,53.3219283 C29.6244763,53.3219283 29.3624296,53.9066832 29.3624296,54.1198318 L29.3624296,54.3929744 C29.3624296,54.4890812 29.3570385,54.6930204 29.2663228,54.6930204 L28.9723332,54.6930204 C28.7591775,54.6930204 28.1744296,54.8362671 28.1744296,55.0494204 C28.1744296,55.2625738 28.7591775,55.4058204 28.9723332,55.4058204 L29.3229524,55.4058204 C29.4339805,55.4058204 29.3624296,55.5667469 29.3624296,55.6248876 L29.3624296,55.989214 C29.3624296,56.2023721 29.6244763,56.7871176 29.8376296,56.7871176 C30.050783,56.7871176 30.3128296,56.202384 30.3128296,55.989214 L30.3128296,55.6248924 C30.3128296,55.5766192 30.4372608,55.4058252 30.4911009,55.4058252 L30.8417201,55.4058252 C31.0548687,55.4058252 31.6396237,55.2625857 31.6396237,55.0494252 C31.6396237,54.8362647 31.0548687,54.6930204 30.8417201,54.6930204 Z" id="Path" fill="#1976D2" fill-rule="nonzero"></path>
                <circle id="Oval" fill="#64B5F6" fill-rule="nonzero" cx="98.3852296" cy="35.5662204" r="1.782"></circle>
                <circle id="Oval" fill="#0071BC" fill-rule="nonzero" cx="94.8212296" cy="52.5150197" r="1"></circle>
                <circle id="Oval" fill="#64B5F6" fill-rule="nonzero" cx="27.6893288" cy="39.0015197" r="1.65329921"></circle>
                <circle id="Oval" fill="#64B5F6" fill-rule="nonzero" cx="13.0818804" cy="45.2585731" r="1"></circle>
                <circle id="Oval" fill="#82A9FF" fill-rule="nonzero" cx="81.2730804" cy="62.1281731" r="1"></circle>
                <circle id="Oval" fill="#82A9FF" fill-rule="nonzero" cx="19.8090278" cy="76.8888212" r="1.5444"></circle>
                <circle id="Oval" fill="url(#linearGradient-11)" fill-rule="nonzero" cx="50.4395288" cy="35.3781197" r="1.4425884"></circle>
                <circle id="Oval" fill="url(#linearGradient-11)" fill-rule="nonzero" cx="50.6771288" cy="53.4357197" r="1.4425884"></circle>
                <circle id="Oval" fill="url(#linearGradient-11)" fill-rule="nonzero" cx="126.471529" cy="31.5765197" r="1.4425884"></circle>
                <circle id="Oval" fill="url(#linearGradient-11)" fill-rule="nonzero" cx="159.497929" cy="57.2373197" r="1.4425884"></circle>
                <circle id="Oval" fill="#0D47A1" fill-rule="nonzero" cx="50.4395288" cy="35.3781197" r="1"></circle>
                <circle id="Oval" fill="#64B5F6" fill-rule="nonzero" cx="72.4868296" cy="48.3966204" r="1.782"></circle>
                <path d="M125.184314,123.452208 C125.12729,125.543088 124.447754,127.541304 123.637538,129.482496 C123.518738,129.767616 123.397562,130.05036 123.276386,130.330728 C123.150458,130.615848 123.02453,130.900968 122.898602,131.186088 C122.238074,132.678216 121.56329,134.191728 120.522602,135.448632 C120.463202,135.519912 120.403802,135.591192 120.342026,135.660084 C120.095573,135.937061 119.828714,136.195184 119.54369,136.432284 C118.659486,137.21193 117.546741,137.684534 116.37173,137.779476 C114.105026,137.898276 112.14006,136.318236 110.424602,134.828484 C108.378866,133.055996 106.33313,131.281128 104.287394,129.50388 C103.584098,128.895624 101.878142,127.415376 101.728442,127.284696 L101.728442,156.333672 L101.203346,156.333672 L101.516978,161.254368 L102.172754,171.551952 C97.0189182,172.496155 91.7901671,172.971713 86.5505542,172.9728 L86.1181222,161.271 L85.9945702,157.937472 L85.9351702,156.333672 L85.4457142,156.333672 L85.4029462,157.205664 L85.2104902,161.271 L84.6521302,172.951416 C79.427909,172.845863 74.2239073,172.268524 69.1035862,171.22644 L69.7237222,161.268624 L70.0326022,156.333672 L69.7260982,156.333672 L69.7260982,126.814248 C68.818036,128.01235 67.8067451,129.128587 66.7038262,130.150152 C64.5511702,132.169752 62.0991382,133.925616 59.6874982,135.636336 C58.2238822,136.674648 56.5583062,137.746224 54.8547142,138.157272 C54.591919,138.22124 54.3252454,138.268067 54.0563782,138.297456 C53.3072747,138.391569 52.5465434,138.309394 51.8348182,138.05748 C51.5879811,137.969498 51.3494443,137.859771 51.1220182,137.729592 C50.9960902,137.660688 50.8772902,137.587032 50.7608662,137.508624 C48.9812422,136.294488 48.0450982,133.966008 47.3109142,131.848992 C46.4222902,129.282912 45.5194102,126.595656 45.8971942,123.906024 C46.1276662,122.278464 46.8072022,120.78396 47.6578102,119.365488 C48.2351782,118.403208 48.8909542,117.476568 49.5396022,116.568936 C49.8508582,116.134128 50.2262662,115.66368 50.7228502,115.530624 L50.7252262,115.530624 L50.7608662,115.523496 C50.8208481,115.508819 50.8821259,115.500065 50.9438182,115.49736 C51.0032595,115.495313 51.0627705,115.4969 51.1220182,115.502112 C51.6186022,115.561512 52.0391661,115.958304 52.3979445,116.326584 C52.951543,116.896824 53.504359,117.466272 54.0563925,118.034928 C54.3225045,118.308168 54.5886165,118.581408 54.8547285,118.854648 C54.8974965,118.899792 54.9402645,118.944936 54.9854085,118.99008 C55.3370565,119.351232 55.6863285,119.712384 56.0379765,120.073536 C56.7246405,118.887912 57.4160565,117.69516 58.1454885,116.528544 C59.6281125,114.152544 61.2675525,111.88584 63.3275587,110.001672 C64.3509262,109.06037 65.4846275,108.246594 66.7038547,107.578152 C67.7618148,106.994242 68.8900459,106.5479 70.0611427,106.249968 C71.4107107,105.912576 72.4157587,105.758136 73.1047987,106.000488 C73.6465267,106.190568 73.9934227,106.630128 74.1573667,107.421336 C74.1603152,107.428921 74.1619231,107.436961 74.1621187,107.445096 C74.2392284,107.864331 74.275829,108.290012 74.2714147,108.716256 C74.2714147,108.979992 74.2714147,109.243728 74.2690387,109.50984 L96.8457622,109.50984 C96.8243782,108.825552 96.8053702,108.074736 96.8410102,107.445096 C96.8481382,107.293044 96.8600182,107.148096 96.8742623,107.012664 C96.8810258,106.699922 96.9694907,106.39439 97.1308703,106.126416 C97.3614781,105.894741 97.6815762,105.77503 98.0076143,105.798528 C99.0483023,105.784272 100.55231,106.475688 101.28887,106.751304 C102.322611,107.139681 103.325053,107.606746 104.287382,108.148392 C108.930086,110.747736 112.655654,115.026912 114.366374,120.080664 C114.536559,119.454503 114.836031,118.870938 115.245494,118.367568 C115.52065,118.023905 115.83751,117.715826 116.188766,117.450432 C116.753954,117.020531 117.393462,116.698361 118.07531,116.500032 C118.551825,116.356595 119.046084,116.280617 119.543678,116.274312 C119.810791,116.269072 120.077865,116.286559 120.342014,116.326584 C120.769933,116.38782 121.186829,116.510248 121.57991,116.690112 C122.222045,116.989057 122.798623,117.412204 123.276374,117.935136 C123.404678,118.072944 123.523478,118.215504 123.637526,118.362816 C124.360402,119.332852 124.842501,120.460735 125.044118,121.653576 C125.154481,122.246455 125.201478,122.849389 125.184314,123.452208 Z" id="Path" fill="#FFFFFF" fill-rule="nonzero"></path>
                <path d="M99.6072896,89.4648681 L99.6072896,89.4648681 C97.816458,83.1320036 92.2441939,78.0111724 85.643654,78.0111724 C79.0431141,78.0111724 73.4708738,83.1320036 71.6800422,89.4648681 L71.6800422,89.4648681 C70.0429308,89.4648681 68.7157897,90.7920091 68.7157897,92.4291205 L68.7157897,96.0338808 L71.2516423,96.0338808 C72.3436923,102.922014 78.3707038,107.487577 85.6436564,107.487577 C92.916609,107.487577 98.9436443,102.922014 100.035694,96.0338808 L102.648151,96.0338808 L102.648151,92.5057251 C102.648151,91.6992389 102.327776,90.9257843 101.757503,90.3555128 C101.187231,89.7852413 100.413776,89.4648668 99.6072896,89.4648681 L99.6072896,89.4648681 Z" id="Path" fill="#FFFFFF" fill-rule="nonzero"></path>
                <circle id="Oval" fill="#5E4EA5" fill-rule="nonzero" cx="85.5594438" cy="93.8442234" r="11.7905674"></circle>
                <path d="M124.383606,69.293664 C124.384522,69.8530154 124.207258,70.3981215 123.877514,70.849944 C123.716444,71.0735721 123.520738,71.2700801 123.29777,71.432064 C123.29124,71.438336 123.284073,71.4439101 123.276386,71.448696 L123.276386,164.780352 C122.309354,165.236554 121.331234,165.675322 120.342026,166.096656 L120.342026,71.550864 C119.254483,70.8811075 118.799036,69.5311538 119.25856,68.3394482 C119.718085,67.1477427 120.961953,66.4530487 122.217607,66.6868352 C123.473262,66.9206217 124.383762,68.0164307 124.383606,69.293664 L124.383606,69.293664 Z" id="Path" fill="#E0E0E0" fill-rule="nonzero"></path>
                <path d="M172.972802,86.4864 C172.972802,91.2950747 172.58325,95.2986133 171.829946,98.7714391 C155.652539,74.9975324 139.475146,128.060816 123.29777,100.580832 L123.29777,72.453744 C139.478311,99.9391005 155.65889,46.8496686 171.839434,70.6583148 C172.556508,75.9045536 172.935081,81.1915163 172.972802,86.4864 L172.972802,86.4864 Z" id="Path" fill="#5E4EA5" fill-rule="nonzero"></path>
                <path d="M55.3204267,69.293664 C55.3231051,70.0527914 54.9963028,70.7757441 54.4246582,71.275248 C54.3108561,71.378518 54.1875477,71.4708004 54.0563782,71.550864 L54.0563782,166.685904 C53.0679622,166.289112 52.0898422,165.87252 51.1220182,165.436128 L51.1220182,71.448696 C51.1143316,71.4439101 51.1071649,71.438336 51.1006342,71.432064 C50.8776668,71.2700801 50.6819608,71.0735721 50.5208902,70.849944 C49.8470938,69.9199515 49.8484574,68.6619406 50.5242682,67.733411 C51.200079,66.8048814 52.3967519,66.4168513 53.4888454,66.7721248 C54.580939,67.1273983 55.3202632,68.1452357 55.3204267,69.293664 Z" id="Path" fill="#E0E0E0" fill-rule="nonzero"></path>
                <path d="M51.1006342,72.453744 C51.1006342,81.8294527 51.1006342,91.2051487 51.1006342,100.580832 C34.4480414,73.0828161 17.7954486,126.233917 1.14285821,102.343268 C0.418734398,97.0879911 0.0369775962,91.791202 2.20694473e-06,86.4864 C2.20694473e-06,81.6997983 0.387275951,77.6897471 1.13335421,74.2025489 C17.7891142,98.1270228 34.4448742,44.9504796 51.1006342,72.453744 Z" id="Path" fill="#5E4EA5" fill-rule="nonzero"></path>
                <path d="M87.047851,84.6583602 C90.7485194,84.655536 94.2350777,86.3931875 96.4608668,89.3496748 C94.7181106,85.1217638 90.6878455,82.2828409 86.1199993,82.0655569 C81.5521532,81.8482729 77.2706109,84.2918186 75.1344039,88.3352145 C72.9981968,92.3786104 73.3926246,97.2925647 76.146428,100.943455 C74.6477394,97.3058425 75.0617705,93.1604287 77.2503043,89.8910847 C79.4388382,86.6217408 83.1136053,84.6590986 87.047851,84.6583507 L87.047851,84.6583602 Z" id="Path" fill="#000000" fill-rule="nonzero" opacity="0.2"></path>
                <path d="M43.5744285,60.3954204 L43.1131281,60.3954204 C43.0191763,60.3954204 42.7868296,60.0266652 42.7868296,59.9208525 L42.7868296,59.4922625 C42.7868296,59.1578096 42.4084896,58.2402673 42.0740296,58.2402673 C41.7395696,58.2402673 41.3612296,59.1578096 41.3612296,59.4922625 L41.3612296,59.9208525 C41.3612296,60.0716524 41.2448056,60.3954204 41.1024642,60.3954204 L40.6411638,60.3954204 C40.3066991,60.3954204 39.3891686,60.6549604 39.3891686,60.9894204 C39.3891686,61.3238805 40.3066991,61.5834204 40.6411638,61.5834204 L41.1913219,61.5834204 C41.3655373,61.5834204 41.3612296,61.7626231 41.3612296,61.8538591 L41.3612296,62.4255247 C41.3612296,62.7599919 41.7395696,63.6775199 42.0740296,63.6775199 C42.4084896,63.6775199 42.7868296,62.7599919 42.7868296,62.4255247 L42.7868296,61.8538591 C42.7868296,61.778117 42.9397894,61.5834204 43.0242728,61.5834204 L43.5744285,61.5834204 C43.9088814,61.5834204 44.8264237,61.3238947 44.8264237,60.9894204 C44.8264237,60.6549462 43.9088814,60.3954204 43.5744285,60.3954204 Z" id="Path" fill="#2196F3" fill-rule="nonzero"></path>
                <circle id="Oval" fill="#0D47A1" fill-rule="nonzero" cx="63.3392296" cy="76.9878149" r="1"></circle>
                <circle id="Oval" fill="#64B5F6" fill-rule="nonzero" cx="153.498529" cy="60.8607197" r="1.65329921"></circle>
                <circle id="Oval" fill="#0071BC" fill-rule="nonzero" cx="90.4256296" cy="72.9486197" r="1"></circle>
                <circle id="Oval" fill="#0D47A1" fill-rule="nonzero" cx="50.6771288" cy="53.4357197" r="1"></circle>
                <path d="M139.683628,45.1890204 L139.222328,45.1890204 C139.128376,45.1890204 138.89603,44.8202652 138.89603,44.7144525 L138.89603,44.2858625 C138.89603,43.9514096 138.51769,43.0338673 138.18323,43.0338673 C137.84877,43.0338673 137.47043,43.9514096 137.47043,44.2858625 L137.47043,44.7144525 C137.47043,44.8652524 137.354006,45.1890204 137.211664,45.1890204 L136.750364,45.1890204 C136.415899,45.1890204 135.498369,45.4485604 135.498369,45.7830204 C135.498369,46.1174805 136.415899,46.3770204 136.750364,46.3770204 L137.300522,46.3770204 C137.474737,46.3770204 137.47043,46.5562231 137.47043,46.6474591 L137.47043,47.2191247 C137.47043,47.5535919 137.84877,48.4711199 138.18323,48.4711199 C138.51769,48.4711199 138.89603,47.5535919 138.89603,47.2191247 L138.89603,46.6474591 C138.89603,46.571717 139.048989,46.3770204 139.133473,46.3770204 L139.683628,46.3770204 C140.018081,46.3770204 140.935624,46.1174947 140.935624,45.7830204 C140.935624,45.4485462 140.018081,45.1890204 139.683628,45.1890204 Z" id="Path" fill="#2196F3" fill-rule="nonzero"></path>
                <circle id="Oval" fill="#0D47A1" fill-rule="nonzero" cx="159.44843" cy="57.0294149" r="1"></circle>
                <circle id="Oval" fill="#0D47A1" fill-rule="nonzero" cx="126.42203" cy="31.6062149" r="1"></circle>
                <circle id="Oval" fill="url(#linearGradient-12)" fill-rule="nonzero" cx="150.766129" cy="55.1583197" r="2.20944953"></circle>
                <circle id="Oval" fill="url(#linearGradient-12)" fill-rule="nonzero" cx="118.690129" cy="59.1975197" r="2.20944953"></circle>
                <circle id="Oval" fill="url(#linearGradient-12)" fill-rule="nonzero" cx="98.4941288" cy="35.6751197" r="2.20944953"></circle>
                <circle id="Oval" fill="url(#linearGradient-12)" fill-rule="nonzero" cx="72.5957288" cy="48.5055197" r="2.20944953"></circle>
                <circle id="Oval" fill="url(#linearGradient-12)" fill-rule="nonzero" cx="27.6893288" cy="39.0015197" r="2.20944953"></circle>
                <circle id="Oval" fill="url(#linearGradient-12)" fill-rule="nonzero" cx="19.8485288" cy="76.7799197" r="2.20944953"></circle>
                <circle id="Oval" fill="url(#linearGradient-11)" fill-rule="nonzero" cx="143.99948" cy="31.7153731" r="1.19413721"></circle>
                <circle id="Oval" fill="url(#linearGradient-11)" fill-rule="nonzero" cx="81.2730804" cy="62.1281731" r="1.19413721"></circle>
                <circle id="Oval" fill="url(#linearGradient-11)" fill-rule="nonzero" cx="13.0818804" cy="45.2585731" r="1.19413721"></circle>
                <circle id="Oval" fill="url(#linearGradient-11)" fill-rule="nonzero" cx="28.5258804" cy="75.4337731" r="1.19413721"></circle>
                <circle id="Oval" fill="url(#linearGradient-11)" fill-rule="nonzero" cx="55.6122804" cy="71.3945731" r="1.19413721"></circle>
                <circle id="Oval" fill="url(#linearGradient-11)" fill-rule="nonzero" cx="94.8162804" cy="52.6241731" r="1.19413721"></circle>
                <circle id="Oval" fill="#82A9FF" fill-rule="nonzero" cx="143.99948" cy="31.7153731" r="1"></circle>
                <circle id="Oval" fill="#64B5F6" fill-rule="nonzero" cx="150.726628" cy="55.2672212" r="1.5444"></circle>
                <ellipse id="Oval" fill="#000000" fill-rule="nonzero" opacity="0.2" cx="85.0608022" cy="98.604" rx="6.8904" ry="1.188"></ellipse>
                <text id="btc" transform="translate(149.543889, 86.357009) rotate(14.000000) translate(-149.543889, -86.357009) " font-family="FontAwesome5Brands-Regular, Font Awesome 5 Brands" font-size="12.32" font-weight="normal" letter-spacing="0.880000013" fill="#FFFFFF">
                    <tspan x="144.923889" y="90.8570093">btc</tspan>
                </text>
                <text id="bolt" font-family="FontAwesome5Pro-Solid, Font Awesome 5 Pro" font-size="12.32" font-weight="700" letter-spacing="0.880000013" fill="#FFFFFF">
                    <tspan x="15.2600022" y="95.48">bolt</tspan>
                </text>
            </g>
        </g>
    </g>
</svg>