<?xml version="1.0" encoding="UTF-8"?>
<svg width="1284px" height="1030px" viewBox="0 0 1284 1030" version="1.1" xmlns="http://www.w3.org/2000/svg" xmlns:xlink="http://www.w3.org/1999/xlink">
    <title>rtl-login1 copy</title>
    <defs>
        <rect id="path-1" x="261" y="332" width="762" height="367"></rect>
        <filter x="-1.9%" y="-3.4%" width="103.8%" height="107.9%" filterUnits="objectBoundingBox" id="filter-2">
            <feOffset dx="0" dy="2" in="SourceAlpha" result="shadowOffsetOuter1"></feOffset>
            <feGaussianBlur stdDeviation="4.5" in="shadowOffsetOuter1" result="shadowBlurOuter1"></feGaussianBlur>
            <feColorMatrix values="0 0 0 0 0.508718297   0 0 0 0 0.508320861   0 0 0 0 0.508320861  0 0 0 0.5 0" type="matrix" in="shadowBlurOuter1"></feColorMatrix>
        </filter>
        <path d="M12,5 C7,5 2.73,8.11 1,12.5 C2.73,16.89 7,20 12,20 C17,20 21.27,16.89 23,12.5 C21.27,8.11 17,5 12,5 Z M12,17.5 C9.24,17.5 7,15.26 7,12.5 C7,9.74 9.24,7.5 12,7.5 C14.76,7.5 17,9.74 17,12.5 C17,15.26 14.76,17.5 12,17.5 Z M12,9.5 C10.34,9.5 9,10.84 9,12.5 C9,14.16 10.34,15.5 12,15.5 C13.66,15.5 15,14.16 15,12.5 C15,10.84 13.66,9.5 12,9.5 Z" id="path-3"></path>
        <rect id="path-5" x="392" y="73" width="66" height="36" rx="4"></rect>
        <filter x="-6.1%" y="-5.6%" width="112.1%" height="122.2%" filterUnits="objectBoundingBox" id="filter-6">
            <feOffset dx="0" dy="2" in="SourceAlpha" result="shadowOffsetOuter1"></feOffset>
            <feGaussianBlur stdDeviation="1" in="shadowOffsetOuter1" result="shadowBlurOuter1"></feGaussianBlur>
            <feColorMatrix values="0 0 0 0 0   0 0 0 0 0   0 0 0 0 0  0 0 0 0.257457386 0" type="matrix" in="shadowBlurOuter1"></feColorMatrix>
        </filter>
        <rect id="path-7" x="0" y="38" width="1284" height="53"></rect>
        <filter x="-0.8%" y="-15.1%" width="101.6%" height="137.7%" filterUnits="objectBoundingBox" id="filter-8">
            <feOffset dx="0" dy="2" in="SourceAlpha" result="shadowOffsetOuter1"></feOffset>
            <feGaussianBlur stdDeviation="3" in="shadowOffsetOuter1" result="shadowBlurOuter1"></feGaussianBlur>
            <feColorMatrix values="0 0 0 0 0   0 0 0 0 0   0 0 0 0 0  0 0 0 0.5 0" type="matrix" in="shadowBlurOuter1"></feColorMatrix>
        </filter>
    </defs>
    <g id="rtl-login1-copy" stroke="none" stroke-width="1" fill="none" fill-rule="evenodd">
        <rect fill="#1D1E1F" x="0" y="0" width="1284" height="1030"></rect>
        <rect id="Background" fill="#F2F5F6" x="0" y="38" width="1284" height="992"></rect>
        <g id="Rectangle-Copy">
            <use fill="black" fill-opacity="1" filter="url(#filter-2)" xlink:href="#path-1"></use>
            <use fill="#FFFFFF" fill-rule="evenodd" xlink:href="#path-1"></use>
        </g>
        <g id="Group-3" transform="translate(541.000000, 425.000000)">
            <g id="Group-2" transform="translate(0.000000, 73.000000)">
                <g id="ðŸ“Trailing-Icon" transform="translate(422.000000, 15.000000)">
                    <mask id="mask-4" fill="white">
                        <use xlink:href="#path-3"></use>
                    </mask>
                    <use id="-â†³Color" fill-opacity="0.38" fill="#000000" xlink:href="#path-3"></use>
                </g>
                <path d="M454,0 C456.209139,-4.05812251e-16 458,1.790861 458,4 L458,52 C458,54.209139 456.209139,56 454,56 L4,56 C1.790861,56 2.705415e-16,54.209139 0,52 L0,4 C-2.705415e-16,1.790861 1.790861,4.05812251e-16 4,0 L454,0 Z M453.5,1 L4.5,1 C2.56700338,1 1,2.56700338 1,4.5 L1,4.5 L1,51.5 C1,53.4329966 2.56700338,55 4.5,55 L4.5,55 L453.5,55 C455.432997,55 457,53.4329966 457,51.5 L457,51.5 L457,4.5 C457,2.56700338 455.432997,1 453.5,1 L453.5,1 Z" id="text-field-outline" fill-opacity="0.38" fill="#000000"></path>
                <text id="âœï¸-Input-text" font-family="Roboto-Regular, Roboto" font-size="16" font-weight="normal" line-spacing="24" letter-spacing="0.150000006" fill="#000000" fill-opacity="0.6">
                    <tspan x="16" y="31">Password</tspan>
                </text>
                <rect id="Rectangle-Copy-7" stroke="#DCDCDC" fill="#FFFFFF" x="318.5" y="73.5" width="65" height="35" rx="4"></rect>
                <text id="Clear" font-family="Roboto-Medium, Roboto" font-size="14" font-weight="400" fill="#4F4F4F">
                    <tspan x="335.138184" y="96">Clear</tspan>
                </text>
                <g id="Rectangle-Copy-7">
                    <use fill="black" fill-opacity="1" filter="url(#filter-6)" xlink:href="#path-5"></use>
                    <use fill="#5E4EA5" fill-rule="evenodd" xlink:href="#path-5"></use>
                </g>
                <text id="Login" font-family="Roboto-Medium, Roboto" font-size="14" font-weight="400" fill="#FFFFFF">
                    <tspan x="407.578613" y="96">Login</tspan>
                </text>
            </g>
            <text id="On-chain-Copy-2" font-family="Roboto-Regular, Roboto" font-size="24" font-weight="normal" fill="#4A4A4A">
                <tspan x="0" y="22">Welcome: Manage your lightning node</tspan>
            </text>
        </g>
        <rect id="Rectangle" fill="#5E4EA5" x="261" y="332" width="251" height="367"></rect>
        <path d="M439.389002,458.31862 C440.157582,460.332856 440.465487,461.924378 440.423356,462.8 C437.446684,460.806768 432.96947,459.112412 430.527103,458.626685 C428.937182,458.309869 434.141633,456.906511 439.389002,458.31862 M444.026824,523.768142 C444.920404,523.579077 445.81857,523.398415 446.717501,523.222336 C447.657326,523.037854 448.599445,522.861012 449.545004,522.6941 C448.786723,522.216663 448.025766,521.743809 447.25984,521.278213 C437.530981,515.362577 427.16041,510.339558 416.913672,505.478104 C410.446876,502.409903 403.860833,499.360035 397.154399,496.611144 C403.004327,488.899963 410.49465,482.355639 418.50056,476.749765 C418.507439,476.745181 418.539926,476.722646 418.590376,476.687125 C420.342756,479.076984 422.557977,480.703325 423.668646,481.314444 C425.839915,482.509947 428.574544,483.627149 431.088645,483.968612 C436.032763,484.640462 440.115024,484.536953 444.631462,483.758922 C445.038503,483.689025 445.448602,483.639372 445.85679,483.571385 C448.753089,483.087454 450.606369,483.01412 452.302948,482.982418 C454.549892,482.940404 455.662853,483.415931 455.927335,483.484682 C456.729951,483.692081 457.412175,484.035453 457.791316,484.496085 C458.231609,485.056787 458.702095,485.585787 459.206215,486.070099 C460.718191,487.573834 462.219466,488.406485 464.397615,488.645203 C467.20104,488.952291 469.185414,487.856477 470.588464,486.037251 C471.251196,485.178247 470.93206,483.829201 470.859443,483.56451 C470.491386,482.211262 469.641759,480.242694 469.026802,478.4101 C468.867425,477.936482 468.095002,476.48049 467.165496,475.492387 C466.85859,475.165438 466.549774,474.839253 466.24134,474.51345 C464.797777,472.987561 463.342747,471.473131 461.900331,469.948388 C456.144806,463.868515 449.905417,458.270661 443.473019,452.918402 C442.806465,452.363811 442.138764,451.807692 441.469917,451.25272 C440.984907,450.849763 440.497987,450.449098 440.01183,450.047669 C439.764548,449.843707 439.517648,449.640128 439.269601,449.436549 C438.746372,449.006474 438.221613,448.579454 437.695708,448.152817 C437.488175,447.984759 437.279876,447.817847 437.07196,447.650171 C436.744416,447.386626 435.996836,446.757555 435.367356,446.253763 C437.453777,444.175193 439.13736,442.881148 442.125769,440.92442 C442.554214,440.644069 444.862692,439.413428 444.781284,439.100993 C444.732362,438.91231 440.942101,438.955088 436.599181,439.514263 C435.073445,439.710585 426.521757,440.972546 420.650043,442.251313 C414.399571,443.6122 407.799388,445.514691 401.72014,447.427112 C384.160036,452.951631 367.392612,460.438607 352.038175,470.613745 C343.213979,476.461393 334.953908,482.914431 326.98125,489.86706 C323.265899,493.106374 319.573099,496.397634 315.967439,499.779798 C315.40255,500.309562 314.842247,500.843909 314.281945,501.378639 C315.049781,501.522252 315.817235,501.672358 316.583161,501.829721 C322.932622,503.132933 329.212524,504.874623 335.318143,506.618605 C342.785534,508.751412 350.340067,511.050748 357.645025,513.873356 C353.482502,517.830736 349.421645,521.885513 345.555708,526.176334 C338.275976,534.25495 331.489662,542.789614 325.157017,551.627164 C316.905354,563.14218 309.861056,575.560889 303.720657,588.358874 C303.138951,589.569655 302.564125,590.783109 302,592 C303.135894,591.091342 304.278667,590.190705 305.429848,589.298089 C315.370828,581.593783 325.852236,574.470041 336.317209,567.587692 C351.042548,557.90336 366.845686,549.902661 383.244289,543.464901 C403.014646,535.703685 423.204657,528.174313 444.026824,523.768142" id="Fill-1" fill="#FFFFFE"></path>
        <g id="Rectangle-13">
            <use fill="black" fill-opacity="1" filter="url(#filter-8)" xlink:href="#path-7"></use>
            <use fill="#5E4EA5" fill-rule="evenodd" xlink:href="#path-7"></use>
        </g>
        <g id="Browser">
            <path d="M0,6.00024414 C0,2.68640081 2.6794487,0 5.99234946,0 L1278.00765,0 C1281.31713,0 1284,2.68722626 1284,6.00024414 L1284,38 L0,38 L0,6.00024414 Z" id="Tab-BG---Right" fill="#363738"></path>
            <circle id="Dot---Red" fill="#FF5F57" cx="18" cy="19" r="6"></circle>
            <circle id="Dot---Orange" fill="#FFBF2F" cx="38" cy="19" r="6"></circle>
            <circle id="Dot---Green" fill="#28CA42" cx="58" cy="19" r="6"></circle>
            <g id="Back" transform="translate(76.000000, 7.000000)">
                <rect id="Rectangle" fill="#656668" x="0" y="0" width="28" height="24" rx="4"></rect>
                <path d="M10.1607883,11.3246277 L15.780455,5.65901618 C15.9603839,5.47908726 16.2513057,5.47908726 16.4312347,5.65901618 L17.1891941,6.41697565 C17.3691231,6.59690457 17.3691231,6.88782642 17.1891941,7.06775535 L12.6528768,11.6500175 L17.1891941,16.2322797 C17.3691231,16.4122086 17.3691231,16.7031305 17.1891941,16.8830594 L16.4312347,17.6410189 C16.2513057,17.8209478 15.9603839,17.8209478 15.780455,17.6410189 L10.1607883,11.9754074 C9.98085942,11.7954785 9.98085942,11.5045566 10.1607883,11.3246277 Z" id="a" fill="#FFFFFF" fill-rule="nonzero"></path>
            </g>
            <g id="Forward" transform="translate(105.000000, 7.000000)">
                <rect id="Rectangle" fill="#656668" x="0" y="0" width="28" height="24" rx="4"></rect>
                <path d="M18.1891941,11.9754074 L12.5695275,17.6410189 C12.3895986,17.8209478 12.0986767,17.8209478 11.9187478,17.6410189 L11.1607883,16.8830594 C10.9808594,16.7031305 10.9808594,16.4122086 11.1607883,16.2322797 L15.6971057,11.6500175 L11.1607883,7.06775535 C10.9808594,6.88782642 10.9808594,6.59690457 11.1607883,6.41697565 L11.9187478,5.65901618 C12.0986767,5.47908726 12.3895986,5.47908726 12.5695275,5.65901618 L18.1891941,11.3246277 C18.3691231,11.5045566 18.3691231,11.7954785 18.1891941,11.9754074 Z" id="a" fill="#FFFFFF" fill-rule="nonzero" opacity="0.200334821"></path>
            </g>
            <g id="New-Tab" transform="translate(1260.000000, 14.000000)">
                <rect id="Rectangle" fill="#292A2B" x="0" y="0" width="24" height="24"></rect>
                <path d="M16.2531029,11.6843877 C16.3618742,11.6843877 16.4499775,11.7724909 16.4499775,11.8812622 L16.4499775,12.6687603 C16.4499775,12.7775316 16.3618742,12.8656349 16.2531029,12.8656349 L12.3156123,12.8656349 L12.3156123,16.8031255 C12.3156123,16.9118967 12.2275091,17 12.1187378,17 L11.3312397,17 C11.2224684,17 11.1343651,16.9118967 11.1343651,16.8031255 L11.1343651,12.8656349 L7.19687453,12.8656349 C7.08810328,12.8656349 7,12.7775316 7,12.6687603 L7,11.8812622 C7,11.7724909 7.08810328,11.6843877 7.19687453,11.6843877 L11.1343651,11.6843877 L11.1343651,7.74689706 C11.1343651,7.63812581 11.2224684,7.55002253 11.3312397,7.55002253 L12.1187378,7.55002253 C12.2275091,7.55002253 12.3156123,7.63812581 12.3156123,7.74689706 L12.3156123,11.6843877 L16.2531029,11.6843877 Z" id="p" fill="#FFFFFF" fill-rule="nonzero" opacity="0.497907366"></path>
            </g>
            <g id="URL" transform="translate(378.000000, 7.000000)">
                <path d="M0,3.99005301 C0,1.78640758 1.78094395,5.31029755e-14 3.99753941,5.28693238e-14 L516.002461,-1.1012102e-15 C518.210241,-1.33393271e-15 520,1.78429328 520,3.99005301 L520,20.009947 C520,22.2135924 518.219056,24 516.002461,24 L3.99753941,24 C1.78975936,24 0,22.2157067 0,20.009947 L0,3.99005301 Z" id="URL-Bar" fill="#696A6B"></path>
                <path d="M512.304658,5.17186422 C512.467743,5.17186422 512.59997,5.30412783 512.59997,5.46721261 L512.59997,10.1922013 C512.59997,10.3552861 512.467743,10.4875131 512.304658,10.4875131 L507.579669,10.4875131 C507.416585,10.4875131 507.284358,10.3552861 507.284358,10.1922013 L507.284358,9.51027815 C507.284358,9.34440559 507.42091,9.21109712 507.586711,9.21503845 L510.69705,9.2890827 C509.940722,7.61516854 508.257531,6.45158527 506.299985,6.45158527 C503.633864,6.45158527 501.476559,8.60927437 501.476559,11.2750113 C501.476559,13.9411327 503.634248,16.0984373 506.299985,16.0984373 C507.533046,16.0984373 508.65724,15.6369165 509.509554,14.8770557 C509.6264,14.7728747 509.804938,14.7799403 509.915632,14.8906341 L510.401377,15.3763797 C510.521276,15.4962781 510.51534,15.6917347 510.389505,15.8053845 C509.307296,16.7829079 507.873155,17.3781217 506.299985,17.3781217 C502.93257,17.3781217 500.202138,14.6509336 500.19686,11.2847685 C500.191635,7.92836054 502.924087,5.18242707 506.280471,5.17186422 C508.411171,5.16526784 510.288545,6.2506252 511.385221,7.89993005 L511.327471,5.47425415 C511.32353,5.30842965 511.456862,5.17186422 511.622711,5.17186422 L512.304658,5.17186422 Z" id="r" fill="#FFFFFF" fill-rule="nonzero" transform="translate(506.398415, 11.274993) rotate(-45.000000) translate(-506.398415, -11.274993) "></path>
                <text id="Ride-the-Lightning" font-family="Roboto-Regular, Roboto" font-size="12.6" font-weight="normal" fill="#FFFFFF">
                    <tspan x="210" y="17">Ride the Lightning</tspan>
                </text>
            </g>
        </g>
        <text id="Dashboard-Copy" font-family="Roboto-Bold, Roboto" font-size="18" font-weight="bold" fill="#FFFFFF">
            <tspan x="566" y="72">Ride The Lightning</tspan>
        </text>
    </g>
</svg>