<?xml version="1.0" encoding="UTF-8"?>
<svg width="1284px" height="771px" viewBox="0 0 1284 771" version="1.1" xmlns="http://www.w3.org/2000/svg" xmlns:xlink="http://www.w3.org/1999/xlink">
    <!-- Generator: Sketch 63.1 (92452) - https://sketch.com -->
    <title>1.3_LoopPage_Out_Modal</title>
    <desc>Created with Sketch.</desc>
    <defs>
        <rect id="path-1" x="0" y="91" width="218" height="680"></rect>
        <filter x="-6.7%" y="-1.8%" width="113.3%" height="104.3%" filterUnits="objectBoundingBox" id="filter-2">
            <feOffset dx="0" dy="2" in="SourceAlpha" result="shadowOffsetOuter1"></feOffset>
            <feGaussianBlur stdDeviation="4.5" in="shadowOffsetOuter1" result="shadowBlurOuter1"></feGaussianBlur>
            <feColorMatrix values="0 0 0 0 0.508718297   0 0 0 0 0.508320861   0 0 0 0 0.508320861  0 0 0 0.5 0" type="matrix" in="shadowBlurOuter1"></feColorMatrix>
        </filter>
        <rect id="path-3" x="0" y="0" width="1284" height="53"></rect>
        <filter x="-0.8%" y="-15.1%" width="101.6%" height="137.7%" filterUnits="objectBoundingBox" id="filter-4">
            <feOffset dx="0" dy="2" in="SourceAlpha" result="shadowOffsetOuter1"></feOffset>
            <feGaussianBlur stdDeviation="3" in="shadowOffsetOuter1" result="shadowBlurOuter1"></feGaussianBlur>
            <feColorMatrix values="0 0 0 0 0   0 0 0 0 0   0 0 0 0 0  0 0 0 0.5 0" type="matrix" in="shadowBlurOuter1"></feColorMatrix>
        </filter>
        <rect id="path-5" x="0" y="0" width="132" height="36" rx="4"></rect>
        <filter x="-3.0%" y="-5.6%" width="106.1%" height="122.2%" filterUnits="objectBoundingBox" id="filter-6">
            <feOffset dx="0" dy="2" in="SourceAlpha" result="shadowOffsetOuter1"></feOffset>
            <feGaussianBlur stdDeviation="1" in="shadowOffsetOuter1" result="shadowBlurOuter1"></feGaussianBlur>
            <feColorMatrix values="0 0 0 0 0   0 0 0 0 0   0 0 0 0 0  0 0 0 0.257457386 0" type="matrix" in="shadowBlurOuter1"></feColorMatrix>
        </filter>
        <rect id="path-7" x="0" y="0" width="620" height="531" rx="4"></rect>
        <filter x="-7.1%" y="-8.1%" width="115.2%" height="117.7%" filterUnits="objectBoundingBox" id="filter-8">
            <feOffset dx="3" dy="4" in="SourceAlpha" result="shadowOffsetOuter1"></feOffset>
            <feGaussianBlur stdDeviation="15" in="shadowOffsetOuter1" result="shadowBlurOuter1"></feGaussianBlur>
            <feColorMatrix values="0 0 0 0 0   0 0 0 0 0   0 0 0 0 0  0 0 0 0.264450393 0" type="matrix" in="shadowBlurOuter1"></feColorMatrix>
        </filter>
        <rect id="path-9" x="0" y="0" width="523" height="41" rx="4"></rect>
        <filter x="-1.0%" y="-9.8%" width="101.9%" height="124.4%" filterUnits="objectBoundingBox" id="filter-10">
            <feOffset dx="0" dy="1" in="SourceAlpha" result="shadowOffsetOuter1"></feOffset>
            <feGaussianBlur stdDeviation="1.5" in="shadowOffsetOuter1" result="shadowBlurOuter1"></feGaussianBlur>
            <feColorMatrix values="0 0 0 0 0.591259058   0 0 0 0 0.591259058   0 0 0 0 0.591259058  0 0 0 0.5 0" type="matrix" in="shadowBlurOuter1"></feColorMatrix>
        </filter>
        <rect id="path-11" x="0" y="58" width="523" height="41" rx="4"></rect>
        <filter x="-1.0%" y="-9.8%" width="101.9%" height="124.4%" filterUnits="objectBoundingBox" id="filter-12">
            <feOffset dx="0" dy="1" in="SourceAlpha" result="shadowOffsetOuter1"></feOffset>
            <feGaussianBlur stdDeviation="1.5" in="shadowOffsetOuter1" result="shadowBlurOuter1"></feGaussianBlur>
            <feColorMatrix values="0 0 0 0 0.591259058   0 0 0 0 0.591259058   0 0 0 0 0.591259058  0 0 0 0.5 0" type="matrix" in="shadowBlurOuter1"></feColorMatrix>
        </filter>
    </defs>
    <g id="1.3_LoopPage_Out_Modal" stroke="none" stroke-width="1" fill="none" fill-rule="evenodd">
        <rect fill="#131415" x="0" y="0" width="1284" height="771"></rect>
        <rect id="Background" fill="#F2F5F6" x="0" y="38" width="1284" height="733"></rect>
        <g id="Rectangle">
            <use fill="black" fill-opacity="1" filter="url(#filter-2)" xlink:href="#path-1"></use>
            <use fill="#FFFFFF" fill-rule="evenodd" xlink:href="#path-1"></use>
        </g>
        <rect id="Rectangle" fill-opacity="0.114128059" fill="#C2C2C2" x="1" y="300" width="218" height="264"></rect>
        <rect id="Rectangle" fill-opacity="0.114128059" fill="#BEBEBE" x="0" y="490" width="219" height="36"></rect>
        <g id="Browser">
            <path d="M0,6.00024414 C0,2.68640081 2.6794487,0 5.99234946,0 L1278.00765,0 C1281.31713,0 1284,2.68722626 1284,6.00024414 L1284,38 L0,38 L0,6.00024414 Z" id="Tab-BG---Right" fill="#363738"></path>
            <circle id="Dot---Red" fill="#FF5F57" cx="18" cy="19" r="6"></circle>
            <circle id="Dot---Orange" fill="#FFBF2F" cx="38" cy="19" r="6"></circle>
            <circle id="Dot---Green" fill="#28CA42" cx="58" cy="19" r="6"></circle>
            <g id="Back" transform="translate(76.000000, 7.000000)">
                <rect id="Rectangle" fill="#656668" x="0" y="0" width="28" height="24" rx="4"></rect>
                <path d="M10.1607883,11.3246277 L15.780455,5.65901618 C15.9603839,5.47908726 16.2513057,5.47908726 16.4312347,5.65901618 L17.1891941,6.41697565 C17.3691231,6.59690457 17.3691231,6.88782642 17.1891941,7.06775535 L12.6528768,11.6500175 L17.1891941,16.2322797 C17.3691231,16.4122086 17.3691231,16.7031305 17.1891941,16.8830594 L16.4312347,17.6410189 C16.2513057,17.8209478 15.9603839,17.8209478 15.780455,17.6410189 L10.1607883,11.9754074 C9.98085942,11.7954785 9.98085942,11.5045566 10.1607883,11.3246277 Z" id="a" fill="#FFFFFF" fill-rule="nonzero"></path>
            </g>
            <g id="Forward" transform="translate(105.000000, 7.000000)">
                <rect id="Rectangle" fill="#656668" x="0" y="0" width="28" height="24" rx="4"></rect>
                <path d="M18.1891941,11.9754074 L12.5695275,17.6410189 C12.3895986,17.8209478 12.0986767,17.8209478 11.9187478,17.6410189 L11.1607883,16.8830594 C10.9808594,16.7031305 10.9808594,16.4122086 11.1607883,16.2322797 L15.6971057,11.6500175 L11.1607883,7.06775535 C10.9808594,6.88782642 10.9808594,6.59690457 11.1607883,6.41697565 L11.9187478,5.65901618 C12.0986767,5.47908726 12.3895986,5.47908726 12.5695275,5.65901618 L18.1891941,11.3246277 C18.3691231,11.5045566 18.3691231,11.7954785 18.1891941,11.9754074 Z" id="a" fill="#FFFFFF" fill-rule="nonzero" opacity="0.200334821"></path>
            </g>
            <g id="New-Tab" transform="translate(1260.000000, 14.000000)">
                <rect id="Rectangle" fill="#292A2B" x="0" y="0" width="24" height="24"></rect>
                <path d="M16.2531029,11.6843877 C16.3618742,11.6843877 16.4499775,11.7724909 16.4499775,11.8812622 L16.4499775,12.6687603 C16.4499775,12.7775316 16.3618742,12.8656349 16.2531029,12.8656349 L12.3156123,12.8656349 L12.3156123,16.8031255 C12.3156123,16.9118967 12.2275091,17 12.1187378,17 L11.3312397,17 C11.2224684,17 11.1343651,16.9118967 11.1343651,16.8031255 L11.1343651,12.8656349 L7.19687453,12.8656349 C7.08810328,12.8656349 7,12.7775316 7,12.6687603 L7,11.8812622 C7,11.7724909 7.08810328,11.6843877 7.19687453,11.6843877 L11.1343651,11.6843877 L11.1343651,7.74689706 C11.1343651,7.63812581 11.2224684,7.55002253 11.3312397,7.55002253 L12.1187378,7.55002253 C12.2275091,7.55002253 12.3156123,7.63812581 12.3156123,7.74689706 L12.3156123,11.6843877 L16.2531029,11.6843877 Z" id="p" fill="#FFFFFF" fill-rule="nonzero" opacity="0.497907366"></path>
            </g>
            <g id="URL" transform="translate(378.000000, 7.000000)">
                <path d="M0,3.99005301 C0,1.78640758 1.78094395,5.31029755e-14 3.99753941,5.28693238e-14 L516.002461,-1.1012102e-15 C518.210241,-1.33393271e-15 520,1.78429328 520,3.99005301 L520,20.009947 C520,22.2135924 518.219056,24 516.002461,24 L3.99753941,24 C1.78975936,24 0,22.2157067 0,20.009947 L0,3.99005301 Z" id="URL-Bar" fill="#696A6B"></path>
                <path d="M512.304658,5.17186422 C512.467743,5.17186422 512.59997,5.30412783 512.59997,5.46721261 L512.59997,10.1922013 C512.59997,10.3552861 512.467743,10.4875131 512.304658,10.4875131 L507.579669,10.4875131 C507.416585,10.4875131 507.284358,10.3552861 507.284358,10.1922013 L507.284358,9.51027815 C507.284358,9.34440559 507.42091,9.21109712 507.586711,9.21503845 L510.69705,9.2890827 C509.940722,7.61516854 508.257531,6.45158527 506.299985,6.45158527 C503.633864,6.45158527 501.476559,8.60927437 501.476559,11.2750113 C501.476559,13.9411327 503.634248,16.0984373 506.299985,16.0984373 C507.533046,16.0984373 508.65724,15.6369165 509.509554,14.8770557 C509.6264,14.7728747 509.804938,14.7799403 509.915632,14.8906341 L510.401377,15.3763797 C510.521276,15.4962781 510.51534,15.6917347 510.389505,15.8053845 C509.307296,16.7829079 507.873155,17.3781217 506.299985,17.3781217 C502.93257,17.3781217 500.202138,14.6509336 500.19686,11.2847685 C500.191635,7.92836054 502.924087,5.18242707 506.280471,5.17186422 C508.411171,5.16526784 510.288545,6.2506252 511.385221,7.89993005 L511.327471,5.47425415 C511.32353,5.30842965 511.456862,5.17186422 511.622711,5.17186422 L512.304658,5.17186422 Z" id="r" fill="#FFFFFF" fill-rule="nonzero" transform="translate(506.398415, 11.274993) rotate(-45.000000) translate(-506.398415, -11.274993) "></path>
                <text id="Ride-the-Lightning" font-family="Roboto-Regular, Roboto" font-size="12.6" font-weight="normal" fill="#FFFFFF">
                    <tspan x="210" y="17">Ride the Lightning</tspan>
                </text>
            </g>
        </g>
        <g id="Group-20" transform="translate(0.000000, 38.000000)">
            <g id="Rectangle-13">
                <use fill="black" fill-opacity="1" filter="url(#filter-4)" xlink:href="#path-3"></use>
                <use fill="#5E4EA5" fill-rule="evenodd" xlink:href="#path-3"></use>
            </g>
            <text id="Dashboard" font-family="FontAwesome5Pro-Regular, Font Awesome 5 Pro" font-size="18" font-weight="normal" fill="#FFFFFF">
                <tspan x="24" y="33">bars</tspan>
            </text>
            <text id="caret-down-copy" font-family="FontAwesome5Pro-Solid, Font Awesome 5 Pro" font-size="16" font-weight="700" fill="#FFFFFF">
                <tspan x="1256" y="32">caret-down</tspan>
            </text>
            <path d="M1240.89813,18.1212981 C1240.97355,18.5162463 1241.00376,18.8283095 1240.99963,19 C1240.70754,18.6091703 1240.26821,18.2769436 1240.02855,18.181703 C1239.87253,18.1195821 1240.38323,17.8444139 1240.89813,18.1212981 M1241.85028,28.2969635 C1241.98775,28.2673062 1242.12593,28.238967 1242.26423,28.2113468 C1242.40882,28.1824085 1242.55376,28.1546685 1242.69923,28.1284863 C1242.58257,28.0535942 1242.4655,27.9794211 1242.34767,27.9063863 C1240.85092,26.9784435 1239.25545,26.1905189 1237.67903,25.4279378 C1236.68413,24.9466514 1235.6709,24.4682408 1234.63914,24.0370422 C1235.53913,22.8274452 1236.69148,21.8008846 1237.92316,20.9215317 C1237.92422,20.9208128 1237.92922,20.9172779 1237.93698,20.9117059 C1238.20658,21.2865857 1238.54738,21.5416981 1238.71825,21.6375599 C1239.05229,21.8250897 1239.47301,22.0003371 1239.85979,22.0539 C1240.62043,22.1592881 1241.24847,22.1430515 1241.9433,22.0210074 C1242.00592,22.0100432 1242.06902,22.0022544 1242.13181,21.9915897 C1242.5774,21.9156791 1242.86252,21.9041757 1243.12353,21.8992029 C1243.46921,21.8926124 1243.64044,21.9672049 1243.68113,21.9779893 C1243.80461,22.0105225 1243.90957,22.0643848 1243.96789,22.1366407 C1244.03563,22.224594 1244.10801,22.3075744 1244.18557,22.3835449 C1244.41818,22.619425 1244.64915,22.7500368 1244.98425,22.7874828 C1245.41554,22.8356534 1245.72083,22.6637611 1245.93669,22.3783923 C1246.03865,22.2436465 1245.98955,22.0320315 1245.97838,21.9905113 C1245.92175,21.7782372 1245.79104,21.4694422 1245.69643,21.1819764 C1245.67191,21.1076835 1245.55308,20.8792926 1245.41008,20.724296 C1245.36286,20.6730099 1245.31535,20.6218436 1245.2679,20.5707372 C1245.04581,20.3313822 1244.82196,20.0938245 1244.60005,19.8546492 C1243.71459,18.9009435 1242.75468,18.0228488 1241.76508,17.1832787 C1241.66253,17.0962841 1241.55981,17.0090498 1241.45691,16.9219952 C1241.38229,16.8587863 1241.30738,16.7959369 1241.23259,16.7329676 C1241.19455,16.7009737 1241.15656,16.6690397 1241.1184,16.6371058 C1241.0379,16.569643 1240.95717,16.5026595 1240.87626,16.4357359 C1240.84433,16.4093739 1240.81229,16.3831917 1240.7803,16.3568896 C1240.72991,16.3155491 1240.6149,16.2168713 1240.51805,16.1378452 C1240.83904,15.8117951 1241.09806,15.6088076 1241.55781,15.3018699 C1241.62373,15.2578932 1241.97888,15.0648514 1241.96635,15.0158421 C1241.95882,14.9862447 1241.37571,14.992955 1240.70757,15.0806686 C1240.47284,15.1114643 1239.15719,15.309419 1238.25385,15.5100099 C1237.29224,15.7234823 1236.27683,16.0219123 1235.34156,16.3219 C1232.64001,17.1884912 1230.0604,18.3629188 1227.69818,19.9590188 C1226.34061,20.8762969 1225.06983,21.8885382 1223.84327,22.9791466 C1223.27168,23.4872744 1222.70355,24.0035504 1222.14884,24.5340859 C1222.06193,24.6171862 1221.97573,24.7010054 1221.88953,24.7848845 C1222.00766,24.807412 1222.12573,24.8309581 1222.24356,24.8556425 C1223.2204,25.060068 1224.18654,25.3332743 1225.12587,25.60684 C1226.2747,25.9413979 1227.43693,26.3020782 1228.56077,26.7448401 C1227.92038,27.3656056 1227.29564,28.001649 1226.70088,28.6747191 C1225.58092,29.941953 1224.53687,31.2807238 1223.56262,32.6670061 C1222.29313,34.4732832 1221.20939,36.421316 1220.26472,38.4288431 C1220.17522,38.6187694 1220.08679,38.8091151 1220,39 C1220.17475,38.8574654 1220.35056,38.716189 1220.52767,38.5761708 C1222.05705,37.3676523 1223.66957,36.2502026 1225.27957,35.1706183 C1227.54501,33.6515074 1229.97626,32.3964959 1232.49912,31.3866511 C1235.54071,30.1692055 1238.64687,28.9881275 1241.85028,28.2969635" id="Fill-1" fill="#FFFFFE"></path>
        </g>
        <g id="Group-5" transform="translate(0.000000, 414.000000)">
            <g id="Group-2">
                <rect id="Rectangle" fill-opacity="0.114128059" fill="#5E4EA5" opacity="0" x="0" y="0" width="218" height="36"></rect>
                <text id="On-chain-Copy" font-family="Roboto-Regular, Roboto" font-size="14" font-weight="normal" fill="#474747">
                    <tspan x="76" y="23">Graph Lookup</tspan>
                </text>
            </g>
            <text id="search" font-family="FontAwesome5Pro-Solid, Font Awesome 5 Pro" font-size="14" font-weight="700" fill="#858585">
                <tspan x="37" y="23">search</tspan>
            </text>
        </g>
        <g id="Group-5" transform="translate(0.000000, 452.000000)">
            <g id="Group-2">
                <rect id="Rectangle" fill-opacity="0.114128059" fill="#5E4EA5" opacity="0" x="0" y="0" width="218" height="36"></rect>
                <text id="On-chain-Copy" font-family="Roboto-Regular, Roboto" font-size="14" font-weight="normal" fill="#474747">
                    <tspan x="76" y="23">Sign / Verify</tspan>
                </text>
            </g>
            <text id="user-check" font-family="FontAwesome5Pro-Solid, Font Awesome 5 Pro" font-size="14" font-weight="700" fill="#858585">
                <tspan x="37" y="23">user-check</tspan>
            </text>
        </g>
        <g id="Group-5" transform="translate(0.000000, 490.000000)" fill="#5E4EA5">
            <g id="Group-2">
                <rect id="Rectangle" fill-opacity="0.114128059" opacity="0" x="0" y="0" width="218" height="36"></rect>
                <text id="On-chain-Copy" font-family="Roboto-Medium, Roboto" font-size="14" font-weight="400">
                    <tspan x="76" y="23">Loop</tspan>
                </text>
            </g>
            <text id="circle-notch" font-family="FontAwesome5Pro-Solid, Font Awesome 5 Pro" font-size="14" font-weight="700">
                <tspan x="37" y="23">circle-notch</tspan>
            </text>
        </g>
        <g id="Group-5" transform="translate(0.000000, 528.000000)">
            <g id="Group-2">
                <rect id="Rectangle" fill-opacity="0.114128059" fill="#5E4EA5" opacity="0" x="0" y="0" width="218" height="36"></rect>
                <text id="On-chain-Copy" font-family="Roboto-Regular, Roboto" font-size="14" font-weight="normal" fill="#474747">
                    <tspan x="76" y="23">Backup</tspan>
                </text>
            </g>
            <text id="download" font-family="FontAwesome5Pro-Solid, Font Awesome 5 Pro" font-size="14" font-weight="700" fill="#858585">
                <tspan x="37" y="23">download</tspan>
            </text>
        </g>
        <g id="Group-7" transform="translate(0.000000, 376.000000)">
            <g id="Group-2">
                <rect id="Rectangle" fill-opacity="0.114128059" fill="#5E4EA5" opacity="0" x="0" y="0" width="218" height="36"></rect>
                <text id="On-chain-Copy" font-family="Roboto-Regular, Roboto" font-size="14" font-weight="normal" fill="#474747">
                    <tspan x="76" y="23">Routing</tspan>
                </text>
            </g>
            <text id="map-signs" font-family="FontAwesome5Pro-Solid, Font Awesome 5 Pro" font-size="14" font-weight="700" fill="#858585">
                <tspan x="37" y="23">map-signs</tspan>
            </text>
        </g>
        <g id="Group-13" transform="translate(0.000000, 300.000000)">
            <g id="Group-2">
                <g id="Group-11">
                    <rect id="Rectangle" fill-opacity="0.114128059" fill="#5E4EA5" opacity="0" x="0" y="0" width="218" height="36"></rect>
                    <text id="users" font-family="FontAwesome5Pro-Solid, Font Awesome 5 Pro" font-size="14" font-weight="700" fill="#858585">
                        <tspan x="35" y="23">users</tspan>
                    </text>
                </g>
                <text id="On-chain-Copy" font-family="Roboto-Regular, Roboto" font-size="14" font-weight="normal" fill="#474747">
                    <tspan x="77" y="23">Peers / Channels</tspan>
                </text>
            </g>
        </g>
        <rect id="Rectangle" fill="#D8D8D8" opacity="0" x="1" y="203" width="218" height="48"></rect>
        <text id="On-chain" font-family="Roboto-Regular, Roboto" font-size="14" font-weight="normal" fill="#474747">
            <tspan x="71" y="232">On-chain</tspan>
        </text>
        <g id="Group-10" transform="translate(1.000000, 621.000000)">
            <rect id="Rectangle" fill="#D8D8D8" opacity="0" x="0" y="0" width="218" height="48"></rect>
            <text id="On-chain" font-family="Roboto-Regular, Roboto" font-size="14" font-weight="normal" fill="#4A4A4A">
                <tspan x="70" y="29">Settings</tspan>
            </text>
            <text id="cog" font-family="FontAwesome5Pro-Solid, Font Awesome 5 Pro" font-size="14" font-weight="700" fill="#858585">
                <tspan x="25" y="28">cog</tspan>
            </text>
        </g>
        <g id="Group-9" transform="translate(1.000000, 670.000000)">
            <rect id="Rectangle" fill="#D8D8D8" opacity="0" x="0" y="0" width="218" height="48"></rect>
            <text id="On-chain" font-family="Roboto-Regular, Roboto" font-size="14" font-weight="normal" fill="#4A4A4A">
                <tspan x="70" y="29">Help</tspan>
            </text>
            <text id="life-ring" font-family="FontAwesome5Pro-Solid, Font Awesome 5 Pro" font-size="14" font-weight="700" fill="#858585">
                <tspan x="25" y="27">life-ring</tspan>
            </text>
        </g>
        <g id="Group-6" transform="translate(1.000000, 716.000000)">
            <g id="Group-30" transform="translate(0.000000, 7.000000)">
                <g id="Group-3">
                    <rect id="Rectangle" fill="#D8D8D8" opacity="0" x="0" y="0" width="218" height="48"></rect>
                    <text id="On-chain" font-family="Roboto-Regular, Roboto" font-size="14" font-weight="normal" fill="#4A4A4A">
                        <tspan x="70" y="29">Public Key</tspan>
                    </text>
                </g>
                <text id="eye" font-family="FontAwesome5Pro-Solid, Font Awesome 5 Pro" font-size="14" font-weight="700" fill="#858585">
                    <tspan x="24" y="27">eye</tspan>
                </text>
            </g>
            <line x1="0.5" y1="0.5" x2="218.5" y2="0.5" id="Line-3" stroke="#E6E6E6" stroke-linecap="square"></line>
        </g>
        <g id="Group-8" transform="translate(1.000000, 573.000000)">
            <rect id="Rectangle" fill="#D8D8D8" opacity="0" x="0" y="0" width="218" height="48"></rect>
            <text id="On-chain" font-family="Roboto-Regular, Roboto" font-size="14" font-weight="normal" fill="#4A4A4A">
                <tspan x="70" y="29">Node / Network</tspan>
            </text>
            <text id="server" font-family="FontAwesome5Pro-Solid, Font Awesome 5 Pro" font-size="14" font-weight="700" fill="#858585">
                <tspan x="25" y="28">server</tspan>
            </text>
        </g>
        <g id="Group-12" transform="translate(29.000000, 267.000000)" font-size="14">
            <text id="On-chain-Copy" font-family="Roboto-Regular, Roboto" font-weight="normal" fill="#474747">
                <tspan x="42" y="13">Lightning</tspan>
            </text>
            <text id="bolt" font-family="FontAwesome5Pro-Solid, Font Awesome 5 Pro" font-weight="700" fill="#858585">
                <tspan x="0" y="12">bolt</tspan>
            </text>
        </g>
        <text id="Dashboard" font-family="Roboto-Regular, Roboto" font-size="14" font-weight="normal" fill="#4A4A4A">
            <tspan x="71" y="182">Dashboard</tspan>
        </text>
        <g id="Group-18" transform="translate(25.000000, 117.000000)">
            <text id="Dashboard" font-family="Roboto-Regular, Roboto" font-size="16" font-weight="normal" fill="#181818">
                <tspan x="0" y="15">Amora_UK01</tspan>
            </text>
            <path d="M99.6365126,7 L107.823305,7 C108.389692,7 108.672855,7.6718734 108.271959,8.06561025 L104.180132,12.0874818 C103.931957,12.3312251 103.527861,12.3312251 103.279686,12.0874818 L99.1878898,8.06561025 C98.786963,7.6718734 99.0701566,7 99.6365126,7 Z" id="c" fill="#4B4B4B" fill-rule="nonzero"></path>
        </g>
        <text id="tachometer-alt-fast" font-family="FontAwesome5Pro-Solid, Font Awesome 5 Pro" font-size="14" font-weight="700" fill="#858585">
            <tspan x="25" y="181">tachometer-alt-fast</tspan>
        </text>
        <text id="link" font-family="FontAwesome5Pro-Solid, Font Awesome 5 Pro" font-size="14" font-weight="700" fill="#858585">
            <tspan x="26" y="230">link</tspan>
        </text>
        <text id="bolt" font-family="FontAwesome5Pro-Solid, Font Awesome 5 Pro" font-size="14" font-weight="700" fill="#858585">
            <tspan x="29" y="279">bolt</tspan>
        </text>
        <g id="Group-2" transform="translate(0.000000, 338.000000)">
            <rect id="Rectangle" fill-opacity="0.114128059" fill="#5E4EA5" opacity="0" x="0" y="0" width="218" height="36"></rect>
            <text id="On-chain-Copy" font-family="Roboto-Regular, Roboto" font-size="14" font-weight="normal" fill="#4C4C4C">
                <tspan x="76" y="23">Transactions</tspan>
            </text>
        </g>
        <text id="exchange" font-family="FontAwesome5Pro-Solid, Font Awesome 5 Pro" font-size="14" font-weight="700" fill="#7E7E7E">
            <tspan x="37" y="361">exchange</tspan>
        </text>
        <g id="Group-21" transform="translate(242.000000, 108.000000)">
            <g id="Group-8" transform="translate(2.000000, 0.000000)" fill="#84979E" font-size="16">
                <text id="Loop" font-family="Roboto-Regular, Roboto" font-weight="normal">
                    <tspan x="22" y="15">Loop</tspan>
                </text>
                <text id="circle-notch" font-family="FontAwesome5Pro-Solid, Font Awesome 5 Pro" font-weight="700">
                    <tspan x="0" y="15">circle-notch</tspan>
                </text>
            </g>
            <path d="M1012.87223,28.5 L5.1277704,28.5 C3.48633153,28.5 2.88407891,28.6532345 2.28210802,28.975172 C1.71867923,29.276497 1.27649702,29.7186792 0.975172007,30.282108 C0.653234454,30.8840789 0.5,31.4863315 0.5,33.1277704 L0.5,542.87223 C0.5,544.513668 0.653234454,545.115921 0.975172007,545.717892 C1.27649702,546.281321 1.71867923,546.723503 2.28210802,547.024828 C2.88407891,547.346766 3.48633153,547.5 5.1277704,547.5 L1012.87223,547.5 C1014.51367,547.5 1015.11592,547.346766 1015.71789,547.024828 C1016.28132,546.723503 1016.7235,546.281321 1017.02483,545.717892 C1017.34677,545.115921 1017.5,544.513668 1017.5,542.87223 L1017.5,33.1277704 C1017.5,31.4863315 1017.34677,30.8840789 1017.02483,30.282108 C1016.7235,29.7186792 1016.28132,29.276497 1015.71789,28.975172 C1015.11592,28.6532345 1014.51367,28.5 1012.87223,28.5 Z" id="Rectangle" stroke="#DEDEDE" fill="#FFFFFF"></path>
            <line x1="158" y1="81.5" x2="1018.5" y2="80.5" id="Line" stroke="#D7D7D7" stroke-linecap="square"></line>
            <rect id="Rectangle" fill="#5E4EA5" x="0" y="80" width="160" height="2"></rect>
            <rect id="Rectangle" fill="#59316B" opacity="0" x="160" y="80" width="160" height="2"></rect>
            <rect id="Rectangle" fill="#59316B" opacity="0" x="320" y="80" width="160" height="2"></rect>
            <text id="Loop-Out" font-family="Roboto-Medium, Roboto" font-size="14" font-weight="400" fill="#5E4EA5">
                <tspan x="51.5078125" y="63">Loop Out</tspan>
            </text>
            <text id="Loop-In" font-family="Roboto-Regular, Roboto" font-size="14" font-weight="normal" fill="#979797">
                <tspan x="216.822754" y="63">Loop In</tspan>
            </text>
            <g id="Group-17" transform="translate(25.000000, 166.000000)">
                <path d="M962.87223,52.5 L5.1277704,52.5 C3.48633153,52.5 2.88407891,52.6532345 2.28210802,52.975172 C1.71867923,53.276497 1.27649702,53.7186792 0.975172007,54.282108 C0.653234454,54.8840789 0.5,55.4863315 0.5,57.1277704 L0.5,354.87223 C0.5,356.513668 0.653234454,357.115921 0.975172007,357.717892 C1.27649702,358.281321 1.71867923,358.723503 2.28210802,359.024828 C2.88407891,359.346766 3.48633153,359.5 5.1277704,359.5 L962.87223,359.5 C964.513668,359.5 965.115921,359.346766 965.717892,359.024828 C966.281321,358.723503 966.723503,358.281321 967.024828,357.717892 C967.346766,357.115921 967.5,356.513668 967.5,354.87223 L967.5,57.1277704 C967.5,55.4863315 967.346766,54.8840789 967.024828,54.282108 C966.723503,53.7186792 966.281321,53.276497 965.717892,52.975172 C965.115921,52.6532345 964.513668,52.5 962.87223,52.5 Z" id="Rectangle" stroke="#DEDEDE" fill="#FFFFFF"></path>
                <text id="Type" font-family="Roboto-Medium, Roboto" font-size="14" font-weight="400" letter-spacing="0.5" fill="#000000">
                    <tspan x="21" y="86">Type</tspan>
                </text>
                <g id="Group-14" transform="translate(21.000000, 123.000000)" fill="#4F4F4F" font-family="Roboto-Regular, Roboto" font-size="14" font-weight="normal" letter-spacing="0.200000003">
                    <text id="Loop-Out">
                        <tspan x="0" y="13">Loop Out</tspan>
                    </text>
                    <text id="Failed">
                        <tspan x="76" y="13">Failed</tspan>
                    </text>
                    <text id="447,000">
                        <tspan x="318" y="13">447,000</tspan>
                    </text>
                    <text id="0">
                        <tspan x="500.938672" y="13">0</tspan>
                    </text>
                    <text id="0">
                        <tspan x="805" y="13">0</tspan>
                    </text>
                    <text id="0">
                        <tspan x="652" y="13">0</tspan>
                    </text>
                    <text id="13/Feb/2020-17:32">
                        <tspan x="133" y="13">13/Feb/2020 17:32</tspan>
                    </text>
                </g>
                <g id="Group-14" transform="translate(21.000000, 176.000000)" fill="#4F4F4F" font-family="Roboto-Regular, Roboto" font-size="14" font-weight="normal" letter-spacing="0.200000003">
                    <text id="Loop-Out">
                        <tspan x="0" y="13">Loop Out</tspan>
                    </text>
                    <text id="Failed">
                        <tspan x="76" y="13">Failed</tspan>
                    </text>
                    <text id="447,000">
                        <tspan x="318" y="13">447,000</tspan>
                    </text>
                    <text id="0">
                        <tspan x="500.938672" y="13">0</tspan>
                    </text>
                    <text id="0">
                        <tspan x="805" y="13">0</tspan>
                    </text>
                    <text id="0">
                        <tspan x="652" y="13">0</tspan>
                    </text>
                    <text id="13/Feb/2020-17:32">
                        <tspan x="133" y="13">13/Feb/2020 17:32</tspan>
                    </text>
                </g>
                <g id="Group-14" transform="translate(21.000000, 228.000000)" fill="#4F4F4F" font-family="Roboto-Regular, Roboto" font-size="14" font-weight="normal" letter-spacing="0.200000003">
                    <text id="Loop-Out">
                        <tspan x="0" y="13">Loop Out</tspan>
                    </text>
                    <text id="Failed">
                        <tspan x="76" y="13">Failed</tspan>
                    </text>
                    <text id="447,000">
                        <tspan x="318" y="13">447,000</tspan>
                    </text>
                    <text id="0">
                        <tspan x="500.938672" y="13">0</tspan>
                    </text>
                    <text id="0">
                        <tspan x="805" y="13">0</tspan>
                    </text>
                    <text id="0">
                        <tspan x="652" y="13">0</tspan>
                    </text>
                    <text id="13/Feb/2020-17:32">
                        <tspan x="133" y="13">13/Feb/2020 17:32</tspan>
                    </text>
                </g>
                <g id="Group-14" transform="translate(21.000000, 276.000000)" fill="#4F4F4F" font-family="Roboto-Regular, Roboto" font-size="14" font-weight="normal" letter-spacing="0.200000003">
                    <text id="Loop-Out">
                        <tspan x="0" y="13">Loop Out</tspan>
                    </text>
                    <text id="Failed">
                        <tspan x="76" y="13">Failed</tspan>
                    </text>
                    <text id="447,000">
                        <tspan x="318" y="13">447,000</tspan>
                    </text>
                    <text id="0">
                        <tspan x="500.938672" y="13">0</tspan>
                    </text>
                    <text id="0">
                        <tspan x="805" y="13">0</tspan>
                    </text>
                    <text id="0">
                        <tspan x="652" y="13">0</tspan>
                    </text>
                    <text id="13/Feb/2020-17:32">
                        <tspan x="133" y="13">13/Feb/2020 17:32</tspan>
                    </text>
                </g>
                <text id="State" font-family="Roboto-Medium, Roboto" font-size="14" font-weight="400" letter-spacing="0.5" fill="#000000">
                    <tspan x="97" y="86">State</tspan>
                </text>
                <text id="Amount-(sats)" font-family="Roboto-Medium, Roboto" font-size="14" font-weight="400" letter-spacing="0.5" fill="#000000">
                    <tspan x="295" y="86">Amount (sats)</tspan>
                </text>
                <text id="Cost-Server-(sats)" font-family="Roboto-Medium, Roboto" font-size="14" font-weight="400" letter-spacing="0.5" fill="#000000">
                    <tspan x="408" y="86">Cost Server (sats)</tspan>
                </text>
                <text id="Cost-Onchain-(sats)" font-family="Roboto-Medium, Roboto" font-size="14" font-weight="400" letter-spacing="0.5" fill="#000000">
                    <tspan x="701" y="86">Cost Onchain (sats)</tspan>
                </text>
                <text id="Cost-Offchain-(sats)" font-family="Roboto-Medium, Roboto" font-size="14" font-weight="400" letter-spacing="0.5" fill="#000000">
                    <tspan x="548" y="86">Cost Offchain (sats)</tspan>
                </text>
                <text id="Initiation-Time" font-family="Roboto-Medium, Roboto" font-size="14" font-weight="400" letter-spacing="0.5" fill="#000000">
                    <tspan x="154" y="86">Initiation Time</tspan>
                </text>
                <g id="Group-12" transform="translate(866.000000, 73.000000)">
                    <text id="Actions" font-family="Roboto-Medium, Roboto" font-size="14" font-weight="400" letter-spacing="0.5" fill="#000000">
                        <tspan x="31" y="13">Actions</tspan>
                    </text>
                    <g id="Group-25" transform="translate(0.000000, 43.000000)">
                        <g id="Group-5" fill="#FFFFFF" stroke="#DCDCDC">
                            <rect id="Rectangle-Copy-7" x="0.5" y="0.5" width="91" height="35" rx="4"></rect>
                        </g>
                        <text id="View-Info" font-family="Roboto-Medium, Roboto" font-size="14" font-weight="400" fill="#4F4F4F">
                            <tspan x="17.1464844" y="23">View Info</tspan>
                        </text>
                    </g>
                    <g id="Group-25" transform="translate(0.000000, 93.000000)">
                        <g id="Group-5" fill="#FFFFFF" stroke="#DCDCDC">
                            <rect id="Rectangle-Copy-7" x="0.5" y="0.5" width="91" height="35" rx="4"></rect>
                        </g>
                        <text id="View-Info" font-family="Roboto-Medium, Roboto" font-size="14" font-weight="400" fill="#4F4F4F">
                            <tspan x="17.1464844" y="23">View Info</tspan>
                        </text>
                    </g>
                    <g id="Group-25" transform="translate(0.000000, 144.000000)">
                        <g id="Group-5" fill="#FFFFFF" stroke="#DCDCDC">
                            <rect id="Rectangle-Copy-7" x="0.5" y="0.5" width="91" height="35" rx="4"></rect>
                        </g>
                        <text id="View-Info" font-family="Roboto-Medium, Roboto" font-size="14" font-weight="400" fill="#4F4F4F">
                            <tspan x="17.1464844" y="23">View Info</tspan>
                        </text>
                    </g>
                    <g id="Group-25" transform="translate(0.000000, 193.000000)">
                        <g id="Group-5" fill="#FFFFFF" stroke="#DCDCDC">
                            <rect id="Rectangle-Copy-7" x="0.5" y="0.5" width="91" height="35" rx="4"></rect>
                        </g>
                        <text id="View-Info" font-family="Roboto-Medium, Roboto" font-size="14" font-weight="400" fill="#4F4F4F">
                            <tspan x="17.1464844" y="23">View Info</tspan>
                        </text>
                    </g>
                </g>
                <line x1="1" y1="108.5" x2="968.313475" y2="108.5" id="Line-2" stroke="#E1E1E1" stroke-linecap="square"></line>
                <line x1="1" y1="158.5" x2="968.313475" y2="158.5" id="Line-2" stroke="#E1E1E1" stroke-linecap="square"></line>
                <line x1="1" y1="210.5" x2="968.313475" y2="210.5" id="Line-2" stroke="#E1E1E1" stroke-linecap="square"></line>
                <line x1="1" y1="259.5" x2="968.313475" y2="259.5" id="Line-2" stroke="#E1E1E1" stroke-linecap="square"></line>
                <text id="Swap-History" font-family="Roboto-Regular, Roboto" font-size="16" font-weight="normal" fill="#84979E">
                    <tspan x="24" y="35">Swap History</tspan>
                </text>
                <line x1="1" y1="309" x2="968.313475" y2="309" id="Line-2" stroke="#E1E1E1" stroke-linecap="square"></line>
                <g id="Group-33" transform="translate(619.000000, 326.000000)" fill="#4F4F4F" font-size="14" font-weight="normal" letter-spacing="0.200000003">
                    <text id="Rows-per-page:-10-ca" font-family="Roboto-Regular, Roboto">
                        <tspan x="0" y="13">Rows per page: 10  </tspan>
                        <tspan x="125.336133" y="13" font-family="FontAwesome5Pro-Solid, Font Awesome 5 Pro" font-weight="700">caret-down</tspan>
                    </text>
                    <text id="1-4-of-4" font-family="Roboto-Regular, Roboto">
                        <tspan x="188" y="13">1-4 of 4</tspan>
                    </text>
                    <text id="angle-right" font-family="FontAwesome5Pro-Regular, Font Awesome 5 Pro">
                        <tspan x="322" y="13">angle-right</tspan>
                    </text>
                    <text id="angle-left" font-family="FontAwesome5Pro-Regular, Font Awesome 5 Pro">
                        <tspan x="286" y="13">angle-left</tspan>
                    </text>
                </g>
                <g id="Group-15" transform="translate(754.000000, 0.000000)">
                    <path d="M4,0 L208,0 C210.209139,-4.05812251e-16 212,1.790861 212,4 L212,40 L212,40 L0,40 L0,4 C-2.705415e-16,1.790861 1.790861,4.05812251e-16 4,0 Z" id="Rectangle" fill="#F0F0F0"></path>
                    <text id="Filter" font-family="Roboto-Regular, Roboto" font-size="16" font-weight="normal" fill="#717171">
                        <tspan x="14" y="25.9">Filter</tspan>
                    </text>
                    <rect id="Rectangle" stroke="#838383" x="0.5" y="39.7" width="211" height="1"></rect>
                </g>
                <text id="history" font-family="FontAwesome5Pro-Solid, Font Awesome 5 Pro" font-size="16" font-weight="700" fill="#84979E">
                    <tspan x="1" y="35">history</tspan>
                </text>
            </g>
            <g id="Group-16" transform="translate(28.000000, 106.000000)">
                <g id="Rectangle-Copy-7">
                    <use fill="black" fill-opacity="1" filter="url(#filter-6)" xlink:href="#path-5"></use>
                    <use fill="#5E4EA5" fill-rule="evenodd" xlink:href="#path-5"></use>
                </g>
                <text id="Start-Loop-Out" font-family="Roboto-Medium, Roboto" font-size="14" font-weight="400" fill="#FFFFFF">
                    <tspan x="20.9658203" y="23">Start Loop Out</tspan>
                </text>
            </g>
        </g>
        <rect id="Rectangle" fill-opacity="0.249972684" fill="#000000" x="0" y="38" width="1284" height="733"></rect>
        <g id="Group-23" transform="translate(332.000000, 163.000000)">
            <g id="Rectangle-Copy-2">
                <use fill="black" fill-opacity="1" filter="url(#filter-8)" xlink:href="#path-7"></use>
                <use fill="#FFFFFF" fill-rule="evenodd" xlink:href="#path-7"></use>
            </g>
            <g id="Group-22" transform="translate(28.000000, 72.000000)">
                <g id="Group-14" transform="translate(46.000000, 234.000000)"></g>
                <g id="Group-15" transform="translate(34.000000, 154.000000)">
                    <path d="M4,0 L208,0 C210.209139,-4.05812251e-16 212,1.790861 212,4 L212,50 L212,50 L0,50 L0,4 C-2.705415e-16,1.790861 1.790861,4.05812251e-16 4,0 Z" id="Rectangle" fill="#F0F0F0"></path>
                    <text id="Amount" font-family="Roboto-Regular, Roboto" font-size="16" font-weight="normal" fill="#717171">
                        <tspan x="14" y="36">Amount</tspan>
                    </text>
                    <text id="sats" font-family="Roboto-Regular, Roboto" font-size="16" font-weight="normal" fill="#717171">
                        <tspan x="160.570312" y="36">sats</tspan>
                    </text>
                    <text id="Amount" opacity="0" font-family="Roboto-Regular, Roboto" font-size="12" font-weight="normal" fill="#5E4EA5">
                        <tspan x="14" y="17">Amount</tspan>
                    </text>
                    <rect id="Rectangle" stroke="#838383" x="0.5" y="49.5" width="211" height="1"></rect>
                </g>
                <path d="M262,154 L554,154 C556.209139,154 558,155.790861 558,158 L558,204 L558,204 L258,204 L258,158 C258,155.790861 259.790861,154 262,154 Z" id="Rectangle" fill="#F0F0F0"></path>
                <text id="Target-Confirmation" font-family="Roboto-Regular, Roboto" font-size="16" font-weight="normal" fill="#717171">
                    <tspan x="273" y="190">Target Confirmation (Blocks)</tspan>
                </text>
                <text id="Receive-from-Peer" opacity="0" font-family="Roboto-Regular, Roboto" font-size="12" font-weight="normal" fill="#5E4EA5">
                    <tspan x="273" y="171">Receive from Peer</tspan>
                </text>
                <rect id="Rectangle" stroke="#838383" x="258.5" y="203.5" width="299" height="1"></rect>
                <text id="caret-down" font-family="FontAwesome5Pro-Solid, Font Awesome 5 Pro" font-size="15" font-weight="700" fill="#787878">
                    <tspan x="529.625" y="187.15">caret-down</tspan>
                </text>
                <circle id="Oval" fill="#5E4EA5" cx="11" cy="11" r="11"></circle>
                <text id="1" font-family="Roboto-Medium, Roboto" font-size="14" font-weight="400" fill="#FFFFFF">
                    <tspan x="7.02148438" y="16">1</tspan>
                </text>
                <g id="Group-20" transform="translate(1.000000, 355.000000)">
                    <g id="Group-17">
                        <circle id="Oval" fill="#828282" cx="11" cy="11" r="11"></circle>
                        <text id="Loop-Out" font-family="Roboto-Medium, Roboto" font-size="14" font-weight="400" fill="#4F4F4F">
                            <tspan x="37" y="16">Loop-Out</tspan>
                        </text>
                    </g>
                    <text id="3" font-family="Roboto-Medium, Roboto" font-size="14" font-weight="400" fill="#FFFFFF">
                        <tspan x="7.02148438" y="16">3</tspan>
                    </text>
                </g>
                <circle id="Oval" fill="#828282" cx="11" cy="302" r="11"></circle>
                <text id="2" font-family="Roboto-Medium, Roboto" font-size="14" font-weight="400" fill="#FFFFFF">
                    <tspan x="7.02148438" y="307">2</tspan>
                </text>
                <text id="Confirm-Quote" font-family="Roboto-Medium, Roboto" font-size="14" font-weight="400" fill="#4F4F4F">
                    <tspan x="38" y="307">Confirm Quote</tspan>
                </text>
                <line x1="10.5" y1="323.5" x2="10.5" y2="347.5" id="Line-4" stroke="#E2E2E2" stroke-linecap="square"></line>
                <line x1="10.5" y1="31.5" x2="10.5" y2="279.5" id="Line-4" stroke="#E2E2E2" stroke-linecap="square"></line>
                <text id="Amount-to-loop-out" font-family="Roboto-Medium, Roboto" font-size="14" font-weight="400" fill="#4F4F4F">
                    <tspan x="38" y="15">Amount to loop-out</tspan>
                </text>
                <g id="Group-16" transform="translate(35.000000, 35.000000)">
                    <g id="Rectangle">
                        <use fill="black" fill-opacity="1" filter="url(#filter-10)" xlink:href="#path-9"></use>
                        <use fill="#FFFFFF" fill-rule="evenodd" xlink:href="#path-9"></use>
                    </g>
                    <text id="angle-down" font-family="FontAwesome5Pro-Regular, Font Awesome 5 Pro" font-size="16" font-weight="normal" fill="#4F4F4F">
                        <tspan x="499" y="27">angle-down</tspan>
                    </text>
                    <text id="Quote-for-minimum-am" font-family="Roboto-Regular, Roboto" font-size="14" font-weight="normal" fill="#4F4F4F">
                        <tspan x="14" y="26">Quote for minimum amount  (250,000 sats)</tspan>
                    </text>
                    <g id="Rectangle">
                        <use fill="black" fill-opacity="1" filter="url(#filter-12)" xlink:href="#path-11"></use>
                        <use fill="#FFFFFF" fill-rule="evenodd" xlink:href="#path-11"></use>
                    </g>
                    <text id="angle-down" font-family="FontAwesome5Pro-Regular, Font Awesome 5 Pro" font-size="16" font-weight="normal" fill="#4F4F4F">
                        <tspan x="499" y="85">angle-down</tspan>
                    </text>
                    <text id="Quote-for-maximum-am" font-family="Roboto-Regular, Roboto" font-size="14" font-weight="normal" fill="#4F4F4F">
                        <tspan x="14" y="84">Quote for maximum amount (2,000,000 sats)</tspan>
                    </text>
                    <g id="Group-32" transform="translate(0.000000, 56.000000)"></g>
                </g>
                <g id="Group-13" transform="translate(35.000000, 228.000000)">
                    <rect id="Rectangle-Copy-7" x="0" y="0" width="156" height="36" rx="4"></rect>
                    <text id="ESTIMATE-QUOTE" font-family="Roboto-Medium, Roboto" font-size="14" font-weight="400" letter-spacing="1" fill="#432BAE">
                        <tspan x="14.0600586" y="23">ESTIMATE QUOTE</tspan>
                    </text>
                </g>
                <g id="Group-32" transform="translate(34.000000, 279.000000)">
                    <g id="Group-8"></g>
                </g>
                <g id="Group-38" transform="translate(258.000000, 210.000000)">
                    <g id="Group-36-Copy"></g>
                </g>
                <g id="Group-37" transform="translate(0.000000, 10.000000)"></g>
            </g>
            <text id="Loop-out" font-family="Roboto-Medium, Roboto" font-size="20" font-weight="400" fill="#2E2E2E">
                <tspan x="28" y="43">Loop-out</tspan>
            </text>
            <g id="Group-21" transform="translate(515.000000, 473.000000)">
                <rect id="Rectangle-Copy-7" x="0" y="0" width="83" height="36" rx="4"></rect>
                <text id="CANCEL" font-family="Roboto-Medium, Roboto" font-size="14" font-weight="400" letter-spacing="1" fill="#432BAE">
                    <tspan x="12.9736328" y="23">CANCEL</tspan>
                </text>
            </g>
        </g>
    </g>
</svg>