<?xml version="1.0" encoding="UTF-8"?>
<svg width="1284px" height="771px" viewBox="0 0 1284 771" version="1.1" xmlns="http://www.w3.org/2000/svg" xmlns:xlink="http://www.w3.org/1999/xlink">
    <!-- Generator: Sketch 63.1 (92452) - https://sketch.com -->
    <title>2.3_LoopPage_LoopIn_Flow03</title>
    <desc>Created with Sketch.</desc>
    <defs>
        <rect id="path-1" x="0" y="91" width="218" height="680"></rect>
        <filter x="-6.7%" y="-1.8%" width="113.3%" height="104.3%" filterUnits="objectBoundingBox" id="filter-2">
            <feOffset dx="0" dy="2" in="SourceAlpha" result="shadowOffsetOuter1"></feOffset>
            <feGaussianBlur stdDeviation="4.5" in="shadowOffsetOuter1" result="shadowBlurOuter1"></feGaussianBlur>
            <feColorMatrix values="0 0 0 0 0.508718297   0 0 0 0 0.508320861   0 0 0 0 0.508320861  0 0 0 0.5 0" type="matrix" in="shadowBlurOuter1"></feColorMatrix>
        </filter>
        <rect id="path-3" x="0" y="0" width="1284" height="53"></rect>
        <filter x="-0.8%" y="-15.1%" width="101.6%" height="137.7%" filterUnits="objectBoundingBox" id="filter-4">
            <feOffset dx="0" dy="2" in="SourceAlpha" result="shadowOffsetOuter1"></feOffset>
            <feGaussianBlur stdDeviation="3" in="shadowOffsetOuter1" result="shadowBlurOuter1"></feGaussianBlur>
            <feColorMatrix values="0 0 0 0 0   0 0 0 0 0   0 0 0 0 0  0 0 0 0.5 0" type="matrix" in="shadowBlurOuter1"></feColorMatrix>
        </filter>
        <rect id="path-5" x="0" y="0" width="113" height="36" rx="4"></rect>
        <filter x="-3.5%" y="-5.6%" width="107.1%" height="122.2%" filterUnits="objectBoundingBox" id="filter-6">
            <feOffset dx="0" dy="2" in="SourceAlpha" result="shadowOffsetOuter1"></feOffset>
            <feGaussianBlur stdDeviation="1" in="shadowOffsetOuter1" result="shadowBlurOuter1"></feGaussianBlur>
            <feColorMatrix values="0 0 0 0 0   0 0 0 0 0   0 0 0 0 0  0 0 0 0.257457386 0" type="matrix" in="shadowBlurOuter1"></feColorMatrix>
        </filter>
        <rect id="path-7" x="415" y="139" width="455" height="495" rx="4"></rect>
        <filter x="-9.7%" y="-8.7%" width="120.7%" height="119.0%" filterUnits="objectBoundingBox" id="filter-8">
            <feOffset dx="3" dy="4" in="SourceAlpha" result="shadowOffsetOuter1"></feOffset>
            <feGaussianBlur stdDeviation="15" in="shadowOffsetOuter1" result="shadowBlurOuter1"></feGaussianBlur>
            <feColorMatrix values="0 0 0 0 0   0 0 0 0 0   0 0 0 0 0  0 0 0 0.264450393 0" type="matrix" in="shadowBlurOuter1"></feColorMatrix>
        </filter>
        <linearGradient x1="50%" y1="100%" x2="50%" y2="8.86848147e-15%" id="linearGradient-9">
            <stop stop-color="#808080" stop-opacity="0.25" offset="0%"></stop>
            <stop stop-color="#808080" stop-opacity="0.12" offset="54%"></stop>
            <stop stop-color="#808080" stop-opacity="0.1" offset="100%"></stop>
        </linearGradient>
    </defs>
    <g id="2.3_LoopPage_LoopIn_Flow03" stroke="none" stroke-width="1" fill="none" fill-rule="evenodd">
        <rect fill="#131415" x="0" y="0" width="1284" height="771"></rect>
        <rect id="Background" fill="#F2F5F6" x="0" y="38" width="1284" height="733"></rect>
        <g id="Rectangle">
            <use fill="black" fill-opacity="1" filter="url(#filter-2)" xlink:href="#path-1"></use>
            <use fill="#FFFFFF" fill-rule="evenodd" xlink:href="#path-1"></use>
        </g>
        <rect id="Rectangle" fill-opacity="0.114128059" fill="#C2C2C2" x="1" y="300" width="218" height="264"></rect>
        <rect id="Rectangle" fill-opacity="0.114128059" fill="#BEBEBE" x="0" y="490" width="219" height="36"></rect>
        <g id="Browser">
            <path d="M0,6.00024414 C0,2.68640081 2.6794487,0 5.99234946,0 L1278.00765,0 C1281.31713,0 1284,2.68722626 1284,6.00024414 L1284,38 L0,38 L0,6.00024414 Z" id="Tab-BG---Right" fill="#363738"></path>
            <circle id="Dot---Red" fill="#FF5F57" cx="18" cy="19" r="6"></circle>
            <circle id="Dot---Orange" fill="#FFBF2F" cx="38" cy="19" r="6"></circle>
            <circle id="Dot---Green" fill="#28CA42" cx="58" cy="19" r="6"></circle>
            <g id="Back" transform="translate(76.000000, 7.000000)">
                <rect id="Rectangle" fill="#656668" x="0" y="0" width="28" height="24" rx="4"></rect>
                <path d="M10.1607883,11.3246277 L15.780455,5.65901618 C15.9603839,5.47908726 16.2513057,5.47908726 16.4312347,5.65901618 L17.1891941,6.41697565 C17.3691231,6.59690457 17.3691231,6.88782642 17.1891941,7.06775535 L12.6528768,11.6500175 L17.1891941,16.2322797 C17.3691231,16.4122086 17.3691231,16.7031305 17.1891941,16.8830594 L16.4312347,17.6410189 C16.2513057,17.8209478 15.9603839,17.8209478 15.780455,17.6410189 L10.1607883,11.9754074 C9.98085942,11.7954785 9.98085942,11.5045566 10.1607883,11.3246277 Z" id="a" fill="#FFFFFF" fill-rule="nonzero"></path>
            </g>
            <g id="Forward" transform="translate(105.000000, 7.000000)">
                <rect id="Rectangle" fill="#656668" x="0" y="0" width="28" height="24" rx="4"></rect>
                <path d="M18.1891941,11.9754074 L12.5695275,17.6410189 C12.3895986,17.8209478 12.0986767,17.8209478 11.9187478,17.6410189 L11.1607883,16.8830594 C10.9808594,16.7031305 10.9808594,16.4122086 11.1607883,16.2322797 L15.6971057,11.6500175 L11.1607883,7.06775535 C10.9808594,6.88782642 10.9808594,6.59690457 11.1607883,6.41697565 L11.9187478,5.65901618 C12.0986767,5.47908726 12.3895986,5.47908726 12.5695275,5.65901618 L18.1891941,11.3246277 C18.3691231,11.5045566 18.3691231,11.7954785 18.1891941,11.9754074 Z" id="a" fill="#FFFFFF" fill-rule="nonzero" opacity="0.200334821"></path>
            </g>
            <g id="New-Tab" transform="translate(1260.000000, 14.000000)">
                <rect id="Rectangle" fill="#292A2B" x="0" y="0" width="24" height="24"></rect>
                <path d="M16.2531029,11.6843877 C16.3618742,11.6843877 16.4499775,11.7724909 16.4499775,11.8812622 L16.4499775,12.6687603 C16.4499775,12.7775316 16.3618742,12.8656349 16.2531029,12.8656349 L12.3156123,12.8656349 L12.3156123,16.8031255 C12.3156123,16.9118967 12.2275091,17 12.1187378,17 L11.3312397,17 C11.2224684,17 11.1343651,16.9118967 11.1343651,16.8031255 L11.1343651,12.8656349 L7.19687453,12.8656349 C7.08810328,12.8656349 7,12.7775316 7,12.6687603 L7,11.8812622 C7,11.7724909 7.08810328,11.6843877 7.19687453,11.6843877 L11.1343651,11.6843877 L11.1343651,7.74689706 C11.1343651,7.63812581 11.2224684,7.55002253 11.3312397,7.55002253 L12.1187378,7.55002253 C12.2275091,7.55002253 12.3156123,7.63812581 12.3156123,7.74689706 L12.3156123,11.6843877 L16.2531029,11.6843877 Z" id="p" fill="#FFFFFF" fill-rule="nonzero" opacity="0.497907366"></path>
            </g>
            <g id="URL" transform="translate(378.000000, 7.000000)">
                <path d="M0,3.99005301 C0,1.78640758 1.78094395,5.31029755e-14 3.99753941,5.28693238e-14 L516.002461,-1.1012102e-15 C518.210241,-1.33393271e-15 520,1.78429328 520,3.99005301 L520,20.009947 C520,22.2135924 518.219056,24 516.002461,24 L3.99753941,24 C1.78975936,24 0,22.2157067 0,20.009947 L0,3.99005301 Z" id="URL-Bar" fill="#696A6B"></path>
                <path d="M512.304658,5.17186422 C512.467743,5.17186422 512.59997,5.30412783 512.59997,5.46721261 L512.59997,10.1922013 C512.59997,10.3552861 512.467743,10.4875131 512.304658,10.4875131 L507.579669,10.4875131 C507.416585,10.4875131 507.284358,10.3552861 507.284358,10.1922013 L507.284358,9.51027815 C507.284358,9.34440559 507.42091,9.21109712 507.586711,9.21503845 L510.69705,9.2890827 C509.940722,7.61516854 508.257531,6.45158527 506.299985,6.45158527 C503.633864,6.45158527 501.476559,8.60927437 501.476559,11.2750113 C501.476559,13.9411327 503.634248,16.0984373 506.299985,16.0984373 C507.533046,16.0984373 508.65724,15.6369165 509.509554,14.8770557 C509.6264,14.7728747 509.804938,14.7799403 509.915632,14.8906341 L510.401377,15.3763797 C510.521276,15.4962781 510.51534,15.6917347 510.389505,15.8053845 C509.307296,16.7829079 507.873155,17.3781217 506.299985,17.3781217 C502.93257,17.3781217 500.202138,14.6509336 500.19686,11.2847685 C500.191635,7.92836054 502.924087,5.18242707 506.280471,5.17186422 C508.411171,5.16526784 510.288545,6.2506252 511.385221,7.89993005 L511.327471,5.47425415 C511.32353,5.30842965 511.456862,5.17186422 511.622711,5.17186422 L512.304658,5.17186422 Z" id="r" fill="#FFFFFF" fill-rule="nonzero" transform="translate(506.398415, 11.274993) rotate(-45.000000) translate(-506.398415, -11.274993) "></path>
                <text id="Ride-the-Lightning" font-family="Roboto-Regular, Roboto" font-size="12.6" font-weight="normal" fill="#FFFFFF">
                    <tspan x="210" y="17">Ride the Lightning</tspan>
                </text>
            </g>
        </g>
        <g id="Group-20" transform="translate(0.000000, 38.000000)">
            <g id="Rectangle-13">
                <use fill="black" fill-opacity="1" filter="url(#filter-4)" xlink:href="#path-3"></use>
                <use fill="#5E4EA5" fill-rule="evenodd" xlink:href="#path-3"></use>
            </g>
            <text id="Dashboard" font-family="FontAwesome5Pro-Regular, Font Awesome 5 Pro" font-size="18" font-weight="normal" fill="#FFFFFF">
                <tspan x="24" y="33">bars</tspan>
            </text>
            <text id="caret-down-copy" font-family="FontAwesome5Pro-Solid, Font Awesome 5 Pro" font-size="16" font-weight="700" fill="#FFFFFF">
                <tspan x="1256" y="32">caret-down</tspan>
            </text>
            <path d="M1240.89813,18.1212981 C1240.97355,18.5162463 1241.00376,18.8283095 1240.99963,19 C1240.70754,18.6091703 1240.26821,18.2769436 1240.02855,18.181703 C1239.87253,18.1195821 1240.38323,17.8444139 1240.89813,18.1212981 M1241.85028,28.2969635 C1241.98775,28.2673062 1242.12593,28.238967 1242.26423,28.2113468 C1242.40882,28.1824085 1242.55376,28.1546685 1242.69923,28.1284863 C1242.58257,28.0535942 1242.4655,27.9794211 1242.34767,27.9063863 C1240.85092,26.9784435 1239.25545,26.1905189 1237.67903,25.4279378 C1236.68413,24.9466514 1235.6709,24.4682408 1234.63914,24.0370422 C1235.53913,22.8274452 1236.69148,21.8008846 1237.92316,20.9215317 C1237.92422,20.9208128 1237.92922,20.9172779 1237.93698,20.9117059 C1238.20658,21.2865857 1238.54738,21.5416981 1238.71825,21.6375599 C1239.05229,21.8250897 1239.47301,22.0003371 1239.85979,22.0539 C1240.62043,22.1592881 1241.24847,22.1430515 1241.9433,22.0210074 C1242.00592,22.0100432 1242.06902,22.0022544 1242.13181,21.9915897 C1242.5774,21.9156791 1242.86252,21.9041757 1243.12353,21.8992029 C1243.46921,21.8926124 1243.64044,21.9672049 1243.68113,21.9779893 C1243.80461,22.0105225 1243.90957,22.0643848 1243.96789,22.1366407 C1244.03563,22.224594 1244.10801,22.3075744 1244.18557,22.3835449 C1244.41818,22.619425 1244.64915,22.7500368 1244.98425,22.7874828 C1245.41554,22.8356534 1245.72083,22.6637611 1245.93669,22.3783923 C1246.03865,22.2436465 1245.98955,22.0320315 1245.97838,21.9905113 C1245.92175,21.7782372 1245.79104,21.4694422 1245.69643,21.1819764 C1245.67191,21.1076835 1245.55308,20.8792926 1245.41008,20.724296 C1245.36286,20.6730099 1245.31535,20.6218436 1245.2679,20.5707372 C1245.04581,20.3313822 1244.82196,20.0938245 1244.60005,19.8546492 C1243.71459,18.9009435 1242.75468,18.0228488 1241.76508,17.1832787 C1241.66253,17.0962841 1241.55981,17.0090498 1241.45691,16.9219952 C1241.38229,16.8587863 1241.30738,16.7959369 1241.23259,16.7329676 C1241.19455,16.7009737 1241.15656,16.6690397 1241.1184,16.6371058 C1241.0379,16.569643 1240.95717,16.5026595 1240.87626,16.4357359 C1240.84433,16.4093739 1240.81229,16.3831917 1240.7803,16.3568896 C1240.72991,16.3155491 1240.6149,16.2168713 1240.51805,16.1378452 C1240.83904,15.8117951 1241.09806,15.6088076 1241.55781,15.3018699 C1241.62373,15.2578932 1241.97888,15.0648514 1241.96635,15.0158421 C1241.95882,14.9862447 1241.37571,14.992955 1240.70757,15.0806686 C1240.47284,15.1114643 1239.15719,15.309419 1238.25385,15.5100099 C1237.29224,15.7234823 1236.27683,16.0219123 1235.34156,16.3219 C1232.64001,17.1884912 1230.0604,18.3629188 1227.69818,19.9590188 C1226.34061,20.8762969 1225.06983,21.8885382 1223.84327,22.9791466 C1223.27168,23.4872744 1222.70355,24.0035504 1222.14884,24.5340859 C1222.06193,24.6171862 1221.97573,24.7010054 1221.88953,24.7848845 C1222.00766,24.807412 1222.12573,24.8309581 1222.24356,24.8556425 C1223.2204,25.060068 1224.18654,25.3332743 1225.12587,25.60684 C1226.2747,25.9413979 1227.43693,26.3020782 1228.56077,26.7448401 C1227.92038,27.3656056 1227.29564,28.001649 1226.70088,28.6747191 C1225.58092,29.941953 1224.53687,31.2807238 1223.56262,32.6670061 C1222.29313,34.4732832 1221.20939,36.421316 1220.26472,38.4288431 C1220.17522,38.6187694 1220.08679,38.8091151 1220,39 C1220.17475,38.8574654 1220.35056,38.716189 1220.52767,38.5761708 C1222.05705,37.3676523 1223.66957,36.2502026 1225.27957,35.1706183 C1227.54501,33.6515074 1229.97626,32.3964959 1232.49912,31.3866511 C1235.54071,30.1692055 1238.64687,28.9881275 1241.85028,28.2969635" id="Fill-1" fill="#FFFFFE"></path>
        </g>
        <g id="Group-5" transform="translate(0.000000, 414.000000)">
            <g id="Group-2">
                <rect id="Rectangle" fill-opacity="0.114128059" fill="#5E4EA5" opacity="0" x="0" y="0" width="218" height="36"></rect>
                <text id="On-chain-Copy" font-family="Roboto-Regular, Roboto" font-size="14" font-weight="normal" fill="#474747">
                    <tspan x="76" y="23">Graph Lookup</tspan>
                </text>
            </g>
            <text id="search" font-family="FontAwesome5Pro-Solid, Font Awesome 5 Pro" font-size="14" font-weight="700" fill="#858585">
                <tspan x="37" y="23">search</tspan>
            </text>
        </g>
        <g id="Group-5" transform="translate(0.000000, 452.000000)">
            <g id="Group-2">
                <rect id="Rectangle" fill-opacity="0.114128059" fill="#5E4EA5" opacity="0" x="0" y="0" width="218" height="36"></rect>
                <text id="On-chain-Copy" font-family="Roboto-Regular, Roboto" font-size="14" font-weight="normal" fill="#474747">
                    <tspan x="76" y="23">Sign / Verify</tspan>
                </text>
            </g>
            <text id="user-check" font-family="FontAwesome5Pro-Solid, Font Awesome 5 Pro" font-size="14" font-weight="700" fill="#858585">
                <tspan x="37" y="23">user-check</tspan>
            </text>
        </g>
        <g id="Group-5" transform="translate(0.000000, 490.000000)" fill="#5E4EA5">
            <g id="Group-2">
                <rect id="Rectangle" fill-opacity="0.114128059" opacity="0" x="0" y="0" width="218" height="36"></rect>
                <text id="On-chain-Copy" font-family="Roboto-Medium, Roboto" font-size="14" font-weight="400">
                    <tspan x="76" y="23">Loop</tspan>
                </text>
            </g>
            <text id="circle-notch" font-family="FontAwesome5Pro-Solid, Font Awesome 5 Pro" font-size="14" font-weight="700">
                <tspan x="37" y="23">circle-notch</tspan>
            </text>
        </g>
        <g id="Group-5" transform="translate(0.000000, 528.000000)">
            <g id="Group-2">
                <rect id="Rectangle" fill-opacity="0.114128059" fill="#5E4EA5" opacity="0" x="0" y="0" width="218" height="36"></rect>
                <text id="On-chain-Copy" font-family="Roboto-Regular, Roboto" font-size="14" font-weight="normal" fill="#474747">
                    <tspan x="76" y="23">Backup</tspan>
                </text>
            </g>
            <text id="download" font-family="FontAwesome5Pro-Solid, Font Awesome 5 Pro" font-size="14" font-weight="700" fill="#858585">
                <tspan x="37" y="23">download</tspan>
            </text>
        </g>
        <g id="Group-7" transform="translate(0.000000, 376.000000)">
            <g id="Group-2">
                <rect id="Rectangle" fill-opacity="0.114128059" fill="#5E4EA5" opacity="0" x="0" y="0" width="218" height="36"></rect>
                <text id="On-chain-Copy" font-family="Roboto-Regular, Roboto" font-size="14" font-weight="normal" fill="#474747">
                    <tspan x="76" y="23">Routing</tspan>
                </text>
            </g>
            <text id="map-signs" font-family="FontAwesome5Pro-Solid, Font Awesome 5 Pro" font-size="14" font-weight="700" fill="#858585">
                <tspan x="37" y="23">map-signs</tspan>
            </text>
        </g>
        <g id="Group-13" transform="translate(0.000000, 300.000000)">
            <g id="Group-2">
                <g id="Group-11">
                    <rect id="Rectangle" fill-opacity="0.114128059" fill="#5E4EA5" opacity="0" x="0" y="0" width="218" height="36"></rect>
                    <text id="users" font-family="FontAwesome5Pro-Solid, Font Awesome 5 Pro" font-size="14" font-weight="700" fill="#858585">
                        <tspan x="35" y="23">users</tspan>
                    </text>
                </g>
                <text id="On-chain-Copy" font-family="Roboto-Regular, Roboto" font-size="14" font-weight="normal" fill="#474747">
                    <tspan x="77" y="23">Peers / Channels</tspan>
                </text>
            </g>
        </g>
        <rect id="Rectangle" fill="#D8D8D8" opacity="0" x="1" y="203" width="218" height="48"></rect>
        <text id="On-chain" font-family="Roboto-Regular, Roboto" font-size="14" font-weight="normal" fill="#474747">
            <tspan x="71" y="232">On-chain</tspan>
        </text>
        <g id="Group-10" transform="translate(1.000000, 621.000000)">
            <rect id="Rectangle" fill="#D8D8D8" opacity="0" x="0" y="0" width="218" height="48"></rect>
            <text id="On-chain" font-family="Roboto-Regular, Roboto" font-size="14" font-weight="normal" fill="#4A4A4A">
                <tspan x="70" y="29">Settings</tspan>
            </text>
            <text id="cog" font-family="FontAwesome5Pro-Solid, Font Awesome 5 Pro" font-size="14" font-weight="700" fill="#858585">
                <tspan x="25" y="28">cog</tspan>
            </text>
        </g>
        <g id="Group-9" transform="translate(1.000000, 670.000000)">
            <rect id="Rectangle" fill="#D8D8D8" opacity="0" x="0" y="0" width="218" height="48"></rect>
            <text id="On-chain" font-family="Roboto-Regular, Roboto" font-size="14" font-weight="normal" fill="#4A4A4A">
                <tspan x="70" y="29">Help</tspan>
            </text>
            <text id="life-ring" font-family="FontAwesome5Pro-Solid, Font Awesome 5 Pro" font-size="14" font-weight="700" fill="#858585">
                <tspan x="25" y="27">life-ring</tspan>
            </text>
        </g>
        <g id="Group-6" transform="translate(1.000000, 716.000000)">
            <g id="Group-30" transform="translate(0.000000, 7.000000)">
                <g id="Group-3">
                    <rect id="Rectangle" fill="#D8D8D8" opacity="0" x="0" y="0" width="218" height="48"></rect>
                    <text id="On-chain" font-family="Roboto-Regular, Roboto" font-size="14" font-weight="normal" fill="#4A4A4A">
                        <tspan x="70" y="29">Public Key</tspan>
                    </text>
                </g>
                <text id="eye" font-family="FontAwesome5Pro-Solid, Font Awesome 5 Pro" font-size="14" font-weight="700" fill="#858585">
                    <tspan x="24" y="27">eye</tspan>
                </text>
            </g>
            <line x1="0.5" y1="0.5" x2="218.5" y2="0.5" id="Line-3" stroke="#E6E6E6" stroke-linecap="square"></line>
        </g>
        <g id="Group-8" transform="translate(1.000000, 573.000000)">
            <rect id="Rectangle" fill="#D8D8D8" opacity="0" x="0" y="0" width="218" height="48"></rect>
            <text id="On-chain" font-family="Roboto-Regular, Roboto" font-size="14" font-weight="normal" fill="#4A4A4A">
                <tspan x="70" y="29">Node / Network</tspan>
            </text>
            <text id="server" font-family="FontAwesome5Pro-Solid, Font Awesome 5 Pro" font-size="14" font-weight="700" fill="#858585">
                <tspan x="25" y="28">server</tspan>
            </text>
        </g>
        <g id="Group-12" transform="translate(29.000000, 267.000000)" font-size="14">
            <text id="On-chain-Copy" font-family="Roboto-Regular, Roboto" font-weight="normal" fill="#474747">
                <tspan x="42" y="13">Lightning</tspan>
            </text>
            <text id="bolt" font-family="FontAwesome5Pro-Solid, Font Awesome 5 Pro" font-weight="700" fill="#858585">
                <tspan x="0" y="12">bolt</tspan>
            </text>
        </g>
        <text id="Dashboard" font-family="Roboto-Regular, Roboto" font-size="14" font-weight="normal" fill="#4A4A4A">
            <tspan x="71" y="182">Dashboard</tspan>
        </text>
        <g id="Group-18" transform="translate(25.000000, 117.000000)">
            <text id="Dashboard" font-family="Roboto-Regular, Roboto" font-size="16" font-weight="normal" fill="#181818">
                <tspan x="0" y="15">Amora_UK01</tspan>
            </text>
            <path d="M99.6365126,7 L107.823305,7 C108.389692,7 108.672855,7.6718734 108.271959,8.06561025 L104.180132,12.0874818 C103.931957,12.3312251 103.527861,12.3312251 103.279686,12.0874818 L99.1878898,8.06561025 C98.786963,7.6718734 99.0701566,7 99.6365126,7 Z" id="c" fill="#4B4B4B" fill-rule="nonzero"></path>
        </g>
        <text id="tachometer-alt-fast" font-family="FontAwesome5Pro-Solid, Font Awesome 5 Pro" font-size="14" font-weight="700" fill="#858585">
            <tspan x="25" y="181">tachometer-alt-fast</tspan>
        </text>
        <text id="link" font-family="FontAwesome5Pro-Solid, Font Awesome 5 Pro" font-size="14" font-weight="700" fill="#858585">
            <tspan x="26" y="230">link</tspan>
        </text>
        <text id="bolt" font-family="FontAwesome5Pro-Solid, Font Awesome 5 Pro" font-size="14" font-weight="700" fill="#858585">
            <tspan x="29" y="279">bolt</tspan>
        </text>
        <g id="Group-2" transform="translate(0.000000, 338.000000)">
            <rect id="Rectangle" fill-opacity="0.114128059" fill="#5E4EA5" opacity="0" x="0" y="0" width="218" height="36"></rect>
            <text id="On-chain-Copy" font-family="Roboto-Regular, Roboto" font-size="14" font-weight="normal" fill="#4C4C4C">
                <tspan x="76" y="23">Transactions</tspan>
            </text>
        </g>
        <text id="exchange" font-family="FontAwesome5Pro-Solid, Font Awesome 5 Pro" font-size="14" font-weight="700" fill="#7E7E7E">
            <tspan x="37" y="361">exchange</tspan>
        </text>
        <g id="Group-8" transform="translate(244.000000, 108.000000)" fill="#84979E" font-size="16">
            <text id="Loop" font-family="Roboto-Regular, Roboto" font-weight="normal">
                <tspan x="22" y="15">Loop</tspan>
            </text>
            <text id="circle-notch" font-family="FontAwesome5Pro-Solid, Font Awesome 5 Pro" font-weight="700">
                <tspan x="0" y="15">circle-notch</tspan>
            </text>
        </g>
        <path d="M1254.87223,136.5 L247.12777,136.5 C245.486332,136.5 244.884079,136.653234 244.282108,136.975172 C243.718679,137.276497 243.276497,137.718679 242.975172,138.282108 C242.653234,138.884079 242.5,139.486332 242.5,141.12777 L242.5,650.87223 C242.5,652.513668 242.653234,653.115921 242.975172,653.717892 C243.276497,654.281321 243.718679,654.723503 244.282108,655.024828 C244.884079,655.346766 245.486332,655.5 247.12777,655.5 L1254.87223,655.5 C1256.51367,655.5 1257.11592,655.346766 1257.71789,655.024828 C1258.28132,654.723503 1258.7235,654.281321 1259.02483,653.717892 C1259.34677,653.115921 1259.5,652.513668 1259.5,650.87223 L1259.5,141.12777 C1259.5,139.486332 1259.34677,138.884079 1259.02483,138.282108 C1258.7235,137.718679 1258.28132,137.276497 1257.71789,136.975172 C1257.11592,136.653234 1256.51367,136.5 1254.87223,136.5 Z" id="Rectangle" stroke="#DEDEDE" fill="#FFFFFF"></path>
        <line x1="243.5" y1="188.5" x2="1260.5" y2="188.5" id="Line" stroke="#D7D7D7" stroke-linecap="square"></line>
        <rect id="Rectangle" fill="#59316B" x="402" y="188" width="160" height="2"></rect>
        <text id="Loop-Out" font-family="Roboto-Regular, Roboto" font-size="14" font-weight="normal" fill="#8D8D8D">
            <tspan x="293.630859" y="171">Loop Out</tspan>
        </text>
        <text id="Loop-In" font-family="Roboto-Medium, Roboto" font-size="14" font-weight="400" fill="#5E4EA5">
            <tspan x="458.689453" y="171">Loop In</tspan>
        </text>
        <g id="Group-17" transform="translate(267.000000, 274.000000)">
            <path d="M962.87223,52.5 L5.1277704,52.5 C3.48633153,52.5 2.88407891,52.6532345 2.28210802,52.975172 C1.71867923,53.276497 1.27649702,53.7186792 0.975172007,54.282108 C0.653234454,54.8840789 0.5,55.4863315 0.5,57.1277704 L0.5,354.87223 C0.5,356.513668 0.653234454,357.115921 0.975172007,357.717892 C1.27649702,358.281321 1.71867923,358.723503 2.28210802,359.024828 C2.88407891,359.346766 3.48633153,359.5 5.1277704,359.5 L962.87223,359.5 C964.513668,359.5 965.115921,359.346766 965.717892,359.024828 C966.281321,358.723503 966.723503,358.281321 967.024828,357.717892 C967.346766,357.115921 967.5,356.513668 967.5,354.87223 L967.5,57.1277704 C967.5,55.4863315 967.346766,54.8840789 967.024828,54.282108 C966.723503,53.7186792 966.281321,53.276497 965.717892,52.975172 C965.115921,52.6532345 964.513668,52.5 962.87223,52.5 Z" id="Rectangle" stroke="#DEDEDE" fill="#FFFFFF"></path>
            <text id="Type" font-family="Roboto-Medium, Roboto" font-size="14" font-weight="400" letter-spacing="0.5" fill="#000000">
                <tspan x="21" y="86">Type</tspan>
            </text>
            <g id="Group-14" transform="translate(21.000000, 123.000000)" fill="#4F4F4F" font-family="Roboto-Regular, Roboto" font-size="14" font-weight="normal" letter-spacing="0.200000003">
                <text id="Loop-Out">
                    <tspan x="0" y="13">Loop Out</tspan>
                </text>
                <text id="Failed">
                    <tspan x="76" y="13">Failed</tspan>
                </text>
                <text id="447,000">
                    <tspan x="318" y="13">447,000</tspan>
                </text>
                <text id="0">
                    <tspan x="500.938672" y="13">0</tspan>
                </text>
                <text id="0">
                    <tspan x="805" y="13">0</tspan>
                </text>
                <text id="0">
                    <tspan x="652" y="13">0</tspan>
                </text>
                <text id="13/Feb/2020-17:32">
                    <tspan x="133" y="13">13/Feb/2020 17:32</tspan>
                </text>
            </g>
            <g id="Group-14" transform="translate(21.000000, 176.000000)" fill="#4F4F4F" font-family="Roboto-Regular, Roboto" font-size="14" font-weight="normal" letter-spacing="0.200000003">
                <text id="Loop-Out">
                    <tspan x="0" y="13">Loop Out</tspan>
                </text>
                <text id="Failed">
                    <tspan x="76" y="13">Failed</tspan>
                </text>
                <text id="447,000">
                    <tspan x="318" y="13">447,000</tspan>
                </text>
                <text id="0">
                    <tspan x="500.938672" y="13">0</tspan>
                </text>
                <text id="0">
                    <tspan x="805" y="13">0</tspan>
                </text>
                <text id="0">
                    <tspan x="652" y="13">0</tspan>
                </text>
                <text id="13/Feb/2020-17:32">
                    <tspan x="133" y="13">13/Feb/2020 17:32</tspan>
                </text>
            </g>
            <g id="Group-14" transform="translate(21.000000, 228.000000)" fill="#4F4F4F" font-family="Roboto-Regular, Roboto" font-size="14" font-weight="normal" letter-spacing="0.200000003">
                <text id="Loop-Out">
                    <tspan x="0" y="13">Loop Out</tspan>
                </text>
                <text id="Failed">
                    <tspan x="76" y="13">Failed</tspan>
                </text>
                <text id="447,000">
                    <tspan x="318" y="13">447,000</tspan>
                </text>
                <text id="0">
                    <tspan x="500.938672" y="13">0</tspan>
                </text>
                <text id="0">
                    <tspan x="805" y="13">0</tspan>
                </text>
                <text id="0">
                    <tspan x="652" y="13">0</tspan>
                </text>
                <text id="13/Feb/2020-17:32">
                    <tspan x="133" y="13">13/Feb/2020 17:32</tspan>
                </text>
            </g>
            <g id="Group-14" transform="translate(21.000000, 276.000000)" fill="#4F4F4F" font-family="Roboto-Regular, Roboto" font-size="14" font-weight="normal" letter-spacing="0.200000003">
                <text id="Loop-Out">
                    <tspan x="0" y="13">Loop Out</tspan>
                </text>
                <text id="Failed">
                    <tspan x="76" y="13">Failed</tspan>
                </text>
                <text id="447,000">
                    <tspan x="318" y="13">447,000</tspan>
                </text>
                <text id="0">
                    <tspan x="500.938672" y="13">0</tspan>
                </text>
                <text id="0">
                    <tspan x="805" y="13">0</tspan>
                </text>
                <text id="0">
                    <tspan x="652" y="13">0</tspan>
                </text>
                <text id="13/Feb/2020-17:32">
                    <tspan x="133" y="13">13/Feb/2020 17:32</tspan>
                </text>
            </g>
            <text id="State" font-family="Roboto-Medium, Roboto" font-size="14" font-weight="400" letter-spacing="0.5" fill="#000000">
                <tspan x="97" y="86">State</tspan>
            </text>
            <text id="Amount-(sats)" font-family="Roboto-Medium, Roboto" font-size="14" font-weight="400" letter-spacing="0.5" fill="#000000">
                <tspan x="295" y="86">Amount (sats)</tspan>
            </text>
            <text id="Cost-Server-(sats)" font-family="Roboto-Medium, Roboto" font-size="14" font-weight="400" letter-spacing="0.5" fill="#000000">
                <tspan x="408" y="86">Cost Server (sats)</tspan>
            </text>
            <text id="Cost-Onchain-(sats)" font-family="Roboto-Medium, Roboto" font-size="14" font-weight="400" letter-spacing="0.5" fill="#000000">
                <tspan x="701" y="86">Cost Onchain (sats)</tspan>
            </text>
            <text id="Cost-Offchain-(sats)" font-family="Roboto-Medium, Roboto" font-size="14" font-weight="400" letter-spacing="0.5" fill="#000000">
                <tspan x="548" y="86">Cost Offchain (sats)</tspan>
            </text>
            <text id="Initiation-Time" font-family="Roboto-Medium, Roboto" font-size="14" font-weight="400" letter-spacing="0.5" fill="#000000">
                <tspan x="154" y="86">Initiation Time</tspan>
            </text>
            <g id="Group-12" transform="translate(866.000000, 73.000000)">
                <text id="Actions" font-family="Roboto-Medium, Roboto" font-size="14" font-weight="400" letter-spacing="0.5" fill="#000000">
                    <tspan x="31" y="13">Actions</tspan>
                </text>
                <g id="Group-25" transform="translate(0.000000, 43.000000)">
                    <g id="Group-5" fill="#FFFFFF" stroke="#DCDCDC">
                        <rect id="Rectangle-Copy-7" x="0.5" y="0.5" width="91" height="35" rx="4"></rect>
                    </g>
                    <text id="View-Info" font-family="Roboto-Medium, Roboto" font-size="14" font-weight="400" fill="#4F4F4F">
                        <tspan x="17.1464844" y="23">View Info</tspan>
                    </text>
                </g>
                <g id="Group-25" transform="translate(0.000000, 93.000000)">
                    <g id="Group-5" fill="#FFFFFF" stroke="#DCDCDC">
                        <rect id="Rectangle-Copy-7" x="0.5" y="0.5" width="91" height="35" rx="4"></rect>
                    </g>
                    <text id="View-Info" font-family="Roboto-Medium, Roboto" font-size="14" font-weight="400" fill="#4F4F4F">
                        <tspan x="17.1464844" y="23">View Info</tspan>
                    </text>
                </g>
                <g id="Group-25" transform="translate(0.000000, 144.000000)">
                    <g id="Group-5" fill="#FFFFFF" stroke="#DCDCDC">
                        <rect id="Rectangle-Copy-7" x="0.5" y="0.5" width="91" height="35" rx="4"></rect>
                    </g>
                    <text id="View-Info" font-family="Roboto-Medium, Roboto" font-size="14" font-weight="400" fill="#4F4F4F">
                        <tspan x="17.1464844" y="23">View Info</tspan>
                    </text>
                </g>
                <g id="Group-25" transform="translate(0.000000, 193.000000)">
                    <g id="Group-5" fill="#FFFFFF" stroke="#DCDCDC">
                        <rect id="Rectangle-Copy-7" x="0.5" y="0.5" width="91" height="35" rx="4"></rect>
                    </g>
                    <text id="View-Info" font-family="Roboto-Medium, Roboto" font-size="14" font-weight="400" fill="#4F4F4F">
                        <tspan x="17.1464844" y="23">View Info</tspan>
                    </text>
                </g>
            </g>
            <line x1="1" y1="108.5" x2="968.313475" y2="108.5" id="Line-2" stroke="#E1E1E1" stroke-linecap="square"></line>
            <line x1="1" y1="158.5" x2="968.313475" y2="158.5" id="Line-2" stroke="#E1E1E1" stroke-linecap="square"></line>
            <line x1="1" y1="210.5" x2="968.313475" y2="210.5" id="Line-2" stroke="#E1E1E1" stroke-linecap="square"></line>
            <line x1="1" y1="259.5" x2="968.313475" y2="259.5" id="Line-2" stroke="#E1E1E1" stroke-linecap="square"></line>
            <text id="Swap-History" font-family="Roboto-Regular, Roboto" font-size="16" font-weight="normal" fill="#84979E">
                <tspan x="24" y="35">Swap History</tspan>
            </text>
            <line x1="1" y1="309" x2="968.313475" y2="309" id="Line-2" stroke="#E1E1E1" stroke-linecap="square"></line>
            <g id="Group-33" transform="translate(619.000000, 326.000000)" fill="#4F4F4F" font-size="14" font-weight="normal" letter-spacing="0.200000003">
                <text id="Rows-per-page:-10-ca" font-family="Roboto-Regular, Roboto">
                    <tspan x="0" y="13">Rows per page: 10  </tspan>
                    <tspan x="125.336133" y="13" font-family="FontAwesome5Pro-Solid, Font Awesome 5 Pro" font-weight="700">caret-down</tspan>
                </text>
                <text id="1-4-of-4" font-family="Roboto-Regular, Roboto">
                    <tspan x="188" y="13">1-4 of 4</tspan>
                </text>
                <text id="angle-right" font-family="FontAwesome5Pro-Regular, Font Awesome 5 Pro">
                    <tspan x="322" y="13">angle-right</tspan>
                </text>
                <text id="angle-left" font-family="FontAwesome5Pro-Regular, Font Awesome 5 Pro">
                    <tspan x="286" y="13">angle-left</tspan>
                </text>
            </g>
            <g id="Group-15" transform="translate(754.000000, 0.000000)">
                <path d="M4,0 L208,0 C210.209139,-4.05812251e-16 212,1.790861 212,4 L212,40 L212,40 L0,40 L0,4 C-2.705415e-16,1.790861 1.790861,4.05812251e-16 4,0 Z" id="Rectangle" fill="#F0F0F0"></path>
                <text id="Filter" font-family="Roboto-Regular, Roboto" font-size="16" font-weight="normal" fill="#717171">
                    <tspan x="14" y="25.9">Filter</tspan>
                </text>
                <rect id="Rectangle" stroke="#838383" x="0.5" y="39.7" width="211" height="1"></rect>
            </g>
            <text id="history" font-family="FontAwesome5Pro-Solid, Font Awesome 5 Pro" font-size="16" font-weight="700" fill="#84979E">
                <tspan x="1" y="35">history</tspan>
            </text>
        </g>
        <g id="Group-16" transform="translate(267.000000, 214.000000)">
            <g id="Rectangle-Copy-7">
                <use fill="black" fill-opacity="1" filter="url(#filter-6)" xlink:href="#path-5"></use>
                <use fill="#5E4EA5" fill-rule="evenodd" xlink:href="#path-5"></use>
            </g>
            <text id="Start-Loop-In" font-family="Roboto-Medium, Roboto" font-size="14" font-weight="400" fill="#FFFFFF">
                <tspan x="16.6474609" y="23">Start Loop In</tspan>
            </text>
        </g>
        <rect id="Rectangle" fill-opacity="0.249972684" fill="#000000" x="0" y="38" width="1284" height="733"></rect>
        <g id="Rectangle-Copy-2">
            <use fill="black" fill-opacity="1" filter="url(#filter-8)" xlink:href="#path-7"></use>
            <use fill="#FFFFFF" fill-rule="evenodd" xlink:href="#path-7"></use>
        </g>
        <text id="Step-2" font-family="Roboto-Medium, Roboto" font-size="24" font-weight="400" fill="#2E2E2E">
            <tspan x="608.263672" y="430">Step 2</tspan>
        </text>
        <text id="Your-node-makes-an-o" font-family="Roboto-Regular, Roboto" font-size="16" font-weight="normal" fill="#747474">
            <tspan x="496.265625" y="461">Your node makes an on-chain payment to </tspan>
            <tspan x="582.375" y="480">the Loop service.</tspan>
        </text>
        <g id="Group-26" transform="translate(783.000000, 573.000000)">
            <rect id="Rectangle-Copy-7" x="0" y="0" width="63" height="36" rx="4"></rect>
            <text id="NEXT" font-family="Roboto-Medium, Roboto" font-size="14" font-weight="400" letter-spacing="1" fill="#432BAE">
                <tspan x="12.7880859" y="23">NEXT</tspan>
            </text>
        </g>
        <g id="Group-26" transform="translate(684.000000, 573.000000)">
            <rect id="Rectangle-Copy-7" x="0" y="0" width="75" height="36" rx="4"></rect>
            <text id="CLOSE" font-family="Roboto-Medium, Roboto" font-size="14" font-weight="400" letter-spacing="1" fill="#432BAE">
                <tspan x="14.6923828" y="23">CLOSE</tspan>
            </text>
        </g>
        <g id="Group-21" transform="translate(460.000000, 210.000000)">
            <g id="Group-35" transform="translate(107.000000, 10.000000)">
                <circle id="Oval" fill="#F1F1F1" fill-rule="nonzero" cx="214.487742" cy="42.4877419" r="42.4877419"></circle>
                <path d="M232.082742,28.5000036 C236.446821,28.5000036 239.999928,25.1343958 239.999928,21.0000215 C239.999928,16.8656472 236.446821,13.5000393 232.082742,13.5000393 C228.98433,13.5000393 226.560889,15.4359631 224.999964,17.1843872 C223.43904,15.4359631 221.015599,13.5000393 217.917187,13.5000393 C213.553107,13.5000393 210,16.8656472 210,21.0000215 C210,25.1343958 213.553107,28.5000036 217.917187,28.5000036 C221.015599,28.5000036 223.43904,26.5640798 224.999964,24.8156557 C226.560889,26.5640798 228.98433,28.5000036 232.082742,28.5000036 Z M217.917187,24.0000143 C216.032807,24.0000143 214.499989,22.6546959 214.499989,21.0000286 C214.499989,19.3453471 216.032807,18.0000286 217.917187,18.0000286 C219.707771,18.0000286 221.357776,19.6921938 222.323426,21.0000286 C221.36716,22.2937501 219.703102,24.0000143 217.917187,24.0000143 Z M232.082742,24.0000143 C230.292157,24.0000143 228.642152,22.3078492 227.676502,21.0000286 C228.632768,19.7062929 230.296827,18.0000286 232.082742,18.0000286 C233.967121,18.0000286 235.499939,19.3453471 235.499939,21.0000286 C235.499939,22.6546959 233.967121,24.0000143 232.082742,24.0000143 Z" id="i" fill="#5E4EA5" fill-rule="nonzero"></path>
                <g id="Group-44" transform="translate(0.000000, 64.000000)" fill-rule="nonzero">
                    <polygon id="Path" fill="#4A4A4A" transform="translate(118.400000, 7.089946) scale(-1, 1) translate(-118.400000, -7.089946) " points="234.731878 6.60770626 8.52651283e-14 6.60770626 8.52651283e-14 7.57218541 236.8 7.57218541"></polygon>
                    <polygon id="Path" fill="#D0CDE1" transform="translate(118.400000, 8.960000) scale(-1, 1) translate(-118.400000, -8.960000) " points="113.024 5.376 123.776 5.376 123.776 12.544 113.024 12.544"></polygon>
                    <path d="M120.192,8.96 L105.856,8.96 L105.856,1.86517468e-14 L120.192,1.86517468e-14 L120.192,8.96 Z M106.479304,8.57043501 L119.568696,8.57043501 L119.568696,0.389564988 L106.479304,0.389564988 L106.479304,8.57043501 Z" id="Shape" fill="#4A4A4A" transform="translate(113.024000, 4.480000) scale(-1, 1) translate(-113.024000, -4.480000) "></path>
                </g>
                <g id="Group-43" transform="translate(152.000000, 35.000000)">
                    <polygon id="Path" fill="#CBCBCB" fill-rule="nonzero" points="-9.84073267e-14 7.36243469 92.3919279 7.36243469 92.3919279 70.3073253 -1.13686838e-13 70.3073253"></polygon>
                    <path d="M97.5448374,1.70530257e-13 L6.62592538,1.70530257e-13 C6.01615907,0.000922175294 5.52114394,0.495001701 5.52114394,1.104768 L5.52114394,62.57664 C5.52114394,62.8696481 5.63752746,63.150658 5.84471672,63.3578447 C6.05190598,63.5650315 6.3329173,63.681408 6.62592538,63.681408 L97.5448374,63.681408 C97.8378436,63.681408 98.1188523,63.5650282 98.3260389,63.3578415 C98.5332256,63.1506549 98.6496054,62.8696462 98.6496054,62.57664 L98.6496054,1.104768 C98.6496054,0.495005713 98.1545997,0.000926622272 97.5448374,1.70530257e-13 L97.5448374,1.70530257e-13 Z M97.9130952,62.57664 C97.9130952,62.6744022 97.8747043,62.7682496 97.8055756,62.8373783 C97.736447,62.9065069 97.6425996,62.9448978 97.5448374,62.9448978 L6.62592538,62.9448978 C6.52816341,62.9448978 6.4343164,62.906506 6.3651879,62.8373775 C6.29605941,62.768249 6.25766754,62.674402 6.25766754,62.57664 L6.25766754,1.104768 C6.25766754,0.901512883 6.42267026,0.736512 6.62592538,0.736512 L97.5448374,0.736512 C97.7480931,0.736512 97.9130952,0.901512271 97.9130952,1.104768 L97.9130952,62.57664 Z" id="Shape" fill="#4A4A4A" fill-rule="nonzero"></path>
                    <rect id="Rectangle" fill="#4A4A4A" fill-rule="nonzero" x="10.3066764" y="43.4358624" width="41.5947948" height="4.78524211" rx="0.5376"></rect>
                    <path d="M89.8141359,39.3872559 L76.5649839,39.3872559 C76.2719769,39.3872559 75.9909677,39.5036372 75.7837792,39.7108232 C75.5765907,39.9180091 75.4602025,40.1990169 75.4602025,40.4920239 L75.4602025,50.7978159 C75.4602025,51.090824 75.576586,51.3718339 75.7837753,51.5790207 C75.9909645,51.7862074 76.2719759,51.9025839 76.5649839,51.9025839 L89.8141359,51.9025839 C90.107143,51.9025839 90.3881533,51.7862079 90.5953406,51.5790206 C90.8025279,51.3718333 90.9189039,51.090823 90.9189039,50.7978159 L90.9189039,40.4920239 C90.9189039,40.199018 90.8025232,39.9180097 90.5953367,39.7108232 C90.3881502,39.5036367 90.1071419,39.3872559 89.8141359,39.3872559 Z M90.1823938,50.7978159 C90.182087,51.0010717 90.0173917,51.165767 89.8141359,51.1660719 L76.5649839,51.1660719 C76.3617256,51.165767 76.1970256,51.0010743 76.19671,50.7978159 L76.19671,40.4920239 C76.1964064,40.3942603 76.2351088,40.3004129 76.30424,40.2312847 C76.3733712,40.1621565 76.4672203,40.1234582 76.5649839,40.1237661 L89.8141359,40.1237661 C89.9118981,40.1234582 90.0057456,40.162157 90.0748742,40.2312857 C90.1440029,40.3004143 90.1827017,40.3942617 90.1823938,40.4920239 L90.1823938,50.7978159 Z" id="Shape" fill="#4A4A4A" fill-rule="nonzero"></path>
                    <rect id="Rectangle" fill="#4A4A4A" fill-rule="nonzero" x="78.6733409" y="41.7652758" width="9.03249715" height="1.86879168" rx="0.5376"></rect>
                    <rect id="Rectangle" fill="#4A4A4A" fill-rule="nonzero" x="78.6733409" y="44.7100416" width="9.03249715" height="1.86879168" rx="0.5376"></rect>
                    <rect id="Rectangle" fill="#4A4A4A" fill-rule="nonzero" x="78.6733409" y="47.6548047" width="9.03249715" height="1.86879168" rx="0.5376"></rect>
                    <rect id="Rectangle" fill="#4A4A4A" fill-rule="nonzero" x="11.4109632" y="4.41773875" width="19.1409684" height="8.09810266" rx="0.5376"></rect>
                    <circle id="Oval" fill="#F2F2F2" fill-rule="nonzero" cx="47.2929593" cy="42.2294561" r="12.9683743"></circle>
                    <path d="M50.1798649,51.9764517 C43.6553251,51.9764517 37.7732336,48.0461636 35.2764005,42.0182748 C32.7795674,35.990386 34.1597014,29.0519859 38.773248,24.4384399 C43.3867946,19.824894 50.3251948,18.4447609 56.3530833,20.9415948 C62.3809718,23.4384287 66.3112582,29.3205207 66.3112582,35.8450605 C66.3011721,44.7500015 59.0848059,51.9663668 50.1798649,51.9764517 L50.1798649,51.9764517 Z M50.1798649,19.9245354 C41.3872016,19.9245354 34.2593397,27.0523972 34.2593397,35.8450605 C34.2593397,44.6377237 41.3872016,51.7655856 50.1798649,51.7655856 C58.9725281,51.7655856 66.10039,44.6377237 66.10039,35.8450605 C66.0904567,27.056515 58.9684103,19.9344686 50.1798649,19.9245354 L50.1798649,19.9245354 Z" id="Shape" fill="#4A4A4A" fill-rule="nonzero"></path>
                    <g id="Group-23" transform="translate(5.000000, 0.001193)">
                        <g id="Group-22">
                            <g id="Group" transform="translate(0.378134, 0.000000)"></g>
                        </g>
                        <g id="Group-24" transform="translate(29.048000, 19.712000)"></g>
                    </g>
                </g>
            </g>
            <g id="Light_Illustration_Step05" fill-rule="nonzero">
                <g id="Group-2">
                    <rect id="Rectangle" fill="#E6E6E6" x="0" y="0" width="81.4032636" height="90.8547569"></rect>
                    <rect id="Rectangle" fill="#FFFFFF" x="1.34483737" y="60.660286" width="78.7116083" height="28.2158368"></rect>
                    <rect id="Rectangle" fill="#C4B7FF" x="7.80560248" y="67.352783" width="46.2328358" height="14.4584872"></rect>
                    <circle id="Oval" fill="#6C63FF" cx="68.9135074" cy="74.4889377" r="7.35996418"></circle>
                    <rect id="Rectangle" fill="#FFFFFF" x="1.34483737" y="31.345208" width="78.7116083" height="28.2158368"></rect>
                    <rect id="Rectangle" fill="#C4B7FF" x="7.80560248" y="38.0377051" width="46.2328358" height="14.4584872"></rect>
                    <circle id="Oval" fill="#6C63FF" cx="68.9135074" cy="45.1758404" r="7.35996418"></circle>
                    <rect id="Rectangle" fill="#FFFFFF" x="1.34483737" y="2.03013005" width="78.7116083" height="28.2158368"></rect>
                    <rect id="Rectangle" fill="#C4B7FF" x="7.80560248" y="8.72460769" width="46.2328358" height="14.4584872"></rect>
                    <rect id="Rectangle" fill="#5E4EA5" x="7.80560248" y="67.352783" width="23.1164179" height="14.4584872"></rect>
                    <rect id="Rectangle" fill="#5E4EA5" x="7.80560248" y="38.0377051" width="33.2298507" height="14.4584872"></rect>
                    <rect id="Rectangle" fill="#5E4EA5" x="7.80560248" y="8.72460769" width="23.1164179" height="14.4584872"></rect>
                    <circle id="Oval" fill="url(#linearGradient-9)" cx="68.9135074" cy="15.8607624" r="7.93434243"></circle>
                    <circle id="Oval" fill="url(#linearGradient-9)" cx="68.9135074" cy="45.3719212" r="7.93434243"></circle>
                    <circle id="Oval" fill="url(#linearGradient-9)" cx="68.9135074" cy="74.6850186" r="7.93434243"></circle>
                    <circle id="Oval" fill="#9B9B9B" cx="68.9135074" cy="15.8607624" r="7.35996418"></circle>
                </g>
                <g id="Group-16" transform="translate(55.804478, 34.674627)">
                    <g id="Group-29" transform="translate(0.310627, 0.751284)">
                        <g id="Group">
                            <path d="M132.777455,1.04124409 L82.2582659,1.04124409 L82.2582659,0 L59.3509036,0 L59.3509036,1.04124409 L8.62346042,1.04124409 C7.71715136,1.04124358 6.84796221,1.40127322 6.20710493,2.0421305 C5.56624765,2.68298778 5.20621852,3.55217693 5.20621852,4.45848599 L5.20621852,73.6347918 C5.20621852,74.5411031 5.56624437,75.4102953 6.2071016,76.0511558 C6.84795882,76.6920163 7.71714912,77.0520512 8.62346042,77.0520512 L132.777455,77.0520512 C134.664749,77.0520512 136.194697,75.522091 136.194697,73.6347977 L136.194697,4.45848599 C136.194697,3.55217693 135.834668,2.68298778 135.193811,2.0421305 C134.552953,1.40127322 133.683764,1.04124358 132.777455,1.04124409 Z" id="Path" fill="#4A4A4A"></path>
                            <rect id="Rectangle" fill="#CBCBCB" x="9.78769098" y="7.08045867" width="121.825532" height="68.7220946"></rect>
                            <polygon id="Path" fill="#000000" opacity="0.1" points="96.7732181 75.8025901 9.78772787 75.8025901 9.78772787 7.08050333"></polygon>
                            <g id="Group-24" transform="translate(16.889738, 38.617955)" fill="#3F3D56">
                                <path d="M14.5668332,29.1332406 C8.67527117,29.1332406 3.36383033,25.5842492 1.10922733,20.1411555 C-1.14537566,14.6980619 0.100864684,8.43279022 4.26682842,4.26682704 C8.43279215,0.100863866 14.698064,-1.14537564 20.1411573,1.10922807 C25.5842507,3.36383179 29.1332406,8.67527311 29.1332406,14.5668351 C29.124133,22.607864 22.6078621,29.1241341 14.5668332,29.1332406 L14.5668332,29.1332406 Z M14.5668332,0.190838576 C6.62718953,0.190838576 0.190836635,6.62719147 0.190836635,14.5668351 C0.190836635,22.5064788 6.62718953,28.9428317 14.5668332,28.9428317 C22.5064768,28.9428317 28.9428297,22.5064788 28.9428297,14.5668351 C28.9338602,6.63090975 22.5027586,0.199808125 14.5668332,0.190838576 L14.5668332,0.190838576 Z" id="Shape"></path>
                            </g>
                            <rect id="Rectangle" fill="#4A4A4A" x="99.0215517" y="44.1428314" width="11.3798353" height="2.37787551"></rect>
                            <rect id="Rectangle" fill="#4A4A4A" x="85.2638409" y="25.6293676" width="38.8952588" height="1.01909033"></rect>
                            <rect id="Rectangle" fill="#4A4A4A" x="85.2638409" y="28.8564861" width="38.8952588" height="1.01909033"></rect>
                            <rect id="Rectangle" fill="#4A4A4A" x="85.2638409" y="32.0836045" width="38.8952588" height="1.01909033"></rect>
                            <rect id="Rectangle" fill="#4A4A4A" x="85.2638409" y="35.310721" width="38.8952588" height="1.01909033"></rect>
                            <rect id="Rectangle" fill="#4A4A4A" x="85.2638409" y="38.5378394" width="38.8952588" height="1.01909033"></rect>
                            <rect id="Rectangle" fill="#F2F2F2" x="119.403347" y="8.47469101" width="4.75575295" height="4.75575295"></rect>
                            <path d="M126.367128,15.4384701 L120.592277,15.4384701 L120.592277,9.66361906 L126.367128,9.66361906 L126.367128,15.4384701 Z M120.843366,15.1873981 L126.116048,15.1873981 L126.116048,9.91470857 L120.843366,9.91470857 L120.843366,15.1873981 Z" id="Shape" fill="#3F3D56"></path>
                            <path d="M139.615294,74.5530572 L127.725913,74.5530572 L127.725913,73.6964356 C127.725915,73.6513884 127.708021,73.6081857 127.676168,73.5763323 C127.644315,73.544479 127.601113,73.5265862 127.556065,73.5265862 L123.479706,73.5265862 C123.434659,73.5265862 123.391457,73.5444797 123.359604,73.5763329 C123.327751,73.6081861 123.309857,73.6513886 123.309859,73.6964356 L123.309859,74.5530572 L120.762134,74.5530572 L120.762134,73.6964356 C120.762135,73.6513886 120.744241,73.6081861 120.712388,73.5763329 C120.680536,73.5444797 120.637333,73.5265862 120.592286,73.5265862 L116.515927,73.5265862 C116.47088,73.5265862 116.427677,73.5444789 116.395824,73.5763322 C116.36397,73.6081855 116.346076,73.6513882 116.346078,73.6964356 L116.346078,74.5530572 L113.798355,74.5530572 L113.798355,73.6964356 C113.798356,73.6513882 113.780462,73.6081855 113.748609,73.5763322 C113.716755,73.5444789 113.673553,73.5265862 113.628505,73.5265862 L109.552146,73.5265862 C109.507099,73.5265862 109.463897,73.5444797 109.432044,73.5763329 C109.400191,73.6081861 109.382297,73.6513886 109.382299,73.6964356 L109.382299,74.5530572 L106.834574,74.5530572 L106.834574,73.6964356 C106.834575,73.6513886 106.816681,73.6081861 106.784828,73.5763329 C106.752975,73.5444797 106.709773,73.5265862 106.664726,73.5265862 L102.588363,73.5265862 C102.543316,73.5265862 102.500113,73.544479 102.46826,73.5763323 C102.436407,73.6081857 102.418513,73.6513884 102.418516,73.6964356 L102.418516,74.5530572 L99.8707946,74.5530572 L99.8707946,73.6964356 C99.8707961,73.6513882 99.8529018,73.6081855 99.8210486,73.5763322 C99.7891953,73.5444789 99.7459925,73.5265862 99.7009452,73.5265862 L95.6245878,73.5265862 C95.5795404,73.5265862 95.5363377,73.5444789 95.5044844,73.5763322 C95.4726311,73.6081855 95.4547369,73.6513882 95.4547384,73.6964356 L95.4547384,74.5530572 L92.9070135,74.5530572 L92.9070135,73.6964356 C92.9070151,73.6513886 92.889121,73.6081861 92.8572682,73.5763329 C92.8254153,73.5444797 92.7822131,73.5265862 92.7371661,73.5265862 L88.6608067,73.5265862 C88.6157597,73.5265862 88.5725575,73.5444797 88.5407046,73.5763329 C88.5088518,73.6081861 88.4909577,73.6513886 88.4909593,73.6964356 L88.4909593,74.5530572 L85.9432383,74.5530572 L85.9432383,73.6964356 C85.9432399,73.6513886 85.9253458,73.6081861 85.893493,73.5763329 C85.8616401,73.5444797 85.8184379,73.5265862 85.7733909,73.5265862 L53.8419073,73.5265862 C53.7968603,73.5265862 53.7536581,73.5444797 53.7218052,73.5763329 C53.6899524,73.6081861 53.6720584,73.6513886 53.6720599,73.6964356 L53.6720599,74.5530572 L51.124335,74.5530572 L51.124335,73.6964356 C51.1243366,73.6513882 51.1064423,73.6081855 51.074589,73.5763322 C51.0427358,73.5444789 50.999533,73.5265862 50.9544857,73.5265862 L46.8781379,73.5265862 C46.8330906,73.5265862 46.7898879,73.5444789 46.7580346,73.5763322 C46.7261813,73.6081855 46.708287,73.6513882 46.7082886,73.6964356 L46.7082886,74.5530572 L44.160554,74.5530572 L44.160554,73.6964356 C44.1605561,73.6513884 44.1426622,73.6081857 44.1108092,73.5763323 C44.0789563,73.544479 44.0357537,73.5265862 43.9907066,73.5265862 L39.9143472,73.5265862 C39.8693002,73.5265862 39.8260979,73.5444797 39.7942451,73.5763329 C39.7623922,73.6081861 39.7444982,73.6513886 39.7444998,73.6964356 L39.7444998,74.5530572 L37.1967749,74.5530572 L37.1967749,73.6964356 C37.1967764,73.6513886 37.1788824,73.6081861 37.1470296,73.5763329 C37.1151767,73.5444797 37.0719745,73.5265862 37.0269275,73.5265862 L32.9505681,73.5265862 C32.9055208,73.5265862 32.862318,73.5444789 32.8304647,73.5763322 C32.7986115,73.6081855 32.7807172,73.6513882 32.7807187,73.6964356 L32.7807187,74.5530572 L30.2329958,74.5530572 L30.2329958,73.6964356 C30.2329973,73.6513882 30.215103,73.6081855 30.1832498,73.5763322 C30.1513965,73.5444789 30.1081938,73.5265862 30.0631464,73.5265862 L25.986787,73.5265862 C25.94174,73.5265862 25.8985378,73.5444797 25.866685,73.5763329 C25.8348321,73.6081861 25.8169381,73.6513886 25.8169396,73.6964356 L25.8169396,74.5530572 L23.2692109,74.5530572 L23.2692109,73.6964356 C23.2692124,73.6513886 23.2513184,73.6081861 23.2194655,73.5763329 C23.1876127,73.5444797 23.1444104,73.5265862 23.0993634,73.5265862 L19.0230079,73.5265862 C18.9779608,73.5265862 18.9347582,73.544479 18.9029053,73.5763323 C18.8710523,73.6081857 18.8531585,73.6513884 18.8531605,73.6964356 L18.8531605,74.5530572 L16.3054357,74.5530572 L16.3054357,73.6964356 C16.3054372,73.6513882 16.2875429,73.6081855 16.2556896,73.5763322 C16.2238364,73.5444789 16.1806336,73.5265862 16.1355863,73.5265862 L12.0592288,73.5265862 C12.0141815,73.5265862 11.9709788,73.5444789 11.9391255,73.5763322 C11.9072722,73.6081855 11.8893779,73.6513882 11.8893795,73.6964356 L11.8893795,74.5530572 L4.07635746,74.5530572 C1.82504753,74.5530594 0,76.3781067 0,78.6294166 L0,80.4726504 C0,82.7239563 1.82505163,84.5489982 4.07635746,84.5489982 L139.615294,84.5489982 C141.8666,84.5489982 143.691654,82.7239566 143.691654,80.4726504 L143.691654,78.6294166 C143.691654,76.3781064 141.866605,74.5530594 139.615294,74.5530572 Z" id="Path" fill="#4A4A4A"></path>
                        </g>
                        <g id="Group" transform="translate(14.563343, 25.890388)">
                            <path d="M34.1898756,18.6935074 C34.8335754,18.7760331 35.5015474,18.8284611 36.1180622,18.6284578 C36.2151512,18.5983603 36.321949,18.5313689 36.3122401,18.4342799 C36.3052976,18.3990002 36.2903506,18.3657846 36.2685501,18.337191 C36.0361522,17.9886397 35.8409087,17.6167008 35.6860164,17.2274642 C35.6798777,17.2071636 35.6672606,17.1894314 35.6500935,17.176978 C35.6300188,17.1697099 35.6080312,17.1697099 35.5879565,17.176978 C35.3034859,17.2517365 35.0578508,17.4352346 34.775322,17.5138766 C34.6312683,17.5533966 34.4809179,17.5646069 34.3325963,17.5468869 C34.2044389,17.5323235 34.0296788,17.4264966 33.9131721,17.440089 C33.9791925,17.8643678 34.1403602,18.2604907 34.1898756,18.6935074 Z" id="Path" fill="#6C63FF"></path>
                            <path d="M46.3638597,17.6187327 C46.7881384,17.3274658 47.2279514,17.0216356 47.4784409,16.5721138 C47.4963243,16.5452282 47.5067138,16.5140596 47.5085385,16.481821 C47.5042662,16.4500929 47.4918946,16.4199997 47.4726155,16.394441 C47.2340087,16.0151166 46.9268212,15.6835648 46.5667756,15.4167552 C46.3789189,15.549458 46.2091963,15.7061249 46.061913,15.8827822 C45.9551152,15.9954054 45.6599648,16.1740491 45.6570521,16.3458965 C45.6570521,16.4429855 45.7696753,16.5556086 45.8221033,16.6371634 C45.8929782,16.7420194 45.9599696,16.8488173 46.0240483,16.9575569 C46.0609421,17.0109558 46.3978408,17.5973731 46.3638597,17.6187327 Z" id="Path" fill="#6C63FF"></path>
                            <path d="M36.7132175,19.9935285 C36.7207976,20.0935521 36.6933371,20.1930963 36.6355464,20.2750865 C36.5902231,20.3206727 36.5341172,20.3540691 36.4724369,20.3721755 C35.5724223,20.6945108 34.5306578,20.2925625 33.632585,20.6100434 C33.448116,20.675093 33.2733558,20.7692693 33.0879159,20.8314062 C32.8668382,20.8978733 32.6387504,20.9382775 32.4082933,20.9517965 C32.0908124,20.9818941 31.7713897,21.0013119 31.4529379,21.0100499 C31.2109788,21.0271812 30.9678332,21.0058814 30.7325379,20.9469421 C30.494578,20.8860354 30.29373,20.7268395 30.1801017,20.5090709 C30.1312849,20.4125511 30.1215484,20.3009295 30.1529168,20.1974154 C30.1669968,20.1619216 30.1870252,20.1290882 30.2121411,20.1003264 C30.2730042,20.0320475 30.3444715,19.9740213 30.423795,19.9284789 L30.7548683,19.7148832 C30.9101158,19.6051008 31.0788103,19.515696 31.2568182,19.4488595 C31.3878883,19.4061404 31.5267255,19.3876935 31.6597374,19.3517706 C32.1247935,19.215846 32.4801391,18.846908 32.8102415,18.4925333 L33.2607343,18.011943 C33.3028503,17.9590638 33.3562578,17.9162715 33.4170475,17.8866982 C33.4795282,17.8658617 33.5459388,17.8595527 33.6112254,17.8682513 C34.0488232,17.8994947 34.4713668,18.041122 34.8394007,18.2799085 C34.9334629,18.3504651 35.0350556,18.4103788 35.1423182,18.4585522 C35.4064002,18.5614665 35.7452406,18.4837953 35.9889339,18.3536961 C36.1044698,18.2915592 36.0792267,18.2566071 36.1277711,18.1459257 C36.1763156,18.0352443 36.2947641,17.9643694 36.3976784,18.0653419 C36.4287289,18.1002598 36.4507324,18.1422664 36.4617571,18.187674 C36.5588461,18.5080675 36.5219523,18.8527333 36.5219523,19.1886611 C36.519104,19.2411857 36.5256803,19.2937961 36.5413701,19.3440034 C36.566144,19.3946232 36.5957307,19.4427421 36.629721,19.4876951 C36.6366398,19.4995928 36.642801,19.5119152 36.6481679,19.5245889 C36.7075588,19.673314 36.7298837,19.8342531 36.7132175,19.9935285 Z" id="Path" fill="#514E7F"></path>
                            <path d="M36.7132175,19.9935285 C36.7207976,20.0935521 36.6933371,20.1930963 36.6355464,20.2750865 C36.5902231,20.3206727 36.5341172,20.3540691 36.4724369,20.3721755 C35.5724223,20.6945108 34.5306578,20.2925625 33.632585,20.6100434 C33.448116,20.675093 33.2733558,20.7692693 33.0879159,20.8314062 C32.8668382,20.8978733 32.6387504,20.9382775 32.4082933,20.9517965 C32.0908124,20.9818941 31.7713897,21.0013119 31.4529379,21.0100499 C31.2109788,21.0271812 30.9678332,21.0058814 30.7325379,20.9469421 C30.494578,20.8860354 30.29373,20.7268395 30.1801017,20.5090709 C30.1312849,20.4125511 30.1215484,20.3009295 30.1529168,20.1974154 C30.1669968,20.1619216 30.1870252,20.1290882 30.2121411,20.1003264 C30.2645691,20.2100369 30.3024338,20.3556704 30.3354441,20.4080984 C30.4256618,20.5652773 30.5791886,20.6760005 30.7568101,20.7119868 C30.8882242,20.7200556 31.0199808,20.7032567 31.1451659,20.6624715 C31.9607132,20.4605264 32.8277175,20.4576138 33.6112254,20.1517835 C33.8801618,20.0459566 34.1364767,19.9051776 34.4190055,19.8410989 C34.7015344,19.7770202 35.0015392,19.7944962 35.2928061,19.770224 C35.7530078,19.7333301 36.1986461,19.5944929 36.6520515,19.5216762 C36.7105975,19.6716231 36.7315958,19.83361 36.7132175,19.9935285 L36.7132175,19.9935285 Z" id="Path" fill="#464353"></path>
                            <path d="M48.4250582,17.5595084 C48.3823391,17.9012616 48.1658307,18.1954411 47.9279627,18.4449597 C47.6900948,18.6944783 47.4211584,18.9187538 47.2318349,19.2061371 C46.9988214,19.5624536 46.8939654,20.0042083 46.5910478,20.3051841 C46.4747693,20.4146353 46.3441148,20.5077266 46.202692,20.5818876 C46.0442646,20.6753601 45.8767312,20.752458 45.7026839,20.8119884 C45.2502494,20.956651 44.7628628,20.9236407 44.2900396,20.8886887 C44.1365309,20.8872131 43.9845596,20.8579372 43.8414886,20.8022795 C43.7763574,20.7691922 43.7140162,20.7308783 43.6550778,20.6877146 C43.5365551,20.6147292 43.4367964,20.5149704 43.363811,20.3964477 C43.3279723,20.332004 43.3179103,20.2563656 43.3356552,20.1847938 C43.3626747,20.1059564 43.4090817,20.0351774 43.4706088,19.9789652 C43.5770067,19.8683202 43.6912186,19.7654647 43.8123619,19.6711932 C43.9785829,19.5639234 44.1283649,19.4331094 44.2570293,19.2828374 C44.335968,19.1640934 44.3940832,19.0327597 44.4288768,18.8944816 C44.4976483,18.652227 44.5396476,18.4031617 44.5541216,18.1517511 C44.5535898,17.9846963 44.5708393,17.8180593 44.6055787,17.6546556 C44.6774245,17.3983408 44.8677189,17.1692108 44.8463593,16.904158 C44.8377185,16.866204 44.8411119,16.8265011 44.8560682,16.7905639 C44.8786704,16.7624825 44.9101823,16.7429588 44.94539,16.7352232 C45.0937604,16.6760869 45.2502282,16.6397523 45.4094752,16.6274545 C45.571226,16.6162976 45.7294484,16.6783037 45.8405502,16.7963893 C45.9065707,16.8760022 45.9502607,16.9905672 46.0473497,17.0216356 C46.0954598,17.0347655 46.1459295,17.0367577 46.1949249,17.027461 C46.4337637,17.0031887 46.686195,16.9730912 46.8745476,16.8187197 C47.0505482,16.6608586 47.152616,16.4366614 47.1561056,16.2002631 C47.1561056,16.1119121 47.1162991,16.0196776 47.2531945,16.0060852 C47.3561088,15.9924927 47.4376635,16.1031741 47.4900916,16.1711364 C47.679415,16.4245386 47.8735929,16.6895914 47.9444679,16.9983343 C47.9720312,16.9876362 48.0013112,16.9820434 48.030877,16.9818292 C48.1537854,16.9807475 48.2694521,17.0398499 48.3405908,17.1400842 C48.4179108,17.2653269 48.447872,17.4140998 48.4250582,17.5595084 L48.4250582,17.5595084 Z" id="Path" fill="#514E7F"></path>
                            <path d="M48.4250582,17.5595084 C48.3823391,17.9012616 48.1658307,18.1954411 47.9279627,18.4449597 C47.6900948,18.6944783 47.4211584,18.9187538 47.2318349,19.2061371 C46.9988214,19.5624536 46.8939654,20.0042083 46.5910478,20.3051841 C46.4747693,20.4146353 46.3441148,20.5077266 46.202692,20.5818876 C46.0442646,20.6753601 45.8767312,20.752458 45.7026839,20.8119884 C45.2502494,20.956651 44.7628628,20.9236407 44.2900396,20.8886887 C44.1365309,20.8872131 43.9845596,20.8579372 43.8414886,20.8022795 C43.7763574,20.7691922 43.7140162,20.7308783 43.6550778,20.6877146 C43.5365551,20.6147292 43.4367964,20.5149704 43.363811,20.3964477 C43.4548211,20.3526902 43.5541213,20.3288581 43.6550778,20.3265437 C43.86479,20.3381943 44.0181905,20.5362558 44.2191647,20.5974219 C44.5055771,20.683831 44.7910186,20.481886 45.0813146,20.4129528 C45.270638,20.3682919 45.4696704,20.3799426 45.6570521,20.3158639 C45.8132081,20.2555144 45.9574928,20.168089 46.0832726,20.0576073 C46.2556706,19.9343474 46.4090818,19.786497 46.5386198,19.6187652 C46.646198,19.4510234 46.735696,19.2723528 46.8056144,19.0857468 C46.9589198,18.7281302 47.1393856,18.3827784 47.345429,18.0527203 C47.375905,18.0004629 47.4127576,17.9521958 47.4551395,17.9090287 C47.5007713,17.8672804 47.5522285,17.8381537 47.6036856,17.8012599 C47.7978635,17.6546556 47.8784474,17.4129041 47.9464096,17.1760071 C47.9648208,17.1040024 47.9905203,17.0340608 48.0231099,16.9672512 C48.1460183,16.9661841 48.2616849,17.0252865 48.3328237,17.1255208 C48.4163608,17.2537243 48.4492363,17.4084124 48.4250582,17.5595084 L48.4250582,17.5595084 Z" id="Path" fill="#464353"></path>
                            <path d="M54.316416,4.55250111 L54.316416,3.34665629 C54.316416,1.49819202 52.8172532,0 50.9687888,0 L3.34762718,0 C1.49916283,0 0,1.49819202 0,3.34665629 L0,5.56999336 L54.316416,4.55250111 Z" id="Path" fill="#404040"></path>
                            <path d="M55.6018738,5.73601547 L55.6018738,39.231705 C55.6018738,39.9999836 55.2966099,40.7367813 54.7532639,41.2799452 C54.2099179,41.8231092 53.4730179,42.1278687 52.7047393,42.1278687 L2.89810531,42.1278687 C1.29897753,42.1273325 0.00291266866,40.8308329 0.00291266866,39.231705 L0.00291266866,2.35926161 C1.43012031,2.88936731 1.43012031,2.88936731 2.89810531,2.84470639 L52.7047393,2.84470639 C54.3025103,2.84470316 55.5986611,4.13824772 55.6018738,5.73601547 Z" id="Path" fill="#000000" opacity="0.1"></path>
                            <path d="M55.6018738,6.16223599 L55.6018738,39.6579255 C55.6018738,41.2575895 54.3044034,42.5540891 52.7047393,42.5540891 L2.89810531,42.5540891 C1.29897753,42.553553 0.00291266866,41.2570534 0.00291266866,39.6579255 L0.00291266866,2.78451124 C1.43012031,3.31364604 1.43012031,3.31364604 2.89810531,3.26995601 L52.7047393,3.26995601 C54.3028886,3.26995377 55.5991959,4.56408894 55.6018738,6.16223599 Z" id="Path" fill="#4A4A4A"></path>
                            <path d="M55.4601239,18.5459322 L55.4601239,29.2577567 L45.0716057,29.2577567 C42.141738,29.2183086 39.7873207,26.8319777 39.7873207,23.9018444 C39.7873207,20.9717112 42.141738,18.5853803 45.0716057,18.5459322 L55.4601239,18.5459322 Z" id="Path" fill="#000000" opacity="0.1"></path>
                            <path d="M55.6018738,18.2604907 L55.6018738,28.9742569 L45.2133556,28.9742569 C42.2834879,28.9348088 39.9290706,26.5484779 39.9290706,23.6183447 C39.9290706,20.6882114 42.2834879,18.3018806 45.2133556,18.2624325 L55.6018738,18.2604907 Z" id="Path" fill="#404040"></path>
                            <circle id="Oval" fill="#000000" opacity="0.1" cx="45.7114219" cy="23.9023299" r="2.08838343"></circle>
                            <circle id="Oval" fill="#313131" cx="45.8531718" cy="23.6188301" r="2.08838343"></circle>
                        </g>
                        <path d="M37.114137,56.485738 L37.114137,54.3663604 C37.5324015,54.3762985 37.9407279,54.3762985 38.3291472,54.3762985 L38.3291472,56.485738 L39.8628249,56.485738 L39.8628249,54.3364843 C42.4322258,54.1970423 44.1498818,53.5497076 44.378952,51.1296869 C44.5581774,49.1877136 43.6419275,48.3212469 42.1879398,47.9727034 C43.0643138,47.5245628 43.6220513,46.7278171 43.4925782,45.4032717 C43.3232292,43.5907407 41.8346742,42.9832201 39.8627941,42.8139637 L39.8627941,40.3042841 L38.3291164,40.3042841 L38.3291164,42.7442427 C37.9307281,42.7442427 37.5224017,42.7541808 37.1141061,42.7641498 L37.1141061,40.3042841 L35.5803975,40.3042841 L35.5803975,42.8139637 C35.0165182,42.8310005 34.3597701,42.8226673 32.5030732,42.8139637 L32.5030732,44.4472076 C33.7139786,44.4257882 34.3493073,44.3479809 34.4948913,45.1243875 L34.4948913,51.9961228 C34.4024546,52.6121309 33.9094382,52.5234287 32.8118025,52.5040154 L32.5030732,54.3265154 L33.46474,54.3269705 C35.3673259,54.328922 35.5804284,54.3364843 35.5804284,54.3364843 L35.5804284,56.485738 L37.114137,56.485738 Z M37.144013,47.6141601 L37.144013,44.5567428 C38.0104489,44.5567428 40.7192919,44.2878893 40.7192919,46.0904514 C40.7192919,47.8133542 38.0104798,47.6141601 37.144013,47.6141601 Z M37.144013,52.5139844 L37.144013,49.1478686 C38.1797362,49.1478686 41.3514108,48.8590464 41.3514108,50.8309574 C41.3514108,52.7330856 38.1797362,52.5139844 37.144013,52.5139844 Z" id="b" fill="#FFFFFF" transform="translate(38.452166, 48.395011) rotate(14.000000) translate(-38.452166, -48.395011) "></path>
                    </g>
                </g>
            </g>
        </g>
        <g id="Group-22" transform="translate(611.000000, 522.000000)">
            <circle id="Oval" fill="#D9D1FF" cx="4" cy="4" r="4"></circle>
            <circle id="Oval" fill="#D9D1FF" cx="18" cy="4" r="4"></circle>
            <circle id="Oval" fill="#5E4EA5" cx="32" cy="4" r="4"></circle>
            <circle id="Oval" fill="#D9D1FF" cx="46" cy="4" r="4"></circle>
            <circle id="Oval" fill="#D9D1FF" cx="60" cy="4" r="4"></circle>
        </g>
        <path d="M765.611064,305.181454 L765.611064,303.062076 C766.029328,303.072014 766.437655,303.072014 766.826074,303.072014 L766.826074,305.181454 L768.359752,305.181454 L768.359752,303.0322 C770.929153,302.892758 772.646809,302.245424 772.875879,299.825403 C773.055104,297.88343 772.138854,297.016963 770.684867,296.668419 C771.561241,296.220279 772.118978,295.423533 771.989505,294.098988 C771.820156,292.286457 770.331601,291.678936 768.359721,291.50968 L768.359721,289 L766.826043,289 L766.826043,291.439959 C766.427655,291.439959 766.019328,291.449897 765.611033,291.459866 L765.611033,289 L764.077324,289 L764.077324,291.50968 C763.513445,291.526716 762.856697,291.518383 761,291.50968 L761,293.142924 C762.210905,293.121504 762.846234,293.043697 762.991818,293.820103 L762.991818,300.691839 C762.899381,301.307847 762.406365,301.219145 761.308729,301.199731 L761,303.022231 L761.961667,303.022686 C763.864253,303.024638 764.077355,303.0322 764.077355,303.0322 L764.077355,305.181454 L765.611064,305.181454 Z M765.64094,296.309876 L765.64094,293.252459 C766.507376,293.252459 769.216219,292.983605 769.216219,294.786167 C769.216219,296.50907 766.507407,296.309876 765.64094,296.309876 Z M765.64094,301.2097 L765.64094,297.843585 C766.676663,297.843585 769.848338,297.554762 769.848338,299.526673 C769.848338,301.428802 766.676663,301.2097 765.64094,301.2097 Z" id="b" fill="#696969" fill-rule="nonzero" transform="translate(766.949093, 297.090727) rotate(14.000000) translate(-766.949093, -297.090727) "></path>
    </g>
</svg>