<?xml version="1.0" encoding="UTF-8"?>
<svg width="1284px" height="771px" viewBox="0 0 1284 771" version="1.1" xmlns="http://www.w3.org/2000/svg" xmlns:xlink="http://www.w3.org/1999/xlink">
    <!-- Generator: Sketch 61.2 (89653) - https://sketch.com -->
    <title>Merchant</title>
    <desc>Created with Sketch.</desc>
    <defs>
        <rect id="path-1" x="0" y="91" width="218" height="680"></rect>
        <filter x="-6.7%" y="-1.8%" width="113.3%" height="104.3%" filterUnits="objectBoundingBox" id="filter-2">
            <feOffset dx="0" dy="2" in="SourceAlpha" result="shadowOffsetOuter1"></feOffset>
            <feGaussianBlur stdDeviation="4.5" in="shadowOffsetOuter1" result="shadowBlurOuter1"></feGaussianBlur>
            <feColorMatrix values="0 0 0 0 0.508718297   0 0 0 0 0.508320861   0 0 0 0 0.508320861  0 0 0 0.5 0" type="matrix" in="shadowBlurOuter1"></feColorMatrix>
        </filter>
        <rect id="path-3" x="0" y="0" width="1284" height="53"></rect>
        <filter x="-0.8%" y="-15.1%" width="101.6%" height="137.7%" filterUnits="objectBoundingBox" id="filter-4">
            <feOffset dx="0" dy="2" in="SourceAlpha" result="shadowOffsetOuter1"></feOffset>
            <feGaussianBlur stdDeviation="3" in="shadowOffsetOuter1" result="shadowBlurOuter1"></feGaussianBlur>
            <feColorMatrix values="0 0 0 0 0   0 0 0 0 0   0 0 0 0 0  0 0 0 0.5 0" type="matrix" in="shadowBlurOuter1"></feColorMatrix>
        </filter>
        <rect id="path-5" x="167" y="188" width="132" height="36" rx="4"></rect>
        <filter x="-3.0%" y="-5.6%" width="106.1%" height="122.2%" filterUnits="objectBoundingBox" id="filter-6">
            <feOffset dx="0" dy="2" in="SourceAlpha" result="shadowOffsetOuter1"></feOffset>
            <feGaussianBlur stdDeviation="1" in="shadowOffsetOuter1" result="shadowBlurOuter1"></feGaussianBlur>
            <feColorMatrix values="0 0 0 0 0   0 0 0 0 0   0 0 0 0 0  0 0 0 0.257457386 0" type="matrix" in="shadowBlurOuter1"></feColorMatrix>
        </filter>
    </defs>
    <g id="Merchant" stroke="none" stroke-width="1" fill="none" fill-rule="evenodd">
        <rect fill="#131415" x="0" y="0" width="1284" height="771"></rect>
        <rect id="Background" fill="#F2F5F6" x="0" y="38" width="1284" height="733"></rect>
        <g id="Rectangle">
            <use fill="black" fill-opacity="1" filter="url(#filter-2)" xlink:href="#path-1"></use>
            <use fill="#FFFFFF" fill-rule="evenodd" xlink:href="#path-1"></use>
        </g>
        <g id="Browser">
            <path d="M0,6.00024414 C0,2.68640081 2.6794487,0 5.99234946,0 L1278.00765,0 C1281.31713,0 1284,2.68722626 1284,6.00024414 L1284,38 L0,38 L0,6.00024414 Z" id="Tab-BG---Right" fill="#363738"></path>
            <circle id="Dot---Red" fill="#FF5F57" cx="18" cy="19" r="6"></circle>
            <circle id="Dot---Orange" fill="#FFBF2F" cx="38" cy="19" r="6"></circle>
            <circle id="Dot---Green" fill="#28CA42" cx="58" cy="19" r="6"></circle>
            <g id="Back" transform="translate(76.000000, 7.000000)">
                <rect id="Rectangle" fill="#656668" x="0" y="0" width="28" height="24" rx="4"></rect>
                <path d="M10.1607883,11.3246277 L15.780455,5.65901618 C15.9603839,5.47908726 16.2513057,5.47908726 16.4312347,5.65901618 L17.1891941,6.41697565 C17.3691231,6.59690457 17.3691231,6.88782642 17.1891941,7.06775535 L12.6528768,11.6500175 L17.1891941,16.2322797 C17.3691231,16.4122086 17.3691231,16.7031305 17.1891941,16.8830594 L16.4312347,17.6410189 C16.2513057,17.8209478 15.9603839,17.8209478 15.780455,17.6410189 L10.1607883,11.9754074 C9.98085942,11.7954785 9.98085942,11.5045566 10.1607883,11.3246277 Z" id="a" fill="#FFFFFF" fill-rule="nonzero"></path>
            </g>
            <g id="Forward" transform="translate(105.000000, 7.000000)">
                <rect id="Rectangle" fill="#656668" x="0" y="0" width="28" height="24" rx="4"></rect>
                <path d="M18.1891941,11.9754074 L12.5695275,17.6410189 C12.3895986,17.8209478 12.0986767,17.8209478 11.9187478,17.6410189 L11.1607883,16.8830594 C10.9808594,16.7031305 10.9808594,16.4122086 11.1607883,16.2322797 L15.6971057,11.6500175 L11.1607883,7.06775535 C10.9808594,6.88782642 10.9808594,6.59690457 11.1607883,6.41697565 L11.9187478,5.65901618 C12.0986767,5.47908726 12.3895986,5.47908726 12.5695275,5.65901618 L18.1891941,11.3246277 C18.3691231,11.5045566 18.3691231,11.7954785 18.1891941,11.9754074 Z" id="a" fill="#FFFFFF" fill-rule="nonzero" opacity="0.200334821"></path>
            </g>
            <g id="New-Tab" transform="translate(1260.000000, 14.000000)">
                <rect id="Rectangle" fill="#292A2B" x="0" y="0" width="24" height="24"></rect>
                <path d="M16.2531029,11.6843877 C16.3618742,11.6843877 16.4499775,11.7724909 16.4499775,11.8812622 L16.4499775,12.6687603 C16.4499775,12.7775316 16.3618742,12.8656349 16.2531029,12.8656349 L12.3156123,12.8656349 L12.3156123,16.8031255 C12.3156123,16.9118967 12.2275091,17 12.1187378,17 L11.3312397,17 C11.2224684,17 11.1343651,16.9118967 11.1343651,16.8031255 L11.1343651,12.8656349 L7.19687453,12.8656349 C7.08810328,12.8656349 7,12.7775316 7,12.6687603 L7,11.8812622 C7,11.7724909 7.08810328,11.6843877 7.19687453,11.6843877 L11.1343651,11.6843877 L11.1343651,7.74689706 C11.1343651,7.63812581 11.2224684,7.55002253 11.3312397,7.55002253 L12.1187378,7.55002253 C12.2275091,7.55002253 12.3156123,7.63812581 12.3156123,7.74689706 L12.3156123,11.6843877 L16.2531029,11.6843877 Z" id="p" fill="#FFFFFF" fill-rule="nonzero" opacity="0.497907366"></path>
            </g>
            <g id="URL" transform="translate(378.000000, 7.000000)">
                <path d="M0,3.99005301 C0,1.78640758 1.78094395,5.31029755e-14 3.99753941,5.28693238e-14 L516.002461,-1.1012102e-15 C518.210241,-1.33393271e-15 520,1.78429328 520,3.99005301 L520,20.009947 C520,22.2135924 518.219056,24 516.002461,24 L3.99753941,24 C1.78975936,24 0,22.2157067 0,20.009947 L0,3.99005301 Z" id="URL-Bar" fill="#696A6B"></path>
                <path d="M512.304658,5.17186422 C512.467743,5.17186422 512.59997,5.30412783 512.59997,5.46721261 L512.59997,10.1922013 C512.59997,10.3552861 512.467743,10.4875131 512.304658,10.4875131 L507.579669,10.4875131 C507.416585,10.4875131 507.284358,10.3552861 507.284358,10.1922013 L507.284358,9.51027815 C507.284358,9.34440559 507.42091,9.21109712 507.586711,9.21503845 L510.69705,9.2890827 C509.940722,7.61516854 508.257531,6.45158527 506.299985,6.45158527 C503.633864,6.45158527 501.476559,8.60927437 501.476559,11.2750113 C501.476559,13.9411327 503.634248,16.0984373 506.299985,16.0984373 C507.533046,16.0984373 508.65724,15.6369165 509.509554,14.8770557 C509.6264,14.7728747 509.804938,14.7799403 509.915632,14.8906341 L510.401377,15.3763797 C510.521276,15.4962781 510.51534,15.6917347 510.389505,15.8053845 C509.307296,16.7829079 507.873155,17.3781217 506.299985,17.3781217 C502.93257,17.3781217 500.202138,14.6509336 500.19686,11.2847685 C500.191635,7.92836054 502.924087,5.18242707 506.280471,5.17186422 C508.411171,5.16526784 510.288545,6.2506252 511.385221,7.89993005 L511.327471,5.47425415 C511.32353,5.30842965 511.456862,5.17186422 511.622711,5.17186422 L512.304658,5.17186422 Z" id="r" fill="#FFFFFF" fill-rule="nonzero" transform="translate(506.398415, 11.274993) rotate(-45.000000) translate(-506.398415, -11.274993) "></path>
                <text id="Ride-the-Lightning" font-family="Roboto-Regular, Roboto" font-size="12.6" font-weight="normal" fill="#FFFFFF">
                    <tspan x="210" y="17">Ride the Lightning</tspan>
                </text>
            </g>
        </g>
        <g id="Group-28" transform="translate(0.000000, 38.000000)">
            <g id="Rectangle-13">
                <use fill="black" fill-opacity="1" filter="url(#filter-4)" xlink:href="#path-3"></use>
                <use fill="#5E4EA5" fill-rule="evenodd" xlink:href="#path-3"></use>
            </g>
            <text id="Dashboard" font-family="Helvetica" font-size="18" font-weight="normal" fill="#FFFFFF">
                <tspan x="24" y="35">bars</tspan>
            </text>
            <g id="RTL-Logo" transform="translate(1210.000000, 18.000000)" fill="#FFFFFF">
                <path d="M5.10234375,10.1960631 L3.54375,10.1960631 L2.80546875,14.4124693 L0,14.4124693 L2.0671875,2.46871933 L6.28359375,2.47692246 C7.63438175,2.47692246 8.67480104,2.79273961 9.40488281,3.4243834 C10.1349646,4.05602718 10.4617191,4.91871386 10.3851562,6.01246933 C10.3249997,6.87653615 10.0761741,7.59156807 9.63867187,8.15758652 C9.20116969,8.72360498 8.58867581,9.17067082 7.80117187,9.49879746 L9.40898437,14.2730162 L9.40898437,14.4124693 L6.41484375,14.4124693 L5.10234375,10.1960631 Z M3.92109375,7.97301621 L5.56171875,7.98942246 C6.01015849,7.98942246 6.39980303,7.88004855 6.73066406,7.66129746 C7.06152509,7.44254636 7.29804616,7.1431353 7.44023438,6.76305527 C7.58242259,6.38297525 7.6234378,6.01520549 7.56328125,5.65973496 C7.4539057,5.05270067 7.06562834,4.732782 6.3984375,4.69996933 L4.4953125,4.69176621 L3.92109375,7.97301621 Z M21.0984375,4.69176621 L17.6203125,4.69176621 L15.9386719,14.4124693 L13.125,14.4124693 L14.8148438,4.69176621 L11.3941406,4.69176621 L11.7878906,2.46871933 L21.4839844,2.46871933 L21.0984375,4.69176621 Z M23.8464844,12.1976256 L28.7109375,12.1976256 L28.3253906,14.4124693 L20.6554688,14.4124693 L22.7226562,2.46871933 L25.5363281,2.46871933 L23.8464844,12.1976256 Z" id="RTL-Copy" fill-rule="nonzero"></path>
                <path d="M37.882011,5.59373905 C38.4131621,5.59373905 38.7433371,6.1708163 38.4763316,6.62733033 L33.4232186,15.3554345 C33.2968796,15.5736259 33.0671926,15.699965 32.8260382,15.699965 C32.3867394,15.699965 32.0537046,15.2894051 32.1570525,14.8529943 L33.4806404,9.26873029 L30.0726546,9.26873029 C29.656347,9.26873029 29.3347797,8.90123677 29.3893415,8.48778904 L30.3080893,1.59718047 C30.3540155,1.25553795 30.646872,1 30.9914024,1 L35.1257676,1 C35.5765338,1 35.9067088,1.43066304 35.7918653,1.86707385 L34.5687655,5.59373905 L37.882011,5.59373905 Z" id="b-copy" fill-rule="nonzero"></path>
                <text id="caret-down-copy" font-family="Helvetica" font-size="16" font-weight="normal">
                    <tspan x="47" y="15">c</tspan>
                    <tspan x="46.5507812" y="34">a</tspan>
                    <tspan x="48.3359375" y="53">r</tspan>
                    <tspan x="46.5507812" y="72">e</tspan>
                    <tspan x="46.1132812" y="91">t-</tspan>
                    <tspan x="46.5507812" y="110">d</tspan>
                    <tspan x="46.5507812" y="129">o</tspan>
                    <tspan x="46" y="148">w</tspan>
                    <tspan x="46.5507812" y="167">n</tspan>
                </text>
            </g>
        </g>
        <rect id="Rectangle" fill="#D8D8D8" opacity="0" x="0" y="207" width="218" height="48"></rect>
        <text id="On-chain" font-family="Roboto-Medium, Roboto" font-size="14" font-weight="400" fill="#626262">
            <tspan x="70" y="236">On-chain</tspan>
        </text>
        <rect id="Rectangle" fill="#D8D8D8" opacity="0" x="0" y="305" width="218" height="48"></rect>
        <text id="On-chain" font-family="Roboto-Regular, Roboto" font-size="14" font-weight="normal" fill="#4A4A4A">
            <tspan x="70" y="334">Advanced</tspan>
        </text>
        <rect id="Rectangle" fill="#D8D8D8" opacity="0" x="0" y="353" width="218" height="48"></rect>
        <text id="On-chain" font-family="Roboto-Regular, Roboto" font-size="14" font-weight="normal" fill="#4A4A4A">
            <tspan x="70" y="382">Help</tspan>
        </text>
        <g id="Group-30" transform="translate(0.000000, 422.000000)">
            <g id="Group-3">
                <rect id="Rectangle" fill="#D8D8D8" opacity="0" x="0" y="0" width="218" height="48"></rect>
                <text id="On-chain" font-family="Roboto-Regular, Roboto" font-size="14" font-weight="normal" fill="#4A4A4A">
                    <tspan x="70" y="29">Public Key</tspan>
                </text>
            </g>
            <text id="eye" font-family="Helvetica" font-size="14" font-weight="normal" fill="#858585">
                <tspan x="24" y="29">eye</tspan>
            </text>
        </g>
        <text id="On-chain-Copy" font-family="Roboto-Regular, Roboto" font-size="14" font-weight="normal" fill="#474747">
            <tspan x="70" y="284">Lightning</tspan>
        </text>
        <text id="Dashboard" font-family="Roboto-Medium, Roboto" font-size="14" font-weight="400" fill="#5E4EA5">
            <tspan x="70" y="186">Dashboard</tspan>
        </text>
        <g id="Group-18" transform="translate(24.000000, 118.000000)">
            <text id="Dashboard" font-family="Roboto-Regular, Roboto" font-size="16" font-weight="normal" fill="#181818">
                <tspan x="0" y="15">Amora_UK01</tspan>
            </text>
            <path d="M99.6365126,7 L107.823305,7 C108.389692,7 108.672855,7.6718734 108.271959,8.06561025 L104.180132,12.0874818 C103.931957,12.3312251 103.527861,12.3312251 103.279686,12.0874818 L99.1878898,8.06561025 C98.786963,7.6718734 99.0701566,7 99.6365126,7 Z" id="c" fill="#4B4B4B" fill-rule="nonzero"></path>
        </g>
        <line x1="0.5" y1="415.5" x2="218.5" y2="415.5" id="Line-3" stroke="#E6E6E6" stroke-linecap="square"></line>
        <text id="tachometer-alt-fast" font-family="Helvetica" font-size="14" font-weight="normal" fill="#5E4EA5">
            <tspan x="24" y="187">tachometer-alt-fast</tspan>
        </text>
        <text id="link" font-family="Helvetica" font-size="14" font-weight="normal" fill="#858585">
            <tspan x="25" y="236">link</tspan>
        </text>
        <text id="cog" font-family="Helvetica" font-size="14" font-weight="normal" fill="#858585">
            <tspan x="25" y="335">cog</tspan>
        </text>
        <text id="life-ring" font-family="Helvetica" font-size="14" font-weight="normal" fill="#858585">
            <tspan x="25" y="382">life-ring</tspan>
        </text>
        <text id="bolt" font-family="Helvetica" font-size="14" font-weight="normal" fill="#858585">
            <tspan x="28" y="285">bolt</tspan>
        </text>
        <g id="Group-24" transform="translate(242.000000, 118.000000)" fill="#84979E">
            <text id="Welcome!-Your-node-i" font-family="Roboto-Regular, Roboto" font-size="16" font-weight="normal">
                <tspan x="23" y="15">Welcome! Your node is synced and up and running.</tspan>
            </text>
            <path d="M7.74998152,1.25003278 C12.0312213,1.25003278 15.499963,4.71877451 15.499963,9.00001431 C15.499963,13.2812541 12.0312213,16.7499958 7.74998152,16.7499958 C3.46874173,16.7499958 0,13.2812541 0,9.00001431 C0,4.71877451 3.46874173,1.25003278 7.74998152,1.25003278 Z M7.74998152,15.7499982 C11.4718354,15.7499982 14.4999654,12.7218682 14.4999654,9.00001431 C14.4999654,5.27816039 11.4718354,2.2500304 7.74998152,2.2500304 C4.0281276,2.2500304 0.999997616,5.27816039 0.999997616,9.00001431 C0.999997616,12.7218682 4.0281276,15.7499982 7.74998152,15.7499982 Z M10.5687309,11.181253 C10.7468616,10.9687596 11.0624736,10.9406225 11.274967,11.1156404 C11.4874604,11.2906277 11.5155975,11.6062703 11.3374669,11.8187637 C10.446844,12.8875172 9.13749042,13.5000036 7.74998152,13.5000036 C6.36247262,13.5000036 5.05311906,12.8875172 4.16560896,11.8218765 C3.98747829,11.6093831 4.01561543,11.2968838 4.22810882,11.1187532 C4.43748942,10.9406225 4.75310146,10.9687596 4.93123214,11.181253 C5.63124268,12.0187449 6.65934692,12.500006 7.74998152,12.500006 C8.84061613,12.500006 9.86872037,12.0187449 10.5687309,11.181253 Z M5.24998987,8.50002027 C4.6968577,8.50002027 4.24998987,8.05314767 4.24998987,7.50002027 C4.24998987,6.9468881 4.6968577,6.50002027 5.24998987,6.50002027 C5.80311727,6.50002027 6.24998987,6.9468881 6.24998987,7.50002027 C6.24998987,8.05314767 5.80311727,8.50002027 5.24998987,8.50002027 Z M10.2499779,8.50002027 C9.69684578,8.50002027 9.24997795,8.05314767 9.24997795,7.50002027 C9.24997795,6.9468881 9.69684578,6.50002027 10.2499779,6.50002027 C10.8031053,6.50002027 11.2499779,6.9468881 11.2499779,7.50002027 C11.2499779,8.05314767 10.8031053,8.50002027 10.2499779,8.50002027 Z" id="s" fill-rule="nonzero"></path>
        </g>
        <path d="M593.12777,154.5 C591.57762,154.5 590.940578,154.623018 590.282108,154.975172 C589.71739,155.277186 589.277186,155.71739 588.975172,156.282108 C588.623018,156.940578 588.5,157.57762 588.5,159.12777 L588.5,727.87223 C588.5,729.42238 588.623018,730.059422 588.975172,730.717892 C589.277186,731.28261 589.71739,731.722814 590.282108,732.024828 C590.940578,732.376982 591.57762,732.5 593.12777,732.5 L904.87223,732.5 C906.42238,732.5 907.059422,732.376982 907.717892,732.024828 C908.28261,731.722814 908.722814,731.28261 909.024828,730.717892 C909.376982,730.059422 909.5,729.42238 909.5,727.87223 L909.5,159.12777 C909.5,157.57762 909.376982,156.940578 909.024828,156.282108 C908.722814,155.71739 908.28261,155.277186 907.717892,154.975172 C907.059422,154.623018 906.42238,154.5 904.87223,154.5 L593.12777,154.5 Z" id="Rectangle-Copy-5" stroke="#DEDEDE" fill="#FFFFFF"></path>
        <text id="In-bound-Liquidity" font-family="Roboto-Regular, Roboto" font-size="16" font-weight="normal" fill="#84979E">
            <tspan x="638" y="192">In-bound Liquidity</tspan>
        </text>
        <text id="inbox-in" font-family="FontAwesome5ProRegular, Font Awesome 5 Pro" font-size="16" font-weight="normal" fill="#84979E">
            <tspan x="612" y="193">inbox-in</tspan>
        </text>
        <g id="Group-2" transform="translate(612.000000, 317.500000)">
            <rect id="Rectangle-Copy-6" fill="#AA9FDA" x="3" y="45" width="276" height="6" rx="3"></rect>
            <rect id="Rectangle-Copy-8" fill="#5E4EA5" x="0" y="45" width="181" height="6" rx="3"></rect>
            <text id="ACINQ" font-family="Roboto-Regular, Roboto" font-size="16" font-weight="normal" fill="#222831">
                <tspan x="1" y="15">ACINQ</tspan>
            </text>
            <text id="Capacity:-1,666,003" font-family="Roboto-Regular, Roboto" font-size="12" font-weight="normal" fill="#5E4EA5">
                <tspan x="0" y="38">Capacity: 1,666,003 sats</tspan>
            </text>
            <rect id="Rectangle-Copy-6" fill="#AA9FDA" x="3" y="112" width="277" height="6" rx="3"></rect>
            <rect id="Rectangle-Copy-8" fill="#5E4EA5" x="0" y="112" width="144" height="6" rx="3"></rect>
            <text id="LNBIG.com-[lnd-01]" font-family="Roboto-Regular, Roboto" font-size="16" font-weight="normal" fill="#222831">
                <tspan x="0" y="82">LNBIG.com [lnd-01]</tspan>
            </text>
            <text id="Capacity:-1,666,003" font-family="Roboto-Regular, Roboto" font-size="12" font-weight="normal" fill="#5E4EA5">
                <tspan x="0" y="105">Capacity: 1,666,003 sats</tspan>
            </text>
            <rect id="Rectangle-Copy-6" fill="#AA9FDA" x="3" y="179" width="277" height="6" rx="3"></rect>
            <rect id="Rectangle-Copy-8" fill="#5E4EA5" x="0" y="179" width="86" height="6" rx="3"></rect>
            <text id="ACINQ" font-family="Roboto-Regular, Roboto" font-size="16" font-weight="normal" fill="#222831">
                <tspan x="1" y="149">ACINQ</tspan>
            </text>
            <text id="Capacity:-1,666,003" font-family="Roboto-Regular, Roboto" font-size="12" font-weight="normal" fill="#5E4EA5">
                <tspan x="0" y="172">Capacity: 1,666,003 sats</tspan>
            </text>
            <rect id="Rectangle-Copy-6" fill="#AA9FDA" x="3" y="246" width="277" height="6" rx="3"></rect>
            <rect id="Rectangle-Copy-8" fill="#5E4EA5" x="0" y="246" width="72" height="6" rx="3"></rect>
            <text id="LNBIG.com-[lnd-01]" font-family="Roboto-Regular, Roboto" font-size="16" font-weight="normal" fill="#222831">
                <tspan x="0" y="216">LNBIG.com [lnd-01]</tspan>
            </text>
            <text id="Capacity:-1,666,003" font-family="Roboto-Regular, Roboto" font-size="12" font-weight="normal" fill="#5E4EA5">
                <tspan x="0" y="239">Capacity: 1,666,003 sats</tspan>
            </text>
            <rect id="Rectangle-Copy-6" fill="#AA9FDA" x="3" y="313" width="277" height="6" rx="3"></rect>
            <rect id="Rectangle-Copy-8" fill="#5E4EA5" x="0" y="313" width="63" height="6" rx="3"></rect>
            <text id="ACINQ" font-family="Roboto-Regular, Roboto" font-size="16" font-weight="normal" fill="#222831">
                <tspan x="1" y="283">ACINQ</tspan>
            </text>
            <text id="Capacity:-1,666,003" font-family="Roboto-Regular, Roboto" font-size="12" font-weight="normal" fill="#5E4EA5">
                <tspan x="0" y="306">Capacity: 1,666,003 sats</tspan>
            </text>
            <rect id="Rectangle-Copy-6" fill="#AA9FDA" x="3" y="380" width="277" height="6" rx="3"></rect>
            <rect id="Rectangle-Copy-8" fill="#5E4EA5" x="0" y="380" width="36" height="6" rx="3"></rect>
            <text id="LNBIG.com-[lnd-01]" font-family="Roboto-Regular, Roboto" font-size="16" font-weight="normal" fill="#222831">
                <tspan x="0" y="350">LNBIG.com [lnd-01]</tspan>
            </text>
            <text id="Capacity:-1,666,003" font-family="Roboto-Regular, Roboto" font-size="12" font-weight="normal" fill="#5E4EA5">
                <tspan x="0" y="373">Capacity: 1,666,003 sats</tspan>
            </text>
        </g>
        <path d="M939.12777,154.5 C937.57762,154.5 936.940578,154.623018 936.282108,154.975172 C935.71739,155.277186 935.277186,155.71739 934.975172,156.282108 C934.623018,156.940578 934.5,157.57762 934.5,159.12777 L934.5,727.87223 C934.5,729.42238 934.623018,730.059422 934.975172,730.717892 C935.277186,731.28261 935.71739,731.722814 936.282108,732.024828 C936.940578,732.376982 937.57762,732.5 939.12777,732.5 L1250.87223,732.5 C1252.42238,732.5 1253.05942,732.376982 1253.71789,732.024828 C1254.28261,731.722814 1254.72281,731.28261 1255.02483,730.717892 C1255.37698,730.059422 1255.5,729.42238 1255.5,727.87223 L1255.5,159.12777 C1255.5,157.57762 1255.37698,156.940578 1255.02483,156.282108 C1254.72281,155.71739 1254.28261,155.277186 1253.71789,154.975172 C1253.05942,154.623018 1252.42238,154.5 1250.87223,154.5 L939.12777,154.5 Z" id="Rectangle-Copy-5" stroke="#DEDEDE" fill="#FFFFFF"></path>
        <text id="Out-bound-Liquidity" font-family="Roboto-Regular, Roboto" font-size="16" font-weight="normal" fill="#84979E">
            <tspan x="984" y="192">Out-bound Liquidity</tspan>
        </text>
        <g id="Group-5" transform="translate(958.000000, 219.000000)">
            <rect id="Rectangle-Copy-6" fill="#D8D8D8" x="1" y="45" width="277" height="6" rx="3"></rect>
            <text id="Total-Capacity" font-family="Roboto-Regular, Roboto" font-size="16" font-weight="normal" fill="#222831">
                <tspan x="175.476562" y="15">Total Capacity</tspan>
            </text>
            <rect id="Rectangle-Copy-8" fill="#525252" x="0" y="45" width="165" height="6" rx="3"></rect>
            <text id="3,731,934-sats" font-family="Roboto-Regular, Roboto" font-size="12" font-weight="normal" fill="#4B4B4B">
                <tspan x="199.328125" y="38">3,731,934 sats</tspan>
            </text>
            <text id="Max-Transaction" font-family="Roboto-Regular, Roboto" font-size="16" font-weight="normal" fill="#222831">
                <tspan x="0" y="15">Max Transaction</tspan>
            </text>
            <text id="1,666,003-sats" font-family="Roboto-Regular, Roboto" font-size="12" font-weight="normal" fill="#4B4B4B">
                <tspan x="0" y="38">1,666,003 sats</tspan>
            </text>
        </g>
        <rect id="Rectangle-Copy-6" fill="#D8D8D8" x="615" y="264" width="277" height="6" rx="3"></rect>
        <text id="Total-Capacity" font-family="Roboto-Regular, Roboto" font-size="16" font-weight="normal" fill="#222831">
            <tspan x="789.476562" y="234">Total Capacity</tspan>
        </text>
        <rect id="Rectangle-Copy-8" fill="#525252" x="614" y="264" width="165" height="6" rx="3"></rect>
        <text id="3,731,934-sats" font-family="Roboto-Regular, Roboto" font-size="12" font-weight="normal" fill="#4B4B4B">
            <tspan x="813.328125" y="257">3,731,934 sats</tspan>
        </text>
        <text id="Max-Transaction" font-family="Roboto-Regular, Roboto" font-size="16" font-weight="normal" fill="#222831">
            <tspan x="614" y="234">Max Transaction</tspan>
        </text>
        <text id="1,666,003-sats" font-family="Roboto-Regular, Roboto" font-size="12" font-weight="normal" fill="#4B4B4B">
            <tspan x="614" y="257">1,666,003 sats</tspan>
        </text>
        <text id="inbox-out" font-family="FontAwesome5ProRegular, Font Awesome 5 Pro" font-size="16" font-weight="normal" fill="#84979E">
            <tspan x="958" y="193">inbox-out</tspan>
        </text>
        <g id="Group-2" transform="translate(958.000000, 317.000000)">
            <rect id="Rectangle-Copy-6" fill="#AA9FDA" x="3" y="45" width="276" height="6" rx="3"></rect>
            <rect id="Rectangle-Copy-8" fill="#5E4EA5" x="0" y="45" width="163" height="6" rx="3"></rect>
            <text id="ACINQ" font-family="Roboto-Regular, Roboto" font-size="16" font-weight="normal" fill="#222831">
                <tspan x="1" y="15">ACINQ</tspan>
            </text>
            <text id="Capacity:-1,666,003" font-family="Roboto-Regular, Roboto" font-size="12" font-weight="normal" fill="#5E4EA5">
                <tspan x="0" y="38">Capacity: 1,666,003 sats</tspan>
            </text>
            <rect id="Rectangle-Copy-6" fill="#AA9FDA" x="3" y="112" width="277" height="6" rx="3"></rect>
            <rect id="Rectangle-Copy-8" fill="#5E4EA5" x="0" y="112" width="144" height="6" rx="3"></rect>
            <text id="LNBIG.com-[lnd-01]" font-family="Roboto-Regular, Roboto" font-size="16" font-weight="normal" fill="#222831">
                <tspan x="0" y="82">LNBIG.com [lnd-01]</tspan>
            </text>
            <text id="Capacity:-1,666,003" font-family="Roboto-Regular, Roboto" font-size="12" font-weight="normal" fill="#5E4EA5">
                <tspan x="0" y="105">Capacity: 1,666,003 sats</tspan>
            </text>
            <rect id="Rectangle-Copy-6" fill="#AA9FDA" x="3" y="179" width="277" height="6" rx="3"></rect>
            <rect id="Rectangle-Copy-8" fill="#5E4EA5" x="0" y="179" width="86" height="6" rx="3"></rect>
            <text id="ACINQ" font-family="Roboto-Regular, Roboto" font-size="16" font-weight="normal" fill="#222831">
                <tspan x="1" y="149">ACINQ</tspan>
            </text>
            <text id="Capacity:-1,666,003" font-family="Roboto-Regular, Roboto" font-size="12" font-weight="normal" fill="#5E4EA5">
                <tspan x="0" y="172">Capacity: 1,666,003 sats</tspan>
            </text>
            <rect id="Rectangle-Copy-6" fill="#AA9FDA" x="3" y="246" width="277" height="6" rx="3"></rect>
            <rect id="Rectangle-Copy-8" fill="#5E4EA5" x="0" y="246" width="72" height="6" rx="3"></rect>
            <text id="LNBIG.com-[lnd-01]" font-family="Roboto-Regular, Roboto" font-size="16" font-weight="normal" fill="#222831">
                <tspan x="0" y="216">LNBIG.com [lnd-01]</tspan>
            </text>
            <text id="Capacity:-1,666,003" font-family="Roboto-Regular, Roboto" font-size="12" font-weight="normal" fill="#5E4EA5">
                <tspan x="0" y="239">Capacity: 1,666,003 sats</tspan>
            </text>
            <rect id="Rectangle-Copy-6" fill="#AA9FDA" x="3" y="313" width="277" height="6" rx="3"></rect>
            <rect id="Rectangle-Copy-8" fill="#5E4EA5" x="0" y="313" width="63" height="6" rx="3"></rect>
            <text id="ACINQ" font-family="Roboto-Regular, Roboto" font-size="16" font-weight="normal" fill="#222831">
                <tspan x="1" y="283">ACINQ</tspan>
            </text>
            <text id="Capacity:-1,666,003" font-family="Roboto-Regular, Roboto" font-size="12" font-weight="normal" fill="#5E4EA5">
                <tspan x="0" y="306">Capacity: 1,666,003 sats</tspan>
            </text>
            <rect id="Rectangle-Copy-6" fill="#AA9FDA" x="3" y="380" width="277" height="6" rx="3"></rect>
            <rect id="Rectangle-Copy-8" fill="#5E4EA5" x="0" y="380" width="36" height="6" rx="3"></rect>
            <text id="LNBIG.com-[lnd-01]" font-family="Roboto-Regular, Roboto" font-size="16" font-weight="normal" fill="#222831">
                <tspan x="0" y="350">LNBIG.com [lnd-01]</tspan>
            </text>
            <text id="Capacity:-1,666,003" font-family="Roboto-Regular, Roboto" font-size="12" font-weight="normal" fill="#5E4EA5">
                <tspan x="0" y="373">Capacity: 1,666,003 sats</tspan>
            </text>
        </g>
        <line x1="957.5" y1="293" x2="1233.5" y2="293" id="Line" stroke="#EAEAEA" stroke-linecap="square"></line>
        <line x1="611.5" y1="293.5" x2="887.5" y2="293.5" id="Line" stroke="#EAEAEA" stroke-linecap="square"></line>
        <g id="Group-4-Copy" transform="translate(241.000000, 435.000000)">
            <path d="M5.1277704,0.5 C3.5776195,0.5 2.94057806,0.623018378 2.28210802,0.975172007 C1.71739041,1.27718629 1.27718629,1.71739041 0.975172007,2.28210802 C0.623018378,2.94057806 0.5,3.5776195 0.5,5.1277704 L0.5,250.87223 C0.5,252.42238 0.623018378,253.059422 0.975172007,253.717892 C1.27718629,254.28261 1.71739041,254.722814 2.28210802,255.024828 C2.94057806,255.376982 3.5776195,255.5 5.1277704,255.5 L316.87223,255.5 C318.42238,255.5 319.059422,255.376982 319.717892,255.024828 C320.28261,254.722814 320.722814,254.28261 321.024828,253.717892 C321.376982,253.059422 321.5,252.42238 321.5,250.87223 L321.5,5.1277704 C321.5,3.5776195 321.376982,2.94057806 321.024828,2.28210802 C320.722814,1.71739041 320.28261,1.27718629 319.717892,0.975172007 C319.059422,0.623018378 318.42238,0.5 316.87223,0.5 L5.1277704,0.5 Z" id="Rectangle-Copy-5" stroke="#DEDEDE" fill="#FFFFFF"></path>
            <text id="Pay" font-family="Roboto-Regular, Roboto" font-size="14" font-weight="normal" fill="#979797">
                <tspan x="228.464355" y="29">Pay</tspan>
            </text>
            <text id="Receive" font-family="Roboto-Medium, Roboto" font-size="14" font-weight="400" fill="#5E4EA5">
                <tspan x="55.4487305" y="29">Receive</tspan>
            </text>
            <line x1="0.674172185" y1="48.5" x2="322.674172" y2="48.5" id="Line" stroke="#D7D7D7" stroke-linecap="square"></line>
            <rect id="Rectangle" fill="#5E4EA5" x="0" y="47" width="160" height="2"></rect>
            <text id="Memo" font-family="Roboto-Regular, Roboto" font-size="15" font-weight="normal" fill="#444444">
                <tspan x="22" y="103">Memo</tspan>
            </text>
            <rect id="Rectangle" stroke="#979797" fill="#D8D8D8" transform="translate(160.500000, 112.500000) scale(1, -1) translate(-160.500000, -112.500000) " x="22.5" y="112.5" width="276" height="1"></rect>
            <text id="Amount" opacity="0" font-family="Roboto-Regular, Roboto" font-size="12" font-weight="normal" fill="#5E4EA5">
                <tspan x="22" y="78">Amount</tspan>
            </text>
            <text id="Amount" font-family="Roboto-Regular, Roboto" font-size="15" font-weight="normal" fill="#444444">
                <tspan x="22" y="152">Amount</tspan>
            </text>
            <rect id="Rectangle" stroke="#979797" fill="#D8D8D8" x="22.5" y="162.5" width="276" height="1"></rect>
            <text id="sats" font-family="Roboto-Regular, Roboto" font-size="15" font-weight="normal" fill="#999999">
                <tspan x="269.472168" y="152">sats</tspan>
            </text>
            <g id="Rectangle-Copy-7">
                <use fill="black" fill-opacity="1" filter="url(#filter-6)" xlink:href="#path-5"></use>
                <use fill="#5E4EA5" fill-rule="evenodd" xlink:href="#path-5"></use>
            </g>
            <text id="Create-Invoice" font-family="Roboto-Medium, Roboto" font-size="14" font-weight="400" fill="#FFFFFF">
                <tspan x="183.69043" y="211">Create Invoice</tspan>
            </text>
            <rect id="Rectangle-Copy-7" stroke="#DCDCDC" fill="#FFFFFF" x="22.5" y="188.5" width="131" height="35" rx="4"></rect>
            <text id="Clear-Field" font-family="Roboto-Medium, Roboto" font-size="14" font-weight="400" fill="#4F4F4F">
                <tspan x="55.2670898" y="211">Clear Field</tspan>
            </text>
        </g>
        <g id="Group-2" transform="translate(242.000000, 155.000000)">
            <path d="M5.1277704,0.5 C3.5776195,0.5 2.94057806,0.623018378 2.28210802,0.975172007 C1.71739041,1.27718629 1.27718629,1.71739041 0.975172007,2.28210802 C0.623018378,2.94057806 0.5,3.5776195 0.5,5.1277704 L0.5,250.87223 C0.5,252.42238 0.623018378,253.059422 0.975172007,253.717892 C1.27718629,254.28261 1.71739041,254.722814 2.28210802,255.024828 C2.94057806,255.376982 3.5776195,255.5 5.1277704,255.5 L316.87223,255.5 C318.42238,255.5 319.059422,255.376982 319.717892,255.024828 C320.28261,254.722814 320.722814,254.28261 321.024828,253.717892 C321.376982,253.059422 321.5,252.42238 321.5,250.87223 L321.5,5.1277704 C321.5,3.5776195 321.376982,2.94057806 321.024828,2.28210802 C320.722814,1.71739041 320.28261,1.27718629 319.717892,0.975172007 C319.059422,0.623018378 318.42238,0.5 316.87223,0.5 L5.1277704,0.5 Z" id="Rectangle-Copy-5" stroke="#DEDEDE" fill="#FFFFFF"></path>
            <text id="Balances" font-family="Roboto-Regular, Roboto" font-size="16" font-weight="normal" fill="#84979E">
                <tspan x="46" y="39">Balances</tspan>
            </text>
            <text id="chart-pie" font-family="Helvetica" font-size="16" font-weight="normal" fill="#84979E">
                <tspan x="24" y="41">chart-pie</tspan>
            </text>
            <g id="Group-18" transform="translate(24.000000, 131.000000)">
                <text id="On-chain" font-family="Roboto-Medium, Roboto" font-size="12" font-weight="400" fill="#5E4EA5">
                    <tspan x="0" y="11">On-Chain</tspan>
                </text>
                <text id="On-chain" font-family="Roboto-Regular, Roboto" font-size="16" font-weight="normal" fill="#4A4A4A">
                    <tspan x="0" y="35">731,934 sats</tspan>
                </text>
            </g>
            <g id="Group-19" transform="translate(24.000000, 66.000000)">
                <text id="On-chain" font-family="Roboto-Medium, Roboto" font-size="12" font-weight="400" fill="#5E4EA5">
                    <tspan x="0" y="11">Lightning</tspan>
                </text>
                <text id="On-chain" font-family="Roboto-Regular, Roboto" font-size="16" font-weight="normal" fill="#4A4A4A">
                    <tspan x="0" y="35">3,731,934 sats</tspan>
                </text>
            </g>
            <g id="Group-19" transform="translate(24.000000, 193.000000)">
                <text id="On-chain" font-family="Roboto-Medium, Roboto" font-size="12" font-weight="400" fill="#5E4EA5">
                    <tspan x="0" y="11">Total</tspan>
                </text>
                <text id="On-chain" font-family="Roboto-Regular, Roboto" font-size="16" font-weight="normal" fill="#4A4A4A">
                    <tspan x="0" y="35">4,463,868 sats</tspan>
                </text>
            </g>
            <rect id="Rectangle-Copy-7" fill="#AA9FDA" x="27" y="108" width="277" height="6" rx="3"></rect>
            <rect id="Rectangle-Copy-7" fill="#AA9FDA" x="27" y="108" width="277" height="6" rx="3"></rect>
            <rect id="Rectangle-Copy-9" fill="#5E4EA5" x="24" y="108" width="225" height="6" rx="3"></rect>
            <rect id="Rectangle-Copy-7" fill="#AA9FDA" x="27" y="172" width="277" height="6" rx="3"></rect>
            <rect id="Rectangle-Copy-9" fill="#5E4EA5" x="24" y="172" width="71" height="6" rx="3"></rect>
        </g>
    </g>
</svg>