<?xml version="1.0" encoding="UTF-8"?>
<svg width="1283px" height="1030px" viewBox="0 0 1283 1030" version="1.1" xmlns="http://www.w3.org/2000/svg" xmlns:xlink="http://www.w3.org/1999/xlink">
    <!-- Generator: Sketch 62 (91390) - https://sketch.com -->
    <title>01_Sign</title>
    <desc>Created with Sketch.</desc>
    <defs>
        <rect id="path-1" x="-1" y="91" width="218" height="939"></rect>
        <filter x="-6.7%" y="-1.3%" width="113.3%" height="103.1%" filterUnits="objectBoundingBox" id="filter-2">
            <feOffset dx="0" dy="2" in="SourceAlpha" result="shadowOffsetOuter1"></feOffset>
            <feGaussianBlur stdDeviation="4.5" in="shadowOffsetOuter1" result="shadowBlurOuter1"></feGaussianBlur>
            <feColorMatrix values="0 0 0 0 0.508718297   0 0 0 0 0.508320861   0 0 0 0 0.508320861  0 0 0 0.5 0" type="matrix" in="shadowBlurOuter1"></feColorMatrix>
        </filter>
        <rect id="path-3" x="-1" y="38" width="1284" height="53"></rect>
        <filter x="-0.8%" y="-15.1%" width="101.6%" height="137.7%" filterUnits="objectBoundingBox" id="filter-4">
            <feOffset dx="0" dy="2" in="SourceAlpha" result="shadowOffsetOuter1"></feOffset>
            <feGaussianBlur stdDeviation="3" in="shadowOffsetOuter1" result="shadowBlurOuter1"></feGaussianBlur>
            <feColorMatrix values="0 0 0 0 0   0 0 0 0 0   0 0 0 0 0  0 0 0 0.5 0" type="matrix" in="shadowBlurOuter1"></feColorMatrix>
        </filter>
        <rect id="path-5" x="383.858407" y="283" width="105.103245" height="36" rx="4"></rect>
        <filter x="-3.8%" y="-5.6%" width="107.6%" height="122.2%" filterUnits="objectBoundingBox" id="filter-6">
            <feOffset dx="0" dy="2" in="SourceAlpha" result="shadowOffsetOuter1"></feOffset>
            <feGaussianBlur stdDeviation="1" in="shadowOffsetOuter1" result="shadowBlurOuter1"></feGaussianBlur>
            <feColorMatrix values="0 0 0 0 0   0 0 0 0 0   0 0 0 0 0  0 0 0 0.257457386 0" type="matrix" in="shadowBlurOuter1"></feColorMatrix>
        </filter>
    </defs>
    <g id="01_Sign" stroke="none" stroke-width="1" fill="none" fill-rule="evenodd">
        <rect fill="#131415" x="0" y="0" width="1283" height="1030"></rect>
        <rect id="Background" fill="#F2F5F6" x="-1" y="38" width="1284" height="992"></rect>
        <g id="Rectangle">
            <use fill="black" fill-opacity="1" filter="url(#filter-2)" xlink:href="#path-1"></use>
            <use fill="#FFFFFF" fill-rule="evenodd" xlink:href="#path-1"></use>
        </g>
        <g id="Rectangle-13">
            <use fill="black" fill-opacity="1" filter="url(#filter-4)" xlink:href="#path-3"></use>
            <use fill="#5E4EA5" fill-rule="evenodd" xlink:href="#path-3"></use>
        </g>
        <g id="Browser" transform="translate(-1.000000, 0.000000)">
            <path d="M0,6.00024414 C0,2.68640081 2.6794487,0 5.99234946,0 L1278.00765,0 C1281.31713,0 1284,2.68722626 1284,6.00024414 L1284,38 L0,38 L0,6.00024414 Z" id="Tab-BG---Right" fill="#363738"></path>
            <circle id="Dot---Red" fill="#FF5F57" cx="18" cy="19" r="6"></circle>
            <circle id="Dot---Orange" fill="#FFBF2F" cx="38" cy="19" r="6"></circle>
            <circle id="Dot---Green" fill="#28CA42" cx="58" cy="19" r="6"></circle>
            <g id="Back" transform="translate(76.000000, 7.000000)">
                <rect id="Rectangle" fill="#656668" x="0" y="0" width="28" height="24" rx="4"></rect>
                <path d="M10.1607883,11.3246277 L15.780455,5.65901618 C15.9603839,5.47908726 16.2513057,5.47908726 16.4312347,5.65901618 L17.1891941,6.41697565 C17.3691231,6.59690457 17.3691231,6.88782642 17.1891941,7.06775535 L12.6528768,11.6500175 L17.1891941,16.2322797 C17.3691231,16.4122086 17.3691231,16.7031305 17.1891941,16.8830594 L16.4312347,17.6410189 C16.2513057,17.8209478 15.9603839,17.8209478 15.780455,17.6410189 L10.1607883,11.9754074 C9.98085942,11.7954785 9.98085942,11.5045566 10.1607883,11.3246277 Z" id="a" fill="#FFFFFF" fill-rule="nonzero"></path>
            </g>
            <g id="Forward" transform="translate(105.000000, 7.000000)">
                <rect id="Rectangle" fill="#656668" x="0" y="0" width="28" height="24" rx="4"></rect>
                <path d="M18.1891941,11.9754074 L12.5695275,17.6410189 C12.3895986,17.8209478 12.0986767,17.8209478 11.9187478,17.6410189 L11.1607883,16.8830594 C10.9808594,16.7031305 10.9808594,16.4122086 11.1607883,16.2322797 L15.6971057,11.6500175 L11.1607883,7.06775535 C10.9808594,6.88782642 10.9808594,6.59690457 11.1607883,6.41697565 L11.9187478,5.65901618 C12.0986767,5.47908726 12.3895986,5.47908726 12.5695275,5.65901618 L18.1891941,11.3246277 C18.3691231,11.5045566 18.3691231,11.7954785 18.1891941,11.9754074 Z" id="a" fill="#FFFFFF" fill-rule="nonzero" opacity="0.200334821"></path>
            </g>
            <g id="New-Tab" transform="translate(1260.000000, 14.000000)">
                <rect id="Rectangle" fill="#292A2B" x="0" y="0" width="24" height="24"></rect>
                <path d="M16.2531029,11.6843877 C16.3618742,11.6843877 16.4499775,11.7724909 16.4499775,11.8812622 L16.4499775,12.6687603 C16.4499775,12.7775316 16.3618742,12.8656349 16.2531029,12.8656349 L12.3156123,12.8656349 L12.3156123,16.8031255 C12.3156123,16.9118967 12.2275091,17 12.1187378,17 L11.3312397,17 C11.2224684,17 11.1343651,16.9118967 11.1343651,16.8031255 L11.1343651,12.8656349 L7.19687453,12.8656349 C7.08810328,12.8656349 7,12.7775316 7,12.6687603 L7,11.8812622 C7,11.7724909 7.08810328,11.6843877 7.19687453,11.6843877 L11.1343651,11.6843877 L11.1343651,7.74689706 C11.1343651,7.63812581 11.2224684,7.55002253 11.3312397,7.55002253 L12.1187378,7.55002253 C12.2275091,7.55002253 12.3156123,7.63812581 12.3156123,7.74689706 L12.3156123,11.6843877 L16.2531029,11.6843877 Z" id="p" fill="#FFFFFF" fill-rule="nonzero" opacity="0.497907366"></path>
            </g>
            <g id="URL" transform="translate(378.000000, 7.000000)">
                <path d="M0,3.99005301 C0,1.78640758 1.78094395,5.31029755e-14 3.99753941,5.28693238e-14 L516.002461,-1.1012102e-15 C518.210241,-1.33393271e-15 520,1.78429328 520,3.99005301 L520,20.009947 C520,22.2135924 518.219056,24 516.002461,24 L3.99753941,24 C1.78975936,24 0,22.2157067 0,20.009947 L0,3.99005301 Z" id="URL-Bar" fill="#696A6B"></path>
                <path d="M512.304658,5.17186422 C512.467743,5.17186422 512.59997,5.30412783 512.59997,5.46721261 L512.59997,10.1922013 C512.59997,10.3552861 512.467743,10.4875131 512.304658,10.4875131 L507.579669,10.4875131 C507.416585,10.4875131 507.284358,10.3552861 507.284358,10.1922013 L507.284358,9.51027815 C507.284358,9.34440559 507.42091,9.21109712 507.586711,9.21503845 L510.69705,9.2890827 C509.940722,7.61516854 508.257531,6.45158527 506.299985,6.45158527 C503.633864,6.45158527 501.476559,8.60927437 501.476559,11.2750113 C501.476559,13.9411327 503.634248,16.0984373 506.299985,16.0984373 C507.533046,16.0984373 508.65724,15.6369165 509.509554,14.8770557 C509.6264,14.7728747 509.804938,14.7799403 509.915632,14.8906341 L510.401377,15.3763797 C510.521276,15.4962781 510.51534,15.6917347 510.389505,15.8053845 C509.307296,16.7829079 507.873155,17.3781217 506.299985,17.3781217 C502.93257,17.3781217 500.202138,14.6509336 500.19686,11.2847685 C500.191635,7.92836054 502.924087,5.18242707 506.280471,5.17186422 C508.411171,5.16526784 510.288545,6.2506252 511.385221,7.89993005 L511.327471,5.47425415 C511.32353,5.30842965 511.456862,5.17186422 511.622711,5.17186422 L512.304658,5.17186422 Z" id="r" fill="#FFFFFF" fill-rule="nonzero" transform="translate(506.398415, 11.274993) rotate(-45.000000) translate(-506.398415, -11.274993) "></path>
                <text id="Ride-the-Lightning" font-family="Roboto-Regular, Roboto" font-size="12.6" font-weight="normal" fill="#FFFFFF">
                    <tspan x="210" y="17">Ride the Lightning</tspan>
                </text>
            </g>
        </g>
        <text id="Dashboard" font-family="FontAwesome5Pro-Regular, Font Awesome 5 Pro" font-size="18" font-weight="normal" fill="#FFFFFF">
            <tspan x="23" y="74">bars</tspan>
        </text>
        <g id="RTL-Logo" transform="translate(1209.000000, 57.000000)" fill="#FFFFFF">
            <path d="M5.10234375,9.19606308 L3.54375,9.19606308 L2.80546875,13.4124693 L0,13.4124693 L2.0671875,1.46871933 L6.28359375,1.47692246 C7.63438175,1.47692246 8.67480104,1.79273961 9.40488281,2.4243834 C10.1349646,3.05602718 10.4617191,3.91871386 10.3851562,5.01246933 C10.3249997,5.87653615 10.0761741,6.59156807 9.63867187,7.15758652 C9.20116969,7.72360498 8.58867581,8.17067082 7.80117187,8.49879746 L9.40898437,13.2730162 L9.40898437,13.4124693 L6.41484375,13.4124693 L5.10234375,9.19606308 Z M3.92109375,6.97301621 L5.56171875,6.98942246 C6.01015849,6.98942246 6.39980303,6.88004855 6.73066406,6.66129746 C7.06152509,6.44254636 7.29804616,6.1431353 7.44023438,5.76305527 C7.58242259,5.38297525 7.6234378,5.01520549 7.56328125,4.65973496 C7.4539057,4.05270067 7.06562834,3.732782 6.3984375,3.69996933 L4.4953125,3.69176621 L3.92109375,6.97301621 Z M21.0984375,3.69176621 L17.6203125,3.69176621 L15.9386719,13.4124693 L13.125,13.4124693 L14.8148438,3.69176621 L11.3941406,3.69176621 L11.7878906,1.46871933 L21.4839844,1.46871933 L21.0984375,3.69176621 Z M23.8464844,11.1976256 L28.7109375,11.1976256 L28.3253906,13.4124693 L20.6554688,13.4124693 L22.7226562,1.46871933 L25.5363281,1.46871933 L23.8464844,11.1976256 Z" id="RTL-Copy" fill-rule="nonzero"></path>
            <path d="M37.882011,4.59373905 C38.4131621,4.59373905 38.7433371,5.1708163 38.4763316,5.62733033 L33.4232186,14.3554345 C33.2968796,14.5736259 33.0671926,14.699965 32.8260382,14.699965 C32.3867394,14.699965 32.0537046,14.2894051 32.1570525,13.8529943 L33.4806404,8.26873029 L30.0726546,8.26873029 C29.656347,8.26873029 29.3347797,7.90123677 29.3893415,7.48778904 L30.3080893,0.597180469 C30.3540155,0.25553795 30.646872,-1.13686838e-13 30.9914024,-1.13686838e-13 L35.1257676,-1.13686838e-13 C35.5765338,-1.13686838e-13 35.9067088,0.430663036 35.7918653,0.867073853 L34.5687655,4.59373905 L37.882011,4.59373905 Z" id="b-copy" fill-rule="nonzero"></path>
            <text id="caret-down" font-family="FontAwesome5Pro-Solid, Font Awesome 5 Pro" font-size="16" font-weight="700">
                <tspan x="46" y="15">caret-down</tspan>
            </text>
        </g>
        <rect id="Rectangle" fill-opacity="0.114128059" fill="#C2C2C2" x="-1" y="300" width="218" height="288"></rect>
        <rect id="Rectangle" fill="#D8D8D8" opacity="0" x="-1" y="206" width="218" height="48"></rect>
        <text id="On-chain" font-family="Roboto-Regular, Roboto" font-size="14" font-weight="normal" fill="#474747">
            <tspan x="69" y="235">On-chain</tspan>
        </text>
        <g id="Group-9" transform="translate(-1.000000, 689.000000)">
            <rect id="Rectangle" fill="#D8D8D8" opacity="0" x="0" y="0" width="218" height="48"></rect>
            <text id="On-chain" font-family="Roboto-Regular, Roboto" font-size="14" font-weight="normal" fill="#4A4A4A">
                <tspan x="70" y="29">Advanced</tspan>
            </text>
            <rect id="Rectangle" fill="#D8D8D8" opacity="0" x="0" y="48" width="218" height="48"></rect>
            <text id="On-chain" font-family="Roboto-Regular, Roboto" font-size="14" font-weight="normal" fill="#4A4A4A">
                <tspan x="70" y="77">Help</tspan>
            </text>
            <g id="Group-6" transform="translate(0.000000, 110.000000)">
                <g id="Group-30" transform="translate(0.000000, 7.000000)">
                    <g id="Group-3">
                        <rect id="Rectangle" fill="#D8D8D8" opacity="0" x="0" y="0" width="218" height="48"></rect>
                        <text id="On-chain" font-family="Roboto-Regular, Roboto" font-size="14" font-weight="normal" fill="#4A4A4A">
                            <tspan x="70" y="29">Public Key</tspan>
                        </text>
                    </g>
                    <text id="eye" font-family="FontAwesome5Pro-Solid, Font Awesome 5 Pro" font-size="14" font-weight="700" fill="#858585">
                        <tspan x="24" y="29">eye</tspan>
                    </text>
                </g>
                <line x1="0.5" y1="0.5" x2="218.5" y2="0.5" id="Line-3" stroke="#E6E6E6" stroke-linecap="square"></line>
            </g>
            <text id="cog" font-family="FontAwesome5Pro-Solid, Font Awesome 5 Pro" font-size="14" font-weight="700" fill="#858585">
                <tspan x="25" y="30">cog</tspan>
            </text>
            <text id="life-ring" font-family="FontAwesome5Pro-Solid, Font Awesome 5 Pro" font-size="14" font-weight="700" fill="#858585">
                <tspan x="25" y="77">life-ring</tspan>
            </text>
        </g>
        <text id="On-chain-Copy" font-family="Roboto-Regular, Roboto" font-size="14" font-weight="normal" fill="#474747">
            <tspan x="69" y="283">Lightning</tspan>
        </text>
        <text id="Dashboard" font-family="Roboto-Regular, Roboto" font-size="14" font-weight="normal" fill="#4A4A4A">
            <tspan x="69" y="185">Dashboard</tspan>
        </text>
        <text id="Dashboard" font-family="Roboto-Regular, Roboto" font-size="16" font-weight="normal" fill="#181818">
            <tspan x="23" y="132">Amora_UK01</tspan>
        </text>
        <path d="M122.605572,124 L130.394412,124 C130.933268,124 131.202666,124.637416 130.821258,125.01096 L126.92833,128.826568 C126.692219,129.057811 126.307766,129.057811 126.071654,128.826568 L122.178757,125.01096 C121.797319,124.637416 122.066746,124 122.605572,124 Z" id="c" fill="#4B4B4B" fill-rule="nonzero"></path>
        <text id="tachometer-alt" font-family="FontAwesome5Pro-Solid, Font Awesome 5 Pro" font-size="14" font-weight="700" fill="#858585">
            <tspan x="23" y="186">tachometer-alt</tspan>
        </text>
        <text id="link" font-family="FontAwesome5Pro-Solid, Font Awesome 5 Pro" font-size="14" font-weight="700" fill="#858585">
            <tspan x="24" y="235">link</tspan>
        </text>
        <text id="bolt" font-family="FontAwesome5Pro-Solid, Font Awesome 5 Pro" font-size="14" font-weight="700" fill="#858585">
            <tspan x="25" y="284">bolt</tspan>
        </text>
        <rect id="Rectangle" fill="#59316B" opacity="0" x="560" y="190" width="160" height="2"></rect>
        <text id="Sign-/-Verify-Messag" font-family="Roboto-Regular, Roboto" font-size="16" font-weight="normal" fill="#84979E">
            <tspan x="266" y="124">Sign / Verify Message</tspan>
        </text>
        <text id="user-check" font-family="FontAwesome5Pro-Solid, Font Awesome 5 Pro" font-size="14" font-weight="700" fill="#84979E">
            <tspan x="242.25" y="122">user-check</tspan>
        </text>
        <rect id="Rectangle" fill-opacity="0.114128059" fill="#5E4EA5" opacity="0" x="0" y="396" width="218" height="48"></rect>
        <text id="On-chain-Copy" font-family="Roboto-Regular, Roboto" font-size="14" font-weight="normal" fill="#474747">
            <tspan x="76" y="425">Graph Lookup</tspan>
        </text>
        <g id="Group-11" transform="translate(0.000000, 444.000000)">
            <rect id="Rectangle" fill-opacity="0.114128059" fill="#5E4EA5" opacity="0" x="0" y="0" width="218" height="48"></rect>
            <text id="On-chain-Copy" font-family="Roboto-Regular, Roboto" font-size="14" font-weight="normal" fill="#474747">
                <tspan x="76" y="29">Routing</tspan>
            </text>
            <text id="map-signs" font-family="FontAwesome5Pro-Solid, Font Awesome 5 Pro" font-size="14" font-weight="700" fill="#858585">
                <tspan x="35" y="30">map-signs</tspan>
            </text>
        </g>
        <rect id="Rectangle" fill-opacity="0.114128059" fill="#5E4EA5" opacity="0" x="0" y="491" width="218" height="48"></rect>
        <text id="On-chain-Copy" font-family="Roboto-Regular, Roboto" font-size="14" font-weight="normal" fill="#474747">
            <tspan x="76" y="520">Network</tspan>
        </text>
        <rect id="Rectangle" fill-opacity="0.114128059" fill="#BEBEBE" x="-2" y="587" width="219" height="48"></rect>
        <g id="Group-2" transform="translate(-1.000000, 348.000000)">
            <rect id="Rectangle" fill-opacity="0.114128059" fill="#5E4EA5" opacity="0" x="0" y="0" width="218" height="48"></rect>
            <text id="On-chain-Copy" font-family="Roboto-Regular, Roboto" font-size="14" font-weight="normal" fill="#484848">
                <tspan x="76" y="29">Transactions</tspan>
            </text>
        </g>
        <text id="exchange" font-family="FontAwesome5Pro-Regular, Font Awesome 5 Pro" font-size="14" font-weight="normal" fill="#5D5D5D">
            <tspan x="36" y="379">exchange</tspan>
        </text>
        <g id="Group-13" transform="translate(-1.000000, 300.000000)">
            <g id="Group-2">
                <rect id="Rectangle" fill-opacity="0.114128059" fill="#5E4EA5" opacity="0" x="0" y="0" width="218" height="48"></rect>
                <text id="On-chain-Copy" font-family="Roboto-Regular, Roboto" font-size="14" font-weight="normal" fill="#474747">
                    <tspan x="76" y="29">Peers / Channels</tspan>
                </text>
            </g>
        </g>
        <text id="users" font-family="FontAwesome5Pro-Solid, Font Awesome 5 Pro" font-size="14" font-weight="700" fill="#858585">
            <tspan x="34" y="331">users</tspan>
        </text>
        <text id="search" font-family="FontAwesome5Pro-Solid, Font Awesome 5 Pro" font-size="14" font-weight="700" fill="#858585">
            <tspan x="37" y="427">search</tspan>
        </text>
        <text id="network-wired" font-family="FontAwesome5Pro-Solid, Font Awesome 5 Pro" font-size="14" font-weight="700" fill="#858585">
            <tspan x="34" y="519">network-wired</tspan>
        </text>
        <text id="On-chain-Copy" font-family="Roboto-Regular, Roboto" font-size="14" font-weight="normal" fill="#474747">
            <tspan x="76" y="569">Backup</tspan>
        </text>
        <text id="download" font-family="FontAwesome5Pro-Solid, Font Awesome 5 Pro" font-size="14" font-weight="700" fill="#5E4EA5">
            <tspan x="34" y="568">download</tspan>
        </text>
        <text id="download" font-family="FontAwesome5Pro-Solid, Font Awesome 5 Pro" font-size="14" font-weight="700" fill="#858585">
            <tspan x="34" y="568">download</tspan>
        </text>
        <rect id="Rectangle" fill-opacity="0.114128059" fill="#BEBEBE" x="0" y="587" width="219" height="48"></rect>
        <text id="On-chain-Copy" font-family="Roboto-Medium, Roboto" font-size="14" font-weight="400" fill="#5E4EA5">
            <tspan x="76" y="616">Sign / Verify</tspan>
        </text>
        <text id="user-check" font-family="FontAwesome5Pro-Solid, Font Awesome 5 Pro" font-size="14" font-weight="700" fill="#5E4EA5">
            <tspan x="34" y="616">user-check</tspan>
        </text>
        <path d="M1254.87223,518.5 L247.12777,518.5 C245.486332,518.5 244.884079,518.346766 244.282108,518.024828 C243.718679,517.723503 243.276497,517.281321 242.975172,516.717892 C242.653234,516.115921 242.5,515.513668 242.5,513.87223 L242.5,153.12777 C242.5,151.486332 242.653234,150.884079 242.975172,150.282108 C243.276497,149.718679 243.718679,149.276497 244.282108,148.975172 C244.884079,148.653234 245.486332,148.5 247.12777,148.5 L1254.87223,148.5 C1256.51367,148.5 1257.11592,148.653234 1257.71789,148.975172 C1258.28132,149.276497 1258.7235,149.718679 1259.02483,150.282108 C1259.34677,150.884079 1259.5,151.486332 1259.5,153.12777 L1259.5,513.87223 C1259.5,515.513668 1259.34677,516.115921 1259.02483,516.717892 C1258.7235,517.281321 1258.28132,517.723503 1257.71789,518.024828 C1257.11592,518.346766 1256.51367,518.5 1254.87223,518.5 Z" id="Rectangle" stroke="#DEDEDE" fill="#FFFFFF"></path>
        <line x1="394.155359" y1="193.5" x2="1258.5" y2="193.5" id="Line" stroke="#D7D7D7" stroke-linecap="square"></line>
        <rect id="Rectangle" fill="#5E4EA5" x="243" y="192" width="160.157325" height="2"></rect>
        <rect id="Rectangle" fill="#59316B" opacity="0" x="396.157325" y="192" width="160.157325" height="2"></rect>
        <rect id="Rectangle" fill="#59316B" opacity="0" x="556.314651" y="192" width="160.157325" height="2"></rect>
        <text id="Sign" font-family="Roboto-Medium, Roboto" font-size="14" font-weight="400" fill="#5E4EA5">
            <tspan x="309.205128" y="175">Sign</tspan>
        </text>
        <text id="Verify" font-family="Roboto-Regular, Roboto" font-size="14" font-weight="normal" fill="#979797">
            <tspan x="465.106983" y="175">Verify</tspan>
        </text>
        <g id="Group-13" transform="translate(266.023599, 212.000000)">
            <text id="Message-to-sign" font-family="Roboto-Regular, Roboto" font-size="15" font-weight="normal" fill="#444444">
                <tspan x="0" y="36">Message to sign</tspan>
            </text>
            <text id="Amount" opacity="0" font-family="Roboto-Regular, Roboto" font-size="12" font-weight="normal" fill="#5E4EA5">
                <tspan x="0" y="11">Amount</tspan>
            </text>
            <g id="Group-7" transform="translate(0.000000, 22.000000)"></g>
        </g>
        <g id="Group-13-Copy" transform="translate(266.023599, 625.000000)">
            <g id="Group-7"></g>
        </g>
        <g id="Group-5" transform="translate(266.000000, 373.000000)">
            <g id="Group-4">
                <g id="Group-13" transform="translate(2.023599, 0.000000)">
                    <text id="Generated-Signature" font-family="Roboto-Regular, Roboto" font-size="15" font-weight="normal" fill="#444444">
                        <tspan x="0" y="14">Generated Signature</tspan>
                    </text>
                    <g id="Group-7"></g>
                </g>
                <rect id="Rectangle-Copy-7" stroke="#DCDCDC" fill="#FFFFFF" x="0.5" y="25.5" width="970" height="35" rx="4"></rect>
            </g>
            <g id="Group-14" transform="translate(0.000000, 85.000000)">
                <rect id="Rectangle-Copy-7" stroke="#DCDCDC" fill="#FFFFFF" x="0.5" y="0.5" width="130" height="35" rx="4"></rect>
                <text id="Copy-Signature" font-family="Roboto-Medium, Roboto" font-size="14" font-weight="400" fill="#4F4F4F">
                    <tspan x="18.8603516" y="23">Copy Signature</tspan>
                </text>
            </g>
        </g>
        <rect id="Rectangle" stroke="#979797" fill="#D8D8D8" x="266.523599" y="258.5" width="968" height="1"></rect>
        <line x1="1231.5" y1="256.5" x2="1233.5" y2="254.5" id="Line-4" stroke="#979797" stroke-linecap="square"></line>
        <line x1="1228" y1="256.5" x2="1233.5" y2="251.5" id="Line-4" stroke="#979797" stroke-linecap="square"></line>
        <g id="Group-13-Copy" transform="translate(266.023599, 694.000000)">
            <g id="Group-7"></g>
        </g>
        <g id="Group-14" transform="translate(266.000000, 283.000000)">
            <rect id="Rectangle-Copy-7" stroke="#DCDCDC" fill="#FFFFFF" x="0.5" y="0.5" width="104.103245" height="35" rx="4"></rect>
            <text id="Clear-Field" font-family="Roboto-Medium, Roboto" font-size="14" font-weight="400" fill="#4F4F4F">
                <tspan x="19.8192039" y="23">Clear Field</tspan>
            </text>
        </g>
        <g id="Rectangle-Copy-7">
            <use fill="black" fill-opacity="1" filter="url(#filter-6)" xlink:href="#path-5"></use>
            <use fill="#5E4EA5" fill-rule="evenodd" xlink:href="#path-5"></use>
        </g>
        <text id="Sign" font-family="Roboto-Medium, Roboto" font-size="14" font-weight="400" fill="#FFFFFF">
            <tspan x="423.036986" y="306">Sign</tspan>
        </text>
        <line x1="268.5" y1="348.5" x2="1235.5" y2="348.5" id="Line-2" stroke="#F1F1F1" stroke-linecap="square"></line>
        <g id="Group-5-Copy" transform="translate(268.000000, 828.000000)">
            <g id="Group-4">
                <g id="Group-13" transform="translate(0.023599, 0.000000)">
                    <g id="Group-7"></g>
                </g>
            </g>
        </g>
    </g>
</svg>