<?xml version="1.0" encoding="UTF-8"?>
<svg width="1300px" height="1300px" viewBox="0 0 1300 1300" version="1.1" xmlns="http://www.w3.org/2000/svg" xmlns:xlink="http://www.w3.org/1999/xlink">
    <!-- Generator: Sketch 62 (91390) - https://sketch.com -->
    <title>Logo_03_Purple</title>
    <desc>Created with Sketch.</desc>
    <g id="Logo_03_Purple" stroke="none" stroke-width="1" fill="none" fill-rule="evenodd">
        <rect fill="#7427E9" x="0" y="0" width="1300" height="1300"></rect>
        <g id="Group" transform="translate(109.000000, 512.000000)">
            <g id="Group-7" transform="translate(0.000000, -0.000000)">
                <circle id="Oval-Copy" fill="#FFFFFF" cx="127" cy="148" r="127"></circle>
                <circle id="Oval-Copy-2" fill="#7427E9" cx="127" cy="147.570313" r="99"></circle>
                <path d="M293.546875,252.476563 L339.875,252.476563 L336.203125,273.570312 L263.15625,273.570312 L282.84375,159.820313 L309.640625,159.820313 L293.546875,252.476563 Z M376.59375,273.570312 L349.875,273.570312 L369.640625,159.820313 L396.28125,159.820313 L376.59375,273.570312 Z M489.953125,259.585938 C485.68227,264.585963 479.458374,268.453111 471.28125,271.1875 C463.104126,273.921889 454.041716,275.210938 444.09375,275.054688 C434.562452,274.95052 426.515658,272.554711 419.953125,267.867188 C413.390592,263.179664 408.703139,256.643271 405.890625,248.257813 C403.078111,239.872354 402.32291,230.419323 403.625,219.898438 L404.25,215.210938 C406.645845,197.554599 412.856721,183.570364 422.882812,173.257813 C432.908904,162.945261 445.187427,157.91927 459.71875,158.179688 C472.427147,158.388022 482.192674,161.799446 489.015625,168.414063 C495.838576,175.028679 499.640621,184.585875 500.421875,197.085938 L474.796875,197.007813 C474.43229,190.914032 472.934909,186.460952 470.304688,183.648438 C467.674466,180.835923 463.937524,179.351563 459.09375,179.195313 C451.906214,178.934895 445.968773,181.760387 441.28125,187.671875 C436.593727,193.583363 433.390634,202.033799 431.671875,213.023438 L431.443605,214.525453 C430.159968,223.180678 429.715229,229.971611 430.109375,234.898438 C430.890629,247.450584 436.541614,253.804687 447.0625,253.960938 C453.416698,254.065105 458.989559,252.528662 463.78125,249.351563 L467.296875,231.617188 L448.78125,231.617188 L452.0625,212.789063 L497.296875,212.789063 L489.953125,259.585938 Z M594.5625,273.570312 L568,273.570312 L576.203125,226.070313 L537.21875,226.070313 L528.9375,273.570312 L502.21875,273.570312 L521.90625,159.820313 L548.703125,159.820313 L540.8125,204.976563 L579.875,204.976563 L587.6875,159.820313 L614.328125,159.820313 L594.5625,273.570312 Z M714.875,180.992188 L681.75,180.992188 L665.734375,273.570312 L638.9375,273.570312 L655.03125,180.992188 L622.453125,180.992188 L626.203125,159.820313 L718.546875,159.820313 L714.875,180.992188 Z M802.921875,273.570312 L777.0625,273.570312 L749.875,201.773438 L737.375,273.570312 L710.65625,273.570312 L730.34375,159.820313 L756.4375,159.820313 L783.546875,231.617188 L795.96875,159.820313 L822.6875,159.820313 L802.921875,273.570312 Z M848.9375,273.570312 L822.21875,273.570312 L841.984375,159.820313 L868.625,159.820313 L848.9375,273.570312 Z M960.265625,273.570312 L934.40625,273.570312 L907.21875,201.773438 L894.71875,273.570312 L868,273.570312 L887.6875,159.820313 L913.78125,159.820313 L940.890625,231.617188 L953.3125,159.820313 L980.03125,159.820313 L960.265625,273.570312 Z M1072.0625,259.585938 C1067.79165,264.585963 1061.56775,268.453111 1053.39062,271.1875 C1045.2135,273.921889 1036.15109,275.210938 1026.20312,275.054688 C1016.67183,274.95052 1008.62503,272.554711 1002.0625,267.867188 C995.499967,263.179664 990.812514,256.643271 988,248.257813 C985.187486,239.872354 984.432285,230.419323 985.734375,219.898438 L986.359375,215.210938 C988.75522,197.554599 994.966096,183.570364 1004.99219,173.257813 C1015.01828,162.945261 1027.2968,157.91927 1041.82812,158.179688 C1054.53652,158.388022 1064.30205,161.799446 1071.125,168.414063 C1077.94795,175.028679 1081.75,184.585875 1082.53125,197.085938 L1056.90625,197.007813 C1056.54166,190.914032 1055.04428,186.460952 1052.41406,183.648438 C1049.78384,180.835923 1046.0469,179.351563 1041.20312,179.195313 C1034.01559,178.934895 1028.07815,181.760387 1023.39062,187.671875 C1018.7031,193.583363 1015.50001,202.033799 1013.78125,213.023438 L1013.55298,214.525453 C1012.30602,222.933386 1011.8507,229.582036 1012.18702,234.471573 L1012.21875,234.898438 C1013,247.450584 1018.65099,253.804687 1029.17188,253.960938 C1035.52607,254.065105 1041.09893,252.528662 1045.89062,249.351563 L1049.40625,231.617188 L1030.89062,231.617188 L1034.17188,212.789063 L1079.40625,212.789063 L1072.0625,259.585938 Z" id="LIGHTNING-Copy" fill="#FFFFFF" fill-rule="nonzero"></path>
                <polygon id="Path-2-Copy" fill="#7427E9" points="211.335938 0 186 158.170066 310.346003 158.170066 336.210938 0"></polygon>
                <path d="M263.59375,94.4140625 L248.75,94.4140625 L241.71875,134.570313 L215,134.570313 L234.6875,20.8203125 L274.84375,20.8984375 C287.708398,20.8984375 297.617153,23.9062199 304.570312,29.921875 C311.523472,35.9375301 314.63542,44.1535938 313.90625,54.5703125 C313.33333,62.7995203 310.963562,69.609348 306.796875,75 C302.630187,80.390652 296.796912,84.6484219 289.296875,87.7734375 L304.609375,133.242188 L304.609375,134.570313 L276.09375,134.570313 L263.59375,94.4140625 Z M252.34375,73.2421875 L267.96875,73.3984375 C272.239605,73.3984375 275.950505,72.3567813 279.101562,70.2734375 C282.25262,68.1900937 284.505202,65.3385598 285.859375,61.71875 C287.213548,58.0989402 287.60417,54.5963711 287.03125,51.2109375 C285.989578,45.4296586 282.291698,42.3828141 275.9375,42.0703125 L257.8125,41.9921875 L252.34375,73.2421875 Z M345.546875,134.570313 L318.828125,134.570313 L338.59375,20.8203125 L365.234375,20.8203125 L345.546875,134.570313 Z M364.609375,134.570313 L384.296875,20.8203125 L417.734375,20.8984375 C427.578174,20.8984375 436.171838,23.4895574 443.515625,28.671875 C450.859412,33.8541926 456.067693,40.9244344 459.140625,49.8828125 C461.796888,57.7474352 462.604172,66.2369336 461.5625,75.3515625 L461.015625,80.1171875 C459.609375,90.3255719 456.223985,99.5702711 450.859375,107.851563 C445.494765,116.132854 438.593792,122.630185 430.15625,127.34375 C421.718708,132.057315 412.604216,134.466145 402.8125,134.570313 L364.609375,134.570313 Z M407.421875,41.9921875 L395,113.476563 L402.8125,113.554688 C411.979213,113.554688 419.33591,110.013056 424.882812,102.929688 C430.429715,95.8463188 433.723953,85.0130938 434.765625,70.4296875 L434.921875,67.8515625 C435.28646,59.5181875 433.98439,53.1901258 431.015625,48.8671875 C428.04686,44.5442492 423.59378,42.2786469 417.65625,42.0703125 L407.421875,41.9921875 Z M542.65625,86.3671875 L500.859375,86.3671875 L496.09375,113.476563 L545.546875,113.476563 L541.875,134.570313 L465.703125,134.570313 L485.390625,20.8203125 L561.71875,20.8203125 L558.046875,41.9921875 L508.515625,41.9921875 L504.296875,65.9765625 L546.171875,65.9765625 L542.65625,86.3671875 Z M695.625,41.9921875 L662.5,41.9921875 L646.484375,134.570313 L619.6875,134.570313 L635.78125,41.9921875 L603.203125,41.9921875 L606.953125,20.8203125 L699.296875,20.8203125 L695.625,41.9921875 Z M783.75,134.570313 L757.1875,134.570313 L765.390625,87.0703125 L726.40625,87.0703125 L718.125,134.570313 L691.40625,134.570313 L711.09375,20.8203125 L737.890625,20.8203125 L730,65.9765625 L769.0625,65.9765625 L776.875,20.8203125 L803.515625,20.8203125 L783.75,134.570313 Z M878.203125,86.3671875 L836.40625,86.3671875 L831.640625,113.476563 L881.09375,113.476563 L877.421875,134.570313 L801.25,134.570313 L820.9375,20.8203125 L897.265625,20.8203125 L893.59375,41.9921875 L844.0625,41.9921875 L839.84375,65.9765625 L881.71875,65.9765625 L878.203125,86.3671875 Z" id="RIDETHE-Copy" fill="#FFFFFF" fill-rule="nonzero"></path>
                <path d="M171.720838,122.875 C177.140699,122.875 180.509801,128.763557 177.78528,133.421875 L126.223361,222.484375 C124.934198,224.710823 122.590475,226 120.129736,226 C115.647136,226 112.248851,221.810604 113.303413,217.357422 L126.809292,160.375 L92.0342354,160.375 C87.7862363,160.375 84.5049661,156.625057 85.0617149,152.406193 L94.4366093,82.0936928 C94.9052396,78.6075363 97.8935444,76 101.40913,76 L143.596155,76 C148.195769,76 151.564872,80.3945313 150.39301,84.8477135 L137.91251,122.875 L171.720838,122.875 Z" id="b-copy" fill="#FFFFFF" fill-rule="nonzero" transform="translate(131.875000, 151.000000) rotate(-315.000000) translate(-131.875000, -151.000000) "></path>
            </g>
        </g>
    </g>
</svg>