<?xml version="1.0" encoding="UTF-8"?>
<svg width="1300px" height="1300px" viewBox="0 0 1300 1300" version="1.1" xmlns="http://www.w3.org/2000/svg" xmlns:xlink="http://www.w3.org/1999/xlink">
    <!-- Generator: Sketch 62 (91390) - https://sketch.com -->
    <title>Logo_03_Light</title>
    <desc>Created with Sketch.</desc>
    <g id="Logo_03_Light" stroke="none" stroke-width="1" fill="none" fill-rule="evenodd">
        <rect fill="#FFFFFF" x="0" y="0" width="1300" height="1300"></rect>
        <circle id="Oval-Copy" fill="#242424" cx="236" cy="660" r="127"></circle>
        <circle id="Oval-Copy-2" fill="#FFFFFF" cx="236" cy="659.570312" r="99"></circle>
        <path d="M402.546875,764.476562 L448.875,764.476562 L445.203125,785.570312 L372.15625,785.570312 L391.84375,671.820312 L418.640625,671.820312 L402.546875,764.476562 Z M485.59375,785.570312 L458.875,785.570312 L478.640625,671.820312 L505.28125,671.820312 L485.59375,785.570312 Z M598.953125,771.585938 C594.68227,776.585963 588.458374,780.453111 580.28125,783.1875 C572.104126,785.921889 563.041716,787.210938 553.09375,787.054688 C543.562452,786.95052 535.515658,784.554711 528.953125,779.867188 C522.390592,775.179664 517.703139,768.643271 514.890625,760.257812 C512.078111,751.872354 511.32291,742.419323 512.625,731.898438 L513.25,727.210938 C515.645845,709.554599 521.856721,695.570364 531.882812,685.257812 C541.908904,674.945261 554.187427,669.91927 568.71875,670.179688 C581.427147,670.388022 591.192674,673.799446 598.015625,680.414062 C604.838576,687.028679 608.640621,696.585875 609.421875,709.085938 L583.796875,709.007812 C583.43229,702.914032 581.934909,698.460952 579.304688,695.648438 C576.674466,692.835923 572.937524,691.351563 568.09375,691.195312 C560.906214,690.934895 554.968773,693.760387 550.28125,699.671875 C545.593727,705.583363 542.390634,714.033799 540.671875,725.023438 L540.443605,726.525453 C539.159968,735.180678 538.715229,741.971611 539.109375,746.898438 C539.890629,759.450584 545.541614,765.804687 556.0625,765.960938 C562.416698,766.065105 567.989559,764.528662 572.78125,761.351562 L576.296875,743.617188 L557.78125,743.617188 L561.0625,724.789062 L606.296875,724.789062 L598.953125,771.585938 Z M703.5625,785.570312 L677,785.570312 L685.203125,738.070312 L646.21875,738.070312 L637.9375,785.570312 L611.21875,785.570312 L630.90625,671.820312 L657.703125,671.820312 L649.8125,716.976562 L688.875,716.976562 L696.6875,671.820312 L723.328125,671.820312 L703.5625,785.570312 Z M823.875,692.992188 L790.75,692.992188 L774.734375,785.570312 L747.9375,785.570312 L764.03125,692.992188 L731.453125,692.992188 L735.203125,671.820312 L827.546875,671.820312 L823.875,692.992188 Z M911.921875,785.570312 L886.0625,785.570312 L858.875,713.773438 L846.375,785.570312 L819.65625,785.570312 L839.34375,671.820312 L865.4375,671.820312 L892.546875,743.617188 L904.96875,671.820312 L931.6875,671.820312 L911.921875,785.570312 Z M957.9375,785.570312 L931.21875,785.570312 L950.984375,671.820312 L977.625,671.820312 L957.9375,785.570312 Z M1069.26562,785.570312 L1043.40625,785.570312 L1016.21875,713.773438 L1003.71875,785.570312 L977,785.570312 L996.6875,671.820312 L1022.78125,671.820312 L1049.89062,743.617188 L1062.3125,671.820312 L1089.03125,671.820312 L1069.26562,785.570312 Z M1181.0625,771.585938 C1176.79165,776.585963 1170.56775,780.453111 1162.39062,783.1875 C1154.2135,785.921889 1145.15109,787.210938 1135.20312,787.054688 C1125.67183,786.95052 1117.62503,784.554711 1111.0625,779.867188 C1104.49997,775.179664 1099.81251,768.643271 1097,760.257812 C1094.18749,751.872354 1093.43229,742.419323 1094.73438,731.898438 L1095.35938,727.210938 C1097.75522,709.554599 1103.9661,695.570364 1113.99219,685.257812 C1124.01828,674.945261 1136.2968,669.91927 1150.82812,670.179688 C1163.53652,670.388022 1173.30205,673.799446 1180.125,680.414062 C1186.94795,687.028679 1190.75,696.585875 1191.53125,709.085938 L1165.90625,709.007812 C1165.54166,702.914032 1164.04428,698.460952 1161.41406,695.648438 C1158.78384,692.835923 1155.0469,691.351563 1150.20312,691.195312 C1143.01559,690.934895 1137.07815,693.760387 1132.39062,699.671875 C1127.7031,705.583363 1124.50001,714.033799 1122.78125,725.023438 L1122.55298,726.525453 C1121.30602,734.933386 1120.8507,741.582036 1121.18702,746.471573 L1121.21875,746.898438 C1122,759.450584 1127.65099,765.804687 1138.17188,765.960938 C1144.52607,766.065105 1150.09893,764.528662 1154.89062,761.351562 L1158.40625,743.617188 L1139.89062,743.617188 L1143.17188,724.789062 L1188.40625,724.789062 L1181.0625,771.585938 Z" id="LIGHTNING-Copy" fill="#242424" fill-rule="nonzero"></path>
        <polygon id="Path-2-Copy" fill="#FFFFFF" points="320.335938 512 295 670.170066 419.346003 670.170066 445.210938 512"></polygon>
        <path d="M372.59375,606.414062 L357.75,606.414062 L350.71875,646.570312 L324,646.570312 L343.6875,532.820312 L383.84375,532.898438 C396.708398,532.898438 406.617153,535.90622 413.570312,541.921875 C420.523472,547.93753 423.63542,556.153594 422.90625,566.570312 C422.33333,574.79952 419.963562,581.609348 415.796875,587 C411.630187,592.390652 405.796912,596.648422 398.296875,599.773438 L413.609375,645.242188 L413.609375,646.570312 L385.09375,646.570312 L372.59375,606.414062 Z M361.34375,585.242188 L376.96875,585.398438 C381.239605,585.398438 384.950505,584.356781 388.101562,582.273438 C391.25262,580.190094 393.505202,577.33856 394.859375,573.71875 C396.213548,570.09894 396.60417,566.596371 396.03125,563.210938 C394.989578,557.429659 391.291698,554.382814 384.9375,554.070312 L366.8125,553.992188 L361.34375,585.242188 Z M454.546875,646.570312 L427.828125,646.570312 L447.59375,532.820312 L474.234375,532.820312 L454.546875,646.570312 Z M473.609375,646.570312 L493.296875,532.820312 L526.734375,532.898438 C536.578174,532.898438 545.171838,535.489557 552.515625,540.671875 C559.859412,545.854193 565.067693,552.924434 568.140625,561.882812 C570.796888,569.747435 571.604172,578.236934 570.5625,587.351562 L570.015625,592.117188 C568.609375,602.325572 565.223985,611.570271 559.859375,619.851562 C554.494765,628.132854 547.593792,634.630185 539.15625,639.34375 C530.718708,644.057315 521.604216,646.466145 511.8125,646.570312 L473.609375,646.570312 Z M516.421875,553.992188 L504,625.476562 L511.8125,625.554688 C520.979213,625.554688 528.33591,622.013056 533.882812,614.929688 C539.429715,607.846319 542.723953,597.013094 543.765625,582.429688 L543.921875,579.851562 C544.28646,571.518188 542.98439,565.190126 540.015625,560.867188 C537.04686,556.544249 532.59378,554.278647 526.65625,554.070312 L516.421875,553.992188 Z M651.65625,598.367188 L609.859375,598.367188 L605.09375,625.476562 L654.546875,625.476562 L650.875,646.570312 L574.703125,646.570312 L594.390625,532.820312 L670.71875,532.820312 L667.046875,553.992188 L617.515625,553.992188 L613.296875,577.976562 L655.171875,577.976562 L651.65625,598.367188 Z M804.625,553.992188 L771.5,553.992188 L755.484375,646.570312 L728.6875,646.570312 L744.78125,553.992188 L712.203125,553.992188 L715.953125,532.820312 L808.296875,532.820312 L804.625,553.992188 Z M892.75,646.570312 L866.1875,646.570312 L874.390625,599.070312 L835.40625,599.070312 L827.125,646.570312 L800.40625,646.570312 L820.09375,532.820312 L846.890625,532.820312 L839,577.976562 L878.0625,577.976562 L885.875,532.820312 L912.515625,532.820312 L892.75,646.570312 Z M987.203125,598.367188 L945.40625,598.367188 L940.640625,625.476562 L990.09375,625.476562 L986.421875,646.570312 L910.25,646.570312 L929.9375,532.820312 L1006.26562,532.820312 L1002.59375,553.992188 L953.0625,553.992188 L948.84375,577.976562 L990.71875,577.976562 L987.203125,598.367188 Z" id="RIDETHE-Copy" fill="#242424" fill-rule="nonzero"></path>
        <path d="M280.720838,634.875 C286.140699,634.875 289.509801,640.763557 286.78528,645.421875 L235.223361,734.484375 C233.934198,736.710823 231.590475,738 229.129736,738 C224.647136,738 221.248851,733.810604 222.303413,729.357422 L235.809292,672.375 L201.034235,672.375 C196.786236,672.375 193.504966,668.625057 194.061715,664.406193 L203.436609,594.093693 C203.90524,590.607536 206.893544,588 210.40913,588 L252.596155,588 C257.195769,588 260.564872,592.394531 259.39301,596.847713 L246.91251,634.875 L280.720838,634.875 Z" id="b-copy" fill="#242424" fill-rule="nonzero" transform="translate(240.875000, 663.000000) rotate(-315.000000) translate(-240.875000, -663.000000) "></path>
    </g>
</svg>