<?xml version="1.0" encoding="UTF-8"?>
<svg width="1300px" height="1300px" viewBox="0 0 1300 1300" version="1.1" xmlns="http://www.w3.org/2000/svg" xmlns:xlink="http://www.w3.org/1999/xlink">
    <!-- Generator: Sketch 62 (91390) - https://sketch.com -->
    <title>Logo_01_Orange</title>
    <desc>Created with Sketch.</desc>
    <g id="Logo_01_Orange" stroke="none" stroke-width="1" fill="none" fill-rule="evenodd">
        <rect fill="#FF9E0E" x="0" y="0" width="1300" height="1300"></rect>
        <circle id="Oval-Copy-3" fill="#242424" cx="229" cy="659.570312" r="127"></circle>
        <circle id="Oval-Copy-4" fill="#FF9E0E" cx="229" cy="660" r="99"></circle>
        <path d="M409.390625,764.476562 L455.71875,764.476562 L452.046875,785.570312 L379,785.570312 L398.6875,671.820312 L425.484375,671.820312 L409.390625,764.476562 Z M492.4375,785.570312 L465.71875,785.570312 L485.484375,671.820312 L512.125,671.820312 L492.4375,785.570312 Z M605.796875,771.585938 C601.52602,776.585963 595.302124,780.453111 587.125,783.1875 C578.947876,785.921889 569.885466,787.210938 559.9375,787.054688 C550.406202,786.95052 542.359408,784.554711 535.796875,779.867188 C529.234342,775.179664 524.546889,768.643271 521.734375,760.257812 C518.921861,751.872354 518.16666,742.419323 519.46875,731.898438 L520.09375,727.210938 C522.489595,709.554599 528.700471,695.570364 538.726562,685.257812 C548.752654,674.945261 561.031177,669.91927 575.5625,670.179688 C588.270897,670.388022 598.036424,673.799446 604.859375,680.414062 C611.682326,687.028679 615.484371,696.585875 616.265625,709.085938 L590.640625,709.007812 C590.27604,702.914032 588.778659,698.460952 586.148438,695.648438 C583.518216,692.835923 579.781274,691.351563 574.9375,691.195312 C567.749964,690.934895 561.812523,693.760387 557.125,699.671875 C552.437477,705.583363 549.234384,714.033799 547.515625,725.023438 L547.287355,726.525453 C546.003718,735.180678 545.558979,741.971611 545.953125,746.898438 C546.734379,759.450584 552.385364,765.804687 562.90625,765.960938 C569.260448,766.065105 574.833309,764.528662 579.625,761.351562 L583.140625,743.617188 L564.625,743.617188 L567.90625,724.789062 L613.140625,724.789062 L605.796875,771.585938 Z M710.40625,785.570312 L683.84375,785.570312 L692.046875,738.070312 L653.0625,738.070312 L644.78125,785.570312 L618.0625,785.570312 L637.75,671.820312 L664.546875,671.820312 L656.65625,716.976562 L695.71875,716.976562 L703.53125,671.820312 L730.171875,671.820312 L710.40625,785.570312 Z M830.71875,692.992188 L797.59375,692.992188 L781.578125,785.570312 L754.78125,785.570312 L770.875,692.992188 L738.296875,692.992188 L742.046875,671.820312 L834.390625,671.820312 L830.71875,692.992188 Z M918.765625,785.570312 L892.90625,785.570312 L865.71875,713.773438 L853.21875,785.570312 L826.5,785.570312 L846.1875,671.820312 L872.28125,671.820312 L899.390625,743.617188 L911.8125,671.820312 L938.53125,671.820312 L918.765625,785.570312 Z M964.78125,785.570312 L938.0625,785.570312 L957.828125,671.820312 L984.46875,671.820312 L964.78125,785.570312 Z M1076.10938,785.570312 L1050.25,785.570312 L1023.0625,713.773438 L1010.5625,785.570312 L983.84375,785.570312 L1003.53125,671.820312 L1029.625,671.820312 L1056.73438,743.617188 L1069.15625,671.820312 L1095.875,671.820312 L1076.10938,785.570312 Z M1187.90625,771.585938 C1183.6354,776.585963 1177.4115,780.453111 1169.23438,783.1875 C1161.05725,785.921889 1151.99484,787.210938 1142.04688,787.054688 C1132.51558,786.95052 1124.46878,784.554711 1117.90625,779.867188 C1111.34372,775.179664 1106.65626,768.643271 1103.84375,760.257812 C1101.03124,751.872354 1100.27604,742.419323 1101.57812,731.898438 L1102.20312,727.210938 C1104.59897,709.554599 1110.80985,695.570364 1120.83594,685.257812 C1130.86203,674.945261 1143.14055,669.91927 1157.67188,670.179688 C1170.38027,670.388022 1180.1458,673.799446 1186.96875,680.414062 C1193.7917,687.028679 1197.59375,696.585875 1198.375,709.085938 L1172.75,709.007812 C1172.38541,702.914032 1170.88803,698.460952 1168.25781,695.648438 C1165.62759,692.835923 1161.89065,691.351563 1157.04688,691.195312 C1149.85934,690.934895 1143.9219,693.760387 1139.23438,699.671875 C1134.54685,705.583363 1131.34376,714.033799 1129.625,725.023438 L1129.39673,726.525453 C1128.14977,734.933386 1127.69445,741.582036 1128.03077,746.471573 L1128.0625,746.898438 C1128.84375,759.450584 1134.49474,765.804687 1145.01562,765.960938 C1151.36982,766.065105 1156.94268,764.528662 1161.73438,761.351562 L1165.25,743.617188 L1146.73438,743.617188 L1150.01562,724.789062 L1195.25,724.789062 L1187.90625,771.585938 Z" id="LIGHTNING-Copy-2" fill="#242424" fill-rule="nonzero"></path>
        <path d="M482.59375,606.414062 L467.75,606.414062 L460.71875,646.570312 L434,646.570312 L453.6875,532.820312 L493.84375,532.898438 C506.708398,532.898438 516.617153,535.90622 523.570312,541.921875 C530.523472,547.93753 533.63542,556.153594 532.90625,566.570312 C532.33333,574.79952 529.963562,581.609348 525.796875,587 C521.630187,592.390652 515.796912,596.648422 508.296875,599.773438 L523.609375,645.242188 L523.609375,646.570312 L495.09375,646.570312 L482.59375,606.414062 Z M471.34375,585.242188 L486.96875,585.398438 C491.239605,585.398438 494.950505,584.356781 498.101562,582.273438 C501.25262,580.190094 503.505202,577.33856 504.859375,573.71875 C506.213548,570.09894 506.60417,566.596371 506.03125,563.210938 C504.989578,557.429659 501.291698,554.382814 494.9375,554.070312 L476.8125,553.992188 L471.34375,585.242188 Z M564.546875,646.570312 L537.828125,646.570312 L557.59375,532.820312 L584.234375,532.820312 L564.546875,646.570312 Z M583.609375,646.570312 L603.296875,532.820312 L636.734375,532.898438 C646.578174,532.898438 655.171838,535.489557 662.515625,540.671875 C669.859412,545.854193 675.067693,552.924434 678.140625,561.882812 C680.796888,569.747435 681.604172,578.236934 680.5625,587.351562 L680.015625,592.117188 C678.609375,602.325572 675.223985,611.570271 669.859375,619.851562 C664.494765,628.132854 657.593792,634.630185 649.15625,639.34375 C640.718708,644.057315 631.604216,646.466145 621.8125,646.570312 L583.609375,646.570312 Z M626.421875,553.992188 L614,625.476562 L621.8125,625.554688 C630.979213,625.554688 638.33591,622.013056 643.882812,614.929688 C649.429715,607.846319 652.723953,597.013094 653.765625,582.429688 L653.921875,579.851562 C654.28646,571.518188 652.98439,565.190126 650.015625,560.867188 C647.04686,556.544249 642.59378,554.278647 636.65625,554.070312 L626.421875,553.992188 Z M761.65625,598.367188 L719.859375,598.367188 L715.09375,625.476562 L764.546875,625.476562 L760.875,646.570312 L684.703125,646.570312 L704.390625,532.820312 L780.71875,532.820312 L777.046875,553.992188 L727.515625,553.992188 L723.296875,577.976562 L765.171875,577.976562 L761.65625,598.367188 Z M914.625,553.992188 L881.5,553.992188 L865.484375,646.570312 L838.6875,646.570312 L854.78125,553.992188 L822.203125,553.992188 L825.953125,532.820312 L918.296875,532.820312 L914.625,553.992188 Z M1002.75,646.570312 L976.1875,646.570312 L984.390625,599.070312 L945.40625,599.070312 L937.125,646.570312 L910.40625,646.570312 L930.09375,532.820312 L956.890625,532.820312 L949,577.976562 L988.0625,577.976562 L995.875,532.820312 L1022.51562,532.820312 L1002.75,646.570312 Z M1097.20312,598.367188 L1055.40625,598.367188 L1050.64062,625.476562 L1100.09375,625.476562 L1096.42188,646.570312 L1020.25,646.570312 L1039.9375,532.820312 L1116.26562,532.820312 L1112.59375,553.992188 L1063.0625,553.992188 L1058.84375,577.976562 L1100.71875,577.976562 L1097.20312,598.367188 Z" id="RIDETHE-Copy-2" fill="#242424" fill-rule="nonzero"></path>
        <polygon id="Path-2-Copy-2" fill="#FF9E0E" points="295.95 512 295.953125 670.170066 412.346003 670.170066 438.210937 512"></polygon>
        <path d="M220.462405,604 L230.09078,606.396828 L226.221937,621.881291 C228.806466,622.470143 231.40759,623.064518 233.940263,623.694445 L237.781794,608.311115 L247.415354,610.707598 L243.469418,626.507542 C255.632886,630.690256 264.528354,636.96053 262.780444,648.624012 C261.515836,657.162368 256.774075,661.295723 250.479729,662.744037 C259.12283,667.236364 263.521646,674.125519 259.331639,686.068585 C254.132158,700.901376 241.779241,702.153291 225.351785,699.049564 L221.365055,715 L211.731149,712.603172 L215.666022,696.866738 C213.541288,696.340706 210.101817,695.449489 207.988836,694.877895 L204.04048,710.68854 L194.417983,708.292057 L198.404713,692.311591 C196.154831,691.736546 193.869341,691.125603 191.536834,690.541928 L179,687.422324 L183.7829,676.413275 C183.7829,676.413275 190.881022,678.297878 190.784915,678.158431 C193.512222,678.831849 194.722208,677.057008 195.199979,675.873436 L201.499856,650.659107 L202.517973,650.911078 C202.133889,650.757825 201.785413,650.659107 201.51645,650.590764 L206.011028,632.591082 C206.129261,630.548048 205.424012,627.970353 201.521981,626.998022 C201.673057,626.896889 194.525153,625.261495 194.525153,625.261495 L197.087903,614.989375 L210.373545,618.301236 L210.362828,618.350595 C212.359996,618.846252 214.418009,619.317403 216.514395,619.794076 L220.462405,604 Z M216.321687,662.247525 L211.052632,683.254725 C217.556746,684.860995 237.617584,691.267237 240.582826,679.416802 C243.681663,667.058457 222.825113,663.862014 216.321687,662.247525 Z M223.622508,633.673267 L218.789474,653.029441 C224.269444,654.393385 241.163986,659.957372 243.901184,649.006155 C246.751953,637.582776 229.103174,635.036863 223.622508,633.673267 Z" id="Combined-Shape" fill="#242424" fill-rule="nonzero"></path>
        <path d="M389.720838,583.445312 C395.140699,583.445312 398.509801,589.33387 395.78528,593.992187 L344.223361,683.054688 C342.934198,685.281136 340.590475,686.570312 338.129736,686.570312 C333.647136,686.570312 330.248851,682.380917 331.303413,677.927734 L344.809292,620.945312 L310.034235,620.945312 C305.786236,620.945312 302.504966,617.19537 303.061715,612.976505 L312.436609,542.664005 C312.90524,539.177849 315.893544,536.570312 319.40913,536.570312 L361.596155,536.570312 C366.195769,536.570312 369.564872,540.964844 368.39301,545.418026 L355.91251,583.445312 L389.720838,583.445312 Z" id="b-copy-2" fill="#242424" fill-rule="nonzero" transform="translate(349.875000, 611.570312) rotate(-299.000000) translate(-349.875000, -611.570312) "></path>
    </g>
</svg>