<?xml version="1.0" encoding="UTF-8"?>
<svg width="1300px" height="1300px" viewBox="0 0 1300 1300" version="1.1" xmlns="http://www.w3.org/2000/svg" xmlns:xlink="http://www.w3.org/1999/xlink">
    <!-- Generator: Sketch 62 (91390) - https://sketch.com -->
    <title>Logo_02_Orange</title>
    <desc>Created with Sketch.</desc>
    <g id="Logo_02_Orange" stroke="none" stroke-width="1" fill="none" fill-rule="evenodd">
        <rect fill="#FF9E0E" x="0" y="0" width="1300" height="1300"></rect>
        <circle id="Oval" fill="#242424" cx="228" cy="659.570312" r="127"></circle>
        <circle id="Oval" fill="#FF9E0E" cx="228" cy="659.570312" r="99"></circle>
        <circle id="Oval" fill="#242424" cx="228" cy="659.570312" r="29"></circle>
        <polygon id="Path-2" fill="#FF9E0E" points="295.21 512 295.210938 672 429.92704 672 418.621892 654.346934 437.210938 512"></polygon>
        <path d="M388.720838,587.445312 C394.140699,587.445312 397.509801,593.33387 394.78528,597.992187 L343.223361,687.054688 C341.934198,689.281136 339.590475,690.570312 337.129736,690.570312 C332.647136,690.570312 329.248851,686.380917 330.303413,681.927734 L343.809292,624.945312 L309.034235,624.945312 C304.786236,624.945312 301.504966,621.19537 302.061715,616.976505 L311.436609,546.664005 C311.90524,543.177849 314.893544,540.570312 318.40913,540.570312 L360.596155,540.570312 C365.195769,540.570312 368.564872,544.964844 367.39301,549.418026 L354.91251,587.445312 L388.720838,587.445312 Z" id="b-copy" fill="#242424" fill-rule="nonzero" transform="translate(348.875000, 615.570312) rotate(-300.000000) translate(-348.875000, -615.570312) "></path>
        <path d="M409.390625,764.476562 L455.71875,764.476562 L452.046875,785.570312 L379,785.570312 L398.6875,671.820312 L425.484375,671.820312 L409.390625,764.476562 Z M492.4375,785.570312 L465.71875,785.570312 L485.484375,671.820312 L512.125,671.820312 L492.4375,785.570312 Z M605.796875,771.585938 C601.52602,776.585963 595.302124,780.453111 587.125,783.1875 C578.947876,785.921889 569.885466,787.210938 559.9375,787.054688 C550.406202,786.95052 542.359408,784.554711 535.796875,779.867188 C529.234342,775.179664 524.546889,768.643271 521.734375,760.257812 C518.921861,751.872354 518.16666,742.419323 519.46875,731.898438 L520.09375,727.210938 C522.489595,709.554599 528.700471,695.570364 538.726562,685.257812 C548.752654,674.945261 561.031177,669.91927 575.5625,670.179688 C588.270897,670.388022 598.036424,673.799446 604.859375,680.414062 C611.682326,687.028679 615.484371,696.585875 616.265625,709.085938 L590.640625,709.007812 C590.27604,702.914032 588.778659,698.460952 586.148438,695.648438 C583.518216,692.835923 579.781274,691.351563 574.9375,691.195312 C567.749964,690.934895 561.812523,693.760387 557.125,699.671875 C552.437477,705.583363 549.234384,714.033799 547.515625,725.023438 L547.287355,726.525453 C546.003718,735.180678 545.558979,741.971611 545.953125,746.898438 C546.734379,759.450584 552.385364,765.804687 562.90625,765.960938 C569.260448,766.065105 574.833309,764.528662 579.625,761.351562 L583.140625,743.617188 L564.625,743.617188 L567.90625,724.789062 L613.140625,724.789062 L605.796875,771.585938 Z M710.40625,785.570312 L683.84375,785.570312 L692.046875,738.070312 L653.0625,738.070312 L644.78125,785.570312 L618.0625,785.570312 L637.75,671.820312 L664.546875,671.820312 L656.65625,716.976562 L695.71875,716.976562 L703.53125,671.820312 L730.171875,671.820312 L710.40625,785.570312 Z M830.71875,692.992188 L797.59375,692.992188 L781.578125,785.570312 L754.78125,785.570312 L770.875,692.992188 L738.296875,692.992188 L742.046875,671.820312 L834.390625,671.820312 L830.71875,692.992188 Z M918.765625,785.570312 L892.90625,785.570312 L865.71875,713.773438 L853.21875,785.570312 L826.5,785.570312 L846.1875,671.820312 L872.28125,671.820312 L899.390625,743.617188 L911.8125,671.820312 L938.53125,671.820312 L918.765625,785.570312 Z M964.78125,785.570312 L938.0625,785.570312 L957.828125,671.820312 L984.46875,671.820312 L964.78125,785.570312 Z M1076.10938,785.570312 L1050.25,785.570312 L1023.0625,713.773438 L1010.5625,785.570312 L983.84375,785.570312 L1003.53125,671.820312 L1029.625,671.820312 L1056.73438,743.617188 L1069.15625,671.820312 L1095.875,671.820312 L1076.10938,785.570312 Z M1187.90625,771.585938 C1183.6354,776.585963 1177.4115,780.453111 1169.23438,783.1875 C1161.05725,785.921889 1151.99484,787.210938 1142.04688,787.054688 C1132.51558,786.95052 1124.46878,784.554711 1117.90625,779.867188 C1111.34372,775.179664 1106.65626,768.643271 1103.84375,760.257812 C1101.03124,751.872354 1100.27604,742.419323 1101.57812,731.898438 L1102.20312,727.210938 C1104.59897,709.554599 1110.80985,695.570364 1120.83594,685.257812 C1130.86203,674.945261 1143.14055,669.91927 1157.67188,670.179688 C1170.38027,670.388022 1180.1458,673.799446 1186.96875,680.414062 C1193.7917,687.028679 1197.59375,696.585875 1198.375,709.085938 L1172.75,709.007812 C1172.38541,702.914032 1170.88803,698.460952 1168.25781,695.648438 C1165.62759,692.835923 1161.89065,691.351563 1157.04688,691.195312 C1149.85934,690.934895 1143.9219,693.760387 1139.23438,699.671875 C1134.54685,705.583363 1131.34376,714.033799 1129.625,725.023438 L1129.39673,726.525453 C1128.14977,734.933386 1127.69445,741.582036 1128.03077,746.471573 L1128.0625,746.898438 C1128.84375,759.450584 1134.49474,765.804687 1145.01562,765.960938 C1151.36982,766.065105 1156.94268,764.528662 1161.73438,761.351562 L1165.25,743.617188 L1146.73438,743.617188 L1150.01562,724.789062 L1195.25,724.789062 L1187.90625,771.585938 Z" id="LIGHTNING" fill="#242424" fill-rule="nonzero"></path>
        <path d="M485.59375,606.414062 L470.75,606.414062 L463.71875,646.570312 L437,646.570312 L456.6875,532.820312 L496.84375,532.898438 C509.708398,532.898438 519.617153,535.90622 526.570312,541.921875 C533.523472,547.93753 536.63542,556.153594 535.90625,566.570312 C535.33333,574.79952 532.963562,581.609348 528.796875,587 C524.630187,592.390652 518.796912,596.648422 511.296875,599.773438 L526.609375,645.242188 L526.609375,646.570312 L498.09375,646.570312 L485.59375,606.414062 Z M474.34375,585.242188 L489.96875,585.398438 C494.239605,585.398438 497.950505,584.356781 501.101562,582.273438 C504.25262,580.190094 506.505202,577.33856 507.859375,573.71875 C509.213548,570.09894 509.60417,566.596371 509.03125,563.210938 C507.989578,557.429659 504.291698,554.382814 497.9375,554.070312 L479.8125,553.992188 L474.34375,585.242188 Z M567.546875,646.570312 L540.828125,646.570312 L560.59375,532.820312 L587.234375,532.820312 L567.546875,646.570312 Z M586.609375,646.570312 L606.296875,532.820312 L639.734375,532.898438 C649.578174,532.898438 658.171838,535.489557 665.515625,540.671875 C672.859412,545.854193 678.067693,552.924434 681.140625,561.882812 C683.796888,569.747435 684.604172,578.236934 683.5625,587.351562 L683.015625,592.117188 C681.609375,602.325572 678.223985,611.570271 672.859375,619.851562 C667.494765,628.132854 660.593792,634.630185 652.15625,639.34375 C643.718708,644.057315 634.604216,646.466145 624.8125,646.570312 L586.609375,646.570312 Z M629.421875,553.992188 L617,625.476562 L624.8125,625.554688 C633.979213,625.554688 641.33591,622.013056 646.882812,614.929688 C652.429715,607.846319 655.723953,597.013094 656.765625,582.429688 L656.921875,579.851562 C657.28646,571.518188 655.98439,565.190126 653.015625,560.867188 C650.04686,556.544249 645.59378,554.278647 639.65625,554.070312 L629.421875,553.992188 Z M764.65625,598.367188 L722.859375,598.367188 L718.09375,625.476562 L767.546875,625.476562 L763.875,646.570312 L687.703125,646.570312 L707.390625,532.820312 L783.71875,532.820312 L780.046875,553.992188 L730.515625,553.992188 L726.296875,577.976562 L768.171875,577.976562 L764.65625,598.367188 Z M917.625,553.992188 L884.5,553.992188 L868.484375,646.570312 L841.6875,646.570312 L857.78125,553.992188 L825.203125,553.992188 L828.953125,532.820312 L921.296875,532.820312 L917.625,553.992188 Z M1005.75,646.570312 L979.1875,646.570312 L987.390625,599.070312 L948.40625,599.070312 L940.125,646.570312 L913.40625,646.570312 L933.09375,532.820312 L959.890625,532.820312 L952,577.976562 L991.0625,577.976562 L998.875,532.820312 L1025.51562,532.820312 L1005.75,646.570312 Z M1100.20312,598.367188 L1058.40625,598.367188 L1053.64062,625.476562 L1103.09375,625.476562 L1099.42188,646.570312 L1023.25,646.570312 L1042.9375,532.820312 L1119.26562,532.820312 L1115.59375,553.992188 L1066.0625,553.992188 L1061.84375,577.976562 L1103.71875,577.976562 L1100.20312,598.367188 Z" id="RIDETHE" fill="#242424" fill-rule="nonzero"></path>
    </g>
</svg>