<?xml version="1.0" encoding="UTF-8"?>
<svg width="1300px" height="1300px" viewBox="0 0 1300 1300" version="1.1" xmlns="http://www.w3.org/2000/svg" xmlns:xlink="http://www.w3.org/1999/xlink">
    <!-- Generator: Sketch 62 (91390) - https://sketch.com -->
    <title>Logo_01_Dark</title>
    <desc>Created with Sketch.</desc>
    <g id="Logo_01_Dark" stroke="none" stroke-width="1" fill="none" fill-rule="evenodd">
        <rect fill="#242424" x="0" y="0" width="1300" height="1300"></rect>
        <g id="Group-5" transform="translate(102.000000, 512.000000)">
            <circle id="Oval-Copy-3" fill="#FFFFFF" cx="127" cy="147.570312" r="127"></circle>
            <circle id="Oval-Copy-4" fill="#242424" cx="127" cy="148" r="99"></circle>
            <g id="Group-2" transform="translate(277.000000, 20.820312)" fill="#FFFFFF" fill-rule="nonzero">
                <path d="M30.390625,231.65625 L76.71875,231.65625 L73.046875,252.75 L0,252.75 L19.6875,139 L46.484375,139 L30.390625,231.65625 Z M113.4375,252.75 L86.71875,252.75 L106.484375,139 L133.125,139 L113.4375,252.75 Z M226.796875,238.765625 C222.52602,243.76565 216.302124,247.632799 208.125,250.367188 C199.947876,253.101576 190.885466,254.390626 180.9375,254.234375 C171.406202,254.130208 163.359408,251.734398 156.796875,247.046875 C150.234342,242.359352 145.546889,235.822959 142.734375,227.4375 C139.921861,219.052041 139.16666,209.599011 140.46875,199.078125 L141.09375,194.390625 C143.489595,176.734287 149.700471,162.750052 159.726563,152.4375 C169.752654,142.124948 182.031177,137.098957 196.5625,137.359375 C209.270897,137.567709 219.036424,140.979134 225.859375,147.59375 C232.682326,154.208366 236.484371,163.765563 237.265625,176.265625 L211.640625,176.1875 C211.27604,170.09372 209.778659,165.640639 207.148438,162.828125 C204.518216,160.015611 200.781274,158.531251 195.9375,158.375 C188.749964,158.114582 182.812523,160.940075 178.125,166.851563 C173.437477,172.76305 170.234384,181.213487 168.515625,192.203125 L168.287355,193.70514 C167.003718,202.360365 166.558979,209.151299 166.953125,214.078125 C167.734379,226.630271 173.385364,232.984374 183.90625,233.140625 C190.260448,233.244792 195.833309,231.708349 200.625,228.53125 L204.140625,210.796875 L185.625,210.796875 L188.90625,191.96875 L234.140625,191.96875 L226.796875,238.765625 Z M331.40625,252.75 L304.84375,252.75 L313.046875,205.25 L274.0625,205.25 L265.78125,252.75 L239.0625,252.75 L258.75,139 L285.546875,139 L277.65625,184.15625 L316.71875,184.15625 L324.53125,139 L351.171875,139 L331.40625,252.75 Z M451.71875,160.171875 L418.59375,160.171875 L402.578125,252.75 L375.78125,252.75 L391.875,160.171875 L359.296875,160.171875 L363.046875,139 L455.390625,139 L451.71875,160.171875 Z M539.765625,252.75 L513.90625,252.75 L486.71875,180.953125 L474.21875,252.75 L447.5,252.75 L467.1875,139 L493.28125,139 L520.390625,210.796875 L532.8125,139 L559.53125,139 L539.765625,252.75 Z M585.78125,252.75 L559.0625,252.75 L578.828125,139 L605.46875,139 L585.78125,252.75 Z M697.109375,252.75 L671.25,252.75 L644.0625,180.953125 L631.5625,252.75 L604.84375,252.75 L624.53125,139 L650.625,139 L677.734375,210.796875 L690.15625,139 L716.875,139 L697.109375,252.75 Z M808.90625,238.765625 C804.635395,243.76565 798.411499,247.632799 790.234375,250.367188 C782.057251,253.101576 772.994841,254.390626 763.046875,254.234375 C753.515577,254.130208 745.468783,251.734398 738.90625,247.046875 C732.343717,242.359352 727.656264,235.822959 724.84375,227.4375 C722.031236,219.052041 721.276035,209.599011 722.578125,199.078125 L723.203125,194.390625 C725.59897,176.734287 731.809846,162.750052 741.835938,152.4375 C751.862029,142.124948 764.140552,137.098957 778.671875,137.359375 C791.380272,137.567709 801.145799,140.979134 807.96875,147.59375 C814.791701,154.208366 818.593746,163.765563 819.375,176.265625 L793.75,176.1875 C793.385415,170.09372 791.888034,165.640639 789.257812,162.828125 C786.627591,160.015611 782.890649,158.531251 778.046875,158.375 C770.859339,158.114582 764.921898,160.940075 760.234375,166.851563 C755.546852,172.76305 752.343759,181.213487 750.625,192.203125 L750.39673,193.70514 C749.149768,202.113073 748.694452,208.761723 749.03077,213.65126 L749.0625,214.078125 C749.843754,226.630271 755.494739,232.984374 766.015625,233.140625 C772.369823,233.244792 777.942684,231.708349 782.734375,228.53125 L786.25,210.796875 L767.734375,210.796875 L771.015625,191.96875 L816.25,191.96875 L808.90625,238.765625 Z" id="LIGHTNING-Copy-2"></path>
                <path d="M103.59375,73.59375 L88.75,73.59375 L81.71875,113.75 L55,113.75 L74.6875,0 L114.84375,0.078125 C127.708398,0.078125 137.617153,3.08590742 144.570312,9.1015625 C151.523472,15.1172176 154.63542,23.3332813 153.90625,33.75 C153.33333,41.9792078 150.963562,48.7890355 146.796875,54.1796875 C142.630187,59.5703395 136.796912,63.8281094 129.296875,66.953125 L144.609375,112.421875 L144.609375,113.75 L116.09375,113.75 L103.59375,73.59375 Z M92.34375,52.421875 L107.96875,52.578125 C112.239605,52.578125 115.950505,51.5364688 119.101562,49.453125 C122.25262,47.3697812 124.505202,44.5182473 125.859375,40.8984375 C127.213548,37.2786277 127.60417,33.7760586 127.03125,30.390625 C125.989578,24.6093461 122.291698,21.5625016 115.9375,21.25 L97.8125,21.171875 L92.34375,52.421875 Z M185.546875,113.75 L158.828125,113.75 L178.59375,0 L205.234375,0 L185.546875,113.75 Z M204.609375,113.75 L224.296875,0 L257.734375,0.078125 C267.578174,0.078125 276.171838,2.66924492 283.515625,7.8515625 C290.859412,13.0338801 296.067693,20.1041219 299.140625,29.0625 C301.796888,36.9271227 302.604172,45.4166211 301.5625,54.53125 L301.015625,59.296875 C299.609375,69.5052594 296.223985,78.7499586 290.859375,87.03125 C285.494765,95.3125414 278.593792,101.809872 270.15625,106.523438 C261.718708,111.237003 252.604216,113.645833 242.8125,113.75 L204.609375,113.75 Z M247.421875,21.171875 L235,92.65625 L242.8125,92.734375 C251.979213,92.734375 259.33591,89.1927437 264.882812,82.109375 C270.429715,75.0260063 273.723953,64.1927813 274.765625,49.609375 L274.921875,47.03125 C275.28646,38.697875 273.98439,32.3698133 271.015625,28.046875 C268.04686,23.7239367 263.59378,21.4583344 257.65625,21.25 L247.421875,21.171875 Z M382.65625,65.546875 L340.859375,65.546875 L336.09375,92.65625 L385.546875,92.65625 L381.875,113.75 L305.703125,113.75 L325.390625,0 L401.71875,0 L398.046875,21.171875 L348.515625,21.171875 L344.296875,45.15625 L386.171875,45.15625 L382.65625,65.546875 Z M535.625,21.171875 L502.5,21.171875 L486.484375,113.75 L459.6875,113.75 L475.78125,21.171875 L443.203125,21.171875 L446.953125,0 L539.296875,0 L535.625,21.171875 Z M623.75,113.75 L597.1875,113.75 L605.390625,66.25 L566.40625,66.25 L558.125,113.75 L531.40625,113.75 L551.09375,0 L577.890625,0 L570,45.15625 L609.0625,45.15625 L616.875,0 L643.515625,0 L623.75,113.75 Z M718.203125,65.546875 L676.40625,65.546875 L671.640625,92.65625 L721.09375,92.65625 L717.421875,113.75 L641.25,113.75 L660.9375,0 L737.265625,0 L733.59375,21.171875 L684.0625,21.171875 L679.84375,45.15625 L721.71875,45.15625 L718.203125,65.546875 Z" id="RIDETHE-Copy-2"></path>
            </g>
            <polygon id="Path-2-Copy-2" fill="#242424" points="193.95 -2.84217094e-14 193.953125 158.170066 310.346003 158.170066 336.210937 -2.84217094e-14"></polygon>
            <path d="M118.462405,92 L128.09078,94.3968282 L124.221937,109.881291 C126.806466,110.470143 129.40759,111.064518 131.940263,111.694445 L135.781794,96.3111153 L145.415354,98.7075983 L141.469418,114.507542 C153.632886,118.690256 162.528354,124.96053 160.780444,136.624012 C159.515836,145.162368 154.774075,149.295723 148.479729,150.744037 C157.12283,155.236364 161.521646,162.125519 157.331639,174.068585 C152.132158,188.901376 139.779241,190.153291 123.351785,187.049564 L119.365055,203 L109.731149,200.603172 L113.666022,184.866738 C111.541288,184.340706 108.101817,183.449489 105.988836,182.877895 L102.04048,198.68854 L92.4179829,196.292057 L96.4047127,180.311591 C94.1548309,179.736546 91.8693408,179.125603 89.5368342,178.541928 L77,175.422324 L81.7829004,164.413275 C81.7829004,164.413275 88.881022,166.297878 88.7849145,166.158431 C91.5122222,166.831849 92.7222078,165.057008 93.1999793,163.873436 L99.499856,138.659107 L100.517973,138.911078 C100.133889,138.757825 99.7854127,138.659107 99.5164501,138.590764 L104.011028,120.591082 C104.129261,118.548048 103.424012,115.970353 99.5219815,114.998022 C99.6730568,114.896889 92.525153,113.261495 92.525153,113.261495 L95.0879026,102.989375 L108.373545,106.301236 L108.362828,106.350595 C110.359996,106.846252 112.418009,107.317403 114.514395,107.794076 L118.462405,92 Z M114.321687,150.247525 L109.052632,171.254725 C115.556746,172.860995 135.617584,179.267237 138.582826,167.416802 C141.681663,155.058457 120.825113,151.862014 114.321687,150.247525 Z M121.622508,121.673267 L116.789474,141.029441 C122.269444,142.393385 139.163986,147.957372 141.901184,137.006155 C144.751953,125.582776 127.103174,123.036863 121.622508,121.673267 Z" id="Combined-Shape" fill="#FFFFFF" fill-rule="nonzero"></path>
            <path d="M287.720838,71.4453125 C293.140699,71.4453125 296.509801,77.3338699 293.78528,81.9921875 L242.223361,171.054687 C240.934198,173.281136 238.590475,174.570312 236.129736,174.570312 C231.647136,174.570312 228.248851,170.380917 229.303413,165.927734 L242.809292,108.945312 L208.034235,108.945312 C203.786236,108.945312 200.504966,105.19537 201.061715,100.976505 L210.436609,30.6640053 C210.90524,27.1778488 213.893544,24.5703125 217.40913,24.5703125 L259.596155,24.5703125 C264.195769,24.5703125 267.564872,28.9648438 266.39301,33.418026 L253.91251,71.4453125 L287.720838,71.4453125 Z" id="b-copy-2" fill="#FFFFFF" fill-rule="nonzero" transform="translate(247.875000, 99.570312) rotate(-299.000000) translate(-247.875000, -99.570312) "></path>
        </g>
    </g>
</svg>