<?xml version="1.0" encoding="UTF-8"?>
<svg width="1300px" height="1300px" viewBox="0 0 1300 1300" version="1.1" xmlns="http://www.w3.org/2000/svg" xmlns:xlink="http://www.w3.org/1999/xlink">
    <!-- Generator: Sketch 62 (91390) - https://sketch.com -->
    <title>Logo_02_Purple</title>
    <desc>Created with Sketch.</desc>
    <g id="Logo_02_Purple" stroke="none" stroke-width="1" fill="none" fill-rule="evenodd">
        <rect fill="#7427E9" x="0" y="0" width="1300" height="1300"></rect>
        <g id="Group-6" transform="translate(101.000000, 512.000000)">
            <g id="Group-4">
                <g id="Group-3">
                    <circle id="Oval" fill="#FFFFFF" cx="127" cy="147.570312" r="127"></circle>
                    <circle id="Oval" fill="#7427E9" cx="127" cy="147.570312" r="99"></circle>
                    <circle id="Oval" fill="#FFFFFF" cx="127" cy="147.570312" r="29"></circle>
                    <polygon id="Path-2" fill="#7427E9" points="194.21 0 194.210938 160 328.92704 160 317.621892 142.346934 336.210938 0"></polygon>
                    <path d="M287.720838,75.4453125 C293.140699,75.4453125 296.509801,81.3338699 293.78528,85.9921875 L242.223361,175.054687 C240.934198,177.281136 238.590475,178.570312 236.129736,178.570312 C231.647136,178.570312 228.248851,174.380917 229.303413,169.927734 L242.809292,112.945312 L208.034235,112.945312 C203.786236,112.945312 200.504966,109.19537 201.061715,104.976505 L210.436609,34.6640053 C210.90524,31.1778488 213.893544,28.5703125 217.40913,28.5703125 L259.596155,28.5703125 C264.195769,28.5703125 267.564872,32.9648438 266.39301,37.418026 L253.91251,75.4453125 L287.720838,75.4453125 Z" id="b-copy" fill="#FFFFFF" fill-rule="nonzero" transform="translate(247.875000, 103.570312) rotate(-300.000000) translate(-247.875000, -103.570312) "></path>
                </g>
                <path d="M308.390625,252.476563 L354.71875,252.476563 L351.046875,273.570312 L278,273.570312 L297.6875,159.820313 L324.484375,159.820313 L308.390625,252.476563 Z M391.4375,273.570312 L364.71875,273.570312 L384.484375,159.820313 L411.125,159.820313 L391.4375,273.570312 Z M504.796875,259.585938 C500.52602,264.585963 494.302124,268.453111 486.125,271.1875 C477.947876,273.921889 468.885466,275.210938 458.9375,275.054688 C449.406202,274.95052 441.359408,272.554711 434.796875,267.867188 C428.234342,263.179664 423.546889,256.643271 420.734375,248.257813 C417.921861,239.872354 417.16666,230.419323 418.46875,219.898438 L419.09375,215.210938 C421.489595,197.554599 427.700471,183.570364 437.726562,173.257813 C447.752654,162.945261 460.031177,157.91927 474.5625,158.179688 C487.270897,158.388022 497.036424,161.799446 503.859375,168.414063 C510.682326,175.028679 514.484371,184.585875 515.265625,197.085938 L489.640625,197.007813 C489.27604,190.914032 487.778659,186.460952 485.148438,183.648438 C482.518216,180.835923 478.781274,179.351563 473.9375,179.195313 C466.749964,178.934895 460.812523,181.760387 456.125,187.671875 C451.437477,193.583363 448.234384,202.033799 446.515625,213.023438 L446.287355,214.525453 C445.003718,223.180678 444.558979,229.971611 444.953125,234.898438 C445.734379,247.450584 451.385364,253.804687 461.90625,253.960938 C468.260448,254.065105 473.833309,252.528662 478.625,249.351563 L482.140625,231.617188 L463.625,231.617188 L466.90625,212.789063 L512.140625,212.789063 L504.796875,259.585938 Z M609.40625,273.570312 L582.84375,273.570312 L591.046875,226.070313 L552.0625,226.070313 L543.78125,273.570312 L517.0625,273.570312 L536.75,159.820313 L563.546875,159.820313 L555.65625,204.976563 L594.71875,204.976563 L602.53125,159.820313 L629.171875,159.820313 L609.40625,273.570312 Z M729.71875,180.992188 L696.59375,180.992188 L680.578125,273.570312 L653.78125,273.570312 L669.875,180.992188 L637.296875,180.992188 L641.046875,159.820313 L733.390625,159.820313 L729.71875,180.992188 Z M817.765625,273.570312 L791.90625,273.570312 L764.71875,201.773438 L752.21875,273.570312 L725.5,273.570312 L745.1875,159.820313 L771.28125,159.820313 L798.390625,231.617188 L810.8125,159.820313 L837.53125,159.820313 L817.765625,273.570312 Z M863.78125,273.570312 L837.0625,273.570312 L856.828125,159.820313 L883.46875,159.820313 L863.78125,273.570312 Z M975.109375,273.570312 L949.25,273.570312 L922.0625,201.773438 L909.5625,273.570312 L882.84375,273.570312 L902.53125,159.820313 L928.625,159.820313 L955.734375,231.617188 L968.15625,159.820313 L994.875,159.820313 L975.109375,273.570312 Z M1086.90625,259.585938 C1082.6354,264.585963 1076.4115,268.453111 1068.23438,271.1875 C1060.05725,273.921889 1050.99484,275.210938 1041.04688,275.054688 C1031.51558,274.95052 1023.46878,272.554711 1016.90625,267.867188 C1010.34372,263.179664 1005.65626,256.643271 1002.84375,248.257813 C1000.03124,239.872354 999.276035,230.419323 1000.57812,219.898438 L1001.20312,215.210938 C1003.59897,197.554599 1009.80985,183.570364 1019.83594,173.257813 C1029.86203,162.945261 1042.14055,157.91927 1056.67188,158.179688 C1069.38027,158.388022 1079.1458,161.799446 1085.96875,168.414063 C1092.7917,175.028679 1096.59375,184.585875 1097.375,197.085938 L1071.75,197.007813 C1071.38541,190.914032 1069.88803,186.460952 1067.25781,183.648438 C1064.62759,180.835923 1060.89065,179.351563 1056.04688,179.195313 C1048.85934,178.934895 1042.9219,181.760387 1038.23438,187.671875 C1033.54685,193.583363 1030.34376,202.033799 1028.625,213.023438 L1028.39673,214.525453 C1027.14977,222.933386 1026.69445,229.582036 1027.03077,234.471573 L1027.0625,234.898438 C1027.84375,247.450584 1033.49474,253.804687 1044.01562,253.960938 C1050.36982,254.065105 1055.94268,252.528662 1060.73438,249.351563 L1064.25,231.617188 L1045.73438,231.617188 L1049.01562,212.789063 L1094.25,212.789063 L1086.90625,259.585938 Z" id="LIGHTNING" fill="#FFFFFF" fill-rule="nonzero"></path>
                <path d="M384.59375,94.4140625 L369.75,94.4140625 L362.71875,134.570312 L336,134.570312 L355.6875,20.8203125 L395.84375,20.8984375 C408.708398,20.8984375 418.617153,23.9062199 425.570312,29.921875 C432.523472,35.9375301 435.63542,44.1535938 434.90625,54.5703125 C434.33333,62.7995203 431.963562,69.609348 427.796875,75 C423.630187,80.390652 417.796912,84.6484219 410.296875,87.7734375 L425.609375,133.242188 L425.609375,134.570312 L397.09375,134.570312 L384.59375,94.4140625 Z M373.34375,73.2421875 L388.96875,73.3984375 C393.239605,73.3984375 396.950505,72.3567813 400.101562,70.2734375 C403.25262,68.1900937 405.505202,65.3385598 406.859375,61.71875 C408.213548,58.0989402 408.60417,54.5963711 408.03125,51.2109375 C406.989578,45.4296586 403.291698,42.3828141 396.9375,42.0703125 L378.8125,41.9921875 L373.34375,73.2421875 Z M466.546875,134.570312 L439.828125,134.570312 L459.59375,20.8203125 L486.234375,20.8203125 L466.546875,134.570312 Z M485.609375,134.570312 L505.296875,20.8203125 L538.734375,20.8984375 C548.578174,20.8984375 557.171838,23.4895574 564.515625,28.671875 C571.859412,33.8541926 577.067693,40.9244344 580.140625,49.8828125 C582.796888,57.7474352 583.604172,66.2369336 582.5625,75.3515625 L582.015625,80.1171875 C580.609375,90.3255719 577.223985,99.5702711 571.859375,107.851562 C566.494765,116.132854 559.593792,122.630185 551.15625,127.34375 C542.718708,132.057315 533.604216,134.466145 523.8125,134.570312 L485.609375,134.570312 Z M528.421875,41.9921875 L516,113.476562 L523.8125,113.554688 C532.979213,113.554688 540.33591,110.013056 545.882812,102.929688 C551.429715,95.8463188 554.723953,85.0130938 555.765625,70.4296875 L555.921875,67.8515625 C556.28646,59.5181875 554.98439,53.1901258 552.015625,48.8671875 C549.04686,44.5442492 544.59378,42.2786469 538.65625,42.0703125 L528.421875,41.9921875 Z M663.65625,86.3671875 L621.859375,86.3671875 L617.09375,113.476562 L666.546875,113.476562 L662.875,134.570312 L586.703125,134.570312 L606.390625,20.8203125 L682.71875,20.8203125 L679.046875,41.9921875 L629.515625,41.9921875 L625.296875,65.9765625 L667.171875,65.9765625 L663.65625,86.3671875 Z M816.625,41.9921875 L783.5,41.9921875 L767.484375,134.570312 L740.6875,134.570312 L756.78125,41.9921875 L724.203125,41.9921875 L727.953125,20.8203125 L820.296875,20.8203125 L816.625,41.9921875 Z M904.75,134.570312 L878.1875,134.570312 L886.390625,87.0703125 L847.40625,87.0703125 L839.125,134.570312 L812.40625,134.570312 L832.09375,20.8203125 L858.890625,20.8203125 L851,65.9765625 L890.0625,65.9765625 L897.875,20.8203125 L924.515625,20.8203125 L904.75,134.570312 Z M999.203125,86.3671875 L957.40625,86.3671875 L952.640625,113.476562 L1002.09375,113.476562 L998.421875,134.570312 L922.25,134.570312 L941.9375,20.8203125 L1018.26562,20.8203125 L1014.59375,41.9921875 L965.0625,41.9921875 L960.84375,65.9765625 L1002.71875,65.9765625 L999.203125,86.3671875 Z" id="RIDETHE" fill="#FFFFFF" fill-rule="nonzero"></path>
            </g>
        </g>
    </g>
</svg>