<?xml version="1.0" encoding="UTF-8"?>
<svg width="610px" height="524px" viewBox="0 0 610 524" version="1.1" xmlns="http://www.w3.org/2000/svg" xmlns:xlink="http://www.w3.org/1999/xlink">
    <!-- Generator: Sketch 63.1 (92452) - https://sketch.com -->
    <title>RTL-Logo-Text</title>
    <desc>Created with Sketch.</desc>
    <defs>
        <polygon id="path-1" points="0.0001 0.263 442.17886 0.263 442.17886 400.8388 0.0001 400.8388"></polygon>
        <polygon id="path-3" points="0.451852397 0.2573 52.6803 0.2573 52.6803 52 0.451852397 52"></polygon>
        <polygon id="path-5" points="0.404052397 0.2573 52.6325 0.2573 52.6325 52 0.404052397 52"></polygon>
    </defs>
    <g id="RTL-Logo-Text" stroke="none" stroke-width="1" fill="none" fill-rule="evenodd">
        <rect fill="#131415" x="0" y="0" width="610" height="524"></rect>
        <g id="BY_-_RTL_logo_wht" transform="translate(58.000000, 54.000000)">
            <g id="Group-3" transform="translate(0.000000, 0.737000)">
                <mask id="mask-2" fill="white">
                    <use xlink:href="#path-1"></use>
                </mask>
                <g id="Clip-2"></g>
                <path d="M360.6201,52.8608 C362.5721,57.4638 363.3541,61.1008 363.2471,63.1018 C355.6871,58.5468 344.3161,54.6748 338.1131,53.5648 C334.0751,52.8408 347.2931,49.6338 360.6201,52.8608 M371.6051,222.1978 C373.9431,221.7028 376.2931,221.2298 378.6451,220.7688 C381.1041,220.2858 383.5691,219.8228 386.0431,219.3858 C384.0591,218.1358 382.0681,216.8978 380.0641,215.6788 C354.6091,200.1908 327.4751,187.0398 300.6651,174.3118 C283.7451,166.2788 266.5131,158.2938 248.9661,151.0968 C264.2721,130.9078 283.8701,113.7738 304.8171,99.0968 C304.8351,99.0848 304.9201,99.0258 305.0521,98.9328 C309.6371,105.1898 315.4331,109.4478 318.3391,111.0478 C324.0201,114.1778 331.1751,117.1028 337.7531,117.9968 C350.6891,119.7558 361.3701,119.4848 373.1871,117.4478 C374.2521,117.2648 375.3251,117.1348 376.3931,116.9568 C383.9711,115.6898 388.8201,115.4978 393.2591,115.4148 C399.1381,115.3048 402.0501,116.5498 402.7421,116.7298 C404.8421,117.2728 406.6271,118.1718 407.6191,119.3778 C408.7711,120.8458 410.0021,122.2308 411.3211,123.4988 C415.2771,127.4358 419.2051,129.6158 424.9041,130.2408 C432.2391,131.0448 437.4311,128.1758 441.1021,123.4128 C442.8361,121.1638 442.0011,117.6318 441.8111,116.9388 C440.8481,113.3958 438.6251,108.2418 437.0161,103.4438 C436.5991,102.2038 434.5781,98.3918 432.1461,95.8048 C431.3431,94.9488 430.5351,94.0948 429.7281,93.2418 C425.9511,89.2468 422.1441,85.2818 418.3701,81.2898 C403.3111,65.3718 386.9861,50.7158 370.1561,36.7028 C368.4121,35.2508 366.6651,33.7948 364.9151,32.3418 C363.6461,31.2868 362.3721,30.2378 361.1001,29.1868 C360.4531,28.6528 359.8071,28.1198 359.1581,27.5868 C357.7891,26.4608 356.4161,25.3428 355.0401,24.2258 C354.4971,23.7858 353.9521,23.3488 353.4081,22.9098 C352.5511,22.2198 350.5951,20.5728 348.9481,19.2538 C354.4071,13.8118 358.8121,10.4238 366.6311,5.3008 C367.7521,4.5668 373.7921,1.3448 373.5791,0.5268 C373.4511,0.0328 363.5341,0.1448 352.1711,1.6088 C348.1791,2.1228 325.8041,5.4268 310.4411,8.7748 C294.0871,12.3378 276.8181,17.3188 260.9121,22.3258 C214.9671,36.7898 171.0961,56.3918 130.9221,83.0318 C107.8341,98.3418 86.2221,115.2368 65.3621,133.4398 C55.6411,141.9208 45.9791,150.5378 36.5451,159.3928 C35.0671,160.7798 33.6011,162.1788 32.1351,163.5788 C34.1441,163.9548 36.1521,164.3478 38.1561,164.7598 C54.7691,168.1718 71.2001,172.7318 87.1751,177.2978 C106.7131,182.8818 126.4791,188.9018 145.5921,196.2918 C134.7011,206.6528 124.0761,217.2688 113.9611,228.5028 C94.9141,249.6538 77.1581,271.9988 60.5891,295.1368 C38.9991,325.2848 20.5681,357.7988 4.5021,391.3058 C2.9801,394.4758 1.4761,397.6528 0.0001,400.8388 C2.9721,398.4598 5.9621,396.1018 8.9741,393.7648 C34.9841,373.5938 62.4081,354.9428 89.7891,336.9238 C128.3171,311.5688 169.6651,290.6218 212.5711,273.7668 C264.2991,253.4468 317.1251,233.7338 371.6051,222.1978" id="Fill-1" fill="#FFFFFE" mask="url(#mask-2)"></path>
            </g>
            <path d="M257.6025,307.0632 C257.0295,310.3762 254.5445,312.7952 251.4885,312.7952 L243.8455,312.7952 L245.8835,301.3322 L252.8895,301.3322 C256.2645,301.3322 258.1755,303.7512 257.6025,307.0632 M267.7925,307.7012 C268.5575,303.4972 267.6015,299.8022 264.9265,296.6192 C262.2515,293.3702 258.8125,291.7782 254.5445,291.7782 L237.3485,291.7782 L229.5155,336.3612 L239.7055,336.3612 L242.2525,321.7122 L247.7935,321.7122 L253.5895,336.3612 L263.9085,336.3612 L257.4115,320.3112 C262.8255,318.2092 266.7095,313.6242 267.7925,307.7012" id="Fill-4" fill="#FFFFFE"></path>
            <polygon id="Fill-6" fill="#FFFFFE" points="280.0195 336.361 287.8525 291.778 277.6625 291.778 269.8285 336.361"></polygon>
            <path d="M322.4365,313.7507 C321.7365,317.6367 320.0805,320.6927 317.4055,323.0497 C314.7305,325.4057 311.4815,326.5527 307.7235,326.5527 L300.7175,326.5527 L305.1135,301.5867 L312.7555,301.5867 C319.8885,301.5867 323.7745,306.1717 322.4365,313.7507 M314.4755,291.7777 L296.6415,291.7777 L288.8085,336.3607 L306.6415,336.3607 C313.0745,336.3607 318.6785,334.3227 323.4555,330.3107 C328.2325,326.2337 331.1625,321.0117 332.2455,314.7067 C333.3275,308.4007 332.1175,303.0517 328.5505,298.5287 C325.0475,294.0077 320.3345,291.7777 314.4755,291.7777" id="Fill-8" fill="#FFFFFE"></path>
            <polygon id="Fill-10" fill="#FFFFFE" points="348.6113 318.5915 364.5343 318.5915 366.2543 309.0375 350.2673 309.0375 351.6053 301.5865 369.1203 301.5865 370.8403 291.7785 343.1333 291.7785 335.3003 336.3615 363.3243 336.3615 365.0443 326.5525 347.2103 326.5525"></polygon>
            <polygon id="Fill-12" fill="#FFFFFE" points="400.7725 336.361 406.8865 301.587 418.3505 301.587 420.0705 291.778 386.9515 291.778 385.2325 301.587 396.6965 301.587 390.5825 336.361"></polygon>
            <polygon id="Fill-14" fill="#FFFFFE" points="435.8633 291.778 425.6733 291.778 417.8403 336.361 428.0293 336.361 431.1503 318.655 445.1623 318.655 442.0423 336.361 452.2323 336.361 460.0663 291.778 449.8763 291.778 446.8823 308.847 432.8703 308.847"></polygon>
            <polygon id="Fill-16" fill="#FFFFFE" points="494.8398 301.5866 496.5598 291.7776 468.8538 291.7776 461.0198 336.3606 489.0438 336.3606 490.7638 326.5526 472.9298 326.5526 474.3308 318.5916 490.2538 318.5916 491.9738 309.0376 475.9868 309.0376 477.3238 301.5866"></polygon>
            <polygon id="Fill-18" fill="#FFFFFE" points="133.3516 353.989 121.9796 353.989 115.1566 392.797 113.2366 403.742 142.3776 403.742 144.2966 392.797 126.5286 392.797"></polygon>
            <polygon id="Fill-20" fill="#FFFFFE" points="148.9863 403.7419 160.3573 403.7419 169.1003 353.9889 157.7283 353.9889"></polygon>
            <g id="Group-24" transform="translate(172.000000, 352.737000)">
                <mask id="mask-4" fill="white">
                    <use xlink:href="#path-3"></use>
                </mask>
                <g id="Clip-23"></g>
                <path d="M26.0273,33.2363 L38.8203,33.2363 C36.1913,38.3533 31.3573,40.9123 24.2503,40.9123 C19.8433,40.9123 16.5033,39.5613 14.2993,36.8613 C12.0963,34.1603 11.4573,30.6063 12.2383,26.1293 C13.0203,21.6503 14.9393,18.0963 17.9963,15.3963 C21.1233,12.6953 24.8193,11.3443 29.1543,11.3443 C34.6273,11.3443 38.4653,13.4773 40.7403,17.6713 L51.1873,12.1973 C47.4923,4.5923 40.2423,0.2573 30.3633,0.2573 C22.9703,0.2573 16.5033,2.6023 10.9593,7.3643 C5.4863,12.1273 2.0753,18.0963 0.8663,25.4183 C-0.3417,32.8093 1.0803,39.0643 5.2733,44.2533 C9.4663,49.4413 15.4363,52.0003 23.1133,52.0003 C30.5053,52.0003 36.8313,49.8683 42.0893,45.5323 C47.4213,41.1963 50.6903,35.1553 51.9693,27.5493 L52.6803,23.2853 L27.7333,23.2853 L26.0273,33.2363 Z" id="Fill-22" fill="#FFFFFE" mask="url(#mask-4)"></path>
            </g>
            <polygon id="Fill-25" fill="#FFFFFE" points="260.2871 373.0368 244.6501 373.0368 247.9911 353.9888 236.6191 353.9888 227.8771 403.7418 239.2481 403.7418 242.7311 383.9828 258.3681 383.9828 254.8851 403.7418 266.2571 403.7418 274.9991 353.9888 263.6271 353.9888"></polygon>
            <polygon id="Fill-27" fill="#FFFFFE" points="318.5664 353.989 281.6074 353.989 279.6874 364.934 292.4814 364.934 285.6584 403.742 297.0304 403.742 303.8534 364.934 316.6474 364.934"></polygon>
            <polygon id="Fill-29" fill="#FFFFFE" points="347.9883 381.9216 333.7023 353.9886 325.1743 353.9886 316.4313 403.7416 327.8023 403.7416 332.7783 375.8096 346.9933 403.7416 355.5223 403.7416 364.2643 353.9886 352.8923 353.9886"></polygon>
            <polygon id="Fill-31" fill="#FFFFFE" points="365.6855 403.7419 377.0565 403.7419 385.7995 353.9889 374.4275 353.9889"></polygon>
            <polygon id="Fill-33" fill="#FFFFFE" points="418.7764 381.9216 404.4904 353.9886 395.9624 353.9886 387.2184 403.7416 398.5914 403.7416 403.5664 375.8096 417.7814 403.7416 426.3104 403.7416 435.0524 353.9886 423.6804 353.9886"></polygon>
            <g id="Group-37" transform="translate(438.000000, 352.737000)">
                <mask id="mask-6" fill="white">
                    <use xlink:href="#path-5"></use>
                </mask>
                <g id="Clip-36"></g>
                <path d="M25.9795,33.2363 L38.7725,33.2363 C36.1435,38.3533 31.3095,40.9123 24.2025,40.9123 C19.7955,40.9123 16.4555,39.5613 14.2515,36.8613 C12.0485,34.1603 11.4095,30.6063 12.1905,26.1293 C12.9725,21.6503 14.8915,18.0963 17.9485,15.3963 C21.0755,12.6953 24.7715,11.3443 29.1065,11.3443 C34.5795,11.3443 38.4175,13.4773 40.6925,17.6713 L51.1395,12.1973 C47.4445,4.5923 40.1945,0.2573 30.3145,0.2573 C22.9225,0.2573 16.4555,2.6023 10.9115,7.3643 C5.4385,12.1273 2.0275,18.0963 0.8185,25.4183 C-0.3895,32.8093 1.0325,39.0643 5.2255,44.2533 C9.4185,49.4413 15.3885,52.0003 23.0655,52.0003 C30.4575,52.0003 36.7835,49.8683 42.0415,45.5323 C47.3735,41.1963 50.6425,35.1553 51.9215,27.5493 L52.6325,23.2853 L27.6855,23.2853 L25.9795,33.2363 Z" id="Fill-35" fill="#FFFFFE" mask="url(#mask-6)"></path>
            </g>
        </g>
    </g>
</svg>