<?xml version="1.0" encoding="UTF-8"?>
<svg width="1284px" height="1030px" viewBox="0 0 1284 1030" version="1.1" xmlns="http://www.w3.org/2000/svg" xmlns:xlink="http://www.w3.org/1999/xlink">
    <!-- Generator: Sketch 60 (88103) - https://sketch.com -->
    <title>lightning_nav02_02_2_invoices</title>
    <desc>Created with Sketch.</desc>
    <defs>
        <rect id="path-1" x="0" y="91" width="218" height="939"></rect>
        <filter x="-6.7%" y="-1.3%" width="113.3%" height="103.1%" filterUnits="objectBoundingBox" id="filter-2">
            <feOffset dx="0" dy="2" in="SourceAlpha" result="shadowOffsetOuter1"></feOffset>
            <feGaussianBlur stdDeviation="4.5" in="shadowOffsetOuter1" result="shadowBlurOuter1"></feGaussianBlur>
            <feColorMatrix values="0 0 0 0 0.508718297   0 0 0 0 0.508320861   0 0 0 0 0.508320861  0 0 0 0.5 0" type="matrix" in="shadowBlurOuter1"></feColorMatrix>
        </filter>
        <rect id="path-3" x="0" y="38" width="1284" height="53"></rect>
        <filter x="-0.8%" y="-15.1%" width="101.6%" height="137.7%" filterUnits="objectBoundingBox" id="filter-4">
            <feOffset dx="0" dy="2" in="SourceAlpha" result="shadowOffsetOuter1"></feOffset>
            <feGaussianBlur stdDeviation="3" in="shadowOffsetOuter1" result="shadowBlurOuter1"></feGaussianBlur>
            <feColorMatrix values="0 0 0 0 0   0 0 0 0 0   0 0 0 0 0  0 0 0 0.5 0" type="matrix" in="shadowBlurOuter1"></feColorMatrix>
        </filter>
        <circle id="path-5" cx="10" cy="10" r="10"></circle>
        <filter x="-10.0%" y="-5.0%" width="120.0%" height="120.0%" filterUnits="objectBoundingBox" id="filter-6">
            <feOffset dx="0" dy="1" in="SourceAlpha" result="shadowOffsetOuter1"></feOffset>
            <feGaussianBlur stdDeviation="0.5" in="shadowOffsetOuter1" result="shadowBlurOuter1"></feGaussianBlur>
            <feColorMatrix values="0 0 0 0 0   0 0 0 0 0   0 0 0 0 0  0 0 0 0.5 0" type="matrix" in="shadowBlurOuter1"></feColorMatrix>
        </filter>
        <rect id="path-7" x="0" y="0" width="122" height="36" rx="4"></rect>
        <filter x="-3.3%" y="-5.6%" width="106.6%" height="122.2%" filterUnits="objectBoundingBox" id="filter-8">
            <feOffset dx="0" dy="2" in="SourceAlpha" result="shadowOffsetOuter1"></feOffset>
            <feGaussianBlur stdDeviation="1" in="shadowOffsetOuter1" result="shadowBlurOuter1"></feGaussianBlur>
            <feColorMatrix values="0 0 0 0 0   0 0 0 0 0   0 0 0 0 0  0 0 0 0.257457386 0" type="matrix" in="shadowBlurOuter1"></feColorMatrix>
        </filter>
    </defs>
    <g id="lightning_nav02_02_2_invoices" stroke="none" stroke-width="1" fill="none" fill-rule="evenodd">
        <rect fill="#1D1E1F" x="0" y="0" width="1284" height="1030"></rect>
        <rect id="Background" fill="#F2F5F6" x="-2.27373675e-13" y="38" width="1284" height="992"></rect>
        <g id="Rectangle">
            <use fill="black" fill-opacity="1" filter="url(#filter-2)" xlink:href="#path-1"></use>
            <use fill="#FFFFFF" fill-rule="evenodd" xlink:href="#path-1"></use>
        </g>
        <g id="Rectangle-13">
            <use fill="black" fill-opacity="1" filter="url(#filter-4)" xlink:href="#path-3"></use>
            <use fill="#5E4EA5" fill-rule="evenodd" xlink:href="#path-3"></use>
        </g>
        <g id="Browser">
            <path d="M0,6.00024414 C0,2.68640081 2.6794487,0 5.99234946,0 L1278.00765,0 C1281.31713,0 1284,2.68722626 1284,6.00024414 L1284,38 L0,38 L0,6.00024414 Z" id="Tab-BG---Right" fill="#363738"></path>
            <circle id="Dot---Red" fill="#FF5F57" cx="18" cy="19" r="6"></circle>
            <circle id="Dot---Orange" fill="#FFBF2F" cx="38" cy="19" r="6"></circle>
            <circle id="Dot---Green" fill="#28CA42" cx="58" cy="19" r="6"></circle>
            <g id="Back" transform="translate(76.000000, 7.000000)">
                <rect id="Rectangle" fill="#656668" x="0" y="0" width="28" height="24" rx="4"></rect>
                <path d="M10.1607883,11.3246277 L15.780455,5.65901618 C15.9603839,5.47908726 16.2513057,5.47908726 16.4312347,5.65901618 L17.1891941,6.41697565 C17.3691231,6.59690457 17.3691231,6.88782642 17.1891941,7.06775535 L12.6528768,11.6500175 L17.1891941,16.2322797 C17.3691231,16.4122086 17.3691231,16.7031305 17.1891941,16.8830594 L16.4312347,17.6410189 C16.2513057,17.8209478 15.9603839,17.8209478 15.780455,17.6410189 L10.1607883,11.9754074 C9.98085942,11.7954785 9.98085942,11.5045566 10.1607883,11.3246277 Z" id="a" fill="#FFFFFF" fill-rule="nonzero"></path>
            </g>
            <g id="Forward" transform="translate(105.000000, 7.000000)">
                <rect id="Rectangle" fill="#656668" x="0" y="0" width="28" height="24" rx="4"></rect>
                <path d="M18.1891941,11.9754074 L12.5695275,17.6410189 C12.3895986,17.8209478 12.0986767,17.8209478 11.9187478,17.6410189 L11.1607883,16.8830594 C10.9808594,16.7031305 10.9808594,16.4122086 11.1607883,16.2322797 L15.6971057,11.6500175 L11.1607883,7.06775535 C10.9808594,6.88782642 10.9808594,6.59690457 11.1607883,6.41697565 L11.9187478,5.65901618 C12.0986767,5.47908726 12.3895986,5.47908726 12.5695275,5.65901618 L18.1891941,11.3246277 C18.3691231,11.5045566 18.3691231,11.7954785 18.1891941,11.9754074 Z" id="a" fill="#FFFFFF" fill-rule="nonzero" opacity="0.200334821"></path>
            </g>
            <g id="New-Tab" transform="translate(1260.000000, 14.000000)">
                <rect id="Rectangle" fill="#292A2B" x="0" y="0" width="24" height="24"></rect>
                <path d="M16.2531029,11.6843877 C16.3618742,11.6843877 16.4499775,11.7724909 16.4499775,11.8812622 L16.4499775,12.6687603 C16.4499775,12.7775316 16.3618742,12.8656349 16.2531029,12.8656349 L12.3156123,12.8656349 L12.3156123,16.8031255 C12.3156123,16.9118967 12.2275091,17 12.1187378,17 L11.3312397,17 C11.2224684,17 11.1343651,16.9118967 11.1343651,16.8031255 L11.1343651,12.8656349 L7.19687453,12.8656349 C7.08810328,12.8656349 7,12.7775316 7,12.6687603 L7,11.8812622 C7,11.7724909 7.08810328,11.6843877 7.19687453,11.6843877 L11.1343651,11.6843877 L11.1343651,7.74689706 C11.1343651,7.63812581 11.2224684,7.55002253 11.3312397,7.55002253 L12.1187378,7.55002253 C12.2275091,7.55002253 12.3156123,7.63812581 12.3156123,7.74689706 L12.3156123,11.6843877 L16.2531029,11.6843877 Z" id="p" fill="#FFFFFF" fill-rule="nonzero" opacity="0.497907366"></path>
            </g>
            <g id="URL" transform="translate(378.000000, 7.000000)">
                <path d="M0,3.99005301 C0,1.78640758 1.78094395,5.31029755e-14 3.99753941,5.28693238e-14 L516.002461,-1.1012102e-15 C518.210241,-1.33393271e-15 520,1.78429328 520,3.99005301 L520,20.009947 C520,22.2135924 518.219056,24 516.002461,24 L3.99753941,24 C1.78975936,24 0,22.2157067 0,20.009947 L0,3.99005301 Z" id="URL-Bar" fill="#696A6B"></path>
                <path d="M512.304658,5.17186422 C512.467743,5.17186422 512.59997,5.30412783 512.59997,5.46721261 L512.59997,10.1922013 C512.59997,10.3552861 512.467743,10.4875131 512.304658,10.4875131 L507.579669,10.4875131 C507.416585,10.4875131 507.284358,10.3552861 507.284358,10.1922013 L507.284358,9.51027815 C507.284358,9.34440559 507.42091,9.21109712 507.586711,9.21503845 L510.69705,9.2890827 C509.940722,7.61516854 508.257531,6.45158527 506.299985,6.45158527 C503.633864,6.45158527 501.476559,8.60927437 501.476559,11.2750113 C501.476559,13.9411327 503.634248,16.0984373 506.299985,16.0984373 C507.533046,16.0984373 508.65724,15.6369165 509.509554,14.8770557 C509.6264,14.7728747 509.804938,14.7799403 509.915632,14.8906341 L510.401377,15.3763797 C510.521276,15.4962781 510.51534,15.6917347 510.389505,15.8053845 C509.307296,16.7829079 507.873155,17.3781217 506.299985,17.3781217 C502.93257,17.3781217 500.202138,14.6509336 500.19686,11.2847685 C500.191635,7.92836054 502.924087,5.18242707 506.280471,5.17186422 C508.411171,5.16526784 510.288545,6.2506252 511.385221,7.89993005 L511.327471,5.47425415 C511.32353,5.30842965 511.456862,5.17186422 511.622711,5.17186422 L512.304658,5.17186422 Z" id="r" fill="#FFFFFF" fill-rule="nonzero" transform="translate(506.398415, 11.274993) rotate(-45.000000) translate(-506.398415, -11.274993) "></path>
                <text id="Ride-the-Lightning" font-family="Roboto-Regular, Roboto" font-size="12.6" font-weight="normal" fill="#FFFFFF">
                    <tspan x="210" y="17">Ride the Lightning</tspan>
                </text>
            </g>
        </g>
        <text id="Dashboard" font-family="FontAwesome5Pro-Regular, Font Awesome 5 Pro" font-size="18" font-weight="normal" fill="#FFFFFF">
            <tspan x="24" y="71">bars</tspan>
        </text>
        <g id="RTL-Logo" transform="translate(1210.000000, 56.000000)" fill="#FFFFFF">
            <path d="M5.10234375,10.1960631 L3.54375,10.1960631 L2.80546875,14.4124693 L0,14.4124693 L2.0671875,2.46871933 L6.28359375,2.47692246 C7.63438175,2.47692246 8.67480104,2.79273961 9.40488281,3.4243834 C10.1349646,4.05602718 10.4617191,4.91871386 10.3851562,6.01246933 C10.3249997,6.87653615 10.0761741,7.59156807 9.63867187,8.15758652 C9.20116969,8.72360498 8.58867581,9.17067082 7.80117187,9.49879746 L9.40898437,14.2730162 L9.40898437,14.4124693 L6.41484375,14.4124693 L5.10234375,10.1960631 Z M3.92109375,7.97301621 L5.56171875,7.98942246 C6.01015849,7.98942246 6.39980303,7.88004855 6.73066406,7.66129746 C7.06152509,7.44254636 7.29804616,7.1431353 7.44023438,6.76305527 C7.58242259,6.38297525 7.6234378,6.01520549 7.56328125,5.65973496 C7.4539057,5.05270067 7.06562834,4.732782 6.3984375,4.69996933 L4.4953125,4.69176621 L3.92109375,7.97301621 Z M21.0984375,4.69176621 L17.6203125,4.69176621 L15.9386719,14.4124693 L13.125,14.4124693 L14.8148438,4.69176621 L11.3941406,4.69176621 L11.7878906,2.46871933 L21.4839844,2.46871933 L21.0984375,4.69176621 Z M23.8464844,12.1976256 L28.7109375,12.1976256 L28.3253906,14.4124693 L20.6554688,14.4124693 L22.7226562,2.46871933 L25.5363281,2.46871933 L23.8464844,12.1976256 Z" id="RTL-Copy" fill-rule="nonzero"></path>
            <path d="M37.882011,5.59373905 C38.4131621,5.59373905 38.7433371,6.1708163 38.4763316,6.62733033 L33.4232186,15.3554345 C33.2968796,15.5736259 33.0671926,15.699965 32.8260382,15.699965 C32.3867394,15.699965 32.0537046,15.2894051 32.1570525,14.8529943 L33.4806404,9.26873029 L30.0726546,9.26873029 C29.656347,9.26873029 29.3347797,8.90123677 29.3893415,8.48778904 L30.3080893,1.59718047 C30.3540155,1.25553795 30.646872,1 30.9914024,1 L35.1257676,1 C35.5765338,1 35.9067088,1.43066304 35.7918653,1.86707385 L34.5687655,5.59373905 L37.882011,5.59373905 Z" id="b-copy" fill-rule="nonzero"></path>
            <text id="caret-down-copy" font-family="FontAwesome5Pro-Solid, Font Awesome 5 Pro" font-size="16" font-weight="700">
                <tspan x="46" y="14">caret-down</tspan>
            </text>
        </g>
        <text id="Lightning-Transactio" font-family="Roboto-Regular, Roboto" font-size="16" font-weight="normal" fill="#84979E">
            <tspan x="274" y="346">Lightning Transactions</tspan>
        </text>
        <path d="M265.890129,337.765187 C266.036552,337.618733 266.036583,337.381307 265.890129,337.234854 L262.999969,334.359861 C262.853515,334.213438 262.616089,334.213438 262.469636,334.359861 L262.248689,334.580807 C262.102236,334.727291 262.102236,334.964717 262.248689,335.11114 L264.153256,337.000021 L250.374999,337.000021 C250.167907,337.000021 250,337.167929 250,337.375021 L250,337.62502 C250,337.832112 250.167907,338.000019 250.374999,338.000019 L264.152859,338.000019 L262.248689,339.8889 C262.102236,340.035354 262.102236,340.27278 262.248689,340.419233 L262.469666,340.64018 C262.616089,340.786603 262.853515,340.786603 262.999969,340.64018 L265.890129,337.765187 Z M250.109833,342.765175 C249.963379,342.618721 249.96341,342.381295 250.109833,342.234842 L252.999993,339.359849 C253.146416,339.213395 253.383873,339.213426 253.530296,339.359849 L253.751273,339.580795 C253.897726,339.727279 253.897726,339.964706 253.751273,340.111129 L251.847103,342.00001 L265.624963,342.00001 C265.832055,342.00001 265.999962,342.167917 265.999962,342.375009 L265.999962,342.625008 C265.999962,342.8321 265.832055,343.000007 265.624963,343.000007 L251.846706,343.000007 L253.751273,344.888888 C253.897726,345.035342 253.897726,345.272768 253.751273,345.419221 L253.530326,345.640168 C253.383873,345.786591 253.146446,345.786591 252.999993,345.640168 L250.109833,342.765175 Z" id="e" fill="#84979E" fill-rule="nonzero"></path>
        <path d="M247.12777,367.5 C245.57762,367.5 244.940578,367.623018 244.282108,367.975172 C243.71739,368.277186 243.277186,368.71739 242.975172,369.282108 C242.623018,369.940578 242.5,370.57762 242.5,372.12777 L242.5,1022.87223 C242.5,1024.42238 242.623018,1025.05942 242.975172,1025.71789 C243.277186,1026.28261 243.71739,1026.72281 244.282108,1027.02483 C244.940578,1027.37698 245.57762,1027.5 247.12777,1027.5 L1253.87223,1027.5 C1255.42238,1027.5 1256.05942,1027.37698 1256.71789,1027.02483 C1257.28261,1026.72281 1257.72281,1026.28261 1258.02483,1025.71789 C1258.37698,1025.05942 1258.5,1024.42238 1258.5,1022.87223 L1258.5,372.12777 C1258.5,370.57762 1258.37698,369.940578 1258.02483,369.282108 C1257.72281,368.71739 1257.28261,368.277186 1256.71789,367.975172 C1256.05942,367.623018 1255.42238,367.5 1253.87223,367.5 L247.12777,367.5 Z" id="Rectangle" stroke="#DEDEDE" fill="#FFFFFF"></path>
        <line x1="242.674172" y1="415.5" x2="1259.32583" y2="415.5" id="Line" stroke="#D7D7D7" stroke-linecap="square"></line>
        <rect id="Rectangle" fill="#5E4EA5" opacity="0" x="242" y="414" width="160" height="2"></rect>
        <rect id="Rectangle" fill="#59316B" x="402" y="414" width="160" height="2"></rect>
        <text id="Payments" font-family="Roboto-Regular, Roboto" font-size="14" font-weight="normal" fill="#979797">
            <tspan x="290.862305" y="397">Payments</tspan>
        </text>
        <text id="Invoices" font-family="Roboto-Medium, Roboto" font-size="14" font-weight="400" fill="#5E4EA5">
            <tspan x="455.862793" y="397">Invoices</tspan>
        </text>
        <text id="Cinema-Tickets" font-family="Roboto-Regular, Roboto" font-size="15" font-weight="normal" fill="#444444">
            <tspan x="266" y="475">Cinema Tickets</tspan>
        </text>
        <rect id="Rectangle" stroke="#979797" fill="#D8D8D8" transform="translate(749.500000, 484.500000) scale(1, -1) translate(-749.500000, -484.500000) " x="266.5" y="484.5" width="966" height="1"></rect>
        <g id="Group-8" transform="translate(266.000000, 523.000000)">
            <text id="100,000" font-family="Roboto-Regular, Roboto" font-size="15" font-weight="normal" fill="#444444">
                <tspan x="0" y="14">100,000</tspan>
            </text>
            <rect id="Rectangle" stroke="#979797" fill="#D8D8D8" x="0.5" y="24.5" width="219" height="1"></rect>
            <text id="sats" font-family="Roboto-Regular, Roboto" font-size="15" font-weight="normal" fill="#999999">
                <tspan x="183.472168" y="14">sats</tspan>
            </text>
        </g>
        <text id="60" font-family="Roboto-Regular, Roboto" font-size="15" font-weight="normal" fill="#444444">
            <tspan x="510" y="537">60</tspan>
        </text>
        <rect id="Rectangle" stroke="#979797" fill="#D8D8D8" transform="translate(556.500000, 546.500000) scale(1, -1) translate(-556.500000, -546.500000) " x="510.5" y="546.5" width="92" height="1"></rect>
        <text id="mins" font-family="Roboto-Regular, Roboto" font-size="15" font-weight="normal" fill="#999999">
            <tspan x="570.202148" y="537">mins</tspan>
        </text>
        <text id="Memo" font-family="Roboto-Regular, Roboto" font-size="12" font-weight="normal" fill="#5E4EA5">
            <tspan x="266" y="450">Memo</tspan>
        </text>
        <text id="Amount" font-family="Roboto-Regular, Roboto" font-size="12" font-weight="normal" fill="#5E4EA5">
            <tspan x="266" y="512">Amount</tspan>
        </text>
        <text id="Expiry" font-family="Roboto-Regular, Roboto" font-size="12" font-weight="normal" fill="#5E4EA5">
            <tspan x="510" y="512">Expiry</tspan>
        </text>
        <text id="Expiry" font-family="Roboto-Regular, Roboto" font-size="12" font-weight="normal" fill="#5E4EA5">
            <tspan x="510" y="512">Expiry</tspan>
        </text>
        <g id="Group-16" transform="translate(250.000000, 331.000000)"></g>
        <g id="Group-7" transform="translate(266.000000, 461.000000)"></g>
        <g id="Group-15" transform="translate(713.000000, 526.000000)">
            <g id="Group-12">
                <rect id="Rectangle" fill="#9B9B9B" x="1" y="3" width="31" height="14" rx="7"></rect>
                <g id="Oval">
                    <use fill="black" fill-opacity="1" filter="url(#filter-6)" xlink:href="#path-5"></use>
                    <use fill="#FFFFFF" fill-rule="evenodd" xlink:href="#path-5"></use>
                </g>
            </g>
            <text id="Private" font-family="Roboto-Regular, Roboto" font-size="16" font-weight="normal" fill="#323232">
                <tspan x="43" y="15">Private</tspan>
            </text>
        </g>
        <text id="≈-$10.94-USD" font-family="Roboto-Regular, Roboto" font-size="12" font-weight="normal" fill="#828282">
            <tspan x="266" y="564">≈ $10.94 USD</tspan>
        </text>
        <g id="Group-10" transform="translate(627.000000, 523.000000)">
            <text id="mins" font-family="Roboto-Regular, Roboto" font-size="15" font-weight="normal" fill="#444444">
                <tspan x="0" y="14">mins</tspan>
            </text>
            <rect id="Rectangle" stroke="#979797" fill="#D8D8D8" transform="translate(31.000000, 23.500000) scale(1, -1) translate(-31.000000, -23.500000) " x="0.5" y="23.5" width="61" height="1"></rect>
            <path d="M45.625761,8.00001907 L53.6742669,8.00001907 C54.231087,8.00001907 54.5094665,8.67189247 54.1153425,9.06562933 L50.0926322,13.0875008 C49.8486492,13.3312442 49.4513788,13.3312442 49.2073958,13.0875008 L45.184716,9.06562933 C44.7905615,8.67189247 45.0689715,8.00001907 45.625761,8.00001907 Z" id="c" fill="#5F5F5F" fill-rule="nonzero"></path>
        </g>
        <g id="Group-31" transform="translate(376.000000, 596.000000)">
            <g id="Rectangle-Copy-7">
                <use fill="black" fill-opacity="1" filter="url(#filter-8)" xlink:href="#path-7"></use>
                <use fill="#5E4EA5" fill-rule="evenodd" xlink:href="#path-7"></use>
            </g>
            <text id="Create-Invoice" font-family="Roboto-Medium, Roboto" font-size="14" font-weight="400" fill="#FFFFFF">
                <tspan x="16.6904297" y="23">Create Invoice</tspan>
            </text>
        </g>
        <g id="Group-4" transform="translate(267.000000, 596.000000)">
            <rect id="Rectangle-Copy-7" stroke="#DCDCDC" fill="#FFFFFF" x="0.5" y="0.5" width="95" height="35" rx="4"></rect>
            <text id="Clear-Field" font-family="Roboto-Medium, Roboto" font-size="14" font-weight="400" fill="#4F4F4F">
                <tspan x="15.2670898" y="23">Clear Field</tspan>
            </text>
        </g>
        <g id="Group-23" transform="translate(243.000000, 117.000000)">
            <g id="Group-22" transform="translate(0.000000, 37.000000)">
                <path d="M5.1277704,0.5 C3.5776195,0.5 2.94057806,0.623018378 2.28210802,0.975172007 C1.71739041,1.27718629 1.27718629,1.71739041 0.975172007,2.28210802 C0.623018378,2.94057806 0.5,3.5776195 0.5,5.1277704 L0.5,137.87223 C0.5,139.42238 0.623018378,140.059422 0.975172007,140.717892 C1.27718629,141.28261 1.71739041,141.722814 2.28210802,142.024828 C2.94057806,142.376982 3.5776195,142.5 5.1277704,142.5 L1012.87223,142.5 C1014.42238,142.5 1015.05942,142.376982 1015.71789,142.024828 C1016.28261,141.722814 1016.72281,141.28261 1017.02483,140.717892 C1017.37698,140.059422 1017.5,139.42238 1017.5,137.87223 L1017.5,5.1277704 C1017.5,3.5776195 1017.37698,2.94057806 1017.02483,2.28210802 C1016.72281,1.71739041 1016.28261,1.27718629 1015.71789,0.975172007 C1015.05942,0.623018378 1014.42238,0.5 1012.87223,0.5 L5.1277704,0.5 Z" id="Rectangle" stroke="#DEDEDE" fill="#FFFFFF"></path>
                <line x1="0" y1="48.5" x2="1018" y2="48.5" id="Line" stroke="#D7D7D7" stroke-linecap="square"></line>
                <rect id="Rectangle" fill="#5E4EA5" x="1" y="47" width="79" height="2"></rect>
                <rect id="Rectangle" fill="#59316B" opacity="0" x="78" y="47" width="80" height="2"></rect>
                <text id="SATS" font-family="Roboto-Medium, Roboto" font-size="14" font-weight="400" fill="#5E4EA5">
                    <tspan x="22.1435547" y="30">SATS</tspan>
                </text>
                <text id="BTC" font-family="Roboto-Regular, Roboto" font-size="14" font-weight="normal" fill="#979797">
                    <tspan x="104.90918" y="30">BTC</tspan>
                </text>
                <text id="GBP" font-family="Roboto-Regular, Roboto" font-size="14" font-weight="normal" fill="#979797">
                    <tspan x="182.958008" y="30">GBP</tspan>
                </text>
                <g id="Group-26" transform="translate(25.000000, 72.000000)">
                    <text id="Local-Capacity" font-family="Roboto-Medium, Roboto" font-size="12" font-weight="400" fill="#5E4EA5">
                        <tspan x="0" y="11">Local Capacity</tspan>
                    </text>
                    <text id="413,722" font-family="Roboto-Light, Roboto" font-size="20" font-weight="300" fill="#222831">
                        <tspan x="0" y="37">413,722</tspan>
                    </text>
                </g>
                <g id="Group-26" transform="translate(138.000000, 72.000000)">
                    <text id="Remote-Capacity" font-family="Roboto-Medium, Roboto" font-size="12" font-weight="400" fill="#5E4EA5">
                        <tspan x="0" y="11">Remote Capacity</tspan>
                    </text>
                    <text id="400,000" font-family="Roboto-Light, Roboto" font-size="20" font-weight="300" fill="#222831">
                        <tspan x="0" y="37">400,000</tspan>
                    </text>
                </g>
            </g>
            <g id="Group-27">
                <path d="M16.4934772,9.00001192 C16.7919079,9.00001192 17.0372381,9.26218781 16.9953375,9.55781088 C16.7512891,11.2843693 15.9194124,12.8203153 14.7100342,13.9596864 C14.6178408,14.0465697 14.4990972,14.0887449 14.3797432,14.0887449 C14.2624339,14.0885313 14.0997451,14.0212097 14.0166154,13.9384462 L9.07818113,9.00001192 L16.4934772,9.00001192 Z M14.3712898,12.8787563 C15.115032,12.0625046 15.6412758,11.0675119 15.8950289,10.0000095 L11.492543,10.0000095 L14.3712898,12.8787563 Z M7.00006108,9.00001192 L11.8709906,13.8709415 C12.0850404,14.0849913 12.0688051,14.4484242 11.8219185,14.6234421 C10.6253576,15.472195 9.17006934,15.9796706 7.59506088,15.9993849 C7.56442131,15.9996901 7.53475829,15.9999952 7.50411872,15.9999952 C3.53693457,15.9999952 0.139756393,12.7353241 0.0044417746,8.76157865 C-0.128034716,4.86250958 2.71851611,1.60909937 6.44226212,1.0828555 C6.46444835,1.0797122 6.48663457,1.07815581 6.50817993,1.07815581 C6.77569638,1.07815581 7.00006108,1.3087766 7.00006108,1.58471588 L7.00006108,9.00001192 Z M7.58224353,14.9993873 C8.69536954,14.9856239 9.77037918,14.6900008 10.7253635,14.1393734 L6.00006347,9.41407343 L6.00006347,2.18221812 C3.01038554,2.88283901 0.897567087,5.59846974 1.00382904,8.72752112 C1.11945987,12.1275069 4.09632045,14.9999976 7.50381354,14.9999976 L7.58224353,14.9993873 Z M15.9987884,6.97502285 C16.0184722,7.26002584 15.7784825,7.5000155 15.4928387,7.5000155 L8.50005751,7.5000155 L8.50005751,0.507234318 C8.50005751,0.232851427 8.72191977,3.33786011e-05 8.99254901,3.33786011e-05 C9.0031691,3.33786011e-05 9.01412488,0.000338553655 9.02505015,0.00128459632 C12.758165,0.258791307 15.7412817,3.24190797 15.9987884,6.97502285 Z M9.50005512,6.50001788 L14.9406549,6.50001788 C14.5088017,3.71096203 12.289111,1.4909661 9.50005512,1.05941806 L9.50005512,6.50001788 Z" id="c" fill="#84979E" fill-rule="nonzero"></path>
                <text id="Lightning-Balance" font-family="Roboto-Regular, Roboto" font-size="16" font-weight="normal" fill="#84979E">
                    <tspan x="25.0000778" y="15">Lightning Balance</tspan>
                </text>
                <g id="Group-20" transform="translate(0.000078, 0.000000)"></g>
            </g>
        </g>
        <g id="Group-24" transform="translate(-1.000000, 117.000000)">
            <g id="Group-2" transform="translate(2.000000, 279.000000)">
                <rect id="Rectangle" fill-opacity="0.114128059" fill="#5E4EA5" opacity="0" x="0" y="0" width="218" height="48"></rect>
                <text id="On-chain-Copy" font-family="Roboto-Regular, Roboto" font-size="14" font-weight="normal" fill="#474747">
                    <tspan x="76" y="29">Lookup</tspan>
                </text>
            </g>
            <g id="Group-2" transform="translate(2.000000, 327.000000)">
                <rect id="Rectangle" fill-opacity="0.114128059" fill="#5E4EA5" opacity="0" x="0" y="0" width="218" height="48"></rect>
                <text id="On-chain-Copy" font-family="Roboto-Regular, Roboto" font-size="14" font-weight="normal" fill="#474747">
                    <tspan x="76" y="29">Routing</tspan>
                </text>
            </g>
            <rect id="Rectangle" fill-opacity="0.114128059" fill="#C2C2C2" x="2" y="183" width="218" height="192"></rect>
            <rect id="Rectangle" fill-opacity="0.114128059" fill="#BEBEBE" x="0" y="232" width="219" height="48"></rect>
            <g id="Group-14" transform="translate(1.000000, 232.000000)" fill="#5E4EA5">
                <g id="Group-2">
                    <rect id="Rectangle" fill-opacity="0.114128059" opacity="0" x="0" y="0" width="218" height="48"></rect>
                    <text id="On-chain-Copy" font-family="Roboto-Medium, Roboto" font-size="14" font-weight="400">
                        <tspan x="76" y="29">Transactions</tspan>
                    </text>
                </g>
                <text id="exchange" font-family="FontAwesome5Pro-Solid, Font Awesome 5 Pro" font-size="14" font-weight="700">
                    <tspan x="37" y="29">exchange</tspan>
                </text>
            </g>
            <g id="Group-11" transform="translate(1.000000, 183.000000)">
                <g id="Group-13">
                    <g id="Group-2">
                        <rect id="Rectangle" fill-opacity="0.114128059" fill="#5E4EA5" opacity="0" x="0" y="0" width="218" height="48"></rect>
                        <text id="On-chain-Copy" font-family="Roboto-Regular, Roboto" font-size="14" font-weight="normal" fill="#474747">
                            <tspan x="76" y="29">Peers / Channels</tspan>
                        </text>
                    </g>
                </g>
                <text id="users" font-family="FontAwesome5Pro-Solid, Font Awesome 5 Pro" font-size="14" font-weight="700" fill="#858585">
                    <tspan x="35" y="29">users</tspan>
                </text>
            </g>
            <rect id="Rectangle" fill="#D8D8D8" opacity="0" x="1" y="89" width="218" height="48"></rect>
            <text id="On-chain" font-family="Roboto-Regular, Roboto" font-size="14" font-weight="normal" fill="#474747">
                <tspan x="71" y="118">On-chain</tspan>
            </text>
            <g id="Group-9" transform="translate(1.000000, 375.000000)">
                <rect id="Rectangle" fill="#D8D8D8" opacity="0" x="0" y="0" width="218" height="48"></rect>
                <text id="On-chain" font-family="Roboto-Regular, Roboto" font-size="14" font-weight="normal" fill="#4A4A4A">
                    <tspan x="70" y="29">Advanced</tspan>
                </text>
                <rect id="Rectangle" fill="#D8D8D8" opacity="0" x="0" y="48" width="218" height="48"></rect>
                <text id="On-chain" font-family="Roboto-Regular, Roboto" font-size="14" font-weight="normal" fill="#4A4A4A">
                    <tspan x="70" y="77">Help</tspan>
                </text>
                <g id="Group-6" transform="translate(0.000000, 110.000000)">
                    <g id="Group-30" transform="translate(0.000000, 7.000000)">
                        <g id="Group-3">
                            <rect id="Rectangle" fill="#D8D8D8" opacity="0" x="0" y="0" width="218" height="48"></rect>
                            <text id="On-chain" font-family="Roboto-Regular, Roboto" font-size="14" font-weight="normal" fill="#4A4A4A">
                                <tspan x="70" y="29">Public Key</tspan>
                            </text>
                        </g>
                        <text id="eye" font-family="FontAwesome5Pro-Solid, Font Awesome 5 Pro" font-size="14" font-weight="700" fill="#858585">
                            <tspan x="24" y="27">eye</tspan>
                        </text>
                    </g>
                    <line x1="0.5" y1="0.5" x2="218.5" y2="0.5" id="Line-3" stroke="#E6E6E6" stroke-linecap="square"></line>
                </g>
                <text id="cog" font-family="FontAwesome5Pro-Solid, Font Awesome 5 Pro" font-size="14" font-weight="700" fill="#858585">
                    <tspan x="25" y="28">cog</tspan>
                </text>
                <text id="life-ring" font-family="FontAwesome5Pro-Solid, Font Awesome 5 Pro" font-size="14" font-weight="700" fill="#858585">
                    <tspan x="25" y="75">life-ring</tspan>
                </text>
            </g>
            <text id="On-chain-Copy" font-family="Roboto-Regular, Roboto" font-size="14" font-weight="normal" fill="#474747">
                <tspan x="71" y="166">Lightning</tspan>
            </text>
            <text id="Dashboard" font-family="Roboto-Regular, Roboto" font-size="14" font-weight="normal" fill="#4A4A4A">
                <tspan x="71" y="68">Dashboard</tspan>
            </text>
            <g id="Group-18" transform="translate(25.000000, 0.000000)">
                <text id="Dashboard" font-family="Roboto-Regular, Roboto" font-size="16" font-weight="normal" fill="#181818">
                    <tspan x="0" y="15">Amora_UK01</tspan>
                </text>
                <path d="M99.6365126,7 L107.823305,7 C108.389692,7 108.672855,7.6718734 108.271959,8.06561025 L104.180132,12.0874818 C103.931957,12.3312251 103.527861,12.3312251 103.279686,12.0874818 L99.1878898,8.06561025 C98.786963,7.6718734 99.0701566,7 99.6365126,7 Z" id="c" fill="#4B4B4B" fill-rule="nonzero"></path>
            </g>
            <text id="tachometer-alt-fast" font-family="FontAwesome5Pro-Solid, Font Awesome 5 Pro" font-size="14" font-weight="700" fill="#858585">
                <tspan x="25" y="67">tachometer-alt-fast</tspan>
            </text>
            <text id="link" font-family="FontAwesome5Pro-Solid, Font Awesome 5 Pro" font-size="14" font-weight="700" fill="#858585">
                <tspan x="26" y="116">link</tspan>
            </text>
            <text id="bolt" font-family="FontAwesome5Pro-Solid, Font Awesome 5 Pro" font-size="14" font-weight="700" fill="#858585">
                <tspan x="29" y="165">bolt</tspan>
            </text>
            <text id="bolt" font-family="FontAwesome5Pro-Solid, Font Awesome 5 Pro" font-size="14" font-weight="700" fill="#858585">
                <tspan x="29" y="165">bolt</tspan>
            </text>
            <text id="search" font-family="FontAwesome5Pro-Solid, Font Awesome 5 Pro" font-size="14" font-weight="700" fill="#858585">
                <tspan x="39" y="308">search</tspan>
            </text>
            <text id="project-diagram" font-family="FontAwesome5Pro-Solid, Font Awesome 5 Pro" font-size="14" font-weight="700" fill="#858585">
                <tspan x="37" y="357">project-diagram</tspan>
            </text>
        </g>
        <g id="Group-29" transform="translate(267.000000, 634.000000)">
            <text id="Invoices-History" font-family="Roboto-Regular, Roboto" font-size="16" font-weight="normal" fill="#84979E">
                <tspan x="24" y="47">Invoices History</tspan>
            </text>
            <path d="M5.1277704,64.0985477 C3.5776195,64.0985477 2.94057806,64.2215661 2.28210802,64.5737197 C1.71739041,64.875734 1.27718629,65.3159381 0.975172007,65.8806557 C0.623018378,66.5391258 0.5,67.1761672 0.5,68.7263181 L0.5,367.270777 C0.5,368.820928 0.623018378,369.45797 0.975172007,370.11644 C1.27718629,370.681157 1.71739041,371.121361 2.28210802,371.423376 C2.94057806,371.775529 3.5776195,371.898548 5.1277704,371.898548 L960.87223,371.898548 C962.42238,371.898548 963.059422,371.775529 963.717892,371.423376 C964.28261,371.121361 964.722814,370.681157 965.024828,370.11644 C965.376982,369.45797 965.5,368.820928 965.5,367.270777 L965.5,68.7263181 C965.5,67.1761672 965.376982,66.5391258 965.024828,65.8806557 C964.722814,65.3159381 964.28261,64.875734 963.717892,64.5737197 C963.059422,64.2215661 962.42238,64.0985477 960.87223,64.0985477 L5.1277704,64.0985477 Z" id="Rectangle" stroke="#DEDEDE" fill="#FFFFFF"></path>
            <g id="Group-5" transform="translate(18.000000, 85.000000)" font-size="14">
                <text id="Date-Created" font-family="Roboto-Medium, Roboto" font-weight="400" letter-spacing="0.5" fill="#000000">
                    <tspan x="0" y="13">Date Created</tspan>
                </text>
                <text id="04/SET/2019-08:00" font-family="Roboto-Regular, Roboto" font-weight="normal" letter-spacing="0.200000003" fill="#4F4F4F">
                    <tspan x="21" y="67">04/SET/2019 08:00</tspan>
                </text>
                <text id="04/SET/2019-08:00" font-family="Roboto-Regular, Roboto" font-weight="normal" letter-spacing="0.200000003" fill="#4F4F4F">
                    <tspan x="21" y="115">04/SET/2019 08:00</tspan>
                </text>
                <text id="04/SET/2019-08:00" font-family="Roboto-Regular, Roboto" font-weight="normal" letter-spacing="0.200000003" fill="#4F4F4F">
                    <tspan x="21" y="171">04/SET/2019 08:00</tspan>
                </text>
                <text id="04/SET/2019-08:00" font-family="Roboto-Regular, Roboto" font-weight="normal" letter-spacing="0.200000003" fill="#4F4F4F">
                    <tspan x="21" y="217">04/SET/2019 08:00</tspan>
                </text>
            </g>
            <g id="Group-28" transform="translate(17.000000, 140.000000)">
                <circle id="Oval" fill="#FFBD2E" cx="6" cy="6" r="6"></circle>
                <circle id="Oval" fill="#28CA42" cx="6" cy="56" r="6"></circle>
                <circle id="Oval" fill="#FFBD2E" cx="6" cy="110" r="6"></circle>
                <circle id="Oval" fill="#28CA42" cx="6" cy="156" r="6"></circle>
            </g>
            <g id="Group-21" transform="translate(206.000000, 85.000000)" font-size="14">
                <text id="Date-Settled" font-family="Roboto-Medium, Roboto" font-weight="400" letter-spacing="0.5" fill="#000000">
                    <tspan x="0" y="13">Date Settled</tspan>
                </text>
                <text id="-" font-family="Roboto-Regular, Roboto" font-weight="normal" letter-spacing="0.200000003" fill="#4F4F4F">
                    <tspan x="0" y="63">-</tspan>
                </text>
                <text id="04/SET/2019-08:00" font-family="Roboto-Regular, Roboto" font-weight="normal" letter-spacing="0.200000003" fill="#4F4F4F">
                    <tspan x="0" y="115">04/SET/2019 08:00</tspan>
                </text>
                <text id="-" font-family="Roboto-Regular, Roboto" font-weight="normal" letter-spacing="0.200000003" fill="#4F4F4F">
                    <tspan x="0" y="170">-</tspan>
                </text>
                <text id="04/SET/2019-08:00" font-family="Roboto-Regular, Roboto" font-weight="normal" letter-spacing="0.200000003" fill="#4F4F4F">
                    <tspan x="0" y="219">04/SET/2019 08:00</tspan>
                </text>
            </g>
            <g id="Group-19" transform="translate(740.000000, 85.000000)" font-size="14">
                <text id="Value" font-family="Roboto-Medium, Roboto" font-weight="400" letter-spacing="0.5" fill="#000000">
                    <tspan x="25" y="13">Value</tspan>
                </text>
                <text id="100,000" font-family="Roboto-Regular, Roboto" font-weight="normal" letter-spacing="0.200000003" fill="#4F4F4F">
                    <tspan x="11.6839844" y="63">100,000</tspan>
                </text>
                <text id="100,000" font-family="Roboto-Regular, Roboto" font-weight="normal" letter-spacing="0.200000003" fill="#4F4F4F">
                    <tspan x="11.6839844" y="115">100,000</tspan>
                </text>
                <text id="2,000,000" font-family="Roboto-Regular, Roboto" font-weight="normal" letter-spacing="0.200000003" fill="#4F4F4F">
                    <tspan x="0.674609348" y="170">2,000,000</tspan>
                </text>
                <text id="2,000,000" font-family="Roboto-Regular, Roboto" font-weight="normal" letter-spacing="0.200000003" fill="#4F4F4F">
                    <tspan x="0.674609348" y="219">2,000,000</tspan>
                </text>
            </g>
            <g id="Group-17" transform="translate(359.000000, 85.000000)" font-size="14">
                <text id="Memo" font-family="Roboto-Medium, Roboto" font-weight="400" letter-spacing="0.5" fill="#000000">
                    <tspan x="0" y="13">Memo</tspan>
                </text>
                <text id="Rebalance" font-family="Roboto-Regular, Roboto" font-weight="normal" letter-spacing="0.200000003" fill="#4F4F4F">
                    <tspan x="0" y="63">Rebalance</tspan>
                </text>
                <text id="Rebalance" font-family="Roboto-Regular, Roboto" font-weight="normal" letter-spacing="0.200000003" fill="#4F4F4F">
                    <tspan x="0" y="115">Rebalance</tspan>
                </text>
                <text id="Rebalance" font-family="Roboto-Regular, Roboto" font-weight="normal" letter-spacing="0.200000003" fill="#4F4F4F">
                    <tspan x="0" y="170">Rebalance</tspan>
                </text>
                <text id="Rebalance" font-family="Roboto-Regular, Roboto" font-weight="normal" letter-spacing="0.200000003" fill="#4F4F4F">
                    <tspan x="0" y="219">Rebalance</tspan>
                </text>
            </g>
            <g id="Group-25" transform="translate(855.000000, 85.000000)">
                <text id="Actions" font-family="Roboto-Medium, Roboto" font-size="14" font-weight="400" letter-spacing="0.5" fill="#000000">
                    <tspan x="31" y="13">Actions</tspan>
                </text>
                <rect id="Rectangle-Copy-7" stroke="#DCDCDC" fill="#FFFFFF" x="0.5" y="43.5" width="91" height="35" rx="4"></rect>
                <text id="View-Info" font-family="Roboto-Medium, Roboto" font-size="14" font-weight="400" fill="#4F4F4F">
                    <tspan x="17.1464844" y="66">View Info</tspan>
                </text>
                <rect id="Rectangle-Copy-7" stroke="#DCDCDC" fill="#FFFFFF" x="0.5" y="93.5" width="91" height="35" rx="4"></rect>
                <text id="View-Info" font-family="Roboto-Medium, Roboto" font-size="14" font-weight="400" fill="#4F4F4F">
                    <tspan x="17.1464844" y="116">View Info</tspan>
                </text>
                <rect id="Rectangle-Copy-7" stroke="#DCDCDC" fill="#FFFFFF" x="0.5" y="144.5" width="91" height="35" rx="4"></rect>
                <text id="View-Info" font-family="Roboto-Medium, Roboto" font-size="14" font-weight="400" fill="#4F4F4F">
                    <tspan x="17.1464844" y="167">View Info</tspan>
                </text>
                <rect id="Rectangle-Copy-7" stroke="#DCDCDC" fill="#FFFFFF" x="0.5" y="193.5" width="91" height="35" rx="4"></rect>
                <text id="View-Info" font-family="Roboto-Medium, Roboto" font-size="14" font-weight="400" fill="#4F4F4F">
                    <tspan x="17.1464844" y="216">View Info</tspan>
                </text>
            </g>
            <line x1="1" y1="120.274378" x2="966.314894" y2="120.274378" id="Line-2" stroke="#E1E1E1" stroke-linecap="square"></line>
            <line x1="1" y1="170.429979" x2="966.314894" y2="170.429979" id="Line-2" stroke="#E1E1E1" stroke-linecap="square"></line>
            <line x1="1" y1="222.591805" x2="966.314894" y2="222.591805" id="Line-2" stroke="#E1E1E1" stroke-linecap="square"></line>
            <line x1="1" y1="271.744295" x2="966.314894" y2="271.744295" id="Line-2" stroke="#E1E1E1" stroke-linecap="square"></line>
            <line x1="1" y1="320" x2="966.314894" y2="320" id="Line-2" stroke="#E1E1E1" stroke-linecap="square"></line>
            <path d="M13.7499744,40.5000143 C13.8874862,40.5000143 13.9999738,40.612503 13.9999738,40.7500149 L13.9999738,41.2500137 C13.9999738,41.3875256 13.8874862,41.5000143 13.7499744,41.5000143 L6.24999225,41.5000143 C6.11248037,41.5000143 5.99999285,41.3875256 5.99999285,41.2500137 L5.99999285,40.7500149 C5.99999285,40.612503 6.11248037,40.5000143 6.24999225,40.5000143 L13.7499744,40.5000143 Z M13.7499744,43.5000072 C13.8874862,43.5000072 13.9999738,43.6124959 13.9999738,43.7500077 L13.9999738,44.2500066 C13.9999738,44.3875184 13.8874862,44.5000072 13.7499744,44.5000072 L6.24999225,44.5000072 C6.11248037,44.5000072 5.99999285,44.3875184 5.99999285,44.2500066 L5.99999285,43.7500077 C5.99999285,43.6124959 6.11248037,43.5000072 6.24999225,43.5000072 L13.7499744,43.5000072 Z M16.0655816,33.0000334 C16.5530988,33.0000334 16.9999666,33.3906574 16.996886,33.9344184 L16.996886,48.0687536 C16.996886,48.61874 16.5499555,48.9999952 16.0655816,48.9999952 C15.8812254,48.9999952 15.6937258,48.9437515 15.524964,48.8218646 L14.1655923,47.843748 L12.9593574,48.7124898 C12.6968458,48.9031327 12.3906026,48.9968824 12.0843594,48.9968824 C11.7781163,48.9968824 11.4687298,48.8999894 11.2062182,48.7124898 L9.99998331,47.843748 L8.79374839,48.7124898 C8.53123681,48.9031327 8.22499365,48.9968824 7.91875048,48.9968824 C7.60936401,48.9968824 7.30312084,48.8999894 7.04060926,48.7124898 L5.83437435,47.843748 L4.47500259,48.8218646 C4.303128,48.9437515 4.11562844,48.9999952 3.93438498,48.9999952 C3.44686783,48.9999952 3,48.6093712 3,48.0687536 L3,33.9344184 C3,33.3844014 3.45001113,33.0031462 3.93438498,33.0000334 C4.11874123,33.0000334 4.30624078,33.0562771 4.47500259,33.1781641 L5.83437435,34.1562806 L7.04060926,33.2875388 C7.30312084,33.0968959 7.60936401,33.0031462 7.91560718,33.0031462 C8.22185034,33.0031462 8.53123681,33.1000392 8.79374839,33.2875388 L9.99998331,34.1562806 L11.2062182,33.2875388 C11.4687298,33.0968959 11.774973,33.0031462 12.0812161,33.0031462 C12.3906026,33.0031462 12.6968458,33.1000392 12.9593574,33.2875388 L14.1655923,34.1562806 L15.524964,33.1781641 C15.6968386,33.0562771 15.8843382,33.0000334 16.0655816,33.0000334 Z M15.999969,47.9312417 L15.999969,34.0687869 L14.749972,34.9687787 L14.1687356,35.3906527 L13.5843559,34.9687787 L12.3780904,34.1031496 C12.2905967,34.0406498 12.1905909,34.0062871 12.0843594,34.0062871 C11.9780975,34.0062871 11.8780916,34.037537 11.7905979,34.1000369 L10.584363,34.9687787 L9.99998331,35.3906527 L9.4156036,34.9687787 L8.20936868,34.1031496 C8.121875,34.0406498 8.02186913,34.0062871 7.91560718,34.0062871 C7.81248853,34.0062871 7.71248266,34.037537 7.62498897,34.1000369 L6.41875406,34.9687787 L5.83437435,35.3906527 L5.24999464,34.9687787 L3.99999762,34.0687869 L3.99999762,47.9500099 L5.24999464,47.0312499 L5.83123104,46.6093759 L6.41561075,47.0312499 L7.62187619,47.896879 C7.70936988,47.9593788 7.80937574,47.9937415 7.91560718,47.9937415 C8.02186913,47.9937415 8.121875,47.9624916 8.20936868,47.8999918 L9.4156036,47.0312499 L9.99998331,46.6093759 L10.584363,47.0312499 L11.7905979,47.896879 C11.8780916,47.9593788 11.9780975,47.9937415 12.0843594,47.9937415 C12.1874781,47.9937415 12.287484,47.9624916 12.3749776,47.8999918 L13.5812126,47.0312499 L14.1655923,46.6093759 L14.749972,47.0312499 L15.999969,47.9312417 Z M13.7499744,37.5000215 C13.8874862,37.5000215 13.9999738,37.6125102 13.9999738,37.7500221 L13.9999738,38.2500209 C13.9999738,38.3875327 13.8874862,38.5000215 13.7499744,38.5000215 L6.24999225,38.5000215 C6.11248037,38.5000215 5.99999285,38.3875327 5.99999285,38.2500209 L5.99999285,37.7500221 C5.99999285,37.6125102 6.11248037,37.5000215 6.24999225,37.5000215 L13.7499744,37.5000215 Z" id="r" fill="#84979E" fill-rule="nonzero"></path>
            <g id="Group-33" transform="translate(617.000000, 340.000000)" fill="#4F4F4F" font-size="14" font-weight="normal" letter-spacing="0.200000003">
                <text id="Rows-per-page:-10-ca" font-family="Roboto-Regular, Roboto">
                    <tspan x="0" y="13">Rows per page: 10  </tspan>
                    <tspan x="125.336133" y="13" font-family="FontAwesome5Pro-Solid, Font Awesome 5 Pro" font-weight="700">caret-down</tspan>
                </text>
                <text id="1-4-of-4" font-family="Roboto-Regular, Roboto">
                    <tspan x="188" y="13">1-4 of 4</tspan>
                </text>
                <text id="angle-right" font-family="FontAwesome5Pro-Regular, Font Awesome 5 Pro">
                    <tspan x="322" y="13">angle-right</tspan>
                </text>
                <text id="angle-left" font-family="FontAwesome5Pro-Regular, Font Awesome 5 Pro">
                    <tspan x="286" y="13">angle-left</tspan>
                </text>
            </g>
            <g id="Group-13" transform="translate(685.000000, 0.000000)">
                <g id="Group-7" transform="translate(0.000000, 22.000000)">
                    <text id="Filter" font-family="Roboto-Regular, Roboto" font-size="15" font-weight="normal" fill="#444444">
                        <tspan x="1.13686838e-13" y="14">Filter</tspan>
                    </text>
                    <rect id="Rectangle" stroke="#979797" fill="#D8D8D8" x="0.5" y="24.5" width="276" height="1"></rect>
                </g>
                <text id="Amount" opacity="0" font-family="Roboto-Regular, Roboto" font-size="12" font-weight="normal" fill="#5E4EA5">
                    <tspan x="0" y="11">Amount</tspan>
                </text>
            </g>
        </g>
    </g>
</svg>