<?xml version="1.0" encoding="UTF-8"?>
<svg width="1284px" height="724px" viewBox="0 0 1284 724" version="1.1" xmlns="http://www.w3.org/2000/svg" xmlns:xlink="http://www.w3.org/1999/xlink">
    <!-- Generator: Sketch 57.1 (83088) - https://sketch.com -->
    <title>02_Onchain_Send_L</title>
    <desc>Created with Sketch.</desc>
    <defs>
        <rect id="path-1" x="0" y="38" width="1284" height="53"></rect>
        <filter x="-0.8%" y="-15.1%" width="101.6%" height="137.7%" filterUnits="objectBoundingBox" id="filter-2">
            <feOffset dx="0" dy="2" in="SourceAlpha" result="shadowOffsetOuter1"></feOffset>
            <feGaussianBlur stdDeviation="3" in="shadowOffsetOuter1" result="shadowBlurOuter1"></feGaussianBlur>
            <feColorMatrix values="0 0 0 0 0   0 0 0 0 0   0 0 0 0 0  0 0 0 0.5 0" type="matrix" in="shadowBlurOuter1"></feColorMatrix>
        </filter>
        <rect id="path-3" x="0" y="0" width="105" height="36" rx="4"></rect>
        <filter x="-3.8%" y="-5.6%" width="107.6%" height="122.2%" filterUnits="objectBoundingBox" id="filter-4">
            <feOffset dx="0" dy="2" in="SourceAlpha" result="shadowOffsetOuter1"></feOffset>
            <feGaussianBlur stdDeviation="1" in="shadowOffsetOuter1" result="shadowBlurOuter1"></feGaussianBlur>
            <feColorMatrix values="0 0 0 0 0   0 0 0 0 0   0 0 0 0 0  0 0 0 0.257457386 0" type="matrix" in="shadowBlurOuter1"></feColorMatrix>
        </filter>
    </defs>
    <g id="02_Onchain_Send_L" stroke="none" stroke-width="1" fill="none" fill-rule="evenodd">
        <rect fill="#1D1E1F" x="0" y="0" width="1284" height="724"></rect>
        <rect id="Background" stroke="#979797" fill="#F2F5F6" x="0.5" y="38.5" width="1283" height="685"></rect>
        <g id="Group-4" transform="translate(0.000000, 91.000000)">
            <rect id="Rectangle" fill="#5E4EA5" x="0" y="0" width="1284" height="52"></rect>
            <text id="Dashboard" font-family="Roboto-Regular, Roboto" font-size="14" font-weight="normal" fill="#FFFFFF">
                <tspan x="23" y="32">Dashboard</tspan>
            </text>
            <text id="On-chain" font-family="Roboto-Bold, Roboto" font-size="14" font-weight="bold" fill="#FFFFFF">
                <tspan x="122" y="32">On-chain</tspan>
            </text>
            <text id="Advanced" font-family="Roboto-Regular, Roboto" font-size="14" font-weight="normal" fill="#FFFFFF">
                <tspan x="310" y="32">Advanced</tspan>
            </text>
            <text id="Help" font-family="Roboto-Regular, Roboto" font-size="14" font-weight="normal" fill="#FFFFFF">
                <tspan x="409" y="32">Help</tspan>
            </text>
            <text id="Lightning" font-family="Roboto-Regular, Roboto" font-size="14" font-weight="normal" fill="#FFFFFF">
                <tspan x="211" y="32">Lightning</tspan>
            </text>
            <g id="PubKey" transform="translate(1122.000000, 11.000000)">
                <rect id="Rectangle-Copy-7" fill="#7460C8" x="0" y="0" width="137" height="32" rx="16"></rect>
                <text id="Show-Public-Key" font-family="Roboto-Regular, Roboto" font-size="14" font-weight="normal" fill="#FFFFFF">
                    <tspan x="17.2338867" y="21">Show Public Key</tspan>
                </text>
            </g>
        </g>
        <g id="Rectangle-13">
            <use fill="black" fill-opacity="1" filter="url(#filter-2)" xlink:href="#path-1"></use>
            <use fill="#424242" fill-rule="evenodd" xlink:href="#path-1"></use>
        </g>
        <g id="Browser">
            <path d="M0,6.00024414 C0,2.68640081 2.6794487,0 5.99234946,0 L1278.00765,0 C1281.31713,0 1284,2.68722626 1284,6.00024414 L1284,38 L0,38 L0,6.00024414 Z" id="Tab-BG---Right" fill="#363738"></path>
            <circle id="Dot---Red" fill="#FF5F57" cx="18" cy="19" r="6"></circle>
            <circle id="Dot---Orange" fill="#FFBF2F" cx="38" cy="19" r="6"></circle>
            <circle id="Dot---Green" fill="#28CA42" cx="58" cy="19" r="6"></circle>
            <g id="Back" transform="translate(76.000000, 7.000000)">
                <rect id="Rectangle" fill="#656668" x="0" y="0" width="28" height="24" rx="4"></rect>
                <path d="M10.1607883,11.3246277 L15.780455,5.65901618 C15.9603839,5.47908726 16.2513057,5.47908726 16.4312347,5.65901618 L17.1891941,6.41697565 C17.3691231,6.59690457 17.3691231,6.88782642 17.1891941,7.06775535 L12.6528768,11.6500175 L17.1891941,16.2322797 C17.3691231,16.4122086 17.3691231,16.7031305 17.1891941,16.8830594 L16.4312347,17.6410189 C16.2513057,17.8209478 15.9603839,17.8209478 15.780455,17.6410189 L10.1607883,11.9754074 C9.98085942,11.7954785 9.98085942,11.5045566 10.1607883,11.3246277 Z" id="a" fill="#FFFFFF" fill-rule="nonzero"></path>
            </g>
            <g id="Forward" transform="translate(105.000000, 7.000000)">
                <rect id="Rectangle" fill="#656668" x="0" y="0" width="28" height="24" rx="4"></rect>
                <path d="M18.1891941,11.9754074 L12.5695275,17.6410189 C12.3895986,17.8209478 12.0986767,17.8209478 11.9187478,17.6410189 L11.1607883,16.8830594 C10.9808594,16.7031305 10.9808594,16.4122086 11.1607883,16.2322797 L15.6971057,11.6500175 L11.1607883,7.06775535 C10.9808594,6.88782642 10.9808594,6.59690457 11.1607883,6.41697565 L11.9187478,5.65901618 C12.0986767,5.47908726 12.3895986,5.47908726 12.5695275,5.65901618 L18.1891941,11.3246277 C18.3691231,11.5045566 18.3691231,11.7954785 18.1891941,11.9754074 Z" id="a" fill="#FFFFFF" fill-rule="nonzero" opacity="0.200334821"></path>
            </g>
            <g id="New-Tab" transform="translate(1260.000000, 14.000000)">
                <rect id="Rectangle" fill="#292A2B" x="0" y="0" width="24" height="24"></rect>
                <path d="M16.2531029,11.6843877 C16.3618742,11.6843877 16.4499775,11.7724909 16.4499775,11.8812622 L16.4499775,12.6687603 C16.4499775,12.7775316 16.3618742,12.8656349 16.2531029,12.8656349 L12.3156123,12.8656349 L12.3156123,16.8031255 C12.3156123,16.9118967 12.2275091,17 12.1187378,17 L11.3312397,17 C11.2224684,17 11.1343651,16.9118967 11.1343651,16.8031255 L11.1343651,12.8656349 L7.19687453,12.8656349 C7.08810328,12.8656349 7,12.7775316 7,12.6687603 L7,11.8812622 C7,11.7724909 7.08810328,11.6843877 7.19687453,11.6843877 L11.1343651,11.6843877 L11.1343651,7.74689706 C11.1343651,7.63812581 11.2224684,7.55002253 11.3312397,7.55002253 L12.1187378,7.55002253 C12.2275091,7.55002253 12.3156123,7.63812581 12.3156123,7.74689706 L12.3156123,11.6843877 L16.2531029,11.6843877 Z" id="p" fill="#FFFFFF" fill-rule="nonzero" opacity="0.497907366"></path>
            </g>
            <g id="URL" transform="translate(378.000000, 7.000000)">
                <path d="M0,3.99005301 C0,1.78640758 1.78094395,5.31029755e-14 3.99753941,5.28693238e-14 L516.002461,-1.1012102e-15 C518.210241,-1.33393271e-15 520,1.78429328 520,3.99005301 L520,20.009947 C520,22.2135924 518.219056,24 516.002461,24 L3.99753941,24 C1.78975936,24 0,22.2157067 0,20.009947 L0,3.99005301 Z" id="URL-Bar" fill="#696A6B"></path>
                <path d="M512.304658,5.17186422 C512.467743,5.17186422 512.59997,5.30412783 512.59997,5.46721261 L512.59997,10.1922013 C512.59997,10.3552861 512.467743,10.4875131 512.304658,10.4875131 L507.579669,10.4875131 C507.416585,10.4875131 507.284358,10.3552861 507.284358,10.1922013 L507.284358,9.51027815 C507.284358,9.34440559 507.42091,9.21109712 507.586711,9.21503845 L510.69705,9.2890827 C509.940722,7.61516854 508.257531,6.45158527 506.299985,6.45158527 C503.633864,6.45158527 501.476559,8.60927437 501.476559,11.2750113 C501.476559,13.9411327 503.634248,16.0984373 506.299985,16.0984373 C507.533046,16.0984373 508.65724,15.6369165 509.509554,14.8770557 C509.6264,14.7728747 509.804938,14.7799403 509.915632,14.8906341 L510.401377,15.3763797 C510.521276,15.4962781 510.51534,15.6917347 510.389505,15.8053845 C509.307296,16.7829079 507.873155,17.3781217 506.299985,17.3781217 C502.93257,17.3781217 500.202138,14.6509336 500.19686,11.2847685 C500.191635,7.92836054 502.924087,5.18242707 506.280471,5.17186422 C508.411171,5.16526784 510.288545,6.2506252 511.385221,7.89993005 L511.327471,5.47425415 C511.32353,5.30842965 511.456862,5.17186422 511.622711,5.17186422 L512.304658,5.17186422 Z" id="r" fill="#FFFFFF" fill-rule="nonzero" transform="translate(506.398415, 11.274993) rotate(-45.000000) translate(-506.398415, -11.274993) "></path>
                <text id="Ride-the-Lightning" font-family="Roboto-Regular, Roboto" font-size="12.6" font-weight="normal" fill="#FFFFFF">
                    <tspan x="210" y="17">Ride the Lightning</tspan>
                </text>
            </g>
        </g>
        <g id="Group-13" transform="translate(23.000000, 57.000000)">
            <g id="Group-6">
                <g id="Group-3">
                    <circle id="Oval" fill="#28CA42" cx="5" cy="8" r="5"></circle>
                    <text id="NODE:-AMORA_[UK01]" font-family="Roboto-Medium, Roboto" font-size="14" font-weight="400" letter-spacing="1.20000005" fill="#FFFFFF">
                        <tspan x="16.2556636" y="13">NODE: AMORA_[UK01]</tspan>
                    </text>
                </g>
                <rect id="Rectangle-3" fill="#FFFFFF" x="0" y="32" width="179" height="2"></rect>
            </g>
            <g id="Group-2" transform="translate(203.000000, 0.000000)">
                <circle id="Oval" fill="#28CA42" cx="5" cy="8" r="5"></circle>
                <text id="NODE:-AMORA_[UK02]" font-family="Roboto-Medium, Roboto" font-size="14" font-weight="400" letter-spacing="1.20000005" fill="#FFFFFF">
                    <tspan x="16.7556636" y="13">NODE: AMORA_[UK02]</tspan>
                </text>
            </g>
        </g>
        <path d="M29.1277704,198.5 C27.5776195,198.5 26.9405781,198.623018 26.282108,198.975172 C25.7173904,199.277186 25.2771863,199.71739 24.975172,200.282108 C24.6230184,200.940578 24.5,201.57762 24.5,203.12777 L24.5,466.87223 C24.5,468.42238 24.6230184,469.059422 24.975172,469.717892 C25.2771863,470.28261 25.7173904,470.722814 26.282108,471.024828 C26.9405781,471.376982 27.5776195,471.5 29.1277704,471.5 L936.87223,471.5 C938.42238,471.5 939.059422,471.376982 939.717892,471.024828 C940.28261,470.722814 940.722814,470.28261 941.024828,469.717892 C941.376982,469.059422 941.5,468.42238 941.5,466.87223 L941.5,203.12777 C941.5,201.57762 941.376982,200.940578 941.024828,200.282108 C940.722814,199.71739 940.28261,199.277186 939.717892,198.975172 C939.059422,198.623018 938.42238,198.5 936.87223,198.5 L29.1277704,198.5 Z" id="Rectangle" stroke="#DEDEDE" fill="#FFFFFF"></path>
        <path d="M182,246.5 L942,246.5" id="Line" stroke="#D7D7D7" stroke-linecap="square"></path>
        <rect id="Rectangle" fill="#5E4EA5" x="24" y="245" width="160" height="2"></rect>
        <rect id="Rectangle" fill="#59316B" opacity="0" x="184" y="245" width="160" height="2"></rect>
        <rect id="Rectangle" fill="#59316B" opacity="0" x="344" y="245" width="160" height="2"></rect>
        <text id="Send" font-family="Roboto-Medium, Roboto" font-size="14" font-weight="400" fill="#5E4EA5">
            <tspan x="88.1748047" y="228">Send</tspan>
        </text>
        <text id="Receive" font-family="Roboto-Regular, Roboto" font-size="14" font-weight="normal" fill="#979797">
            <tspan x="239.811035" y="228">Receive</tspan>
        </text>
        <text id="Cashout" font-family="Roboto-Regular, Roboto" font-size="14" font-weight="normal" fill="#979797">
            <tspan x="398.033691" y="228">Cashout</tspan>
        </text>
        <g id="Group-10" transform="translate(347.000000, 363.000000)">
            <text id="Number-of-Blocks" font-family="Roboto-Regular, Roboto" font-size="15" font-weight="normal" fill="#444444">
                <tspan x="0" y="14">Number of Blocks</tspan>
            </text>
            <rect id="Rectangle" stroke="#979797" fill="#D8D8D8" x="0.5" y="24.5" width="197" height="1"></rect>
        </g>
        <g id="Group-14" transform="translate(572.000000, 270.000000)">
            <text id="Amount" font-family="Roboto-Regular, Roboto" font-size="15" font-weight="normal" fill="#444444">
                <tspan x="0" y="36">Amount</tspan>
            </text>
            <rect id="Rectangle" stroke="#979797" fill="#D8D8D8" x="0.5" y="46.5" width="196.171548" height="1"></rect>
            <text id="Amount" opacity="0" font-family="Roboto-Regular, Roboto" font-size="12" font-weight="normal" fill="#5E4EA5">
                <tspan x="1.27897692e-13" y="11">Amount</tspan>
            </text>
        </g>
        <g id="Group-12" transform="translate(48.000000, 270.000000)">
            <g id="Group-7" transform="translate(0.000000, 22.000000)">
                <text id="Bitcoin-Address" font-family="Roboto-Regular, Roboto" font-size="15" font-weight="normal" fill="#444444">
                    <tspan x="1.42108547e-13" y="14">Bitcoin Address</tspan>
                </text>
                <rect id="Rectangle" stroke="#979797" fill="#D8D8D8" x="0.5" y="24.5" width="499" height="1"></rect>
            </g>
            <text id="Amount" opacity="0" font-family="Roboto-Regular, Roboto" font-size="12" font-weight="normal" fill="#5E4EA5">
                <tspan x="0" y="11">Amount</tspan>
            </text>
        </g>
        <g id="Group-8" transform="translate(49.000000, 412.000000)">
            <g id="Rectangle-Copy-7">
                <use fill="black" fill-opacity="1" filter="url(#filter-4)" xlink:href="#path-3"></use>
                <use fill="#5E4EA5" fill-rule="evenodd" xlink:href="#path-3"></use>
            </g>
            <text id="Send-Funds" font-family="Roboto-Medium, Roboto" font-size="14" font-weight="400" fill="#FFFFFF">
                <tspan x="16.3149414" y="23">Send Funds</tspan>
            </text>
        </g>
        <g id="Group-5" transform="translate(168.000000, 412.000000)">
            <rect id="Rectangle-Copy-7" stroke="#DCDCDC" fill="#FFFFFF" x="0.5" y="0.5" width="104" height="35" rx="4"></rect>
            <text id="Clear-Fields" font-family="Roboto-Medium, Roboto" font-size="14" font-weight="400" fill="#4F4F4F">
                <tspan x="16.1542969" y="23">Clear Fields</tspan>
            </text>
        </g>
        <g id="Group-11" transform="translate(48.000000, 341.000000)">
            <g id="Group-9" transform="translate(0.000000, 24.000000)">
                <path d="M8.60595703,2.49316406 L5.17822266,2.49316406 L5.17822266,12 L3.77929688,12 L3.77929688,2.49316406 L0.358886719,2.49316406 L0.358886719,1.3359375 L8.60595703,1.3359375 L8.60595703,2.49316406 Z M14.0405273,12 C13.962402,11.8437492 13.898926,11.5654317 13.8500977,11.1650391 C13.2202117,11.8193392 12.4682661,12.1464844 11.5942383,12.1464844 C10.8129844,12.1464844 10.1721216,11.9255393 9.67163086,11.4836426 C9.17114008,11.0417458 8.92089844,10.4814487 8.92089844,9.80273438 C8.92089844,8.97753494 9.234616,8.3366722 9.86206055,7.88012695 C10.4895051,7.4235817 11.3720646,7.1953125 12.5097656,7.1953125 L13.828125,7.1953125 L13.828125,6.57275391 C13.828125,6.09911873 13.6865249,5.72192523 13.4033203,5.44116211 C13.1201158,5.16039899 12.7026395,5.02001953 12.1508789,5.02001953 C11.6674781,5.02001953 11.2622087,5.14208862 10.9350586,5.38623047 C10.6079085,5.63037231 10.4443359,5.92577952 10.4443359,6.27246094 L9.08203125,6.27246094 C9.08203125,5.87695115 9.22241071,5.49487489 9.50317383,5.1262207 C9.78393695,4.75756652 10.1647925,4.46582139 10.645752,4.25097656 C11.1267114,4.03613174 11.6552706,3.92871094 12.2314453,3.92871094 C13.1445358,3.92871094 13.8598607,4.15698014 14.3774414,4.61352539 C14.8950221,5.07007064 15.1635741,5.69872646 15.1831055,6.49951172 L15.1831055,10.1469727 C15.1831055,10.8745154 15.275878,11.4531229 15.4614258,11.8828125 L15.4614258,12 L14.0405273,12 Z M11.7919922,10.9672852 C12.216799,10.9672852 12.619627,10.857423 13.0004883,10.6376953 C13.3813496,10.4179677 13.6572257,10.132326 13.828125,9.78076172 L13.828125,8.15478516 L12.7661133,8.15478516 C11.1059487,8.15478516 10.2758789,8.64062014 10.2758789,9.61230469 C10.2758789,10.0371115 10.4174791,10.3691394 10.7006836,10.6083984 C10.9838881,10.8476574 11.347654,10.9672852 11.7919922,10.9672852 Z M21.1376953,5.29101562 C20.9326162,5.25683577 20.7104504,5.23974609 20.4711914,5.23974609 C19.5825151,5.23974609 18.9794938,5.61816028 18.6621094,6.375 L18.6621094,12 L17.3071289,12 L17.3071289,4.07519531 L18.6254883,4.07519531 L18.6474609,4.99072266 C19.0917991,4.2827113 19.7216756,3.92871094 20.5371094,3.92871094 C20.8007826,3.92871094 21.0009759,3.96289028 21.1376953,4.03125 L21.1376953,5.29101562 Z M21.9213867,7.97167969 C21.9213867,6.73632195 22.2070284,5.75366576 22.7783203,5.02368164 C23.3496122,4.29369752 24.1064406,3.92871094 25.0488281,3.92871094 C26.0156298,3.92871094 26.7700168,4.27050439 27.3120117,4.95410156 L27.3779297,4.07519531 L28.6157227,4.07519531 L28.6157227,11.8095703 C28.6157227,12.8349661 28.3117706,13.6430635 27.7038574,14.2338867 C27.0959442,14.82471 26.279302,15.1201172 25.2539062,15.1201172 C24.6826143,15.1201172 24.1235379,14.9980481 23.5766602,14.7539062 C23.0297824,14.5097644 22.6123061,14.1752951 22.3242188,13.7504883 L23.0273438,12.9375 C23.6084013,13.655277 24.3188435,14.0141602 25.1586914,14.0141602 C25.8178744,14.0141602 26.3317853,13.8286151 26.7004395,13.4575195 C27.0690936,13.0864239 27.253418,12.5639682 27.253418,11.8901367 L27.253418,11.2089844 C26.7114231,11.8339875 25.9716844,12.1464844 25.0341797,12.1464844 C24.1064407,12.1464844 23.3557158,11.772953 22.7819824,11.0258789 C22.2082491,10.2788049 21.9213867,9.26074863 21.9213867,7.97167969 Z M23.2836914,8.12548828 C23.2836914,9.01904744 23.466795,9.72094471 23.8330078,10.2312012 C24.1992206,10.7414576 24.7119108,10.996582 25.3710938,10.996582 C26.2255902,10.996582 26.8530253,10.6084023 27.253418,9.83203125 L27.253418,6.21386719 C26.8383768,5.45702747 26.2158245,5.07861328 25.3857422,5.07861328 C24.7265592,5.07861328 24.2114276,5.33495837 23.840332,5.84765625 C23.4692364,6.36035413 23.2836914,7.11962388 23.2836914,8.12548828 Z M33.9477539,12.1464844 C32.8735298,12.1464844 31.9995151,11.7937047 31.3256836,11.0881348 C30.6518521,10.3825648 30.3149414,9.43897075 30.3149414,8.25732422 L30.3149414,8.00830078 C30.3149414,7.22216404 30.4650864,6.52026676 30.7653809,5.90258789 C31.0656753,5.28490902 31.485593,4.80151542 32.0251465,4.45239258 C32.5647,4.10326974 33.1494109,3.92871094 33.7792969,3.92871094 C34.8095755,3.92871094 35.6103487,4.26806301 36.1816406,4.94677734 C36.7529325,5.62549167 37.0385742,6.59716165 37.0385742,7.86181641 L37.0385742,8.42578125 L31.6699219,8.42578125 C31.6894532,9.20703516 31.9177224,9.83813236 32.3547363,10.3190918 C32.7917502,10.8000512 33.3471646,11.0405273 34.0209961,11.0405273 C34.4995141,11.0405273 34.9047835,10.9428721 35.2368164,10.7475586 C35.5688493,10.5522451 35.8593738,10.2934586 36.1083984,9.97119141 L36.9360352,10.6157227 C36.2719693,11.6362356 35.2758855,12.1464844 33.9477539,12.1464844 Z M33.7792969,5.04199219 C33.2324191,5.04199219 32.7734394,5.24096481 32.4023438,5.63891602 C32.0312481,6.03686722 31.8017583,6.59472297 31.7138672,7.3125 L35.6835938,7.3125 L35.6835938,7.20996094 C35.6445311,6.52148093 35.458986,5.988039 35.1269531,5.60961914 C34.7949202,5.23119928 34.345706,5.04199219 33.7792969,5.04199219 Z M40.4443359,2.15625 L40.4443359,4.07519531 L41.9238281,4.07519531 L41.9238281,5.12255859 L40.4443359,5.12255859 L40.4443359,10.0371094 C40.4443359,10.3544938 40.5102532,10.5925285 40.6420898,10.7512207 C40.7739264,10.9099129 40.9985336,10.9892578 41.315918,10.9892578 C41.4721688,10.9892578 41.6870104,10.9599612 41.9604492,10.9013672 L41.9604492,12 C41.6040021,12.0976567 41.2573259,12.1464844 40.9204102,12.1464844 C40.3149384,12.1464844 39.8584,11.9633807 39.5507812,11.597168 C39.2431625,11.2309552 39.0893555,10.7109409 39.0893555,10.0371094 L39.0893555,5.12255859 L37.6464844,5.12255859 L37.6464844,4.07519531 L39.0893555,4.07519531 L39.0893555,2.15625 L40.4443359,2.15625 Z M55.2758789,8.61621094 C55.1440423,9.74414626 54.7277867,10.6144989 54.0270996,11.2272949 C53.3264125,11.840091 52.3950253,12.1464844 51.2329102,12.1464844 C49.9731382,12.1464844 48.9636268,11.6948287 48.2043457,10.7915039 C47.4450646,9.88817908 47.0654297,8.67969507 47.0654297,7.16601562 L47.0654297,6.140625 C47.0654297,5.14940911 47.2424299,4.27783579 47.5964355,3.52587891 C47.9504412,2.77392202 48.4521452,2.19653522 49.1015625,1.79370117 C49.7509798,1.39086713 50.5029254,1.18945312 51.3574219,1.18945312 C52.49024,1.18945312 53.3984341,1.50561207 54.0820312,2.13793945 C54.7656284,2.77026683 55.1635737,3.64550222 55.2758789,4.76367188 L53.8623047,4.76367188 C53.7402338,3.91405825 53.4753438,3.29883003 53.067627,2.91796875 C52.6599101,2.53710747 52.0898474,2.34667969 51.3574219,2.34667969 C50.4589799,2.34667969 49.7546412,2.67870762 49.2443848,3.34277344 C48.7341283,4.00683926 48.4790039,4.95165403 48.4790039,6.17724609 L48.4790039,7.20996094 C48.4790039,8.36719329 48.7207007,9.28759424 49.2041016,9.97119141 C49.6875024,10.6547886 50.3637652,10.996582 51.2329102,10.996582 C52.0141641,10.996582 52.6135233,10.8195818 53.0310059,10.4655762 C53.4484884,10.1115705 53.7255853,9.49512158 53.8623047,8.61621094 L55.2758789,8.61621094 Z M56.6235352,7.96435547 C56.6235352,7.1879844 56.7761215,6.48974919 57.0812988,5.86962891 C57.3864761,5.24950862 57.8112766,4.77099778 58.3557129,4.43408203 C58.9001492,4.09716628 59.5214809,3.92871094 60.2197266,3.92871094 C61.2988335,3.92871094 62.1716275,4.30224236 62.8381348,5.04931641 C63.504642,5.79639045 63.8378906,6.79003286 63.8378906,8.03027344 L63.8378906,8.12548828 C63.8378906,8.89697651 63.690187,9.58910826 63.3947754,10.2019043 C63.0993638,10.8147003 62.6770047,11.2919905 62.1276855,11.6337891 C61.5783664,11.9755876 60.9472692,12.1464844 60.234375,12.1464844 C59.1601509,12.1464844 58.2897983,11.772953 57.623291,11.0258789 C56.9567838,10.2788049 56.6235352,9.29004521 56.6235352,8.05957031 L56.6235352,7.96435547 Z M57.9858398,8.12548828 C57.9858398,9.00439893 58.1896952,9.70995828 58.5974121,10.2421875 C59.005129,10.7744167 59.5507778,11.0405273 60.234375,11.0405273 C60.922855,11.0405273 61.4697245,10.7707547 61.875,10.2312012 C62.2802755,9.69164769 62.4829102,8.93604001 62.4829102,7.96435547 C62.4829102,7.0952105 62.2766134,6.39087184 61.8640137,5.85131836 C61.451414,5.31176488 60.9033237,5.04199219 60.2197266,5.04199219 C59.5507779,5.04199219 59.0112325,5.30810281 58.6010742,5.84033203 C58.1909159,6.37256125 57.9858398,7.13427239 57.9858398,8.12548828 Z M66.8188477,4.07519531 L66.862793,5.07128906 C67.4682647,4.3095665 68.2592725,3.92871094 69.2358398,3.92871094 C70.9106529,3.92871094 71.755371,4.87352571 71.7700195,6.76318359 L71.7700195,12 L70.4150391,12 L70.4150391,6.75585938 C70.4101562,6.18456746 70.2795423,5.7622084 70.0231934,5.48876953 C69.7668444,5.21533066 69.3676785,5.07861328 68.8256836,5.07861328 C68.3862283,5.07861328 68.0004899,5.19579961 67.668457,5.43017578 C67.3364241,5.66455195 67.0776376,5.97216606 66.8920898,6.35302734 L66.8920898,12 L65.5371094,12 L65.5371094,4.07519531 L66.8188477,4.07519531 Z M74.2675781,12 L74.2675781,5.12255859 L73.0151367,5.12255859 L73.0151367,4.07519531 L74.2675781,4.07519531 L74.2675781,3.40136719 C74.2675781,2.51757371 74.5202611,1.82910403 75.0256348,1.3359375 C75.5310084,0.842770972 76.2451126,0.596191406 77.1679688,0.596191406 C77.7148465,0.596191406 78.4057575,0.745115698 79.2407227,1.04296875 L79.0136719,2.18554688 C78.4033173,1.94140503 77.8222684,1.81933594 77.2705078,1.81933594 C76.6894502,1.81933594 76.2707532,1.94994987 76.0144043,2.21118164 C75.7580554,2.47241342 75.6298828,2.8642552 75.6298828,3.38671875 L75.6298828,4.07519531 L77.2485352,4.07519531 L77.2485352,5.12255859 L75.6298828,5.12255859 L75.6298828,12 L74.2675781,12 Z M79.9145508,12 L78.5522461,12 L78.5522461,4.07519531 L79.9145508,4.07519531 L79.9145508,12 Z M85.949707,5.29101562 C85.7446279,5.25683577 85.5224621,5.23974609 85.2832031,5.23974609 C84.3945268,5.23974609 83.7915055,5.61816028 83.4741211,6.375 L83.4741211,12 L82.1191406,12 L82.1191406,4.07519531 L83.4375,4.07519531 L83.4594727,4.99072266 C83.9038108,4.2827113 84.5336873,3.92871094 85.3491211,3.92871094 C85.6127943,3.92871094 85.8129876,3.96289028 85.949707,4.03125 L85.949707,5.29101562 Z M88.4692383,4.07519531 L88.5058594,4.95410156 C89.086917,4.27050439 89.8706005,3.92871094 90.8569336,3.92871094 C91.9653376,3.92871094 92.7197246,4.35351138 93.1201172,5.203125 C93.3837904,4.82226372 93.7268045,4.51464961 94.1491699,4.28027344 C94.5715353,4.04589727 95.0707979,3.92871094 95.6469727,3.92871094 C97.3852626,3.92871094 98.2690428,4.84911189 98.2983398,6.68994141 L98.2983398,12 L96.9433594,12 L96.9433594,6.77050781 C96.9433594,6.20409873 96.8139661,5.78051898 96.5551758,5.49975586 C96.2963854,5.21899274 95.8618195,5.07861328 95.2514648,5.07861328 C94.7485326,5.07861328 94.3310563,5.22875826 93.9990234,5.52905273 C93.6669905,5.8293472 93.4741214,6.2333959 93.4204102,6.74121094 L93.4204102,12 L92.0581055,12 L92.0581055,6.80712891 C92.0581055,5.65477939 91.4941463,5.07861328 90.3662109,5.07861328 C89.4775346,5.07861328 88.8696305,5.45702747 88.5424805,6.21386719 L88.5424805,12 L87.1875,12 L87.1875,4.07519531 L88.4692383,4.07519531 Z M105.234375,12 C105.15625,11.8437492 105.092774,11.5654317 105.043945,11.1650391 C104.414059,11.8193392 103.662114,12.1464844 102.788086,12.1464844 C102.006832,12.1464844 101.365969,11.9255393 100.865479,11.4836426 C100.364988,11.0417458 100.114746,10.4814487 100.114746,9.80273438 C100.114746,8.97753494 100.428464,8.3366722 101.055908,7.88012695 C101.683353,7.4235817 102.565912,7.1953125 103.703613,7.1953125 L105.021973,7.1953125 L105.021973,6.57275391 C105.021973,6.09911873 104.880373,5.72192523 104.597168,5.44116211 C104.313963,5.16039899 103.896487,5.02001953 103.344727,5.02001953 C102.861326,5.02001953 102.456056,5.14208862 102.128906,5.38623047 C101.801756,5.63037231 101.638184,5.92577952 101.638184,6.27246094 L100.275879,6.27246094 C100.275879,5.87695115 100.416258,5.49487489 100.697021,5.1262207 C100.977785,4.75756652 101.35864,4.46582139 101.8396,4.25097656 C102.320559,4.03613174 102.849118,3.92871094 103.425293,3.92871094 C104.338383,3.92871094 105.053708,4.15698014 105.571289,4.61352539 C106.08887,5.07007064 106.357422,5.69872646 106.376953,6.49951172 L106.376953,10.1469727 C106.376953,10.8745154 106.469726,11.4531229 106.655273,11.8828125 L106.655273,12 L105.234375,12 Z M102.98584,10.9672852 C103.410647,10.9672852 103.813475,10.857423 104.194336,10.6376953 C104.575197,10.4179677 104.851073,10.132326 105.021973,9.78076172 L105.021973,8.15478516 L103.959961,8.15478516 C102.299796,8.15478516 101.469727,8.64062014 101.469727,9.61230469 C101.469727,10.0371115 101.611327,10.3691394 101.894531,10.6083984 C102.177736,10.8476574 102.541502,10.9672852 102.98584,10.9672852 Z M110.339355,2.15625 L110.339355,4.07519531 L111.818848,4.07519531 L111.818848,5.12255859 L110.339355,5.12255859 L110.339355,10.0371094 C110.339355,10.3544938 110.405273,10.5925285 110.537109,10.7512207 C110.668946,10.9099129 110.893553,10.9892578 111.210938,10.9892578 C111.367188,10.9892578 111.58203,10.9599612 111.855469,10.9013672 L111.855469,12 C111.499022,12.0976567 111.152345,12.1464844 110.81543,12.1464844 C110.209958,12.1464844 109.75342,11.9633807 109.445801,11.597168 C109.138182,11.2309552 108.984375,10.7109409 108.984375,10.0371094 L108.984375,5.12255859 L107.541504,5.12255859 L107.541504,4.07519531 L108.984375,4.07519531 L108.984375,2.15625 L110.339355,2.15625 Z M114.873047,12 L113.518066,12 L113.518066,4.07519531 L114.873047,4.07519531 L114.873047,12 Z M113.408203,1.97314453 C113.408203,1.75341687 113.475341,1.56787185 113.609619,1.41650391 C113.743897,1.26513596 113.94287,1.18945312 114.206543,1.18945312 C114.470216,1.18945312 114.670409,1.26513596 114.807129,1.41650391 C114.943848,1.56787185 115.012207,1.75341687 115.012207,1.97314453 C115.012207,2.19287219 114.943848,2.37597583 114.807129,2.52246094 C114.670409,2.66894604 114.470216,2.7421875 114.206543,2.7421875 C113.94287,2.7421875 113.743897,2.66894604 113.609619,2.52246094 C113.475341,2.37597583 113.408203,2.19287219 113.408203,1.97314453 Z M116.682129,7.96435547 C116.682129,7.1879844 116.834715,6.48974919 117.139893,5.86962891 C117.44507,5.24950862 117.86987,4.77099778 118.414307,4.43408203 C118.958743,4.09716628 119.580075,3.92871094 120.27832,3.92871094 C121.357427,3.92871094 122.230221,4.30224236 122.896729,5.04931641 C123.563236,5.79639045 123.896484,6.79003286 123.896484,8.03027344 L123.896484,8.12548828 C123.896484,8.89697651 123.748781,9.58910826 123.453369,10.2019043 C123.157958,10.8147003 122.735598,11.2919905 122.186279,11.6337891 C121.63696,11.9755876 121.005863,12.1464844 120.292969,12.1464844 C119.218745,12.1464844 118.348392,11.772953 117.681885,11.0258789 C117.015378,10.2788049 116.682129,9.29004521 116.682129,8.05957031 L116.682129,7.96435547 Z M118.044434,8.12548828 C118.044434,9.00439893 118.248289,9.70995828 118.656006,10.2421875 C119.063723,10.7744167 119.609372,11.0405273 120.292969,11.0405273 C120.981449,11.0405273 121.528318,10.7707547 121.933594,10.2312012 C122.338869,9.69164769 122.541504,8.93604001 122.541504,7.96435547 C122.541504,7.0952105 122.335207,6.39087184 121.922607,5.85131836 C121.510008,5.31176488 120.961917,5.04199219 120.27832,5.04199219 C119.609372,5.04199219 119.069826,5.30810281 118.659668,5.84033203 C118.24951,6.37256125 118.044434,7.13427239 118.044434,8.12548828 Z M126.877441,4.07519531 L126.921387,5.07128906 C127.526858,4.3095665 128.317866,3.92871094 129.294434,3.92871094 C130.969247,3.92871094 131.813965,4.87352571 131.828613,6.76318359 L131.828613,12 L130.473633,12 L130.473633,6.75585938 C130.46875,6.18456746 130.338136,5.7622084 130.081787,5.48876953 C129.825438,5.21533066 129.426272,5.07861328 128.884277,5.07861328 C128.444822,5.07861328 128.059084,5.19579961 127.727051,5.43017578 C127.395018,5.66455195 127.136231,5.97216606 126.950684,6.35302734 L126.950684,12 L125.595703,12 L125.595703,4.07519531 L126.877441,4.07519531 Z M137.797852,12 L137.797852,1.3359375 L141.28418,1.3359375 C142.441412,1.3359375 143.311765,1.57519292 143.895264,2.05371094 C144.478763,2.53222896 144.770508,3.24022969 144.770508,4.17773438 C144.770508,4.67578374 144.628908,5.11645316 144.345703,5.49975586 C144.062499,5.88305856 143.67676,6.17968645 143.188477,6.38964844 C143.764651,6.55078206 144.219969,6.85717548 144.554443,7.30883789 C144.888918,7.76050031 145.056152,8.298825 145.056152,8.92382812 C145.056152,9.88086416 144.746097,10.6328098 144.125977,11.1796875 C143.505856,11.7265652 142.6294,12 141.496582,12 L137.797852,12 Z M139.204102,7.01220703 L139.204102,10.8500977 L141.525879,10.8500977 C142.180179,10.8500977 142.696531,10.6804216 143.074951,10.3410645 C143.453371,10.0017073 143.642578,9.53418267 143.642578,8.93847656 C143.642578,7.65429045 142.944343,7.01220703 141.547852,7.01220703 L139.204102,7.01220703 Z M139.204102,5.88427734 L141.328125,5.88427734 C141.943362,5.88427734 142.435301,5.73047029 142.803955,5.42285156 C143.172609,5.11523284 143.356934,4.69775654 143.356934,4.17041016 C143.356934,3.58446973 143.186037,3.1584486 142.844238,2.89233398 C142.50244,2.62621937 141.982425,2.49316406 141.28418,2.49316406 L139.204102,2.49316406 L139.204102,5.88427734 Z M148.395996,12 L147.041016,12 L147.041016,0.75 L148.395996,0.75 L148.395996,12 Z M150.205078,7.96435547 C150.205078,7.1879844 150.357664,6.48974919 150.662842,5.86962891 C150.968019,5.24950862 151.39282,4.77099778 151.937256,4.43408203 C152.481692,4.09716628 153.103024,3.92871094 153.80127,3.92871094 C154.880376,3.92871094 155.75317,4.30224236 156.419678,5.04931641 C157.086185,5.79639045 157.419434,6.79003286 157.419434,8.03027344 L157.419434,8.12548828 C157.419434,8.89697651 157.27173,9.58910826 156.976318,10.2019043 C156.680907,10.8147003 156.258548,11.2919905 155.709229,11.6337891 C155.159909,11.9755876 154.528812,12.1464844 153.815918,12.1464844 C152.741694,12.1464844 151.871341,11.772953 151.204834,11.0258789 C150.538327,10.2788049 150.205078,9.29004521 150.205078,8.05957031 L150.205078,7.96435547 Z M151.567383,8.12548828 C151.567383,9.00439893 151.771238,9.70995828 152.178955,10.2421875 C152.586672,10.7744167 153.132321,11.0405273 153.815918,11.0405273 C154.504398,11.0405273 155.051268,10.7707547 155.456543,10.2312012 C155.861818,9.69164769 156.064453,8.93604001 156.064453,7.96435547 C156.064453,7.0952105 155.858156,6.39087184 155.445557,5.85131836 C155.032957,5.31176488 154.484867,5.04199219 153.80127,5.04199219 C153.132321,5.04199219 152.592775,5.30810281 152.182617,5.84033203 C151.772459,6.37256125 151.567383,7.13427239 151.567383,8.12548828 Z M162.297363,11.0405273 C162.780764,11.0405273 163.203123,10.8940444 163.564453,10.6010742 C163.925783,10.308104 164.125976,9.94189673 164.165039,9.50244141 L165.446777,9.50244141 C165.422363,9.95654524 165.266115,10.3886698 164.978027,10.7988281 C164.68994,11.2089864 164.305422,11.5361316 163.824463,11.7802734 C163.343503,12.0244153 162.834475,12.1464844 162.297363,12.1464844 C161.218256,12.1464844 160.360111,11.7863806 159.7229,11.0661621 C159.08569,10.3459437 158.76709,9.36084609 158.76709,8.11083984 L158.76709,7.88378906 C158.76709,7.11230083 158.90869,6.42627253 159.191895,5.82568359 C159.475099,5.22509465 159.881589,4.75879072 160.411377,4.42675781 C160.941165,4.0947249 161.567379,3.92871094 162.290039,3.92871094 C163.178715,3.92871094 163.917233,4.19482156 164.505615,4.72705078 C165.093997,5.25928 165.407715,5.95019106 165.446777,6.79980469 L164.165039,6.79980469 C164.125976,6.28710681 163.931887,5.86596844 163.582764,5.53637695 C163.233641,5.20678546 162.802737,5.04199219 162.290039,5.04199219 C161.601559,5.04199219 161.068117,5.28979244 160.689697,5.78540039 C160.311277,6.28100834 160.12207,6.99755391 160.12207,7.93505859 L160.12207,8.19140625 C160.12207,9.10449675 160.310057,9.80761472 160.686035,10.3007812 C161.062014,10.7939478 161.599118,11.0405273 162.297363,11.0405273 Z M169.182129,8.33056641 L168.33252,9.21679688 L168.33252,12 L166.977539,12 L166.977539,0.75 L168.33252,0.75 L168.33252,7.55419922 L169.057617,6.68261719 L171.525879,4.07519531 L173.173828,4.07519531 L170.090332,7.38574219 L173.532715,12 L171.943359,12 L169.182129,8.33056641 Z M179.187012,9.89794922 C179.187012,9.53173645 179.049074,9.24731547 178.773193,9.04467773 C178.497313,8.84204 178.016361,8.6674812 177.330322,8.52099609 C176.644284,8.37451099 176.099856,8.19873149 175.697021,7.99365234 C175.294187,7.78857319 174.996339,7.54443501 174.803467,7.26123047 C174.610595,6.97802593 174.51416,6.64111523 174.51416,6.25048828 C174.51416,5.60107097 174.788816,5.05176006 175.338135,4.60253906 C175.887454,4.15331807 176.589351,3.92871094 177.443848,3.92871094 C178.34229,3.92871094 179.071042,4.16064221 179.630127,4.62451172 C180.189212,5.08838123 180.46875,5.68163701 180.46875,6.40429688 L179.106445,6.40429688 C179.106445,6.03320127 178.948976,5.71338025 178.634033,5.44482422 C178.31909,5.17626819 177.922366,5.04199219 177.443848,5.04199219 C176.950681,5.04199219 176.564943,5.14941299 176.286621,5.36425781 C176.008299,5.57910264 175.869141,5.85986155 175.869141,6.20654297 C175.869141,6.53369304 175.998534,6.78027261 176.257324,6.94628906 C176.516115,7.11230552 176.983639,7.27099534 177.659912,7.42236328 C178.336185,7.57373123 178.884275,7.75439348 179.304199,7.96435547 C179.724123,8.17431746 180.035399,8.42700048 180.238037,8.72241211 C180.440675,9.01782374 180.541992,9.37792756 180.541992,9.80273438 C180.541992,10.5107457 180.258792,11.078367 179.692383,11.5056152 C179.125974,11.9328635 178.391118,12.1464844 177.487793,12.1464844 C176.853024,12.1464844 176.291506,12.0341808 175.803223,11.8095703 C175.314939,11.5849598 174.932863,11.2712422 174.656982,10.8684082 C174.381102,10.4655742 174.243164,10.0297875 174.243164,9.56103516 L175.598145,9.56103516 C175.622559,10.015139 175.804442,10.3752428 176.143799,10.6413574 C176.483156,10.907472 176.93115,11.0405273 177.487793,11.0405273 C178.000491,11.0405273 178.411864,10.9367686 178.721924,10.729248 C179.031984,10.5217275 179.187012,10.2446306 179.187012,9.89794922 Z" id="TargetConfrmationBlocks" fill="#444444" fill-rule="nonzero"></path>
                <rect id="Rectangle" stroke="#979797" fill="#D8D8D8" x="0.5" y="22.5" width="274" height="1"></rect>
                <path d="M256.978117,6.00001907 L265.018716,6.00001907 C265.574989,6.00001907 265.853095,6.67189247 265.459359,7.06562933 L261.4406,11.0875008 C261.196857,11.3312442 260.799976,11.3312442 260.556233,11.0875008 L256.537505,7.06562933 C256.143737,6.67189247 256.421874,6.00001907 256.978117,6.00001907 Z" id="c" fill="#5F5F5F" fill-rule="nonzero"></path>
            </g>
            <text id="Amount" opacity="0" font-family="Roboto-Regular, Roboto" font-size="12" font-weight="normal" fill="#5E4EA5">
                <tspan x="0" y="11">Amount</tspan>
            </text>
        </g>
        <g id="Group-15" transform="translate(794.000000, 292.000000)">
            <text id="sats" font-family="Roboto-Regular, Roboto" font-size="15" font-weight="normal" fill="#444444">
                <tspan x="0" y="14">sats</tspan>
            </text>
            <rect id="Rectangle" stroke="#979797" fill="#D8D8D8" x="0.5" y="24.5" width="123" height="1"></rect>
            <path d="M105.942402,8.00001907 L113.983002,8.00001907 C114.539275,8.00001907 114.817381,8.67189247 114.423644,9.06562933 L110.404886,13.0875008 C110.161142,13.3312442 109.764262,13.3312442 109.520519,13.0875008 L105.501791,9.06562933 C105.108023,8.67189247 105.38616,8.00001907 105.942402,8.00001907 Z" id="c" fill="#5F5F5F" fill-rule="nonzero"></path>
        </g>
        <text id="Send,-receive-or-cas" font-family="Roboto-Regular, Roboto" font-size="16" font-weight="normal" fill="#84979E">
            <tspan x="48" y="177">Send, receive or cashout your funds.</tspan>
        </text>
        <path d="M37.4999654,163.134402 C38.2187137,162.718784 39.1155927,163.318789 38.9874497,164.153168 L36.9874544,177.1875 C36.8905919,177.828123 36.2156057,178.206235 35.6187138,177.959379 L31.6687415,176.328127 L29.771865,178.634365 C29.1812292,179.353113 27.9999881,178.943751 27.9999881,177.999998 L27.9999881,174.812505 L23.6187424,173.00001 C22.8531192,172.684397 22.7812505,171.625013 23.4999988,171.209395 L37.4999654,163.134402 Z M28.9999857,177.999998 L30.7031066,175.928134 L28.9999857,175.22501 L28.9999857,177.999998 Z M35.999969,177.034363 L37.9999642,164.000031 L23.9999976,172.078137 L27.5468642,173.540627 L35.524964,166.740656 C35.6999819,166.590662 35.9405819,166.828149 35.7905884,167.003137 L29.5562283,174.371893 L35.999969,177.034363 Z" id="p" fill="#84979E" fill-rule="nonzero"></path>
        <g id="Group-20" transform="translate(968.000000, 162.000000)" fill="#84979E">
            <path d="M16.4933994,9.00001192 C16.7918301,9.00001192 17.0371603,9.26218781 16.9952598,9.55781088 C16.7512113,11.2843693 15.9193346,12.8203153 14.7099564,13.9596864 C14.617763,14.0465697 14.4990194,14.0887449 14.3796654,14.0887449 C14.2623561,14.0885313 14.0996673,14.0212097 14.0165376,13.9384462 L9.07810336,9.00001192 L16.4933994,9.00001192 Z M14.3712121,12.8787563 C15.1149542,12.0625046 15.6411981,11.0675119 15.8949511,10.0000095 L11.4924653,10.0000095 L14.3712121,12.8787563 Z M6.99998331,9.00001192 L11.8709129,13.8709415 C12.0849626,14.0849913 12.0687273,14.4484242 11.8218407,14.6234421 C10.6252798,15.472195 9.16999156,15.9796706 7.59498311,15.9993849 C7.56434354,15.9996901 7.53468052,15.9999952 7.50404095,15.9999952 C3.5368568,15.9999952 0.139678622,12.7353241 0.00436400327,8.76157865 C-0.128112488,4.86250958 2.71843834,1.60909937 6.44218435,1.0828555 C6.46437057,1.0797122 6.4865568,1.07815581 6.50810216,1.07815581 C6.77561861,1.07815581 6.99998331,1.3087766 6.99998331,1.58471588 L6.99998331,9.00001192 Z M7.58216576,14.9993873 C8.69529177,14.9856239 9.77030141,14.6900008 10.7252857,14.1393734 L5.99998569,9.41407343 L5.99998569,2.18221812 C3.01030776,2.88283901 0.897489315,5.59846974 1.00375127,8.72752112 C1.1193821,12.1275069 4.09624268,14.9999976 7.50373577,14.9999976 L7.58216576,14.9993873 Z M15.9987106,6.97502285 C16.0183944,7.26002584 15.7784048,7.5000155 15.4927609,7.5000155 L8.49997973,7.5000155 L8.49997973,0.507234318 C8.49997973,0.232851427 8.721842,3.33786011e-05 8.99247124,3.33786011e-05 C9.00309133,3.33786011e-05 9.01404711,0.000338553655 9.02497238,0.00128459632 C12.7580873,0.258791307 15.7412039,3.24190797 15.9987106,6.97502285 Z M9.49997735,6.50001788 L14.9405772,6.50001788 C14.508724,3.71096203 12.2890332,1.4909661 9.49997735,1.05941806 L9.49997735,6.50001788 Z" id="c" fill-rule="nonzero"></path>
            <text id="Check-your-balance." font-family="Roboto-Regular, Roboto" font-size="16" font-weight="normal">
                <tspan x="25" y="15">Check your balance.</tspan>
            </text>
        </g>
        <g id="Group-17" transform="translate(27.000000, 500.000000)" fill="#84979E">
            <path d="M10.7499744,8.50001431 C10.8874862,8.50001431 10.9999738,8.61250302 10.9999738,8.7500149 L10.9999738,9.25001371 C10.9999738,9.38752559 10.8874862,9.50001431 10.7499744,9.50001431 L3.24999225,9.50001431 C3.11248037,9.50001431 2.99999285,9.38752559 2.99999285,9.25001371 L2.99999285,8.7500149 C2.99999285,8.61250302 3.11248037,8.50001431 3.24999225,8.50001431 L10.7499744,8.50001431 Z M10.7499744,11.5000072 C10.8874862,11.5000072 10.9999738,11.6124959 10.9999738,11.7500077 L10.9999738,12.2500066 C10.9999738,12.3875184 10.8874862,12.5000072 10.7499744,12.5000072 L3.24999225,12.5000072 C3.11248037,12.5000072 2.99999285,12.3875184 2.99999285,12.2500066 L2.99999285,11.7500077 C2.99999285,11.6124959 3.11248037,11.5000072 3.24999225,11.5000072 L10.7499744,11.5000072 Z M13.0655816,1.00003338 C13.5530988,1.00003338 13.9999666,1.39065745 13.996886,1.93441836 L13.996886,16.0687536 C13.996886,16.61874 13.5499555,16.9999952 13.0655816,16.9999952 C12.8812254,16.9999952 12.6937258,16.9437515 12.524964,16.8218646 L11.1655923,15.843748 L9.95935736,16.7124898 C9.69684578,16.9031327 9.39060261,16.9968824 9.08435944,16.9968824 C8.77811628,16.9968824 8.46872981,16.8999894 8.20621823,16.7124898 L6.99998331,15.843748 L5.79374839,16.7124898 C5.53123681,16.9031327 5.22499365,16.9968824 4.91875048,16.9968824 C4.60936401,16.9968824 4.30312084,16.8999894 4.04060926,16.7124898 L2.83437435,15.843748 L1.47500259,16.8218646 C1.303128,16.9437515 1.11562844,16.9999952 0.934384979,16.9999952 C0.446867831,16.9999952 0,16.6093712 0,16.0687536 L0,1.93441836 C0,1.38440136 0.450011134,1.00314616 0.934384979,1.00003338 C1.11874123,1.00003338 1.30624078,1.05627714 1.47500259,1.17816406 L2.83437435,2.15628062 L4.04060926,1.2875388 C4.30312084,1.09689594 4.60936401,1.00314616 4.91560718,1.00314616 C5.22185034,1.00314616 5.53123681,1.10003924 5.79374839,1.2875388 L6.99998331,2.15628062 L8.20621823,1.2875388 C8.46872981,1.09689594 8.77497298,1.00314616 9.08121614,1.00314616 C9.39060261,1.00314616 9.69684578,1.10003924 9.95935736,1.2875388 L11.1655923,2.15628062 L12.524964,1.17816406 C12.6968386,1.05627714 12.8843382,1.00003338 13.0655816,1.00003338 Z M12.999969,15.9312417 L12.999969,2.06878693 L11.749972,2.96877868 L11.1687356,3.39065268 L10.5843559,2.96877868 L9.37809043,2.10314965 C9.29059675,2.04064979 9.19059088,2.00628708 9.08435944,2.00628708 C8.97809749,2.00628708 8.87809163,2.03753701 8.79059794,2.10003686 L7.58436302,2.96877868 L6.99998331,3.39065268 L6.4156036,2.96877868 L5.20936868,2.10314965 C5.121875,2.04064979 5.02186913,2.00628708 4.91560718,2.00628708 C4.81248853,2.00628708 4.71248266,2.03753701 4.62498897,2.10003686 L3.41875406,2.96877868 L2.83437435,3.39065268 L2.24999464,2.96877868 L0.999997616,2.06878693 L0.999997616,15.9500099 L2.24999464,15.0312499 L2.83123104,14.6093759 L3.41561075,15.0312499 L4.62187619,15.896879 C4.70936988,15.9593788 4.80937574,15.9937415 4.91560718,15.9937415 C5.02186913,15.9937415 5.121875,15.9624916 5.20936868,15.8999918 L6.4156036,15.0312499 L6.99998331,14.6093759 L7.58436302,15.0312499 L8.79059794,15.896879 C8.87809163,15.9593788 8.97809749,15.9937415 9.08435944,15.9937415 C9.1874781,15.9937415 9.28748396,15.9624916 9.37497765,15.8999918 L10.5812126,15.0312499 L11.1655923,14.6093759 L11.749972,15.0312499 L12.999969,15.9312417 Z M10.7499744,5.50002146 C10.8874862,5.50002146 10.9999738,5.61251017 10.9999738,5.75002205 L10.9999738,6.25002086 C10.9999738,6.38753274 10.8874862,6.50002146 10.7499744,6.50002146 L3.24999225,6.50002146 C3.11248037,6.50002146 2.99999285,6.38753274 2.99999285,6.25002086 L2.99999285,5.75002205 C2.99999285,5.61251017 3.11248037,5.50002146 3.24999225,5.50002146 L10.7499744,5.50002146 Z" id="r" fill-rule="nonzero"></path>
            <text id="Transaction-History" font-family="Roboto-Regular, Roboto" font-size="16" font-weight="normal">
                <tspan x="21" y="15">Transaction History</tspan>
            </text>
        </g>
        <g id="Group-18" transform="translate(965.000000, 198.000000)">
            <path d="M5.1277704,0.5 C3.5776195,0.5 2.94057806,0.623018378 2.28210802,0.975172007 C1.71739041,1.27718629 1.27718629,1.71739041 0.975172007,2.28210802 C0.623018378,2.94057806 0.5,3.5776195 0.5,5.1277704 L0.5,268.87223 C0.5,270.42238 0.623018378,271.059422 0.975172007,271.717892 C1.27718629,272.28261 1.71739041,272.722814 2.28210802,273.024828 C2.94057806,273.376982 3.5776195,273.5 5.1277704,273.5 L289.87223,273.5 C291.42238,273.5 292.059422,273.376982 292.717892,273.024828 C293.28261,272.722814 293.722814,272.28261 294.024828,271.717892 C294.376982,271.059422 294.5,270.42238 294.5,268.87223 L294.5,5.1277704 C294.5,3.5776195 294.376982,2.94057806 294.024828,2.28210802 C293.722814,1.71739041 293.28261,1.27718629 292.717892,0.975172007 C292.059422,0.623018378 291.42238,0.5 289.87223,0.5 L5.1277704,0.5 Z" id="Rectangle" stroke="#DEDEDE" fill="#FFFFFF"></path>
            <path d="M0,48.5 L295,48.5" id="Line" stroke="#D7D7D7" stroke-linecap="square"></path>
            <rect id="Rectangle" fill="#5E4EA5" x="1" y="47" width="99" height="2"></rect>
            <rect id="Rectangle" fill="#59316B" opacity="0" x="98" y="47" width="99" height="2"></rect>
            <rect id="Rectangle" fill="#59316B" opacity="0" x="196" y="47" width="99" height="2"></rect>
            <text id="SATS" font-family="Roboto-Medium, Roboto" font-size="14" font-weight="400" fill="#5E4EA5">
                <tspan x="32.1435547" y="30">SATS</tspan>
            </text>
            <text id="BTC" font-family="Roboto-Regular, Roboto" font-size="14" font-weight="normal" fill="#979797">
                <tspan x="134.40918" y="30">BTC</tspan>
            </text>
            <text id="GBP" font-family="Roboto-Regular, Roboto" font-size="14" font-weight="normal" fill="#979797">
                <tspan x="231.958008" y="30">GBP</tspan>
            </text>
            <text id="Total-Balance" font-family="Roboto-Medium, Roboto" font-size="12" font-weight="400" fill="#5E4EA5">
                <tspan x="24" y="83">Total Balance</tspan>
            </text>
            <text id="413,722-sats" font-family="Roboto-Light, Roboto" font-size="20" font-weight="300" fill="#222831">
                <tspan x="24" y="109">413,722 sats</tspan>
            </text>
            <text id="Confirmed" font-family="Roboto-Medium, Roboto" font-size="12" font-weight="400" fill="#5E4EA5">
                <tspan x="24" y="150">Confirmed</tspan>
            </text>
            <text id="413,722-sats" font-family="Roboto-Light, Roboto" font-size="20" font-weight="300" fill="#222831">
                <tspan x="24" y="176">413,722 sats</tspan>
            </text>
            <text id="Unconfirmed" font-family="Roboto-Medium, Roboto" font-size="12" font-weight="400" fill="#5E4EA5">
                <tspan x="24" y="219">Unconfirmed</tspan>
            </text>
            <text id="0-sats" font-family="Roboto-Light, Roboto" font-size="20" font-weight="300" fill="#222831">
                <tspan x="24" y="245">0 sats</tspan>
            </text>
        </g>
        <g id="RTL-Logo" transform="translate(1203.000000, 57.000000)" fill="#FFFFFF" fill-rule="nonzero">
            <path d="M5.10234375,10.1960631 L3.54375,10.1960631 L2.80546875,14.4124693 L0,14.4124693 L2.0671875,2.46871933 L6.28359375,2.47692246 C7.63438175,2.47692246 8.67480104,2.79273961 9.40488281,3.4243834 C10.1349646,4.05602718 10.4617191,4.91871386 10.3851562,6.01246933 C10.3249997,6.87653615 10.0761741,7.59156807 9.63867187,8.15758652 C9.20116969,8.72360498 8.58867581,9.17067082 7.80117187,9.49879746 L9.40898437,14.2730162 L9.40898437,14.4124693 L6.41484375,14.4124693 L5.10234375,10.1960631 Z M3.92109375,7.97301621 L5.56171875,7.98942246 C6.01015849,7.98942246 6.39980303,7.88004855 6.73066406,7.66129746 C7.06152509,7.44254636 7.29804616,7.1431353 7.44023438,6.76305527 C7.58242259,6.38297525 7.6234378,6.01520549 7.56328125,5.65973496 C7.4539057,5.05270067 7.06562834,4.732782 6.3984375,4.69996933 L4.4953125,4.69176621 L3.92109375,7.97301621 Z M21.0984375,4.69176621 L17.6203125,4.69176621 L15.9386719,14.4124693 L13.125,14.4124693 L14.8148438,4.69176621 L11.3941406,4.69176621 L11.7878906,2.46871933 L21.4839844,2.46871933 L21.0984375,4.69176621 Z M23.8464844,12.1976256 L28.7109375,12.1976256 L28.3253906,14.4124693 L20.6554688,14.4124693 L22.7226562,2.46871933 L25.5363281,2.46871933 L23.8464844,12.1976256 Z" id="RTL-Copy"></path>
            <path d="M37.882011,5.59373905 C38.4131621,5.59373905 38.7433371,6.1708163 38.4763316,6.62733033 L33.4232186,15.3554345 C33.2968796,15.5736259 33.0671926,15.699965 32.8260382,15.699965 C32.3867394,15.699965 32.0537046,15.2894051 32.1570525,14.8529943 L33.4806404,9.26873029 L30.0726546,9.26873029 C29.656347,9.26873029 29.3347797,8.90123677 29.3893415,8.48778904 L30.3080893,1.59718047 C30.3540155,1.25553795 30.646872,1 30.9914024,1 L35.1257676,1 C35.5765338,1 35.9067088,1.43066304 35.7918653,1.86707385 L34.5687655,5.59373905 L37.882011,5.59373905 Z" id="b-copy"></path>
            <path d="M46.9781166,6.00001907 L55.0187163,6.00001907 C55.5749894,6.00001907 55.8530954,6.67189247 55.4593586,7.06562933 L51.4405998,11.0875008 C51.1968565,11.3312442 50.7999763,11.3312442 50.556233,11.0875008 L46.5375048,7.06562933 C46.1437375,6.67189247 46.421874,6.00001907 46.9781166,6.00001907 Z" id="c"></path>
        </g>
        <g id="Group-16" transform="translate(24.000000, 535.000000)">
            <path d="M0.5,187.5 L1234.5,187.5 L1234.5,5.1277704 C1234.5,3.5776195 1234.37698,2.94057806 1234.02483,2.28210802 C1233.72281,1.71739041 1233.28261,1.27718629 1232.71789,0.975172007 C1232.05942,0.623018378 1231.42238,0.5 1229.87223,0.5 L5.1277704,0.5 C3.5776195,0.5 2.94057806,0.623018378 2.28210802,0.975172007 C1.71739041,1.27718629 1.27718629,1.71739041 0.975172007,2.28210802 C0.623018378,2.94057806 0.5,3.5776195 0.5,5.1277704 L0.5,187.5 Z" id="Rectangle" stroke="#DEDEDE" fill="#FFFFFF"></path>
            <path d="M1,56.5 L1235,56.5" id="Line-2" stroke="#E1E1E1" stroke-linecap="square"></path>
            <path d="M1,106.5 L1235,106.5" id="Line-2" stroke="#E1E1E1" stroke-linecap="square"></path>
            <path d="M1,158.5 L1235,158.5" id="Line-2" stroke="#E1E1E1" stroke-linecap="square"></path>
            <text id="Date/Time" font-family="Roboto-Medium, Roboto" font-size="14" font-weight="400" letter-spacing="0.5" fill="#000000">
                <tspan x="21" y="34">Date/Time</tspan>
            </text>
            <text id="Address" font-family="Roboto-Medium, Roboto" font-size="14" font-weight="400" letter-spacing="0.5" fill="#000000">
                <tspan x="267" y="34">Address</tspan>
            </text>
            <text id="Type" font-family="Roboto-Medium, Roboto" font-size="14" font-weight="400" letter-spacing="0.5" fill="#000000">
                <tspan x="177" y="34">Type</tspan>
            </text>
            <text id="Received" font-family="Roboto-Regular, Roboto" font-size="14" font-weight="normal" letter-spacing="0.200000003" fill="#4F4F4F">
                <tspan x="177" y="84">Received</tspan>
            </text>
            <text id="Sent" font-family="Roboto-Regular, Roboto" font-size="14" font-weight="normal" letter-spacing="0.200000003" fill="#4F4F4F">
                <tspan x="177" y="136">Sent</tspan>
            </text>
            <text id="154" font-family="Roboto-Regular, Roboto" font-size="14" font-weight="normal" letter-spacing="0.200000003" fill="#4F4F4F">
                <tspan x="355" y="84">154</tspan>
            </text>
            <text id="154" font-family="Roboto-Regular, Roboto" font-size="14" font-weight="normal" letter-spacing="0.200000003" fill="#4F4F4F">
                <tspan x="355" y="136">154</tspan>
            </text>
            <text id="154" font-family="Roboto-Regular, Roboto" font-size="14" font-weight="normal" letter-spacing="0.200000003" fill="#4F4F4F">
                <tspan x="480" y="84">154</tspan>
            </text>
            <text id="154" font-family="Roboto-Regular, Roboto" font-size="14" font-weight="normal" letter-spacing="0.200000003" fill="#4F4F4F">
                <tspan x="480" y="136">154</tspan>
            </text>
            <text id="154" font-family="Roboto-Regular, Roboto" font-size="14" font-weight="normal" letter-spacing="0.200000003" fill="#4F4F4F">
                <tspan x="546" y="84">154</tspan>
            </text>
            <text id="154" font-family="Roboto-Regular, Roboto" font-size="14" font-weight="normal" letter-spacing="0.200000003" fill="#4F4F4F">
                <tspan x="546" y="136">154</tspan>
            </text>
            <text id="154" font-family="Roboto-Regular, Roboto" font-size="14" font-weight="normal" letter-spacing="0.200000003" fill="#4F4F4F">
                <tspan x="654" y="84">154</tspan>
            </text>
            <text id="154" font-family="Roboto-Regular, Roboto" font-size="14" font-weight="normal" letter-spacing="0.200000003" fill="#4F4F4F">
                <tspan x="654" y="136">154</tspan>
            </text>
            <text id="154" font-family="Roboto-Regular, Roboto" font-size="14" font-weight="normal" letter-spacing="0.200000003" fill="#4F4F4F">
                <tspan x="773" y="84">154</tspan>
            </text>
            <text id="154" font-family="Roboto-Regular, Roboto" font-size="14" font-weight="normal" letter-spacing="0.200000003" fill="#4F4F4F">
                <tspan x="773" y="136">154</tspan>
            </text>
            <text id="413,722-sats" font-family="Roboto-Regular, Roboto" font-size="14" font-weight="normal" letter-spacing="0.200000003" fill="#4F4F4F">
                <tspan x="924" y="84">413,722 sats</tspan>
            </text>
            <text id="413,722-sats" font-family="Roboto-Regular, Roboto" font-size="14" font-weight="normal" letter-spacing="0.200000003" fill="#4F4F4F">
                <tspan x="924" y="136">413,722 sats</tspan>
            </text>
            <text id="04/SET/2019-08:00" font-family="Roboto-Regular, Roboto" font-size="14" font-weight="normal" letter-spacing="0.200000003" fill="#4F4F4F">
                <tspan x="21" y="84">04/SET/2019 08:00</tspan>
            </text>
            <text id="04/SET/2019-08:00" font-family="Roboto-Regular, Roboto" font-size="14" font-weight="normal" letter-spacing="0.200000003" fill="#4F4F4F">
                <tspan x="21" y="136">04/SET/2019 08:00</tspan>
            </text>
            <text id="Sent" font-family="Roboto-Regular, Roboto" font-size="14" font-weight="normal" letter-spacing="0.200000003" fill="#4F4F4F">
                <tspan x="177" y="191">Sent</tspan>
            </text>
            <text id="154" font-family="Roboto-Regular, Roboto" font-size="14" font-weight="normal" letter-spacing="0.200000003" fill="#4F4F4F">
                <tspan x="355" y="191">154</tspan>
            </text>
            <text id="154" font-family="Roboto-Regular, Roboto" font-size="14" font-weight="normal" letter-spacing="0.200000003" fill="#4F4F4F">
                <tspan x="480" y="191">154</tspan>
            </text>
            <text id="154" font-family="Roboto-Regular, Roboto" font-size="14" font-weight="normal" letter-spacing="0.200000003" fill="#4F4F4F">
                <tspan x="546" y="191">154</tspan>
            </text>
            <text id="154" font-family="Roboto-Regular, Roboto" font-size="14" font-weight="normal" letter-spacing="0.200000003" fill="#4F4F4F">
                <tspan x="654" y="191">154</tspan>
            </text>
            <text id="154" font-family="Roboto-Regular, Roboto" font-size="14" font-weight="normal" letter-spacing="0.200000003" fill="#4F4F4F">
                <tspan x="773" y="191">154</tspan>
            </text>
            <text id="413,722-sats" font-family="Roboto-Regular, Roboto" font-size="14" font-weight="normal" letter-spacing="0.200000003" fill="#4F4F4F">
                <tspan x="924" y="191">413,722 sats</tspan>
            </text>
            <text id="04/SET/2019-08:00" font-family="Roboto-Regular, Roboto" font-size="14" font-weight="normal" letter-spacing="0.200000003" fill="#4F4F4F">
                <tspan x="21" y="191">04/SET/2019 08:00</tspan>
            </text>
            <text id="Confirmations" font-family="Roboto-Medium, Roboto" font-size="14" font-weight="400" letter-spacing="0.5" fill="#000000">
                <tspan x="355" y="34">Confirmations</tspan>
            </text>
            <text id="Fees" font-family="Roboto-Medium, Roboto" font-size="14" font-weight="400" letter-spacing="0.5" fill="#000000">
                <tspan x="482" y="34">Fees</tspan>
            </text>
            <text id="Block-Hash" font-family="Roboto-Medium, Roboto" font-size="14" font-weight="400" letter-spacing="0.5" fill="#000000">
                <tspan x="546" y="34">Block Hash</tspan>
            </text>
            <text id="Block-Height" font-family="Roboto-Medium, Roboto" font-size="14" font-weight="400" letter-spacing="0.5" fill="#000000">
                <tspan x="655" y="34">Block Height</tspan>
            </text>
            <text id="Transaction-Hash" font-family="Roboto-Medium, Roboto" font-size="14" font-weight="400" letter-spacing="0.5" fill="#000000">
                <tspan x="773" y="34">Transaction Hash</tspan>
            </text>
            <text id="Amount" font-family="Roboto-Medium, Roboto" font-size="14" font-weight="400" letter-spacing="0.5" fill="#000000">
                <tspan x="924" y="34">Amount</tspan>
            </text>
        </g>
    </g>
</svg>